<svg width="150" height="150" viewBox="0 0 150 150" fill="none" xmlns="http://www.w3.org/2000/svg">
<path d="M75 2C34.6894 2 2 34.6894 2 75C2 115.311 34.6894 148 75 148C115.311 148 148 115.311 148 75C148 34.6894 115.325 2 75 2ZM38.0182 77.4528L38.3248 76.9564L57.3194 47.2454C57.5968 46.822 58.2538 46.8658 58.4582 47.333C61.6264 54.4432 64.3712 63.2908 63.0864 68.795C62.5462 71.058 61.0424 74.124 59.3488 76.9564C59.1298 77.3652 58.8962 77.774 58.6334 78.1682C58.5166 78.3434 58.3122 78.4456 58.0932 78.4456H38.573C38.0474 78.4456 37.7408 77.8762 38.0182 77.4528ZM122.654 87.6728C122.654 87.9502 122.494 88.1838 122.26 88.286C120.786 88.9138 115.749 91.2352 113.661 94.1406C108.317 101.572 104.244 112.201 95.1188 112.201H57.0712C43.5808 112.201 32.66 101.236 32.66 87.702V87.264C32.66 86.9136 32.952 86.6216 33.317 86.6216H54.5162C54.9396 86.6216 55.2462 87.0012 55.217 87.4246C55.0564 88.797 55.3192 90.2132 55.9762 91.498C57.2318 94.053 59.8452 95.6444 62.663 95.6444H73.1604V87.4538H62.7798C62.2542 87.4538 61.933 86.8406 62.2396 86.4026C62.3564 86.2274 62.4732 86.0522 62.6192 85.8478C63.5974 84.4462 64.999 82.2854 66.4006 79.818C67.3496 78.1536 68.2694 76.3724 69.014 74.5912C69.16 74.27 69.2768 73.9342 69.4082 73.613C69.6126 73.0436 69.817 72.5034 69.963 71.9778C70.109 71.5252 70.2404 71.058 70.3572 70.62C70.7076 69.1016 70.8536 67.4956 70.8536 65.8312C70.8536 65.1742 70.8244 64.488 70.766 63.8456C70.7368 63.1302 70.6492 62.4148 70.5616 61.6994C70.5032 61.0716 70.3864 60.4438 70.2696 59.8014C70.109 58.8524 69.9046 57.9034 69.671 56.9544L69.5834 56.5894C69.4082 55.9324 69.2476 55.3192 69.0432 54.6622C68.4446 52.6182 67.773 50.618 67.043 48.7492C66.7802 48.0046 66.4882 47.2892 66.1816 46.5884C65.7436 45.508 65.291 44.5298 64.8822 43.61C64.6632 43.1866 64.488 42.807 64.3128 42.4128C64.1084 41.9748 63.904 41.5368 63.685 41.1134C63.539 40.7922 63.3638 40.4856 63.247 40.1936L61.9622 37.8284C61.787 37.5072 62.079 37.113 62.4294 37.2152L70.4594 39.3906H70.4886C70.5032 39.3906 70.5032 39.3906 70.5178 39.3906L71.569 39.6972L72.737 40.0184L73.1604 40.1352V35.3756C73.1604 33.0688 75 31.2 77.2922 31.2C78.431 31.2 79.4676 31.6672 80.1976 32.4264C80.9422 33.1856 81.4094 34.2222 81.4094 35.3756V42.4566L82.2708 42.6902C82.3292 42.7194 82.4022 42.7486 82.4606 42.7924C82.665 42.9384 82.9716 43.172 83.3512 43.464C83.6578 43.6976 83.979 43.9896 84.3586 44.2962C85.1324 44.924 86.0668 45.727 87.0742 46.6468C87.337 46.8804 87.5998 47.114 87.848 47.3622C89.1474 48.574 90.6074 49.9902 92.009 51.567C92.4032 52.0196 92.7828 52.4576 93.177 52.9394C93.5566 53.4212 93.98 53.8884 94.3304 54.3556C94.8122 54.9834 95.3086 55.6404 95.7612 56.3266C95.9656 56.6478 96.2138 56.9836 96.4036 57.3048C96.9876 58.1662 97.484 59.0568 97.9658 59.9474C98.1702 60.3562 98.3746 60.8088 98.5498 61.2468C99.09 62.444 99.5134 63.6558 99.7762 64.8822C99.8638 65.145 99.9222 65.4224 99.9514 65.6852V65.7436C100.039 66.094 100.068 66.4736 100.097 66.8678C100.214 68.1088 100.156 69.3644 99.893 70.62C99.7762 71.1456 99.6302 71.642 99.455 72.1822C99.2652 72.6932 99.09 73.2188 98.8564 73.7298C98.4038 74.7664 97.8782 75.8176 97.2504 76.7812C97.046 77.1462 96.7978 77.5258 96.5642 77.8908C96.3014 78.2704 96.024 78.6354 95.7904 78.9858C95.4546 79.4384 95.1042 79.9056 94.7392 80.329C94.418 80.767 94.0968 81.205 93.7318 81.5992C93.2354 82.1978 92.7536 82.7526 92.2426 83.2928C91.9506 83.6432 91.6294 84.0082 91.2936 84.3294C90.9724 84.6944 90.6366 85.0156 90.3446 85.3076C89.8336 85.8186 89.4248 86.1982 89.0744 86.534L88.2422 87.2786C88.1254 87.3954 87.9648 87.4538 87.8042 87.4538H81.4094V95.6444H89.454C91.2498 95.6444 92.958 95.0166 94.345 93.834C94.8122 93.4252 96.8708 91.644 99.309 88.9576C99.3966 88.8554 99.4988 88.797 99.6156 88.7678L121.822 82.3438C122.246 82.227 122.654 82.5336 122.654 82.9716V87.6728Z" fill="#D232EA" stroke="white" stroke-width="4"/>
</svg>
