<svg width="18" height="18" viewBox="0 0 18 18" fill="none" xmlns="http://www.w3.org/2000/svg">
<path d="M17 4.54204C16.4116 4.80262 15.7795 4.97869 15.115 5.05828C15.8007 4.64824 16.3136 4.00289 16.5582 3.24264C15.914 3.62506 15.209 3.89424 14.4738 4.03848C13.9794 3.51087 13.3245 3.16117 12.6109 3.04366C11.8973 2.92615 11.1648 3.04741 10.5272 3.3886C9.88955 3.7298 9.38247 4.27185 9.08467 4.93059C8.78686 5.58934 8.71499 6.32792 8.88021 7.03167C7.57496 6.96617 6.29807 6.6271 5.13242 6.03646C3.96677 5.44581 2.93841 4.6168 2.11407 3.60323C1.8322 4.08918 1.67013 4.65261 1.67013 5.25266C1.66982 5.79284 1.80291 6.32474 2.05761 6.80118C2.3123 7.27762 2.68073 7.68386 3.13019 7.98386C2.60893 7.96728 2.09918 7.82651 1.64335 7.57327V7.61552C1.6433 8.37315 1.90551 9.10746 2.38549 9.69385C2.86547 10.2803 3.53365 10.6826 4.27667 10.8327C3.79312 10.9635 3.28615 10.9827 2.79406 10.889C3.0037 11.5409 3.41205 12.111 3.96194 12.5194C4.51184 12.9278 5.17575 13.1541 5.86074 13.1667C4.69794 14.079 3.26188 14.5739 1.78358 14.5717C1.52172 14.5718 1.26007 14.5565 1 14.5259C2.50056 15.4902 4.24731 16.002 6.03127 16C12.0702 16 15.3715 11.001 15.3715 6.66545C15.3715 6.52459 15.368 6.38233 15.3617 6.24147C16.0038 5.77733 16.5581 5.20258 16.9986 4.54415L17 4.54204Z" fill="white"/>
</svg>
