<svg width="176" height="134" viewBox="0 0 176 134" fill="none" xmlns="http://www.w3.org/2000/svg">
<mask id="path-1-outside-1_245_8" maskUnits="userSpaceOnUse" x="0" y="0" width="176" height="134" fill="black">
<rect fill="white" width="176" height="134"/>
<path d="M146.218 14.45C135.509 9.62028 124.029 6.05052 112.024 4.02065C111.917 4.00013 111.807 4.01335 111.708 4.0585C111.609 4.10364 111.526 4.17848 111.471 4.27263C110.001 6.85546 108.363 10.2222 107.215 12.8821C94.4834 10.9799 81.5395 10.9799 68.8075 12.8821C67.5289 9.93429 66.087 7.06002 64.4886 4.27263C64.4344 4.17732 64.3525 4.10079 64.2537 4.05327C64.1549 4.00574 64.0439 3.98948 63.9356 4.00665C51.938 6.03652 40.4583 9.60628 29.7416 14.443C29.6494 14.4816 29.5713 14.5476 29.5176 14.632C7.73426 46.6549 1.76343 77.8868 4.69634 108.727C4.70451 108.802 4.72795 108.875 4.76526 108.942C4.80256 109.008 4.85294 109.066 4.91334 109.112C17.6277 118.368 31.8089 125.419 46.8631 129.97C46.9681 130.003 47.0803 130.003 47.1852 129.97C47.2901 129.938 47.3828 129.874 47.4511 129.788C50.685 125.449 53.5689 120.864 56.0329 116.048C56.1799 115.768 56.0399 115.432 55.7459 115.32C51.224 113.618 46.8427 111.563 42.6422 109.175C42.5668 109.132 42.5032 109.071 42.4571 108.997C42.4111 108.923 42.3841 108.839 42.3786 108.752C42.373 108.666 42.3891 108.579 42.4254 108.5C42.4616 108.421 42.5169 108.352 42.5863 108.3C43.4682 107.649 44.3502 106.97 45.1902 106.291C45.2658 106.23 45.3569 106.191 45.4533 106.179C45.5497 106.166 45.6476 106.181 45.7362 106.221C73.2244 118.568 102.995 118.568 130.161 106.221C130.25 106.179 130.348 106.162 130.446 106.173C130.544 106.184 130.637 106.223 130.714 106.284C131.554 106.97 132.429 107.649 133.318 108.3C133.388 108.351 133.444 108.419 133.481 108.497C133.519 108.576 133.536 108.662 133.532 108.749C133.528 108.835 133.502 108.92 133.457 108.994C133.413 109.068 133.35 109.13 133.276 109.175C129.09 111.583 124.736 113.619 120.165 115.313C120.095 115.339 120.031 115.379 119.977 115.431C119.924 115.483 119.882 115.546 119.855 115.616C119.828 115.685 119.816 115.76 119.82 115.835C119.824 115.909 119.844 115.982 119.878 116.048C122.398 120.857 125.282 125.435 128.453 129.781C128.519 129.871 128.611 129.937 128.716 129.972C128.821 130.007 128.934 130.009 129.041 129.977C144.121 125.439 158.325 118.385 171.054 109.112C171.116 109.068 171.168 109.012 171.206 108.947C171.245 108.882 171.269 108.809 171.278 108.734C174.777 73.0781 165.412 42.0981 146.435 14.646C146.389 14.5567 146.312 14.4872 146.218 14.45ZM60.1417 89.947C51.868 89.947 45.0432 82.4645 45.0432 73.2881C45.0432 64.1047 51.735 56.6292 60.1417 56.6292C68.6115 56.6292 75.3733 64.1677 75.2403 73.2881C75.2403 82.4715 68.5485 89.947 60.1417 89.947ZM115.965 89.947C107.684 89.947 100.867 82.4645 100.867 73.2881C100.867 64.1047 107.551 56.6292 115.965 56.6292C124.435 56.6292 131.197 64.1677 131.064 73.2881C131.064 82.4715 124.442 89.947 115.965 89.947Z"/>
</mask>
<path d="M146.218 14.45C135.509 9.62028 124.029 6.05052 112.024 4.02065C111.917 4.00013 111.807 4.01335 111.708 4.0585C111.609 4.10364 111.526 4.17848 111.471 4.27263C110.001 6.85546 108.363 10.2222 107.215 12.8821C94.4834 10.9799 81.5395 10.9799 68.8075 12.8821C67.5289 9.93429 66.087 7.06002 64.4886 4.27263C64.4344 4.17732 64.3525 4.10079 64.2537 4.05327C64.1549 4.00574 64.0439 3.98948 63.9356 4.00665C51.938 6.03652 40.4583 9.60628 29.7416 14.443C29.6494 14.4816 29.5713 14.5476 29.5176 14.632C7.73426 46.6549 1.76343 77.8868 4.69634 108.727C4.70451 108.802 4.72795 108.875 4.76526 108.942C4.80256 109.008 4.85294 109.066 4.91334 109.112C17.6277 118.368 31.8089 125.419 46.8631 129.97C46.9681 130.003 47.0803 130.003 47.1852 129.97C47.2901 129.938 47.3828 129.874 47.4511 129.788C50.685 125.449 53.5689 120.864 56.0329 116.048C56.1799 115.768 56.0399 115.432 55.7459 115.32C51.224 113.618 46.8427 111.563 42.6422 109.175C42.5668 109.132 42.5032 109.071 42.4571 108.997C42.4111 108.923 42.3841 108.839 42.3786 108.752C42.373 108.666 42.3891 108.579 42.4254 108.5C42.4616 108.421 42.5169 108.352 42.5863 108.3C43.4682 107.649 44.3502 106.97 45.1902 106.291C45.2658 106.23 45.3569 106.191 45.4533 106.179C45.5497 106.166 45.6476 106.181 45.7362 106.221C73.2244 118.568 102.995 118.568 130.161 106.221C130.25 106.179 130.348 106.162 130.446 106.173C130.544 106.184 130.637 106.223 130.714 106.284C131.554 106.97 132.429 107.649 133.318 108.3C133.388 108.351 133.444 108.419 133.481 108.497C133.519 108.576 133.536 108.662 133.532 108.749C133.528 108.835 133.502 108.92 133.457 108.994C133.413 109.068 133.35 109.13 133.276 109.175C129.09 111.583 124.736 113.619 120.165 115.313C120.095 115.339 120.031 115.379 119.977 115.431C119.924 115.483 119.882 115.546 119.855 115.616C119.828 115.685 119.816 115.76 119.82 115.835C119.824 115.909 119.844 115.982 119.878 116.048C122.398 120.857 125.282 125.435 128.453 129.781C128.519 129.871 128.611 129.937 128.716 129.972C128.821 130.007 128.934 130.009 129.041 129.977C144.121 125.439 158.325 118.385 171.054 109.112C171.116 109.068 171.168 109.012 171.206 108.947C171.245 108.882 171.269 108.809 171.278 108.734C174.777 73.0781 165.412 42.0981 146.435 14.646C146.389 14.5567 146.312 14.4872 146.218 14.45ZM60.1417 89.947C51.868 89.947 45.0432 82.4645 45.0432 73.2881C45.0432 64.1047 51.735 56.6292 60.1417 56.6292C68.6115 56.6292 75.3733 64.1677 75.2403 73.2881C75.2403 82.4715 68.5485 89.947 60.1417 89.947ZM115.965 89.947C107.684 89.947 100.867 82.4645 100.867 73.2881C100.867 64.1047 107.551 56.6292 115.965 56.6292C124.435 56.6292 131.197 64.1677 131.064 73.2881C131.064 82.4715 124.442 89.947 115.965 89.947Z" fill="#D232EA"/>
<path d="M146.218 14.45L144.574 18.0963L144.655 18.133L144.738 18.1661L146.218 14.45ZM112.024 4.02065L111.27 7.94894L111.314 7.95729L111.357 7.96466L112.024 4.02065ZM111.708 4.0585L113.366 7.69844L113.366 7.69837L111.708 4.0585ZM111.471 4.27263L108.012 2.26439L108.003 2.27922L107.995 2.29412L111.471 4.27263ZM107.215 12.8821L106.624 16.8382L109.668 17.2929L110.888 14.4671L107.215 12.8821ZM68.8075 12.8821L65.1378 14.4738L66.3603 17.2921L69.3986 16.8382L68.8075 12.8821ZM64.4886 4.27263L61.0112 6.24933L61.0149 6.25589L61.0186 6.26244L64.4886 4.27263ZM64.2537 4.05327L62.5198 7.65795L64.2537 4.05327ZM63.9356 4.00665L63.3093 0.0559974L63.2888 0.0592425L63.2684 0.0626993L63.9356 4.00665ZM29.7416 14.443L31.2887 18.1317L31.3382 18.1109L31.3871 18.0888L29.7416 14.443ZM29.5176 14.632L32.825 16.8817L32.8599 16.8303L32.8933 16.7778L29.5176 14.632ZM4.69634 108.727L0.714311 109.105L0.716739 109.131L0.719495 109.157L4.69634 108.727ZM4.76526 108.942L1.28073 110.906L1.28073 110.906L4.76526 108.942ZM4.91334 109.112L2.48649 112.291L2.52247 112.319L2.55906 112.346L4.91334 109.112ZM46.8631 129.97L48.0398 126.147L48.0302 126.144L48.0206 126.142L46.8631 129.97ZM47.1852 129.97L48.3679 133.791L48.3679 133.791L47.1852 129.97ZM47.4511 129.788L50.5818 132.278L50.6209 132.229L50.6585 132.178L47.4511 129.788ZM56.0329 116.048L52.4913 114.189L52.4815 114.208L52.4719 114.226L56.0329 116.048ZM55.7459 115.32L57.1699 111.582L57.1627 111.58L57.1555 111.577L55.7459 115.32ZM42.6422 109.175L40.6593 112.649L40.6654 112.652L42.6422 109.175ZM42.4571 108.997L39.0639 111.115L39.0641 111.115L42.4571 108.997ZM42.4254 108.5L38.7899 106.832L38.7898 106.832L42.4254 108.5ZM42.5863 108.3L40.2109 105.081L40.1937 105.094L40.1767 105.107L42.5863 108.3ZM45.1902 106.291L42.6771 103.179L42.6757 103.18L45.1902 106.291ZM45.7362 106.221L44.0893 109.866L44.0972 109.87L45.7362 106.221ZM130.161 106.221L131.816 109.862L131.85 109.847L131.884 109.831L130.161 106.221ZM130.446 106.173L130.899 102.199L130.899 102.199L130.446 106.173ZM130.714 106.284L133.244 103.186L133.224 103.17L133.205 103.154L130.714 106.284ZM133.318 108.3L130.954 111.527L130.955 111.528L133.318 108.3ZM133.481 108.497L137.091 106.774L137.091 106.773L133.481 108.497ZM133.457 108.994L136.885 111.056L136.885 111.055L133.457 108.994ZM133.276 109.175L135.27 112.642L135.294 112.628L135.318 112.614L133.276 109.175ZM120.165 115.313L121.53 119.073L121.542 119.069L121.555 119.064L120.165 115.313ZM119.977 115.431L117.183 112.569L117.183 112.569L119.977 115.431ZM119.855 115.616L123.581 117.071L123.581 117.071L119.855 115.616ZM119.82 115.835L115.825 116.046L115.826 116.046L119.82 115.835ZM119.878 116.048L116.326 117.889L116.331 117.897L116.335 117.905L119.878 116.048ZM128.453 129.781L125.221 132.139L125.229 132.149L125.236 132.159L128.453 129.781ZM128.716 129.972L127.451 133.767L127.451 133.767L128.716 129.972ZM129.041 129.977L130.188 133.809L130.193 133.808L129.041 129.977ZM171.054 109.112L168.762 105.833L168.73 105.856L168.698 105.879L171.054 109.112ZM171.206 108.947L174.647 110.986L174.648 110.986L171.206 108.947ZM171.278 108.734L175.254 109.17L175.256 109.147L175.258 109.125L171.278 108.734ZM146.435 14.646L142.888 16.4953L143.003 16.7158L143.145 16.9204L146.435 14.646ZM75.2403 73.2881L71.2407 73.2298L71.2403 73.2589V73.2881H75.2403ZM131.064 73.2881L127.064 73.2298L127.064 73.2589V73.2881H131.064ZM147.863 10.8036C136.85 5.83739 125.043 2.16515 112.691 0.0766349L111.357 7.96466C123.015 9.93588 134.167 13.4032 144.574 18.0963L147.863 10.8036ZM112.778 0.092356C111.857 -0.0845151 110.903 0.0294309 110.049 0.418628L113.366 7.69837C112.71 7.99727 111.978 8.08477 111.27 7.94894L112.778 0.092356ZM110.049 0.418559C109.195 0.807648 108.483 1.45265 108.012 2.26439L114.931 6.28088C114.569 6.90431 114.022 7.39964 113.366 7.69844L110.049 0.418559ZM107.995 2.29412C106.439 5.02697 104.738 8.52869 103.543 11.297L110.888 14.4671C111.989 11.9158 113.563 8.68396 114.948 6.25115L107.995 2.29412ZM107.806 8.92598C94.6826 6.96521 81.3403 6.96521 68.2164 8.92598L69.3986 16.8382C81.7387 14.9945 94.2842 14.9945 106.624 16.8382L107.806 8.92598ZM72.4771 11.2903C71.1394 8.20625 69.6309 5.19909 67.9586 2.28283L61.0186 6.26244C62.5431 8.92095 63.9183 11.6623 65.1378 14.4738L72.4771 11.2903ZM67.9661 2.29593C67.5098 1.49321 66.8195 0.848778 65.9875 0.448582L62.5198 7.65795C61.8854 7.35281 61.3591 6.86143 61.0112 6.24933L67.9661 2.29593ZM65.9875 0.448582C65.1555 0.0483768 64.2212 -0.0885873 63.3093 0.0559974L64.562 7.9573C63.8667 8.06755 63.1542 7.96311 62.5198 7.65795L65.9875 0.448582ZM63.2684 0.0626993C50.9239 2.15124 39.1161 5.82356 28.0962 10.7971L31.3871 18.0888C41.8006 13.389 52.9521 9.92179 64.6029 7.9506L63.2684 0.0626993ZM28.1945 10.7543C27.3497 11.1086 26.6334 11.7129 26.1419 12.4861L32.8933 16.7778C32.5091 17.3823 31.9492 17.8547 31.2887 18.1317L28.1945 10.7543ZM26.2103 12.3822C3.87011 45.2236 -2.30123 77.3967 0.714311 109.105L8.67838 108.348C5.82809 78.3769 11.5984 48.0861 32.825 16.8817L26.2103 12.3822ZM0.719495 109.157C0.785954 109.772 0.976873 110.367 1.28073 110.906L8.24978 106.977C8.47903 107.384 8.62306 107.833 8.67319 108.297L0.719495 109.157ZM1.28073 110.906C1.58448 111.445 1.9947 111.916 2.48649 112.291L7.34018 105.932C7.71119 106.215 8.02065 106.571 8.24978 106.977L1.28073 110.906ZM2.55906 112.346C15.6362 121.866 30.222 129.118 45.7056 133.799L48.0206 126.142C33.3959 121.72 19.6193 114.87 7.26761 105.878L2.55906 112.346ZM45.6864 133.793C46.5602 134.062 47.4946 134.062 48.3679 133.791L46.0025 126.149C46.666 125.944 47.376 125.943 48.0398 126.147L45.6864 133.793ZM48.3679 133.791C49.2414 133.521 50.0128 132.994 50.5818 132.278L44.3205 127.299C44.7527 126.755 45.3388 126.354 46.0025 126.149L48.3679 133.791ZM50.6585 132.178C54.0181 127.67 57.0223 122.896 59.5938 117.87L52.4719 114.226C50.1156 118.832 47.352 123.227 44.2437 127.398L50.6585 132.178ZM59.5744 117.908C60.9102 115.363 59.5535 112.49 57.1699 111.582L54.3219 119.058C52.5262 118.374 51.4495 116.173 52.4913 114.189L59.5744 117.908ZM57.1555 111.577C52.8294 109.948 48.6378 107.982 44.6191 105.697L40.6654 112.652C45.0477 115.143 49.6186 117.287 54.3362 119.064L57.1555 111.577ZM44.6252 105.701C45.1248 105.986 45.5457 106.391 45.8503 106.879L39.0641 111.115C39.4606 111.75 40.0087 112.277 40.6593 112.649L44.6252 105.701ZM45.8504 106.879C46.1549 107.367 46.3337 107.923 46.3704 108.497L38.3868 109.008C38.4346 109.756 38.6674 110.479 39.0639 111.115L45.8504 106.879ZM46.3704 108.497C46.4072 109.071 46.3008 109.645 46.0609 110.168L38.7898 106.832C38.4774 107.513 38.3389 108.26 38.3868 109.008L46.3704 108.497ZM46.0608 110.168C45.821 110.691 45.4551 111.146 44.9958 111.493L40.1767 105.107C39.5787 105.558 39.1022 106.151 38.7899 106.832L46.0608 110.168ZM44.9616 111.518C45.8865 110.835 46.8152 110.121 47.7047 109.402L42.6757 103.18C41.8852 103.819 41.0499 104.462 40.2109 105.081L44.9616 111.518ZM47.7033 109.403C47.2029 109.807 46.6001 110.064 45.962 110.146L44.9446 102.211C44.1136 102.318 43.3287 102.653 42.6771 103.179L47.7033 109.403ZM45.962 110.146C45.3238 110.228 44.6755 110.131 44.0893 109.866L47.383 102.576C46.6197 102.231 45.7755 102.105 44.9446 102.211L45.962 110.146ZM44.0972 109.87C72.6217 122.682 103.592 122.69 131.816 109.862L128.506 102.579C102.397 114.446 73.8271 114.454 47.3751 102.572L44.0972 109.87ZM131.884 109.831C131.296 110.112 130.641 110.221 129.994 110.147L130.899 102.199C130.056 102.103 129.204 102.246 128.438 102.611L131.884 109.831ZM129.993 110.147C129.347 110.074 128.733 109.82 128.223 109.414L133.205 103.154C132.54 102.626 131.742 102.295 130.899 102.199L129.993 110.147ZM128.184 109.382C129.075 110.11 130.006 110.833 130.954 111.527L135.681 105.073C134.851 104.465 134.032 103.829 133.244 103.186L128.184 109.382ZM130.955 111.528C130.491 111.188 130.119 110.739 129.872 110.221L137.091 106.773C136.769 106.099 136.284 105.514 135.68 105.072L130.955 111.528ZM129.872 110.22C129.624 109.702 129.509 109.131 129.536 108.557L137.527 108.94C137.563 108.193 137.413 107.449 137.091 106.774L129.872 110.22ZM129.536 108.557C129.564 107.983 129.733 107.425 130.03 106.933L136.885 111.055C137.271 110.414 137.491 109.687 137.527 108.94L129.536 108.557ZM130.03 106.932C130.325 106.44 130.739 106.029 131.233 105.736L135.318 112.614C135.962 112.232 136.5 111.696 136.885 111.056L130.03 106.932ZM131.281 105.707C127.291 108.002 123.14 109.945 118.775 111.563L121.555 119.064C126.332 117.294 130.888 115.163 135.27 112.642L131.281 105.707ZM118.8 111.553C118.195 111.773 117.644 112.119 117.183 112.569L122.772 118.293C122.418 118.639 121.994 118.905 121.53 119.073L118.8 111.553ZM117.183 112.569C116.723 113.019 116.363 113.561 116.129 114.161L123.581 117.071C123.401 117.531 123.125 117.948 122.772 118.293L117.183 112.569ZM116.129 114.16C115.895 114.761 115.792 115.403 115.825 116.046L123.814 115.623C123.84 116.116 123.761 116.61 123.581 117.071L116.129 114.16ZM115.826 116.046C115.86 116.689 116.03 117.317 116.326 117.889L123.43 114.208C123.657 114.647 123.788 115.129 123.814 115.623L115.826 116.046ZM116.335 117.905C118.953 122.901 121.943 127.645 125.221 132.139L131.684 127.424C128.621 123.224 125.843 118.813 123.421 114.192L116.335 117.905ZM125.236 132.159C125.791 132.91 126.565 133.472 127.451 133.767L129.981 126.178C130.656 126.403 131.246 126.831 131.669 127.404L125.236 132.159ZM127.451 133.767C128.337 134.062 129.293 134.077 130.188 133.809L127.894 126.145C128.576 125.941 129.305 125.952 129.981 126.178L127.451 133.767ZM130.193 133.808C145.705 129.14 160.316 121.883 173.409 112.345L168.698 105.879C156.334 114.886 142.536 121.739 127.888 126.147L130.193 133.808ZM173.345 112.39C173.875 112.02 174.318 111.541 174.647 110.986L167.765 106.907C168.017 106.483 168.357 106.117 168.762 105.833L173.345 112.39ZM174.648 110.986C174.977 110.431 175.183 109.812 175.254 109.17L167.301 108.297C167.355 107.807 167.513 107.333 167.765 106.908L174.648 110.986ZM175.258 109.125C178.858 72.4519 169.196 40.5382 149.726 12.3715L143.145 16.9204C161.627 43.6581 170.697 73.7044 167.297 108.343L175.258 109.125ZM149.982 12.7966C149.492 11.8574 148.682 11.1256 147.698 10.7339L144.738 18.1661C143.942 17.8488 143.285 17.256 142.888 16.4953L149.982 12.7966ZM60.1417 85.947C54.4311 85.947 49.0432 80.6268 49.0432 73.2881H41.0432C41.0432 84.3022 49.3048 93.947 60.1417 93.947V85.947ZM49.0432 73.2881C49.0432 65.9196 54.3188 60.6292 60.1417 60.6292V52.6292C49.1512 52.6292 41.0432 62.2898 41.0432 73.2881H49.0432ZM60.1417 60.6292C66.0569 60.6292 71.3461 66.0044 71.2407 73.2298L79.2399 73.3464C79.4005 62.331 71.1661 52.6292 60.1417 52.6292V60.6292ZM71.2403 73.2881C71.2403 80.6566 65.9647 85.947 60.1417 85.947V93.947C71.1323 93.947 79.2403 84.2864 79.2403 73.2881H71.2403ZM115.965 85.947C110.249 85.947 104.867 80.6281 104.867 73.2881H96.8666C96.8666 84.3009 105.12 93.947 115.965 93.947V85.947ZM104.867 73.2881C104.867 65.9183 110.136 60.6292 115.965 60.6292V52.6292C104.966 52.6292 96.8666 62.2911 96.8666 73.2881H104.867ZM115.965 60.6292C121.88 60.6292 127.169 66.0044 127.064 73.2298L135.063 73.3464C135.224 62.331 126.989 52.6292 115.965 52.6292V60.6292ZM127.064 73.2881C127.064 80.6693 121.847 85.947 115.965 85.947V93.947C127.037 93.947 135.064 84.2737 135.064 73.2881H127.064Z" fill="white" mask="url(#path-1-outside-1_245_8)"/>
</svg>
