<svg width="18" height="18" viewBox="0 0 18 18" fill="none" xmlns="http://www.w3.org/2000/svg">
<path d="M14.5446 3.99523C13.5246 3.53526 12.4313 3.19529 11.288 3.00197C11.2778 3.00001 11.2673 3.00127 11.2579 3.00557C11.2484 3.00987 11.2406 3.017 11.2354 3.02597C11.0954 3.27195 10.9394 3.59259 10.83 3.84591C9.61747 3.66475 8.38471 3.66475 7.17214 3.84591C7.05037 3.56517 6.91305 3.29143 6.76082 3.02597C6.75566 3.01689 6.74785 3.0096 6.73844 3.00507C6.72903 3.00055 6.71847 2.999 6.70816 3.00063C5.56552 3.19395 4.47222 3.53393 3.45158 3.99457C3.4428 3.99825 3.43536 4.00453 3.43025 4.01257C1.35564 7.06237 0.786993 10.0368 1.06632 12.974C1.0671 12.9812 1.06933 12.9881 1.07288 12.9944C1.07643 13.0007 1.08123 13.0063 1.08698 13.0106C2.29788 13.8922 3.64847 14.5638 5.0822 14.9972C5.0922 15.0003 5.10289 15.0002 5.11288 14.9972C5.12287 14.9941 5.13169 14.988 5.1382 14.9798C5.44619 14.5665 5.72085 14.1299 5.95551 13.6713C5.96951 13.6446 5.95618 13.6126 5.92818 13.6019C5.49753 13.4398 5.08026 13.2441 4.68021 13.0166C4.67303 13.0125 4.66697 13.0067 4.66259 12.9997C4.6582 12.9927 4.65563 12.9847 4.6551 12.9764C4.65458 12.9682 4.65611 12.9599 4.65956 12.9524C4.66301 12.9448 4.66827 12.9383 4.67488 12.9333C4.75888 12.8713 4.84288 12.8067 4.92287 12.742C4.93007 12.7362 4.93875 12.7325 4.94793 12.7313C4.95711 12.7301 4.96644 12.7315 4.97487 12.7353C7.5928 13.9112 10.428 13.9112 13.0153 12.7353C13.0238 12.7313 13.0332 12.7297 13.0425 12.7308C13.0518 12.7318 13.0606 12.7355 13.068 12.7413C13.148 12.8067 13.2313 12.8713 13.316 12.9333C13.3226 12.9382 13.328 12.9447 13.3316 12.9521C13.3351 12.9596 13.3368 12.9678 13.3364 12.9761C13.336 12.9843 13.3335 12.9923 13.3293 12.9994C13.325 13.0065 13.3191 13.0124 13.312 13.0166C12.9133 13.246 12.4987 13.4399 12.0633 13.6013C12.0566 13.6037 12.0506 13.6075 12.0455 13.6125C12.0404 13.6175 12.0364 13.6235 12.0338 13.6301C12.0312 13.6367 12.0301 13.6438 12.0305 13.6509C12.0308 13.658 12.0327 13.665 12.036 13.6713C12.276 14.1292 12.5507 14.5652 12.8526 14.9792C12.8589 14.9877 12.8677 14.994 12.8777 14.9974C12.8877 15.0007 12.8985 15.0009 12.9086 14.9978C14.3448 14.5656 15.6976 13.8938 16.9099 13.0106C16.9158 13.0065 16.9207 13.0012 16.9244 12.9949C16.9281 12.9887 16.9304 12.9818 16.9312 12.9746C17.2645 9.57887 16.3725 6.6284 14.5653 4.0139C14.5608 4.0054 14.5535 3.99878 14.5446 3.99523ZM6.34683 11.1854C5.55886 11.1854 4.90887 10.4728 4.90887 9.59887C4.90887 8.72426 5.54619 8.0123 6.34683 8.0123C7.15348 8.0123 7.79746 8.73026 7.78479 9.59887C7.78479 10.4735 7.14748 11.1854 6.34683 11.1854ZM11.6633 11.1854C10.8747 11.1854 10.2254 10.4728 10.2254 9.59887C10.2254 8.72426 10.862 8.0123 11.6633 8.0123C12.47 8.0123 13.114 8.73026 13.1013 9.59887C13.1013 10.4735 12.4707 11.1854 11.6633 11.1854Z" fill="white"/>
</svg>
