<svg width="337" height="62" viewBox="0 0 337 62" fill="none" xmlns="http://www.w3.org/2000/svg">
<path d="M10.8887 25.4531V61H2.92969V25.4531H10.8887ZM24.8779 40.4434V46.5957H8.66699V40.4434H24.8779ZM26.4404 25.4531V31.6299H8.66699V25.4531H26.4404ZM54.4922 54.8477V61H35.5713V54.8477H54.4922ZM38.2812 25.4531V61H30.3223V25.4531H38.2812ZM52.0508 39.7598V45.7168H35.5713V39.7598H52.0508ZM54.5166 25.4531V31.6299H35.5713V25.4531H54.5166ZM73.1689 32.2158L63.9893 61H55.4932L68.6523 25.4531H74.0234L73.1689 32.2158ZM80.7861 61L71.582 32.2158L70.6299 25.4531H76.0742L89.2822 61H80.7861ZM80.3955 47.7676V53.9199H61.8652V47.7676H80.3955ZM105.811 25.4531V61H97.876V25.4531H105.811ZM116.626 25.4531V31.6299H87.2803V25.4531H116.626ZM140.015 25.4531H147.974V48.793C147.974 51.5599 147.388 53.8874 146.216 55.7754C145.06 57.6634 143.449 59.0876 141.382 60.0479C139.315 61.0081 136.922 61.4883 134.204 61.4883C131.47 61.4883 129.061 61.0081 126.978 60.0479C124.91 59.0876 123.283 57.6634 122.095 55.7754C120.923 53.8874 120.337 51.5599 120.337 48.793V25.4531H128.32V48.793C128.32 50.3229 128.548 51.5762 129.004 52.5527C129.476 53.513 130.151 54.221 131.03 54.6768C131.909 55.1162 132.967 55.3359 134.204 55.3359C135.441 55.3359 136.491 55.1162 137.354 54.6768C138.232 54.221 138.892 53.513 139.331 52.5527C139.787 51.5762 140.015 50.3229 140.015 48.793V25.4531ZM153.662 25.4531H167.31C170.028 25.4531 172.38 25.86 174.365 26.6738C176.367 27.4876 177.905 28.6921 178.979 30.2871C180.054 31.8822 180.591 33.8516 180.591 36.1953C180.591 38.1484 180.273 39.8086 179.639 41.1758C179.004 42.543 178.109 43.6742 176.953 44.5693C175.814 45.4645 174.479 46.1888 172.949 46.7422L170.361 48.1582H158.74L158.691 41.9814H167.334C168.522 41.9814 169.507 41.7699 170.288 41.3467C171.069 40.9235 171.655 40.3294 172.046 39.5645C172.453 38.7832 172.656 37.8717 172.656 36.8301C172.656 35.7559 172.453 34.8281 172.046 34.0469C171.639 33.2656 171.037 32.6715 170.239 32.2646C169.458 31.8415 168.481 31.6299 167.31 31.6299H161.621V61H153.662V25.4531ZM173.34 61L165.356 45.2041L173.755 45.1797L181.86 60.6338V61H173.34ZM210.156 54.8477V61H191.235V54.8477H210.156ZM193.945 25.4531V61H185.986V25.4531H193.945ZM207.715 39.7598V45.7168H191.235V39.7598H207.715ZM210.181 25.4531V31.6299H191.235V25.4531H210.181ZM225.317 61H217.505L217.554 54.8477H225.317C227.091 54.8477 228.589 54.4408 229.81 53.627C231.03 52.7969 231.958 51.5762 232.593 49.9648C233.228 48.3372 233.545 46.3597 233.545 44.0322V42.3965C233.545 40.6387 233.366 39.0924 233.008 37.7578C232.65 36.4069 232.121 35.2757 231.421 34.3643C230.721 33.4528 229.85 32.7692 228.809 32.3135C227.783 31.8577 226.603 31.6299 225.269 31.6299H217.358V25.4531H225.269C227.677 25.4531 229.875 25.86 231.86 26.6738C233.862 27.4876 235.588 28.6514 237.036 30.165C238.501 31.6787 239.632 33.4691 240.43 35.5361C241.227 37.6032 241.626 39.9062 241.626 42.4453V44.0322C241.626 46.555 241.227 48.8581 240.43 50.9414C239.632 53.0085 238.501 54.7988 237.036 56.3125C235.588 57.8099 233.87 58.9655 231.885 59.7793C229.899 60.5931 227.71 61 225.317 61ZM222.021 25.4531V61H214.062V25.4531H222.021ZM288.574 42.4453V44.0322C288.574 46.734 288.2 49.1592 287.451 51.3076C286.719 53.4561 285.669 55.2871 284.302 56.8008C282.951 58.3145 281.34 59.4782 279.468 60.292C277.612 61.0895 275.553 61.4883 273.291 61.4883C271.029 61.4883 268.962 61.0895 267.09 60.292C265.218 59.4782 263.59 58.3145 262.207 56.8008C260.84 55.2871 259.782 53.4561 259.033 51.3076C258.285 49.1592 257.91 46.734 257.91 44.0322V42.4453C257.91 39.7435 258.285 37.3184 259.033 35.1699C259.782 33.0052 260.832 31.166 262.183 29.6523C263.55 28.1387 265.169 26.9831 267.041 26.1855C268.913 25.3717 270.98 24.9648 273.242 24.9648C275.505 24.9648 277.572 25.3717 279.443 26.1855C281.315 26.9831 282.926 28.1387 284.277 29.6523C285.645 31.166 286.702 33.0052 287.451 35.1699C288.2 37.3184 288.574 39.7435 288.574 42.4453ZM280.542 44.0322V42.3965C280.542 40.5898 280.379 38.9948 280.054 37.6113C279.728 36.2116 279.256 35.0397 278.638 34.0957C278.019 33.1517 277.254 32.4437 276.343 31.9717C275.431 31.4834 274.398 31.2393 273.242 31.2393C272.038 31.2393 270.988 31.4834 270.093 31.9717C269.198 32.4437 268.441 33.1517 267.822 34.0957C267.22 35.0397 266.756 36.2116 266.431 37.6113C266.121 38.9948 265.967 40.5898 265.967 42.3965V44.0322C265.967 45.8226 266.121 47.4176 266.431 48.8174C266.756 50.2008 267.228 51.3727 267.847 52.333C268.465 53.2933 269.222 54.0176 270.117 54.5059C271.029 54.9941 272.087 55.2383 273.291 55.2383C274.447 55.2383 275.472 54.9941 276.367 54.5059C277.279 54.0176 278.044 53.2933 278.662 52.333C279.281 51.3727 279.744 50.2008 280.054 48.8174C280.379 47.4176 280.542 45.8226 280.542 44.0322ZM322.778 25.4531V61H314.844L301.416 38.0264V61H293.457V25.4531H301.416L314.868 48.4268V25.4531H322.778Z" fill="#4A1452"/>
<path d="M15.8887 25.4531V61H7.92969V25.4531H15.8887ZM29.8779 40.4434V46.5957H13.667V40.4434H29.8779ZM31.4404 25.4531V31.6299H13.667V25.4531H31.4404ZM59.4922 54.8477V61H40.5713V54.8477H59.4922ZM43.2812 25.4531V61H35.3223V25.4531H43.2812ZM57.0508 39.7598V45.7168H40.5713V39.7598H57.0508ZM59.5166 25.4531V31.6299H40.5713V25.4531H59.5166ZM78.1689 32.2158L68.9893 61H60.4932L73.6523 25.4531H79.0234L78.1689 32.2158ZM85.7861 61L76.582 32.2158L75.6299 25.4531H81.0742L94.2822 61H85.7861ZM85.3955 47.7676V53.9199H66.8652V47.7676H85.3955ZM110.811 25.4531V61H102.876V25.4531H110.811ZM121.626 25.4531V31.6299H92.2803V25.4531H121.626ZM145.015 25.4531H152.974V48.793C152.974 51.5599 152.388 53.8874 151.216 55.7754C150.06 57.6634 148.449 59.0876 146.382 60.0479C144.315 61.0081 141.922 61.4883 139.204 61.4883C136.47 61.4883 134.061 61.0081 131.978 60.0479C129.91 59.0876 128.283 57.6634 127.095 55.7754C125.923 53.8874 125.337 51.5599 125.337 48.793V25.4531H133.32V48.793C133.32 50.3229 133.548 51.5762 134.004 52.5527C134.476 53.513 135.151 54.221 136.03 54.6768C136.909 55.1162 137.967 55.3359 139.204 55.3359C140.441 55.3359 141.491 55.1162 142.354 54.6768C143.232 54.221 143.892 53.513 144.331 52.5527C144.787 51.5762 145.015 50.3229 145.015 48.793V25.4531ZM158.662 25.4531H172.31C175.028 25.4531 177.38 25.86 179.365 26.6738C181.367 27.4876 182.905 28.6921 183.979 30.2871C185.054 31.8822 185.591 33.8516 185.591 36.1953C185.591 38.1484 185.273 39.8086 184.639 41.1758C184.004 42.543 183.109 43.6742 181.953 44.5693C180.814 45.4645 179.479 46.1888 177.949 46.7422L175.361 48.1582H163.74L163.691 41.9814H172.334C173.522 41.9814 174.507 41.7699 175.288 41.3467C176.069 40.9235 176.655 40.3294 177.046 39.5645C177.453 38.7832 177.656 37.8717 177.656 36.8301C177.656 35.7559 177.453 34.8281 177.046 34.0469C176.639 33.2656 176.037 32.6715 175.239 32.2646C174.458 31.8415 173.481 31.6299 172.31 31.6299H166.621V61H158.662V25.4531ZM178.34 61L170.356 45.2041L178.755 45.1797L186.86 60.6338V61H178.34ZM215.156 54.8477V61H196.235V54.8477H215.156ZM198.945 25.4531V61H190.986V25.4531H198.945ZM212.715 39.7598V45.7168H196.235V39.7598H212.715ZM215.181 25.4531V31.6299H196.235V25.4531H215.181ZM230.317 61H222.505L222.554 54.8477H230.317C232.091 54.8477 233.589 54.4408 234.81 53.627C236.03 52.7969 236.958 51.5762 237.593 49.9648C238.228 48.3372 238.545 46.3597 238.545 44.0322V42.3965C238.545 40.6387 238.366 39.0924 238.008 37.7578C237.65 36.4069 237.121 35.2757 236.421 34.3643C235.721 33.4528 234.85 32.7692 233.809 32.3135C232.783 31.8577 231.603 31.6299 230.269 31.6299H222.358V25.4531H230.269C232.677 25.4531 234.875 25.86 236.86 26.6738C238.862 27.4876 240.588 28.6514 242.036 30.165C243.501 31.6787 244.632 33.4691 245.43 35.5361C246.227 37.6032 246.626 39.9062 246.626 42.4453V44.0322C246.626 46.555 246.227 48.8581 245.43 50.9414C244.632 53.0085 243.501 54.7988 242.036 56.3125C240.588 57.8099 238.87 58.9655 236.885 59.7793C234.899 60.5931 232.71 61 230.317 61ZM227.021 25.4531V61H219.062V25.4531H227.021ZM293.574 42.4453V44.0322C293.574 46.734 293.2 49.1592 292.451 51.3076C291.719 53.4561 290.669 55.2871 289.302 56.8008C287.951 58.3145 286.34 59.4782 284.468 60.292C282.612 61.0895 280.553 61.4883 278.291 61.4883C276.029 61.4883 273.962 61.0895 272.09 60.292C270.218 59.4782 268.59 58.3145 267.207 56.8008C265.84 55.2871 264.782 53.4561 264.033 51.3076C263.285 49.1592 262.91 46.734 262.91 44.0322V42.4453C262.91 39.7435 263.285 37.3184 264.033 35.1699C264.782 33.0052 265.832 31.166 267.183 29.6523C268.55 28.1387 270.169 26.9831 272.041 26.1855C273.913 25.3717 275.98 24.9648 278.242 24.9648C280.505 24.9648 282.572 25.3717 284.443 26.1855C286.315 26.9831 287.926 28.1387 289.277 29.6523C290.645 31.166 291.702 33.0052 292.451 35.1699C293.2 37.3184 293.574 39.7435 293.574 42.4453ZM285.542 44.0322V42.3965C285.542 40.5898 285.379 38.9948 285.054 37.6113C284.728 36.2116 284.256 35.0397 283.638 34.0957C283.019 33.1517 282.254 32.4437 281.343 31.9717C280.431 31.4834 279.398 31.2393 278.242 31.2393C277.038 31.2393 275.988 31.4834 275.093 31.9717C274.198 32.4437 273.441 33.1517 272.822 34.0957C272.22 35.0397 271.756 36.2116 271.431 37.6113C271.121 38.9948 270.967 40.5898 270.967 42.3965V44.0322C270.967 45.8226 271.121 47.4176 271.431 48.8174C271.756 50.2008 272.228 51.3727 272.847 52.333C273.465 53.2933 274.222 54.0176 275.117 54.5059C276.029 54.9941 277.087 55.2383 278.291 55.2383C279.447 55.2383 280.472 54.9941 281.367 54.5059C282.279 54.0176 283.044 53.2933 283.662 52.333C284.281 51.3727 284.744 50.2008 285.054 48.8174C285.379 47.4176 285.542 45.8226 285.542 44.0322ZM327.778 25.4531V61H319.844L306.416 38.0264V61H298.457V25.4531H306.416L319.868 48.4268V25.4531H327.778Z" fill="#D232EA"/>
<path d="M2.36415 30.4556C2.60777 30.4282 2.84255 30.3585 3.05457 30.2509C3.26659 30.1433 3.45153 29.9998 3.59843 29.829C3.74532 29.6582 3.85118 29.4635 3.90973 29.2565C3.96827 29.0496 3.97831 28.8345 3.93925 28.6241C3.81222 27.7101 3.74787 26.7903 3.74655 25.8696C3.72675 25.3459 3.79161 24.8224 3.93925 24.3143C4.69545 24.2766 5.45352 24.2766 6.20972 24.3143C11.932 24.3143 17.6961 24.496 23.41 24.2779C23.5246 24.2601 23.63 24.2119 23.7116 24.1398C25.5548 24.2052 25.5381 30.2666 25.6386 31.2478C25.7334 32.6828 26.3165 34.0613 27.3142 35.2088C28.8139 36.9168 30.8749 36.4007 32.2741 34.9254C34.9216 32.1272 33.5727 25.339 39.3871 25.4771C41.4649 25.5353 43.484 26.3202 45.4864 26.7345C46.4305 26.98 47.4264 27.0376 48.3997 26.903C49.3731 26.7683 50.2989 26.4449 51.1082 25.9568C52.3481 25.23 53.4624 24.4233 55.0207 24.3797C55.5561 24.3759 56.0789 24.5205 56.5129 24.7924C56.9469 25.0643 57.2695 25.4493 57.4336 25.8914C58.2715 27.5848 58.5563 30.1286 60.8687 30.8772C63.0386 31.6039 65.2169 29.0093 66.348 27.8246C67.4023 26.6702 68.7392 25.7335 70.2621 25.0824C71.785 24.4312 73.4558 24.082 75.1534 24.0599C75.2386 24.0527 75.3199 24.025 75.388 23.9799C75.9851 24.0711 76.5926 24.1004 77.1977 24.0672C78.1444 24.0672 79.0995 24.0672 80.0462 24.0672L85.3077 24.0236L90.5608 23.9799C92.4626 23.9799 94.4064 24.0599 96.2998 23.9145H96.392C97.4833 24.9501 98.722 25.861 100.078 26.6255C101.752 27.4266 103.638 27.8349 105.549 27.8101C109.051 27.9337 111.799 26.4147 114.765 25.0483C116.03 26.9234 117.145 29.0457 120.052 28.8058C120.602 28.751 121.131 28.5924 121.603 28.3413C122.075 28.0902 122.478 27.7526 122.783 27.3522C123.096 26.9609 123.376 26.5504 123.621 26.124C123.966 25.6333 124.358 25.169 124.794 24.7358C125.82 24.84 126.854 24.8643 127.885 24.8085H131.597C134.094 24.8995 136.595 24.863 139.087 24.6995C141.6 24.6995 143.083 26.0513 144.374 27.781C145.111 28.7767 146.166 30.9789 147.817 30.9571C149.107 30.9571 149.953 29.5035 150.473 28.6895C151.311 27.3886 151.813 25.7824 152.986 24.6704C155.672 24.3859 158.383 24.3372 161.08 24.525C164.064 24.6317 167.054 24.6074 170.036 24.4524C173.464 24.2574 176.901 24.2331 180.333 24.3797C183.449 24.5541 186.482 24.7431 189.548 24.118H189.632C191.239 24.7986 192.564 25.8925 193.428 27.2505C194.02 28.4212 194.482 29.638 194.81 30.8844C195.096 31.959 195.846 32.8977 196.904 33.5081C197.437 33.7278 198.032 33.8084 198.617 33.74C199.201 33.6716 199.75 33.4572 200.197 33.1229C201.231 32.2937 202.082 31.3087 202.711 30.2158C203.049 29.6939 203.454 29.2064 203.917 28.7622C204.822 27.9555 206.246 27.7738 207.469 27.672C209.413 27.5121 210.955 27.3232 212.555 26.2984C214.155 25.2736 215.63 24.227 217.791 24.0672C217.875 24.0541 217.953 24.0214 218.017 23.9727C221.88 24.2052 225.784 24.1108 229.655 24.1108H235.519C237.402 24.2261 239.293 24.1847 241.166 23.9872V23.9872C243.311 24.3433 245.297 25.339 247.24 26.1676C249.05 26.9452 250.969 27.9482 253.038 27.4031C255.107 26.858 256.632 24.9611 258.903 25.4335C259.74 25.6152 260.335 26.2475 261.073 26.6182C261.437 26.7652 261.835 26.8413 262.237 26.8413C262.639 26.8413 263.037 26.7652 263.402 26.6182C264.24 26.3565 264.834 25.746 265.614 25.4262C266.052 25.2139 266.549 25.1072 267.051 25.1175C267.554 25.1277 268.044 25.2544 268.47 25.4844C269.627 26.2693 269.928 27.7084 271.101 28.5369C271.647 28.9649 272.356 29.2019 273.091 29.2019C273.826 29.2019 274.536 28.9649 275.081 28.5369C276.296 27.5921 276.756 26.0368 277.536 24.8085C283.023 25.0919 288.553 24.9538 294.049 24.9538H303.039C305.695 24.9538 308.367 25.0047 311.023 24.8012C315.907 27.1487 315.162 33.4354 320.239 35.5795C321.255 36.0065 322.377 36.2093 323.506 36.17C324.634 36.1307 325.733 35.8505 326.707 35.3542C328.24 34.4747 328.801 32.8322 328.952 31.335C329.329 27.5339 327.436 22.9116 324.663 19.9826C320.474 15.5347 312.824 14.0811 306.583 13.3761C303.073 13.0057 299.534 12.8842 296.001 13.0127C291.552 13.1363 287.33 14.1029 282.948 14.648C278.03 15.2658 273.782 13.9721 269.174 12.7147C264.717 11.501 260.319 11.6173 255.769 12.097C253.518 12.4303 251.241 12.6126 248.958 12.6421C246.683 12.5437 244.446 12.1009 242.347 11.3338C238.359 9.91661 235.033 7.44554 231.397 5.51955C224.05 1.55856 215.789 -0.709016 207.101 0.199468C198.413 1.10795 191.249 5.22157 184.069 9.2625C180.224 11.4429 175.817 13.6232 171.075 13.318C166.953 13.0273 163.333 10.6725 159.773 9.08081C151.989 5.60676 143.427 7.51821 135.585 9.80759C131.764 10.9341 127.768 11.9298 124.073 13.318C119.968 14.8515 116.332 17.2426 111.959 18.2238C107.418 19.2413 102.692 17.4243 98.5535 16.0434C94.4231 14.757 90.3681 13.7395 86.045 13.834C82.2581 13.9285 78.689 15.2076 75.212 16.385C72.974 17.25 70.5491 17.691 68.099 17.6787C65.9145 17.4984 63.7612 17.1009 61.6813 16.494C52.147 14.2119 42.0933 15.5201 32.4249 15.6655C28.3785 15.8005 24.3289 15.4805 20.3771 14.7134C17.5202 14.1247 14.6549 13.3616 11.6806 13.427C7.49158 13.5142 4.4168 15.8908 2.14632 18.718C2.10397 18.7475 2.06964 18.7847 2.04579 18.827C1.24414 20.3641 0.734855 22.0036 0.537721 23.682C0.345024 25.1791 -0.132528 26.7272 0.0350343 28.2316C0.118816 29.3364 0.956628 30.4992 2.36415 30.4556Z" fill="url(#paint0_radial_813_11072)"/>
<path d="M2.10233 19.3699C1.36603 20.6262 0.875785 21.965 0.648682 23.3398C0.562667 23.8677 0.502457 24.3956 0.433645 24.9304C0.364834 25.4652 0.201407 25.9794 0.115393 26.5142C-0.0824406 27.6318 -0.151252 29.0168 0.975538 29.8807C1.17303 30.0481 1.41708 30.1761 1.68802 30.2546C1.95897 30.333 2.24923 30.3596 2.53544 30.3322C2.82164 30.3049 3.09579 30.2243 3.3358 30.0971C3.57581 29.9698 3.77496 29.7994 3.91723 29.5996C4.17104 29.0651 4.21602 28.4819 4.04625 27.9266C3.95016 27.1292 3.91855 26.3276 3.95164 25.5269C3.95005 25.1992 3.99624 24.8725 4.08926 24.5533C4.08926 24.4779 4.08926 24.5533 4.08926 24.5533V24.4779C4.13227 24.3819 4.08926 24.519 4.08926 24.4779C4.08926 24.4368 4.01185 24.5396 4.08926 24.4779L4.00325 24.5328H3.93444H3.87423H4.39031C6.03319 24.5328 7.66746 24.5328 9.31034 24.5328H22.4706C23.0125 24.5328 23.5629 24.5328 24.1048 24.5328C24.2254 24.523 24.3405 24.4881 24.4387 24.4315C24.5369 24.3749 24.6146 24.2987 24.6639 24.2105C24.7499 24.0734 24.7413 23.8814 24.5005 23.8745C22.3673 23.7923 20.1998 23.8746 18.0752 23.8334H5.24186C4.88475 23.7992 4.52378 23.7992 4.16667 23.8334C3.93836 23.8996 3.73369 24.0091 3.57034 24.1524C3.407 24.2958 3.28988 24.4687 3.22912 24.6562C2.98132 25.3767 2.89972 26.127 2.98828 26.8708C2.98828 27.5564 3.07429 28.194 3.16891 28.8522C3.22494 29.0601 3.22494 29.2751 3.16891 29.483L3.1173 29.579C3.1173 29.5379 3.1173 29.579 3.1173 29.579C3.10473 29.596 3.08698 29.6101 3.06569 29.6202C3.16891 29.5447 3.06569 29.6202 3.06569 29.6202C3.06569 29.6202 3.06569 29.6202 2.98828 29.6202C2.91086 29.6202 2.91946 29.6202 2.89366 29.6202H2.82485C2.71918 29.6308 2.61226 29.6308 2.50659 29.6202C1.18197 29.387 0.863718 28.1049 0.880921 27.193C0.910338 26.6122 0.999521 26.0344 1.14757 25.4652C1.25933 24.9685 1.33685 24.4672 1.3798 23.9637C1.46892 22.7911 1.71988 21.63 2.12813 20.5012C2.27217 20.1173 2.44157 19.7396 2.63562 19.3699C2.68723 19.2671 2.68722 19.1437 2.51519 19.13C2.34317 19.1163 2.17114 19.2602 2.10233 19.3699V19.3699Z" fill="black"/>
<path d="M24.1075 24.4448C24.2117 24.4281 24.3191 24.4322 24.4212 24.4567C24.5232 24.4811 24.6173 24.5253 24.6959 24.5859C24.9115 24.7686 25.0758 24.9904 25.1767 25.2347C25.5047 25.9783 25.711 26.7567 25.79 27.5481C25.9226 28.472 26.0055 29.4029 26.0883 30.3692C26.1294 31.1136 26.2207 31.8553 26.3618 32.5908C26.6667 33.6878 27.3006 34.6987 28.2018 35.5248C28.6781 35.9645 29.3327 36.2342 30.0334 36.2794C30.4513 36.2643 30.8611 36.1764 31.2374 36.0211C31.6138 35.8658 31.9487 35.6465 32.2215 35.3767C32.8036 34.8937 33.2781 34.325 33.6222 33.6981C33.9185 33.092 34.1488 32.464 34.3101 31.8221C34.4841 31.1803 34.625 30.5243 34.8156 29.8825C35.0157 29.246 35.2935 28.6291 35.6444 28.0417C35.9325 27.5198 36.322 27.0429 36.7965 26.6312C37.1542 26.3174 37.5905 26.0763 38.0728 25.9259C39.142 25.6789 40.2692 25.6789 41.3383 25.9259C42.6064 26.1586 43.8247 26.5183 45.1011 26.8005C46.4283 27.2048 47.8554 27.3117 49.2451 27.1108C50.5034 26.7099 51.6784 26.1409 52.7261 25.4252C53.2193 25.0957 53.7963 24.8693 54.4109 24.764C55.0255 24.6586 55.6605 24.6773 56.2651 24.8186C56.6891 25.0055 57.0582 25.2711 57.3451 25.5959C57.6321 25.9206 57.8295 26.2962 57.9227 26.6947C58.0885 27.1319 58.2294 27.5763 58.4117 28.0065C58.6034 28.4608 58.8419 28.8998 59.1245 29.3183C59.7792 30.3339 60.7821 31.2931 62.2905 31.0039C63.6166 30.75 64.694 29.7838 65.5643 28.9516C66.0367 28.5002 66.4677 28.0206 66.9484 27.5833C67.4249 27.1506 67.9373 26.7476 68.4817 26.3773C69.7024 25.5363 71.1257 24.9343 72.6505 24.6141C73.4647 24.4486 74.3 24.3704 75.137 24.3813C75.2461 24.3728 75.3506 24.3395 75.4395 24.2849C75.5284 24.2303 75.5985 24.1565 75.6425 24.071C75.7171 23.937 75.7088 23.7536 75.5016 23.7466C73.8702 23.7692 72.2614 24.0748 70.7736 24.6448C69.2858 25.2147 67.9503 26.0371 66.8489 27.0614C65.8626 27.9148 65.0504 28.9163 63.973 29.6921C63.1442 30.2987 62.0336 30.7712 61.0307 30.1223C60.45 29.6924 59.9814 29.1639 59.6549 28.5707C59.401 28.1563 59.1955 27.7216 59.0416 27.273C58.8225 26.412 58.4209 25.5923 57.8564 24.8539C57.4563 24.4994 56.9489 24.2459 56.3902 24.1215C55.8315 23.997 55.2432 24.0064 54.6904 24.1486C53.374 24.5228 52.1493 25.0988 51.0768 25.8483C50.576 26.1628 50.0152 26.4014 49.4192 26.5536C48.7282 26.6804 48.0133 26.6804 47.3223 26.5536C46.0251 26.3346 44.7438 26.052 43.4849 25.7073C42.3295 25.3833 41.1279 25.1935 39.9128 25.143C38.6991 25.1259 37.5199 25.4871 36.5976 26.1586C35.4864 27.0646 34.6796 28.2065 34.2603 29.4664C33.7796 30.7218 33.6387 32.0478 33.1415 33.2961C32.9349 33.8627 32.5872 34.3847 32.122 34.8266C31.6082 35.2921 31.0777 35.7575 30.2572 35.6588C29.5598 35.5206 28.948 35.166 28.5416 34.6644C28.0006 34.0783 27.5879 33.4141 27.3233 32.7037C27.2057 32.439 27.1196 32.1649 27.0663 31.8855C27 31.5329 26.9586 31.1803 26.9254 30.8206C26.8343 29.9249 26.7597 29.0221 26.6519 28.1264C26.5648 27.2363 26.3902 26.3539 26.1298 25.4886C25.9557 24.9597 25.6822 24.2121 25.0109 24.0005C24.7359 23.9378 24.4442 23.9552 24.1821 24.0499C23.9998 24.1133 23.776 24.5153 24.1241 24.4448H24.1075Z" fill="black"/>
<path d="M96.5433 24.149C97.0434 24.5403 97.5182 24.9379 98.0607 25.2971C98.555 25.6343 99.0729 25.9511 99.6121 26.2463C100.7 26.8521 101.945 27.2762 103.266 27.4905C104.052 27.6018 104.849 27.6682 105.648 27.6893C106.372 27.7193 107.098 27.7043 107.818 27.6444C109.017 27.5347 110.183 27.2746 111.269 26.8748C112.693 26.3617 114.049 25.7524 115.448 25.2073C115.556 25.1694 115.65 25.1112 115.719 25.0382C115.789 24.9652 115.833 24.8799 115.847 24.7904C115.847 24.6172 115.601 24.6108 115.431 24.6685C113.193 25.4895 111.099 26.6696 108.59 26.9902C107.154 27.157 105.693 27.157 104.258 26.9902C102.953 26.8311 101.707 26.4638 100.604 25.9128C100.011 25.6121 99.4443 25.2822 98.9085 24.9251C98.3066 24.5338 97.6962 24.1554 97.0773 23.777C96.8569 23.6423 96.3907 23.9887 96.5856 24.149H96.5433Z" fill="black"/>
<path d="M115.093 24.3529C115.601 25.0833 116.061 25.8721 116.593 26.6098C117.039 27.311 117.724 27.8621 118.546 28.1801C119.554 28.4812 120.653 28.4104 121.604 27.9829C122.371 27.5738 122.988 26.9693 123.378 26.2446C123.604 25.8721 123.814 25.5142 124.072 25.1344C124.198 24.9574 124.339 24.789 124.492 24.6304C124.71 24.4356 124.907 24.2229 125.081 23.995C125.162 23.8708 125.081 23.7101 124.903 23.754C124.435 23.9458 124.041 24.2615 123.774 24.6596C123.516 24.9787 123.281 25.313 123.072 25.6603C122.894 25.9597 122.717 26.2811 122.523 26.5514C122.355 26.8299 122.13 27.0776 121.862 27.2817C121.483 27.501 121.057 27.6461 120.613 27.7077C120.168 27.7693 119.714 27.7461 119.28 27.6396C118.476 27.3998 117.787 26.9178 117.327 26.2738C116.809 25.4807 116.229 24.7216 115.593 24.0023C115.423 23.8343 114.972 24.2068 115.093 24.3894V24.3529Z" fill="black"/>
<path d="M124.414 24.2972C124.833 24.3985 125.271 24.4296 125.703 24.3887H136.994C137.543 24.3816 138.091 24.3463 138.636 24.2831C138.825 24.2831 139.219 23.8956 138.882 23.8604C138.441 23.8069 137.997 23.774 137.552 23.7618H126.286C125.751 23.7256 125.212 23.7541 124.685 23.8463C124.546 23.8886 124.16 24.1915 124.439 24.2901L124.414 24.2972Z" fill="black"/>
<path d="M138.309 24.3455C139.231 24.3083 140.149 24.4684 140.98 24.8112C141.717 25.1558 142.362 25.6261 142.876 26.1927C144.043 27.4112 144.881 28.8392 146.012 30.0733C146.346 30.5113 146.854 30.8333 147.443 30.9813C147.712 31.0195 147.987 31.0058 148.249 30.9414C148.511 30.8769 148.752 30.7632 148.956 30.6088C149.973 29.7783 150.761 28.7656 151.262 27.644C151.636 26.9843 151.991 26.3246 152.392 25.6727C152.553 25.4051 152.733 25.146 152.93 24.8965C153.021 24.7724 153.113 24.6637 153.213 24.5473L153.304 24.4542L153.477 24.3067C153.605 24.198 153.787 23.9574 153.623 23.81C153.459 23.6625 153.158 23.81 153.04 23.9342C152.135 24.8415 151.411 25.8694 150.897 26.9765C150.578 27.5431 150.268 28.1174 149.913 28.6685C149.77 28.9034 149.612 29.1314 149.439 29.3515L149.184 29.6774L149.056 29.8094C149.056 29.8094 148.956 29.9103 149.056 29.8559C149.156 29.8016 149.056 29.8559 149.001 29.9025L148.874 30.0189C148.874 30.0189 148.682 30.1586 148.81 30.0733L148.692 30.1509L148.609 30.1974L148.482 30.2518C148.382 30.2518 148.555 30.2518 148.482 30.2518H148.409H148.336H148.154C148.071 30.2524 147.99 30.2365 147.917 30.2052C147.807 30.1723 147.703 30.128 147.607 30.0733C147.339 29.9174 147.102 29.7262 146.905 29.5067C145.747 28.3037 144.927 26.8989 143.787 25.6882C143.228 25.0483 142.513 24.5188 141.691 24.1359C140.715 23.7573 139.624 23.6514 138.573 23.8333C138.382 23.8333 138.054 24.2989 138.382 24.2912L138.309 24.3455Z" fill="black"/>
<path d="M153.112 24.4005C154.069 24.3255 155.036 24.277 156.007 24.2552C157.121 24.2339 158.244 24.2552 159.383 24.2552C161.569 24.2942 163.755 24.3828 165.941 24.3509C171.25 24.28 176.567 24.0638 181.876 24.2587C184.663 24.3991 187.486 24.3452 190.231 24.0993C190.355 24.0851 190.467 24.0578 190.557 24.0199C190.647 23.9819 190.713 23.9348 190.746 23.8831C190.797 23.791 190.662 23.7272 190.434 23.752C187.979 23.9735 185.458 24.0404 182.956 23.9504C180.255 23.8831 177.563 23.8547 174.862 23.8866C172.161 23.9185 169.562 23.9859 166.912 24.0319C164.717 24.0709 162.531 24.0036 160.337 23.9575C159.071 23.9327 157.805 23.915 156.539 23.9575C155.388 23.9567 154.246 24.0395 153.163 24.202C152.977 24.2339 152.741 24.4288 153.104 24.404L153.112 24.4005Z" fill="black"/>
<path d="M190.091 24.2652C191.363 24.7666 192.478 25.5128 193.347 26.444C194.058 27.2877 194.569 28.2391 194.855 29.2463C195.352 30.7806 195.849 33.1135 198.02 33.5619C200.505 34.0733 201.914 31.9926 202.991 30.4934C203.281 30.094 203.563 29.6947 203.894 29.3234C204.163 29 204.507 28.726 204.905 28.5177C206.264 27.8171 207.954 27.8592 209.495 27.698C210.284 27.6322 211.053 27.4471 211.765 27.1516C212.39 26.8383 212.983 26.4821 213.538 26.0867C214.495 25.3614 215.625 24.8189 216.852 24.4964C217.247 24.419 217.649 24.3698 218.054 24.3493C218.157 24.3381 218.254 24.3045 218.337 24.2516C218.42 24.1988 218.485 24.1286 218.526 24.048C218.584 23.9429 218.592 23.7398 218.385 23.7468C216.943 23.8305 215.557 24.2527 214.383 24.9658C213.853 25.274 213.356 25.6243 212.842 25.9536C212.28 26.3604 211.634 26.6762 210.937 26.8854C209.437 27.2707 207.838 27.1166 206.33 27.4598C205.07 27.7336 203.968 28.3798 203.223 29.2814C202.56 30.066 202.047 30.9277 201.384 31.7054C201.169 32.0486 200.864 32.3455 200.492 32.5727C200.12 32.7999 199.691 32.9515 199.238 33.0155C196.835 33.1065 196.164 30.7806 195.675 29.2393C195.406 28.2863 194.976 27.3709 194.399 26.5211C193.69 25.5483 192.69 24.7509 191.499 24.2091C191.168 24.055 190.828 23.9219 190.489 23.7958C190.149 23.6697 189.809 24.1391 190.091 24.2582V24.2652Z" fill="black"/>
<path d="M241.835 24.2017C243.461 24.5097 245.026 24.9959 246.484 25.6463C248.001 26.2943 249.571 26.8606 251.183 27.3415C252.691 27.7373 254.158 27.1832 255.409 26.55C256.661 25.9167 258.061 25.145 259.553 25.554C260.141 25.7673 260.683 26.0521 261.161 26.3983C261.455 26.5718 261.79 26.6958 262.146 26.7627C262.503 26.8296 262.872 26.838 263.233 26.7875C263.95 26.6384 264.614 26.3583 265.172 25.9695C265.765 25.6266 266.453 25.4005 267.177 25.3099C267.689 25.224 268.222 25.2897 268.677 25.4946C269.074 25.7179 269.4 26.0114 269.63 26.3521C270.106 27.1816 270.811 27.9145 271.694 28.4959C272.277 28.8183 272.965 29.0014 273.675 29.0236C274.323 29.001 274.937 28.787 275.398 28.4233C276.401 27.6714 276.873 26.55 277.478 25.5935C277.619 25.3627 277.76 25.1252 277.926 24.9339C278.009 24.8284 278.108 24.6503 277.926 24.5777C277.744 24.5052 277.503 24.6701 277.412 24.7756C276.658 25.6991 276.235 26.7545 275.473 27.6845C275.334 27.8614 275.164 28.0214 274.967 28.1595C274.893 28.2069 274.816 28.251 274.735 28.2914C274.644 28.3334 274.547 28.3667 274.445 28.3903C273.815 28.4776 273.167 28.3791 272.622 28.1133C271.677 27.6188 270.932 26.918 270.476 26.0948C270.279 25.7185 269.959 25.3909 269.55 25.1461C269.14 24.9014 268.656 24.7484 268.147 24.703C267.398 24.6938 266.657 24.8248 265.984 25.0856C265.321 25.3297 264.807 25.7452 264.186 26.0157C263.888 26.1557 263.553 26.2367 263.208 26.2516C262.864 26.2665 262.519 26.215 262.205 26.1014C261.693 25.8378 261.205 25.5445 260.746 25.2241C260.044 24.8907 259.212 24.7755 258.409 24.9009C257.672 25.02 256.968 25.2434 256.329 25.5605C255.144 26.1212 254.009 26.8798 252.559 26.8798C251.8 26.8343 251.061 26.6659 250.387 26.3851C249.559 26.1146 248.813 25.8112 248.026 25.5144C246.468 24.8691 244.843 24.3327 243.169 23.9115C242.838 23.837 242.5 23.7818 242.158 23.7466C241.926 23.7466 241.553 24.1555 241.827 24.1885L241.835 24.2017Z" fill="black"/>
<path d="M277.376 24.2986C278.348 24.3457 279.304 24.3995 280.276 24.4062H283.367H290.14C294.744 24.4062 299.348 24.4062 303.943 24.4062C306.262 24.4062 308.589 24.4062 310.899 24.2649C311.073 24.2649 311.422 23.9151 311.115 23.8882C309.129 23.7334 307.134 23.7469 305.14 23.7469H298.359C293.755 23.7469 289.148 23.7469 284.539 23.7469H280.999C279.86 23.7469 278.739 23.8007 277.6 23.8545C277.409 23.8545 277.077 24.2111 277.376 24.2313V24.2986Z" fill="black"/>
<path d="M310.962 24.8948C315.145 26.9014 315.095 31.5762 318.141 34.3898C320.417 36.5054 325.244 37.1525 327.554 34.7169C329.863 32.2814 328.934 28.6026 327.997 25.9926C326.776 22.5101 324.751 19.5657 321.186 17.5518C316.434 14.8618 310.552 13.8294 304.979 13.3423C302.109 13.0733 299.222 12.9713 296.336 13.037C292.958 13.1768 289.6 13.561 286.295 14.1857C282.187 14.8763 278.347 15.1599 274.272 14.1857C270.984 13.3787 267.837 12.1791 264.415 11.8592C260.566 11.4957 256.701 12.0555 252.885 12.4553C249.332 12.9209 245.7 12.5493 242.368 11.3793C238.946 10.1289 235.992 8.15861 232.93 6.37739C230.052 4.66356 226.965 3.22997 223.726 2.10247C217.445 -0.0811756 210.555 -0.577557 203.946 0.677495C197.068 2.0225 191.287 5.18507 185.488 8.50758C182.267 10.3615 178.861 12.2736 175.063 13.0733C171.523 13.8003 168.193 12.9424 165.022 11.532C162.102 10.2234 159.324 8.56574 156.136 7.77328C153.058 7.07888 149.849 6.94031 146.707 7.36615C139.72 8.18042 133.194 10.7323 126.533 12.5935C119.664 14.5128 114.041 19.6093 106.335 18.257C99.3738 17.0283 93.316 13.5168 85.978 13.8585C79.0333 14.1784 73.1261 18.6423 66.0559 17.4355C62.709 16.8684 59.5797 15.8433 56.191 15.5234C51.9882 15.189 47.7631 15.1161 43.5483 15.3053C36.3609 15.5452 28.8724 16.3377 21.7938 14.9636C17.3759 14.1057 12.5314 12.4626 8.11352 14.2002C5.76398 15.2455 3.78572 16.8262 2.3904 18.7732C2.13939 19.0931 2.59121 19.144 2.79202 18.9041C4.67463 16.643 7.06762 14.6073 10.3224 14.1348C12.7238 13.7931 15.1754 14.2511 17.5098 14.7382C19.8927 15.3095 22.3122 15.7587 24.7557 16.0832C28.2664 16.3631 31.7966 16.4068 35.315 16.2141C43.2387 15.9742 51.5807 15.0872 59.3956 16.6648C62.2321 17.2392 65.0016 18.177 67.9301 18.3225C71.3188 18.4897 74.2724 17.3119 77.3599 16.2868C80.3773 15.17 83.6112 14.5607 86.89 14.491C90.6018 14.6256 94.2578 15.3245 97.692 16.5558C100.713 17.5373 103.741 18.6496 106.946 19.0567C109.924 19.3716 112.944 18.9217 115.631 17.7626C118.719 16.5485 121.555 14.8545 124.693 13.764C127.83 12.6734 131.119 11.8228 134.298 10.8559C140.707 8.90745 147.845 6.85723 154.689 8.19496C160.705 9.37274 165.407 13.9457 171.766 14.0112C178.125 14.0766 183.79 10.0561 188.777 7.22074C194.943 3.68739 201.846 0.982847 209.326 0.677495C216.271 0.393955 222.99 2.20425 228.981 5.17779C234.587 7.95504 239.465 12.0846 246.033 13.1024C249.572 13.6549 253.028 13.0297 256.55 12.688C260.343 12.2028 264.209 12.3807 267.921 13.2114C270.992 13.9385 273.954 15.0872 277.125 15.4362C280.606 15.8142 284.061 15.1744 287.467 14.5855C293.485 13.5759 299.65 13.3992 305.732 14.0621C311.405 14.651 317.647 15.8578 322.174 19.0786C325.186 21.2233 326.859 24.4586 327.738 27.7011C328.616 30.9436 328.733 35.6984 323.655 35.6984C318.183 35.6984 316.961 31.4162 314.936 27.941C314.176 26.4881 312.927 25.2691 311.355 24.444C311.137 24.3422 310.727 24.7639 310.987 24.8948H310.962Z" fill="black"/>
<path d="M2.36966 19.217C2.27879 19.5547 2.3046 19.9065 2.44417 20.2328C2.58375 20.559 2.83151 20.8465 3.15941 21.0628C3.95135 21.4859 4.86922 21.722 5.81298 21.7453C8.16418 21.8321 10.5191 21.666 12.8181 21.2513C13.6631 21.1278 14.5081 20.9784 15.3611 20.8809C15.4085 20.8809 15.4953 20.7704 15.4085 20.7639C14.725 20.775 14.0447 20.8447 13.3788 20.9719C12.2889 21.1278 11.1991 21.2773 10.1013 21.3878C8.92182 21.5254 7.73045 21.5819 6.53955 21.5568C5.55585 21.5734 4.5806 21.4045 3.68854 21.0628C3.28541 20.8806 2.96009 20.6008 2.75666 20.2614C2.55324 19.9219 2.48155 19.5392 2.5513 19.165C2.5513 19.0805 2.38545 19.165 2.37756 19.217H2.36966Z" fill="black"/>
<path d="M24.0277 21.9986C25.0499 22.0996 26.0222 22.4581 26.8379 23.0348C27.549 23.5889 28.0756 24.317 28.3569 25.1351C28.5151 25.5909 28.6245 26.0599 28.6835 26.5354C28.7367 26.9344 28.7291 27.3335 28.7443 27.7396C28.7308 28.4957 28.8859 29.2463 29.2 29.9449C29.4149 30.315 29.7504 30.6134 30.1593 30.7981C30.5682 30.9827 31.0296 31.0443 31.4785 30.9741C31.5849 30.9741 31.7596 30.7291 31.6001 30.7291C31.1861 30.7864 30.7631 30.7251 30.3882 30.5536C30.0133 30.382 29.7045 30.1085 29.5038 29.7699C29.1637 29.0532 28.9978 28.2766 29.0177 27.4945C29.0105 26.6357 28.8698 25.7822 28.6 24.9601C28.3333 24.1494 27.8286 23.4225 27.1417 22.8598C26.2684 22.2269 25.2112 21.8469 24.1037 21.7676C24.0049 21.7676 23.8606 21.9496 23.9973 21.9706L24.0277 21.9986Z" fill="black"/>
<path d="M44.0788 23.6496C45.0202 23.7675 45.9369 23.9896 46.8619 24.17C47.6348 24.3538 48.438 24.4311 49.2404 24.399C50.0927 24.3297 50.9134 24.0919 51.6354 23.7051C52.4674 23.2492 53.3367 22.8435 54.2368 22.4907C54.7637 22.288 55.3186 22.1412 55.8886 22.0536C56.4959 21.9782 57.1145 21.997 57.7137 22.1091C57.8128 22.1091 58.011 21.9495 57.8789 21.9078C56.9418 21.6866 55.9445 21.728 55.0379 22.0258C54.0966 22.3068 53.194 22.672 52.3456 23.1152C51.5654 23.5776 50.6926 23.9184 49.7689 24.1214C48.9216 24.2157 48.0606 24.1709 47.2335 23.9896C46.226 23.8022 45.2184 23.5802 44.1944 23.4622C44.087 23.4622 43.9384 23.6426 44.0788 23.6634V23.6496Z" fill="black"/>
<path d="M64.1016 24.1256C64.3082 24.2404 64.5648 24.3243 64.8469 24.3691C65.1291 24.4139 65.4273 24.4182 65.7133 24.3816C66.2762 24.265 66.7999 24.0978 67.2631 23.8867C67.888 23.6513 68.583 23.478 69.3165 23.3748C70.0792 23.279 70.8589 23.2303 71.6412 23.2297C71.7496 23.2297 71.9201 23.0932 71.7574 23.0932C70.34 23.0501 68.9294 23.2291 67.6893 23.6094C67.1624 23.78 66.6897 24.0061 66.1395 24.1555C65.8503 24.2385 65.5208 24.2692 65.198 24.2432C64.8752 24.2171 64.5756 24.1357 64.3418 24.0104C64.241 23.9677 64.0318 24.0829 64.1248 24.1256H64.1016Z" fill="black"/>
<path d="M93.4897 20.6463C94.5154 20.5969 95.5455 20.6304 96.5608 20.7461C97.0602 20.821 97.5328 20.969 97.9493 21.1809C98.343 21.3946 98.6947 21.6456 98.9947 21.9272C99.578 22.5208 100.277 23.0511 101.069 23.5019C101.872 23.8802 102.776 24.1325 103.724 24.2422C104.264 24.3109 104.81 24.356 105.357 24.3773C105.966 24.4155 106.578 24.4155 107.187 24.3773C107.269 24.3773 107.44 24.2305 107.293 24.2187C106.78 24.1864 106.264 24.1746 105.749 24.1834C105.227 24.1834 104.704 24.1306 104.189 24.0777C103.182 23.9836 102.215 23.7329 101.355 23.3432C100.55 22.9004 99.8473 22.3689 99.2724 21.7685C98.6989 21.2072 97.8879 20.7949 96.961 20.5934C95.8564 20.4504 94.7305 20.4128 93.6122 20.4817C93.5142 20.4817 93.3672 20.6404 93.5061 20.6463H93.4897Z" fill="black"/>
<path d="M118.984 23.8136C119.122 23.9578 119.31 24.0841 119.537 24.1849C119.763 24.2856 120.023 24.3585 120.3 24.3992C120.751 24.4288 121.205 24.3633 121.579 24.2149C122.033 24.0514 122.466 23.8702 122.877 23.6726C123.103 23.575 123.319 23.4828 123.563 23.396C123.808 23.3092 124.034 23.2604 124.269 23.1899C124.269 23.1899 124.429 23.0869 124.269 23.0869C123.813 23.1261 123.389 23.2454 123.056 23.4285C122.623 23.6021 122.228 23.8027 121.795 23.9708C121.428 24.1432 120.971 24.2404 120.498 24.2474C120.221 24.2172 119.958 24.1531 119.728 24.0596C119.498 23.9661 119.305 23.8452 119.162 23.7051C119.096 23.6509 118.88 23.7702 118.946 23.8298L118.984 23.8136Z" fill="black"/>
<path d="M142.116 21.9328C142.876 22.1367 143.578 22.4472 144.188 22.8482C144.745 23.2263 145.241 23.653 145.666 24.1195C146.092 24.5898 146.31 25.2128 146.97 25.5306C147.196 25.6571 147.47 25.7253 147.751 25.7253C148.032 25.7253 148.305 25.6571 148.532 25.5306C148.783 25.3789 149.005 25.2013 149.192 25.003C149.427 24.7899 149.64 24.5624 149.827 24.3229C149.827 24.2657 149.785 24.2529 149.735 24.2784C149.267 24.5326 149.025 24.9839 148.615 25.2827C148.5 25.3629 148.364 25.4246 148.217 25.464C148.069 25.5034 147.913 25.5198 147.757 25.5121C147.601 25.5043 147.448 25.4727 147.309 25.4191C147.169 25.3655 147.045 25.291 146.944 25.2001C146.526 24.7642 146.141 24.31 145.792 23.8398C145.367 23.4213 144.891 23.034 144.372 22.6829C143.766 22.2845 143.069 21.9742 142.316 21.7676C142.208 21.7676 142.024 21.9138 142.141 21.9519L142.116 21.9328Z" fill="black"/>
<path d="M185.368 21.4121C187.565 21.7543 189.813 21.3068 192.027 21.2937C192.574 21.2828 193.123 21.3114 193.664 21.3792C194.111 21.4212 194.546 21.519 194.953 21.6687C195.366 21.8752 195.693 22.17 195.894 22.5175C196.463 23.3466 196.743 24.281 197.218 25.1496C197.557 25.7549 198.117 26.5116 199.118 26.3669C199.42 26.3171 199.708 26.2233 199.966 26.0905C200.422 25.8477 200.898 25.6279 201.391 25.4325C202.381 25.1248 203.448 24.9943 204.512 25.0509C204.605 25.0509 204.733 24.8995 204.605 24.8995C203.687 24.8595 202.767 24.9396 201.883 25.1364C201.501 25.2464 201.135 25.3853 200.789 25.551C200.407 25.722 200.051 25.9458 199.652 26.0971C199.461 26.1892 199.241 26.2381 199.016 26.2381C198.791 26.2381 198.571 26.1892 198.38 26.0971C198.002 25.8524 197.711 25.5378 197.531 25.1825C197.039 24.3205 196.785 23.3927 196.268 22.5504C196.083 22.1898 195.793 21.8675 195.419 21.6095C195.162 21.4735 194.874 21.3754 194.571 21.32C194.098 21.2171 193.612 21.1531 193.121 21.1292C190.576 20.991 188.032 21.5832 185.529 21.2937C185.436 21.2937 185.275 21.4647 185.394 21.4779L185.368 21.4121Z" fill="black"/>
<path d="M239.492 21.3681C240.773 21.3544 242.05 21.4804 243.29 21.7426C243.892 21.8803 244.481 22.056 245.05 22.2682C245.631 22.485 246.189 22.7412 246.77 22.9252C247.841 23.3754 249.005 23.6541 250.202 23.7464C251.185 23.709 252.144 23.4841 253.005 23.0894C253.53 22.8857 254.04 22.6624 254.597 22.4784C255.169 22.2866 255.765 22.1457 256.373 22.0579C256.373 22.0579 256.444 22.0054 256.373 22.0054C255.369 22.0619 254.394 22.3068 253.522 22.7215C252.625 23.1457 251.634 23.4182 250.608 23.523C249.412 23.4773 248.243 23.2149 247.184 22.7543C246.067 22.2837 244.916 21.8712 243.736 21.5192C242.384 21.2194 240.987 21.0822 239.588 21.1119C239.484 21.1119 239.325 21.309 239.476 21.309L239.492 21.3681Z" fill="black"/>
<path d="M265.724 22.5793C266.624 22.5041 267.544 22.5433 268.411 22.694C269.307 22.932 269.839 23.4434 270.767 23.6682C271.068 23.7425 271.403 23.7646 271.728 23.7315C272.053 23.6984 272.351 23.6117 272.582 23.483C272.639 23.4522 272.647 23.3861 272.534 23.4125C272.17 23.5523 271.726 23.615 271.283 23.5888C270.897 23.5305 270.539 23.4267 270.234 23.2847C269.813 23.0608 269.365 22.8517 268.895 22.6587C268 22.3413 266.846 22.4339 265.837 22.4603C265.732 22.4603 265.595 22.5837 265.724 22.5793V22.5793Z" fill="black"/>
<path d="M308.983 21.3038C310.706 21.2459 312.431 21.4076 314.097 21.7835C314.924 22.0312 315.676 22.4278 316.301 22.9456C316.977 23.5084 317.691 24.0385 318.44 24.5333C319.203 25.0129 319.926 25.5366 320.603 26.1007C321.24 26.6969 321.839 27.3217 322.396 27.9721C323.357 29.0835 324.595 30.0057 326.023 30.6746C326.503 30.9266 327.068 31.0382 327.631 30.9921C328.251 30.8705 328.283 30.3165 328.186 29.8976C328.186 29.7895 327.905 29.9449 327.929 30.0463C327.953 30.1476 328.058 30.5665 327.865 30.7219C327.788 30.7653 327.7 30.7944 327.609 30.8072C327.517 30.8201 327.424 30.8163 327.334 30.7962C326.827 30.7249 326.342 30.5736 325.902 30.3503C324.474 29.6031 323.245 28.6164 322.292 27.4519C321.759 26.8164 321.173 26.2135 320.539 25.648C319.895 25.1278 319.196 24.6684 318.496 24.2022C317.796 23.736 317.145 23.2226 316.486 22.6956C315.912 22.2286 315.234 21.8612 314.491 21.6146C312.794 21.0539 310.888 21.1484 309.103 21.1079C308.991 21.1079 308.83 21.3106 308.983 21.3106V21.3038Z" fill="black"/>
<path d="M148.528 24.3284C148.907 23.8581 149.357 23.4297 149.867 23.0537L150.625 22.4941C150.883 22.3123 151.121 22.112 151.337 21.8956C151.421 21.8023 151.337 21.7246 151.206 21.7945C150.934 21.9655 150.691 22.1676 150.428 22.3619C150.166 22.5562 149.904 22.7506 149.651 22.9526C149.135 23.3497 148.685 23.8019 148.313 24.2973C148.303 24.3038 148.295 24.3121 148.289 24.3215C148.284 24.3309 148.281 24.3412 148.281 24.3517C148.281 24.3621 148.284 24.3724 148.289 24.3818C148.295 24.3912 148.303 24.3995 148.313 24.4061C148.369 24.4061 148.453 24.4061 148.481 24.3284H148.528Z" fill="black"/>
<path d="M118.191 21.948C118.465 22.0609 118.731 22.2025 118.983 22.371C119.107 22.4593 119.221 22.566 119.321 22.6883C119.372 22.7502 119.418 22.8168 119.46 22.8873C119.494 22.9699 119.548 23.0392 119.616 23.0864C119.636 23.0886 119.656 23.0823 119.673 23.0686C119.69 23.0549 119.702 23.0348 119.707 23.0117C119.706 22.9167 119.687 22.8229 119.652 22.737C119.617 22.6511 119.566 22.5751 119.503 22.5141C119.4 22.384 119.281 22.2728 119.15 22.1844C118.881 22.0112 118.597 21.8715 118.303 21.7676C118.233 21.7676 118.105 21.9107 118.191 21.948V21.948Z" fill="black"/>
<path d="M98.8701 21.3639C99.1014 21.6594 99.3492 21.9304 99.586 22.1849L99.9219 22.6118L100.087 22.8416C100.142 22.9237 100.192 23.0387 100.269 23.0797C100.346 23.1208 100.412 22.973 100.396 22.8909C100.368 22.7803 100.321 22.6836 100.258 22.6118C100.207 22.5263 100.152 22.4467 100.093 22.3737C99.9825 22.2259 99.8669 22.0864 99.7457 21.9468C99.5034 21.6677 99.2556 21.4049 99.0188 21.1258C98.9527 21.0437 98.804 21.2654 98.8701 21.3557V21.3639Z" fill="black"/>
<path d="M66.5627 23.0729C67.1511 22.8621 67.7485 22.6595 68.3731 22.4731L69.2783 22.2137C69.5873 22.1391 69.8899 22.0443 70.1834 21.93C70.2287 21.93 70.3463 21.7598 70.2287 21.7679C69.9188 21.7926 69.6143 21.8553 69.3235 21.9543L68.355 22.2461C67.7485 22.4406 67.142 22.6433 66.5446 22.8621C66.4089 22.9108 66.3455 23.1459 66.5446 23.0729H66.5627Z" fill="black"/>
<path d="M51.116 23.0622C51.8253 22.7365 52.5346 22.3936 53.2623 22.0936C53.6308 21.9394 54.0085 21.7936 54.3862 21.6651C54.7639 21.5365 55.1416 21.4593 55.4916 21.3136C55.5469 21.3136 55.6851 21.1079 55.5469 21.1079C55.1755 21.1357 54.8115 21.2197 54.4691 21.3565C54.0822 21.4851 53.7045 21.6308 53.336 21.7851C52.5807 22.1022 51.8529 22.4536 51.116 22.8051C50.9686 22.8737 50.8857 23.1737 51.116 23.0622V23.0622Z" fill="black"/>
<path d="M27.0854 21.9193C27.9534 21.8624 28.7629 22.3795 29.2735 22.7983C29.6186 23.0612 29.9241 23.3489 30.1852 23.6566C30.2915 23.7815 30.3865 23.911 30.4696 24.0444C30.5146 24.1669 30.5859 24.2838 30.6811 24.3909C30.7468 24.4426 30.878 24.3495 30.8926 24.303C30.8966 24.0724 30.7998 23.8466 30.6155 23.6566C30.4332 23.4145 30.2208 23.1844 29.981 22.9689C29.5179 22.5225 28.9133 22.1594 28.2159 21.909C27.8879 21.7953 27.5217 21.7487 27.1584 21.7745C27.0781 21.7745 26.9614 21.9296 27.0854 21.9193V21.9193Z" fill="black"/>
<path d="M255.004 21.7581C255.475 21.6338 255.964 21.5321 256.466 21.4541L257.178 21.3486C257.419 21.3229 257.654 21.2788 257.874 21.2177C257.927 21.2177 258.011 21.1164 257.874 21.1079C257.755 21.1118 257.637 21.1261 257.526 21.1501L257.147 21.2092C256.905 21.2472 256.67 21.281 256.435 21.3232C255.935 21.4049 255.448 21.5108 254.981 21.6399C254.928 21.6399 254.852 21.6948 254.86 21.7328C254.867 21.7708 254.928 21.775 254.981 21.7581H255.004Z" fill="black"/>
<defs>
<radialGradient id="paint0_radial_813_11072" cx="0" cy="0" r="1" gradientUnits="userSpaceOnUse" gradientTransform="translate(164.5 18.1397) rotate(90) scale(18.1397 164.5)">
<stop stop-color="white"/>
<stop offset="1" stop-color="#F3FEFF"/>
</radialGradient>
</defs>
</svg>
