<svg width="18" height="18" viewBox="0 0 18 18" fill="none" xmlns="http://www.w3.org/2000/svg">
<path d="M6.36417 8.99991C6.36417 7.54392 7.54421 6.36336 9.00025 6.36336C10.4562 6.36336 11.6369 7.54392 11.6369 8.99991C11.6369 10.4559 10.4562 11.6365 9.00025 11.6365C7.54421 11.6365 6.36417 10.4559 6.36417 8.99991ZM4.93884 8.99991C4.93884 11.2429 6.75713 13.0612 9.00025 13.0612C11.2434 13.0612 13.0616 11.2429 13.0616 8.99991C13.0616 6.75689 11.2434 4.93869 9.00025 4.93869C6.75713 4.93869 4.93884 6.75689 4.93884 8.99991ZM12.2733 4.77766C12.2732 4.96537 12.3288 5.14889 12.433 5.30501C12.5372 5.46113 12.6854 5.58283 12.8588 5.65474C13.0323 5.72664 13.2231 5.74551 13.4072 5.70897C13.5913 5.67242 13.7605 5.5821 13.8932 5.44941C14.0261 5.31673 14.1165 5.14766 14.1532 4.96357C14.1899 4.77948 14.1712 4.58864 14.0994 4.41519C14.0276 4.24173 13.906 4.09346 13.75 3.98911C13.594 3.88476 13.4105 3.82902 13.2228 3.82895C12.9711 3.82906 12.7295 3.92904 12.5515 4.10693C12.3735 4.28481 12.2735 4.52605 12.2733 4.77766ZM5.80483 15.4377C5.03369 15.4026 4.61456 15.2742 4.33602 15.1656C3.96674 15.0219 3.70326 14.8507 3.42625 14.574C3.14923 14.2974 2.97775 14.0342 2.83462 13.6649C2.72604 13.3865 2.59759 12.9673 2.56254 12.1962C2.5242 11.3625 2.51654 11.1121 2.51654 8.99996C2.51654 6.88785 2.52483 6.63811 2.56254 5.80375C2.59766 5.03265 2.72705 4.61422 2.83462 4.335C2.97838 3.96574 3.14961 3.70228 3.42625 3.42527C3.70289 3.14826 3.96611 2.97679 4.33602 2.83367C4.61443 2.72509 5.03369 2.59665 5.80483 2.56159C6.63854 2.52325 6.889 2.5156 9.00025 2.5156C11.1115 2.5156 11.3622 2.52389 12.1966 2.56159C12.9677 2.59671 13.3861 2.7261 13.6654 2.83367C14.0346 2.97679 14.2981 3.14864 14.5751 3.42527C14.8522 3.70189 15.023 3.96574 15.1668 4.335C15.2754 4.6134 15.4038 5.03265 15.4389 5.80375C15.4772 6.63811 15.4849 6.88785 15.4849 8.99996C15.4849 11.1121 15.4772 11.3618 15.4389 12.1962C15.4037 12.9673 15.2746 13.3864 15.1668 13.6649C15.023 14.0342 14.8518 14.2977 14.5751 14.574C14.2985 14.8504 14.0346 15.0219 13.6654 15.1656C13.387 15.2742 12.9677 15.4027 12.1966 15.4377C11.3629 15.4761 11.1124 15.4837 9.00025 15.4837C6.88804 15.4837 6.6383 15.4761 5.80483 15.4377ZM5.73934 1.13872C4.89733 1.17706 4.32197 1.31057 3.8195 1.50608C3.29912 1.70798 2.8586 1.97885 2.4184 2.41834C1.97819 2.85784 1.70801 3.29904 1.5061 3.81939C1.31058 4.32216 1.17706 4.89718 1.13872 5.73915C1.09974 6.58246 1.09082 6.85204 1.09082 8.99991C1.09082 11.1478 1.09974 11.4174 1.13872 12.2607C1.17706 13.1027 1.31058 13.6777 1.5061 14.1804C1.70801 14.7004 1.97825 15.1422 2.4184 15.5815C2.85854 16.0208 3.29912 16.2913 3.8195 16.4938C4.32292 16.6893 4.89733 16.8228 5.73934 16.8611C6.58313 16.8995 6.85228 16.909 9.00025 16.909C11.1482 16.909 11.4178 16.9001 12.2611 16.8611C13.1032 16.8228 13.6782 16.6893 14.1809 16.4938C14.701 16.2913 15.1419 16.021 15.582 15.5815C16.0223 15.142 16.2919 14.7004 16.4944 14.1804C16.6899 13.6777 16.824 13.1026 16.8617 12.2607C16.9001 11.4167 16.909 11.1478 16.909 8.99991C16.909 6.85204 16.9001 6.58246 16.8617 5.73915C16.8234 4.89712 16.6899 4.32184 16.4944 3.81939C16.2919 3.29935 16.0216 2.85854 15.582 2.41834C15.1425 1.97816 14.701 1.70798 14.1816 1.50608C13.6782 1.31057 13.1031 1.17643 12.2618 1.13872C11.4184 1.10037 11.1488 1.09082 9.00087 1.09082C6.8529 1.09082 6.58313 1.09974 5.73934 1.13872Z" fill="white"/>
</svg>
