<svg width="158" height="158" viewBox="0 0 158 158" fill="none" xmlns="http://www.w3.org/2000/svg">
<g clip-path="url(#clip0_3_19)">
<path d="M119 48C116.824 48 114.698 47.3549 112.889 46.1462C111.08 44.9375 109.67 43.2195 108.837 41.2095C108.005 39.1995 107.787 36.9878 108.211 34.854C108.636 32.7202 109.683 30.7602 111.222 29.2218C112.76 27.6834 114.72 26.6358 116.854 26.2114C118.988 25.7869 121.2 26.0048 123.21 26.8373C125.22 27.6699 126.937 29.0798 128.146 30.8887C129.355 32.6977 130 34.8244 130 37C130 39.9174 128.841 42.7153 126.778 44.7782C124.715 46.8411 121.917 48 119 48Z" fill="#D232EA"/>
<path d="M119 28C120.78 28 122.52 28.5278 124 29.5168C125.48 30.5057 126.634 31.9113 127.315 33.5559C127.996 35.2004 128.174 37.01 127.827 38.7558C127.48 40.5016 126.623 42.1053 125.364 43.364C124.105 44.6226 122.502 45.4798 120.756 45.8271C119.01 46.1743 117.2 45.9961 115.556 45.3149C113.911 44.6337 112.506 43.4802 111.517 42.0001C110.528 40.5201 110 38.78 110 37C110 34.6131 110.948 32.3239 112.636 30.636C114.324 28.9482 116.613 28 119 28V28ZM119 24C116.429 24 113.915 24.7624 111.778 26.1909C109.64 27.6194 107.973 29.6497 106.99 32.0251C106.006 34.4006 105.748 37.0144 106.25 39.5362C106.751 42.0579 107.99 44.3743 109.808 46.1924C111.626 48.0105 113.942 49.2486 116.464 49.7502C118.986 50.2518 121.599 49.9944 123.975 49.0104C126.35 48.0265 128.381 46.3603 129.809 44.2224C131.238 42.0846 132 39.5712 132 37C132 33.5522 130.63 30.2456 128.192 27.8076C125.754 25.3696 122.448 24 119 24V24Z" fill="white"/>
<path d="M79.4 119.81C69.3845 119.802 59.7298 116.069 52.3136 109.338C44.8973 102.607 40.2496 93.3579 39.2741 83.39C38.2986 73.4221 41.0651 63.4476 47.0356 55.4062C53.0062 47.3649 61.754 41.8314 71.578 39.8818C81.402 37.9323 91.5999 39.706 100.189 44.8581C108.777 50.0102 115.143 58.1724 118.048 67.7575C120.953 77.3425 120.189 87.6653 115.905 96.7185C111.621 105.772 104.124 112.908 94.87 116.74C89.9673 118.777 84.709 119.821 79.4 119.81V119.81ZM79.4 56.48C77.8957 56.4763 76.3948 56.6237 74.92 56.92C69.128 58.0695 64.0001 61.4026 60.5981 66.229C57.1961 71.0555 55.7807 77.0054 56.6451 82.8468C57.5094 88.6881 60.5873 93.9732 65.2413 97.6075C69.8953 101.242 75.7688 102.947 81.6454 102.37C87.5221 101.793 92.9516 98.9774 96.8096 94.5071C100.668 90.0367 102.658 84.2538 102.37 78.3559C102.081 72.4581 99.5353 66.8971 95.2594 62.8248C90.9834 58.7524 85.3049 56.4807 79.4 56.48V56.48Z" fill="#D232EA"/>
<path d="M79.41 41C84.5056 40.9178 89.5665 41.8504 94.2981 43.7435C99.0297 45.6366 103.337 48.4524 106.97 52.0268C110.602 55.6012 113.487 59.8627 115.456 64.5631C117.426 69.2635 118.44 74.3088 118.44 79.405C118.44 84.5012 117.426 89.5465 115.456 94.2469C113.487 98.9473 110.602 103.209 106.97 106.783C103.337 110.358 99.0297 113.173 94.2981 115.066C89.5665 116.96 84.5056 117.892 79.41 117.81C76.895 117.813 74.3859 117.565 71.92 117.07C62.5619 115.219 54.2278 109.951 48.541 102.292C42.8542 94.6324 40.2219 85.1308 41.1566 75.6372C42.0914 66.1437 46.5263 57.3379 53.5977 50.935C60.6691 44.5321 69.8705 40.9905 79.41 41V41ZM79.41 104.34C85.4065 104.348 91.2062 102.201 95.7515 98.2894C100.297 94.378 103.285 88.9631 104.17 83.0324C105.056 77.1016 103.78 71.0501 100.576 65.9814C97.3719 60.9127 92.4525 57.1646 86.7152 55.4207C80.9779 53.6767 74.8048 54.053 69.3218 56.481C63.8389 58.909 59.4113 63.227 56.8465 68.6473C54.2817 74.0677 53.7507 80.2294 55.3502 86.0086C56.9498 91.7879 60.5733 96.7997 65.56 100.13C69.6576 102.874 74.4782 104.34 79.41 104.34V104.34ZM79.41 37C69.6014 37.004 60.0975 40.4086 52.5175 46.6338C44.9375 52.859 39.7503 61.5197 37.8396 71.1405C35.9289 80.7612 37.4128 90.7468 42.0387 99.3962C46.6645 108.045 54.146 114.823 63.2087 118.575C72.2714 122.327 82.3546 122.821 91.7405 119.973C101.126 117.124 109.234 111.11 114.683 102.954C120.132 94.7978 122.585 85.0049 121.623 75.2436C120.662 65.4822 116.345 56.3561 109.41 49.42C105.477 45.4719 100.801 42.3417 95.652 40.21C90.503 38.0783 84.9828 36.9873 79.41 37V37ZM79.41 100.34C74.5488 100.351 69.8343 98.6756 66.0706 95.599C62.3069 92.5223 59.7271 88.2352 58.7714 83.4689C57.8156 78.7026 58.543 73.7524 60.8295 69.4625C63.116 65.1726 66.82 61.8088 71.3097 59.945C75.7994 58.0811 80.7966 57.8326 85.4491 59.2418C90.1015 60.651 94.121 63.6306 96.8219 67.6724C99.5228 71.7143 100.738 76.5679 100.26 81.4056C99.7815 86.2432 97.6399 90.7651 94.2 94.2C92.2617 96.1486 89.957 97.6943 87.4186 98.7481C84.8802 99.8019 82.1584 100.343 79.41 100.34V100.34Z" fill="white"/>
<path d="M78.79 155.58C58.54 155.58 55.88 155.49 47.86 155.13C41.442 154.987 35.0937 153.766 29.08 151.52C23.8287 149.532 19.0698 146.431 15.13 142.43C11.1271 138.476 8.03225 133.699 6.06 128.43C3.81058 122.421 2.59015 116.075 2.45 109.66C2.09 101.7 2 99 2 78.79C2 58.58 2.09 55.88 2.45 47.86C2.58943 41.4384 3.80985 35.0861 6.06 29.07C8.08516 23.8486 11.1764 19.1066 15.1365 15.1465C19.0966 11.1864 23.8386 8.09516 29.06 6.07C35.0682 3.82986 41.4094 2.61299 47.82 2.47C55.82 2.11 58.5 2.02 78.75 2.02C99 2.02 101.67 2.11 109.68 2.47C116.111 2.59851 122.474 3.81225 128.5 6.06C133.723 8.08247 138.466 11.1728 142.427 15.1332C146.387 19.0936 149.478 23.837 151.5 29.06C153.747 35.07 154.968 41.4152 155.11 47.83C155.47 55.83 155.56 58.51 155.56 78.76C155.56 99.01 155.47 101.67 155.11 109.68C154.968 116.101 153.747 122.453 151.5 128.47C149.476 133.692 146.386 138.435 142.425 142.395C138.465 146.356 133.722 149.446 128.5 151.47C122.486 153.716 116.138 154.937 109.72 155.08C101.7 155.49 99 155.58 78.79 155.58ZM78.79 19.48C58.87 19.48 56.51 19.55 48.66 19.91C41.66 20.23 37.9 21.38 35.4 22.35C32.426 23.4508 29.7342 25.1998 27.52 27.47C25.2347 29.6875 23.472 32.3861 22.36 35.37C21.36 37.9 20.23 41.66 19.91 48.66C19.55 56.51 19.47 58.86 19.47 78.79C19.47 98.72 19.55 101.07 19.91 108.92C20.23 115.92 21.38 119.68 22.35 122.17C23.448 125.148 25.1972 127.844 27.47 130.06C29.6875 132.345 32.3862 134.108 35.37 135.22C37.9 136.22 41.66 137.35 48.66 137.67C56.5 138.03 58.86 138.1 78.79 138.1C98.72 138.1 101.07 138.03 108.92 137.67C115.92 137.35 119.68 136.2 122.17 135.23C125.142 134.093 127.838 132.338 130.08 130.08C132.328 127.834 134.083 125.143 135.23 122.18C136.23 119.68 137.35 115.92 137.67 108.92C138.03 101.08 138.1 98.73 138.1 78.79C138.1 58.85 138.03 56.5 137.67 48.66C137.35 41.66 136.2 37.9 135.23 35.41C134.082 32.461 132.333 29.7827 130.095 27.5449C127.857 25.3071 125.179 23.5585 122.23 22.41C119.7 21.41 115.94 20.28 108.94 19.96C101.07 19.55 98.71 19.48 78.79 19.48V19.48Z" fill="#D232EA"/>
<path d="M78.79 4C99.1 4 101.65 4.09 109.62 4.45C115.826 4.57577 121.965 5.74894 127.78 7.92C132.749 9.84084 137.262 12.7796 141.028 16.5477C144.795 20.3158 147.731 24.8298 149.65 29.8C151.835 35.6249 153.012 41.7797 153.13 48C153.49 56 153.58 58.53 153.58 78.84C153.58 99.15 153.49 101.7 153.13 109.67C153.008 115.877 151.831 122.018 149.65 127.83C147.733 132.8 144.797 137.313 141.03 141.08C137.263 144.847 132.75 147.783 127.78 149.7C121.966 151.877 115.826 153.053 109.62 153.18C101.62 153.54 99.1 153.63 78.79 153.63C58.48 153.63 55.93 153.54 47.95 153.18C41.747 153.052 35.6104 151.875 29.8 149.7C24.8252 147.777 20.3087 144.833 16.5418 141.058C12.7748 137.282 9.84117 132.759 7.93 127.78C5.74919 121.968 4.57243 115.827 4.45 109.62C4.09 101.65 4 99.1 4 78.79C4 58.48 4.09 55.93 4.45 48C4.56915 41.7808 5.74247 35.6268 7.92 29.8C9.80286 24.8103 12.7475 20.2894 16.55 16.55C20.2871 12.7471 24.8089 9.80533 29.8 7.93C35.6249 5.74455 41.7797 4.5677 48 4.45C56 4.09 58.53 4 78.84 4H78.79ZM78.84 140.1C98.84 140.1 101.18 140.03 109.06 139.67C116.35 139.34 120.31 138.12 122.95 137.09C126.176 135.848 129.106 133.944 131.55 131.5C133.994 129.056 135.898 126.126 137.14 122.9C138.14 120.26 139.38 116.3 139.72 109.01C140.08 101.12 140.15 98.76 140.15 78.79C140.15 58.82 140.08 56.45 139.72 48.57C139.38 41.28 138.17 37.32 137.14 34.68C135.893 31.4492 133.981 28.5166 131.528 26.0721C129.074 23.6276 126.135 21.7258 122.9 20.49C120.26 19.49 116.3 18.24 109.01 17.91C101.12 17.55 98.76 17.48 78.79 17.48C58.82 17.48 56.45 17.55 48.57 17.91C41.28 18.24 37.32 19.46 34.68 20.49C31.432 21.6881 28.4935 23.5981 26.08 26.08C23.5981 28.4935 21.6881 31.432 20.49 34.68C19.49 37.32 18.24 41.28 17.91 48.57C17.55 56.46 17.47 58.82 17.47 78.79C17.47 98.76 17.55 101.13 17.91 109.01C18.24 116.3 19.46 120.26 20.49 122.9C21.6844 126.15 23.5949 129.089 26.08 131.5C28.4935 133.982 31.432 135.892 34.68 137.09C37.32 138.09 41.28 139.34 48.57 139.67C56.45 140.03 58.82 140.1 78.79 140.1H78.84ZM78.79 0C58.5 0 55.79 0.09 47.79 0.45C41.145 0.596082 34.5725 1.86393 28.35 4.2C22.8582 6.32554 17.8713 9.57539 13.709 13.7411C9.54672 17.9068 6.301 22.8965 4.18 28.39C1.86079 34.5953 0.603204 41.147 0.46 47.77C0.09 55.77 0 58.49 0 78.77C0 99.05 0.09 101.77 0.46 109.77C0.600633 116.421 1.86513 123.001 4.2 129.23C6.32779 134.719 9.57854 139.704 13.7441 143.864C17.9096 148.024 22.898 151.269 28.39 153.39C34.5939 155.716 41.1461 156.977 47.77 157.12C55.77 157.49 58.5 157.58 78.77 157.58C99.04 157.58 101.77 157.49 109.77 157.12C116.408 156.975 122.973 155.71 129.19 153.38C134.674 151.254 139.655 148.007 143.813 143.847C147.971 139.687 151.216 134.705 153.34 129.22C155.674 123.008 156.938 116.445 157.08 109.81C157.45 101.75 157.54 99.08 157.54 78.81C157.54 58.54 157.45 55.81 157.08 47.81C156.938 41.172 155.674 34.6059 153.34 28.39C151.224 22.8947 147.982 17.9024 143.823 13.7332C139.664 9.56405 134.68 6.31009 129.19 4.18C122.985 1.86079 116.433 0.603204 109.81 0.46C101.81 0.09 99.09 0 78.81 0H78.79ZM78.79 136.1C58.9 136.1 56.56 136.03 48.79 135.67C42.08 135.37 38.52 134.28 36.17 133.36H36.11C33.4239 132.358 30.995 130.769 29 128.71V128.71C26.9437 126.713 25.3616 124.28 24.37 121.59V121.59C23.46 119.24 22.37 115.68 22.07 108.97C21.71 101.16 21.63 98.81 21.63 78.97C21.63 59.13 21.71 56.74 22.07 48.97C22.37 42.26 23.46 38.7 24.37 36.35C25.2927 33.5902 26.8316 31.0767 28.87 29C30.8699 26.9469 33.3022 25.3652 35.99 24.37V24.37C38.34 23.46 41.9 22.37 48.61 22.07C56.42 21.71 58.76 21.64 78.61 21.64C98.46 21.64 100.84 21.71 108.61 22.07C115.32 22.37 118.88 23.46 121.23 24.38H121.29C123.975 25.38 126.407 26.961 128.41 29.01V29.01C130.461 31.0116 132.042 33.4434 133.04 36.13V36.19C133.96 38.54 135.04 42.1 135.35 48.81C135.71 56.62 135.78 58.96 135.78 78.81C135.78 98.66 135.71 101.04 135.35 108.81C135.04 115.52 133.96 119.08 133.04 121.43C131.999 124.137 130.403 126.595 128.353 128.647C126.303 130.698 123.846 132.297 121.14 133.34C118.78 134.26 115.22 135.34 108.51 135.65C100.7 136.01 98.36 136.08 78.51 136.08L78.79 136.1Z" fill="white"/>
</g>
<defs>
<clipPath id="clip0_3_19">
<rect width="157.58" height="157.58" fill="white"/>
</clipPath>
</defs>
</svg>
