<svg width="612" height="68" viewBox="0 0 612 68" fill="none" xmlns="http://www.w3.org/2000/svg">
<path d="M16.8457 44.8428V20.4531H25.3906V44.8428C25.3906 47.2191 24.8454 49.278 23.7549 51.0195C22.6807 52.7611 21.2158 54.112 19.3604 55.0723C17.5212 56.0163 15.4541 56.4883 13.1592 56.4883C10.7829 56.4883 8.66699 56.0895 6.81152 55.292C4.97233 54.4945 3.52376 53.2656 2.46582 51.6055C1.42415 49.9453 0.90332 47.8294 0.90332 45.2578H9.49707C9.49707 46.4622 9.63542 47.4062 9.91211 48.0898C10.1888 48.7572 10.5957 49.2292 11.1328 49.5059C11.6862 49.7663 12.3617 49.8965 13.1592 49.8965C13.9404 49.8965 14.5996 49.7012 15.1367 49.3105C15.6901 48.9036 16.1133 48.3258 16.4062 47.5771C16.6992 46.8122 16.8457 45.9007 16.8457 44.8428ZM60.9131 37.5186V38.959C60.9131 41.6771 60.5306 44.1185 59.7656 46.2832C59.0169 48.4316 57.9508 50.2708 56.5674 51.8008C55.1839 53.3145 53.5482 54.4782 51.6602 55.292C49.7721 56.0895 47.6888 56.4883 45.4102 56.4883C43.1152 56.4883 41.0156 56.0895 39.1113 55.292C37.2233 54.4782 35.5794 53.3145 34.1797 51.8008C32.7962 50.2708 31.722 48.4316 30.957 46.2832C30.2083 44.1185 29.834 41.6771 29.834 38.959V37.5186C29.834 34.8005 30.2083 32.359 30.957 30.1943C31.722 28.0296 32.7881 26.1904 34.1553 24.6768C35.5387 23.1468 37.1745 21.9831 39.0625 21.1855C40.9668 20.3717 43.0664 19.9648 45.3613 19.9648C47.64 19.9648 49.7233 20.3717 51.6113 21.1855C53.5156 21.9831 55.1595 23.1468 56.543 24.6768C57.9264 26.1904 59.0007 28.0296 59.7656 30.1943C60.5306 32.359 60.9131 34.8005 60.9131 37.5186ZM52.2217 38.959V37.4697C52.2217 35.7119 52.0671 34.1657 51.7578 32.8311C51.4648 31.4801 51.0254 30.349 50.4395 29.4375C49.8535 28.526 49.1292 27.8424 48.2666 27.3867C47.4202 26.9147 46.4518 26.6787 45.3613 26.6787C44.222 26.6787 43.2292 26.9147 42.3828 27.3867C41.5365 27.8424 40.8285 28.526 40.2588 29.4375C39.6891 30.349 39.2578 31.4801 38.9648 32.8311C38.6882 34.1657 38.5498 35.7119 38.5498 37.4697V38.959C38.5498 40.7005 38.6882 42.2467 38.9648 43.5977C39.2578 44.9323 39.6891 46.0635 40.2588 46.9912C40.8447 47.9189 41.5609 48.6188 42.4072 49.0908C43.2699 49.5628 44.2708 49.7988 45.4102 49.7988C46.5007 49.7988 47.4691 49.5628 48.3154 49.0908C49.1618 48.6188 49.8698 47.9189 50.4395 46.9912C51.0254 46.0635 51.4648 44.9323 51.7578 43.5977C52.0671 42.2467 52.2217 40.7005 52.2217 38.959ZM74.4629 20.4531V56H65.918V20.4531H74.4629ZM110.181 20.4531V56H101.636L89.0625 33.8809V56H80.4932V20.4531H89.0625L101.636 42.5723V20.4531H110.181ZM143.799 20.4531V56H135.229V20.4531H143.799ZM154.492 20.4531V27.0693H124.78V20.4531H154.492ZM182.08 34.5645V41.1562H163.843V34.5645H182.08ZM166.699 20.4531V56H158.13V20.4531H166.699ZM187.842 20.4531V56H179.297V20.4531H187.842ZM217.749 49.4082V56H198.804V49.4082H217.749ZM201.855 20.4531V56H193.286V20.4531H201.855ZM215.308 34.5645V40.9365H198.804V34.5645H215.308ZM217.822 20.4531V27.0693H198.804V20.4531H217.822ZM248.218 40.8877H239.062L239.014 35.2725H246.436C247.77 35.2725 248.836 35.126 249.634 34.833C250.431 34.5238 251.009 34.0762 251.367 33.4902C251.742 32.9043 251.929 32.1719 251.929 31.293C251.929 30.2839 251.742 29.4701 251.367 28.8516C250.993 28.2331 250.399 27.7855 249.585 27.5088C248.787 27.2158 247.754 27.0693 246.484 27.0693H242.285V56H233.716V20.4531H246.484C248.682 20.4531 250.643 20.6566 252.368 21.0635C254.093 21.4541 255.558 22.0563 256.763 22.8701C257.983 23.6839 258.911 24.7093 259.546 25.9463C260.181 27.167 260.498 28.6074 260.498 30.2676C260.498 31.7161 260.189 33.0752 259.57 34.3447C258.952 35.6143 257.918 36.6478 256.47 37.4453C255.037 38.2266 253.076 38.6335 250.586 38.666L248.218 40.8877ZM247.876 56H236.987L239.917 49.4082H247.876C249.048 49.4082 249.984 49.2292 250.684 48.8711C251.4 48.4967 251.912 48.0085 252.222 47.4062C252.547 46.7878 252.71 46.1042 252.71 45.3555C252.71 44.444 252.555 43.6546 252.246 42.9873C251.953 42.32 251.481 41.8073 250.83 41.4492C250.179 41.0749 249.308 40.8877 248.218 40.8877H241.016L241.064 35.2725H249.683L251.685 37.5186C254.061 37.4209 255.941 37.7546 257.324 38.5195C258.724 39.2845 259.725 40.2936 260.327 41.5469C260.929 42.8001 261.23 44.1104 261.23 45.4775C261.23 47.805 260.726 49.75 259.717 51.3125C258.724 52.875 257.235 54.0469 255.249 54.8281C253.263 55.6094 250.806 56 247.876 56ZM265.991 20.4531H279.98C282.715 20.4531 285.091 20.86 287.109 21.6738C289.128 22.4876 290.682 23.6921 291.772 25.2871C292.879 26.8822 293.433 28.8516 293.433 31.1953C293.433 33.2298 293.115 34.9307 292.48 36.2979C291.846 37.665 290.959 38.7962 289.819 39.6914C288.696 40.5703 287.386 41.2946 285.889 41.8643L283.081 43.4512H271.338L271.289 36.835H279.98C281.071 36.835 281.974 36.6396 282.69 36.249C283.407 35.8584 283.944 35.305 284.302 34.5889C284.676 33.8564 284.863 32.9857 284.863 31.9766C284.863 30.9512 284.676 30.0723 284.302 29.3398C283.927 28.6074 283.374 28.0459 282.642 27.6553C281.925 27.2646 281.038 27.0693 279.98 27.0693H274.561V56H265.991V20.4531ZM285.449 56L277.588 40.2773L286.67 40.2285L294.629 55.6338V56H285.449ZM328.687 37.5186V38.959C328.687 41.6771 328.304 44.1185 327.539 46.2832C326.79 48.4316 325.724 50.2708 324.341 51.8008C322.957 53.3145 321.322 54.4782 319.434 55.292C317.546 56.0895 315.462 56.4883 313.184 56.4883C310.889 56.4883 308.789 56.0895 306.885 55.292C304.997 54.4782 303.353 53.3145 301.953 51.8008C300.57 50.2708 299.495 48.4316 298.73 46.2832C297.982 44.1185 297.607 41.6771 297.607 38.959V37.5186C297.607 34.8005 297.982 32.359 298.73 30.1943C299.495 28.0296 300.562 26.1904 301.929 24.6768C303.312 23.1468 304.948 21.9831 306.836 21.1855C308.74 20.3717 310.84 19.9648 313.135 19.9648C315.413 19.9648 317.497 20.3717 319.385 21.1855C321.289 21.9831 322.933 23.1468 324.316 24.6768C325.7 26.1904 326.774 28.0296 327.539 30.1943C328.304 32.359 328.687 34.8005 328.687 37.5186ZM319.995 38.959V37.4697C319.995 35.7119 319.84 34.1657 319.531 32.8311C319.238 31.4801 318.799 30.349 318.213 29.4375C317.627 28.526 316.903 27.8424 316.04 27.3867C315.194 26.9147 314.225 26.6787 313.135 26.6787C311.995 26.6787 311.003 26.9147 310.156 27.3867C309.31 27.8424 308.602 28.526 308.032 29.4375C307.463 30.349 307.031 31.4801 306.738 32.8311C306.462 34.1657 306.323 35.7119 306.323 37.4697V38.959C306.323 40.7005 306.462 42.2467 306.738 43.5977C307.031 44.9323 307.463 46.0635 308.032 46.9912C308.618 47.9189 309.334 48.6188 310.181 49.0908C311.043 49.5628 312.044 49.7988 313.184 49.7988C314.274 49.7988 315.243 49.5628 316.089 49.0908C316.935 48.6188 317.643 47.9189 318.213 46.9912C318.799 46.0635 319.238 44.9323 319.531 43.5977C319.84 42.2467 319.995 40.7005 319.995 38.959ZM348.242 20.4531V56H339.673V20.4531H348.242ZM358.936 20.4531V27.0693H329.224V20.4531H358.936ZM386.523 34.5645V41.1562H368.286V34.5645H386.523ZM371.143 20.4531V56H362.573V20.4531H371.143ZM392.285 20.4531V56H383.74V20.4531H392.285ZM422.192 49.4082V56H403.247V49.4082H422.192ZM406.299 20.4531V56H397.729V20.4531H406.299ZM419.751 34.5645V40.9365H403.247V34.5645H419.751ZM422.266 20.4531V27.0693H403.247V20.4531H422.266ZM425.708 20.4531H439.697C442.432 20.4531 444.808 20.86 446.826 21.6738C448.844 22.4876 450.399 23.6921 451.489 25.2871C452.596 26.8822 453.149 28.8516 453.149 31.1953C453.149 33.2298 452.832 34.9307 452.197 36.2979C451.562 37.665 450.675 38.7962 449.536 39.6914C448.413 40.5703 447.103 41.2946 445.605 41.8643L442.798 43.4512H431.055L431.006 36.835H439.697C440.788 36.835 441.691 36.6396 442.407 36.249C443.123 35.8584 443.66 35.305 444.019 34.5889C444.393 33.8564 444.58 32.9857 444.58 31.9766C444.58 30.9512 444.393 30.0723 444.019 29.3398C443.644 28.6074 443.091 28.0459 442.358 27.6553C441.642 27.2646 440.755 27.0693 439.697 27.0693H434.277V56H425.708V20.4531ZM445.166 56L437.305 40.2773L446.387 40.2285L454.346 55.6338V56H445.166ZM482.275 34.5645V41.1562H464.038V34.5645H482.275ZM466.895 20.4531V56H458.325V20.4531H466.895ZM488.037 20.4531V56H479.492V20.4531H488.037ZM523.56 37.5186V38.959C523.56 41.6771 523.177 44.1185 522.412 46.2832C521.663 48.4316 520.597 50.2708 519.214 51.8008C517.83 53.3145 516.195 54.4782 514.307 55.292C512.419 56.0895 510.335 56.4883 508.057 56.4883C505.762 56.4883 503.662 56.0895 501.758 55.292C499.87 54.4782 498.226 53.3145 496.826 51.8008C495.443 50.2708 494.368 48.4316 493.604 46.2832C492.855 44.1185 492.48 41.6771 492.48 38.959V37.5186C492.48 34.8005 492.855 32.359 493.604 30.1943C494.368 28.0296 495.435 26.1904 496.802 24.6768C498.185 23.1468 499.821 21.9831 501.709 21.1855C503.613 20.3717 505.713 19.9648 508.008 19.9648C510.286 19.9648 512.37 20.3717 514.258 21.1855C516.162 21.9831 517.806 23.1468 519.189 24.6768C520.573 26.1904 521.647 28.0296 522.412 30.1943C523.177 32.359 523.56 34.8005 523.56 37.5186ZM514.868 38.959V37.4697C514.868 35.7119 514.714 34.1657 514.404 32.8311C514.111 31.4801 513.672 30.349 513.086 29.4375C512.5 28.526 511.776 27.8424 510.913 27.3867C510.067 26.9147 509.098 26.6787 508.008 26.6787C506.868 26.6787 505.876 26.9147 505.029 27.3867C504.183 27.8424 503.475 28.526 502.905 29.4375C502.336 30.349 501.904 31.4801 501.611 32.8311C501.335 34.1657 501.196 35.7119 501.196 37.4697V38.959C501.196 40.7005 501.335 42.2467 501.611 43.5977C501.904 44.9323 502.336 46.0635 502.905 46.9912C503.491 47.9189 504.207 48.6188 505.054 49.0908C505.916 49.5628 506.917 49.7988 508.057 49.7988C509.147 49.7988 510.116 49.5628 510.962 49.0908C511.808 48.6188 512.516 47.9189 513.086 46.9912C513.672 46.0635 514.111 44.9323 514.404 43.5977C514.714 42.2467 514.868 40.7005 514.868 38.959ZM558.081 37.5186V38.959C558.081 41.6771 557.699 44.1185 556.934 46.2832C556.185 48.4316 555.119 50.2708 553.735 51.8008C552.352 53.3145 550.716 54.4782 548.828 55.292C546.94 56.0895 544.857 56.4883 542.578 56.4883C540.283 56.4883 538.184 56.0895 536.279 55.292C534.391 54.4782 532.747 53.3145 531.348 51.8008C529.964 50.2708 528.89 48.4316 528.125 46.2832C527.376 44.1185 527.002 41.6771 527.002 38.959V37.5186C527.002 34.8005 527.376 32.359 528.125 30.1943C528.89 28.0296 529.956 26.1904 531.323 24.6768C532.707 23.1468 534.342 21.9831 536.23 21.1855C538.135 20.3717 540.234 19.9648 542.529 19.9648C544.808 19.9648 546.891 20.3717 548.779 21.1855C550.684 21.9831 552.327 23.1468 553.711 24.6768C555.094 26.1904 556.169 28.0296 556.934 30.1943C557.699 32.359 558.081 34.8005 558.081 37.5186ZM549.39 38.959V37.4697C549.39 35.7119 549.235 34.1657 548.926 32.8311C548.633 31.4801 548.193 30.349 547.607 29.4375C547.021 28.526 546.297 27.8424 545.435 27.3867C544.588 26.9147 543.62 26.6787 542.529 26.6787C541.39 26.6787 540.397 26.9147 539.551 27.3867C538.704 27.8424 537.996 28.526 537.427 29.4375C536.857 30.349 536.426 31.4801 536.133 32.8311C535.856 34.1657 535.718 35.7119 535.718 37.4697V38.959C535.718 40.7005 535.856 42.2467 536.133 43.5977C536.426 44.9323 536.857 46.0635 537.427 46.9912C538.013 47.9189 538.729 48.6188 539.575 49.0908C540.438 49.5628 541.439 49.7988 542.578 49.7988C543.669 49.7988 544.637 49.5628 545.483 49.0908C546.33 48.6188 547.038 47.9189 547.607 46.9912C548.193 46.0635 548.633 44.9323 548.926 43.5977C549.235 42.2467 549.39 40.7005 549.39 38.959ZM574.072 56H566.187L566.235 49.4082H574.072C575.7 49.4082 577.075 49.0176 578.198 48.2363C579.338 47.4551 580.2 46.2913 580.786 44.7451C581.388 43.1826 581.689 41.262 581.689 38.9834V37.4453C581.689 35.7363 581.519 34.2389 581.177 32.9531C580.851 31.651 580.363 30.5687 579.712 29.7061C579.061 28.8271 578.247 28.168 577.271 27.7285C576.31 27.2891 575.203 27.0693 573.95 27.0693H566.04V20.4531H573.95C576.359 20.4531 578.564 20.8682 580.566 21.6982C582.585 22.512 584.326 23.6839 585.791 25.2139C587.272 26.7275 588.411 28.526 589.209 30.6094C590.023 32.6764 590.43 34.9714 590.43 37.4941V38.9834C590.43 41.4899 590.023 43.7848 589.209 45.8682C588.411 47.9515 587.28 49.75 585.815 51.2637C584.351 52.7773 582.617 53.9492 580.615 54.7793C578.63 55.5931 576.449 56 574.072 56ZM571.094 20.4531V56H562.524V20.4531H571.094ZM595.068 52.1426C595.068 50.9707 595.492 49.9941 596.338 49.2129C597.184 48.4154 598.275 48.0166 599.609 48.0166C600.96 48.0166 602.051 48.4154 602.881 49.2129C603.727 49.9941 604.15 50.9707 604.15 52.1426C604.15 53.3145 603.727 54.2992 602.881 55.0967C602.051 55.8779 600.96 56.2686 599.609 56.2686C598.275 56.2686 597.184 55.8779 596.338 55.0967C595.492 54.2992 595.068 53.3145 595.068 52.1426ZM595.068 32.6602C595.068 31.4883 595.492 30.5117 596.338 29.7305C597.184 28.9329 598.275 28.5342 599.609 28.5342C600.96 28.5342 602.051 28.9329 602.881 29.7305C603.727 30.5117 604.15 31.4883 604.15 32.6602C604.15 33.832 603.727 34.8167 602.881 35.6143C602.051 36.3955 600.96 36.7861 599.609 36.7861C598.275 36.7861 597.184 36.3955 596.338 35.6143C595.492 34.8167 595.068 33.832 595.068 32.6602Z" fill="#4A1452"/>
<path d="M20.8457 42.8428V18.4531H29.3906V42.8428C29.3906 45.2191 28.8454 47.278 27.7549 49.0195C26.6807 50.7611 25.2158 52.112 23.3604 53.0723C21.5212 54.0163 19.4541 54.4883 17.1592 54.4883C14.7829 54.4883 12.667 54.0895 10.8115 53.292C8.97233 52.4945 7.52376 51.2656 6.46582 49.6055C5.42415 47.9453 4.90332 45.8294 4.90332 43.2578H13.4971C13.4971 44.4622 13.6354 45.4062 13.9121 46.0898C14.1888 46.7572 14.5957 47.2292 15.1328 47.5059C15.6862 47.7663 16.3617 47.8965 17.1592 47.8965C17.9404 47.8965 18.5996 47.7012 19.1367 47.3105C19.6901 46.9036 20.1133 46.3258 20.4062 45.5771C20.6992 44.8122 20.8457 43.9007 20.8457 42.8428ZM64.9131 35.5186V36.959C64.9131 39.6771 64.5306 42.1185 63.7656 44.2832C63.0169 46.4316 61.9508 48.2708 60.5674 49.8008C59.1839 51.3145 57.5482 52.4782 55.6602 53.292C53.7721 54.0895 51.6888 54.4883 49.4102 54.4883C47.1152 54.4883 45.0156 54.0895 43.1113 53.292C41.2233 52.4782 39.5794 51.3145 38.1797 49.8008C36.7962 48.2708 35.722 46.4316 34.957 44.2832C34.2083 42.1185 33.834 39.6771 33.834 36.959V35.5186C33.834 32.8005 34.2083 30.359 34.957 28.1943C35.722 26.0296 36.7881 24.1904 38.1553 22.6768C39.5387 21.1468 41.1745 19.9831 43.0625 19.1855C44.9668 18.3717 47.0664 17.9648 49.3613 17.9648C51.64 17.9648 53.7233 18.3717 55.6113 19.1855C57.5156 19.9831 59.1595 21.1468 60.543 22.6768C61.9264 24.1904 63.0007 26.0296 63.7656 28.1943C64.5306 30.359 64.9131 32.8005 64.9131 35.5186ZM56.2217 36.959V35.4697C56.2217 33.7119 56.0671 32.1657 55.7578 30.8311C55.4648 29.4801 55.0254 28.349 54.4395 27.4375C53.8535 26.526 53.1292 25.8424 52.2666 25.3867C51.4202 24.9147 50.4518 24.6787 49.3613 24.6787C48.222 24.6787 47.2292 24.9147 46.3828 25.3867C45.5365 25.8424 44.8285 26.526 44.2588 27.4375C43.6891 28.349 43.2578 29.4801 42.9648 30.8311C42.6882 32.1657 42.5498 33.7119 42.5498 35.4697V36.959C42.5498 38.7005 42.6882 40.2467 42.9648 41.5977C43.2578 42.9323 43.6891 44.0635 44.2588 44.9912C44.8447 45.9189 45.5609 46.6188 46.4072 47.0908C47.2699 47.5628 48.2708 47.7988 49.4102 47.7988C50.5007 47.7988 51.4691 47.5628 52.3154 47.0908C53.1618 46.6188 53.8698 45.9189 54.4395 44.9912C55.0254 44.0635 55.4648 42.9323 55.7578 41.5977C56.0671 40.2467 56.2217 38.7005 56.2217 36.959ZM78.4629 18.4531V54H69.918V18.4531H78.4629ZM114.181 18.4531V54H105.636L93.0625 31.8809V54H84.4932V18.4531H93.0625L105.636 40.5723V18.4531H114.181ZM147.799 18.4531V54H139.229V18.4531H147.799ZM158.492 18.4531V25.0693H128.78V18.4531H158.492ZM186.08 32.5645V39.1562H167.843V32.5645H186.08ZM170.699 18.4531V54H162.13V18.4531H170.699ZM191.842 18.4531V54H183.297V18.4531H191.842ZM221.749 47.4082V54H202.804V47.4082H221.749ZM205.855 18.4531V54H197.286V18.4531H205.855ZM219.308 32.5645V38.9365H202.804V32.5645H219.308ZM221.822 18.4531V25.0693H202.804V18.4531H221.822ZM252.218 38.8877H243.062L243.014 33.2725H250.436C251.77 33.2725 252.836 33.126 253.634 32.833C254.431 32.5238 255.009 32.0762 255.367 31.4902C255.742 30.9043 255.929 30.1719 255.929 29.293C255.929 28.2839 255.742 27.4701 255.367 26.8516C254.993 26.2331 254.399 25.7855 253.585 25.5088C252.787 25.2158 251.754 25.0693 250.484 25.0693H246.285V54H237.716V18.4531H250.484C252.682 18.4531 254.643 18.6566 256.368 19.0635C258.093 19.4541 259.558 20.0563 260.763 20.8701C261.983 21.6839 262.911 22.7093 263.546 23.9463C264.181 25.167 264.498 26.6074 264.498 28.2676C264.498 29.7161 264.189 31.0752 263.57 32.3447C262.952 33.6143 261.918 34.6478 260.47 35.4453C259.037 36.2266 257.076 36.6335 254.586 36.666L252.218 38.8877ZM251.876 54H240.987L243.917 47.4082H251.876C253.048 47.4082 253.984 47.2292 254.684 46.8711C255.4 46.4967 255.912 46.0085 256.222 45.4062C256.547 44.7878 256.71 44.1042 256.71 43.3555C256.71 42.444 256.555 41.6546 256.246 40.9873C255.953 40.32 255.481 39.8073 254.83 39.4492C254.179 39.0749 253.308 38.8877 252.218 38.8877H245.016L245.064 33.2725H253.683L255.685 35.5186C258.061 35.4209 259.941 35.7546 261.324 36.5195C262.724 37.2845 263.725 38.2936 264.327 39.5469C264.929 40.8001 265.23 42.1104 265.23 43.4775C265.23 45.805 264.726 47.75 263.717 49.3125C262.724 50.875 261.235 52.0469 259.249 52.8281C257.263 53.6094 254.806 54 251.876 54ZM269.991 18.4531H283.98C286.715 18.4531 289.091 18.86 291.109 19.6738C293.128 20.4876 294.682 21.6921 295.772 23.2871C296.879 24.8822 297.433 26.8516 297.433 29.1953C297.433 31.2298 297.115 32.9307 296.48 34.2979C295.846 35.665 294.959 36.7962 293.819 37.6914C292.696 38.5703 291.386 39.2946 289.889 39.8643L287.081 41.4512H275.338L275.289 34.835H283.98C285.071 34.835 285.974 34.6396 286.69 34.249C287.407 33.8584 287.944 33.305 288.302 32.5889C288.676 31.8564 288.863 30.9857 288.863 29.9766C288.863 28.9512 288.676 28.0723 288.302 27.3398C287.927 26.6074 287.374 26.0459 286.642 25.6553C285.925 25.2646 285.038 25.0693 283.98 25.0693H278.561V54H269.991V18.4531ZM289.449 54L281.588 38.2773L290.67 38.2285L298.629 53.6338V54H289.449ZM332.687 35.5186V36.959C332.687 39.6771 332.304 42.1185 331.539 44.2832C330.79 46.4316 329.724 48.2708 328.341 49.8008C326.957 51.3145 325.322 52.4782 323.434 53.292C321.546 54.0895 319.462 54.4883 317.184 54.4883C314.889 54.4883 312.789 54.0895 310.885 53.292C308.997 52.4782 307.353 51.3145 305.953 49.8008C304.57 48.2708 303.495 46.4316 302.73 44.2832C301.982 42.1185 301.607 39.6771 301.607 36.959V35.5186C301.607 32.8005 301.982 30.359 302.73 28.1943C303.495 26.0296 304.562 24.1904 305.929 22.6768C307.312 21.1468 308.948 19.9831 310.836 19.1855C312.74 18.3717 314.84 17.9648 317.135 17.9648C319.413 17.9648 321.497 18.3717 323.385 19.1855C325.289 19.9831 326.933 21.1468 328.316 22.6768C329.7 24.1904 330.774 26.0296 331.539 28.1943C332.304 30.359 332.687 32.8005 332.687 35.5186ZM323.995 36.959V35.4697C323.995 33.7119 323.84 32.1657 323.531 30.8311C323.238 29.4801 322.799 28.349 322.213 27.4375C321.627 26.526 320.903 25.8424 320.04 25.3867C319.194 24.9147 318.225 24.6787 317.135 24.6787C315.995 24.6787 315.003 24.9147 314.156 25.3867C313.31 25.8424 312.602 26.526 312.032 27.4375C311.463 28.349 311.031 29.4801 310.738 30.8311C310.462 32.1657 310.323 33.7119 310.323 35.4697V36.959C310.323 38.7005 310.462 40.2467 310.738 41.5977C311.031 42.9323 311.463 44.0635 312.032 44.9912C312.618 45.9189 313.334 46.6188 314.181 47.0908C315.043 47.5628 316.044 47.7988 317.184 47.7988C318.274 47.7988 319.243 47.5628 320.089 47.0908C320.935 46.6188 321.643 45.9189 322.213 44.9912C322.799 44.0635 323.238 42.9323 323.531 41.5977C323.84 40.2467 323.995 38.7005 323.995 36.959ZM352.242 18.4531V54H343.673V18.4531H352.242ZM362.936 18.4531V25.0693H333.224V18.4531H362.936ZM390.523 32.5645V39.1562H372.286V32.5645H390.523ZM375.143 18.4531V54H366.573V18.4531H375.143ZM396.285 18.4531V54H387.74V18.4531H396.285ZM426.192 47.4082V54H407.247V47.4082H426.192ZM410.299 18.4531V54H401.729V18.4531H410.299ZM423.751 32.5645V38.9365H407.247V32.5645H423.751ZM426.266 18.4531V25.0693H407.247V18.4531H426.266ZM429.708 18.4531H443.697C446.432 18.4531 448.808 18.86 450.826 19.6738C452.844 20.4876 454.399 21.6921 455.489 23.2871C456.596 24.8822 457.149 26.8516 457.149 29.1953C457.149 31.2298 456.832 32.9307 456.197 34.2979C455.562 35.665 454.675 36.7962 453.536 37.6914C452.413 38.5703 451.103 39.2946 449.605 39.8643L446.798 41.4512H435.055L435.006 34.835H443.697C444.788 34.835 445.691 34.6396 446.407 34.249C447.123 33.8584 447.66 33.305 448.019 32.5889C448.393 31.8564 448.58 30.9857 448.58 29.9766C448.58 28.9512 448.393 28.0723 448.019 27.3398C447.644 26.6074 447.091 26.0459 446.358 25.6553C445.642 25.2646 444.755 25.0693 443.697 25.0693H438.277V54H429.708V18.4531ZM449.166 54L441.305 38.2773L450.387 38.2285L458.346 53.6338V54H449.166ZM486.275 32.5645V39.1562H468.038V32.5645H486.275ZM470.895 18.4531V54H462.325V18.4531H470.895ZM492.037 18.4531V54H483.492V18.4531H492.037ZM527.56 35.5186V36.959C527.56 39.6771 527.177 42.1185 526.412 44.2832C525.663 46.4316 524.597 48.2708 523.214 49.8008C521.83 51.3145 520.195 52.4782 518.307 53.292C516.419 54.0895 514.335 54.4883 512.057 54.4883C509.762 54.4883 507.662 54.0895 505.758 53.292C503.87 52.4782 502.226 51.3145 500.826 49.8008C499.443 48.2708 498.368 46.4316 497.604 44.2832C496.855 42.1185 496.48 39.6771 496.48 36.959V35.5186C496.48 32.8005 496.855 30.359 497.604 28.1943C498.368 26.0296 499.435 24.1904 500.802 22.6768C502.185 21.1468 503.821 19.9831 505.709 19.1855C507.613 18.3717 509.713 17.9648 512.008 17.9648C514.286 17.9648 516.37 18.3717 518.258 19.1855C520.162 19.9831 521.806 21.1468 523.189 22.6768C524.573 24.1904 525.647 26.0296 526.412 28.1943C527.177 30.359 527.56 32.8005 527.56 35.5186ZM518.868 36.959V35.4697C518.868 33.7119 518.714 32.1657 518.404 30.8311C518.111 29.4801 517.672 28.349 517.086 27.4375C516.5 26.526 515.776 25.8424 514.913 25.3867C514.067 24.9147 513.098 24.6787 512.008 24.6787C510.868 24.6787 509.876 24.9147 509.029 25.3867C508.183 25.8424 507.475 26.526 506.905 27.4375C506.336 28.349 505.904 29.4801 505.611 30.8311C505.335 32.1657 505.196 33.7119 505.196 35.4697V36.959C505.196 38.7005 505.335 40.2467 505.611 41.5977C505.904 42.9323 506.336 44.0635 506.905 44.9912C507.491 45.9189 508.207 46.6188 509.054 47.0908C509.916 47.5628 510.917 47.7988 512.057 47.7988C513.147 47.7988 514.116 47.5628 514.962 47.0908C515.808 46.6188 516.516 45.9189 517.086 44.9912C517.672 44.0635 518.111 42.9323 518.404 41.5977C518.714 40.2467 518.868 38.7005 518.868 36.959ZM562.081 35.5186V36.959C562.081 39.6771 561.699 42.1185 560.934 44.2832C560.185 46.4316 559.119 48.2708 557.735 49.8008C556.352 51.3145 554.716 52.4782 552.828 53.292C550.94 54.0895 548.857 54.4883 546.578 54.4883C544.283 54.4883 542.184 54.0895 540.279 53.292C538.391 52.4782 536.747 51.3145 535.348 49.8008C533.964 48.2708 532.89 46.4316 532.125 44.2832C531.376 42.1185 531.002 39.6771 531.002 36.959V35.5186C531.002 32.8005 531.376 30.359 532.125 28.1943C532.89 26.0296 533.956 24.1904 535.323 22.6768C536.707 21.1468 538.342 19.9831 540.23 19.1855C542.135 18.3717 544.234 17.9648 546.529 17.9648C548.808 17.9648 550.891 18.3717 552.779 19.1855C554.684 19.9831 556.327 21.1468 557.711 22.6768C559.094 24.1904 560.169 26.0296 560.934 28.1943C561.699 30.359 562.081 32.8005 562.081 35.5186ZM553.39 36.959V35.4697C553.39 33.7119 553.235 32.1657 552.926 30.8311C552.633 29.4801 552.193 28.349 551.607 27.4375C551.021 26.526 550.297 25.8424 549.435 25.3867C548.588 24.9147 547.62 24.6787 546.529 24.6787C545.39 24.6787 544.397 24.9147 543.551 25.3867C542.704 25.8424 541.996 26.526 541.427 27.4375C540.857 28.349 540.426 29.4801 540.133 30.8311C539.856 32.1657 539.718 33.7119 539.718 35.4697V36.959C539.718 38.7005 539.856 40.2467 540.133 41.5977C540.426 42.9323 540.857 44.0635 541.427 44.9912C542.013 45.9189 542.729 46.6188 543.575 47.0908C544.438 47.5628 545.439 47.7988 546.578 47.7988C547.669 47.7988 548.637 47.5628 549.483 47.0908C550.33 46.6188 551.038 45.9189 551.607 44.9912C552.193 44.0635 552.633 42.9323 552.926 41.5977C553.235 40.2467 553.39 38.7005 553.39 36.959ZM578.072 54H570.187L570.235 47.4082H578.072C579.7 47.4082 581.075 47.0176 582.198 46.2363C583.338 45.4551 584.2 44.2913 584.786 42.7451C585.388 41.1826 585.689 39.262 585.689 36.9834V35.4453C585.689 33.7363 585.519 32.2389 585.177 30.9531C584.851 29.651 584.363 28.5687 583.712 27.7061C583.061 26.8271 582.247 26.168 581.271 25.7285C580.31 25.2891 579.203 25.0693 577.95 25.0693H570.04V18.4531H577.95C580.359 18.4531 582.564 18.8682 584.566 19.6982C586.585 20.512 588.326 21.6839 589.791 23.2139C591.272 24.7275 592.411 26.526 593.209 28.6094C594.023 30.6764 594.43 32.9714 594.43 35.4941V36.9834C594.43 39.4899 594.023 41.7848 593.209 43.8682C592.411 45.9515 591.28 47.75 589.815 49.2637C588.351 50.7773 586.617 51.9492 584.615 52.7793C582.63 53.5931 580.449 54 578.072 54ZM575.094 18.4531V54H566.524V18.4531H575.094ZM599.068 50.1426C599.068 48.9707 599.492 47.9941 600.338 47.2129C601.184 46.4154 602.275 46.0166 603.609 46.0166C604.96 46.0166 606.051 46.4154 606.881 47.2129C607.727 47.9941 608.15 48.9707 608.15 50.1426C608.15 51.3145 607.727 52.2992 606.881 53.0967C606.051 53.8779 604.96 54.2686 603.609 54.2686C602.275 54.2686 601.184 53.8779 600.338 53.0967C599.492 52.2992 599.068 51.3145 599.068 50.1426ZM599.068 30.6602C599.068 29.4883 599.492 28.5117 600.338 27.7305C601.184 26.9329 602.275 26.5342 603.609 26.5342C604.96 26.5342 606.051 26.9329 606.881 27.7305C607.727 28.5117 608.15 29.4883 608.15 30.6602C608.15 31.832 607.727 32.8167 606.881 33.6143C606.051 34.3955 604.96 34.7861 603.609 34.7861C602.275 34.7861 601.184 34.3955 600.338 33.6143C599.492 32.8167 599.068 31.832 599.068 30.6602Z" fill="#D232EA"/>
<path d="M15.5665 23.4421C15.7279 23.421 15.8835 23.3674 16.024 23.2845C16.1645 23.2017 16.287 23.0912 16.3844 22.9598C16.4817 22.8283 16.5518 22.6785 16.5906 22.5192C16.6294 22.3599 16.6361 22.1943 16.6102 22.0324C16.526 21.3288 16.4834 20.6208 16.4825 19.9122C16.4694 19.5091 16.5124 19.1061 16.6102 18.715C17.1113 18.686 17.6136 18.686 18.1146 18.715C21.9063 18.715 25.7257 18.8549 29.5118 18.6871C29.5878 18.6734 29.6576 18.6362 29.7117 18.5808C30.933 18.6311 30.9219 23.2967 30.9885 24.0519C31.0513 25.1564 31.4377 26.2174 32.0988 27.1007C33.0925 28.4153 34.4582 28.0181 35.3853 26.8825C37.1395 24.7288 36.2457 19.5038 40.0985 19.6101C41.4752 19.6548 42.8131 20.259 44.1399 20.5779C44.7655 20.7669 45.4254 20.8112 46.0703 20.7076C46.7153 20.604 47.3287 20.355 47.865 19.9793C48.6866 19.4199 49.4249 18.7989 50.4575 18.7654C50.8122 18.7625 51.1586 18.8737 51.4462 19.083C51.7338 19.2923 51.9475 19.5887 52.0563 19.929C52.6115 21.2324 52.8002 23.1904 54.3324 23.7666C55.7702 24.326 57.2136 22.3289 57.9631 21.417C58.6617 20.5284 59.5476 19.8074 60.5567 19.3062C61.5658 18.8051 62.6728 18.5362 63.7977 18.5192C63.8542 18.5137 63.908 18.4924 63.9531 18.4577C64.3488 18.5279 64.7513 18.5504 65.1522 18.5248C65.7795 18.5248 66.4124 18.5248 67.0397 18.5248L70.5261 18.4913L74.0068 18.4577C75.267 18.4577 76.555 18.5192 77.8096 18.4073H77.8707C78.5938 19.2044 79.4146 19.9056 80.3133 20.494C81.4223 21.1106 82.6719 21.4249 83.9384 21.4058C86.2589 21.5009 88.0798 20.3317 90.045 19.28C90.8833 20.7233 91.6216 22.3568 93.548 22.1722C93.9124 22.13 94.2632 22.008 94.5758 21.8147C94.8884 21.6214 95.1553 21.3616 95.3578 21.0534C95.5652 20.7522 95.7508 20.4362 95.9129 20.108C96.1416 19.7303 96.4016 19.3729 96.6901 19.0395C97.3699 19.1197 98.0555 19.1384 98.7386 19.0954H101.198C102.852 19.1655 104.51 19.1374 106.161 19.0115C107.826 19.0115 108.809 20.052 109.664 21.3834C110.152 22.1499 110.852 23.8449 111.946 23.8281C112.8 23.8281 113.361 22.7093 113.705 22.0827C114.261 21.0814 114.594 19.845 115.371 18.9891C117.15 18.7702 118.947 18.7327 120.734 18.8773C122.711 18.9593 124.692 18.9407 126.668 18.8213C128.939 18.6712 131.217 18.6526 133.491 18.7654C135.556 18.8996 137.566 19.0451 139.597 18.564H139.653C140.717 19.0878 141.596 19.9298 142.168 20.9751C142.56 21.8762 142.867 22.8127 143.084 23.7722C143.273 24.5993 143.77 25.3218 144.472 25.7917C144.825 25.9608 145.219 26.0228 145.606 25.9702C145.994 25.9175 146.357 25.7525 146.653 25.4952C147.338 24.8569 147.903 24.0988 148.319 23.2575C148.543 22.8558 148.811 22.4806 149.118 22.1387C149.718 21.5177 150.661 21.3779 151.472 21.2995C152.76 21.1765 153.781 21.031 154.842 20.2422C155.902 19.4535 156.879 18.6479 158.311 18.5248C158.367 18.5148 158.419 18.4896 158.461 18.4521C161.021 18.6311 163.608 18.5584 166.172 18.5584H170.058C171.306 18.6472 172.559 18.6153 173.8 18.4633C175.221 18.7374 176.537 19.5038 177.825 20.1415C179.024 20.7401 180.295 21.5121 181.666 21.0926C183.038 20.673 184.048 19.2129 185.552 19.5765C186.108 19.7164 186.502 20.2031 186.99 20.4884C187.232 20.6015 187.495 20.6601 187.762 20.6601C188.029 20.6601 188.292 20.6015 188.534 20.4884C189.089 20.287 189.483 19.8171 189.999 19.5709C190.29 19.4074 190.619 19.3254 190.952 19.3332C191.285 19.3411 191.609 19.4386 191.892 19.6157C192.658 20.2199 192.858 21.3275 193.635 21.9652C193.997 22.2947 194.467 22.4771 194.954 22.4771C195.441 22.4771 195.911 22.2947 196.272 21.9652C197.077 21.238 197.383 20.0408 197.899 19.0954C201.535 19.3136 205.199 19.2073 208.841 19.2073H214.798C216.557 19.2073 218.328 19.2465 220.088 19.0898C223.325 20.8968 222.831 25.7357 226.195 27.386C226.868 27.7147 227.612 27.8708 228.359 27.8406C229.107 27.8103 229.835 27.5946 230.48 27.2126C231.496 26.5357 231.868 25.2714 231.968 24.119C232.218 21.1932 230.963 17.6353 229.126 15.3809C226.35 11.9573 221.282 10.8384 217.146 10.2958C214.82 10.0107 212.475 9.91713 210.134 10.0161C207.187 10.1112 204.389 10.8552 201.485 11.2748C198.226 11.7503 195.412 10.7545 192.359 9.78671C189.405 8.85248 186.491 8.94199 183.476 9.31121C181.985 9.5678 180.476 9.70807 178.963 9.73077C177.456 9.65504 175.973 9.31425 174.583 8.72382C171.94 7.63295 169.736 5.73093 167.327 4.24847C162.458 1.19965 156.985 -0.545739 151.228 0.153533C145.471 0.852806 140.724 4.01911 135.967 7.12948C133.419 8.80773 130.499 10.486 127.356 10.251C124.625 10.0273 122.227 8.21475 119.868 6.98962C114.71 4.3156 109.037 5.78687 103.84 7.54904C101.309 8.41614 98.6609 9.18254 96.2127 10.251C93.4925 11.4314 91.0831 13.2719 88.1853 14.0271C85.1764 14.8103 82.0453 13.4117 79.3029 12.3488C76.566 11.3587 73.8791 10.5755 71.0146 10.6482C68.5053 10.7209 66.1404 11.7055 63.8365 12.6118C62.3536 13.2775 60.7468 13.617 59.1233 13.6075C57.6759 13.4687 56.2491 13.1628 54.8709 12.6957C48.5533 10.9391 41.8916 11.9461 35.4852 12.058C32.804 12.1619 30.1206 11.9155 27.5022 11.3251C25.6091 10.872 23.7105 10.2846 21.7398 10.3349C18.964 10.4021 16.9266 12.2314 15.4222 14.4075C15.3941 14.4302 15.3714 14.4588 15.3556 14.4914C14.8244 15.6745 14.4869 16.9365 14.3563 18.2283C14.2286 19.3807 13.9122 20.5723 14.0232 21.7303C14.0787 22.5806 14.6339 23.4757 15.5665 23.4421Z" fill="url(#paint0_radial_99_2)"/>
<path d="M15.393 14.9093C14.9052 15.8763 14.5803 16.9068 14.4298 17.965C14.3728 18.3713 14.3329 18.7777 14.2873 19.1893C14.2417 19.601 14.1335 19.9968 14.0765 20.4084C13.9454 21.2686 13.8998 22.3347 14.6464 22.9996C14.7773 23.1284 14.939 23.227 15.1185 23.2874C15.298 23.3478 15.4904 23.3682 15.68 23.3472C15.8697 23.3261 16.0513 23.2641 16.2103 23.1662C16.3694 23.0682 16.5013 22.9371 16.5956 22.7832C16.7638 22.3718 16.7936 21.9229 16.6811 21.4956C16.6174 20.8817 16.5965 20.2648 16.6184 19.6485C16.6174 19.3962 16.648 19.1448 16.7096 18.8991C16.7096 18.841 16.7096 18.8991 16.7096 18.8991V18.841C16.7381 18.7671 16.7096 18.8727 16.7096 18.841C16.7096 18.8094 16.6583 18.8885 16.7096 18.841L16.6526 18.8832H16.607H16.5671H16.9091C17.9977 18.8832 19.0806 18.8832 20.1692 18.8832H28.8893C29.2484 18.8832 29.6131 18.8832 29.9722 18.8832C30.0521 18.8758 30.1284 18.8489 30.1934 18.8053C30.2585 18.7618 30.31 18.7031 30.3427 18.6352C30.3997 18.5297 30.394 18.3819 30.2344 18.3766C28.8209 18.3133 27.3847 18.3766 25.9769 18.3449H17.4733C17.2367 18.3186 16.9975 18.3186 16.7609 18.3449C16.6096 18.3959 16.474 18.4802 16.3658 18.5905C16.2575 18.7008 16.1799 18.8339 16.1397 18.9782C15.9755 19.5328 15.9214 20.1104 15.9801 20.6828C15.9801 21.2106 16.0371 21.7014 16.0998 22.208C16.1369 22.368 16.1369 22.5335 16.0998 22.6935L16.0656 22.7674C16.0656 22.7357 16.0656 22.7674 16.0656 22.7674C16.0572 22.7805 16.0455 22.7914 16.0314 22.7991C16.0998 22.741 16.0314 22.7991 16.0314 22.7991C16.0314 22.7991 16.0314 22.7991 15.9801 22.7991C15.9288 22.7991 15.9345 22.7991 15.9174 22.7991H15.8718C15.8018 22.8072 15.7309 22.8072 15.6609 22.7991C14.7832 22.6196 14.5723 21.6328 14.5837 20.9309C14.6032 20.4838 14.6623 20.039 14.7604 19.601C14.8344 19.2186 14.8858 18.8328 14.9143 18.4452C14.9733 17.5427 15.1396 16.6489 15.4101 15.7801C15.5056 15.4846 15.6178 15.1939 15.7464 14.9093C15.7806 14.8302 15.7806 14.7352 15.6666 14.7246C15.5526 14.7141 15.4386 14.8249 15.393 14.9093Z" fill="black"/>
<path d="M29.9744 18.8154C30.0434 18.8026 30.1146 18.8057 30.1822 18.8245C30.2498 18.8433 30.3122 18.8774 30.3643 18.924C30.5071 19.0646 30.616 19.2354 30.6828 19.4234C30.9002 19.9957 31.0369 20.5949 31.0892 21.204C31.1771 21.9152 31.232 22.6317 31.2869 23.3755C31.3141 23.9484 31.3746 24.5194 31.4681 25.0855C31.6701 25.9298 32.0902 26.7079 32.6873 27.3438C33.0029 27.6823 33.4366 27.8899 33.901 27.9247C34.1779 27.913 34.4494 27.8453 34.6988 27.7258C34.9481 27.6063 35.1701 27.4375 35.3508 27.2298C35.7365 26.858 36.0509 26.4203 36.2789 25.9378C36.4753 25.4713 36.6278 24.9879 36.7347 24.4938C36.8501 23.9998 36.9434 23.4949 37.0697 23.0009C37.2023 22.5109 37.3864 22.0361 37.6189 21.584C37.8098 21.1822 38.0679 20.8152 38.3823 20.4983C38.6193 20.2567 38.9084 20.0712 39.228 19.9554C39.9364 19.7653 40.6833 19.7653 41.3918 19.9554C42.232 20.1346 43.0393 20.4114 43.885 20.6286C44.7644 20.9398 45.71 21.022 46.6309 20.8674C47.4646 20.5589 48.2433 20.1209 48.9375 19.57C49.2642 19.3164 49.6466 19.1421 50.0538 19.061C50.4611 18.98 50.8819 18.9944 51.2824 19.1031C51.5634 19.2469 51.808 19.4514 51.9981 19.7014C52.1882 19.9514 52.319 20.2404 52.3808 20.5471C52.4906 20.8837 52.584 21.2257 52.7048 21.5569C52.8318 21.9065 52.9899 22.2444 53.1771 22.5666C53.6109 23.3483 54.2755 24.0866 55.275 23.864C56.1536 23.6686 56.8676 22.9249 57.4442 22.2843C57.7572 21.9369 58.0428 21.5677 58.3613 21.2311C58.6771 20.8981 59.0166 20.5879 59.3773 20.3028C60.1862 19.6555 61.1293 19.1922 62.1397 18.9457C62.6791 18.8183 63.2326 18.7581 63.7872 18.7665C63.8595 18.7599 63.9288 18.7343 63.9877 18.6923C64.0466 18.6503 64.093 18.5934 64.1222 18.5277C64.1716 18.4245 64.1661 18.2834 64.0288 18.278C62.9478 18.2953 61.8818 18.5306 60.896 18.9693C59.9102 19.408 59.0253 20.041 58.2954 20.8294C57.6419 21.4863 57.1037 22.2572 56.3898 22.8543C55.8406 23.3212 55.1047 23.6849 54.4402 23.1855C54.0554 22.8545 53.7449 22.4477 53.5286 21.9912C53.3603 21.6722 53.2242 21.3376 53.1222 20.9923C52.977 20.3296 52.7109 19.6986 52.3369 19.1303C52.0718 18.8574 51.7356 18.6623 51.3653 18.5665C50.9951 18.4707 50.6053 18.4779 50.239 18.5874C49.3668 18.8754 48.5553 19.3188 47.8446 19.8957C47.5128 20.1377 47.1412 20.3214 46.7462 20.4386C46.2884 20.5362 45.8147 20.5362 45.3568 20.4386C44.4973 20.27 43.6483 20.0525 42.8141 19.7871C42.0485 19.5377 41.2523 19.3916 40.4472 19.3528C39.643 19.3396 38.8616 19.6177 38.2505 20.1346C37.5142 20.8318 36.9796 21.7108 36.7018 22.6806C36.3833 23.6469 36.2899 24.6675 35.9604 25.6284C35.8235 26.0645 35.5931 26.4663 35.2849 26.8064C34.9444 27.1647 34.593 27.523 34.0493 27.447C33.5871 27.3406 33.1818 27.0677 32.9125 26.6815C32.554 26.2304 32.2805 25.7192 32.1052 25.1723C32.0273 24.9686 31.9702 24.7576 31.9349 24.5426C31.891 24.2712 31.8635 23.9998 31.8416 23.7229C31.7812 23.0335 31.7317 22.3386 31.6603 21.6491C31.6026 20.964 31.4869 20.2848 31.3144 19.6188C31.199 19.2117 31.0178 18.6362 30.573 18.4734C30.3908 18.4252 30.1974 18.4385 30.0238 18.5114C29.903 18.5602 29.7547 18.8697 29.9854 18.8154H29.9744Z" fill="black"/>
<path d="M77.9696 18.5877C78.301 18.8889 78.6156 19.1949 78.9751 19.4714C79.3026 19.7309 79.6457 19.9748 80.0031 20.202C80.7238 20.6683 81.549 20.9947 82.4241 21.1597C82.9452 21.2453 83.4728 21.2965 84.0026 21.3127C84.4822 21.3358 84.9632 21.3243 85.4406 21.2782C86.2349 21.1937 87.0075 20.9935 87.7269 20.6858C88.6706 20.2909 89.5694 19.8219 90.4962 19.4023C90.5678 19.3731 90.6297 19.3283 90.6759 19.2721C90.7221 19.2159 90.7512 19.1503 90.7602 19.0814C90.7602 18.9481 90.5973 18.9432 90.485 18.9876C89.002 19.6195 87.6145 20.5278 85.9518 20.7746C85.0005 20.903 84.0326 20.903 83.0813 20.7746C82.2166 20.6521 81.3913 20.3694 80.6603 19.9453C80.2671 19.7139 79.8918 19.4599 79.5368 19.185C79.138 18.8839 78.7335 18.5927 78.3235 18.3014C78.1774 18.1977 77.8685 18.4643 77.9977 18.5877H77.9696Z" fill="black"/>
<path d="M90.2615 18.7446C90.5983 19.3068 90.903 19.914 91.2559 20.4818C91.5512 21.0215 92.0052 21.4457 92.5496 21.6905C93.2177 21.9223 93.9457 21.8677 94.5757 21.5387C95.0842 21.2239 95.4933 20.7585 95.7519 20.2007C95.9015 19.914 96.0405 19.6385 96.2116 19.3462C96.2952 19.2099 96.3881 19.0803 96.4896 18.9583C96.6338 18.8083 96.7645 18.6446 96.8799 18.4692C96.9333 18.3736 96.8799 18.2499 96.7622 18.2836C96.4516 18.4313 96.1907 18.6743 96.0138 18.9807C95.8427 19.2263 95.6873 19.4836 95.5487 19.751C95.4311 19.9814 95.3135 20.2288 95.1852 20.4368C95.0735 20.6512 94.9249 20.8419 94.7468 20.999C94.4957 21.1678 94.2137 21.2794 93.9191 21.3269C93.6245 21.3743 93.3237 21.3565 93.0361 21.2745C92.5032 21.0899 92.0466 20.7188 91.7424 20.2232C91.3988 19.6127 91.0147 19.0285 90.593 18.4748C90.4807 18.3455 90.1813 18.6322 90.2615 18.7727V18.7446Z" fill="black"/>
<path d="M96.4389 18.7017C96.7164 18.7798 97.0065 18.8037 97.2931 18.7722H104.774C105.138 18.7667 105.502 18.7396 105.862 18.6909C105.987 18.6909 106.249 18.3927 106.026 18.3656C105.733 18.3244 105.439 18.2991 105.144 18.2897H97.6794C97.3244 18.2618 96.9673 18.2837 96.6184 18.3547C96.5259 18.3873 96.2702 18.6204 96.4552 18.6963L96.4389 18.7017Z" fill="black"/>
<path d="M105.646 18.739C106.257 18.7103 106.865 18.8335 107.415 19.0974C107.904 19.3627 108.331 19.7247 108.672 20.1607C109.445 21.0986 110.001 22.1978 110.75 23.1477C110.972 23.4848 111.308 23.7327 111.698 23.8466C111.876 23.876 112.059 23.8655 112.232 23.8159C112.406 23.7663 112.566 23.6788 112.701 23.5599C113.375 22.9206 113.897 22.1412 114.229 21.2779C114.476 20.7701 114.712 20.2623 114.978 19.7605C115.084 19.5546 115.203 19.3551 115.334 19.1631C115.394 19.0675 115.455 18.9839 115.521 18.8943L115.582 18.8226L115.696 18.7091C115.781 18.6254 115.902 18.4403 115.793 18.3268C115.684 18.2132 115.485 18.3268 115.407 18.4223C114.807 19.1208 114.327 19.9119 113.987 20.7641C113.776 21.2002 113.57 21.6423 113.335 22.0664C113.24 22.2472 113.135 22.4227 113.021 22.5921L112.852 22.843L112.767 22.9446C112.767 22.9446 112.701 23.0222 112.767 22.9804C112.833 22.9386 112.767 22.9804 112.731 23.0163L112.646 23.1059C112.646 23.1059 112.519 23.2134 112.604 23.1477L112.525 23.2074L112.471 23.2433L112.387 23.2851C112.32 23.2851 112.435 23.2851 112.387 23.2851H112.338H112.29H112.169C112.115 23.2856 112.061 23.2733 112.012 23.2492C111.94 23.2239 111.871 23.1898 111.807 23.1477C111.629 23.0278 111.472 22.8805 111.342 22.7116C110.574 21.7856 110.031 20.7044 109.276 19.7724C108.905 19.2799 108.431 18.8724 107.887 18.5777C107.24 18.2862 106.517 18.2047 105.821 18.3447C105.694 18.3447 105.477 18.7031 105.694 18.6971L105.646 18.739Z" fill="black"/>
<path d="M115.456 18.7813C116.089 18.7235 116.73 18.6862 117.374 18.6694C118.112 18.6531 118.856 18.6694 119.611 18.6694C121.059 18.6994 122.508 18.7676 123.956 18.7431C127.474 18.6885 130.997 18.5221 134.515 18.6722C136.361 18.7802 138.232 18.7388 140.051 18.5494C140.133 18.5385 140.207 18.5175 140.267 18.4883C140.327 18.4591 140.37 18.4228 140.392 18.383C140.426 18.3121 140.336 18.263 140.185 18.2821C138.558 18.4526 136.889 18.5041 135.23 18.4349C133.441 18.383 131.657 18.3612 129.867 18.3858C128.078 18.4103 126.355 18.4621 124.599 18.4976C123.145 18.5276 121.697 18.4758 120.243 18.4403C119.404 18.4212 118.565 18.4076 117.726 18.4403C116.964 18.4397 116.207 18.5034 115.489 18.6285C115.366 18.6531 115.21 18.8031 115.45 18.784L115.456 18.7813Z" fill="black"/>
<path d="M139.956 18.6771C140.799 19.0631 141.537 19.6375 142.114 20.3542C142.584 21.0036 142.924 21.7359 143.113 22.5112C143.442 23.6921 143.772 25.4878 145.21 25.8329C146.857 26.2266 147.79 24.625 148.504 23.471C148.696 23.1637 148.883 22.8563 149.102 22.5705C149.281 22.3216 149.509 22.1106 149.772 21.9504C150.672 21.4111 151.792 21.4435 152.813 21.3194C153.336 21.2688 153.846 21.1263 154.318 20.8988C154.731 20.6577 155.124 20.3835 155.492 20.0792C156.126 19.5209 156.875 19.1034 157.688 18.8551C157.95 18.7955 158.216 18.7576 158.484 18.7418C158.553 18.7333 158.617 18.7074 158.672 18.6667C158.727 18.626 158.77 18.572 158.797 18.51C158.836 18.4291 158.841 18.2727 158.704 18.2781C157.749 18.3426 156.83 18.6675 156.052 19.2164C155.701 19.4537 155.372 19.7233 155.031 19.9767C154.659 20.2898 154.231 20.533 153.769 20.6939C152.775 20.9905 151.715 20.8719 150.716 21.1361C149.882 21.3468 149.151 21.8442 148.658 22.5381C148.218 23.1421 147.878 23.8054 147.439 24.4039C147.297 24.6682 147.095 24.8966 146.848 25.0715C146.601 25.2464 146.317 25.3631 146.017 25.4123C144.425 25.4824 143.98 23.6921 143.656 22.5058C143.478 21.7722 143.193 21.0676 142.811 20.4135C142.341 19.6648 141.678 19.051 140.889 18.634C140.67 18.5154 140.445 18.4129 140.22 18.3158C139.994 18.2188 139.769 18.5801 139.956 18.6717V18.6771Z" fill="black"/>
<path d="M174.243 18.6283C175.321 18.8654 176.357 19.2396 177.324 19.7402C178.329 20.239 179.369 20.6749 180.437 21.045C181.437 21.3497 182.409 20.9232 183.238 20.4358C184.067 19.9484 184.995 19.3543 185.983 19.6691C186.373 19.8333 186.732 20.0526 187.049 20.319C187.243 20.4526 187.466 20.548 187.702 20.5995C187.938 20.651 188.183 20.6575 188.421 20.6186C188.897 20.5038 189.337 20.2883 189.706 19.989C190.1 19.725 190.555 19.551 191.035 19.4813C191.374 19.4151 191.728 19.4657 192.029 19.6234C192.292 19.7953 192.508 20.0212 192.661 20.2835C192.976 20.9219 193.443 21.4861 194.028 21.9336C194.415 22.1818 194.87 22.3227 195.34 22.3397C195.77 22.3223 196.177 22.1576 196.483 21.8777C197.147 21.2989 197.46 20.4358 197.861 19.6996C197.954 19.5219 198.048 19.3391 198.157 19.1919C198.212 19.1106 198.278 18.9735 198.157 18.9177C198.037 18.8618 197.877 18.9888 197.817 19.07C197.317 19.7808 197.037 20.5932 196.532 21.3091C196.44 21.4452 196.327 21.5683 196.197 21.6746C196.148 21.7112 196.097 21.7451 196.043 21.7762C195.983 21.8085 195.918 21.8341 195.851 21.8523C195.434 21.9195 195.004 21.8437 194.643 21.6391C194.017 21.2585 193.523 20.719 193.221 20.0854C193.09 19.7957 192.879 19.5436 192.607 19.3552C192.336 19.1668 192.015 19.049 191.678 19.0141C191.182 19.007 190.691 19.1079 190.245 19.3086C189.805 19.4965 189.465 19.8164 189.053 20.0245C188.856 20.1323 188.634 20.1946 188.405 20.2061C188.177 20.2176 187.949 20.1779 187.741 20.0905C187.401 19.8876 187.078 19.6619 186.774 19.4153C186.309 19.1586 185.757 19.07 185.226 19.1665C184.737 19.2581 184.27 19.4301 183.847 19.6742C183.062 20.1058 182.31 20.6896 181.349 20.6896C180.846 20.6546 180.357 20.525 179.91 20.3088C179.361 20.1007 178.867 19.8671 178.345 19.6386C177.313 19.1419 176.236 18.7291 175.127 18.4049C174.907 18.3475 174.684 18.3051 174.457 18.278C174.303 18.278 174.056 18.5927 174.238 18.6181L174.243 18.6283Z" fill="black"/>
<path d="M197.793 18.7028C198.437 18.7391 199.071 18.7805 199.715 18.7857H201.763H206.251C209.302 18.7857 212.352 18.7857 215.397 18.7857C216.934 18.7857 218.475 18.7857 220.006 18.6769C220.122 18.6769 220.353 18.4076 220.149 18.3869C218.833 18.2678 217.512 18.2782 216.19 18.2782H211.697C208.646 18.2782 205.594 18.2782 202.54 18.2782H200.194C199.44 18.2782 198.696 18.3196 197.942 18.361C197.815 18.361 197.595 18.6355 197.793 18.651V18.7028Z" fill="black"/>
<path d="M220.048 19.1619C222.82 20.7064 222.787 24.3046 224.805 26.4703C226.313 28.0987 229.512 28.5968 231.042 26.7221C232.572 24.8474 231.957 22.0158 231.336 20.0069C230.526 17.3264 229.185 15.06 226.823 13.5099C223.674 11.4393 219.776 10.6447 216.084 10.2698C214.182 10.0627 212.269 9.98422 210.357 10.0347C208.118 10.1423 205.893 10.4381 203.704 10.9189C200.981 11.4505 198.437 11.6688 195.737 10.9189C193.558 10.2977 191.473 9.3744 189.206 9.12817C186.655 8.84837 184.094 9.27927 181.566 9.58705C179.211 9.94536 176.804 9.65934 174.597 8.75884C172.329 7.79632 170.372 6.27979 168.343 4.90877C166.436 3.58961 164.39 2.48615 162.244 1.6183C158.082 -0.062482 153.517 -0.444554 149.138 0.521478C144.58 1.55674 140.749 3.99102 136.907 6.5484C134.773 7.97539 132.516 9.44715 129.999 10.0627C127.654 10.6223 125.448 9.96198 123.346 8.87635C121.411 7.86907 119.571 6.59317 117.458 5.9832C115.419 5.44871 113.292 5.34206 111.21 5.66983C106.581 6.29658 102.256 8.26079 97.8431 9.69337C93.2913 11.1707 89.5657 15.0935 84.4595 14.0527C79.8467 13.107 75.8327 10.4041 70.9705 10.6671C66.3688 10.9133 62.4546 14.3493 57.7698 13.4203C55.5521 12.9838 53.4786 12.1948 51.2332 11.9486C48.4483 11.6912 45.6488 11.6351 42.856 11.7807C38.0935 11.9654 33.1315 12.5753 28.4411 11.5177C25.5138 10.8573 22.3037 9.59264 19.3764 10.9301C17.8196 11.7347 16.5087 12.9514 15.5842 14.45C15.4179 14.6962 15.7172 14.7354 15.8503 14.5507C17.0977 12.8104 18.6834 11.2435 20.8401 10.8797C22.4312 10.6167 24.0557 10.9693 25.6025 11.3442C27.1814 11.784 28.7846 12.1297 30.4038 12.3795C32.73 12.5949 35.0692 12.6285 37.4005 12.4802C42.6508 12.2955 48.1784 11.6128 53.3566 12.8272C55.2361 13.2692 57.0712 13.9911 59.0117 14.103C61.2571 14.2318 63.2142 13.3252 65.26 12.5362C67.2594 11.6766 69.4022 11.2076 71.5748 11.1539C74.0343 11.2576 76.4568 11.7955 78.7323 12.7432C80.7338 13.4987 82.7408 14.3549 84.8642 14.6682C86.8377 14.9106 88.8383 14.5643 90.619 13.6721C92.6648 12.7376 94.5443 11.4337 96.6234 10.5943C98.7025 9.75493 100.881 9.10019 102.988 8.35592C107.235 6.85618 111.964 5.2781 116.499 6.30777C120.486 7.21433 123.601 10.7342 127.815 10.7846C132.028 10.835 135.782 7.74036 139.086 5.55791C143.172 2.83823 147.746 0.756511 152.703 0.521478C157.304 0.303232 161.756 1.69664 165.726 3.98542C169.441 6.1231 172.673 9.30165 177.025 10.0851C179.37 10.5104 181.66 10.0291 183.994 9.76612C186.507 9.39264 189.069 9.52963 191.529 10.169C193.563 10.7286 195.526 11.6128 197.627 11.8814C199.934 12.1724 202.223 11.68 204.48 11.2267C208.468 10.4495 212.553 10.3136 216.583 10.8238C220.342 11.277 224.478 12.206 227.477 14.685C229.473 16.3359 230.582 18.8261 231.164 21.3219C231.746 23.8178 231.824 27.4776 228.458 27.4776C224.832 27.4776 224.023 24.1815 222.681 21.5066C222.177 20.3883 221.35 19.4499 220.308 18.8149C220.164 18.7366 219.893 19.0611 220.064 19.1619H220.048Z" fill="black"/>
<path d="M15.5704 14.7916C15.5102 15.0515 15.5273 15.3223 15.6198 15.5734C15.7123 15.8245 15.8765 16.0458 16.0937 16.2123C16.6185 16.538 17.2267 16.7197 17.852 16.7376C19.41 16.8044 20.9704 16.6766 22.4937 16.3574C23.0536 16.2624 23.6136 16.1473 24.1787 16.0723C24.2101 16.0723 24.2677 15.9872 24.2101 15.9822C23.7572 15.9908 23.3065 16.0444 22.8652 16.1423C22.1431 16.2624 21.4209 16.3774 20.6936 16.4625C19.912 16.5684 19.1226 16.6119 18.3335 16.5925C17.6817 16.6053 17.0354 16.4753 16.4444 16.2123C16.1772 16.0721 15.9617 15.8567 15.8269 15.5954C15.6921 15.3341 15.6446 15.0395 15.6908 14.7515C15.6908 14.6865 15.5809 14.7515 15.5757 14.7916H15.5704Z" fill="black"/>
<path d="M29.9215 16.9327C30.5988 17.0104 31.2431 17.2863 31.7836 17.7302C32.2547 18.1567 32.6037 18.7171 32.7901 19.3469C32.8949 19.6977 32.9674 20.0587 33.0065 20.4247C33.0417 20.7318 33.0367 21.039 33.0468 21.3515C33.0378 21.9335 33.1406 22.5113 33.3487 23.049C33.4911 23.3339 33.7135 23.5636 33.9844 23.7057C34.2553 23.8479 34.5611 23.8953 34.8585 23.8412C34.929 23.8412 35.0447 23.6526 34.939 23.6526C34.6648 23.6967 34.3845 23.6496 34.136 23.5175C33.8876 23.3855 33.6831 23.1749 33.55 22.9143C33.3247 22.3627 33.2147 21.7649 33.2279 21.1629C33.2232 20.5019 33.13 19.8449 32.9511 19.2122C32.7745 18.5882 32.44 18.0286 31.9849 17.5955C31.4062 17.1084 30.7057 16.8159 29.9718 16.7548C29.9064 16.7548 29.8108 16.8949 29.9014 16.9111L29.9215 16.9327Z" fill="black"/>
<path d="M43.2069 18.2034C43.8307 18.2942 44.4382 18.4651 45.0511 18.604C45.5632 18.7455 46.0954 18.805 46.6271 18.7803C47.1918 18.7269 47.7356 18.5439 48.214 18.2461C48.7653 17.8953 49.3413 17.5829 49.9378 17.3114C50.2869 17.1554 50.6545 17.0424 51.0322 16.9749C51.4347 16.9169 51.8446 16.9314 52.2416 17.0177C52.3073 17.0177 52.4386 16.8948 52.3511 16.8628C51.7301 16.6925 51.0693 16.7243 50.4686 16.9536C49.8449 17.1699 49.2468 17.451 48.6846 17.7921C48.1676 18.148 47.5893 18.4104 46.9773 18.5666C46.4158 18.6392 45.8453 18.6047 45.2973 18.4651C44.6297 18.3209 43.9621 18.15 43.2835 18.0592C43.2124 18.0592 43.1139 18.1981 43.2069 18.2141V18.2034Z" fill="black"/>
<path d="M56.4736 18.5697C56.6106 18.6581 56.7806 18.7227 56.9675 18.7572C57.1545 18.7916 57.3521 18.7949 57.5416 18.7668C57.9146 18.6771 58.2616 18.5484 58.5685 18.3859C58.9826 18.2047 59.4431 18.0713 59.9291 17.9918C60.4345 17.9181 60.9511 17.8806 61.4695 17.8802C61.5414 17.8802 61.6543 17.7751 61.5465 17.7751C60.6073 17.7419 59.6726 17.8797 58.8509 18.1724C58.5018 18.3038 58.1885 18.4778 57.824 18.5927C57.6323 18.6567 57.414 18.6803 57.2001 18.6603C56.9863 18.6402 56.7877 18.5775 56.6328 18.4811C56.5661 18.4483 56.4274 18.5369 56.489 18.5697H56.4736Z" fill="black"/>
<path d="M75.9468 15.8918C76.6264 15.8538 77.3089 15.8796 77.9817 15.9687C78.3126 16.0263 78.6258 16.1402 78.9017 16.3034C79.1626 16.4678 79.3956 16.661 79.5945 16.8777C79.9809 17.3346 80.4439 17.7428 80.9691 18.0898C81.5009 18.381 82.1003 18.5752 82.728 18.6596C83.086 18.7125 83.4474 18.7472 83.8104 18.7637C84.2137 18.7931 84.6194 18.7931 85.0227 18.7637C85.0768 18.7637 85.1905 18.6506 85.0931 18.6416C84.753 18.6167 84.4115 18.6076 84.0702 18.6144C83.7238 18.6144 83.3775 18.5737 83.0365 18.533C82.3689 18.4606 81.7281 18.2677 81.1585 17.9677C80.6251 17.6268 80.1594 17.2178 79.7785 16.7556C79.3985 16.3236 78.861 16.0062 78.2469 15.8511C77.515 15.741 76.7689 15.7121 76.0279 15.7652C75.963 15.7652 75.8656 15.8873 75.9576 15.8918H75.9468Z" fill="black"/>
<path d="M92.8407 18.3296C92.9325 18.4406 93.0573 18.5378 93.2073 18.6154C93.3574 18.6929 93.5295 18.749 93.7131 18.7804C94.0119 18.8031 94.3129 18.7527 94.5605 18.6385C94.8611 18.5127 95.1484 18.3732 95.4205 18.2211C95.57 18.1459 95.7133 18.075 95.8753 18.0082C96.0374 17.9414 96.1869 17.9038 96.3427 17.8496C96.3427 17.8496 96.4486 17.7703 96.3427 17.7703C96.0407 17.8004 95.76 17.8922 95.5389 18.0332C95.2522 18.1668 94.9905 18.3212 94.7039 18.4506C94.4602 18.5833 94.1578 18.6581 93.8439 18.6635C93.6605 18.6402 93.4867 18.5909 93.3341 18.5189C93.1815 18.447 93.0536 18.3539 92.9591 18.2461C92.9155 18.2044 92.7722 18.2962 92.8158 18.3421L92.8407 18.3296Z" fill="black"/>
<path d="M108.167 16.882C108.671 17.0389 109.137 17.2779 109.54 17.5866C109.909 17.8776 110.238 18.206 110.52 18.5651C110.802 18.9272 110.946 19.4066 111.383 19.6513C111.534 19.7486 111.715 19.8012 111.901 19.8012C112.087 19.8012 112.269 19.7486 112.419 19.6513C112.585 19.5345 112.732 19.3978 112.856 19.2452C113.012 19.0812 113.153 18.9061 113.277 18.7217C113.277 18.6776 113.249 18.6678 113.216 18.6874C112.906 18.8831 112.745 19.2305 112.474 19.4605C112.397 19.5222 112.308 19.5697 112.21 19.6C112.112 19.6304 112.008 19.6429 111.905 19.637C111.802 19.6311 111.701 19.6067 111.608 19.5655C111.516 19.5242 111.434 19.4668 111.367 19.3969C111.089 19.0614 110.834 18.7118 110.603 18.3498C110.321 18.0277 110.006 17.7296 109.662 17.4594C109.261 17.1527 108.799 16.9138 108.3 16.7548C108.228 16.7548 108.107 16.8674 108.184 16.8967L108.167 16.882Z" fill="black"/>
<path d="M136.828 16.4813C138.284 16.7446 139.773 16.4002 141.24 16.3901C141.603 16.3818 141.967 16.4038 142.325 16.4559C142.621 16.4883 142.91 16.5635 143.179 16.6788C143.453 16.8377 143.67 17.0647 143.803 17.3321C144.18 17.9703 144.365 18.6895 144.68 19.3581C144.905 19.824 145.276 20.4065 145.939 20.295C146.139 20.2567 146.33 20.1846 146.501 20.0823C146.803 19.8954 147.119 19.7262 147.445 19.5758C148.101 19.339 148.808 19.2386 149.513 19.2821C149.575 19.2821 149.66 19.1656 149.575 19.1656C148.967 19.1348 148.357 19.1964 147.771 19.3479C147.518 19.4326 147.276 19.5395 147.046 19.667C146.793 19.7987 146.557 19.9709 146.293 20.0874C146.167 20.1583 146.02 20.1959 145.871 20.1959C145.722 20.1959 145.576 20.1583 145.45 20.0874C145.2 19.899 145.007 19.6569 144.888 19.3834C144.562 18.7199 144.393 18.0058 144.051 17.3575C143.928 17.0799 143.736 16.8318 143.488 16.6332C143.318 16.5286 143.127 16.453 142.926 16.4104C142.613 16.3312 142.291 16.282 141.965 16.2635C140.279 16.1571 138.593 16.613 136.935 16.3901C136.873 16.3901 136.767 16.5218 136.845 16.5319L136.828 16.4813Z" fill="black"/>
<path d="M172.69 16.4474C173.539 16.4369 174.385 16.5338 175.207 16.7356C175.606 16.8417 175.996 16.9769 176.373 17.1402C176.758 17.3071 177.128 17.5043 177.513 17.6459C178.222 17.9925 178.994 18.207 179.787 18.278C180.438 18.2492 181.074 18.0761 181.644 17.7723C181.992 17.6156 182.33 17.4436 182.699 17.302C183.078 17.1544 183.473 17.0459 183.876 16.9784C183.876 16.9784 183.923 16.9379 183.876 16.9379C183.211 16.9814 182.565 17.17 181.987 17.4891C181.392 17.8156 180.736 18.0254 180.056 18.1061C179.264 18.0709 178.489 17.8689 177.787 17.5144C177.047 17.1521 176.284 16.8346 175.503 16.5637C174.607 16.333 173.681 16.2274 172.754 16.2502C172.685 16.2502 172.58 16.4019 172.68 16.4019L172.69 16.4474Z" fill="black"/>
<path d="M190.073 17.3796C190.669 17.3217 191.278 17.3519 191.853 17.4679C192.447 17.6511 192.799 18.0447 193.414 18.2177C193.614 18.275 193.836 18.292 194.051 18.2665C194.266 18.241 194.464 18.1742 194.617 18.0752C194.654 18.0515 194.66 18.0006 194.585 18.0209C194.344 18.1285 194.049 18.1768 193.756 18.1567C193.501 18.1118 193.263 18.0318 193.061 17.9225C192.782 17.7502 192.485 17.5893 192.174 17.4407C191.58 17.1964 190.816 17.2677 190.148 17.288C190.078 17.288 189.987 17.383 190.073 17.3796Z" fill="black"/>
<path d="M218.737 16.3979C219.879 16.3534 221.022 16.4778 222.126 16.7672C222.674 16.9578 223.172 17.2631 223.586 17.6616C224.034 18.0949 224.507 18.5029 225.003 18.8837C225.509 19.2528 225.988 19.656 226.437 20.0901C226.859 20.5491 227.256 21.0299 227.625 21.5306C228.262 22.3861 229.082 23.0959 230.028 23.6107C230.346 23.8047 230.721 23.8906 231.094 23.8552C231.504 23.7615 231.525 23.3351 231.461 23.0127C231.461 22.9295 231.275 23.0491 231.291 23.1271C231.307 23.2051 231.376 23.5275 231.248 23.6471C231.197 23.6806 231.139 23.703 231.079 23.7128C231.018 23.7227 230.956 23.7198 230.897 23.7043C230.561 23.6495 230.239 23.533 229.948 23.3611C229.002 22.786 228.187 22.0265 227.556 21.1302C227.203 20.641 226.815 20.177 226.394 19.7417C225.968 19.3413 225.504 18.9877 225.041 18.6289C224.577 18.27 224.145 17.8748 223.708 17.4692C223.328 17.1097 222.879 16.827 222.387 16.6372C221.263 16.2055 220 16.2783 218.817 16.2471C218.742 16.2471 218.636 16.4031 218.737 16.4031V16.3979Z" fill="black"/>
<path d="M112.417 18.7259C112.669 18.3639 112.967 18.0342 113.304 17.7447L113.807 17.314C113.978 17.1741 114.136 17.02 114.278 16.8534C114.334 16.7816 114.278 16.7217 114.192 16.7756C114.012 16.9072 113.85 17.0627 113.677 17.2123C113.503 17.3619 113.329 17.5114 113.162 17.667C112.82 17.9726 112.522 18.3207 112.275 18.702C112.268 18.707 112.263 18.7134 112.259 18.7206C112.256 18.7279 112.254 18.7358 112.254 18.7438C112.254 18.7519 112.256 18.7598 112.259 18.767C112.263 18.7743 112.268 18.7807 112.275 18.7857C112.312 18.7857 112.368 18.7857 112.386 18.7259H112.417Z" fill="black"/>
<path d="M92.3148 16.8937C92.4968 16.9806 92.6727 17.0896 92.8401 17.2193C92.9222 17.2873 92.9974 17.3694 93.0638 17.4635C93.0975 17.5112 93.1284 17.5624 93.1561 17.6167C93.1785 17.6803 93.2143 17.7336 93.259 17.7699C93.2725 17.7716 93.286 17.7668 93.2971 17.7562C93.3081 17.7457 93.316 17.7302 93.3194 17.7125C93.3187 17.6393 93.3063 17.5671 93.283 17.501C93.2597 17.4349 93.2261 17.3764 93.1845 17.3294C93.1164 17.2293 93.0374 17.1437 92.9502 17.0756C92.7721 16.9424 92.5841 16.8348 92.3893 16.7548C92.3432 16.7548 92.258 16.865 92.3148 16.8937Z" fill="black"/>
<path d="M79.5129 16.4442C79.6662 16.6717 79.8304 16.8802 79.9873 17.0761L80.2099 17.4047L80.3194 17.5816C80.3559 17.6448 80.3887 17.7333 80.4398 17.7649C80.4909 17.7965 80.5347 17.6827 80.5237 17.6195C80.5056 17.5344 80.474 17.4599 80.4325 17.4047C80.3987 17.3389 80.3621 17.2776 80.323 17.2214C80.2501 17.1077 80.1734 17.0003 80.0931 16.8928C79.9326 16.678 79.7684 16.4758 79.6114 16.2609C79.5677 16.1977 79.4691 16.3683 79.5129 16.4379V16.4442Z" fill="black"/>
<path d="M58.1057 17.7595C58.4956 17.5973 58.8914 17.4413 59.3053 17.2978L59.9051 17.0982C60.1098 17.0408 60.3103 16.9678 60.5048 16.8798C60.5348 16.8798 60.6128 16.7488 60.5348 16.755C60.3295 16.7741 60.1277 16.8223 59.935 16.8985L59.2933 17.1231C58.8914 17.2729 58.4896 17.4289 58.0937 17.5973C58.0037 17.6348 57.9618 17.8157 58.0937 17.7595H58.1057Z" fill="black"/>
<path d="M47.8703 17.7514C48.3404 17.5007 48.8104 17.2368 49.2926 17.0059C49.5367 16.8871 49.787 16.7749 50.0373 16.676C50.2875 16.577 50.5378 16.5176 50.7697 16.4055C50.8064 16.4055 50.8979 16.2471 50.8064 16.2471C50.5603 16.2685 50.319 16.3331 50.0922 16.4385C49.8358 16.5374 49.5856 16.6496 49.3414 16.7683C48.8409 17.0125 48.3587 17.283 47.8703 17.5535C47.7727 17.6062 47.7177 17.8372 47.8703 17.7514Z" fill="black"/>
<path d="M31.9461 16.8716C32.5212 16.8278 33.0576 17.2258 33.3959 17.5482C33.6246 17.7505 33.827 17.972 34 18.2089C34.0704 18.305 34.1334 18.4047 34.1885 18.5074C34.2182 18.6017 34.2655 18.6916 34.3286 18.774C34.3721 18.8138 34.4591 18.7422 34.4688 18.7064C34.4714 18.5289 34.4072 18.3551 34.2851 18.2089C34.1643 18.0225 34.0236 17.8453 33.8647 17.6795C33.5578 17.3359 33.1572 17.0564 32.6951 16.8636C32.4778 16.7761 32.2351 16.7403 31.9944 16.7602C31.9412 16.7602 31.8639 16.8796 31.9461 16.8716Z" fill="black"/>
<path d="M182.969 16.7476C183.281 16.6519 183.605 16.5736 183.937 16.5136L184.409 16.4324C184.569 16.4126 184.725 16.3787 184.871 16.3316C184.906 16.3316 184.961 16.2536 184.871 16.2471C184.792 16.2501 184.714 16.2611 184.64 16.2796L184.389 16.3251C184.228 16.3544 184.073 16.3804 183.917 16.4129C183.586 16.4757 183.263 16.5572 182.954 16.6566C182.919 16.6566 182.868 16.6988 182.873 16.7281C182.878 16.7573 182.919 16.7606 182.954 16.7476H182.969Z" fill="black"/>
<path d="M341.733 17.5365C339.507 17.5365 337.273 17.5365 335.054 17.4359C335.067 17.4505 335.074 17.4671 335.074 17.484C335.074 17.5009 335.067 17.5175 335.054 17.5321C334.187 18.4068 334.884 19.78 335.054 20.7377C335.25 21.7785 335.203 22.815 333.984 23.6153C332.062 24.8879 330.391 21.1881 330.1 20.554C329.234 18.6779 328.51 16.347 329.423 14.4315C330.56 12.0743 335.453 12.8353 338.268 12.7566C339.419 12.726 340.562 12.6035 341.713 12.5773C343.128 12.551 344.544 12.5729 345.956 12.6429C348.663 12.7609 351.37 13.0058 354.118 13.1851C359.613 13.5437 365.196 13.2201 370.711 13.3163C372.031 13.3426 373.344 13.4126 374.657 13.4475C376.023 13.4522 377.385 13.3554 378.717 13.1589C379.841 13.0146 380.95 12.8528 382.101 12.7216C383.447 12.609 384.806 12.5782 386.161 12.6297C388.652 12.6297 391.115 12.8003 393.572 12.4461C395.676 12.1443 397.707 11.6633 399.825 11.4009C401.362 11.1815 402.953 11.1741 404.494 11.3791C406.036 11.5841 407.493 11.9968 408.771 12.5904C408.8 12.5974 408.827 12.6061 408.853 12.6166C410.517 13.4126 412.69 13.4913 414.686 13.4913C416.563 13.48 418.439 13.5766 420.29 13.7799C421.063 13.9314 421.875 13.9819 422.678 13.9286C423.655 13.7453 424.572 13.4489 425.385 13.054C426.949 12.4286 428.593 12.3455 430.4 12.3892C432.755 12.4461 435.009 12.9709 437.235 13.4169C439.553 13.8843 441.946 14.1778 444.368 14.2916C446.728 14.3834 449.095 14.3746 451.454 14.2653C452.712 14.2128 453.985 14.121 455.243 14.0467C455.936 13.9967 456.618 13.8939 457.274 13.7405C457.766 13.6014 458.3 13.5357 458.837 13.5481C459.165 13.5922 459.475 13.6785 459.75 13.8018C460.192 13.9538 460.698 14.0091 461.192 13.9592C461.6 13.9263 461.993 13.8371 462.343 13.6975C462.694 13.5579 462.993 13.3712 463.222 13.1502C464.379 12.2755 465.692 11.5496 467.526 11.4009C471.769 11.0466 476.114 11.8382 480.005 12.8484C481.226 13.1944 482.515 13.4299 483.836 13.5481C485.056 13.6181 486.283 13.6181 487.504 13.5481C489.94 13.4301 492.384 13.395 494.826 13.4432C495.983 13.4694 497.134 13.4869 498.291 13.4432C499.507 13.3804 500.7 13.1914 501.824 12.8834C503.255 12.4625 504.813 12.252 506.385 12.2668C508.415 12.3499 510.445 12.4767 512.523 12.5948C514.201 12.691 515.907 12.8615 517.585 12.9053C517.585 12.8659 517.646 12.8397 517.747 12.844C519.899 12.844 522.133 13.1677 523.946 12.223C524.587 11.8542 525.283 11.5275 526.024 11.2478C526.887 11.0383 527.814 10.9619 528.731 11.0248C529.569 11.0164 530.4 11.1191 531.174 11.3265C531.799 11.5631 532.321 11.8987 532.69 12.3018C534.043 13.5044 536.669 12.4636 538.185 11.965C539.023 11.6711 539.917 11.4505 540.845 11.309C541.899 11.201 542.975 11.2203 544.019 11.3659C546.407 11.6108 548.62 12.3061 550.996 12.586C552.2 12.726 553.371 13.0233 554.616 12.8878C555.686 12.7609 556.471 12.2449 557.323 11.8207C557.928 11.4991 558.656 11.2888 559.43 11.2118C560.204 11.1349 560.996 11.1941 561.722 11.3834C562.568 11.602 563.346 11.9213 564.165 12.1837C565.228 12.5213 566.445 12.599 567.59 12.4023C568.889 12.2493 570.181 12.0787 571.488 11.965C573.014 11.8417 574.551 11.7818 576.089 11.7857C581.312 11.652 586.507 12.3393 591.228 13.7886C591.266 13.799 591.3 13.8139 591.33 13.8324C597.702 16.7419 602.042 21.1573 603.41 26.1211C603.697 27.1896 603.874 28.2692 603.937 29.3529C604.101 30.6422 603.943 31.94 603.471 33.197C603.017 34.2641 601.061 36.56 598.815 35.8472C597.684 35.4886 597.096 34.5833 596.683 33.8705C596.13 32.8519 595.696 31.8082 595.383 30.748C595.126 29.8251 594.748 28.9181 594.253 28.0366C593.028 26.0643 591.546 24.2363 588.948 22.8981C587.059 22.124 585.171 21.3499 583.364 20.4928C581.836 19.6922 580.377 18.8382 578.993 17.9345C577.247 16.9024 574.54 16.6925 572.279 16.6225C570.019 16.5525 567.617 16.7274 565.295 16.8193C560.741 16.9986 556.18 16.4913 551.639 16.8193C546.78 17.1866 542.421 19.2683 538.672 21.1575C537.183 21.9097 535.803 22.7931 534.24 23.4797C533.395 23.8485 532.409 24.0603 531.391 24.0919C529.151 24.175 526.971 23.4097 525.137 22.6707C522.85 21.7435 520.772 20.6196 518.587 19.6094C516.82 18.7872 514.722 17.8208 512.455 17.777C512.375 17.7681 512.3 17.7454 512.239 17.7114C506.432 17.777 500.619 17.777 494.813 17.7814H479.511C478.803 17.819 478.09 17.7925 477.393 17.7027C477.361 17.6959 477.331 17.6856 477.305 17.6721C476.716 17.8864 475.83 17.8382 475.18 17.9432C474.443 18.0666 473.753 18.2853 473.15 18.5861C472.219 19.1049 471.536 19.7845 471.181 20.5453C470.504 21.8048 470.274 23.3223 468.345 24.0788C466.854 24.6255 465.221 24.9916 463.527 25.159C461.93 25.3383 460.739 25.2596 459.466 24.5817C458.115 23.7944 456.99 22.8587 456.143 21.8179C455.741 21.4073 455.375 20.9825 455.047 20.5453C454.722 20.0598 454.492 19.5482 454.228 19.0453C453.809 18.2712 453.281 17.5278 452.069 17.1648C449.491 17.2173 446.913 17.1648 444.334 17.1648C442.078 17.1473 439.823 17.1342 437.567 17.1254C434.752 17.1254 431.889 17.2041 429.08 17.0379C429.049 17.0435 429.017 17.0435 428.986 17.0379C425.907 17.0904 424.634 18.8528 424.039 20.5671C423.362 22.5701 423.362 24.6517 423.064 26.6896C422.677 28.7633 421.962 30.806 420.932 32.7859C419.951 34.7714 418.591 37.0848 415.891 38.3661C413.86 39.337 411.553 39.4288 409.8 38.165C408.047 36.9011 407.303 35.1518 406.497 33.5993C406.114 32.7436 405.576 31.9201 404.894 31.146C403.709 29.9215 401.957 28.9593 401.124 27.5862C400.292 26.213 400.617 24.8048 400.65 23.4097C400.725 22.8072 400.59 22.2016 400.258 21.6366C399.926 21.0717 399.403 20.5615 398.728 20.1429C396.61 18.831 393.538 18.2843 390.973 17.4665C388.354 17.6152 385.674 17.5409 383.042 17.5452H374.596H357.772L341.733 17.5365Z" fill="url(#paint1_radial_99_2)"/>
<path d="M591.228 14.1035C588.653 13.3155 585.92 12.7649 583.108 12.4679C580.264 12.2384 577.395 12.1682 574.533 12.258C572.962 12.2956 571.398 12.417 569.857 12.621C569.133 12.7085 568.409 12.8047 567.685 12.8878C567.102 12.9764 566.5 13.0001 565.905 12.9577C563.935 12.7609 562.419 11.5977 560.389 11.6108C559.259 11.6636 558.195 11.9735 557.384 12.4854C556.508 13.0447 555.327 13.3589 554.096 13.3601C553.39 13.3181 552.693 13.2346 552.011 13.1108C551.334 13.0015 550.658 12.9184 549.981 12.7959C548.58 12.5423 547.206 12.223 545.799 11.9869C544.414 11.7034 542.955 11.6023 541.508 11.6895C540.316 11.8639 539.174 12.1591 538.124 12.5641C537.154 12.9304 536.079 13.1668 534.964 13.2595C534.46 13.2869 533.954 13.2267 533.498 13.0852C533.043 12.9437 532.654 12.7261 532.372 12.4548C532.144 12.2169 531.866 12.0005 531.546 11.8119C531.083 11.6138 530.545 11.5005 529.99 11.4839C529.352 11.4323 528.709 11.422 528.068 11.4533C527.506 11.4594 526.951 11.5382 526.437 11.6851C525.442 12.0131 524.738 12.5904 523.771 12.9446C522.575 13.2916 521.254 13.4173 519.954 13.3076C519.351 13.3076 518.742 13.2595 518.133 13.2595C517.849 13.2595 517.457 12.844 517.829 12.844C519.146 12.9045 520.468 12.9147 521.788 12.8746C522.418 12.8164 523.019 12.6669 523.547 12.4373C523.994 12.2449 524.38 12 524.793 11.7813C525.225 11.5329 525.719 11.3333 526.254 11.1909C526.777 11.0854 527.318 11.0251 527.865 11.0116C528.488 10.9876 529.113 11.0008 529.733 11.051C530.289 11.08 530.833 11.1748 531.337 11.3309C531.777 11.4939 532.158 11.7161 532.453 11.9825C532.679 12.2111 532.945 12.4224 533.245 12.6122C534.118 13.0496 535.526 12.7697 536.433 12.5248C537.536 12.2318 538.551 11.8163 539.661 11.5364C540.878 11.241 542.193 11.1536 543.477 11.2828C544.945 11.4278 546.39 11.6576 547.795 11.9694C548.472 12.1093 549.149 12.2536 549.825 12.3761C550.502 12.4985 551.219 12.5816 551.916 12.691C552.621 12.8243 553.348 12.8992 554.082 12.914C554.746 12.8959 555.389 12.7614 555.943 12.5248C556.412 12.3093 556.864 12.0787 557.297 11.8338C557.733 11.611 558.222 11.4352 558.745 11.3134C559.729 11.0868 560.808 11.1071 561.77 11.3702C562.697 11.6064 563.529 11.9738 564.436 12.2449C564.893 12.3857 565.382 12.4773 565.884 12.516C566.553 12.5262 567.221 12.4746 567.867 12.363C569.343 12.1837 570.818 11.9869 572.307 11.8775C573.836 11.7857 575.372 11.7463 576.909 11.7595C578.329 11.7514 579.75 11.7894 581.165 11.8732C583.925 12.0551 586.63 12.491 589.198 13.1676C589.875 13.3513 590.552 13.5525 591.228 13.7886C591.499 13.8761 591.648 14.2522 591.228 14.1254V14.1035Z" fill="black"/>
<path d="M518.018 13.1982C515.899 13.1982 513.768 13.0495 511.663 12.9402C510.384 12.8746 509.105 12.8046 507.826 12.7434C506.767 12.6609 505.696 12.6771 504.645 12.7915C503.75 12.9383 502.875 13.1298 502.026 13.3644C501.096 13.6128 500.116 13.7762 499.116 13.8498C496.842 14.0029 494.548 13.8498 492.274 13.8236C490 13.7973 487.754 14.0641 485.507 14.0379C484.448 14.0288 483.395 13.9422 482.367 13.7798C481.274 13.567 480.202 13.3099 479.159 13.0102C477.171 12.483 475.088 12.1201 472.96 11.93C471.859 11.8507 470.751 11.8171 469.644 11.8294C468.747 11.796 467.847 11.8536 466.978 11.9999C466.064 12.2159 465.244 12.5715 464.589 13.0364C464.133 13.4122 463.633 13.7646 463.093 14.0903C462.444 14.3628 461.68 14.4987 460.907 14.4796C460.553 14.4787 460.206 14.4135 459.906 14.2915C459.703 14.1878 459.468 14.1144 459.216 14.0765C458.965 14.0387 458.703 14.0375 458.451 14.0728C457.889 14.1647 457.354 14.3221 456.793 14.4183C456.209 14.4992 455.616 14.5475 455.02 14.5626C453.768 14.6282 452.522 14.7245 451.27 14.7726C448.988 14.871 446.698 14.871 444.415 14.7726C442.259 14.6684 440.127 14.4163 438.054 14.0204C435.854 13.583 433.675 13.0539 431.374 12.9096C429.582 12.7184 427.743 12.9007 426.123 13.43C425.319 13.7848 424.464 14.0893 423.571 14.3396C422.94 14.4719 422.268 14.5004 421.615 14.4227C420.709 14.3265 419.829 14.1647 418.908 14.0903C417.984 14.032 417.056 14.0043 416.127 14.0072C414.305 14.0581 412.481 13.9358 410.713 13.6443C409.94 13.4846 409.224 13.2258 408.608 12.8833C408.338 12.7303 408.507 12.4722 408.845 12.6384C410.334 13.36 412.276 13.4825 414.077 13.5131C415.85 13.4888 417.623 13.5502 419.382 13.6967C420.223 13.835 421.078 13.9344 421.94 13.9941C422.776 13.9852 423.589 13.8196 424.282 13.5174C425.026 13.187 425.809 12.8945 426.623 12.6428C427.339 12.4798 428.091 12.3941 428.85 12.3892C433.357 12.2711 437.397 13.6661 441.776 14.1122C444.003 14.3191 446.254 14.3996 448.502 14.3527C450.885 14.3221 453.287 14.1997 455.649 14.0247C456.691 13.946 457.787 13.4562 458.843 13.5524C459.21 13.6062 459.557 13.7057 459.865 13.8454C460.325 13.9952 460.853 14.034 461.354 13.9548C462.068 13.8842 462.71 13.6343 463.14 13.2594C463.68 12.8085 464.306 12.403 465.001 12.0524C466.565 11.3483 468.257 11.3396 470.104 11.3702C472.148 11.3921 474.18 11.5847 476.147 11.9431C477.115 12.1224 478.069 12.3454 479.01 12.5816C480.109 12.8964 481.239 13.1624 482.394 13.3775C484.593 13.7142 486.847 13.583 489.073 13.4737C491.341 13.3994 493.613 13.3994 495.881 13.4737C496.981 13.5022 498.083 13.4759 499.177 13.395C500.215 13.2791 501.226 13.0808 502.189 12.8046C503.528 12.4295 504.979 12.2489 506.438 12.2755C507.44 12.3148 508.469 12.3717 509.443 12.4285C511.981 12.5641 514.512 12.7303 517.05 12.8658C517.314 12.8658 517.578 12.9008 517.842 12.9052C518.106 12.9096 518.309 13.1763 518.045 13.1807L518.018 13.1982Z" fill="black"/>
<path d="M591.302 13.7887C593.659 14.8343 595.758 16.1037 597.528 17.554C599.098 18.8576 600.393 20.2899 601.379 21.8135C602.273 23.1701 602.937 24.585 603.362 26.0337C603.779 27.5007 603.98 28.9898 603.964 30.4812C603.983 31.3408 603.838 32.1986 603.531 33.0352C603.236 33.7696 602.695 34.4532 601.948 35.0381C601.203 35.6373 600.012 36.2889 598.774 35.8516C597.535 35.4142 597.021 34.5396 596.594 33.7568C596.087 32.7869 595.68 31.7964 595.376 30.7917C595.234 30.3544 595.092 29.9171 594.943 29.4798C594.849 29.1595 594.713 28.845 594.537 28.5395C593.515 26.8733 592.446 25.159 590.477 23.8383C589.987 23.5059 589.46 23.1974 588.9 22.9156C588.751 22.8412 588.771 22.6838 588.981 22.7713C591.309 23.7727 592.791 25.3602 593.915 26.9783C594.199 27.385 594.469 27.8005 594.727 28.2159C594.884 28.4441 595.022 28.6776 595.139 28.9156C595.288 29.248 595.403 29.5891 595.518 29.9302C595.85 30.888 596.155 31.8501 596.581 32.7947C596.787 33.2643 597.036 33.7257 597.325 34.1766C597.461 34.3734 597.603 34.5702 597.772 34.7626L597.833 34.8282C597.833 34.8632 597.833 34.8282 597.833 34.8545L597.955 34.9769C598.036 35.0556 598.124 35.13 598.212 35.1999C598.3 35.2699 598.212 35.1999 598.212 35.1999C598.231 35.218 598.254 35.2342 598.28 35.2481C598.321 35.2807 598.366 35.3114 598.415 35.3399L598.476 35.3749C598.516 35.4011 598.415 35.3443 598.476 35.3749L598.51 35.3967L598.659 35.4623C598.699 35.4623 598.719 35.4886 598.659 35.4623L598.733 35.4886L598.889 35.5367C598.936 35.5367 598.821 35.5367 598.889 35.5367H598.956H599.038H599.146C599.256 35.5455 599.367 35.5455 599.477 35.5367C599.477 35.5367 599.559 35.5367 599.477 35.5367H599.565L599.748 35.5017C599.996 35.4353 600.225 35.3421 600.425 35.2262C601.142 34.8324 601.735 34.3527 602.171 33.8136C602.708 33.0908 603.03 32.3089 603.118 31.5089C603.228 30.671 603.239 29.829 603.152 28.99C603.098 28.2859 603.03 27.5818 602.881 26.8821C602.587 25.51 602.079 24.1605 601.366 22.8543C600.562 21.395 599.482 20.0055 598.151 18.7173C596.668 17.2812 594.864 15.9946 592.798 14.8995C592.243 14.6108 591.675 14.3309 591.093 14.0686C590.977 14.0204 590.829 13.9024 590.89 13.8062C590.95 13.7099 591.147 13.7581 591.241 13.8062L591.302 13.7887Z" fill="black"/>
<path d="M588.934 22.8937C586.227 21.796 583.479 20.7071 581.137 19.3295C580.116 18.726 579.27 17.9563 578.058 17.4971C576.637 17.0109 575.069 16.7304 573.463 16.675C570.14 16.4826 566.818 16.828 563.502 16.8761C560.186 16.9242 556.944 16.6444 553.655 16.7318C552.003 16.7527 550.363 16.9205 548.782 17.2304C547.14 17.6154 545.567 18.1155 544.093 18.7216C541.034 19.9516 538.135 21.3396 535.423 22.8718C534.65 23.3551 533.728 23.7276 532.716 23.9651C531.836 24.1266 530.91 24.155 530.01 24.0482C527.979 23.8339 526.105 23.1167 524.42 22.3864C522.477 21.5467 520.664 20.5934 518.769 19.71C517.199 18.9753 515.507 18.2056 513.598 17.8907C513.223 17.8271 512.837 17.7919 512.448 17.7858C512.157 17.7858 511.771 17.3703 512.137 17.3703C514.011 17.3703 515.717 17.9913 517.253 18.6298C519.195 19.4345 520.995 20.3791 522.856 21.2537C525.82 22.6575 530.206 24.6955 533.84 23.0249C534.462 22.7406 535.031 22.3995 535.62 22.0846C536.296 21.7085 537.034 21.3368 537.758 20.9695C539.179 20.2523 540.634 19.5613 542.15 18.9272C543.614 18.3079 545.145 17.7584 546.732 17.2829C548.206 16.8441 549.781 16.5634 551.395 16.4519C554.778 16.207 558.162 16.4519 561.546 16.5044C564.929 16.5569 568.097 16.2464 571.386 16.2726C572.987 16.2618 574.583 16.4002 576.123 16.6837C577.494 16.9376 578.736 17.422 579.723 18.0875C580.224 18.4243 580.691 18.7785 581.205 19.1065C581.776 19.4557 582.375 19.7856 582.999 20.0948C584.352 20.7596 585.706 21.3631 587.127 21.9491L589.049 22.745C589.204 22.8106 589.17 22.9593 588.974 22.8806L588.934 22.8937Z" fill="black"/>
<path d="M512.381 17.7246C511.244 17.7246 510.108 17.7639 508.964 17.7771C507.82 17.7902 506.676 17.7771 505.526 17.7771H498.759H485.129H477.901C477.721 17.7662 477.543 17.7397 477.373 17.6983C477.252 17.6765 476.913 17.4666 477.157 17.4053C477.264 17.3741 477.375 17.3492 477.488 17.331C477.624 17.331 477.773 17.331 477.908 17.331H490.766H504.409H508.274C509.58 17.331 510.886 17.3747 512.192 17.3878C512.381 17.3878 512.679 17.6677 512.402 17.6721L512.381 17.7246Z" fill="black"/>
<path d="M477.413 17.6459L477.23 17.729C477.155 17.7658 477.061 17.7844 476.966 17.7815L476.344 17.8164C475.991 17.8452 475.64 17.8876 475.295 17.9433C474.711 18.0335 474.152 18.181 473.637 18.3806C472.789 18.7214 472.107 19.2094 471.668 19.7888C471.246 20.3599 470.911 20.9559 470.666 21.5687C470.453 22.1263 470.142 22.6663 469.739 23.178C469.548 23.4051 469.301 23.6104 469.008 23.7859C468.582 24.0216 468.1 24.2106 467.58 24.3456C466.223 24.7369 464.792 25.0105 463.323 25.1591C462.737 25.2331 462.139 25.2552 461.543 25.2247C460.814 25.1443 460.135 24.9337 459.581 24.6168C458.304 23.9009 457.232 23.0452 456.414 22.0891C456.218 21.8748 456.021 21.6517 455.832 21.4418C455.642 21.2319 455.493 21.0963 455.338 20.9127C455.026 20.5234 454.77 20.1165 454.573 19.6969C454.35 19.2596 454.147 18.8223 453.862 18.4287C453.636 18.0544 453.285 17.717 452.834 17.4403C452.601 17.3159 452.341 17.2143 452.062 17.1386C451.994 17.1201 451.934 17.0908 451.888 17.0533C451.842 17.0159 451.811 16.9715 451.798 16.9243C451.791 16.9071 451.792 16.8889 451.801 16.872C451.809 16.8551 451.825 16.8402 451.847 16.8291C451.868 16.818 451.895 16.8111 451.922 16.8094C451.949 16.8077 451.977 16.8111 452.001 16.8193C453.355 17.0992 454.126 17.9695 454.614 18.7873C454.98 19.6116 455.484 20.4078 456.116 21.1619C456.319 21.3587 456.481 21.5993 456.664 21.7829C456.847 21.9666 457.063 22.2203 457.273 22.4214C457.716 22.8851 458.219 23.324 458.776 23.7334C459.254 24.1026 459.835 24.411 460.488 24.643C460.74 24.7303 461.016 24.7867 461.3 24.8092C461.57 24.8245 461.842 24.8245 462.112 24.8092C463.56 24.707 464.979 24.4744 466.328 24.1182C467.33 23.9313 468.224 23.5551 468.893 23.0381C469.327 22.5734 469.651 22.0692 469.854 21.5424C470.103 20.9396 470.413 20.3479 470.781 19.7713C471.172 19.1676 471.786 18.6347 472.568 18.2188C473.604 17.7358 474.837 17.4592 476.114 17.4228H476.662C476.898 17.4319 477.129 17.4737 477.339 17.5453C477.386 17.5453 477.515 17.6459 477.44 17.6809L477.413 17.6459Z" fill="black"/>
<path d="M452.151 17.1341C451.826 17.1341 451.474 17.1341 451.176 17.1647C450.879 17.1954 450.337 17.1647 449.924 17.1647L446.541 17.1385C443.198 17.1123 439.861 17.086 436.518 17.0729H432.952H431.05C430.333 17.0729 429.636 17.0423 428.925 16.9986C428.859 16.9934 428.797 16.9774 428.744 16.9521C428.69 16.9269 428.648 16.8931 428.621 16.8542C428.573 16.793 428.58 16.7187 428.709 16.7099C429.297 16.667 429.889 16.6437 430.482 16.64H432.194H435.435L441.161 16.6793C443.868 16.7056 446.575 16.7274 449.282 16.7755C449.769 16.7755 450.27 16.7755 450.757 16.7974C451.116 16.7974 451.542 16.8411 451.934 16.8455C452.117 16.8455 452.415 17.121 452.144 17.1254L452.151 17.1341Z" fill="black"/>
<path d="M428.938 17.0205C427.862 17.0125 426.822 17.2724 426.035 17.7464C425.276 18.2536 424.719 18.8718 424.41 19.5482C424.02 20.341 423.752 21.157 423.612 21.9841C423.436 22.8587 423.341 23.7815 423.246 24.6824C423.165 25.5045 423.091 26.3267 422.928 27.1445C422.766 27.9623 422.482 28.7626 422.204 29.5629C421.578 31.5747 420.597 33.5336 419.281 35.4011C418.682 36.2454 417.891 37.0268 416.932 37.7189C416.08 38.3295 414.992 38.7824 413.779 39.0309C413.294 39.1213 412.785 39.145 412.285 39.1006C411.785 39.0561 411.305 38.9445 410.876 38.7729C409.995 38.3846 409.271 37.8658 408.764 37.2597C407.559 35.9478 406.91 34.4565 406.145 33.0221C405.799 32.3139 405.317 31.6365 404.71 31.006C403.628 29.9564 402.146 29.0818 401.327 27.9448C400.508 26.8077 400.508 25.452 400.582 24.1663C400.659 23.5843 400.659 22.9991 400.582 22.417C400.485 21.9632 400.256 21.5254 399.906 21.1269C399.197 20.3927 398.206 19.7899 397.029 19.3776C395.719 18.8943 394.363 18.4649 392.969 18.0919C392.292 17.8951 391.615 17.6983 390.939 17.484C390.863 17.4631 390.797 17.4293 390.748 17.3862C390.699 17.3431 390.669 17.2923 390.661 17.2391C390.661 17.1429 390.83 17.1342 390.939 17.1692C392.326 17.6065 393.754 18.0001 395.148 18.433C396.493 18.821 397.746 19.3305 398.87 19.9462C399.92 20.5383 400.655 21.3295 400.968 22.2071C401.111 22.7412 401.157 23.2843 401.103 23.8252C401.103 24.4724 401.002 25.1372 401.022 25.7669C401.033 26.3899 401.202 27.0074 401.523 27.5949C401.905 28.2103 402.435 28.7829 403.093 29.2917C404.245 30.1262 405.232 31.0503 406.03 32.0425C406.93 33.3544 407.485 34.7757 408.385 36.0964C408.798 36.7557 409.357 37.3729 410.043 37.9288L410.131 37.9944L410.26 38.0819L410.53 38.2524L410.578 38.2787C410.659 38.3268 410.517 38.2481 410.578 38.2787L410.706 38.3443C410.801 38.3924 410.903 38.4317 411.004 38.4755C411.106 38.5192 410.957 38.4755 411.004 38.4755L411.072 38.5017L411.207 38.5498L411.349 38.5892C411.349 38.5892 411.525 38.6329 411.471 38.6242C411.671 38.6689 411.877 38.6997 412.087 38.716C413.214 38.7314 414.313 38.4864 415.186 38.025C416.253 37.5131 417.14 36.862 417.792 36.1139C419.328 34.3345 420.452 32.419 421.128 30.4288C421.473 29.5541 421.771 28.6795 422.042 27.7698C422.252 27.0136 422.392 26.2498 422.461 25.4827C422.548 23.7211 422.847 21.9665 423.355 20.2348C423.842 18.8747 424.796 17.3397 427.036 16.863C427.566 16.7555 428.119 16.7038 428.674 16.71C428.752 16.7152 428.826 16.7338 428.889 16.7638C428.952 16.7937 429.002 16.8341 429.033 16.8805C429.08 16.9461 429.08 17.0511 428.931 17.0511L428.938 17.0205Z" fill="black"/>
<path d="M391.021 17.4316C389.958 17.4928 388.889 17.4928 387.826 17.5016C386.764 17.5103 385.668 17.5016 384.585 17.5016H378.102H352.23C348.095 17.5016 343.953 17.5016 339.818 17.5016C338.201 17.5016 336.577 17.4753 334.959 17.401H334.79C334.727 17.3965 334.666 17.3811 334.615 17.3565C334.564 17.3319 334.524 17.299 334.499 17.261C334.465 17.2129 334.458 17.1167 334.587 17.1211H334.749C334.932 17.1211 335.196 17.3835 334.946 17.3835H334.79C334.601 17.3835 334.316 17.1167 334.587 17.1036C336.076 17.0293 337.565 17.0074 339.06 16.9943C342.796 16.968 346.504 16.9943 350.267 16.9943H363.193H376.139C380.47 16.9943 384.808 16.9943 389.139 17.0249C389.694 17.0249 390.249 17.0511 390.804 17.0817C390.98 17.0817 391.318 17.3529 391.021 17.3704V17.4316Z" fill="black"/>
<path d="M335.033 17.5584C334.731 17.924 334.613 18.3413 334.695 18.7523C334.742 19.2419 334.83 19.7295 334.959 20.2129C335.078 20.6759 335.151 21.1433 335.175 21.6124C335.2 22.0788 335.036 22.5414 334.702 22.9549C334.275 23.4972 333.531 24.1182 332.529 23.6853C331.528 23.2523 331.128 22.4564 330.749 21.8048C329.816 20.2166 329.261 18.5459 329.105 16.8499C328.959 15.9644 329.114 15.0689 329.558 14.226C329.832 13.8446 330.249 13.5135 330.772 13.263C331.294 13.0124 331.905 12.8504 332.55 12.7916C334.133 12.6691 335.733 12.6559 337.321 12.7522C338.12 12.7463 338.917 12.7098 339.71 12.6429C340.834 12.5745 341.964 12.5438 343.093 12.5511C345.356 12.5778 347.615 12.6829 349.861 12.8659C352.094 13.0234 354.334 13.242 356.574 13.2814C361.257 13.3645 365.947 13.2158 370.63 13.2814C372.829 13.3207 375.015 13.5088 377.201 13.3032C379.387 13.0977 381.404 12.6735 383.563 12.6167C385.721 12.5598 387.995 12.6429 390.215 12.6604C392.022 12.637 393.814 12.4425 395.534 12.0831C398.999 11.4534 402.593 10.7712 406.118 11.6196C407.087 11.8607 407.999 12.189 408.825 12.5948C409.116 12.7347 409.055 13.054 408.67 12.8703C407.082 12.1063 405.173 11.6717 403.195 11.6239C401.428 11.6276 399.672 11.8 397.984 12.1356C396.346 12.4242 394.722 12.7697 393.044 12.9621C391.095 13.1152 389.127 13.1416 387.17 13.0409C386.1 13.0409 385.031 13.019 383.962 13.0409C382.883 13.0861 381.812 13.19 380.761 13.3514C378.818 13.6782 376.82 13.8501 374.812 13.863C372.579 13.8062 370.359 13.7143 368.119 13.71C365.879 13.7056 363.639 13.7318 361.406 13.7406C359.173 13.7742 356.939 13.7333 354.713 13.6181C352.541 13.4826 350.368 13.2945 348.196 13.1808C346.061 13.0292 343.913 12.9737 341.767 13.0146C340.779 13.0146 339.811 13.1239 338.83 13.1764C338.086 13.207 337.34 13.207 336.597 13.1764C335.121 13.1327 333.531 13.0321 332.116 13.3732C331.54 13.5125 331.031 13.7476 330.64 14.0547C330.249 14.3618 329.99 14.7302 329.89 15.1225C329.642 16.0209 329.617 16.9391 329.816 17.8426C329.939 18.6608 330.165 19.471 330.492 20.2654C330.792 21.0299 331.188 21.7773 331.677 22.5001C331.941 22.8718 332.523 23.7596 333.355 23.3748C333.878 23.075 334.258 22.6852 334.451 22.2509C334.621 21.8494 334.663 21.4298 334.573 21.0176C334.343 20.1063 334.214 19.1856 334.187 18.2625C334.192 17.9276 334.342 17.6004 334.62 17.3179C334.742 17.2085 335.128 17.4447 334.999 17.5671L335.033 17.5584Z" fill="black"/>
<path d="M603.247 33.678C603.141 33.8499 602.981 34.0053 602.775 34.1342C602.57 34.2631 602.325 34.3625 602.056 34.4258C601.811 34.468 601.556 34.477 601.305 34.4522C601.055 34.4273 600.815 34.3692 600.601 34.2815C600.078 34.0541 599.674 33.7292 599.444 33.35C599.147 32.9021 598.949 32.4296 598.855 31.9462C598.759 31.4732 598.701 30.9974 598.679 30.5206C598.639 30.0045 598.591 29.4885 598.551 28.9724C598.463 27.8485 598.381 26.7246 598.199 25.6051C598.097 24.9797 597.962 24.3543 597.772 23.7377C597.583 23.1211 597.299 22.5263 597.055 21.9184C597.021 21.831 597.217 21.8878 597.244 21.9184C597.538 22.3986 597.764 22.8948 597.921 23.401C598.097 23.917 598.233 24.4374 598.334 24.9578C598.551 25.9986 598.659 27.0482 598.74 28.0978C598.821 29.0818 598.882 30.0657 598.977 31.0497C599.058 31.9593 599.214 32.9914 600.046 33.7611C600.213 33.9316 600.447 34.0707 600.724 34.1644C601.001 34.2581 601.311 34.303 601.623 34.2946C601.943 34.2652 602.245 34.1834 602.502 34.0571C602.759 33.9308 602.962 33.7642 603.092 33.5731C603.139 33.5118 603.315 33.608 603.274 33.6649L603.247 33.678Z" fill="black"/>
<path d="M596.966 23.9389C596.805 23.3463 596.579 22.7617 596.29 22.1896C596.142 21.9021 595.959 21.6228 595.741 21.3543C595.497 21.0889 595.228 20.8333 594.936 20.589C594.862 20.5191 594.977 20.4928 595.058 20.5409C595.386 20.7571 595.66 21.005 595.87 21.2756C596.098 21.5455 596.288 21.828 596.438 22.1197C596.743 22.7262 596.969 23.3478 597.115 23.9783C597.115 24.0701 596.939 24.0045 596.919 23.9433L596.966 23.9389Z" fill="black"/>
<path d="M581.49 17.5059C581.225 17.173 580.822 16.8944 580.326 16.7012C580.073 16.5933 579.808 16.4968 579.534 16.4126L579.155 16.2989C579.019 16.2688 578.889 16.2276 578.769 16.1764C578.769 16.1764 578.668 16.0977 578.769 16.0889C578.902 16.0886 579.034 16.1065 579.155 16.1414C579.304 16.1764 579.446 16.2201 579.588 16.2595C579.893 16.3524 580.185 16.4622 580.461 16.5875C581.007 16.8092 581.442 17.1281 581.713 17.5059C581.781 17.6108 581.571 17.5758 581.524 17.5059H581.49Z" fill="black"/>
<path d="M547.815 15.7609C546.202 15.9316 544.616 16.1965 543.078 16.5525C541.529 16.9084 540.107 17.4616 538.895 18.1793C538.32 18.5379 537.806 18.9315 537.264 19.3076C536.809 19.624 536.316 19.9164 535.789 20.1823C534.704 20.7286 533.491 21.1597 532.196 21.4592C530.842 21.7523 529.238 21.8703 528.007 21.3237C527.939 21.2931 527.912 21.1881 528.007 21.2318C530.497 22.0715 533.421 21.0657 535.451 20.1036C535.977 19.8613 536.468 19.589 536.919 19.2901C537.461 18.9315 537.955 18.5467 538.496 18.1925C539.634 17.4757 540.982 16.9136 542.462 16.5394C544.139 16.1298 545.879 15.8366 547.653 15.6647C547.74 15.6647 547.876 15.7697 547.788 15.7828L547.815 15.7609Z" fill="black"/>
<path d="M528.711 20.6284C528.363 20.5099 528.026 20.3784 527.702 20.2348L527.195 20.0337L526.91 19.9331C526.814 19.9076 526.725 19.8722 526.646 19.8281C526.646 19.8063 526.586 19.7625 526.646 19.7538C526.736 19.7538 526.824 19.7721 526.897 19.8063L527.181 19.9025L527.702 20.108C528.028 20.254 528.367 20.3869 528.717 20.506C528.765 20.506 528.826 20.5628 528.819 20.6022C528.812 20.6415 528.758 20.6415 528.711 20.6284Z" fill="black"/>
<path d="M476.649 15.7085C475.522 15.7171 474.405 15.8487 473.346 16.0977C472.829 16.2186 472.327 16.3648 471.844 16.535C471.6 16.6225 471.357 16.7187 471.12 16.8237C470.883 16.9286 470.693 17.0686 470.443 17.0904C470.402 17.0904 470.342 17.0511 470.355 17.0248C470.369 16.9986 470.531 16.8936 470.639 16.8368L470.971 16.675C471.201 16.57 471.431 16.4738 471.648 16.3863C472.135 16.202 472.646 16.0468 473.177 15.9228C474.253 15.6786 475.387 15.5587 476.527 15.5686C476.608 15.5686 476.737 15.691 476.615 15.691L476.649 15.7085Z" fill="black"/>
<path d="M467.208 20.5102C466.428 21.2731 465.282 21.8493 463.946 22.1502C462.545 22.4738 461.138 22.1502 459.886 21.7129C459.534 21.5817 459.209 21.4374 458.857 21.2756C458.499 21.1352 458.156 20.9803 457.828 20.812C457.74 20.7639 457.754 20.6677 457.889 20.7027C458.189 20.7996 458.474 20.9137 458.742 21.0438L459.615 21.4111C460.198 21.6618 460.834 21.8563 461.503 21.9884C462.167 22.1097 462.87 22.1097 463.533 21.9884C464.203 21.8587 464.839 21.6657 465.421 21.4155C466.051 21.1452 466.589 20.7956 467.005 20.3878C467.052 20.3441 467.215 20.4403 467.161 20.4928L467.208 20.5102Z" fill="black"/>
<path d="M459.263 20.3485C458.75 20.2572 458.284 20.0808 457.909 19.8369C457.714 19.7172 457.537 19.5853 457.381 19.4433C457.21 19.3128 457.073 19.165 456.975 19.0059C456.975 18.9447 457.07 18.9622 457.111 19.0059C457.263 19.1281 457.405 19.255 457.537 19.3864C457.68 19.5128 457.836 19.6326 458.004 19.745C458.34 19.9742 458.765 20.1405 459.236 20.2261C459.266 20.2325 459.293 20.2434 459.315 20.2578C459.337 20.2722 459.354 20.2898 459.364 20.3092C459.364 20.3441 459.364 20.3704 459.29 20.3616L459.263 20.3485Z" fill="black"/>
<path d="M424.404 16.0977C423.647 16.292 422.967 16.5925 422.412 16.9775C421.858 17.3625 421.442 17.8223 421.196 18.3237C420.916 18.8195 420.738 19.3371 420.668 19.863C420.567 20.5802 420.37 21.2931 420.181 22.0015C419.809 23.4666 419.463 24.9272 419.301 26.4054C419.22 27.1444 419.159 27.8879 419.03 28.627C418.936 29.1692 418.814 29.7159 418.678 30.2582C418.552 30.8288 418.346 31.3908 418.063 31.9375C417.838 32.4565 417.364 32.9159 416.709 33.2495C416.614 33.2888 416.425 33.1751 416.506 33.1226C417.657 32.4011 418.056 31.3733 418.32 30.3981C418.647 29.1412 418.872 27.8742 418.996 26.6022C419.152 25.1153 419.47 23.6459 419.849 22.1721C420.045 21.433 420.255 20.6896 420.384 19.9418C420.449 19.4275 420.597 18.9189 420.824 18.4242C421.052 17.8668 421.481 17.3522 422.076 16.9227C422.671 16.4932 423.416 16.161 424.248 15.9534C424.35 15.9315 424.512 16.0627 424.404 16.0889V16.0977Z" fill="black"/>
<path d="M404.346 20.1867C403.581 19.1634 402.62 18.127 400.847 17.7596C399.805 17.5453 398.702 17.5759 397.646 17.3923C396.662 17.1529 395.732 16.8309 394.878 16.4345C393.849 16.0584 392.665 16.0366 391.535 15.8879C391.427 15.8879 391.305 15.7129 391.474 15.7348C392.532 15.7942 393.573 15.9412 394.573 16.1721C395.568 16.4826 396.387 16.9943 397.47 17.1998C398.553 17.4054 399.723 17.3573 400.813 17.589C401.653 17.7682 402.402 18.0917 402.979 18.5249C403.621 19.0218 404.149 19.5755 404.549 20.1692C404.63 20.2829 404.393 20.2436 404.346 20.1692V20.1867Z" fill="black"/>
<path d="M333.159 16.5176C332.771 17.727 332.592 18.9605 332.624 20.1955C332.721 20.8069 332.703 21.4236 332.57 22.0322C332.468 22.299 332.177 22.5789 331.697 22.4695C331.636 22.4695 331.453 22.3077 331.595 22.2902C331.751 22.286 331.899 22.2474 332.015 22.1809C332.13 22.0899 332.206 21.9815 332.238 21.866C332.334 21.5626 332.366 21.2522 332.333 20.9433C332.271 20.08 332.3 19.215 332.421 18.3543C332.524 17.7057 332.698 17.0627 332.942 16.4301C332.976 16.3601 333.179 16.4651 333.159 16.5307V16.5176Z" fill="black"/>
<path d="M293.852 17.7289C293.472 17.3539 293.049 17.0252 292.592 16.7495C292.016 16.3414 291.444 15.9333 290.863 15.5302C290.409 15.2191 289.934 14.9334 289.49 14.6069C289.072 14.2402 288.56 13.9981 288.011 13.908C287.972 13.9111 287.935 13.9253 287.904 13.9488C286.057 13.6019 284.18 13.7703 282.292 13.5815C280.288 13.3775 278.298 12.8827 276.273 13.0255C274.518 13.1479 272.865 13.8672 271.238 14.4692C269.774 15.015 268.218 15.2854 266.846 16.0557C264.198 17.5402 263.841 20.7387 264.05 23.4832C264.193 25.3452 264.514 27.6408 265.58 29.2069C266.407 30.3853 267.55 29.2834 267.963 28.3499C268.708 26.6665 268.345 24.7024 269.06 23.0088C270.039 20.6928 272.763 20.5347 274.941 20.3969C277.589 20.2235 280.211 20.6265 282.848 20.7438C282.891 20.739 282.931 20.7232 282.966 20.6979C283.445 20.7489 283.92 20.7948 284.394 20.8866C284.869 20.9785 285.236 21.1213 285.68 21.1723C286.435 21.259 287.21 21.1162 287.48 21.9834C287.802 22.9323 287.48 24.8147 288.863 25.0136C289.175 25.02 289.483 24.9405 289.752 24.784C290.022 24.6275 290.244 24.3999 290.393 24.126C290.591 23.8005 290.762 23.4592 290.903 23.1057C291.113 22.58 291.517 22.1546 292.031 21.9171C292.362 21.7881 292.663 21.5945 292.918 21.3474C293.173 21.1004 293.376 20.805 293.515 20.4785C293.821 19.6368 293.77 18.739 293.939 17.8718C294.005 17.734 293.939 17.7085 293.852 17.7289Z" fill="url(#paint2_radial_99_2)"/>
<path d="M283.14 20.3408C280.817 19.9085 278.457 19.7119 276.095 19.7542C274.941 19.7988 273.791 19.9129 272.651 20.0959C271.756 20.2039 270.901 20.5259 270.157 21.0346C269.419 21.5737 268.852 22.3141 268.524 23.1669C268.255 23.9301 268.092 24.7265 268.04 25.534C267.981 26.3796 267.844 27.218 267.632 28.0387C267.543 28.3532 267.398 28.6488 267.203 28.911C267.157 28.9621 267.203 28.911 267.203 28.911L267.162 28.957L267.07 29.0437L266.999 29.11L266.923 29.161H266.882C266.846 29.161 266.923 29.161 266.882 29.161L266.805 29.1865C266.877 29.1865 266.805 29.1865 266.805 29.1865H266.678L266.601 29.161C266.512 29.1317 266.43 29.0829 266.361 29.0182C266.172 28.842 266.013 28.635 265.892 28.406C265.594 27.8343 265.363 27.23 265.203 26.6052C264.833 25.2744 264.618 23.9047 264.566 22.5242C264.484 20.7234 264.647 18.6217 265.907 17.2188C266.6 16.5478 267.448 16.0588 268.376 15.7955C269.33 15.469 270.315 15.2344 271.264 14.8824C272.357 14.4384 273.474 14.0569 274.61 13.7397C275.187 13.5925 275.776 13.5003 276.37 13.4642C277.007 13.442 277.645 13.4659 278.278 13.5356C279.548 13.6581 280.829 13.9029 282.079 14.0458C282.721 14.112 283.367 14.1376 284.012 14.1223C284.639 14.1223 285.262 14.0866 285.889 14.1223C286.505 14.1435 287.117 14.229 287.716 14.3773C287.914 14.4284 288.226 14.0151 288.006 13.9743C286.757 13.7568 285.489 13.6663 284.221 13.704C282.91 13.6725 281.602 13.5464 280.308 13.3265C279.035 13.0904 277.741 12.9913 276.447 13.0306C275.245 13.1443 274.065 13.4277 272.942 13.8723C271.922 14.2447 270.876 14.6426 269.81 14.9589C268.804 15.2101 267.832 15.5782 266.912 16.0557C266.015 16.5497 265.282 17.2965 264.805 18.2033C264.388 19.0794 264.137 20.0258 264.066 20.9938C263.985 21.9896 264.004 22.9911 264.122 23.9832C264.187 24.6518 264.291 25.3161 264.433 25.9727C264.567 26.5759 264.737 27.1704 264.943 27.753C265.11 28.344 265.391 28.8968 265.77 29.3804C265.92 29.5583 266.124 29.682 266.351 29.7324C266.484 29.7534 266.62 29.7465 266.75 29.7123C266.88 29.678 267.001 29.6171 267.106 29.5334C267.726 29.0432 268.141 28.3392 268.269 27.5592C268.451 26.6798 268.582 25.7907 268.662 24.8963C268.724 24.1029 268.943 23.3297 269.305 22.6211C269.676 21.9345 270.269 21.3947 270.988 21.0907C271.388 20.9176 271.808 20.7943 272.238 20.7234C272.799 20.6214 273.365 20.5398 273.937 20.4785C276.284 20.2872 278.645 20.3385 280.982 20.6316C281.619 20.6928 282.262 20.7132 282.9 20.7438C282.955 20.7384 283.009 20.7192 283.055 20.688C283.101 20.6569 283.139 20.6147 283.165 20.5653C283.196 20.5143 283.247 20.3612 283.165 20.3408H283.14Z" fill="black"/>
<path d="M282.931 20.7081C283.344 20.754 283.757 20.7897 284.17 20.856C284.583 20.9223 284.925 21.0601 285.308 21.1315C285.595 21.18 285.884 21.2107 286.175 21.2233C286.413 21.2233 286.651 21.2489 286.884 21.2998C287.394 21.4427 287.542 21.9222 287.619 22.4017C287.695 22.8813 287.731 23.3404 287.843 23.8046C287.876 24.0293 287.954 24.2449 288.073 24.438C288.193 24.6311 288.35 24.7975 288.537 24.9269C288.794 25.0311 289.076 25.0577 289.348 25.0033C289.62 24.9489 289.87 24.8159 290.067 24.6208C290.477 24.1824 290.787 23.6602 290.975 23.0904C291.081 22.8149 291.24 22.5634 291.445 22.3507C291.692 22.1391 291.971 21.9671 292.271 21.8406C292.637 21.6702 292.963 21.4232 293.225 21.1162C293.447 20.8261 293.605 20.4923 293.689 20.1367C293.883 19.397 293.842 18.6063 294 17.8819C294 17.785 293.96 17.7238 293.858 17.7442C293.803 17.76 293.753 17.7894 293.713 17.8295C293.673 17.8696 293.644 17.9193 293.628 17.9738C293.495 18.6217 293.501 19.2899 293.383 19.9378C293.337 20.2352 293.242 20.523 293.103 20.7897C292.939 21.0601 292.704 21.2806 292.424 21.4274C292.122 21.5669 291.828 21.7218 291.542 21.8916C291.252 22.078 291.007 22.3252 290.822 22.616C290.532 23.1261 290.379 23.672 290.042 24.1464C289.923 24.3257 289.746 24.458 289.54 24.5204C289.334 24.5828 289.113 24.5714 288.914 24.4882C288.751 24.3676 288.615 24.2148 288.513 24.0393C288.411 23.8639 288.346 23.6694 288.323 23.4679C288.216 23.0292 288.185 22.5752 288.114 22.1314C288.107 21.8792 288.036 21.6329 287.906 21.4165C287.777 21.2002 287.593 21.0211 287.374 20.8968C287.138 20.8129 286.889 20.7715 286.639 20.7744C286.323 20.7744 286.007 20.7744 285.695 20.7132C285.499 20.6776 285.305 20.6316 285.114 20.5754C284.905 20.5244 284.691 20.4785 284.476 20.4479C284.014 20.3766 283.544 20.3663 283.078 20.4173C282.961 20.4173 282.737 20.6877 282.936 20.7132L282.931 20.7081Z" fill="black"/>
<path d="M287.853 14.2448C288.319 14.3443 288.743 14.5847 289.067 14.9334C289.394 15.1987 289.74 15.4436 290.087 15.6578C290.888 16.2037 291.664 16.7852 292.454 17.3413C292.664 17.4841 292.868 17.627 293.082 17.7647C293.179 17.8372 293.284 17.9004 293.393 17.9534C293.503 17.9878 293.616 18.0151 293.73 18.0351C293.837 18.0351 293.964 17.882 293.903 17.7902C293.63 17.4675 293.3 17.1978 292.929 16.9944L291.694 16.117C291.307 15.8415 290.914 15.5609 290.516 15.2956C290.118 15.0304 289.797 14.8365 289.45 14.5814C289.049 14.2172 288.547 13.9825 288.011 13.9081C287.863 13.9081 287.639 14.2346 287.853 14.2448Z" fill="black"/>
<path d="M264.157 23.825C264.246 24.1111 264.359 24.3892 264.494 24.6565C264.612 24.936 264.811 25.1739 265.065 25.3401C265.601 25.6156 266.029 24.83 266.182 24.4525C266.375 23.8631 266.535 23.2637 266.662 22.6568C266.746 22.306 266.864 21.9643 267.014 21.6365C267.18 21.2976 267.41 20.9944 267.692 20.7438C268.104 20.3717 268.556 20.0466 269.039 19.7745C269.519 19.4934 270.033 19.2772 270.57 19.1318C270.641 19.1318 270.723 18.9481 270.605 18.9787C269.721 19.2193 268.894 19.6338 268.172 20.1979C267.554 20.6094 267.066 21.1879 266.764 21.8661C266.554 22.4646 266.383 23.0764 266.254 23.6975C266.183 24.0046 266.086 24.305 265.963 24.5953C265.856 24.8249 265.703 25.1054 265.453 25.1871C265.203 25.2687 264.861 24.8453 264.729 24.6157C264.563 24.3282 264.425 24.0259 264.315 23.7128C264.29 23.6363 264.142 23.7536 264.167 23.825H264.157Z" fill="black"/>
<path d="M267.315 19.6266C267.956 19.1454 268.655 18.7477 269.397 18.4431C269.764 18.2924 270.138 18.1613 270.519 18.0503C270.708 17.9941 270.896 17.938 271.085 17.8921C271.292 17.8464 271.495 17.785 271.692 17.7085C271.728 17.7085 271.804 17.5809 271.723 17.5809C271.521 17.5889 271.322 17.6267 271.131 17.6932L270.519 17.8615C270.138 17.977 269.763 18.1132 269.397 18.2696C268.637 18.5839 267.922 18.9954 267.269 19.4939C267.178 19.5602 267.198 19.7133 267.315 19.6266Z" fill="black"/>
<path d="M282.083 15.7394C282.593 16.2087 283.103 16.724 283.669 17.1729C284.213 17.6849 284.887 18.0378 285.618 18.1931C285.796 18.2237 285.977 18.2182 286.153 18.177C286.328 18.1358 286.493 18.0598 286.638 17.9534C286.674 17.9279 286.694 17.8259 286.638 17.8463C286.498 17.9087 286.353 17.9616 286.205 18.0044C286.053 18.03 285.898 18.03 285.746 18.0044C285.401 17.9571 285.07 17.8409 284.771 17.6626C284.126 17.2811 283.528 16.8238 282.991 16.3005C282.736 16.0659 282.481 15.8261 282.226 15.6017C282.164 15.5506 282.037 15.6884 282.093 15.7394H282.083Z" fill="black"/>
<defs>
<radialGradient id="paint0_radial_99_2" cx="0" cy="0" r="1" gradientUnits="userSpaceOnUse" gradientTransform="translate(123 13.9624) rotate(90) scale(13.9624 109)">
<stop stop-color="white"/>
<stop offset="1" stop-color="white" stop-opacity="0.81"/>
</radialGradient>
<radialGradient id="paint1_radial_99_2" cx="0" cy="0" r="1" gradientUnits="userSpaceOnUse" gradientTransform="translate(466.5 25.0537) rotate(90) scale(14.0503 137.5)">
<stop stop-color="white" stop-opacity="0.93"/>
<stop offset="1" stop-color="white"/>
</radialGradient>
<radialGradient id="paint2_radial_99_2" cx="0" cy="0" r="1" gradientUnits="userSpaceOnUse" gradientTransform="translate(278.983 21.3592) rotate(90) scale(8.35919 14.9829)">
<stop stop-color="white" stop-opacity="0.93"/>
<stop offset="1" stop-color="white"/>
</radialGradient>
</defs>
</svg>
