<svg width="83" height="23" viewBox="0 0 83 23" fill="none" xmlns="http://www.w3.org/2000/svg">
<path d="M8.4082 18.2207C8.4082 17.9993 8.37565 17.8008 8.31055 17.625C8.24544 17.4427 8.125 17.2734 7.94922 17.1172C7.77344 16.9609 7.51953 16.8047 7.1875 16.6484C6.86198 16.4857 6.43229 16.3164 5.89844 16.1406C5.27344 15.9323 4.67122 15.6979 4.0918 15.4375C3.51237 15.1706 2.99479 14.8613 2.53906 14.5098C2.08333 14.1517 1.72201 13.735 1.45508 13.2598C1.18815 12.778 1.05469 12.2181 1.05469 11.5801C1.05469 10.9681 1.19141 10.418 1.46484 9.92969C1.73828 9.4349 2.11914 9.01497 2.60742 8.66992C3.10221 8.31836 3.68164 8.05143 4.3457 7.86914C5.00977 7.68034 5.73568 7.58594 6.52344 7.58594C7.5651 7.58594 8.48307 7.76823 9.27734 8.13281C10.0781 8.49089 10.7031 9.00195 11.1523 9.66602C11.6081 10.3236 11.8359 11.1016 11.8359 12H8.42773C8.42773 11.6419 8.35286 11.3262 8.20312 11.0527C8.0599 10.7793 7.8418 10.5645 7.54883 10.4082C7.25586 10.252 6.88802 10.1738 6.44531 10.1738C6.01562 10.1738 5.6543 10.2389 5.36133 10.3691C5.06836 10.4993 4.84701 10.6751 4.69727 10.8965C4.54753 11.1113 4.47266 11.349 4.47266 11.6094C4.47266 11.8242 4.53125 12.0195 4.64844 12.1953C4.77214 12.3646 4.94466 12.5241 5.16602 12.6738C5.39388 12.8236 5.66732 12.9668 5.98633 13.1035C6.31185 13.2402 6.67643 13.3737 7.08008 13.5039C7.83529 13.7448 8.50586 14.015 9.0918 14.3145C9.68424 14.6074 10.1823 14.9427 10.5859 15.3203C10.9961 15.6914 11.3053 16.1146 11.5137 16.5898C11.7285 17.0651 11.8359 17.6022 11.8359 18.2012C11.8359 18.8392 11.7122 19.4056 11.4648 19.9004C11.2174 20.3952 10.8626 20.8151 10.4004 21.1602C9.93815 21.4987 9.38477 21.7559 8.74023 21.9316C8.0957 22.1074 7.3763 22.1953 6.58203 22.1953C5.85286 22.1953 5.13346 22.1042 4.42383 21.9219C3.7207 21.7331 3.08268 21.4466 2.50977 21.0625C1.93685 20.6719 1.47786 20.1738 1.13281 19.5684C0.794271 18.9564 0.625 18.2305 0.625 17.3906H4.0625C4.0625 17.8073 4.11784 18.1589 4.22852 18.4453C4.33919 18.7318 4.50195 18.9629 4.7168 19.1387C4.93164 19.3079 5.19531 19.4316 5.50781 19.5098C5.82031 19.5814 6.17839 19.6172 6.58203 19.6172C7.01823 19.6172 7.36979 19.5553 7.63672 19.4316C7.90365 19.3014 8.09896 19.1322 8.22266 18.9238C8.34635 18.709 8.4082 18.4746 8.4082 18.2207ZM25.6348 14.6074V15.1836C25.6348 16.2708 25.4818 17.2474 25.1758 18.1133C24.8763 18.9727 24.4499 19.7083 23.8965 20.3203C23.3431 20.9258 22.6888 21.3913 21.9336 21.7168C21.1784 22.0358 20.3451 22.1953 19.4336 22.1953C18.5156 22.1953 17.6758 22.0358 16.9141 21.7168C16.1589 21.3913 15.5013 20.9258 14.9414 20.3203C14.388 19.7083 13.9583 18.9727 13.6523 18.1133C13.3529 17.2474 13.2031 16.2708 13.2031 15.1836V14.6074C13.2031 13.5202 13.3529 12.5436 13.6523 11.6777C13.9583 10.8118 14.3848 10.0762 14.9316 9.4707C15.485 8.85872 16.1393 8.39323 16.8945 8.07422C17.6562 7.7487 18.4961 7.58594 19.4141 7.58594C20.3255 7.58594 21.1589 7.7487 21.9141 8.07422C22.6758 8.39323 23.3333 8.85872 23.8867 9.4707C24.4401 10.0762 24.8698 10.8118 25.1758 11.6777C25.4818 12.5436 25.6348 13.5202 25.6348 14.6074ZM22.1582 15.1836V14.5879C22.1582 13.8848 22.0964 13.2663 21.9727 12.7324C21.8555 12.1921 21.6797 11.7396 21.4453 11.375C21.2109 11.0104 20.9212 10.737 20.5762 10.5547C20.2376 10.3659 19.8503 10.2715 19.4141 10.2715C18.9583 10.2715 18.5612 10.3659 18.2227 10.5547C17.8841 10.737 17.6009 11.0104 17.373 11.375C17.1452 11.7396 16.9727 12.1921 16.8555 12.7324C16.7448 13.2663 16.6895 13.8848 16.6895 14.5879V15.1836C16.6895 15.8802 16.7448 16.4987 16.8555 17.0391C16.9727 17.5729 17.1452 18.0254 17.373 18.3965C17.6074 18.7676 17.8939 19.0475 18.2324 19.2363C18.5775 19.4251 18.9779 19.5195 19.4336 19.5195C19.8698 19.5195 20.2572 19.4251 20.5957 19.2363C20.9342 19.0475 21.2174 18.7676 21.4453 18.3965C21.6797 18.0254 21.8555 17.5729 21.9727 17.0391C22.0964 16.4987 22.1582 15.8802 22.1582 15.1836ZM35.498 17.1855H38.916C38.8704 18.1751 38.6035 19.0475 38.1152 19.8027C37.627 20.5579 36.9499 21.1471 36.084 21.5703C35.2246 21.987 34.209 22.1953 33.0371 22.1953C32.0866 22.1953 31.237 22.0358 30.4883 21.7168C29.7461 21.3978 29.1146 20.9388 28.5938 20.3398C28.0794 19.7409 27.6855 19.015 27.4121 18.1621C27.1452 17.3092 27.0117 16.349 27.0117 15.2812V14.5098C27.0117 13.4421 27.1517 12.4818 27.4316 11.6289C27.7181 10.7695 28.1217 10.0404 28.6426 9.44141C29.1699 8.83594 29.8014 8.3737 30.5371 8.05469C31.2728 7.73568 32.0898 7.57617 32.9883 7.57617C34.2253 7.57617 35.2702 7.79753 36.123 8.24023C36.9759 8.68294 37.6367 9.29167 38.1055 10.0664C38.5742 10.8346 38.8509 11.7103 38.9355 12.6934H35.5176C35.5046 12.1595 35.4134 11.7135 35.2441 11.3555C35.0749 10.9909 34.8079 10.7174 34.4434 10.5352C34.0788 10.3529 33.5938 10.2617 32.9883 10.2617C32.5651 10.2617 32.1973 10.3398 31.8848 10.4961C31.5723 10.6523 31.3118 10.8997 31.1035 11.2383C30.8952 11.5768 30.7389 12.0163 30.6348 12.5566C30.5371 13.0905 30.4883 13.735 30.4883 14.4902V15.2812C30.4883 16.0365 30.5339 16.681 30.625 17.2148C30.7161 17.7487 30.8626 18.1849 31.0645 18.5234C31.2663 18.862 31.5267 19.1126 31.8457 19.2754C32.1712 19.4316 32.5684 19.5098 33.0371 19.5098C33.5579 19.5098 33.9974 19.4284 34.3555 19.2656C34.7135 19.0964 34.9902 18.8424 35.1855 18.5039C35.3809 18.1589 35.485 17.7194 35.498 17.1855ZM44.1797 7.78125V22H40.7617V7.78125H44.1797ZM52.793 10.7695L49.3262 22H45.6445L50.8691 7.78125H53.2031L52.793 10.7695ZM55.6641 22L52.1875 10.7695L51.7383 7.78125H54.1016L59.3555 22H55.6641ZM55.5273 16.6973V19.3438H48.2324V16.6973H55.5273ZM69.7949 19.3633V22H62.6074V19.3633H69.7949ZM63.8281 7.78125V22H60.4004V7.78125H63.8281ZM78.5645 18.2207C78.5645 17.9993 78.5319 17.8008 78.4668 17.625C78.4017 17.4427 78.2812 17.2734 78.1055 17.1172C77.9297 16.9609 77.6758 16.8047 77.3438 16.6484C77.0182 16.4857 76.5885 16.3164 76.0547 16.1406C75.4297 15.9323 74.8275 15.6979 74.248 15.4375C73.6686 15.1706 73.151 14.8613 72.6953 14.5098C72.2396 14.1517 71.8783 13.735 71.6113 13.2598C71.3444 12.778 71.2109 12.2181 71.2109 11.5801C71.2109 10.9681 71.3477 10.418 71.6211 9.92969C71.8945 9.4349 72.2754 9.01497 72.7637 8.66992C73.2585 8.31836 73.8379 8.05143 74.502 7.86914C75.166 7.68034 75.8919 7.58594 76.6797 7.58594C77.7214 7.58594 78.6393 7.76823 79.4336 8.13281C80.2344 8.49089 80.8594 9.00195 81.3086 9.66602C81.7643 10.3236 81.9922 11.1016 81.9922 12H78.584C78.584 11.6419 78.5091 11.3262 78.3594 11.0527C78.2161 10.7793 77.998 10.5645 77.7051 10.4082C77.4121 10.252 77.0443 10.1738 76.6016 10.1738C76.1719 10.1738 75.8105 10.2389 75.5176 10.3691C75.2246 10.4993 75.0033 10.6751 74.8535 10.8965C74.7038 11.1113 74.6289 11.349 74.6289 11.6094C74.6289 11.8242 74.6875 12.0195 74.8047 12.1953C74.9284 12.3646 75.1009 12.5241 75.3223 12.6738C75.5501 12.8236 75.8236 12.9668 76.1426 13.1035C76.4681 13.2402 76.8327 13.3737 77.2363 13.5039C77.9915 13.7448 78.6621 14.015 79.248 14.3145C79.8405 14.6074 80.3385 14.9427 80.7422 15.3203C81.1523 15.6914 81.4616 16.1146 81.6699 16.5898C81.8848 17.0651 81.9922 17.6022 81.9922 18.2012C81.9922 18.8392 81.8685 19.4056 81.6211 19.9004C81.3737 20.3952 81.0189 20.8151 80.5566 21.1602C80.0944 21.4987 79.541 21.7559 78.8965 21.9316C78.252 22.1074 77.5326 22.1953 76.7383 22.1953C76.0091 22.1953 75.2897 22.1042 74.5801 21.9219C73.877 21.7331 73.2389 21.4466 72.666 21.0625C72.0931 20.6719 71.6341 20.1738 71.2891 19.5684C70.9505 18.9564 70.7812 18.2305 70.7812 17.3906H74.2188C74.2188 17.8073 74.2741 18.1589 74.3848 18.4453C74.4954 18.7318 74.6582 18.9629 74.873 19.1387C75.0879 19.3079 75.3516 19.4316 75.6641 19.5098C75.9766 19.5814 76.3346 19.6172 76.7383 19.6172C77.1745 19.6172 77.526 19.5553 77.793 19.4316C78.0599 19.3014 78.2552 19.1322 78.3789 18.9238C78.5026 18.709 78.5645 18.4746 78.5645 18.2207Z" fill="#D232EA"/>
<path d="M1.58924 9.65924C1.64996 9.65144 1.70848 9.63164 1.76132 9.60104C1.81416 9.57043 1.86026 9.52964 1.89687 9.48107C1.93348 9.43251 1.95987 9.37716 1.97446 9.31831C1.98905 9.25947 1.99155 9.19832 1.98182 9.1385C1.95016 8.87862 1.93412 8.6171 1.93379 8.35533C1.92885 8.20643 1.94502 8.05758 1.98182 7.91311C2.17029 7.9024 2.35924 7.9024 2.54771 7.91311C3.97393 7.91311 5.41059 7.96477 6.83472 7.90278C6.86328 7.89773 6.88956 7.884 6.90989 7.86352C7.36929 7.88212 7.36511 9.60551 7.39017 9.88448C7.41378 10.2925 7.55912 10.6844 7.80781 11.0107C8.18159 11.4963 8.69528 11.3496 9.044 10.9301C9.70386 10.1345 9.36767 8.20448 10.8169 8.24374C11.3347 8.26027 11.838 8.48345 12.337 8.60123C12.5724 8.67105 12.8206 8.68743 13.0632 8.64914C13.3058 8.61086 13.5365 8.51891 13.7382 8.38012C14.0473 8.17348 14.325 7.94411 14.7134 7.93171C14.8468 7.93063 14.9771 7.97174 15.0853 8.04906C15.1934 8.12637 15.2739 8.23584 15.3148 8.36153C15.5236 8.843 15.5946 9.56625 16.1709 9.77909C16.7117 9.98574 17.2547 9.24802 17.5366 8.9112C17.7993 8.58295 18.1326 8.31663 18.5121 8.1315C18.8917 7.94637 19.3081 7.84707 19.7312 7.84079C19.7525 7.83873 19.7727 7.83086 19.7897 7.81806C19.9385 7.84398 20.0899 7.85231 20.2408 7.84285C20.4767 7.84285 20.7148 7.84285 20.9507 7.84285L22.2621 7.83046L23.5714 7.81806C24.0454 7.81806 24.5299 7.84079 25.0018 7.79946H25.0247C25.2968 8.09389 25.6055 8.35289 25.9435 8.57024C26.3607 8.79802 26.8307 8.91412 27.3071 8.90706C28.18 8.94219 28.8649 8.51031 29.6041 8.12182C29.9194 8.65496 30.1971 9.25836 30.9217 9.19016C31.0588 9.17457 31.1907 9.12949 31.3083 9.0581C31.4259 8.98671 31.5263 8.89072 31.6025 8.77688C31.6805 8.66561 31.7503 8.5489 31.8113 8.42765C31.8973 8.28816 31.9951 8.15612 32.1036 8.03296C32.3593 8.06258 32.6172 8.0695 32.8742 8.05363H33.7992C34.4216 8.0795 35.0449 8.06915 35.666 8.02263C36.2925 8.02263 36.6621 8.40699 36.9837 8.8988C37.1674 9.1819 37.4305 9.80803 37.8419 9.80183C38.1635 9.80183 38.3744 9.38854 38.5039 9.1571C38.7127 8.78721 38.838 8.33053 39.1303 8.01437C39.7996 7.93349 40.4754 7.91964 41.1475 7.97304C41.8914 8.00335 42.6365 7.99646 43.3797 7.95237C44.2341 7.89694 45.091 7.89004 45.9461 7.93171C46.7229 7.98131 47.4788 8.03503 48.2431 7.85732H48.264C48.6644 8.05081 48.9947 8.36183 49.2099 8.74795C49.3575 9.08082 49.4728 9.42676 49.5544 9.78116C49.6258 10.0867 49.8126 10.3536 50.0765 10.5271C50.2093 10.5896 50.3576 10.6125 50.5033 10.5931C50.649 10.5736 50.7858 10.5127 50.8971 10.4176C51.1548 10.1819 51.367 9.9018 51.5236 9.59105C51.608 9.44268 51.7089 9.30406 51.8243 9.17776C52.0498 8.94839 52.4048 8.89673 52.7097 8.8678C53.1941 8.82234 53.5783 8.76861 53.9772 8.47725C54.376 8.18588 54.7435 7.88831 55.2823 7.84285C55.3032 7.83913 55.3227 7.82985 55.3387 7.81599C56.3013 7.88212 57.2744 7.85525 58.2391 7.85525H59.7009C60.1701 7.88804 60.6413 7.87628 61.1083 7.82012C61.6428 7.92138 62.1377 8.20448 62.6222 8.44005C63.0732 8.66116 63.5514 8.94633 64.0672 8.79134C64.583 8.63636 64.963 8.09702 65.5289 8.23134C65.7377 8.283 65.886 8.46278 66.0698 8.56817C66.1607 8.60996 66.2598 8.63161 66.36 8.63161C66.4603 8.63161 66.5593 8.60996 66.6503 8.56817C66.8591 8.49378 67.0073 8.3202 67.2015 8.22928C67.3109 8.16889 67.4346 8.13857 67.5599 8.14148C67.6851 8.14438 67.8072 8.18041 67.9136 8.24581C68.2018 8.46898 68.277 8.87813 68.5693 9.11371C68.7052 9.23539 68.882 9.30277 69.0652 9.30277C69.2485 9.30277 69.4253 9.23539 69.5612 9.11371C69.864 8.84507 69.9788 8.40286 70.173 8.05363C71.5408 8.13422 72.9189 8.09496 74.2888 8.09496H76.5294C77.1913 8.09496 77.8575 8.10942 78.5194 8.05156C79.7368 8.71902 79.551 10.5065 80.8164 11.1161C81.0697 11.2375 81.3493 11.2952 81.6306 11.284C81.9118 11.2728 82.1858 11.1931 82.4285 11.052C82.8106 10.802 82.9505 10.335 82.9881 9.90928C83.0821 8.82854 82.6101 7.51429 81.919 6.68152C80.8749 5.41687 78.9684 5.00359 77.4127 4.80314C76.5379 4.69783 75.6558 4.66327 74.7753 4.69982C73.6665 4.73495 72.6141 5.00979 71.522 5.16477C70.2962 5.34041 69.2375 4.97259 68.089 4.6151C66.9781 4.27001 65.8818 4.30307 64.7479 4.43945C64.1869 4.53423 63.6194 4.58605 63.0503 4.59443C62.4834 4.56646 61.9258 4.44058 61.4027 4.22248C60.4087 3.81952 59.5797 3.11694 58.6735 2.56934C56.8422 1.44314 54.7832 0.79841 52.6178 1.05671C50.4524 1.31502 48.667 2.48461 46.8774 3.63355C45.9189 4.25347 44.8206 4.8734 43.6387 4.78661C42.6113 4.70395 41.7092 4.03443 40.8217 3.58189C38.8818 2.59413 36.7477 3.1376 34.7932 3.78853C33.841 4.10882 32.8449 4.39192 31.924 4.78661C30.9008 5.22263 29.9946 5.90248 28.9046 6.18145C27.7728 6.47075 26.595 5.95414 25.5635 5.56152C24.534 5.19576 23.5234 4.90646 22.4459 4.93333C21.502 4.96019 20.6124 5.32388 19.7459 5.65864C19.188 5.90457 18.5837 6.02996 17.973 6.02647C17.4285 5.97519 16.8918 5.86217 16.3735 5.68964C13.9971 5.04078 11.4913 5.41274 9.08159 5.45407C8.07305 5.49245 7.06373 5.40146 6.0788 5.18336C5.36674 5.01598 4.65258 4.79901 3.91129 4.81761C2.8672 4.8424 2.10084 5.51813 1.53495 6.32197C1.52439 6.33034 1.51584 6.34093 1.50989 6.35296C1.31009 6.78998 1.18316 7.25614 1.13402 7.73333C1.08599 8.15902 0.966969 8.59917 1.00873 9.02692C1.02961 9.34101 1.23843 9.67164 1.58924 9.65924Z" fill="url(#paint0_radial_252_2)"/>
<path d="M1.52398 6.50745C1.34047 6.86464 1.21828 7.2453 1.16168 7.63616C1.14024 7.78627 1.12523 7.93637 1.10808 8.08843C1.09093 8.24048 1.0502 8.38669 1.02876 8.53874C0.979453 8.8565 0.962302 9.25028 1.24314 9.49591C1.29237 9.54349 1.35319 9.5799 1.42072 9.6022C1.48825 9.6245 1.5606 9.63207 1.63193 9.62429C1.70327 9.61651 1.7716 9.59361 1.83141 9.55743C1.89123 9.52125 1.94087 9.4728 1.97633 9.41598C2.03959 9.26401 2.0508 9.09819 2.00849 8.94032C1.98454 8.71359 1.97666 8.48568 1.98491 8.25803C1.98451 8.16486 1.99602 8.07196 2.01921 7.98121C2.01921 7.95977 2.01921 7.98121 2.01921 7.98121V7.95977C2.02993 7.93247 2.01921 7.97146 2.01921 7.95977C2.01921 7.94807 1.99991 7.97731 2.01921 7.95977L1.99777 7.97536H1.98062H1.96561H2.09424C2.50371 7.97536 2.91104 7.97536 3.32051 7.97536H6.60057C6.73563 7.97536 6.87283 7.97536 7.00789 7.97536C7.03793 7.9726 7.06664 7.96267 7.09111 7.94658C7.11557 7.93049 7.13494 7.90881 7.14724 7.88374C7.16868 7.84475 7.16654 7.79017 7.10651 7.78822C6.57484 7.76483 6.0346 7.78822 5.50507 7.77652H2.30648C2.21747 7.7668 2.12751 7.7668 2.0385 7.77652C1.9816 7.79534 1.93059 7.82647 1.88987 7.86723C1.84916 7.90799 1.81997 7.95714 1.80483 8.01045C1.74306 8.2153 1.72273 8.42865 1.7448 8.64011C1.7448 8.83505 1.76624 9.01635 1.78982 9.20349C1.80378 9.2626 1.80378 9.32373 1.78982 9.38284L1.77696 9.41013C1.77696 9.39843 1.77696 9.41013 1.77696 9.41013C1.77382 9.41496 1.7694 9.41898 1.76409 9.42183C1.78982 9.40038 1.76409 9.42183 1.76409 9.42183C1.76409 9.42183 1.76409 9.42183 1.7448 9.42183C1.7255 9.42183 1.72765 9.42183 1.72122 9.42183H1.70407C1.67773 9.42484 1.65108 9.42484 1.62474 9.42183C1.29459 9.35555 1.21527 8.99101 1.21956 8.73174C1.22689 8.56661 1.24912 8.4023 1.28602 8.24048C1.31388 8.09924 1.3332 7.95672 1.3439 7.81356C1.36611 7.48017 1.42866 7.15003 1.53042 6.82911C1.56632 6.71994 1.60854 6.61257 1.6569 6.50745C1.66976 6.47821 1.66976 6.44312 1.62689 6.43922C1.58401 6.43532 1.54113 6.47626 1.52398 6.50745V6.50745Z" fill="black"/>
<path d="M7.00919 7.95023C7.03517 7.94549 7.06193 7.94664 7.08737 7.9536C7.11281 7.96056 7.13625 7.97313 7.15586 7.99034C7.20959 8.0423 7.25054 8.10536 7.27567 8.17482C7.35743 8.38623 7.40886 8.60755 7.42853 8.83256C7.46158 9.09525 7.48224 9.35995 7.5029 9.63467C7.51313 9.84632 7.53589 10.0572 7.57107 10.2663C7.64704 10.5782 7.80505 10.8656 8.02966 11.1005C8.14837 11.2256 8.31151 11.3022 8.48618 11.3151C8.59033 11.3108 8.69246 11.2858 8.78626 11.2416C8.88006 11.1975 8.96354 11.1351 9.03153 11.0584C9.1766 10.9211 9.29488 10.7594 9.38063 10.5812C9.45449 10.4088 9.51188 10.2303 9.55208 10.0478C9.59546 9.86528 9.63058 9.67878 9.67809 9.4963C9.72795 9.31533 9.79719 9.13991 9.88466 8.97292C9.95646 8.82452 10.0535 8.68893 10.1718 8.57187C10.2609 8.48265 10.3697 8.4141 10.4899 8.37134C10.7564 8.30112 11.0373 8.30112 11.3038 8.37134C11.6199 8.43751 11.9235 8.53978 12.2416 8.61999C12.5724 8.73496 12.9281 8.76534 13.2745 8.70823C13.5881 8.59425 13.881 8.43247 14.1421 8.22897C14.265 8.13531 14.4088 8.07092 14.562 8.04097C14.7152 8.01102 14.8735 8.01635 15.0242 8.05651C15.1298 8.10964 15.2218 8.18517 15.2933 8.27751C15.3649 8.36984 15.4141 8.47662 15.4373 8.58992C15.4786 8.71424 15.5137 8.84058 15.5592 8.9629C15.607 9.09207 15.6664 9.21688 15.7368 9.33588C15.9 9.62464 16.15 9.89736 16.5259 9.81514C16.8564 9.74295 17.125 9.46823 17.3419 9.23161C17.4596 9.10327 17.567 8.96691 17.6869 8.84258C17.8056 8.71956 17.9333 8.60497 18.069 8.49968C18.3733 8.26057 18.728 8.08941 19.1081 7.99836C19.311 7.9513 19.5192 7.92907 19.7278 7.93218C19.755 7.92975 19.781 7.92028 19.8032 7.90477C19.8254 7.88925 19.8428 7.86825 19.8538 7.84395C19.8724 7.80585 19.8703 7.75371 19.8187 7.75171C19.4121 7.75813 19.0111 7.84503 18.6403 8.00709C18.2694 8.16914 17.9366 8.40295 17.6621 8.69419C17.4162 8.93683 17.2138 9.22158 16.9453 9.44216C16.7387 9.61462 16.4619 9.74897 16.2119 9.56448C16.0672 9.44225 15.9504 9.29198 15.869 9.12332C15.8057 9.00549 15.7545 8.88191 15.7162 8.75435C15.6616 8.50956 15.5615 8.27648 15.4208 8.06654C15.3211 7.96575 15.1946 7.89369 15.0553 7.8583C14.9161 7.82291 14.7695 7.82558 14.6317 7.86601C14.3036 7.9724 13.9983 8.13619 13.731 8.34928C13.6062 8.43869 13.4664 8.50652 13.3179 8.54981C13.1456 8.58587 12.9675 8.58587 12.7953 8.54981C12.4719 8.48755 12.1526 8.40721 11.8388 8.30918C11.5508 8.21706 11.2514 8.16309 10.9485 8.14875C10.646 8.14388 10.3521 8.24659 10.1222 8.43752C9.84527 8.69509 9.64417 9.01976 9.53969 9.37799C9.41988 9.73493 9.38476 10.1119 9.26082 10.4669C9.20934 10.628 9.12267 10.7764 9.00674 10.902C8.87866 11.0344 8.74646 11.1667 8.54195 11.1386C8.36813 11.0993 8.21565 10.9985 8.11435 10.8559C7.97951 10.6892 7.87665 10.5004 7.81069 10.2984C7.78138 10.2232 7.75993 10.1452 7.74665 10.0658C7.73013 9.96554 7.7198 9.86528 7.71154 9.76301C7.68881 9.50834 7.67022 9.25166 7.64337 8.99699C7.62166 8.7439 7.57813 8.49303 7.51323 8.24701C7.46985 8.09662 7.40168 7.88406 7.23436 7.8239C7.16581 7.80608 7.0931 7.81102 7.02778 7.83794C6.98234 7.85598 6.92656 7.97028 7.01332 7.95023H7.00919Z" fill="black"/>
<path d="M25.0616 7.86613C25.1863 7.97737 25.3046 8.09043 25.4398 8.19254C25.563 8.28842 25.6921 8.37851 25.8265 8.46243C26.0976 8.63467 26.408 8.75526 26.7372 8.81619C26.9331 8.84782 27.1316 8.86672 27.3309 8.87272C27.5113 8.88125 27.6922 8.87698 27.8718 8.85996C28.1706 8.82875 28.4612 8.7548 28.7318 8.64113C29.0867 8.49525 29.4248 8.32202 29.7734 8.16702C29.8004 8.15625 29.8236 8.1397 29.841 8.11895C29.8584 8.09819 29.8693 8.07393 29.8728 8.04849C29.8728 7.99925 29.8115 7.99743 29.7692 8.01384C29.2114 8.24725 28.6895 8.58278 28.0641 8.67396C27.7063 8.72136 27.3422 8.72136 26.9844 8.67396C26.6591 8.6287 26.3487 8.52428 26.0737 8.3676C25.9258 8.28213 25.7846 8.18832 25.6511 8.08678C25.5011 7.97554 25.349 7.86795 25.1947 7.76037C25.1398 7.72207 25.0236 7.82054 25.0722 7.86613H25.0616Z" fill="black"/>
<path d="M29.6857 7.92409C29.8124 8.13176 29.927 8.35604 30.0598 8.56578C30.1708 8.76514 30.3416 8.92184 30.5464 9.01227C30.7977 9.09787 31.0715 9.07773 31.3085 8.9562C31.4998 8.83989 31.6536 8.66799 31.7509 8.46195C31.8072 8.35604 31.8595 8.25428 31.9238 8.1463C31.9553 8.09597 31.9902 8.04808 32.0284 8.00301C32.0827 7.94761 32.1318 7.88713 32.1752 7.82234C32.1953 7.78703 32.1752 7.74134 32.131 7.7538C32.0141 7.80834 31.916 7.89811 31.8494 8.01131C31.7851 8.10203 31.7266 8.19707 31.6745 8.29582C31.6302 8.38096 31.586 8.47233 31.5378 8.54917C31.4958 8.62837 31.4398 8.69879 31.3729 8.75684C31.2784 8.81917 31.1723 8.86042 31.0615 8.87795C30.9507 8.89547 30.8376 8.88888 30.7294 8.85859C30.5289 8.7904 30.3572 8.65335 30.2427 8.47026C30.1135 8.24475 29.969 8.02894 29.8104 7.82441C29.7682 7.77665 29.6556 7.88256 29.6857 7.93448V7.92409Z" fill="black"/>
<path d="M32.0078 7.90825C32.1122 7.93708 32.2213 7.94592 32.3291 7.93429H35.1431C35.28 7.93225 35.4167 7.92222 35.5524 7.90425C35.5994 7.90425 35.6977 7.79409 35.6138 7.78407C35.5039 7.76887 35.3932 7.75951 35.2822 7.75603H32.4744C32.3409 7.74575 32.2065 7.75384 32.0753 7.78007C32.0405 7.79208 31.9443 7.87821 32.0139 7.90625L32.0078 7.90825Z" fill="black"/>
<path d="M35.4727 7.922C35.7025 7.91142 35.9313 7.95694 36.1384 8.0544C36.322 8.15239 36.4829 8.28611 36.6109 8.44719C36.9017 8.79364 37.1108 9.19967 37.3925 9.55053C37.476 9.67507 37.6024 9.76661 37.7492 9.80871C37.8162 9.81957 37.8849 9.81568 37.9501 9.79735C38.0154 9.77902 38.0756 9.74671 38.1263 9.70279C38.3799 9.46666 38.5762 9.17873 38.7011 8.85984C38.7943 8.67227 38.8829 8.4847 38.9829 8.29934C39.023 8.22327 39.0678 8.14958 39.1169 8.07867C39.1396 8.04336 39.1623 8.01247 39.1873 7.97937L39.2101 7.95289L39.2532 7.91096C39.285 7.88007 39.3305 7.81166 39.2896 7.76973C39.2487 7.72781 39.1737 7.76973 39.1442 7.80504C38.9186 8.06303 38.7382 8.35526 38.6103 8.67006C38.5307 8.83115 38.4535 8.99445 38.3649 9.15112C38.3292 9.21791 38.2898 9.28274 38.2467 9.34531L38.1831 9.43799L38.1513 9.4755C38.1513 9.4755 38.1263 9.50419 38.1513 9.48874C38.1763 9.4733 38.1513 9.48874 38.1377 9.50198L38.1059 9.53508C38.1059 9.53508 38.0582 9.5748 38.09 9.55053L38.0604 9.5726L38.04 9.58584L38.0082 9.60128C37.9832 9.60128 38.0264 9.60128 38.0082 9.60128H37.99H37.9718H37.9264C37.9059 9.60147 37.8857 9.59693 37.8673 9.58804C37.8401 9.57868 37.8141 9.56608 37.7901 9.55053C37.7233 9.50623 37.6642 9.45185 37.6151 9.38944C37.3266 9.0474 37.1221 8.64799 36.8381 8.30375C36.6987 8.12182 36.5204 7.97128 36.3156 7.86241C36.0724 7.75477 35.8004 7.72464 35.5386 7.77635C35.4908 7.77635 35.4091 7.90876 35.4909 7.90655L35.4727 7.922Z" fill="black"/>
<path d="M39.1607 7.93763C39.3991 7.91631 39.6401 7.90251 39.8823 7.89632C40.1599 7.89027 40.4397 7.89632 40.7237 7.89632C41.2685 7.9074 41.8134 7.93259 42.3582 7.92352C43.6813 7.90337 45.0066 7.84191 46.3297 7.89733C47.0244 7.93724 47.7281 7.92192 48.4123 7.85198C48.443 7.84797 48.471 7.84019 48.4935 7.82941C48.516 7.81863 48.5322 7.80523 48.5406 7.79052C48.5532 7.76432 48.5196 7.74619 48.4628 7.75324C47.8508 7.81622 47.2227 7.83523 46.599 7.80967C45.9259 7.79052 45.2548 7.78246 44.5817 7.79153C43.9085 7.8006 43.2606 7.81974 42.6001 7.83284C42.0532 7.84392 41.5083 7.82478 40.9614 7.81168C40.6459 7.80463 40.3303 7.79959 40.0148 7.81168C39.728 7.81146 39.4434 7.83498 39.1734 7.8812C39.1271 7.89027 39.0682 7.94569 39.1586 7.93864L39.1607 7.93763Z" fill="black"/>
<path d="M48.3767 7.89916C48.6936 8.04174 48.9715 8.25389 49.1882 8.51865C49.3653 8.75854 49.4929 9.02904 49.564 9.31542C49.6879 9.75165 49.8118 10.415 50.3529 10.5424C50.9724 10.6878 51.3234 10.0962 51.5919 9.66998C51.6642 9.55644 51.7344 9.4429 51.817 9.33733C51.8841 9.24538 51.9698 9.16746 52.0689 9.10826C52.4076 8.90906 52.8288 8.92102 53.2129 8.8752C53.4096 8.85648 53.6013 8.80386 53.7787 8.71983C53.9344 8.63075 54.0822 8.52949 54.2206 8.41706C54.4591 8.21083 54.7408 8.0566 55.0467 7.9649C55.1451 7.94289 55.2452 7.9289 55.3461 7.92306C55.3717 7.91989 55.3961 7.91032 55.4167 7.8953C55.4374 7.88028 55.4536 7.86033 55.4638 7.83741C55.4782 7.80753 55.4803 7.74977 55.4287 7.75176C55.0693 7.77557 54.7239 7.8956 54.4313 8.09835C54.2991 8.186 54.1752 8.28559 54.0472 8.37921C53.9071 8.49488 53.7461 8.58468 53.5722 8.64414C53.1985 8.75369 52.7999 8.70987 52.4241 8.80748C52.1101 8.88532 51.8354 9.06904 51.6497 9.32537C51.4845 9.54847 51.3565 9.79347 51.1913 10.0146C51.1379 10.1122 51.0618 10.1966 50.969 10.2612C50.8763 10.3258 50.7693 10.3689 50.6564 10.3871C50.0576 10.413 49.8903 9.75165 49.7685 9.31342C49.7013 9.04246 49.5943 8.78218 49.4505 8.54056C49.2736 8.26398 49.0243 8.03725 48.7277 7.88323C48.6451 7.8394 48.5604 7.80156 48.4758 7.7657C48.3911 7.72985 48.3065 7.86331 48.3767 7.89717V7.89916Z" fill="black"/>
<path d="M61.276 7.88112C61.6814 7.96869 62.0713 8.10692 62.4348 8.29184C62.8129 8.47608 63.2041 8.63711 63.6059 8.77384C63.9819 8.88637 64.3475 8.72883 64.6593 8.54878C64.9712 8.36874 65.3203 8.14931 65.6921 8.26559C65.8386 8.32624 65.9738 8.40723 66.0928 8.50565C66.1661 8.55498 66.2497 8.59023 66.3385 8.60926C66.4272 8.62828 66.5194 8.63068 66.6092 8.6163C66.788 8.57392 66.9535 8.49429 67.0925 8.38374C67.2405 8.28624 67.4118 8.22197 67.5924 8.19619C67.7199 8.17177 67.8528 8.19044 67.9662 8.24871C68.0651 8.3122 68.1464 8.39566 68.2038 8.49252C68.3223 8.72836 68.4981 8.93675 68.7181 9.10204C68.8635 9.19373 69.0348 9.24579 69.2117 9.25208C69.3733 9.24566 69.5265 9.18482 69.6414 9.08142C69.8913 8.86761 70.009 8.54878 70.1598 8.27684C70.1949 8.2112 70.23 8.14368 70.2713 8.08929C70.292 8.05929 70.3168 8.00865 70.2713 7.98802C70.2259 7.96739 70.166 8.01427 70.1433 8.04428C69.9553 8.30685 69.85 8.60692 69.6599 8.87136C69.6253 8.92165 69.5829 8.96713 69.534 9.0064C69.5155 9.01989 69.4962 9.03242 69.4761 9.04391C69.4533 9.05586 69.4291 9.06531 69.4038 9.07204C69.2468 9.09686 69.0853 9.06886 68.9494 8.99327C68.714 8.85268 68.5283 8.65342 68.4144 8.41937C68.3654 8.31236 68.2858 8.21922 68.1837 8.14963C68.0816 8.08004 67.9609 8.03654 67.834 8.02365C67.6474 8.02101 67.4628 8.05828 67.2949 8.13243C67.1297 8.20182 67.0016 8.31998 66.8467 8.39687C66.7727 8.43669 66.6891 8.4597 66.6032 8.46394C66.5172 8.46819 66.4314 8.45354 66.3531 8.42125C66.2253 8.34628 66.1038 8.26291 65.9895 8.17181C65.8145 8.077 65.6071 8.04427 65.4071 8.07992C65.2233 8.11377 65.0477 8.1773 64.8886 8.26746C64.5933 8.42688 64.3103 8.64256 63.9488 8.64256C63.7598 8.62962 63.5756 8.58175 63.4076 8.5019C63.2011 8.425 63.0152 8.33873 62.819 8.25433C62.4308 8.07086 62.0258 7.91837 61.6086 7.7986C61.526 7.77741 61.4417 7.76174 61.3566 7.75171C61.2988 7.75171 61.2058 7.86799 61.274 7.87736L61.276 7.88112Z" fill="black"/>
<path d="M70.1324 7.90865C70.3747 7.92204 70.6129 7.93734 70.8553 7.93926H71.6257H73.3138C74.4613 7.93926 75.6087 7.93926 76.7541 7.93926C77.332 7.93926 77.9119 7.93926 78.4877 7.89909C78.5312 7.89909 78.6182 7.79961 78.5416 7.79196C78.0466 7.74797 77.5495 7.75179 77.0524 7.75179H75.3622C74.2148 7.75179 73.0666 7.75179 71.9178 7.75179H71.0355C70.7517 7.75179 70.4721 7.7671 70.1883 7.7824C70.1407 7.7824 70.0578 7.88378 70.1324 7.88952V7.90865Z" fill="black"/>
<path d="M78.503 8.07817C79.5457 8.64869 79.5332 9.97784 80.2923 10.7778C80.8595 11.3793 82.0628 11.5633 82.6384 10.8708C83.2139 10.1783 82.9825 9.13239 82.7489 8.3903C82.4444 7.40016 81.9397 6.56298 81.0514 5.99039C79.8668 5.22556 78.4008 4.93203 77.0119 4.79353C76.2966 4.71706 75.5769 4.68805 74.8576 4.70671C74.0158 4.74646 73.1787 4.85571 72.3551 5.03332C71.3312 5.22969 70.374 5.31031 69.3584 5.03332C68.5388 4.80387 67.7547 4.46279 66.9017 4.37184C65.9425 4.26849 64.979 4.42765 64.028 4.54134C63.1424 4.6737 62.2371 4.56805 61.4067 4.23541C60.5537 3.87987 59.8176 3.31968 59.0543 2.81324C58.3369 2.32596 57.5676 1.91836 56.7603 1.59778C55.1949 0.97692 53.4776 0.835787 51.8304 1.19263C50.1162 1.57504 48.6751 2.47424 47.23 3.4189C46.4271 3.94602 45.5783 4.48967 44.6315 4.71705C43.7494 4.92376 42.9194 4.67984 42.129 4.27882C41.4012 3.90674 40.7088 3.43544 39.9143 3.21013C39.1471 3.01269 38.3472 2.97329 37.564 3.09437C35.8227 3.32588 34.196 4.05144 32.5361 4.58062C30.8239 5.12634 29.4225 6.57538 27.5018 6.1909C25.7668 5.84156 24.2569 4.84314 22.428 4.9403C20.6971 5.03125 19.2248 6.30045 17.4626 5.95731C16.6284 5.79608 15.8485 5.50462 15.0039 5.41366C13.9564 5.31859 12.9033 5.29787 11.8528 5.35165C10.0614 5.41987 8.19498 5.64518 6.43071 5.2545C5.32961 5.01058 4.12215 4.54341 3.02104 5.03745C2.43545 5.33466 1.94238 5.7841 1.59461 6.33766C1.53205 6.42861 1.64466 6.44308 1.69471 6.37487C2.16393 5.732 2.76037 5.15321 3.5716 5.01885C4.17011 4.92169 4.78114 5.05192 5.36297 5.19042C5.95689 5.35286 6.55992 5.48055 7.16895 5.57283C8.04394 5.6524 8.92383 5.66484 9.80076 5.61004C11.7757 5.54182 13.8548 5.28964 15.8026 5.7382C16.5096 5.9015 17.1998 6.16816 17.9297 6.2095C18.7743 6.25704 19.5105 5.92217 20.28 5.63071C21.0321 5.31319 21.8381 5.13994 22.6553 5.12013C23.5804 5.15841 24.4917 5.3571 25.3476 5.70719C26.1004 5.98625 26.8554 6.30252 27.6541 6.41828C28.3964 6.50779 29.1489 6.37988 29.8187 6.05033C30.5883 5.70513 31.2952 5.22349 32.0773 4.91342C32.8593 4.60336 33.6789 4.36151 34.4713 4.08658C36.0688 3.53259 37.8476 2.94967 39.5535 3.33002C41.0529 3.66489 42.2249 4.9651 43.8099 4.98371C45.3948 5.00231 46.8066 3.8592 48.0495 3.05303C49.5865 2.04841 51.307 1.27945 53.1713 1.19263C54.9022 1.11201 56.5768 1.62672 58.07 2.47217C59.4672 3.2618 60.683 4.43592 62.3201 4.72532C63.2022 4.88242 64.0635 4.70465 64.9414 4.60749C65.8867 4.46953 66.8503 4.52013 67.7755 4.75632C68.5409 4.96303 69.2791 5.28964 70.0695 5.38886C70.937 5.49635 71.7983 5.31444 72.6471 5.14701C74.1472 4.85994 75.6836 4.80971 77.1996 4.99818C78.6135 5.16561 80.1692 5.50875 81.2974 6.42448C82.0482 7.03428 82.4653 7.95414 82.6842 8.87607C82.9032 9.798 82.9324 11.1499 81.6666 11.1499C80.3027 11.1499 79.9982 9.93236 79.4935 8.94429C79.304 8.53119 78.9929 8.18459 78.601 7.95001C78.5468 7.92107 78.4446 8.04096 78.5092 8.07817H78.503Z" fill="black"/>
<path d="M1.58944 6.46395C1.5668 6.55995 1.57323 6.66 1.60802 6.75275C1.6428 6.8455 1.70456 6.92726 1.78628 6.98876C1.98366 7.10906 2.21244 7.17617 2.44766 7.18279C3.03367 7.20747 3.62061 7.16026 4.19361 7.04235C4.40423 7.00724 4.61484 6.96474 4.82743 6.93702C4.83924 6.93702 4.86089 6.9056 4.83924 6.90376C4.66888 6.90692 4.49934 6.92673 4.33336 6.96289C4.06173 7.00724 3.79009 7.04974 3.51649 7.08116C3.22251 7.12027 2.92557 7.13634 2.62875 7.1292C2.38357 7.13393 2.1405 7.08589 1.91816 6.98876C1.81769 6.93695 1.7366 6.8574 1.6859 6.76088C1.6352 6.66436 1.61733 6.55554 1.63472 6.44916C1.63472 6.42514 1.59338 6.44916 1.59141 6.46395H1.58944Z" fill="black"/>
<path d="M6.98931 7.25465C7.24407 7.28336 7.4864 7.38529 7.68972 7.54926C7.86695 7.7068 7.9982 7.91382 8.06832 8.14644C8.10774 8.27604 8.135 8.40938 8.14972 8.54456C8.16297 8.65802 8.16108 8.77149 8.16487 8.88694C8.16151 9.10192 8.20017 9.31534 8.27845 9.51398C8.332 9.61918 8.41564 9.70403 8.51754 9.75654C8.61945 9.80905 8.73447 9.82656 8.84635 9.80659C8.87285 9.80659 8.91639 9.73692 8.87664 9.73692C8.77347 9.75322 8.66804 9.7358 8.57459 9.68703C8.48115 9.63825 8.4042 9.56047 8.35417 9.46421C8.26939 9.26044 8.22804 9.03963 8.23301 8.81727C8.23122 8.57307 8.19616 8.33041 8.1289 8.09667C8.06244 7.86618 7.93665 7.6595 7.76544 7.4995C7.54777 7.31957 7.28427 7.21151 7.00824 7.18896C6.98363 7.18896 6.94766 7.24072 6.98173 7.24669L6.98931 7.25465Z" fill="black"/>
<path d="M11.986 7.72405C12.2206 7.7576 12.4491 7.82073 12.6796 7.87203C12.8723 7.92429 13.0725 7.94628 13.2724 7.93713C13.4849 7.91744 13.6894 7.84983 13.8694 7.73984C14.0767 7.61024 14.2934 7.49486 14.5178 7.39457C14.6491 7.33694 14.7874 7.29518 14.9294 7.27028C15.0808 7.24884 15.235 7.25419 15.3843 7.28606C15.409 7.28606 15.4584 7.24068 15.4255 7.22884C15.1919 7.16593 14.9434 7.17771 14.7174 7.26238C14.4828 7.34228 14.2578 7.44613 14.0464 7.57214C13.8519 7.7036 13.6344 7.8005 13.4042 7.85822C13.193 7.88502 12.9784 7.87229 12.7723 7.82073C12.5211 7.76746 12.27 7.70433 12.0148 7.67079C11.988 7.67079 11.951 7.72208 11.986 7.728V7.72405Z" fill="black"/>
<path d="M16.9766 7.85929C17.0281 7.89194 17.092 7.91577 17.1623 7.92851C17.2327 7.94125 17.307 7.94247 17.3783 7.93206C17.5186 7.89893 17.6491 7.85138 17.7645 7.79136C17.9203 7.72443 18.0935 7.67517 18.2763 7.64581C18.4664 7.61857 18.6608 7.60474 18.8557 7.60457C18.8828 7.60457 18.9253 7.56575 18.8847 7.56575C18.5314 7.5535 18.1799 7.60439 17.8708 7.71252C17.7394 7.76104 17.6216 7.82532 17.4845 7.86778C17.4124 7.89139 17.3303 7.90012 17.2498 7.89272C17.1694 7.88531 17.0947 7.86215 17.0364 7.82654C17.0113 7.81441 16.9592 7.84716 16.9824 7.85929H16.9766Z" fill="black"/>
<path d="M24.3011 6.87026C24.5567 6.85624 24.8135 6.86577 25.0665 6.89866C25.191 6.91994 25.3088 6.96203 25.4126 7.02229C25.5107 7.08304 25.5984 7.15441 25.6732 7.23446C25.8186 7.40323 25.9927 7.55401 26.1903 7.68218C26.3903 7.78976 26.6157 7.86149 26.8519 7.89268C26.9865 7.9122 27.1225 7.92503 27.259 7.9311C27.4107 7.94196 27.5633 7.94196 27.715 7.9311C27.7354 7.9311 27.7781 7.88934 27.7415 7.88599C27.6135 7.8768 27.4851 7.87345 27.3567 7.87597C27.2264 7.87597 27.0961 7.86094 26.9679 7.8459C26.7168 7.81914 26.4757 7.74788 26.2615 7.63707C26.0609 7.51116 25.8857 7.36006 25.7424 7.18935C25.5995 7.02977 25.3973 6.91253 25.1663 6.85523C24.891 6.81457 24.6104 6.80389 24.3316 6.82349C24.3072 6.82349 24.2706 6.86859 24.3052 6.87026H24.3011Z" fill="black"/>
<path d="M30.656 7.77057C30.6905 7.81158 30.7375 7.8475 30.7939 7.87614C30.8503 7.90477 30.9151 7.92551 30.9841 7.93709C31.0965 7.94548 31.2097 7.92687 31.3029 7.88467C31.416 7.8382 31.524 7.78668 31.6264 7.73048C31.6826 7.70273 31.7365 7.67652 31.7975 7.65185C31.8584 7.62718 31.9147 7.6133 31.9733 7.59326C31.9733 7.59326 32.0131 7.56396 31.9733 7.56396C31.8597 7.5751 31.7541 7.60902 31.6709 7.6611C31.5631 7.71044 31.4646 7.76749 31.3568 7.81528C31.2652 7.86429 31.1514 7.89194 31.0334 7.89392C30.9644 7.88532 30.899 7.86711 30.8416 7.84052C30.7842 7.81393 30.7361 7.77956 30.7005 7.73973C30.6841 7.72432 30.6302 7.75823 30.6466 7.77519L30.656 7.77057Z" fill="black"/>
<path d="M36.4221 7.23595C36.6114 7.29391 36.7866 7.38219 36.9384 7.4962C37.0772 7.6037 37.2009 7.72503 37.3069 7.85766C37.4131 7.9914 37.4673 8.16851 37.6318 8.25888C37.6882 8.29485 37.7564 8.31424 37.8264 8.31424C37.8965 8.31424 37.9647 8.29485 38.0211 8.25888C38.0837 8.21574 38.139 8.16525 38.1856 8.10887C38.2443 8.04828 38.2973 7.98361 38.3438 7.91549C38.3438 7.89923 38.3334 7.89561 38.3209 7.90284C38.2043 7.97513 38.1439 8.10345 38.0419 8.18839C38.0132 8.21121 37.9794 8.22874 37.9426 8.23995C37.9058 8.25116 37.8668 8.2558 37.828 8.25361C37.7891 8.25141 37.7511 8.24243 37.7163 8.22718C37.6815 8.21194 37.6506 8.19076 37.6255 8.1649C37.5211 8.04098 37.4251 7.91183 37.3382 7.77814C37.2323 7.65915 37.1138 7.54903 36.9842 7.44921C36.8333 7.33593 36.6597 7.24771 36.472 7.18896C36.445 7.18896 36.3992 7.23053 36.4283 7.24138L36.4221 7.23595Z" fill="black"/>
<path d="M47.2014 7.08795C47.7489 7.18524 48.3092 7.05802 48.8609 7.05428C48.9975 7.05119 49.1341 7.05933 49.269 7.0786C49.3804 7.09055 49.4889 7.11834 49.5903 7.16092C49.6932 7.21963 49.7747 7.30345 49.825 7.40226C49.9666 7.63799 50.0364 7.90365 50.1548 8.1506C50.2393 8.32272 50.3788 8.53787 50.6283 8.49671C50.7037 8.48256 50.7755 8.4559 50.8397 8.41814C50.9534 8.34909 51.0721 8.28659 51.1949 8.23105C51.4417 8.14356 51.7076 8.10647 51.9729 8.12254C51.9961 8.12254 52.0278 8.07951 51.9961 8.07951C51.7672 8.06813 51.5378 8.0909 51.3175 8.14686C51.2224 8.17815 51.1311 8.21763 51.0448 8.26473C50.9496 8.31337 50.8609 8.37698 50.7615 8.42001C50.7139 8.4462 50.659 8.46009 50.6029 8.46009C50.5469 8.46009 50.492 8.4462 50.4444 8.42001C50.3503 8.35042 50.2776 8.26099 50.233 8.15996C50.1104 7.91487 50.0469 7.65108 49.918 7.41161C49.8721 7.30906 49.7997 7.21744 49.7066 7.14408C49.6424 7.10542 49.5707 7.07752 49.4952 7.06176C49.3771 7.03251 49.256 7.01433 49.1337 7.00751C48.4994 6.96822 47.8652 7.13659 47.2416 7.05428C47.2183 7.05428 47.1781 7.10292 47.2077 7.10666L47.2014 7.08795Z" fill="black"/>
<path d="M60.6914 7.07544C61.0105 7.07156 61.3288 7.10736 61.638 7.18191C61.7881 7.22108 61.9347 7.27104 62.0766 7.33135C62.2215 7.393 62.3604 7.46585 62.5053 7.51815C62.7721 7.64617 63.0624 7.7254 63.3606 7.75165C63.6057 7.74102 63.8448 7.67708 64.0592 7.56485C64.1902 7.50694 64.3172 7.44343 64.4561 7.39113C64.5987 7.3366 64.7471 7.29652 64.8987 7.27158C64.8987 7.27158 64.9165 7.25663 64.8987 7.25663C64.6485 7.27271 64.4055 7.34235 64.1882 7.46025C63.9646 7.58085 63.7176 7.65832 63.4618 7.68814C63.1638 7.67514 62.8724 7.60052 62.6085 7.46958C62.3301 7.33576 62.0431 7.21848 61.7491 7.1184C61.4122 7.03317 61.0639 6.99417 60.7152 7.00259C60.6894 7.00259 60.6497 7.05863 60.6874 7.05863L60.6914 7.07544Z" fill="black"/>
<path d="M67.2299 7.41971C67.4541 7.39831 67.6833 7.40946 67.8995 7.4523C68.1227 7.51998 68.2554 7.66537 68.4867 7.72929C68.5617 7.75043 68.6453 7.75672 68.7262 7.7473C68.8071 7.73789 68.8814 7.71323 68.9392 7.67665C68.9532 7.66788 68.9552 7.64908 68.9271 7.6566C68.8364 7.69634 68.7256 7.71417 68.6154 7.70673C68.5192 7.69015 68.4299 7.66063 68.354 7.62025C68.2488 7.55659 68.1373 7.49715 68.0202 7.44227C67.7969 7.35203 67.5094 7.37835 67.258 7.38587C67.2319 7.38587 67.1977 7.42096 67.2299 7.41971V7.41971Z" fill="black"/>
<path d="M78.0107 7.05717C78.4404 7.0407 78.8702 7.08668 79.2855 7.19356C79.4915 7.26398 79.6789 7.37675 79.8347 7.52396C80.0033 7.68399 80.1813 7.83471 80.3678 7.97537C80.5581 8.11174 80.7383 8.26065 80.907 8.42103C81.0659 8.59055 81.2151 8.76818 81.354 8.95313C81.5935 9.26912 81.9019 9.53132 82.2579 9.7215C82.3775 9.79313 82.5184 9.82488 82.6588 9.81178C82.8131 9.7772 82.8211 9.61969 82.7971 9.50059C82.7971 9.46986 82.7269 9.51404 82.7329 9.54285C82.7389 9.57166 82.765 9.69076 82.7169 9.73494C82.6977 9.74729 82.676 9.75557 82.6531 9.75921C82.6303 9.76285 82.607 9.76178 82.5846 9.75607C82.4584 9.73581 82.3373 9.69279 82.2278 9.62929C81.8719 9.41684 81.5656 9.1363 81.3279 8.80521C81.1952 8.62451 81.0491 8.45311 80.891 8.29233C80.7306 8.14442 80.5562 8.01379 80.3819 7.88125C80.2075 7.74871 80.0451 7.60271 79.8808 7.45288C79.7378 7.32009 79.5689 7.21565 79.3837 7.14553C78.9608 6.9861 78.4858 7.01299 78.0408 7.00146C78.0127 7.00146 77.9726 7.05909 78.0107 7.05909V7.05717Z" fill="black"/>
<path d="M38.0205 7.91705C38.115 7.78334 38.2271 7.66156 38.3541 7.55463L38.5432 7.39552C38.6074 7.34384 38.6668 7.2869 38.7205 7.22536C38.7415 7.19884 38.7205 7.17674 38.6878 7.19663C38.6202 7.24525 38.5595 7.30271 38.4942 7.35795C38.4288 7.4132 38.3635 7.46845 38.3005 7.5259C38.1719 7.63881 38.0597 7.76737 37.9668 7.90821C37.9643 7.91008 37.9624 7.91243 37.961 7.91511C37.9597 7.91779 37.959 7.92072 37.959 7.92368C37.959 7.92665 37.9597 7.92958 37.961 7.93225C37.9624 7.93493 37.9643 7.93729 37.9668 7.93915C37.9808 7.93915 38.0018 7.93915 38.0088 7.91705H38.0205Z" fill="black"/>
<path d="M30.4573 7.24026C30.5258 7.27236 30.5919 7.31261 30.6549 7.36053C30.6858 7.38564 30.7141 7.41597 30.739 7.45074C30.7517 7.46836 30.7633 7.48728 30.7737 7.50734C30.7822 7.53082 30.7957 7.55051 30.8125 7.56393C30.8175 7.56456 30.8226 7.56277 30.8268 7.55888C30.8309 7.55499 30.8339 7.54925 30.8352 7.54271C30.8349 7.51567 30.8303 7.48903 30.8215 7.46461C30.8127 7.44018 30.8001 7.41856 30.7844 7.40121C30.7588 7.36423 30.7291 7.33262 30.6963 7.30747C30.6293 7.25824 30.5586 7.21852 30.4853 7.18896C30.468 7.18896 30.4359 7.22965 30.4573 7.24026V7.24026Z" fill="black"/>
<path d="M25.6428 7.07425C25.7004 7.15828 25.7622 7.23531 25.8212 7.30767L25.905 7.42905L25.9461 7.4944C25.9599 7.51775 25.9722 7.55043 25.9914 7.5621C26.0107 7.57377 26.0271 7.53175 26.023 7.50841C26.0162 7.47698 26.0043 7.44946 25.9887 7.42905C25.976 7.40475 25.9622 7.38212 25.9475 7.36136C25.9201 7.31934 25.8912 7.27966 25.861 7.23998C25.8006 7.16061 25.7389 7.08592 25.6799 7.00656C25.6634 6.98322 25.6263 7.04624 25.6428 7.07192V7.07425Z" fill="black"/>
<path d="M17.5888 7.5601C17.7355 7.50018 17.8844 7.44256 18.04 7.38955L18.2656 7.3158C18.3427 7.29459 18.4181 7.26763 18.4912 7.23514C18.5025 7.23514 18.5319 7.18674 18.5025 7.18904C18.4253 7.19607 18.3494 7.21391 18.2769 7.24205L18.0355 7.32502C17.8844 7.38033 17.7332 7.43795 17.5843 7.50018C17.5505 7.514 17.5347 7.58084 17.5843 7.5601H17.5888Z" fill="black"/>
<path d="M13.7418 7.55712C13.9186 7.46451 14.0954 7.36703 14.2767 7.28173C14.3686 7.23786 14.4627 7.19643 14.5568 7.15988C14.651 7.12332 14.7451 7.10139 14.8324 7.05996C14.8461 7.05996 14.8806 7.00146 14.8461 7.00146C14.7536 7.00937 14.6628 7.03324 14.5775 7.07214C14.4811 7.1087 14.3869 7.15013 14.2951 7.194C14.1068 7.28417 13.9255 7.38409 13.7418 7.48401C13.705 7.50351 13.6844 7.58881 13.7418 7.55712V7.55712Z" fill="black"/>
<path d="M7.75081 7.2321C7.96713 7.21593 8.16891 7.36294 8.29616 7.48203C8.38218 7.55677 8.45833 7.63856 8.52339 7.72607C8.54989 7.76157 8.57357 7.7984 8.59428 7.83633C8.60549 7.87116 8.62327 7.90439 8.647 7.93483C8.66336 7.94953 8.69608 7.92307 8.69972 7.90984C8.7007 7.84428 8.67657 7.78009 8.63064 7.72607C8.58521 7.65723 8.53228 7.59179 8.47249 7.53054C8.35707 7.40359 8.20638 7.30036 8.03257 7.22916C7.95082 7.19683 7.85954 7.1836 7.76899 7.19094C7.74899 7.19094 7.71991 7.23504 7.75081 7.2321V7.2321Z" fill="black"/>
<path d="M64.5575 7.18633C64.6748 7.15099 64.7967 7.12208 64.9218 7.0999L65.0993 7.06989C65.1596 7.06258 65.218 7.05006 65.273 7.03268C65.2862 7.03268 65.3069 7.00387 65.273 7.00146C65.2432 7.00257 65.2139 7.00662 65.1861 7.01347L65.0917 7.03027C65.0313 7.04108 64.9728 7.05068 64.9143 7.06269C64.7895 7.08589 64.6683 7.11602 64.5518 7.15272C64.5386 7.15272 64.5197 7.16832 64.5216 7.17913C64.5235 7.18993 64.5386 7.19113 64.5518 7.18633H64.5575Z" fill="black"/>
<defs>
<radialGradient id="paint0_radial_252_2" cx="0" cy="0" r="1" gradientUnits="userSpaceOnUse" gradientTransform="translate(42 6.15753) rotate(90) scale(5.15753 41)">
<stop stop-color="white"/>
<stop offset="1" stop-color="#F0FAFC"/>
</radialGradient>
</defs>
</svg>
