<svg width="1430" height="64" viewBox="0 0 1430 64" fill="none" xmlns="http://www.w3.org/2000/svg">
<g clip-path="url(#clip0_228_4052)">
<path d="M3.60164 20.5687C3.95973 20.5191 4.30435 20.397 4.61507 20.2096C4.9258 20.0222 5.1963 19.7734 5.41052 19.4778C5.62475 19.1822 5.77835 18.8459 5.8622 18.4889C5.94606 18.1319 5.95847 17.7614 5.89869 17.3993C5.7018 15.8262 5.59705 14.2425 5.585 12.6567C5.55013 11.7549 5.63981 10.8526 5.85142 9.97603C6.96347 9.90402 8.07868 9.89692 9.19155 9.95476C17.6096 9.90116 26.0914 10.1601 34.4947 9.73105C34.6632 9.69935 34.8177 9.61523 34.9369 9.49037C37.6492 9.58577 37.691 20.0261 37.8497 21.7151C38.0048 24.1859 38.8778 26.5547 40.3582 28.5219C42.5831 31.4496 45.6094 30.5415 47.6516 27.9872C51.5156 23.1429 49.4568 11.4635 58.012 11.6469C61.0693 11.7276 64.0483 13.0606 66.9985 13.7554C68.3902 14.1695 69.8558 14.2594 71.2862 14.0184C72.7166 13.7773 74.075 13.2116 75.2602 12.3633C77.0764 11.0999 78.7068 9.6999 80.9988 9.61019C81.7863 9.59864 82.5569 9.84279 83.1984 10.3071C83.8399 10.7714 84.3187 11.4315 84.565 12.1914C85.8161 15.1003 86.2631 19.479 89.673 20.7467C92.8732 21.9782 96.0493 17.4888 97.7002 15.4377C99.2385 13.4394 101.195 11.8135 103.428 10.6777C105.662 9.54197 108.116 8.92477 110.613 8.87079C110.738 8.85756 110.857 8.80911 110.957 8.73089C111.836 8.88236 112.73 8.9271 113.62 8.86416C115.013 8.8553 116.418 8.84635 117.811 8.83748L125.55 8.71309L133.278 8.58876C136.076 8.57095 138.936 8.69044 141.72 8.42234L141.855 8.42148C143.472 10.1949 145.305 11.7523 147.308 13.0562C149.779 14.4205 152.558 15.1061 155.37 15.0455C160.523 15.2255 164.549 12.5834 168.897 10.2022C170.779 13.4201 172.441 17.065 176.715 16.6246C177.524 16.525 178.301 16.247 178.992 15.8101C179.684 15.3731 180.272 14.7879 180.717 14.0954C181.174 13.4184 181.581 12.7087 181.936 11.972C182.439 11.1237 183.011 10.3201 183.647 9.56998C185.157 9.73978 186.68 9.77199 188.196 9.66622L193.656 9.63145C197.33 9.76475 201.009 9.67862 204.673 9.37351C208.371 9.34996 210.567 11.6644 212.484 14.6317C213.58 16.3398 215.157 20.1229 217.585 20.0699C219.483 20.0578 220.712 17.5463 221.467 16.1393C222.685 13.8907 223.407 11.1195 225.12 9.19323C229.067 8.67811 233.056 8.56883 237.025 8.86705C241.417 9.02274 245.814 8.95296 250.2 8.65797C255.24 8.29006 260.297 8.21606 265.347 8.43634C269.933 8.70758 274.397 9.00464 278.901 7.89935L279.025 7.89857C281.395 9.05568 283.357 10.9274 284.642 13.2584C285.526 15.2693 286.22 17.3607 286.716 19.5045C287.149 21.3526 288.261 22.9626 289.826 24.004C290.612 24.3774 291.488 24.5106 292.347 24.3874C293.207 24.2641 294.012 23.8897 294.665 23.3097C296.177 21.8718 297.419 20.1672 298.331 18.2788C298.824 17.3768 299.414 16.5333 300.09 15.7639C301.412 14.3659 303.506 14.0396 305.304 13.8529C308.162 13.5593 310.427 13.2194 312.77 11.4393C315.113 9.65924 317.271 7.84281 320.449 7.54716C320.572 7.52384 320.687 7.46684 320.781 7.3823C326.465 7.7467 332.208 7.54739 337.902 7.51113L346.53 7.4562C349.3 7.63721 352.082 7.54824 354.835 7.19049C357.995 7.78379 360.927 9.48019 363.795 10.8891C366.466 12.2116 369.299 13.9211 372.338 12.9628C375.376 12.0046 377.598 8.72305 380.944 9.51547C382.178 9.82057 383.06 10.9041 384.149 11.5356C384.687 11.7854 385.273 11.9128 385.864 11.909C386.456 11.9053 387.04 11.7704 387.575 11.5138C388.805 11.0553 389.673 9.99819 390.816 9.44009C391.459 9.07014 392.188 8.88184 392.928 8.89474C393.667 8.90765 394.389 9.12128 395.02 9.51347C396.729 10.8546 397.189 13.3304 398.923 14.7465C399.73 15.4785 400.776 15.8801 401.858 15.8732C402.939 15.8663 403.98 15.4515 404.778 14.7092C406.554 13.0705 407.215 10.3872 408.348 8.26437C416.424 8.70117 424.557 8.41152 432.643 8.36003L445.867 8.27582C449.775 8.25094 453.707 8.31354 457.612 7.93815C464.823 11.9358 463.795 22.771 471.288 26.4163C472.787 27.1423 474.44 27.4812 476.099 27.4029C477.759 27.3247 479.373 26.8317 480.8 25.9677C483.046 24.4386 483.854 21.6042 484.059 19.0241C484.572 12.4735 484.912 5.51887 480.8 0.5C456.069 0.50022 12.7473 1.58906 3.32064 1.58923C3.32064 1.58923 -0.112151 14.1702 0.150853 16.7599C0.286221 18.6619 1.53149 20.657 3.60164 20.5687Z" fill="url(#paint0_radial_228_4052)"/>
<path d="M3.0954 1.47723C2.02601 3.64791 1.31948 5.95852 1.00047 8.32849C0.879719 9.23861 0.796933 10.1485 0.701569 11.0703C0.606204 11.9921 0.371425 12.8793 0.250754 13.8012C-0.0280244 15.728 -0.114064 18.1142 1.55305 19.5916C1.84542 19.878 2.20584 20.0963 2.60529 20.2288C3.00474 20.3614 3.43204 20.4045 3.85279 20.3547C4.27353 20.3049 4.67595 20.1636 5.02763 19.9422C5.37931 19.7207 5.67043 19.4254 5.87753 19.0798C6.24505 18.1568 6.30483 17.1519 6.04899 16.1971C5.89887 14.8245 5.84359 13.4442 5.88348 12.0647C5.87755 11.5003 5.94191 10.9372 6.07526 10.3865C6.07443 10.2566 6.07526 10.3865 6.07526 10.3865L6.07443 10.2566C6.13665 10.0909 6.07488 10.3275 6.07443 10.2566C6.07398 10.1858 5.96122 10.3636 6.07443 10.2566L5.9485 10.3519L5.84726 10.3525L5.75869 10.3531L6.51791 10.3483C8.93477 10.3329 11.339 10.3176 13.7558 10.3022L33.116 10.1789C33.9132 10.1738 34.723 10.1687 35.5202 10.1636C35.6974 10.1457 35.8665 10.0845 36.0103 9.9861C36.1541 9.88772 36.2675 9.75567 36.3392 9.60331C36.4642 9.36632 36.4494 9.03574 36.0951 9.02618C32.956 8.90445 29.7682 9.06647 26.6423 9.01552L7.76296 9.13574C7.23723 9.08018 6.70622 9.08356 6.18124 9.14581C5.84609 9.26195 5.5462 9.45246 5.30747 9.70089C5.06874 9.94932 4.89835 10.2482 4.81101 10.5717C4.45438 11.815 4.34256 13.1082 4.481 14.3884C4.48852 15.5693 4.62205 16.6668 4.76846 17.7996C4.85317 18.1572 4.85553 18.5275 4.77538 18.8861L4.70051 19.0519C4.70006 18.981 4.70051 19.0519 4.70051 19.0519C4.68221 19.0812 4.65625 19.1058 4.62504 19.1232C4.77606 18.9924 4.62504 19.1232 4.62504 19.1232C4.62504 19.1232 4.62504 19.1232 4.51116 19.124C4.39727 19.1247 4.40993 19.1246 4.37196 19.1248L4.27073 19.1255C4.1154 19.1448 3.95811 19.1458 3.80255 19.1285C1.85132 18.7394 1.36907 16.534 1.38438 14.9632C1.42128 13.9626 1.54614 12.9664 1.75769 11.9847C1.91666 11.1281 2.02521 10.264 2.08287 9.39629C2.20111 7.37583 2.55757 5.3735 3.14577 3.42554C3.35346 2.76286 3.59853 2.11084 3.87993 1.47224C3.95473 1.29461 3.95337 1.08205 3.70015 1.06004C3.44692 1.03803 3.19543 1.28764 3.0954 1.47723V1.47723Z" fill="black"/>
<path d="M35.5236 10.0119C35.6768 9.98216 35.8347 9.98814 35.9852 10.0293C36.1356 10.0705 36.2744 10.1458 36.3908 10.2493C36.71 10.5621 36.9541 10.9426 37.1051 11.3624C37.5958 12.64 37.908 13.9788 38.0328 15.3412C38.238 16.9313 38.3701 18.534 38.5026 20.1975C38.5712 21.4793 38.7137 22.756 38.9294 24.0215C39.3898 25.908 40.3335 27.6433 41.6683 29.0577C42.3738 29.8107 43.3397 30.2691 44.3712 30.3404C44.9857 30.3104 45.5876 30.1551 46.1395 29.8841C46.6915 29.6131 47.1818 29.2322 47.5801 28.765C48.4311 27.9276 49.123 26.9436 49.6223 25.8607C50.0515 24.8139 50.3834 23.7301 50.6137 22.6229C50.8627 21.5158 51.0628 20.3848 51.3361 19.2775C51.6235 18.1793 52.0253 17.1141 52.5352 16.0992C52.9533 15.1974 53.521 14.3724 54.2145 13.6588C54.7373 13.115 55.3765 12.6956 56.0845 12.4321C57.6546 11.9967 59.3128 11.9861 60.8884 12.4015C62.7564 12.7905 64.5527 13.3986 66.4334 13.8726C68.3902 14.5566 70.4909 14.7273 72.5331 14.3683C74.3797 13.666 76.1022 12.6749 77.6356 11.4323C78.3574 10.8603 79.2038 10.4649 80.1068 10.2777C81.0098 10.0905 81.9442 10.1168 82.8352 10.3545C83.4609 10.6724 84.0069 11.1265 84.4326 11.6831C84.8582 12.2398 85.1528 12.8848 85.2943 13.5703C85.5429 14.3219 85.7551 15.0859 86.028 15.8252C86.315 16.6059 86.6707 17.3597 87.091 18.078C88.0653 19.8211 89.5512 21.4639 91.767 20.9517C93.7151 20.5019 95.2895 18.8276 96.5606 17.386C97.2507 16.6041 97.8794 15.774 98.5818 15.0163C99.2781 14.2666 100.028 13.5676 100.824 12.9247C102.611 11.4647 104.698 10.4146 106.938 9.84869C108.134 9.55599 109.362 9.41349 110.593 9.42451C110.754 9.40876 110.907 9.35043 111.037 9.2556C111.167 9.16076 111.27 9.03288 111.333 8.88528C111.442 8.65377 111.427 8.33801 111.123 8.3278C108.723 8.382 106.359 8.92349 104.177 9.91914C101.994 10.9148 100.039 12.3437 98.4298 14.1183C96.9882 15.5975 95.8043 17.3301 94.2278 18.6764C93.0152 19.7289 91.3865 20.5532 89.9041 19.445C89.0451 18.7099 88.3499 17.804 87.8631 16.7854C87.485 16.0739 87.178 15.3272 86.9466 14.5559C86.6149 13.0751 86.015 11.6669 85.1765 10.4003C84.5841 9.7935 83.8349 9.36168 83.0116 9.15253C82.1883 8.94339 81.323 8.96507 80.5112 9.21518C78.5789 9.872 76.7835 10.8757 75.2139 12.1766C74.4806 12.7229 73.6583 13.1391 72.7831 13.407C71.7679 13.6319 70.7163 13.6386 69.6983 13.4266C67.7876 13.0616 65.8996 12.5869 64.0439 12.0048C62.3405 11.4576 60.5708 11.1419 58.7826 11.0664C56.997 11.0483 55.2663 11.6815 53.9167 12.8468C52.292 14.4175 51.1176 16.3919 50.5147 18.566C49.8213 20.7328 49.6285 23.0179 48.9107 25.1728C48.613 26.1506 48.1072 27.053 47.4278 27.8184C46.6769 28.625 45.9017 29.4317 44.6935 29.2693C43.6661 29.0378 42.7622 28.4328 42.1588 27.5725C41.3564 26.5681 40.7421 25.4281 40.3449 24.2068C40.1691 23.752 40.0394 23.2807 39.958 22.8001C39.8566 22.1933 39.7918 21.5863 39.739 20.9671C39.5951 19.4252 39.4755 17.871 39.3071 16.3292C39.1693 14.7969 38.9026 13.2787 38.5101 11.7908C38.2482 10.8813 37.8377 9.59624 36.8477 9.23809C36.4425 9.13274 36.0135 9.16541 35.629 9.33089C35.3615 9.44193 35.0367 10.1365 35.548 10.0117L35.5236 10.0119Z" fill="black"/>
<path d="M142.079 8.82398C142.819 9.49315 143.522 10.1736 144.324 10.7872C145.055 11.3633 145.82 11.9042 146.617 12.4075C148.223 13.4408 150.06 14.1596 152.005 14.5164C153.163 14.7006 154.336 14.8077 155.512 14.8365C156.577 14.8814 157.645 14.8488 158.704 14.7389C160.466 14.5386 162.179 14.0797 163.772 13.3809C165.861 12.4839 167.85 11.4217 169.902 10.4696C170.06 10.4034 170.197 10.3023 170.299 10.1759C170.401 10.0495 170.464 9.9021 170.483 9.74784C170.481 9.44958 170.12 9.44083 169.871 9.54184C166.587 10.9768 163.52 13.029 159.832 13.6049C157.722 13.9055 155.573 13.9192 153.459 13.6455C151.537 13.3835 149.701 12.7626 148.072 11.8238C147.196 11.3116 146.359 10.7486 145.567 10.1385C144.677 9.47027 143.775 8.82423 142.861 8.17826C142.535 7.94834 141.853 8.54924 142.141 8.82359L142.079 8.82398Z" fill="black"/>
<path d="M169.372 9.00112C170.128 10.2544 170.813 11.6088 171.605 12.8744C172.268 14.0779 173.282 15.0207 174.494 15.5609C175.981 16.07 177.596 15.9377 178.991 15.1925C180.115 14.4808 181.017 13.4336 181.583 12.1818C181.911 11.5381 182.216 10.9197 182.591 10.2631C182.775 9.95705 182.979 9.66562 183.203 9.39113C183.521 9.05352 183.809 8.68526 184.062 8.29113C184.18 8.0765 184.059 7.80049 183.799 7.87764C183.111 8.2124 182.535 8.7599 182.147 9.44818C181.77 10.0002 181.429 10.5781 181.125 11.1783C180.867 11.6957 180.61 12.2509 180.328 12.7182C180.083 13.1995 179.756 13.6283 179.363 13.9824C178.808 14.3636 178.183 14.6175 177.53 14.7278C176.876 14.8381 176.208 14.8024 175.569 14.623C174.383 14.2175 173.364 13.3937 172.681 12.2888C171.91 10.9276 171.049 9.62561 170.105 8.39259C169.853 8.10483 169.193 8.75065 169.373 9.06403L169.372 9.00112Z" fill="black"/>
<path d="M183.084 8.81799C183.701 8.98868 184.346 9.03815 184.982 8.96365L201.591 8.85789C202.399 8.8404 203.205 8.77449 204.006 8.6605C204.283 8.65873 204.859 7.98771 204.363 7.93019C203.714 7.8422 203.06 7.78966 202.405 7.77278L185.832 7.87832C185.044 7.82103 184.251 7.87508 183.478 8.03891C183.273 8.11302 182.708 8.63838 183.12 8.80563L183.084 8.81799Z" fill="black"/>
<path d="M203.526 8.77144C204.882 8.69873 206.234 8.96588 207.46 9.54849C208.548 10.1352 209.502 10.9392 210.264 11.9102C211.994 13.998 213.243 16.4499 214.92 18.5648C215.417 19.3161 216.167 19.8659 217.035 20.1154C217.431 20.1787 217.836 20.1526 218.221 20.0391C218.605 19.9256 218.96 19.7276 219.257 19.4596C220.745 18.0196 221.892 16.268 222.617 14.3315C223.16 13.1917 223.676 12.0521 224.259 10.9254C224.493 10.4631 224.754 10.015 225.041 9.58359C225.174 9.36885 225.307 9.18084 225.453 8.97939L225.586 8.81812L225.839 8.56251C226.026 8.37416 226.292 7.95805 226.049 7.7056C225.806 7.45314 225.365 7.70995 225.192 7.92494C223.87 9.49629 222.817 11.2734 222.074 13.1852C221.611 14.1641 221.161 15.1562 220.644 16.1087C220.436 16.5146 220.206 16.9088 219.954 17.2895L219.582 17.8533L219.396 18.0818C219.396 18.0818 219.25 18.2565 219.396 18.162C219.543 18.0675 219.396 18.162 219.316 18.2427L219.13 18.4444C219.13 18.4444 218.85 18.6868 219.037 18.5386L218.863 18.6734L218.743 18.7543L218.556 18.8491C218.408 18.8501 218.663 18.8484 218.556 18.8491L218.449 18.8498L218.341 18.8505L218.073 18.8522C217.952 18.8541 217.833 18.8274 217.724 18.7742C217.563 18.7185 217.409 18.6432 217.267 18.5499C216.871 18.284 216.52 17.9568 216.228 17.5806C214.512 15.5194 213.289 13.1075 211.6 11.0328C210.77 9.9359 209.712 9.03063 208.498 8.37882C207.059 7.73584 205.452 7.56356 203.909 7.88668C203.627 7.88847 203.15 8.69362 203.632 8.67718L203.526 8.77144Z" fill="black"/>
<path d="M225.306 8.72722C226.712 8.58909 228.134 8.49642 229.563 8.44984C231.201 8.40278 232.853 8.42889 234.529 8.41822C237.745 8.46488 240.962 8.59701 244.178 8.52159C251.987 8.34979 259.806 7.92764 267.618 8.21362C271.72 8.42933 275.873 8.31008 279.909 7.86067C280.09 7.83519 280.255 7.787 280.387 7.72085C280.519 7.65471 280.615 7.57291 280.664 7.48351C280.737 7.32434 280.538 7.21573 280.203 7.2606C276.593 7.66511 272.886 7.80392 269.204 7.67246C265.23 7.58179 261.269 7.55818 257.296 7.63841C253.324 7.71865 249.5 7.85897 245.602 7.96315C242.374 8.05085 239.158 7.95535 235.929 7.89656C234.066 7.86569 232.204 7.84703 230.342 7.93213C228.649 7.94159 226.97 8.09477 225.378 8.38492C225.105 8.4416 224.76 8.77953 225.293 8.7334L225.306 8.72722Z" fill="black"/>
<path d="M279.7 8.14789C281.576 8.99969 283.224 10.2745 284.514 11.8702C285.568 13.3168 286.332 14.9506 286.763 16.6828C287.511 19.3208 288.268 23.3344 291.466 24.0863C295.128 24.9439 297.177 21.3469 298.745 18.7545C299.168 18.064 299.578 17.3735 300.061 16.7309C300.454 16.1713 300.957 15.6961 301.539 15.3337C303.531 14.1143 306.017 14.1709 308.283 13.8789C309.443 13.7581 310.572 13.4321 311.616 12.9164C312.532 12.3709 313.4 11.7519 314.213 11.0656C315.613 9.80734 317.27 8.86248 319.071 8.29542C319.651 8.15843 320.242 8.06989 320.837 8.03075C320.988 8.01057 321.131 7.9517 321.253 7.85992C321.374 7.76815 321.469 7.64666 321.528 7.50745C321.612 7.32591 321.622 6.97589 321.318 6.9899C319.197 7.14766 317.163 7.88776 315.444 9.12702C314.667 9.66293 313.94 10.2709 313.188 10.8429C312.365 11.5488 311.418 12.0989 310.395 12.4656C308.193 13.1434 305.839 12.8929 303.624 13.4983C301.774 13.9816 300.16 15.1049 299.073 16.6647C298.107 18.0224 297.361 19.5115 296.394 20.8571C296.083 21.4504 295.637 21.9645 295.092 22.3594C294.547 22.7542 293.917 23.0192 293.252 23.1337C289.718 23.3131 288.705 19.3132 287.969 16.6631C287.563 15.0241 286.92 13.4514 286.062 11.9931C285.008 10.3242 283.528 8.96008 281.771 8.03816C281.282 7.7758 280.781 7.54971 280.28 7.33569C279.778 7.12167 279.284 7.93333 279.7 8.13582L279.7 8.14789Z" fill="black"/>
<path d="M355.821 7.55347C358.217 8.06875 360.524 8.89146 362.676 9.99806C364.915 11.1 367.23 12.0607 369.607 12.8739C371.83 13.5415 373.982 12.5734 375.816 11.471C377.65 10.3686 379.702 9.02615 381.901 9.71658C382.768 10.0785 383.569 10.5641 384.275 11.1558C384.71 11.4519 385.204 11.6623 385.729 11.7742C386.254 11.8861 386.798 11.8972 387.328 11.8067C388.381 11.5432 389.355 11.0547 390.171 10.3797C391.041 9.78349 392.049 9.38769 393.114 9.22479C393.866 9.07205 394.651 9.18017 395.323 9.52886C395.909 9.90978 396.392 10.4123 396.735 10.9969C397.443 12.4212 398.489 13.677 399.794 14.67C400.656 15.22 401.669 15.5289 402.713 15.5604C403.667 15.5154 404.569 15.1411 405.243 14.5104C406.709 13.2058 407.392 11.2699 408.272 9.61684C408.476 9.21787 408.681 8.80754 408.923 8.47651C409.043 8.29395 409.188 7.98626 408.919 7.86299C408.65 7.73972 408.298 8.026 408.165 8.20864C407.066 9.8063 406.456 11.6281 405.344 13.2372C405.142 13.5431 404.893 13.8203 404.606 14.06C404.497 14.1424 404.384 14.219 404.266 14.2893C404.132 14.3626 403.989 14.4208 403.84 14.4625C402.915 14.6188 401.96 14.4552 401.155 14.0024C399.76 13.1596 398.656 11.9594 397.975 10.5459C397.682 9.89947 397.208 9.33822 396.603 8.92048C395.998 8.50275 395.283 8.24376 394.534 8.17045C393.433 8.1615 392.344 8.39418 391.356 8.84968C390.384 9.27626 389.632 9.99685 388.721 10.4685C388.285 10.7125 387.793 10.855 387.286 10.884C386.779 10.9129 386.272 10.8274 385.808 10.6347C385.051 10.1854 384.331 9.6849 383.653 9.13733C382.616 8.56951 381.39 8.37904 380.211 8.60252C379.128 8.81454 378.094 9.20594 377.159 9.75814C375.421 10.735 373.759 12.0522 371.626 12.0657C370.51 11.9945 369.421 11.7114 368.426 11.234C367.204 10.7759 366.104 10.2603 364.942 9.7564C362.644 8.65949 360.248 7.75096 357.78 7.04107C357.292 6.91581 356.794 6.82404 356.291 6.7665C355.95 6.76868 355.406 7.47657 355.808 7.53082L355.821 7.55347Z" fill="black"/>
<path d="M408.107 7.38735C409.538 7.45936 410.944 7.54312 412.375 7.5456L416.923 7.51664L426.886 7.45319C433.659 7.41007 440.432 7.36694 447.192 7.32389C450.603 7.30217 454.026 7.28038 457.423 7.01539C457.68 7.01375 458.189 6.4079 457.737 6.36443C454.813 6.11651 451.879 6.15837 448.945 6.17705L438.97 6.24057C432.197 6.2837 425.42 6.32685 418.639 6.37003L413.431 6.40319C411.756 6.41385 410.107 6.51707 408.432 6.62044C408.151 6.62223 407.666 7.23951 408.106 7.27147L408.107 7.38735Z" fill="black"/>
<path d="M457.525 8.10023C463.702 11.5172 463.679 19.5696 468.19 24.3872C471.562 28.0099 478.671 29.0791 482.042 24.8625C485.412 20.6459 484 16.9999 484 12.0001C483 13 483.458 12.0002 482.5 14C482.5 19 483.788 26.542 476.316 26.5896C468.266 26.6408 466.422 19.2766 463.405 13.3099C462.271 10.8145 460.421 8.72649 458.099 7.32016C457.778 7.14689 457.179 7.87702 457.562 8.09999L457.525 8.10023Z" fill="black"/>
<path d="M3.48751 1.21114C3.35753 1.79359 3.39936 2.3994 3.60826 2.95998C3.81717 3.52055 4.18482 4.0135 4.66957 4.38302C5.83923 5.10435 7.19212 5.50234 8.58075 5.5336C12.0406 5.66105 15.5031 5.35298 18.8806 4.61719C20.1224 4.39657 21.3639 4.13118 22.6176 3.95527C22.6873 3.95483 22.8139 3.7637 22.686 3.75332C21.6806 3.77887 20.6807 3.9053 19.7024 4.13056C18.1008 4.40944 16.4992 4.67713 14.8855 4.87772C13.1518 5.12572 11.3998 5.23424 9.64755 5.20215C8.20061 5.23999 6.76404 4.95809 5.44798 4.37806C4.85293 4.068 4.37127 3.58911 4.06829 3.00631C3.7653 2.4235 3.65564 1.76494 3.75415 1.11988C3.75323 0.974352 3.51017 1.12143 3.49912 1.21106L3.48751 1.21114Z" fill="black"/>
<path d="M35.3796 5.79972C36.8845 5.96405 38.3187 6.57242 39.5251 7.5581C40.5773 8.50577 41.3599 9.75498 41.7828 11.1615C42.0204 11.9451 42.1865 12.7519 42.2786 13.5702C42.3612 14.2571 42.3544 14.9445 42.3812 15.6438C42.3697 16.9463 42.6061 18.2377 43.0758 19.438C43.3959 20.0734 43.8929 20.5842 44.4964 20.8985C45.0999 21.2128 45.7795 21.3145 46.4391 21.1893C46.5955 21.1883 46.8498 20.7647 46.6152 20.7661C46.0069 20.8687 45.3839 20.7672 44.8304 20.4752C44.277 20.1833 43.8198 19.715 43.5208 19.1337C43.0126 17.9025 42.76 16.5664 42.7808 15.2192C42.7608 13.7399 42.5445 12.2712 42.1384 10.8578C41.7373 9.46394 40.9868 8.21663 39.9701 7.25379C38.6784 6.17201 37.119 5.52729 35.4888 5.40107C35.3436 5.40199 35.1333 5.71687 35.3346 5.75177L35.3796 5.79972Z" fill="black"/>
<path d="M64.8949 8.45535C66.2813 8.64971 67.6323 9.02359 68.995 9.32568C70.134 9.63504 71.3165 9.76072 72.4965 9.69782C73.7496 9.57051 74.9543 9.15326 76.0122 8.48018C77.2311 7.68728 78.5056 6.98019 79.8259 6.36421C80.5988 6.01012 81.4134 5.752 82.251 5.59576C83.1436 5.46021 84.0538 5.48682 84.9366 5.67428C85.0824 5.67335 85.3722 5.3966 85.1774 5.32612C83.7964 4.9538 82.3296 5.03447 80.9993 5.55592C79.6176 6.04873 78.2937 6.68629 77.0506 7.45761C75.9078 8.2613 74.6276 8.85648 73.271 9.21478C72.0255 9.38508 70.7584 9.31603 69.5397 9.01145C68.0554 8.69818 66.5708 8.32516 65.063 8.13156C64.905 8.13257 64.6883 8.44472 64.8951 8.47926L64.8949 8.45535Z" fill="black"/>
<path d="M94.3561 9.08736C94.6614 9.28324 95.0398 9.42521 95.4553 9.49974C95.8708 9.57426 96.3097 9.57888 96.73 9.51314C97.5567 9.30717 98.3254 9.01421 99.0045 8.64627C99.9211 8.23496 100.942 7.93002 102.02 7.74529C103.141 7.57313 104.287 7.48204 105.438 7.47369C105.597 7.47267 105.847 7.23594 105.607 7.23747C103.522 7.17649 101.449 7.49799 99.6284 8.16467C98.8551 8.46352 98.1622 8.85738 97.3545 9.11971C96.9299 9.2655 96.4455 9.32147 95.9704 9.27963C95.4952 9.2378 95.0535 9.1003 94.7082 8.88672C94.5596 8.81418 94.2531 9.01454 94.3903 9.08715L94.3561 9.08736Z" fill="black"/>
<path d="M137.55 2.81968C139.058 2.72513 140.574 2.77319 142.069 2.96296C142.805 3.08719 143.501 3.33769 144.116 3.69886C144.698 4.06318 145.218 4.49225 145.663 4.97436C146.527 5.99131 147.561 6.89816 148.732 7.6672C149.917 8.31139 151.25 8.73744 152.645 8.9175C153.44 9.03071 154.243 9.10333 155.05 9.13497C155.945 9.19505 156.846 9.18931 157.741 9.11783C157.861 9.11706 158.112 8.86245 157.896 8.84359C157.14 8.79268 156.382 8.77724 155.624 8.79733C154.855 8.80222 154.086 8.71604 153.328 8.62977C151.845 8.47709 150.419 8.05449 149.151 7.39127C147.961 6.63603 146.922 5.72727 146.069 4.69851C145.22 3.73714 144.022 3.03452 142.656 2.69608C141.03 2.4601 139.373 2.40599 137.728 2.53516C137.584 2.53608 137.37 2.81071 137.574 2.81953L137.55 2.81968Z" fill="black"/>
<path d="M175.092 8.03604C175.298 8.28315 175.576 8.49902 175.91 8.67037C176.244 8.84172 176.627 8.96495 177.035 9.03246C177.699 9.0791 178.367 8.96206 178.915 8.70291C179.58 8.41715 180.216 8.10101 180.818 7.75673C181.149 7.58649 181.466 7.42567 181.825 7.27394C182.184 7.1222 182.515 7.03603 182.86 6.9124C182.86 6.9124 183.094 6.73344 182.859 6.73494C182.189 6.80666 181.567 7.01612 181.078 7.33474C180.444 7.63768 179.865 7.98697 179.23 8.28057C178.691 8.58086 178.021 8.75265 177.324 8.76908C176.917 8.71959 176.53 8.61176 176.19 8.45281C175.85 8.29387 175.565 8.0875 175.354 7.84756C175.256 7.75478 174.94 7.96228 175.037 8.06441L175.092 8.03604Z" fill="black"/>
<path d="M209.098 4.5802C210.218 4.92418 211.255 5.45236 212.156 6.13736C212.979 6.78337 213.714 7.51368 214.345 8.31318C214.977 9.11937 215.304 10.1903 216.278 10.7315C216.612 10.9473 217.016 11.0622 217.429 11.0596C217.842 11.057 218.244 10.9369 218.576 10.7169C218.944 10.4532 219.268 10.1453 219.541 9.80198C219.886 9.43273 220.195 9.03893 220.468 8.62456C220.467 8.52602 220.405 8.50452 220.332 8.54878C219.646 8.9911 219.295 9.7707 218.696 10.2891C218.527 10.4284 218.328 10.5359 218.112 10.6052C217.895 10.6744 217.665 10.704 217.436 10.6922C217.206 10.6804 216.982 10.6274 216.776 10.5363C216.57 10.4453 216.387 10.3181 216.237 10.1624C215.616 9.41564 215.045 8.63691 214.527 7.83028C213.897 7.11343 213.193 6.45077 212.425 5.85098C211.53 5.17036 210.501 4.64246 209.391 4.29366C209.232 4.29468 208.963 4.54821 209.135 4.61281L209.098 4.5802Z" fill="black"/>
<path d="M272.723 3.27817C275.959 3.84693 279.26 3.0552 282.517 3.0118C283.323 2.98798 284.129 3.03216 284.926 3.14379C285.584 3.21199 286.226 3.37631 286.826 3.6304C287.436 3.98222 287.92 4.48693 288.22 5.0836C289.066 6.5063 289.488 8.11305 290.196 9.60463C290.702 10.6441 291.534 11.9422 293.004 11.6835C293.449 11.595 293.871 11.4308 294.249 11.1996C294.918 10.777 295.616 10.394 296.338 10.0529C297.792 9.51357 299.36 9.27888 300.926 9.36629C301.063 9.36541 301.249 9.10355 301.062 9.10474C299.71 9.04441 298.357 9.19096 297.059 9.53825C296.499 9.73135 295.961 9.97394 295.454 10.2625C294.894 10.5608 294.372 10.9494 293.788 11.2138C293.508 11.3743 293.184 11.4605 292.853 11.4626C292.522 11.4647 292.198 11.3827 291.916 11.2258C291.358 10.8078 290.925 10.2687 290.658 9.65835C289.925 8.17826 289.54 6.58262 288.77 5.13678C288.495 4.51727 288.064 3.96497 287.512 3.52402C287.131 3.29224 286.707 3.12591 286.261 3.03329C285.563 2.86054 284.847 2.75494 284.125 2.71821C280.38 2.50404 276.643 3.5479 272.959 3.07266C272.822 3.07353 272.586 3.36971 272.761 3.39127L272.723 3.27817Z" fill="black"/>
<path d="M352.343 2.6952C354.227 2.65969 356.107 2.86461 357.935 3.30464C358.822 3.53624 359.69 3.83338 360.53 4.19345C361.387 4.56143 362.21 4.99754 363.067 5.30895C364.647 6.07445 366.363 6.54352 368.125 6.69131C369.571 6.61771 370.979 6.22139 372.241 5.53344C373.011 5.17772 373.759 4.7882 374.577 4.46613C375.416 4.13044 376.29 3.88208 377.184 3.72527C377.184 3.72527 377.289 3.63406 377.184 3.63473C375.707 3.74153 374.276 4.17254 372.998 4.8949C371.683 5.63393 370.228 6.11253 368.72 6.30277C366.96 6.2352 365.237 5.79412 363.674 5.01085C362.026 4.21064 360.327 3.5109 358.589 2.91572C356.596 2.41207 354.539 2.18886 352.481 2.25297C352.329 2.25394 352.097 2.59492 352.319 2.5935L352.343 2.6952Z" fill="black"/>
<path d="M390.948 4.53564C392.271 4.39756 393.624 4.4565 394.902 4.70789C396.222 5.10951 397.011 5.9853 398.378 6.36384C398.822 6.48907 399.315 6.524 399.793 6.46394C400.27 6.40387 400.708 6.25168 401.047 6.02793C401.13 5.97425 401.141 5.86029 400.975 5.9069C400.441 6.1511 399.788 6.26322 399.137 6.22233C398.568 6.12547 398.041 5.95 397.591 5.70825C396.968 5.32657 396.307 4.97064 395.613 4.64261C394.292 4.10432 392.596 4.27458 391.113 4.32958C390.958 4.33056 390.758 4.54444 390.948 4.53564V4.53564Z" fill="black"/>
<path d="M454.572 1.93356C457.107 1.81764 459.646 2.08004 462.101 2.71186C463.32 3.13072 464.431 3.80683 465.355 4.69275C466.357 5.65589 467.414 6.56222 468.52 7.40736C469.648 8.2263 470.717 9.12162 471.719 10.0868C472.664 11.1078 473.551 12.1782 474.378 13.2934C475.804 15.1987 477.635 16.7755 479.743 17.9142C480.452 18.3437 481.285 18.5307 482.113 18.446C483.022 18.2308 483.064 17.2763 482.917 16.5557C482.916 16.3695 482.503 16.6398 482.54 16.8141C482.577 16.9884 482.735 17.7089 482.453 17.9784C482.34 18.0539 482.212 18.1049 482.077 18.1278C481.943 18.1507 481.805 18.1451 481.673 18.1114C480.927 17.9933 480.211 17.7373 479.562 17.3568C477.453 16.0831 475.634 14.3951 474.219 12.3984C473.428 11.3087 472.56 10.2759 471.62 9.30778C470.668 8.41777 469.633 7.63302 468.599 6.83664C467.565 6.04025 466.601 5.16195 465.625 4.26046C464.776 3.46139 463.775 2.83503 462.679 2.41725C460.177 1.46729 457.374 1.64806 454.747 1.59496C454.582 1.59602 454.347 1.94663 454.572 1.9452L454.572 1.93356Z" fill="black"/>
<path d="M218.56 8.64618C219.113 7.8326 219.77 7.09063 220.515 6.43813L221.625 5.46714C222.002 5.15167 222.35 4.8045 222.665 4.42965C222.788 4.26822 222.663 4.13513 222.471 4.25684C222.074 4.55391 221.718 4.90426 221.334 5.24139C220.951 5.57853 220.567 5.91567 220.198 6.26611C219.443 6.95492 218.786 7.73793 218.243 8.59464C218.228 8.60603 218.217 8.62038 218.209 8.63664C218.201 8.65291 218.197 8.67068 218.197 8.68865C218.197 8.70662 218.202 8.72433 218.21 8.7405C218.218 8.75666 218.229 8.77086 218.244 8.78207C218.327 8.78154 218.451 8.78075 218.491 8.64662L218.56 8.64618Z" fill="black"/>
<path d="M173.903 4.83048C174.309 5.02235 174.701 5.26373 175.074 5.55166C175.257 5.70263 175.426 5.88525 175.574 6.09495C175.65 6.20121 175.719 6.31543 175.781 6.43652C175.832 6.57849 175.912 6.69722 176.012 6.77794C176.042 6.78156 176.072 6.77051 176.096 6.74677C176.121 6.72304 176.138 6.68819 176.145 6.64851C176.143 6.48473 176.114 6.3235 176.062 6.17587C176.009 6.02824 175.933 5.89771 175.84 5.79323C175.688 5.57016 175.511 5.3798 175.317 5.22866C174.919 4.93297 174.5 4.69499 174.067 4.5187C173.964 4.51935 173.777 4.767 173.903 4.83048V4.83048Z" fill="black"/>
<path d="M145.474 4.00522C145.818 4.51211 146.185 4.97642 146.537 5.41255L147.036 6.1447L147.281 6.53909C147.363 6.67997 147.437 6.87748 147.551 6.94746C147.665 7.01743 147.761 6.76229 147.735 6.62104C147.694 6.43088 147.623 6.26464 147.53 6.14156C147.454 5.99484 147.372 5.85827 147.284 5.73303C147.12 5.47954 146.949 5.24023 146.769 5.00098C146.409 4.52248 146.042 4.07231 145.691 3.59375C145.592 3.45297 145.376 3.83616 145.474 3.99108L145.474 4.00522Z" fill="black"/>
<path d="M97.9646 7.25134C98.8279 6.88282 99.7045 6.52818 100.621 6.20122L101.95 5.74597C102.404 5.6146 102.848 5.44844 103.279 5.24884C103.345 5.24841 103.516 4.95412 103.343 4.96918C102.888 5.01464 102.44 5.12555 102.014 5.29878L100.592 5.81047C99.7021 6.15122 98.8122 6.50594 97.9357 6.8885C97.7365 6.97354 97.6459 7.37902 97.938 7.2515L97.9646 7.25134Z" fill="black"/>
<path d="M75.241 7.37773C76.281 6.81006 77.3207 6.21287 78.388 5.68932C78.9284 5.42012 79.4824 5.1656 80.0366 4.94061C80.5908 4.71561 81.1456 4.5792 81.659 4.32494C81.7403 4.32442 81.9413 3.9688 81.738 3.97009C81.192 4.02143 80.6573 4.16945 80.1552 4.40834C79.5874 4.63342 79.0334 4.88794 78.493 5.15713C77.3853 5.71047 76.3185 6.32259 75.2382 6.93481C75.0221 7.0543 74.9035 7.57181 75.241 7.37773V7.37773Z" fill="black"/>
<path d="M39.8783 5.63435C41.1544 5.52825 42.3511 6.41127 43.1068 7.12787C43.6173 7.57744 44.07 8.07005 44.4574 8.59773C44.6151 8.81179 44.7563 9.034 44.8801 9.26302C44.9475 9.4736 45.0538 9.67419 45.195 9.85774C45.2922 9.94618 45.4843 9.78465 45.5052 9.70436C45.5085 9.3072 45.3636 8.91923 45.0904 8.5937C44.8196 8.17836 44.5047 7.78394 44.1494 7.41514C43.4633 6.65045 42.5699 6.03073 41.5412 5.60595C41.0574 5.41318 40.5181 5.33641 39.984 5.3843C39.8659 5.38505 39.696 5.65332 39.8783 5.63435V5.63435Z" fill="black"/>
<path d="M375.168 3.2218C375.859 3.00332 376.578 2.82357 377.315 2.68452L378.361 2.49606C378.717 2.44955 379.061 2.37151 379.385 2.2641C379.463 2.2636 379.584 2.08829 379.384 2.07503C379.208 2.08287 379.035 2.1085 378.872 2.15101L378.315 2.25637C377.959 2.32409 377.614 2.38446 377.269 2.45938C376.534 2.60465 375.819 2.79171 375.133 3.0184C375.055 3.01889 374.944 3.11414 374.956 3.17952C374.967 3.24489 375.057 3.2516 375.134 3.22201L375.168 3.2218Z" fill="black"/>
<path d="M487.188 8.95464C495.606 8.90104 504.088 9.16 512.491 8.73093C512.66 8.69923 512.814 8.61512 512.934 8.49025C515.646 8.58565 515.688 19.026 515.846 20.715C516.002 23.1858 516.875 25.5546 518.355 27.5218C520.58 30.4495 523.606 29.5414 525.648 26.9871C529.512 22.1428 527.454 10.4634 536.009 10.6468C539.066 10.7275 542.045 12.0605 544.995 12.7553C546.387 13.1694 547.853 13.2593 549.283 13.0182C550.713 12.7772 552.072 12.2115 553.257 11.3632C555.073 10.0997 556.704 8.69978 558.996 8.61008C559.783 8.59852 560.554 8.84268 561.195 9.30696C561.837 9.77125 562.315 10.4314 562.562 11.1913C563.813 14.1002 564.26 18.4789 567.67 19.7466C570.87 20.9781 574.046 16.4887 575.697 14.4376C577.235 12.4392 579.192 10.8134 581.425 9.67761C583.658 8.54185 586.112 7.92465 588.609 7.87067C588.735 7.85744 588.854 7.80899 588.954 7.73077C589.833 7.88224 590.727 7.92698 591.617 7.86405C593.01 7.85518 594.415 7.84623 595.807 7.83736L603.547 7.71297L611.274 7.58864C614.072 7.57083 616.933 7.69033 619.717 7.42222L619.852 7.42136C621.469 9.19477 623.301 10.7522 625.305 12.0561C627.776 13.4204 630.555 14.106 633.366 14.0453C638.52 14.2253 642.546 11.5833 646.894 9.20209C648.775 12.4199 650.438 16.0648 654.712 15.6245C655.52 15.5249 656.298 15.2469 656.989 14.8099C657.68 14.373 658.269 13.7878 658.714 13.0953C659.17 12.4183 659.578 11.7086 659.933 10.9718C660.435 10.1235 661.008 9.32001 661.643 8.56987C663.154 8.73966 664.676 8.77187 666.192 8.6661L671.652 8.63133C675.327 8.76463 679.006 8.6785 682.67 8.37339C686.367 8.34985 688.564 10.6643 690.481 13.6316C691.576 15.3397 693.153 19.1228 695.581 19.0698C697.479 19.0577 698.708 16.5461 699.464 15.1392C700.682 12.8906 701.404 10.1194 703.117 8.19311C707.064 7.67799 711.053 7.56871 715.021 7.86693C719.414 8.02263 723.811 7.95284 728.196 7.65785C733.237 7.28994 738.294 7.21594 743.343 7.43622C747.93 7.70746 752.394 8.00453 756.898 6.89923L757.021 6.89845C759.392 8.05556 761.354 9.92726 762.639 12.2582C763.523 14.2692 764.217 16.3606 764.713 18.5044C765.145 20.3525 766.258 21.9625 767.823 23.0039C768.609 23.3773 769.485 23.5105 770.344 23.3873C771.203 23.264 772.009 22.8895 772.662 22.3096C774.174 20.8717 775.416 19.1671 776.328 17.2787C776.82 16.3767 777.41 15.5332 778.087 14.7638C779.409 13.3658 781.502 13.0395 783.301 12.8528C786.158 12.5591 788.424 12.2192 790.767 10.4392C793.11 8.65912 795.268 6.84269 798.446 6.54704C798.569 6.52372 798.684 6.46672 798.777 6.38218C804.462 6.74658 810.204 6.54727 815.899 6.51102L824.526 6.45608C827.297 6.6371 830.078 6.54812 832.832 6.19037C835.991 6.78368 838.923 8.48007 841.792 9.88894C844.463 11.2114 847.296 12.921 850.334 11.9627C853.373 11.0045 855.595 7.72293 858.94 8.51535C860.175 8.82046 861.057 9.90397 862.146 10.5355C862.684 10.7852 863.269 10.9127 863.861 10.9089C864.453 10.9051 865.037 10.7703 865.572 10.5137C866.802 10.0552 867.67 8.99807 868.813 8.43997C869.456 8.07002 870.185 7.88172 870.924 7.89462C871.663 7.90753 872.386 8.12117 873.016 8.51335C874.726 9.85449 875.185 12.3303 876.92 13.7464C877.727 14.4784 878.773 14.8799 879.854 14.8731C880.936 14.8662 881.977 14.4513 882.774 13.7091C884.551 12.0703 885.212 9.38713 886.345 7.26425C894.421 7.70106 902.554 7.4114 910.639 7.35992L923.864 7.27571C927.771 7.25083 931.704 7.31342 935.608 6.93804C942.82 10.9357 941.792 21.7709 949.284 25.4162C950.784 26.1422 952.437 26.4811 954.096 26.4028C955.756 26.3245 957.37 25.8315 958.797 24.9676C961.043 23.4385 961.85 20.6041 962.056 18.0239C962.569 11.4734 959.112 4.51887 955 -0.5C930.268 -0.49978 489.927 0.499834 480.5 0.5C481.687 5.91089 481.333 8.65031 487.188 8.95464Z" fill="url(#paint1_radial_228_4052)"/>
<path d="M483.874 18.0796C484.242 17.1566 484.301 16.1516 484.046 15.1969C483.896 13.8242 483.84 12.4439 483.88 11.0645C483.874 10.5001 483.939 9.93689 484.072 9.38624L484.071 9.25634C484.072 9.3272 484.133 9.09061 484.071 9.25634C483.958 9.36335 484.071 9.18548 484.071 9.25634L483.945 9.35162L483.844 9.35227L483.755 9.35283L484.515 9.348C486.931 9.33261 489.336 9.3173 491.752 9.30191L511.113 9.17863C511.91 9.17355 512.72 9.1684 513.517 9.16332C513.694 9.14544 513.863 9.08421 514.007 8.98583C514.151 8.88745 514.264 8.7554 514.336 8.60304C514.461 8.36605 514.446 8.03547 514.092 8.02592C510.953 7.90419 507.765 8.06621 504.639 8.01525L485.76 8.13547C485.234 8.07991 484.703 8.08329 484.178 8.14554C483.843 8.26168 483.543 8.45219 483.304 8.70062C483.065 8.94905 482.895 9.24793 482.808 9.57145C482.451 10.8147 482.339 12.108 482.478 13.3881C482.485 14.5691 482.189 17.6919 482.997 18.4999C483.496 18.9998 482.519 20.3407 483.874 18.0796Z" fill="black"/>
<path d="M513.52 9.01162C513.673 8.98192 513.831 8.98789 513.981 9.02908C514.132 9.07027 514.271 9.14556 514.387 9.24906C514.706 9.56183 514.95 9.94232 515.101 10.3622C515.592 11.6398 515.904 12.9786 516.029 14.3409C516.234 15.931 516.366 17.5338 516.499 19.1972C516.567 20.479 516.71 21.7558 516.925 23.0212C517.386 24.9078 518.33 26.643 519.664 28.0575C520.37 28.8105 521.336 29.2688 522.367 29.3402C522.982 29.3101 523.584 29.1548 524.136 28.8839C524.688 28.6129 525.178 28.232 525.576 27.7647C526.427 26.9273 527.119 25.9434 527.618 24.8604C528.048 23.8137 528.379 22.7299 528.61 21.6227C528.859 20.5156 529.059 19.3845 529.332 18.2773C529.62 17.1791 530.021 16.1138 530.531 15.0989C530.949 14.1972 531.517 13.3722 532.211 12.6586C532.733 12.1147 533.373 11.6954 534.081 11.4318C535.651 10.9965 537.309 10.9859 538.884 11.4013C540.752 11.7903 542.549 12.3984 544.43 12.8723C546.386 13.5563 548.487 13.7271 550.529 13.368C552.376 12.6658 554.098 11.6747 555.632 10.4321C556.354 9.8601 557.2 9.46465 558.103 9.27746C559.006 9.09028 559.94 9.11656 560.831 9.35422C561.457 9.67211 562.003 10.1262 562.429 10.6829C562.854 11.2396 563.149 11.8845 563.29 12.57C563.539 13.3216 563.751 14.0856 564.024 14.8249C564.311 15.6056 564.667 16.3595 565.087 17.0777C566.061 18.8209 567.547 20.4636 569.763 19.9514C571.711 19.5017 573.286 17.8273 574.557 16.3857C575.247 15.6039 575.876 14.7738 576.578 14.0161C577.274 13.2664 578.024 12.5674 578.82 11.9245C580.607 10.4645 582.694 9.41431 584.934 8.84844C586.13 8.55574 587.358 8.41324 588.589 8.42427C588.75 8.40852 588.903 8.35019 589.033 8.25535C589.163 8.16051 589.266 8.03264 589.329 7.88504C589.438 7.65353 589.424 7.33776 589.119 7.32756C586.719 7.38175 584.355 7.92324 582.173 8.9189C579.991 9.91455 578.035 11.3434 576.426 13.1181C574.984 14.5972 573.8 16.3298 572.224 17.6762C571.011 18.7286 569.383 19.5529 567.9 18.4447C567.041 17.7097 566.346 16.8037 565.859 15.7851C565.481 15.0737 565.174 14.3269 564.943 13.5557C564.611 12.0748 564.011 10.6666 563.173 9.40006C562.58 8.79326 561.831 8.36143 561.008 8.15229C560.184 7.94315 559.319 7.96483 558.507 8.21493C556.575 8.87175 554.78 9.87545 553.21 11.1764C552.477 11.7227 551.654 12.1389 550.779 12.4067C549.764 12.6316 548.712 12.6383 547.694 12.4264C545.784 12.0613 543.896 11.5866 542.04 11.0046C540.337 10.4573 538.567 10.1417 536.779 10.0662C534.993 10.0481 533.262 10.6813 531.913 11.8465C530.288 13.4173 529.114 15.3917 528.511 17.5658C527.817 19.7326 527.625 22.0177 526.907 24.1725C526.609 25.1503 526.103 26.0527 525.424 26.8181C524.673 27.6247 523.898 28.4314 522.69 28.2691C521.662 28.0376 520.758 27.4326 520.155 26.5723C519.353 25.5679 518.738 24.4278 518.341 23.2066C518.165 22.7518 518.036 22.2805 517.954 21.7999C517.853 21.1931 517.788 20.5861 517.735 19.9669C517.591 18.4249 517.472 16.8707 517.303 15.329C517.165 13.7966 516.899 12.2785 516.506 10.7906C516.244 9.8811 515.834 8.596 514.844 8.23785C514.439 8.1325 514.01 8.16516 513.625 8.33065C513.358 8.44169 513.033 9.13621 513.544 9.01147L513.52 9.01162Z" fill="black"/>
<path d="M620.075 7.82374C620.815 8.49291 621.518 9.17337 622.32 9.78691C623.051 10.3631 623.816 10.904 624.613 11.4073C626.22 12.4406 628.056 13.1594 630.002 13.5162C631.16 13.7004 632.332 13.8074 633.508 13.8363C634.573 13.8812 635.641 13.8485 636.7 13.7386C638.462 13.5383 640.175 13.0794 641.768 12.3807C643.857 11.4836 645.846 10.4215 647.898 9.46938C648.056 9.40316 648.193 9.30201 648.295 9.17563C648.397 9.04924 648.46 8.90186 648.479 8.7476C648.478 8.44933 648.116 8.44059 647.867 8.5416C644.584 9.97656 641.516 12.0288 637.828 12.6046C635.718 12.9052 633.569 12.9189 631.455 12.6452C629.533 12.3833 627.697 11.7624 626.068 10.8236C625.192 10.3114 624.355 9.74835 623.563 9.13825C622.673 8.47003 621.771 7.82398 620.857 7.17802C620.531 6.9481 619.849 7.549 620.137 7.82334L620.075 7.82374Z" fill="black"/>
<path d="M647.37 8.00088C648.125 9.25415 648.811 10.6085 649.602 11.8741C650.265 13.0777 651.279 14.0205 652.491 14.5606C653.978 15.0698 655.593 14.9374 656.988 14.1923C658.112 13.4805 659.014 12.4334 659.58 11.1816C659.908 10.5379 660.213 9.91945 660.588 9.26285C660.772 8.9568 660.976 8.66538 661.2 8.39089C661.518 8.05327 661.806 7.68502 662.059 7.29088C662.177 7.07626 662.056 6.80025 661.796 6.87739C661.108 7.21215 660.532 7.75966 660.144 8.44794C659.768 8.99991 659.426 9.57787 659.122 10.178C658.864 10.6955 658.607 11.2507 658.325 11.7179C658.08 12.1993 657.753 12.628 657.36 12.9822C656.805 13.3633 656.18 13.6172 655.527 13.7275C654.873 13.8379 654.205 13.8022 653.566 13.6228C652.38 13.2172 651.361 12.3934 650.678 11.2886C649.907 9.92733 649.046 8.62536 648.102 7.39234C647.85 7.10458 647.19 7.75041 647.37 8.06378L647.37 8.00088Z" fill="black"/>
<path d="M661.081 7.81774C661.698 7.98844 662.343 8.0379 662.979 7.96341L679.588 7.85765C680.396 7.84016 681.202 7.77424 682.003 7.66026C682.28 7.65849 682.856 6.98746 682.36 6.92995C681.711 6.84196 681.057 6.78941 680.402 6.77254L663.829 6.87807C663.041 6.82078 662.248 6.87484 661.475 7.03867C661.27 7.11277 660.706 7.63813 661.117 7.80539L661.081 7.81774Z" fill="black"/>
<path d="M681.522 7.7712C682.878 7.69848 684.23 7.96563 685.456 8.54825C686.544 9.135 687.498 9.93897 688.26 10.91C689.99 12.9978 691.24 15.4496 692.916 17.5646C693.414 18.3159 694.164 18.8657 695.031 19.1152C695.427 19.1784 695.832 19.1523 696.217 19.0388C696.602 18.9253 696.956 18.7273 697.253 18.4594C698.741 17.0194 699.889 15.2677 700.614 13.3312C701.156 12.1914 701.672 11.0518 702.255 9.92518C702.489 9.46285 702.75 9.01478 703.037 8.58335C703.17 8.36861 703.303 8.1806 703.449 7.97914L703.582 7.81788L703.836 7.56226C704.022 7.37392 704.288 6.95781 704.045 6.70535C703.802 6.4529 703.361 6.7097 703.188 6.9247C701.866 8.49604 700.813 10.2732 700.07 12.185C699.607 13.1638 699.157 14.156 698.64 15.1084C698.432 15.5144 698.202 15.9086 697.95 16.2892L697.578 16.8531L697.392 17.0815C697.392 17.0815 697.246 17.2562 697.393 17.1617C697.539 17.0672 697.393 17.1617 697.313 17.2424L697.126 17.4442C697.126 17.4442 696.846 17.6866 697.033 17.5383L696.859 17.6731L696.739 17.7541L696.552 17.8489C696.405 17.8498 696.659 17.8482 696.552 17.8489L696.445 17.8496L696.337 17.8502L696.069 17.852C695.948 17.8539 695.829 17.8271 695.72 17.774C695.559 17.7183 695.405 17.6429 695.263 17.5496C694.867 17.2838 694.516 16.9565 694.224 16.5803C692.508 14.5191 691.285 12.1072 689.596 10.0325C688.766 8.93565 687.708 8.03038 686.494 7.37858C685.055 6.7356 683.449 6.56332 681.905 6.88643C681.623 6.88823 681.146 7.69338 681.628 7.67694L681.522 7.7712Z" fill="black"/>
<path d="M703.302 7.72698C704.708 7.58884 706.13 7.49618 707.559 7.4496C709.198 7.40254 710.849 7.42865 712.525 7.41797C715.742 7.46464 718.958 7.59676 722.174 7.52135C729.983 7.34954 737.803 6.92739 745.614 7.21338C749.716 7.42909 753.869 7.30983 757.905 6.86043C758.086 6.83494 758.251 6.78675 758.383 6.72061C758.515 6.65447 758.611 6.57266 758.66 6.48327C758.733 6.32409 758.534 6.21549 758.199 6.26035C754.589 6.66487 750.882 6.80367 747.2 6.67222C743.226 6.58154 739.265 6.55793 735.293 6.63817C731.32 6.7184 727.496 6.85873 723.598 6.96291C720.37 7.0506 717.154 6.95511 713.925 6.89631C712.062 6.86544 710.2 6.84678 708.338 6.93189C706.645 6.94134 704.966 7.09452 703.374 7.38468C703.101 7.44136 702.756 7.77928 703.289 7.73316L703.302 7.72698Z" fill="black"/>
<path d="M757.696 7.14741C759.572 7.9992 761.221 9.27397 762.51 10.8697C763.564 12.3163 764.328 13.9502 764.759 15.6823C765.507 18.3203 766.264 22.3339 769.462 23.0859C773.124 23.9435 775.173 20.3464 776.742 17.754C777.164 17.0635 777.574 16.373 778.057 15.7304C778.45 15.1708 778.953 14.6956 779.535 14.3332C781.527 13.1138 784.014 13.1704 786.279 12.8784C787.439 12.7576 788.568 12.4316 789.613 11.9159C790.528 11.3704 791.396 10.7514 792.209 10.0651C793.609 8.80685 795.266 7.86199 797.067 7.29493C797.647 7.15794 798.238 7.0694 798.833 7.03026C798.984 7.01009 799.127 6.95121 799.249 6.85944C799.37 6.76767 799.465 6.64618 799.524 6.50696C799.608 6.32542 799.618 5.9754 799.314 5.98941C797.193 6.14717 795.159 6.88728 793.44 8.12653C792.663 8.66244 791.936 9.27044 791.184 9.84239C790.361 10.5483 789.414 11.0984 788.391 11.4651C786.189 12.1429 783.835 11.8924 781.62 12.4978C779.77 12.9811 778.156 14.1044 777.07 15.6643C776.103 17.022 775.357 18.511 774.39 19.8566C774.079 20.4499 773.633 20.964 773.088 21.3589C772.543 21.7537 771.913 22.0187 771.248 22.1332C767.714 22.3126 766.701 18.3127 765.965 15.6626C765.559 14.0236 764.916 12.4509 764.058 10.9926C763.004 9.32373 761.524 7.95959 759.767 7.03767C759.278 6.77531 758.777 6.54922 758.276 6.3352C757.775 6.12118 757.28 6.93284 757.696 7.13534L757.696 7.14741Z" fill="black"/>
<path d="M833.818 6.55323C836.214 7.06851 838.521 7.89122 840.673 8.99782C842.912 10.0997 845.227 11.0605 847.604 11.8737C849.827 12.5412 851.979 11.5731 853.813 10.4707C855.647 9.36831 857.699 8.0259 859.898 8.71634C860.765 9.07827 861.566 9.56382 862.272 10.1555C862.707 10.4516 863.202 10.6621 863.726 10.774C864.251 10.8859 864.795 10.8969 865.325 10.8065C866.378 10.543 867.352 10.0544 868.168 9.37948C869.038 8.78325 870.047 8.38745 871.112 8.22455C871.863 8.0718 872.649 8.17992 873.32 8.52862C873.906 8.90953 874.389 9.41205 874.732 9.99667C875.44 11.4209 876.486 12.6767 877.791 13.6698C878.653 14.2198 879.666 14.5287 880.71 14.5602C881.664 14.5152 882.566 14.1408 883.24 13.5101C884.706 12.2055 885.389 10.2697 886.269 8.6166C886.473 8.21763 886.678 7.8073 886.92 7.47626C887.04 7.2937 887.185 6.98601 886.916 6.86274C886.647 6.73948 886.295 7.02576 886.162 7.20839C885.063 8.80606 884.453 10.6278 883.341 12.2369C883.139 12.5429 882.89 12.82 882.603 13.0597C882.494 13.1422 882.381 13.2188 882.263 13.2891C882.129 13.3624 881.986 13.4205 881.837 13.4622C880.912 13.6185 879.957 13.4549 879.152 13.0021C877.757 12.1593 876.653 10.9592 875.972 9.54565C875.679 8.89922 875.205 8.33798 874.6 7.92024C873.995 7.5025 873.28 7.24352 872.531 7.17021C871.43 7.16125 870.341 7.39393 869.353 7.84943C868.381 8.27602 867.63 8.9966 866.718 9.46824C866.283 9.71226 865.79 9.85479 865.283 9.88373C864.776 9.91267 864.269 9.82717 863.805 9.63449C863.049 9.18513 862.328 8.68465 861.65 8.13709C860.613 7.56927 859.388 7.37879 858.208 7.60227C857.125 7.81429 856.091 8.2057 855.156 8.7579C853.418 9.73472 851.756 11.0519 849.623 11.0655C848.507 10.9942 847.418 10.7112 846.423 10.2337C845.201 9.77568 844.101 9.26004 842.939 8.75615C840.641 7.65925 838.245 6.75072 835.778 6.04082C835.289 5.91556 834.791 5.8238 834.288 5.76626C833.947 5.76843 833.403 6.47633 833.806 6.53057L833.818 6.55323Z" fill="black"/>
<path d="M886.103 6.38711C887.534 6.45911 888.941 6.54287 890.371 6.54535L894.919 6.51639L904.882 6.45295C911.655 6.40982 918.428 6.3667 925.188 6.32365C928.599 6.30193 932.022 6.28013 935.419 6.01514C935.676 6.01351 936.186 5.40765 935.733 5.36418C932.809 5.11626 929.876 5.15812 926.941 5.17681L916.966 5.24033C910.193 5.28345 903.416 5.32661 896.635 5.36978L891.427 5.40295C889.752 5.41361 888.103 5.51683 886.428 5.6202C886.147 5.62199 885.662 6.23927 886.102 6.27123L886.103 6.38711Z" fill="black"/>
<path d="M935.521 7.09999C941.698 10.517 941.675 18.5693 946.187 23.387C949.558 27.0096 956.667 28.0789 960.038 23.8623C963.408 19.6457 962.002 13.318 960.594 8.83129C956.224 -7.64332e-05 955.634 1.1786 960.232 11.7765C961.56 17.3532 961.784 25.5417 954.313 25.5893C946.263 25.6406 944.418 18.2764 941.402 12.3096C940.267 9.81427 938.417 7.72625 936.095 6.31992C935.774 6.14665 935.175 6.87678 935.558 7.09976L935.521 7.09999Z" fill="black"/>
<path d="M481.484 0.210894C481.354 0.793349 481.395 1.39916 481.604 1.95973C481.813 2.52031 482.181 3.01326 482.666 3.38277C483.835 4.10411 485.188 4.50209 486.577 4.53335C490.037 4.66081 493.499 4.35274 496.877 3.61694C498.118 3.39633 499.36 3.13094 500.614 2.95503C500.683 2.95458 500.81 2.76346 500.682 2.75308C499.677 2.77863 498.677 2.90506 497.699 3.13032C496.097 3.4092 494.495 3.67689 492.882 3.87748C491.148 4.12548 489.396 4.234 487.644 4.20191C486.197 4.23974 484.76 3.95784 483.444 3.37782C482.849 3.06775 482.367 2.58887 482.064 2.00606C481.761 1.42325 481.652 0.764699 481.75 0.119638C481.749 -0.0258926 481.506 0.121189 481.495 0.21082L481.484 0.210894Z" fill="black"/>
<path d="M513.376 4.79948C514.881 4.9638 516.315 5.57217 517.521 6.55786C518.573 7.50553 519.356 8.75473 519.779 10.1613C520.017 10.9449 520.183 11.7516 520.275 12.57C520.357 13.2568 520.35 13.9443 520.377 14.6435C520.366 15.946 520.602 17.2374 521.072 18.4378C521.392 19.0731 521.889 19.584 522.492 19.8983C523.096 20.2125 523.776 20.3143 524.435 20.1891C524.592 20.1881 524.846 19.7644 524.611 19.7659C524.003 19.8685 523.38 19.7669 522.827 19.475C522.273 19.183 521.816 18.7147 521.517 18.1335C521.009 16.9022 520.756 15.5661 520.777 14.2189C520.757 12.7397 520.541 11.2709 520.135 9.85753C519.733 8.4637 518.983 7.21639 517.966 6.25354C516.674 5.17176 515.115 4.52705 513.485 4.40082C513.34 4.40175 513.129 4.71663 513.331 4.75153L513.376 4.79948Z" fill="black"/>
<path d="M542.891 7.4551C544.277 7.64947 545.628 8.02335 546.991 8.32543C548.13 8.6348 549.313 8.76048 550.493 8.69757C551.746 8.57027 552.95 8.15302 554.008 7.47994C555.227 6.68703 556.502 5.97994 557.822 5.36397C558.595 5.00988 559.409 4.75175 560.247 4.59552C561.14 4.45996 562.05 4.48658 562.933 4.67404C563.078 4.67311 563.368 4.39635 563.173 4.32588C561.793 3.95355 560.326 4.03423 558.995 4.55568C557.614 5.04849 556.29 5.68605 555.047 6.45736C553.904 7.26106 552.624 7.85624 551.267 8.21454C550.022 8.38483 548.754 8.31579 547.536 8.01121C546.052 7.69794 544.567 7.32491 543.059 7.13132C542.901 7.13233 542.684 7.44447 542.891 7.47901L542.891 7.4551Z" fill="black"/>
<path d="M572.352 8.08712C572.657 8.283 573.036 8.42496 573.451 8.49949C573.867 8.57402 574.306 8.57863 574.726 8.51289C575.553 8.30692 576.321 8.01397 577.001 7.64602C577.917 7.23472 578.938 6.92978 580.016 6.74505C581.137 6.57289 582.283 6.48179 583.434 6.47344C583.594 6.47243 583.843 6.2357 583.603 6.23722C581.518 6.17625 579.445 6.49774 577.624 7.16442C576.851 7.46327 576.158 7.85714 575.351 8.11946C574.926 8.26526 574.442 8.32122 573.966 8.27939C573.491 8.23755 573.05 8.10005 572.704 7.88647C572.556 7.81394 572.249 8.01429 572.386 8.0869L572.352 8.08712Z" fill="black"/>
<path d="M615.546 1.81944C617.054 1.72489 618.57 1.77295 620.065 1.96272C620.801 2.08695 621.498 2.33744 622.113 2.69862C622.694 3.06294 623.214 3.492 623.659 3.97412C624.523 4.99106 625.557 5.89792 626.728 6.66695C627.913 7.31115 629.246 7.7372 630.641 7.91726C631.437 8.03047 632.24 8.10309 633.046 8.13472C633.942 8.1948 634.842 8.18907 635.737 8.11758C635.857 8.11682 636.108 7.8622 635.892 7.84334C635.136 7.79244 634.378 7.77699 633.62 7.79708C632.851 7.80198 632.082 7.71579 631.324 7.62953C629.841 7.47684 628.415 7.05425 627.147 6.39103C625.958 5.63578 624.918 4.72703 624.065 3.69826C623.216 2.7369 622.018 2.03428 620.652 1.69584C619.026 1.45986 617.369 1.40575 615.725 1.53492C615.58 1.53584 615.366 1.81046 615.57 1.81928L615.546 1.81944Z" fill="black"/>
<path d="M653.088 7.03555C653.294 7.28266 653.572 7.49853 653.906 7.66988C654.241 7.84124 654.623 7.96446 655.032 8.03197C655.695 8.07861 656.363 7.96157 656.911 7.70242C657.576 7.41666 658.212 7.10053 658.814 6.75624C659.145 6.586 659.462 6.42519 659.821 6.27345C660.18 6.12172 660.511 6.03554 660.856 5.91191C660.856 5.91191 661.09 5.73295 660.855 5.73445C660.185 5.80617 659.563 6.01563 659.074 6.33425C658.44 6.63719 657.861 6.98648 657.227 7.28008C656.687 7.58038 656.017 7.75216 655.32 7.76859C654.913 7.7191 654.526 7.61127 654.186 7.45233C653.846 7.29339 653.561 7.08701 653.35 6.84707C653.252 6.75429 652.936 6.9618 653.033 7.06392L653.088 7.03555Z" fill="black"/>
<path d="M687.094 3.57995C688.214 3.92393 689.251 4.45212 690.152 5.13711C690.975 5.78312 691.71 6.51344 692.341 7.31294C692.973 8.11913 693.3 9.19003 694.274 9.73127C694.609 9.94706 695.012 10.062 695.425 10.0594C695.838 10.0567 696.24 9.93667 696.572 9.71664C696.94 9.45294 697.265 9.14502 697.537 8.80174C697.882 8.43249 698.191 8.03869 698.464 7.62431C698.463 7.52578 698.401 7.50427 698.328 7.54854C697.643 7.99085 697.291 8.77046 696.692 9.28887C696.523 9.42816 696.325 9.53566 696.108 9.60493C695.891 9.67419 695.661 9.7038 695.432 9.69197C695.202 9.68014 694.978 9.62712 694.772 9.53608C694.566 9.44505 694.383 9.31788 694.233 9.16219C693.612 8.4154 693.041 7.63666 692.523 6.83003C691.893 6.11318 691.189 5.45053 690.421 4.85073C689.526 4.17011 688.498 3.64221 687.388 3.29342C687.228 3.29443 686.959 3.54797 687.131 3.61256L687.094 3.57995Z" fill="black"/>
<path d="M750.719 2.27768C753.955 2.84645 757.256 2.05471 760.513 2.01131C761.319 1.98749 762.126 2.03168 762.922 2.14331C763.58 2.2115 764.222 2.37582 764.822 2.62991C765.432 2.98173 765.916 3.48644 766.217 4.08311C767.062 5.50581 767.484 7.11256 768.192 8.60414C768.698 9.64365 769.53 10.9418 771 10.683C771.445 10.5945 771.868 10.4303 772.245 10.1991C772.914 9.77651 773.612 9.39348 774.334 9.05239C775.788 8.51308 777.356 8.27839 778.922 8.3658C779.059 8.36493 779.245 8.10306 779.058 8.10425C777.706 8.04392 776.353 8.19047 775.055 8.53776C774.495 8.73086 773.957 8.97345 773.45 9.26203C772.89 9.56028 772.368 9.94895 771.784 10.2134C771.504 10.3738 771.18 10.46 770.849 10.4621C770.519 10.4642 770.194 10.3822 769.912 10.2253C769.354 9.80728 768.922 9.2682 768.654 8.65786C767.921 7.17777 767.536 5.58213 766.766 4.13629C766.491 3.51678 766.06 2.96448 765.508 2.52354C765.128 2.29175 764.703 2.12542 764.257 2.0328C763.559 1.86005 762.843 1.75445 762.121 1.71772C758.376 1.50355 754.639 2.54741 750.955 2.07217C750.818 2.07305 750.582 2.36923 750.757 2.39078L750.719 2.27768Z" fill="black"/>
<path d="M830.34 1.69496C832.224 1.65945 834.104 1.86437 835.932 2.3044C836.819 2.53599 837.687 2.83314 838.527 3.1932C839.384 3.56119 840.207 3.9973 841.064 4.3087C842.644 5.0742 844.36 5.54327 846.122 5.69107C847.568 5.61746 848.977 5.22114 850.238 4.5332C851.009 4.17748 851.756 3.78796 852.574 3.46589C853.413 3.13019 854.287 2.88184 855.181 2.72502C855.181 2.72502 855.286 2.63382 855.181 2.63449C853.705 2.74129 852.273 3.1723 850.995 3.89465C849.68 4.63368 848.225 5.11228 846.717 5.30252C844.957 5.23496 843.234 4.79387 841.671 4.0106C840.023 3.2104 838.324 2.51065 836.586 1.91547C834.594 1.41183 832.537 1.18861 830.478 1.25273C830.326 1.2537 830.094 1.59468 830.316 1.59326L830.34 1.69496Z" fill="black"/>
<path d="M868.944 3.5354C870.267 3.39731 871.62 3.45626 872.898 3.70765C874.218 4.10927 875.007 4.98505 876.374 5.3636C876.818 5.48882 877.311 5.52376 877.789 5.46369C878.266 5.40362 878.704 5.25144 879.043 5.02769C879.126 4.97401 879.137 4.86004 878.971 4.90666C878.437 5.15086 877.784 5.26298 877.133 5.22209C876.564 5.12523 876.037 4.94976 875.587 4.70801C874.964 4.32632 874.303 3.9704 873.61 3.64237C872.289 3.10407 870.592 3.27433 869.109 3.32934C868.955 3.33032 868.754 3.5442 868.944 3.5354V3.5354Z" fill="black"/>
<path d="M932.569 0.933317C935.104 0.817391 937.643 1.0798 940.098 1.71162C941.317 2.13048 942.428 2.80658 943.353 3.69251C944.354 4.65565 945.411 5.56198 946.517 6.40712C947.645 7.22605 948.714 8.12138 949.716 9.0866C950.661 10.1076 951.548 11.178 952.375 12.2932C953.801 14.1985 955.632 15.7753 957.74 16.9139C958.449 17.3434 959.282 17.5304 960.11 17.4458C961.019 17.2305 961.061 16.276 960.914 15.5554C960.913 15.3693 960.5 15.6395 960.537 15.8139C960.574 15.9882 960.732 16.7087 960.45 16.9781C960.337 17.0537 960.209 17.1046 960.074 17.1276C959.94 17.1505 959.802 17.1449 959.67 17.1111C958.924 16.9931 958.208 16.737 957.559 16.3565C955.45 15.0829 953.631 13.3949 952.216 11.3981C951.425 10.3084 950.557 9.27562 949.617 8.30753C948.665 7.41753 947.63 6.63278 946.596 5.83639C945.562 5.04001 944.598 4.16171 943.622 3.26021C942.773 2.46115 941.772 1.83478 940.676 1.41701C938.174 0.467047 935.371 0.647816 932.744 0.594719C932.579 0.595773 932.344 0.946384 932.569 0.944952L932.569 0.933317Z" fill="black"/>
<path d="M696.556 7.64593C697.109 6.83235 697.766 6.09039 698.512 5.43788L699.621 4.46689C699.998 4.15143 700.347 3.80426 700.661 3.42941C700.784 3.26797 700.659 3.13489 700.467 3.2566C700.07 3.55366 699.714 3.90401 699.33 4.24115C698.947 4.57829 698.563 4.91543 698.194 5.26586C697.439 5.95468 696.782 6.73768 696.239 7.5944C696.225 7.60579 696.213 7.62014 696.205 7.6364C696.197 7.65267 696.193 7.67044 696.193 7.6884C696.193 7.70637 696.198 7.72409 696.206 7.74025C696.214 7.75642 696.226 7.77062 696.24 7.78182C696.323 7.78129 696.447 7.78051 696.487 7.64637L696.556 7.64593Z" fill="black"/>
<path d="M651.899 3.83024C652.305 4.02211 652.697 4.26349 653.07 4.55142C653.254 4.70238 653.422 4.88501 653.57 5.09471C653.646 5.20097 653.715 5.31518 653.777 5.43628C653.828 5.57825 653.908 5.69697 654.008 5.7777C654.038 5.78131 654.068 5.77026 654.092 5.74653C654.117 5.72279 654.134 5.68794 654.141 5.64827C654.139 5.48449 654.11 5.32326 654.058 5.17563C654.005 5.028 653.93 4.89747 653.836 4.79299C653.684 4.56992 653.507 4.37955 653.313 4.22842C652.915 3.93273 652.497 3.69475 652.063 3.51845C651.96 3.51911 651.773 3.76675 651.899 3.83024V3.83024Z" fill="black"/>
<path d="M623.472 3.00497C623.815 3.51186 624.183 3.97617 624.534 4.41231L625.033 5.14446L625.278 5.53884C625.36 5.67973 625.434 5.87723 625.548 5.94721C625.662 6.01719 625.758 5.76205 625.732 5.6208C625.691 5.43064 625.62 5.2644 625.527 5.14131C625.451 4.99459 625.369 4.85803 625.281 4.73279C625.118 4.47929 624.946 4.23999 624.766 4.00074C624.407 3.52223 624.039 3.07206 623.688 2.59351C623.59 2.45272 623.373 2.83591 623.471 2.99084L623.472 3.00497Z" fill="black"/>
<path d="M575.961 6.25109C576.824 5.88258 577.701 5.52794 578.617 5.20097L579.946 4.74572C580.4 4.61436 580.844 4.4482 581.275 4.24859C581.341 4.24817 581.512 3.95387 581.339 3.96894C580.884 4.0144 580.437 4.1253 580.01 4.29853L578.588 4.81022C577.698 5.15098 576.808 5.5057 575.932 5.88826C575.733 5.9733 575.642 6.37878 575.934 6.25126L575.961 6.25109Z" fill="black"/>
<path d="M553.237 6.37748C554.277 5.80982 555.317 5.21262 556.384 4.68908C556.924 4.41988 557.479 4.16536 558.033 3.94036C558.587 3.71537 559.142 3.57896 559.655 3.3247C559.736 3.32418 559.937 2.96855 559.734 2.96985C559.188 3.02118 558.653 3.16921 558.151 3.40809C557.584 3.63317 557.03 3.88769 556.489 4.15689C555.381 4.71022 554.315 5.32235 553.234 5.93457C553.018 6.05406 552.9 6.57157 553.237 6.37748V6.37748Z" fill="black"/>
<path d="M517.874 4.6341C519.151 4.52801 520.347 5.41103 521.103 6.12763C521.613 6.5772 522.066 7.06981 522.453 7.59749C522.611 7.81155 522.752 8.03376 522.876 8.26277C522.944 8.47335 523.05 8.67395 523.191 8.85749C523.288 8.94594 523.48 8.7844 523.501 8.70411C523.505 8.30695 523.36 7.91898 523.087 7.59346C522.816 7.17811 522.501 6.7837 522.145 6.4149C521.459 5.65021 520.566 5.03048 519.537 4.6057C519.054 4.41293 518.514 4.33617 517.98 4.38405C517.862 4.38481 517.692 4.65308 517.874 4.6341V4.6341Z" fill="black"/>
<path d="M853.164 2.22155C853.855 2.00307 854.574 1.82333 855.311 1.68428L856.357 1.49581C856.713 1.44931 857.057 1.37126 857.381 1.26386C857.459 1.26336 857.58 1.08805 857.38 1.07478C857.204 1.08262 857.031 1.10826 856.868 1.15077L856.311 1.25612C855.955 1.32384 855.61 1.38422 855.265 1.45914C854.53 1.6044 853.815 1.79146 853.129 2.01815C853.051 2.01865 852.94 2.1139 852.952 2.17927C852.964 2.24465 853.053 2.25135 853.131 2.22177L853.164 2.22155Z" fill="black"/>
<path d="M975.079 6.53876C971.218 6.53876 967.346 6.53874 963.498 6.26887C956 4.50073 954 8.50049 953.735 -1.79224C989.5 -1.79234 1408 2.00046 1428 2.0004C1428.5 4.8671 1429.59 35.3357 1429.7 38.2434C1429.99 41.7026 1429.71 45.1848 1428.89 48.5574C1428.11 51.4204 1424.72 57.5806 1420.82 55.668C1418.86 54.7059 1417.84 52.277 1417.13 50.3644C1416.17 47.6314 1415.41 44.8311 1414.87 41.9865C1414.43 39.5103 1413.77 37.0766 1412.91 34.7115C1410.79 29.4196 1408.22 24.5149 1403.71 20.9244C1400.44 18.8475 1397.17 16.7706 1394.03 14.4708C1391.38 12.3228 1388.85 10.0312 1386.45 7.60651C1383.43 4.83734 1378.73 4.27413 1374.81 4.08639C1370.89 3.89864 1366.73 4.36799 1362.7 4.6144C1354.81 5.09549 1346.9 3.73437 1339.03 4.6144C1330.6 5.60004 1323.04 11.1853 1316.54 16.2543C1313.96 18.2725 1311.57 20.6428 1308.86 22.485C1307.39 23.4744 1305.68 24.0427 1303.92 24.1277C1300.03 24.3506 1296.26 22.2972 1293.08 20.3142C1289.11 17.8267 1285.51 14.8111 1281.72 12.1006C1278.66 9.89461 1275.02 7.30144 1271.09 7.1841C1270.95 7.16009 1270.82 7.09932 1270.71 7.0081C1260.64 7.18411 1250.56 7.18411 1240.5 7.19585H1213.97C1212.74 7.29675 1211.5 7.22565 1210.29 6.98463C1210.24 6.96647 1210.19 6.93868 1210.14 6.9025C1209.12 7.47746 1207.58 7.34838 1206.46 7.62999C1205.18 7.96103 1203.98 8.54782 1202.94 9.35486C1201.32 10.747 1200.14 12.5705 1199.52 14.6116C1198.35 17.9909 1197.95 22.0626 1194.61 24.0925C1192.02 25.5592 1189.19 26.5414 1186.25 26.9907C1183.48 27.4718 1181.42 27.2606 1179.21 25.4419C1176.87 23.3293 1174.92 20.8187 1173.45 18.0261C1172.75 16.9246 1172.12 15.7846 1171.55 14.6116C1170.99 13.3091 1170.59 11.9363 1170.13 10.5869C1169.4 8.51003 1168.49 6.51528 1166.39 5.54138C1161.92 5.68218 1157.45 5.54138 1152.97 5.54138C1149.06 5.49444 1145.15 5.45924 1141.24 5.43578C1136.36 5.43578 1131.4 5.64698 1126.53 5.20109C1126.47 5.21611 1126.42 5.21611 1126.36 5.20109C1121.02 5.3419 1118.82 10.0706 1117.79 14.6703C1116.61 20.0443 1116.61 25.6296 1116.1 31.0975C1115.42 36.6614 1114.18 42.1421 1112.4 47.4544C1110.7 52.7815 1108.34 58.9887 1103.66 62.4267C1100.14 65.0316 1096.14 65.278 1093.1 61.887C1090.06 58.4959 1088.77 53.8024 1087.37 49.6369C1086.71 47.3409 1085.77 45.1314 1084.59 43.0542C1082.54 39.7688 1079.5 37.1874 1078.05 33.503C1076.61 29.8186 1077.17 26.0403 1077.23 22.2972C1077.36 20.6806 1077.13 19.0556 1076.55 17.5398C1075.98 16.0239 1075.07 14.6551 1073.9 13.5321C1070.23 10.0119 1064.9 8.54523 1060.45 6.35101C1055.91 6.74996 1051.27 6.55048 1046.7 6.56221H1032.06H1002.89L975.079 6.53876Z" fill="url(#paint2_radial_228_4052)"/>
<path d="M1428.28 3.50024C1429.83 7.14013 1429.01 25.1137 1429.75 29.0007C1430.47 32.9367 1429.78 37.269 1429.75 41.2707C1429.78 43.5771 1429.53 45.8787 1429 48.1233C1428.49 50.0936 1427.55 51.928 1426.25 53.4973C1424.96 55.1049 1422.9 56.8532 1420.75 55.6798C1418.6 54.5064 1417.71 52.1597 1416.97 50.0593C1416.09 47.4572 1415.39 44.7995 1414.86 42.1038C1414.61 40.9305 1414.37 39.7571 1414.11 38.5837C1413.95 37.7244 1413.71 36.8804 1413.4 36.0609C1411.63 31.5904 1409.78 26.9907 1406.36 23.4471C1405.51 22.5551 1404.6 21.7275 1403.63 20.9713C1403.37 20.7718 1403.41 20.3494 1403.77 20.5841C1407.81 23.2711 1410.38 27.5305 1412.32 31.872C1412.82 32.9632 1413.29 34.0779 1413.73 35.1926C1414.01 35.8048 1414.24 36.4315 1414.45 37.07C1414.71 37.9618 1414.91 38.877 1415.11 39.7923C1415.68 42.362 1416.21 44.9434 1416.95 47.4779C1417.31 48.7379 1417.74 49.9759 1418.24 51.1858C1418.47 51.7138 1418.72 52.2418 1419.01 52.7581L1419.12 52.9341C1419.12 53.028 1419.12 52.9341 1419.12 53.0045L1419.33 53.333C1419.47 53.5443 1419.62 53.7437 1419.78 53.9315C1419.81 53.9799 1419.85 54.0234 1419.89 54.0606C1419.96 54.1483 1420.04 54.2306 1420.13 54.307L1420.23 54.4008C1420.13 54.3187 1420.3 54.4712 1420.23 54.4008L1420.29 54.4595L1420.55 54.6355C1420.66 54.7059 1420.62 54.6355 1420.55 54.6355L1420.68 54.7059L1420.95 54.835C1420.83 54.835 1421.03 54.835 1420.95 54.835H1421.07H1421.21H1421.39C1421.59 54.8585 1421.78 54.8585 1421.97 54.835H1422.12L1422.44 54.7411C1422.87 54.563 1423.27 54.313 1423.61 54.0019C1424.86 52.9453 1425.88 51.6583 1426.64 50.2119C1427.57 48.2725 1428.13 46.1745 1428.28 44.0282C1428.47 41.78 1428.49 39.5207 1428.34 37.2695C1428.25 35.3804 1429.26 33.7494 1429 31.872C1428.49 28.1904 1429.74 22.0053 1428.5 18.5007C1428.5 12 1427.5 6 1428.28 3.50024Z" fill="black"/>
<path d="M1403.69 20.9127C1398.99 17.9676 1394.23 15.0458 1390.17 11.3497C1388.4 9.73044 1386.93 7.6653 1384.83 6.43325C1382.37 5.12872 1379.65 4.37601 1376.86 4.22731C1371.1 3.71102 1365.34 4.63798 1359.59 4.76705C1353.84 4.89613 1348.22 4.14516 1342.52 4.37984C1339.65 4.43591 1336.81 4.88601 1334.07 5.71749C1331.22 6.75058 1328.49 8.09231 1325.94 9.71871C1320.64 13.019 1315.61 16.7429 1310.91 20.8541C1309.57 22.1506 1307.97 23.1501 1306.21 23.7875C1304.69 24.2207 1303.08 24.297 1301.52 24.0105C1298 23.4355 1294.75 21.5112 1291.83 19.5516C1288.46 17.2987 1285.32 14.7408 1282.03 12.3705C1279.31 10.3993 1276.38 8.33413 1273.07 7.4893C1272.41 7.31856 1271.74 7.22405 1271.07 7.20768C1270.57 7.20768 1269.9 6.09298 1270.53 6.09298C1273.78 6.09298 1276.74 7.75918 1279.4 9.47231C1282.77 11.6313 1285.89 14.1658 1289.12 16.5126C1294.26 20.2791 1301.86 25.7471 1308.16 21.2647C1309.24 20.5021 1310.23 19.5868 1311.25 18.742C1312.42 17.7329 1313.7 16.7355 1314.96 15.7499C1317.42 13.8255 1319.94 11.9716 1322.57 10.2702C1325.11 8.60872 1327.76 7.13419 1330.51 5.85831C1333.07 4.68105 1335.8 3.92804 1338.6 3.62888C1344.47 2.97179 1350.33 3.62889 1356.2 3.76969C1362.07 3.9105 1367.56 3.07738 1373.26 3.14779C1376.04 3.11862 1378.8 3.4901 1381.47 4.25077C1383.85 4.93183 1386.01 6.23159 1387.72 8.01732C1388.59 8.92082 1389.39 9.87126 1390.29 10.7513C1391.28 11.6884 1392.31 12.5735 1393.4 13.4031C1395.74 15.1867 1398.09 16.8059 1400.55 18.3782L1403.89 20.5138C1404.16 20.6898 1404.1 21.0887 1403.76 20.8775L1403.69 20.9127Z" fill="black"/>
<path d="M1270.96 7.04334C1268.99 7.04334 1267.01 7.14894 1265.03 7.18414C1263.05 7.21934 1261.06 7.18414 1259.07 7.18414H1247.34H1223.7H1211.17C1210.86 7.15494 1210.55 7.08391 1210.26 6.97294C1210.05 6.91427 1209.46 6.35105 1209.88 6.18678C1210.07 6.10289 1210.26 6.03612 1210.46 5.9873C1210.69 5.9873 1210.95 5.9873 1211.18 5.9873H1233.48H1257.13H1263.83C1266.1 5.9873 1268.36 6.10463 1270.63 6.13983C1270.96 6.13983 1271.47 6.8908 1270.99 6.90254L1270.96 7.04334Z" fill="black"/>
<path d="M1210.33 6.83197L1210.01 7.0549C1209.88 7.15385 1209.72 7.20368 1209.56 7.19572L1208.48 7.28959C1207.86 7.36678 1207.26 7.4804 1206.66 7.62986C1205.64 7.87194 1204.68 8.26765 1203.78 8.80324C1202.31 9.71773 1201.13 11.0269 1200.37 12.5815C1199.64 14.1139 1199.06 15.7131 1198.63 17.3572C1198.26 18.8533 1197.72 20.3022 1197.02 21.6752C1196.69 22.2844 1196.27 22.8354 1195.76 23.3062C1195.02 23.9385 1194.18 24.4459 1193.28 24.8081C1190.93 25.858 1188.45 26.5919 1185.9 26.9906C1184.88 27.1893 1183.85 27.2485 1182.81 27.1666C1181.55 26.9509 1180.37 26.386 1179.41 25.5356C1177.2 23.6148 1175.34 21.319 1173.92 18.7535C1173.58 18.1785 1173.24 17.5801 1172.91 17.0169C1172.58 16.4537 1172.32 16.0899 1172.05 15.5971C1171.51 14.5527 1171.07 13.4608 1170.73 12.3351C1170.34 11.1617 1169.99 9.98835 1169.5 8.93231C1169.1 7.92818 1168.49 7.02282 1167.71 6.28048C1167.31 5.9467 1166.86 5.67392 1166.37 5.47085C1166.26 5.42131 1166.15 5.34263 1166.07 5.24212C1165.99 5.14161 1165.94 5.02251 1165.92 4.89589C1165.91 4.84972 1165.91 4.801 1165.92 4.75564C1165.94 4.71029 1165.96 4.67025 1166 4.64041C1166.04 4.61058 1166.08 4.59223 1166.13 4.58759C1166.18 4.58295 1166.23 4.59221 1166.27 4.61427C1168.62 5.36523 1169.95 7.70025 1170.8 9.89447C1171.43 12.1061 1172.31 14.2424 1173.4 16.2659C1173.76 16.7939 1174.04 17.4393 1174.35 17.9321C1174.67 18.4249 1175.05 19.1055 1175.41 19.6453C1176.18 20.8894 1177.05 22.0669 1178.01 23.1654C1178.84 24.156 1179.85 24.9836 1180.98 25.606C1181.42 25.8402 1181.9 25.9914 1182.39 26.0519C1182.86 26.0929 1183.33 26.0929 1183.8 26.0519C1186.31 25.7776 1188.77 25.1536 1191.11 24.198C1192.85 23.6963 1194.4 22.6871 1195.56 21.2997C1196.31 20.053 1196.87 18.7003 1197.22 17.2868C1197.65 15.6693 1198.19 14.0819 1198.83 12.5346C1199.51 10.9148 1200.57 9.48496 1201.93 8.36909C1203.73 7.0733 1205.86 6.33102 1208.08 6.23354H1209.03C1209.44 6.25795 1209.84 6.36998 1210.2 6.56208C1210.28 6.56208 1210.51 6.83196 1210.38 6.92583L1210.33 6.83197Z" fill="black"/>
<path d="M1166.53 5.45921C1165.96 5.45921 1165.35 5.45921 1164.84 5.54135C1164.32 5.62349 1163.38 5.54135 1162.66 5.54135L1156.8 5.47095C1151 5.40055 1145.22 5.33013 1139.42 5.29493H1133.24H1129.94C1128.7 5.29493 1127.49 5.2128 1126.25 5.09546C1126.14 5.08159 1126.03 5.03871 1125.94 4.9709C1125.85 4.90309 1125.77 4.81264 1125.73 4.70824C1125.64 4.54397 1125.66 4.3445 1125.88 4.32103C1126.9 4.20588 1127.93 4.14323 1128.95 4.1333H1131.92H1137.54L1147.47 4.2389C1152.16 4.3093 1156.86 4.36797 1161.55 4.49705C1162.4 4.49705 1163.26 4.49705 1164.11 4.55572C1164.73 4.55572 1165.47 4.67306 1166.15 4.68479C1166.47 4.68479 1166.98 5.42402 1166.51 5.43575L1166.53 5.45921Z" fill="black"/>
<path d="M1126.28 5.15403C1124.41 5.13258 1122.61 5.83007 1121.25 7.10184C1119.93 8.46264 1118.97 10.1212 1118.43 11.9361C1117.75 14.0633 1117.29 16.2527 1117.05 18.4719C1116.74 20.8186 1116.58 23.2945 1116.41 25.7116C1116.27 27.9176 1116.14 30.1235 1115.86 32.3177C1115.58 34.5119 1115.09 36.6592 1114.61 38.8065C1113.52 44.2045 1111.82 49.4604 1109.54 54.4711C1108.5 56.7365 1107.13 58.8329 1105.46 60.69C1103.99 62.3284 1102.1 63.5435 1100 64.2101C1099.16 64.4527 1098.27 64.5164 1097.41 64.3972C1096.54 64.2779 1095.71 63.9784 1094.96 63.5179C1093.44 62.4761 1092.18 61.084 1091.3 59.458C1089.21 55.9378 1088.09 51.9366 1086.76 48.0879C1086.16 46.1877 1085.33 44.3704 1084.27 42.6786C1082.4 39.8625 1079.83 37.5158 1078.41 34.465C1076.99 31.4142 1076.99 27.7767 1077.12 24.327C1077.25 22.7653 1077.25 21.1952 1077.12 19.6335C1076.95 18.4158 1076.55 17.2411 1075.94 16.172C1074.71 14.202 1073 12.5847 1070.96 11.4785C1068.68 10.1817 1066.33 9.02949 1063.92 8.0288C1062.74 7.50078 1061.57 6.97276 1060.4 6.3978C1060.26 6.34157 1060.15 6.25088 1060.06 6.13525C1059.98 6.01963 1059.93 5.88335 1059.91 5.74071C1059.91 5.48257 1060.21 5.4591 1060.4 5.55297C1062.8 6.72635 1065.28 7.78239 1067.69 8.94403C1070.03 9.98511 1072.2 11.352 1074.15 13.0039C1075.97 14.5926 1077.24 16.7156 1077.78 19.0703C1078.03 20.5032 1078.11 21.9604 1078.02 23.4118C1078.02 25.1484 1077.84 26.9319 1077.88 28.6216C1077.9 30.293 1078.19 31.95 1078.75 33.5263C1079.41 35.1775 1080.33 36.7139 1081.47 38.079C1083.47 40.318 1085.18 42.7973 1086.56 45.4596C1088.12 48.9797 1089.08 52.7932 1090.64 56.3368C1091.36 58.1056 1092.33 59.7615 1093.52 61.2532L1093.67 61.4292L1093.9 61.6639L1094.36 62.1215L1094.45 62.1919C1094.59 62.321 1094.34 62.1098 1094.45 62.1919L1094.67 62.3679C1094.83 62.497 1095.01 62.6026 1095.19 62.7199C1095.36 62.8373 1095.1 62.7199 1095.19 62.7199L1095.3 62.7903L1095.54 62.9194L1095.78 63.025C1095.78 63.025 1096.09 63.1424 1096 63.1189C1096.34 63.239 1096.7 63.3216 1097.06 63.3653C1099.02 63.4067 1100.92 62.7493 1102.44 61.5114C1104.29 60.1377 1105.83 58.3907 1106.95 56.3837C1109.62 51.6092 1111.57 46.4699 1112.74 41.1298C1113.34 38.783 1113.85 36.4363 1114.32 33.9957C1114.69 31.9665 1114.93 29.9172 1115.05 27.8589C1115.2 23.1324 1115.72 18.4247 1116.6 13.7784C1117.44 10.1292 1119.1 6.01059 1122.98 4.73161C1123.9 4.44295 1124.86 4.30427 1125.82 4.32092C1125.96 4.33496 1126.09 4.38478 1126.2 4.46523C1126.31 4.54567 1126.39 4.65384 1126.44 4.77855C1126.53 4.95456 1126.53 5.23617 1126.27 5.23617L1126.28 5.15403Z" fill="black"/>
<path d="M1060.53 6.25716C1058.69 6.42143 1056.84 6.42144 1055 6.4449C1053.15 6.46837 1051.25 6.4449 1049.37 6.4449H1038.13H993.276C986.106 6.4449 978.925 6.4449 971.756 6.4449C968.951 6.4449 966.135 6.37449 963.331 6.17501H963.038C962.928 6.16292 959.589 6.12177 959.5 6.05577C959.411 5.98977 959.342 5.90132 959.299 5.79954C959.244 5.68019 959.381 5.38239 959.451 5.37712C962.033 5.17765 967.848 5.11898 970.442 5.08378C976.919 5.01338 983.349 5.08378 989.873 5.08378H1012.28H1034.73C1042.24 5.08378 1049.76 5.08377 1057.27 5.16591C1058.23 5.16591 1059.2 5.23632 1060.16 5.31845C1060.46 5.31845 1061.05 6.04595 1060.53 6.09289V6.25716Z" fill="black"/>
<path d="M1428.51 49.8481C1428.32 50.3092 1428.04 50.7263 1427.69 51.0721C1427.33 51.4179 1426.91 51.6846 1426.44 51.8546C1426.02 51.9678 1425.57 51.9918 1425.14 51.9252C1424.7 51.8585 1424.29 51.7026 1423.92 51.4673C1423.01 50.8572 1422.31 49.9855 1421.91 48.968C1421.4 47.7664 1421.05 46.4985 1420.89 45.2015C1420.72 43.9324 1420.62 42.6557 1420.59 41.3763C1420.52 39.9917 1420.43 38.6071 1420.36 37.2225C1420.21 34.207 1420.07 31.1914 1419.75 28.1875C1419.58 26.5096 1419.34 24.8317 1419.01 23.1772C1418.68 21.5227 1418.19 19.9269 1417.77 18.2959C1417.71 18.0613 1418.05 18.2138 1418.1 18.2959C1418.61 19.5844 1419 20.9156 1419.27 22.2737C1419.58 23.6583 1419.81 25.0546 1419.99 26.4509C1420.36 29.2436 1420.55 32.0597 1420.69 34.8758C1420.83 37.5159 1420.94 40.156 1421.1 42.7961C1421.24 45.2367 1421.51 48.0059 1422.96 50.071C1423.25 50.5286 1423.65 50.9018 1424.13 51.1531C1424.61 51.4044 1425.15 51.5249 1425.69 51.5025C1426.24 51.4235 1426.77 51.2041 1427.21 50.8653C1427.66 50.5265 1428.01 50.0794 1428.24 49.5665C1428.32 49.4022 1428.62 49.6603 1428.55 49.8129L1428.51 49.8481Z" fill="black"/>
<path d="M1417.62 23.7171C1417.34 22.1269 1416.95 20.5585 1416.45 19.0236C1416.19 18.2522 1415.87 17.5027 1415.5 16.7824C1415.07 16.0702 1414.61 15.3844 1414.1 14.729C1413.97 14.5413 1414.17 14.4708 1414.31 14.5999C1414.88 15.1801 1415.35 15.8451 1415.72 16.5712C1416.11 17.2954 1416.44 18.0532 1416.7 18.8358C1417.23 20.4631 1417.62 22.131 1417.88 23.8227C1417.88 24.0691 1417.57 23.8931 1417.54 23.7288L1417.62 23.7171Z" fill="black"/>
<path d="M1390.78 6.45655C1390.32 5.56349 1389.62 4.81591 1388.76 4.29754C1388.32 4.00798 1387.87 3.74921 1387.39 3.5231L1386.73 3.21803C1386.5 3.13727 1386.27 3.02688 1386.07 2.88949C1386.07 2.88949 1385.89 2.67826 1386.07 2.6548C1386.3 2.65397 1386.52 2.70197 1386.73 2.79561C1386.99 2.88948 1387.24 3.00681 1387.48 3.11241C1388.01 3.36176 1388.52 3.6562 1389 3.99245C1389.94 4.58739 1390.7 5.4431 1391.17 6.45655C1391.29 6.73816 1390.92 6.64429 1390.84 6.45655H1390.78Z" fill="black"/>
<path d="M1332.4 1.77475C1329.6 2.23252 1326.85 2.9434 1324.18 3.89858C1321.5 4.85347 1319.03 6.33778 1316.93 8.26353C1315.93 9.2257 1315.04 10.2817 1314.1 11.2908C1313.31 12.1396 1312.46 12.9244 1311.55 13.6376C1309.66 15.1035 1307.56 16.2601 1305.32 17.0639C1302.97 17.85 1300.19 18.1668 1298.05 16.7001C1297.93 16.618 1297.89 16.3364 1298.05 16.4537C1302.37 18.7066 1307.44 16.0078 1310.96 13.4264C1311.87 12.7763 1312.72 12.0459 1313.51 11.2439C1314.44 10.2817 1315.3 9.24918 1316.24 8.29874C1318.21 6.37573 1320.55 4.86756 1323.12 3.86336C1326.02 2.76452 1329.04 1.97785 1332.12 1.5166C1332.27 1.5166 1332.5 1.79822 1332.35 1.83342L1332.4 1.77475Z" fill="black"/>
<path d="M1299.27 14.8345C1298.67 14.5164 1298.09 14.1638 1297.52 13.7785L1296.64 13.2388L1296.15 12.9689C1295.98 12.9006 1295.83 12.8054 1295.69 12.6873C1295.69 12.6286 1295.59 12.5113 1295.69 12.4878C1295.85 12.4878 1296 12.537 1296.13 12.6286L1296.62 12.8867L1297.52 13.4382C1298.09 13.83 1298.68 14.1866 1299.28 14.506C1299.37 14.506 1299.47 14.6585 1299.46 14.7641C1299.45 14.8698 1299.35 14.8698 1299.27 14.8345V14.8345Z" fill="black"/>
<path d="M1209 1.63405C1207.05 1.65708 1205.11 2.01015 1203.28 2.67836C1202.38 3.00275 1201.51 3.39501 1200.67 3.85174C1200.25 4.08641 1199.83 4.34456 1199.42 4.62617C1199.01 4.90778 1198.68 5.28326 1198.24 5.34193C1198.17 5.34193 1198.07 5.23632 1198.09 5.16591C1198.12 5.09551 1198.4 4.81391 1198.58 4.66137L1199.16 4.22723C1199.56 3.94562 1199.96 3.68747 1200.33 3.45279C1201.18 2.95819 1202.06 2.54186 1202.98 2.20901C1204.85 1.55391 1206.82 1.23219 1208.79 1.25858C1208.93 1.25858 1209.16 1.58713 1208.95 1.58713L1209 1.63405Z" fill="black"/>
<path d="M1192.64 14.5177C1191.28 16.5645 1189.3 18.1105 1186.98 18.9179C1184.55 19.7862 1182.11 18.9179 1179.94 17.7445C1179.33 17.3925 1178.77 17.0053 1178.16 16.5711C1177.54 16.1944 1176.94 15.779 1176.37 15.3274C1176.22 15.1983 1176.24 14.9401 1176.48 15.034C1177 15.294 1177.49 15.6003 1177.96 15.9492L1179.47 16.9349C1180.48 17.6075 1181.58 18.1293 1182.75 18.4837C1183.9 18.8093 1185.11 18.8093 1186.27 18.4837C1187.43 18.1358 1188.53 17.6178 1189.54 16.9466C1190.63 16.2213 1191.56 15.2835 1192.28 14.1892C1192.37 14.0718 1192.65 14.33 1192.55 14.4708L1192.64 14.5177Z" fill="black"/>
<path d="M1178.86 14.0836C1177.97 13.8387 1177.16 13.3654 1176.51 12.7108C1176.17 12.3896 1175.87 12.0359 1175.6 11.6547C1175.3 11.3046 1175.06 10.9082 1174.89 10.4813C1174.89 10.3171 1175.06 10.364 1175.13 10.4813C1175.39 10.809 1175.64 11.1497 1175.87 11.5022C1176.11 11.8414 1176.38 12.1629 1176.68 12.4643C1177.26 13.0794 1178 13.5254 1178.81 13.7551C1178.86 13.7723 1178.91 13.8015 1178.95 13.8402C1178.99 13.8789 1179.02 13.9261 1179.03 13.978C1179.03 14.0719 1179.03 14.1423 1178.91 14.1188L1178.86 14.0836Z" fill="black"/>
<path d="M1118.42 2.6782C1117.11 3.19962 1115.93 4.00591 1114.96 5.0388C1114 6.07169 1113.28 7.30538 1112.86 8.65069C1112.37 9.98109 1112.06 11.3699 1111.94 12.781C1111.76 14.7053 1111.42 16.6179 1111.1 18.5188C1110.45 22.4496 1109.85 26.3687 1109.57 30.3347C1109.43 32.3177 1109.32 34.3125 1109.1 36.2955C1108.94 37.7505 1108.73 39.2172 1108.49 40.6722C1108.27 42.2032 1107.91 43.7112 1107.42 45.178C1107.03 46.5705 1106.21 47.8033 1105.08 48.6981C1104.91 48.8037 1104.58 48.4986 1104.72 48.3578C1106.72 46.4217 1107.41 43.6643 1107.87 41.0477C1108.44 37.6752 1108.83 34.2757 1109.04 30.8627C1109.31 26.8733 1109.86 22.9307 1110.52 18.9764C1110.86 16.9934 1111.22 14.9987 1111.45 12.9922C1111.56 11.6123 1111.82 10.2479 1112.21 8.92058C1112.61 7.4249 1113.35 6.04422 1114.38 4.89181C1115.41 3.73939 1116.7 2.84808 1118.15 2.29099C1118.32 2.23232 1118.61 2.58433 1118.42 2.65473V2.6782Z" fill="black"/>
<path d="M1083.64 13.6495C1082.32 10.9038 1080.65 8.12292 1077.57 7.13728C1075.77 6.56233 1073.86 6.64447 1072.02 6.15165C1070.32 5.50935 1068.71 4.64537 1067.23 3.58195C1065.44 2.57284 1063.39 2.51418 1061.43 2.11523C1061.24 2.11523 1061.03 1.64587 1061.32 1.70454C1063.16 1.86404 1064.96 2.25839 1066.7 2.87792C1068.42 3.71101 1069.84 5.08387 1071.72 5.63536C1073.6 6.18685 1075.63 6.05778 1077.52 6.67967C1078.97 7.16036 1080.27 8.0284 1081.27 9.19069C1082.38 10.5238 1083.3 12.0095 1083.99 13.6026C1084.13 13.9077 1083.72 13.8021 1083.64 13.6026V13.6495Z" fill="black"/>
<path d="M960.213 3.80456C959.541 7.04961 959.23 10.3591 959.286 13.6727C959.455 15.3131 959.423 16.968 959.193 18.6009C959.017 19.3166 958.512 20.0676 957.679 19.7742C957.573 19.7742 957.256 19.3401 957.503 19.2931C957.772 19.2817 958.029 19.1781 958.23 18.9998C958.429 18.7556 958.562 18.4649 958.618 18.155C958.784 17.3409 958.839 16.508 958.782 15.6791C958.674 13.3629 958.725 11.042 958.934 8.73275C959.113 6.99253 959.415 5.2672 959.838 3.56987C959.897 3.38213 960.249 3.66376 960.213 3.83976V3.80456Z" fill="black"/>
</g>
<defs>
<radialGradient id="paint0_radial_228_4052" cx="0" cy="0" r="1" gradientUnits="userSpaceOnUse" gradientTransform="translate(242.008 -2.1556) rotate(89.6352) scale(31.2445 242.003)">
<stop stop-color="#D4FAFF"/>
<stop offset="1" stop-color="#DEFBFF"/>
</radialGradient>
<radialGradient id="paint1_radial_228_4052" cx="0" cy="0" r="1" gradientUnits="userSpaceOnUse" gradientTransform="translate(719.997 -3.15511) rotate(89.6352) scale(31.2445 242.003)">
<stop stop-color="#D4FAFF"/>
<stop offset="1" stop-color="#DEFBFF"/>
</radialGradient>
<radialGradient id="paint2_radial_228_4052" cx="0" cy="0" r="1" gradientUnits="userSpaceOnUse" gradientTransform="translate(1191.4 26.7082) rotate(90) scale(37.6984 238.405)">
<stop stop-color="#D9FAFF"/>
<stop offset="1" stop-color="#DEFBFF"/>
</radialGradient>
<clipPath id="clip0_228_4052">
<rect width="1430" height="64" fill="white"/>
</clipPath>
</defs>
</svg>
