<svg width="68" height="23" viewBox="0 0 68 23" fill="none" xmlns="http://www.w3.org/2000/svg">
<path d="M8.10938 10.7695L4.64258 22H0.960938L6.18555 7.78125H8.51953L8.10938 10.7695ZM10.9805 22L7.50391 10.7695L7.05469 7.78125H9.41797L14.6719 22H10.9805ZM10.8438 16.6973V19.3438H3.54883V16.6973H10.8438ZM21.5176 15.9551H17.8555L17.8359 13.709H20.8047C21.3385 13.709 21.765 13.6504 22.084 13.5332C22.403 13.4095 22.6341 13.2305 22.7773 12.9961C22.9271 12.7617 23.002 12.4688 23.002 12.1172C23.002 11.7135 22.9271 11.388 22.7773 11.1406C22.6276 10.8932 22.39 10.7142 22.0645 10.6035C21.7454 10.4863 21.332 10.4277 20.8242 10.4277H19.1445V22H15.7168V7.78125H20.8242C21.7031 7.78125 22.4876 7.86263 23.1777 8.02539C23.8678 8.18164 24.4538 8.42253 24.9355 8.74805C25.4238 9.07357 25.7949 9.48372 26.0488 9.97852C26.3027 10.4668 26.4297 11.043 26.4297 11.707C26.4297 12.2865 26.306 12.8301 26.0586 13.3379C25.8112 13.8457 25.3978 14.2591 24.8184 14.5781C24.2454 14.8906 23.4609 15.0534 22.4648 15.0664L21.5176 15.9551ZM21.3809 22H17.0254L18.1973 19.3633H21.3809C21.8496 19.3633 22.224 19.2917 22.5039 19.1484C22.7904 18.9987 22.9954 18.8034 23.1191 18.5625C23.2493 18.3151 23.3145 18.0417 23.3145 17.7422C23.3145 17.3776 23.2526 17.0618 23.1289 16.7949C23.0117 16.528 22.8229 16.3229 22.5625 16.1797C22.3021 16.0299 21.9538 15.9551 21.5176 15.9551H18.6367L18.6562 13.709H22.1035L22.9043 14.6074C23.8548 14.5684 24.6068 14.7018 25.1602 15.0078C25.7201 15.3138 26.1204 15.7174 26.3613 16.2188C26.6022 16.7201 26.7227 17.2441 26.7227 17.791C26.7227 18.722 26.5208 19.5 26.1172 20.125C25.7201 20.75 25.1243 21.2188 24.3301 21.5312C23.5358 21.8438 22.5527 22 21.3809 22ZM40.6582 14.6074V15.1836C40.6582 16.2708 40.5052 17.2474 40.1992 18.1133C39.8997 18.9727 39.4733 19.7083 38.9199 20.3203C38.3665 20.9258 37.7122 21.3913 36.957 21.7168C36.2018 22.0358 35.3685 22.1953 34.457 22.1953C33.5391 22.1953 32.6992 22.0358 31.9375 21.7168C31.1823 21.3913 30.5247 20.9258 29.9648 20.3203C29.4115 19.7083 28.9818 18.9727 28.6758 18.1133C28.3763 17.2474 28.2266 16.2708 28.2266 15.1836V14.6074C28.2266 13.5202 28.3763 12.5436 28.6758 11.6777C28.9818 10.8118 29.4082 10.0762 29.9551 9.4707C30.5085 8.85872 31.1628 8.39323 31.918 8.07422C32.6797 7.7487 33.5195 7.58594 34.4375 7.58594C35.349 7.58594 36.1823 7.7487 36.9375 8.07422C37.6992 8.39323 38.3568 8.85872 38.9102 9.4707C39.4635 10.0762 39.8932 10.8118 40.1992 11.6777C40.5052 12.5436 40.6582 13.5202 40.6582 14.6074ZM37.1816 15.1836V14.5879C37.1816 13.8848 37.1198 13.2663 36.9961 12.7324C36.8789 12.1921 36.7031 11.7396 36.4688 11.375C36.2344 11.0104 35.9447 10.737 35.5996 10.5547C35.2611 10.3659 34.8737 10.2715 34.4375 10.2715C33.9818 10.2715 33.5846 10.3659 33.2461 10.5547C32.9076 10.737 32.6243 11.0104 32.3965 11.375C32.1686 11.7396 31.9961 12.1921 31.8789 12.7324C31.7682 13.2663 31.7129 13.8848 31.7129 14.5879V15.1836C31.7129 15.8802 31.7682 16.4987 31.8789 17.0391C31.9961 17.5729 32.1686 18.0254 32.3965 18.3965C32.6309 18.7676 32.9173 19.0475 33.2559 19.2363C33.6009 19.4251 34.0013 19.5195 34.457 19.5195C34.8932 19.5195 35.2806 19.4251 35.6191 19.2363C35.9577 19.0475 36.2409 18.7676 36.4688 18.3965C36.7031 18.0254 36.8789 17.5729 36.9961 17.0391C37.1198 16.4987 37.1816 15.8802 37.1816 15.1836ZM50.1504 7.78125H53.5781V17.0684C53.5781 18.1751 53.347 19.1126 52.8848 19.8809C52.4225 20.6426 51.7747 21.2188 50.9414 21.6094C50.1081 22 49.1283 22.1953 48.002 22.1953C46.8887 22.1953 45.9089 22 45.0625 21.6094C44.2227 21.2188 43.5651 20.6426 43.0898 19.8809C42.6211 19.1126 42.3867 18.1751 42.3867 17.0684V7.78125H45.8242V17.0684C45.8242 17.6543 45.9089 18.1328 46.0781 18.5039C46.2474 18.8685 46.4948 19.1354 46.8203 19.3047C47.1458 19.474 47.5397 19.5586 48.002 19.5586C48.4707 19.5586 48.8646 19.474 49.1836 19.3047C49.5026 19.1354 49.7435 18.8685 49.9062 18.5039C50.069 18.1328 50.1504 17.6543 50.1504 17.0684V7.78125ZM62.6211 7.78125V22H59.1934V7.78125H62.6211ZM66.8984 7.78125V10.4277H55.0137V7.78125H66.8984Z" fill="#D232EA"/>
<path d="M64.8514 8.50109C65.402 8.50109 65.9542 8.50109 66.5031 8.4626C66.4999 8.4682 66.4982 8.47455 66.4982 8.48101C66.4982 8.48747 66.4999 8.49382 66.5031 8.49942C66.7173 8.8341 66.5449 9.35954 66.5031 9.72602C66.4546 10.1243 66.4663 10.5209 66.7675 10.8271C67.2427 11.3141 67.6561 9.89838 67.728 9.65574C67.9422 8.93785 68.1213 8.04592 67.8954 7.31297C67.6142 6.41101 66.4044 6.70218 65.7082 6.67206C65.4237 6.66035 65.1409 6.61349 64.8565 6.60345C64.5065 6.59339 64.1563 6.60177 63.8072 6.62855C63.1379 6.67373 62.4685 6.76744 61.7891 6.83605C60.4303 6.97327 59.0498 6.84944 57.6859 6.88626C57.3596 6.8963 57.035 6.92307 56.7103 6.93646C56.3725 6.93825 56.0356 6.9012 55.7063 6.82601C55.4285 6.77079 55.1541 6.70887 54.8696 6.65867C54.5367 6.61559 54.2006 6.60383 53.8656 6.62353C53.2497 6.62353 52.6406 6.68879 52.0332 6.55325C51.5128 6.43778 51.0107 6.25371 50.487 6.1533C50.1069 6.06938 49.7135 6.06654 49.3323 6.14497C48.9511 6.2234 48.5907 6.38134 48.2747 6.60847C48.2677 6.61114 48.261 6.6145 48.2546 6.61851C47.843 6.92307 47.3058 6.95319 46.8122 6.95319C46.3479 6.94887 45.8843 6.98583 45.4266 7.06364C45.2354 7.12159 45.0346 7.14093 44.8359 7.12053C44.5943 7.05039 44.3675 6.937 44.1665 6.78585C43.78 6.54656 43.3733 6.51476 42.9265 6.5315C42.3442 6.55325 41.7869 6.75406 41.2364 6.92474C40.6632 7.1036 40.0714 7.2159 39.4726 7.25942C38.889 7.29457 38.3037 7.29121 37.7206 7.24938C37.4093 7.2293 37.0947 7.19416 36.7835 7.16571C36.6121 7.14658 36.4436 7.10726 36.2814 7.04858C36.1597 6.99534 36.0276 6.97018 35.8949 6.97495C35.8138 6.99183 35.737 7.02483 35.669 7.072C35.5598 7.13018 35.4347 7.15132 35.3125 7.13225C35.2116 7.11966 35.1145 7.08551 35.0278 7.03209C34.9412 6.97868 34.8671 6.90725 34.8105 6.82267C34.5244 6.48799 34.1997 6.2102 33.7462 6.1533C32.697 6.01776 31.6227 6.32065 30.6605 6.7072C30.3586 6.8396 30.0399 6.9297 29.7133 6.97495C29.4116 7.00172 29.1081 7.00172 28.8064 6.97495C28.2039 6.92977 27.5996 6.91637 26.9957 6.93479C26.7096 6.94483 26.4251 6.95152 26.139 6.93479C25.8382 6.91076 25.5432 6.83843 25.2654 6.72059C24.9115 6.55955 24.5263 6.47897 24.1376 6.48464C23.6355 6.51643 23.1335 6.56496 22.6198 6.61015C22.2048 6.64696 21.7831 6.71222 21.3681 6.72896C21.3681 6.71389 21.353 6.70385 21.3279 6.70553C20.7958 6.70553 20.2436 6.82936 19.7951 6.46791C19.6367 6.32675 19.4646 6.20175 19.2813 6.09474C19.0679 6.01456 18.8387 5.98534 18.612 6.00939C18.4048 6.0062 18.1993 6.0455 18.0079 6.12486C17.8533 6.21537 17.7243 6.34381 17.633 6.49803C17.2984 6.95821 16.6491 6.55994 16.2742 6.36918C16.0671 6.25669 15.846 6.17228 15.6166 6.11816C15.3559 6.07684 15.0898 6.08422 14.8318 6.13992C14.2411 6.23363 13.6939 6.4997 13.1065 6.6068C12.8086 6.66035 12.5191 6.77414 12.2112 6.72226C11.9468 6.67373 11.7527 6.47627 11.5419 6.31395C11.3923 6.1909 11.2124 6.11042 11.021 6.08097C10.8296 6.05152 10.6338 6.0742 10.4541 6.14661C10.245 6.23028 10.0525 6.35244 9.85005 6.45285C9.58716 6.58204 9.2864 6.61176 9.00331 6.53652C8.68202 6.47795 8.3624 6.41268 8.03943 6.36918C7.66198 6.322 7.2819 6.29908 6.90152 6.30056C5.61009 6.2494 4.32553 6.5124 3.15812 7.06698C3.14879 7.07096 3.14027 7.07664 3.13301 7.08372C1.55741 8.19705 0.48416 9.88659 0.145991 11.786C0.0748746 12.1948 0.0312684 12.608 0.0154662 13.0226C-0.0249712 13.5159 0.0140124 14.0126 0.130931 14.4935C0.243049 14.9019 0.726662 15.7804 1.28223 15.5076C1.56169 15.3704 1.70728 15.024 1.80935 14.7512C1.94592 14.3615 2.05331 13.9621 2.13065 13.5564C2.19423 13.2033 2.28772 12.8562 2.4101 12.5189C2.71299 11.7642 3.07947 11.0647 3.72205 10.5527C4.18893 10.2565 4.65581 9.9603 5.10261 9.63231C5.48055 9.32597 5.84143 8.99917 6.18363 8.65337C6.61536 8.25845 7.28473 8.17812 7.84364 8.15135C8.40256 8.12457 8.99662 8.19151 9.57059 8.22665C10.6968 8.29526 11.8247 8.10114 12.9475 8.22665C14.149 8.36722 15.2267 9.16376 16.1538 9.88667C16.5219 10.1745 16.8633 10.5125 17.2498 10.7752C17.4588 10.9164 17.7025 10.9974 17.9543 11.0095C18.5082 11.0413 19.0471 10.7485 19.5006 10.4657C20.0662 10.1109 20.5799 9.68084 21.1204 9.29428C21.5572 8.97968 22.0759 8.60986 22.6365 8.59313C22.6563 8.5897 22.6748 8.58103 22.6901 8.56803C24.1258 8.59313 25.5633 8.59313 26.9991 8.5948H30.7826C30.9578 8.60919 31.1341 8.59905 31.3064 8.56468C31.3143 8.56209 31.3217 8.55812 31.3282 8.55297C31.4738 8.63496 31.693 8.61655 31.8536 8.65672C32.0359 8.70393 32.2067 8.78761 32.3556 8.90271C32.5859 9.10125 32.7548 9.3613 32.8426 9.65239C33.0099 10.1343 33.0668 10.715 33.5438 11.0045C33.9124 11.2137 34.3162 11.3538 34.7352 11.4178C35.1301 11.4864 35.4247 11.4563 35.7393 11.1969C36.0734 10.8957 36.3516 10.5376 36.5609 10.1394C36.6603 9.98226 36.7509 9.81968 36.832 9.65239C36.9123 9.46664 36.9692 9.27086 37.0345 9.07841C37.1382 8.78222 37.2687 8.49774 37.5683 8.35885C38.2059 8.37893 38.8434 8.35885 39.481 8.35885C40.0388 8.35216 40.5966 8.34714 41.1544 8.34379C41.8505 8.34379 42.5584 8.37391 43.2528 8.31032C43.2605 8.31246 43.2686 8.31246 43.2763 8.31032C44.0377 8.3304 44.3523 9.00478 44.4995 9.66076C44.6669 10.4272 44.6669 11.2237 44.7405 12.0035C44.8363 12.797 45.013 13.5786 45.2676 14.3362C45.5103 15.096 45.8466 15.9812 46.5143 16.4715C47.0163 16.843 47.5869 16.8781 48.0204 16.3945C48.4538 15.9109 48.6378 15.2416 48.837 14.6475C48.9318 14.3201 49.0649 14.005 49.2336 13.7087C49.5264 13.2402 49.9598 12.872 50.1657 12.3466C50.3715 11.8211 50.2912 11.2823 50.2828 10.7485C50.2645 10.5179 50.2976 10.2862 50.3798 10.07C50.462 9.85381 50.5912 9.65859 50.758 9.49844C51.2818 8.99642 52.0415 8.78724 52.6758 8.47432C53.3234 8.53121 53.986 8.50276 54.637 8.50444H56.7254H60.8855L64.8514 8.50109Z" fill="url(#paint0_radial_252_3)"/>
<path d="M3.15849 7.18755C3.79527 6.88602 4.47122 6.67534 5.16657 6.5617C5.86967 6.47388 6.57904 6.44701 7.28677 6.48137C7.67538 6.49576 8.06213 6.54221 8.44309 6.62027C8.62214 6.65374 8.8012 6.69055 8.98025 6.72234C9.12436 6.75626 9.2732 6.76532 9.42036 6.74912C9.90732 6.67382 10.2822 6.22869 10.7842 6.23371C11.0636 6.25391 11.3269 6.37249 11.5272 6.56839C11.7438 6.7824 12.0359 6.90262 12.3404 6.90307C12.5148 6.88701 12.6873 6.85508 12.8559 6.80769C13.0232 6.76585 13.1905 6.73406 13.3579 6.6872C13.7043 6.59014 14.044 6.46799 14.392 6.37762C14.7345 6.26916 15.0953 6.23047 15.453 6.26383C15.7478 6.33058 16.0302 6.44354 16.2897 6.59851C16.5297 6.73865 16.7955 6.82913 17.0712 6.86458C17.1957 6.87506 17.3208 6.85204 17.4335 6.7979C17.5462 6.74376 17.6424 6.66048 17.7121 6.55668C17.7684 6.46564 17.8371 6.38285 17.9162 6.31069C18.0308 6.23489 18.1638 6.19152 18.3011 6.18518C18.4587 6.1654 18.6179 6.16148 18.7763 6.17347C18.9154 6.1758 19.0525 6.20596 19.1796 6.26216C19.4256 6.38766 19.5997 6.60855 19.839 6.7441C20.1346 6.87689 20.4614 6.92497 20.7828 6.88299C20.9317 6.88299 21.0823 6.86458 21.2329 6.86458C21.3032 6.86458 21.4002 6.70561 21.3082 6.70561C20.9824 6.72875 20.6555 6.73267 20.3293 6.71732C20.1735 6.69504 20.0247 6.63784 19.8942 6.54998C19.7837 6.47635 19.6884 6.38264 19.5863 6.29897C19.4793 6.2039 19.3571 6.12752 19.2248 6.07306C19.0957 6.03268 18.9618 6.00961 18.8266 6.00445C18.6725 5.99526 18.5179 6.00031 18.3647 6.01952C18.227 6.0306 18.0926 6.0669 17.9681 6.12661C17.8593 6.18898 17.7651 6.27401 17.692 6.37595C17.6361 6.46344 17.5704 6.54428 17.4962 6.61692C17.2803 6.78426 16.9323 6.67716 16.708 6.58345C16.4353 6.47133 16.1842 6.31236 15.9098 6.20526C15.6088 6.0922 15.2837 6.05877 14.966 6.10821C14.603 6.16368 14.2457 6.25161 13.8984 6.37093C13.731 6.42448 13.5637 6.4797 13.3964 6.52656C13.229 6.57341 13.0516 6.60521 12.8793 6.64704C12.7051 6.69806 12.5252 6.72674 12.3438 6.73238C12.1797 6.72548 12.0206 6.67399 11.8836 6.58345C11.7677 6.50102 11.656 6.41277 11.5489 6.31905C11.4411 6.23378 11.3202 6.16653 11.1908 6.11992C10.9476 6.03322 10.6806 6.04098 10.4428 6.14167C10.2135 6.23204 10.0077 6.3726 9.78348 6.47635C9.67058 6.53025 9.54961 6.5653 9.42538 6.5801C9.25999 6.58398 9.09489 6.56426 8.93507 6.52154C8.57027 6.45293 8.20547 6.37762 7.83732 6.33579C7.45908 6.30066 7.07924 6.28557 6.69941 6.29061C6.34804 6.28753 5.99675 6.30205 5.64684 6.33411C4.9645 6.40371 4.29563 6.57051 3.66051 6.82944C3.49317 6.89973 3.32583 6.9767 3.15849 7.06707C3.09155 7.10053 3.05473 7.24445 3.15849 7.19592V7.18755Z" fill="black"/>
<path d="M21.2618 6.84111C21.7856 6.84111 22.3127 6.78421 22.8331 6.74238C23.1494 6.71727 23.4657 6.6905 23.7819 6.66707C24.0436 6.63552 24.3085 6.64172 24.5684 6.68548C24.7897 6.74165 25.0062 6.81494 25.216 6.9047C25.4461 6.99976 25.6883 7.06228 25.9356 7.09044C26.4979 7.14901 27.0652 7.09044 27.6274 7.0804C28.1897 7.07036 28.7453 7.17244 29.3008 7.1624C29.5625 7.15893 29.823 7.12581 30.0773 7.06367C30.3476 6.98221 30.6125 6.88385 30.8705 6.76915C31.362 6.56744 31.877 6.42857 32.4033 6.35582C32.6755 6.32547 32.9494 6.31262 33.2233 6.31733C33.4451 6.30457 33.6676 6.32659 33.8826 6.38259C34.1086 6.46525 34.3113 6.60131 34.4733 6.77919C34.5859 6.92301 34.7096 7.05784 34.8431 7.18248C35.0036 7.28672 35.1924 7.33874 35.3836 7.33141C35.4713 7.33107 35.5571 7.30614 35.6313 7.25946C35.6813 7.21976 35.7396 7.19167 35.8018 7.1772C35.864 7.16273 35.9287 7.16225 35.9911 7.17579C36.13 7.21093 36.2622 7.27117 36.4011 7.30799C36.5454 7.33892 36.692 7.3574 36.8395 7.36321C37.1491 7.38831 37.457 7.42512 37.7666 7.44353C38.331 7.48118 38.8973 7.48118 39.4617 7.44353C39.9948 7.40369 40.5221 7.30721 41.0347 7.15571C41.5786 6.98837 42.1174 6.78588 42.6864 6.73066C43.1294 6.65753 43.5842 6.72727 43.9849 6.9298C44.1837 7.06555 44.3949 7.1821 44.6158 7.27786C44.7719 7.32848 44.9381 7.33941 45.0994 7.30966C45.3236 7.27284 45.5412 7.21093 45.7688 7.18248C45.9973 7.16016 46.2269 7.14955 46.4565 7.15069C46.9072 7.17015 47.3582 7.12335 47.7953 7.01179C47.9865 6.95069 48.1635 6.85166 48.3157 6.72062C48.3826 6.66205 48.3408 6.56332 48.2571 6.62691C47.889 6.90302 47.4087 6.94988 46.9636 6.96159C46.5251 6.95231 46.0866 6.97581 45.6516 7.03187C45.4438 7.08477 45.2324 7.1228 45.0191 7.14567C44.8125 7.14227 44.6113 7.0789 44.4401 6.96327C44.2561 6.83681 44.0625 6.72491 43.8611 6.62859C43.6842 6.56622 43.4981 6.53343 43.3105 6.53153C42.1961 6.48635 41.197 7.02016 40.1143 7.19085C39.5636 7.27003 39.0071 7.30083 38.451 7.28288C37.8619 7.27117 37.2679 7.22431 36.6839 7.15738C36.4262 7.12726 36.1551 6.93984 35.894 6.97665C35.8033 6.99722 35.7175 7.03531 35.6413 7.08877C35.5275 7.14608 35.397 7.16091 35.2732 7.13061C35.0966 7.1036 34.9379 7.00798 34.8314 6.86453C34.6979 6.69198 34.5433 6.53682 34.3712 6.40267C33.9847 6.13326 33.5663 6.12991 33.1095 6.14162C32.604 6.15001 32.1017 6.22369 31.6151 6.36084C31.3758 6.42945 31.1399 6.51479 30.9073 6.60516C30.6357 6.72564 30.3561 6.82739 30.0706 6.90972C29.5267 7.03857 28.9695 6.98837 28.4189 6.94653C27.8582 6.91808 27.2963 6.91808 26.7355 6.94653C26.4635 6.95742 26.191 6.94735 25.9206 6.91641C25.664 6.87206 25.4139 6.79619 25.1759 6.6905C24.8446 6.54696 24.4859 6.47784 24.125 6.48802C23.8773 6.50308 23.623 6.52483 23.382 6.54659C22.7545 6.59846 22.1286 6.66205 21.5011 6.71393C21.4358 6.71393 21.3706 6.72731 21.3053 6.72899C21.24 6.73066 21.1898 6.83274 21.2551 6.83441L21.2618 6.84111Z" fill="black"/>
<path d="M3.13915 7.06705C2.55644 7.46717 2.03742 7.9529 1.59962 8.50785C1.21155 9.00665 0.891367 9.55473 0.647453 10.1377C0.426475 10.6568 0.26209 11.1982 0.157146 11.7526C0.0541077 12.3139 0.00424269 12.8837 0.00821363 13.4544C0.00355281 13.7834 0.0395241 14.1116 0.115311 14.4317C0.188307 14.7127 0.321964 14.9743 0.506887 15.1981C0.690962 15.4274 0.98548 15.6767 1.29171 15.5094C1.59795 15.342 1.72512 15.0073 1.83055 14.7078C1.95595 14.3367 2.05658 13.9577 2.13176 13.5732C2.1669 13.4059 2.20204 13.2386 2.23886 13.0712C2.26209 12.9487 2.29567 12.8283 2.33926 12.7114C2.59195 12.0739 2.85634 11.4179 3.3433 10.9125C3.46433 10.7853 3.59465 10.6673 3.73321 10.5594C3.77002 10.531 3.765 10.4708 3.71313 10.5042C3.13748 10.8874 2.771 11.4949 2.49322 12.114C2.42293 12.2697 2.356 12.4286 2.29241 12.5876C2.25347 12.6749 2.21939 12.7643 2.19033 12.8554C2.15352 12.9825 2.12507 13.1131 2.09662 13.2436C2.01462 13.6101 1.93932 13.9782 1.8339 14.3397C1.78284 14.5193 1.72138 14.6959 1.64982 14.8685C1.61635 14.9438 1.58121 15.0191 1.53938 15.0927L1.52432 15.1178C1.52432 15.1312 1.52432 15.1178 1.52432 15.1278L1.4942 15.1747C1.47411 15.2048 1.45236 15.2333 1.43061 15.26C1.40885 15.2868 1.43061 15.26 1.43061 15.26C1.42594 15.2669 1.4203 15.2731 1.41387 15.2784C1.40358 15.2909 1.3924 15.3027 1.3804 15.3136L1.36534 15.327C1.3553 15.337 1.3804 15.3153 1.36534 15.327L1.35698 15.3353L1.32016 15.3604C1.31012 15.3604 1.3051 15.3705 1.32016 15.3604L1.30175 15.3705L1.26327 15.3889C1.25155 15.3889 1.28 15.3889 1.26327 15.3889H1.24653H1.22645H1.19968C1.17245 15.3922 1.14491 15.3922 1.11768 15.3889C1.11768 15.3889 1.0976 15.3889 1.11768 15.3889H1.09593L1.05074 15.3755C0.98939 15.3501 0.932803 15.3144 0.883403 15.2701C0.706029 15.1194 0.559432 14.9358 0.451665 14.7296C0.318734 14.453 0.239248 14.1538 0.217389 13.8477C0.190333 13.5271 0.187536 13.2048 0.209022 12.8838C0.222409 12.6144 0.239143 12.345 0.275958 12.0772C0.34873 11.5522 0.474314 11.0358 0.6508 10.536C0.849545 9.97761 1.11652 9.44591 1.44567 8.95298C1.81248 8.40345 2.25853 7.91117 2.76933 7.4921C2.90655 7.38165 3.04711 7.27455 3.19103 7.17415C3.21947 7.15574 3.25629 7.11056 3.24123 7.07375C3.22617 7.03693 3.17764 7.05534 3.15421 7.07375L3.13915 7.06705Z" fill="black"/>
<path d="M3.72647 10.5512C4.39583 10.1312 5.07524 9.71452 5.65423 9.1874C5.90692 8.95647 6.11609 8.66195 6.41563 8.48625C6.76707 8.3002 7.15479 8.19286 7.55187 8.17165C8.37351 8.09802 9.19515 8.23022 10.0151 8.24862C10.8351 8.26703 11.6366 8.15993 12.4499 8.1934C12.8584 8.2014 13.2638 8.26559 13.6548 8.38417C14.061 8.5315 14.4499 8.72285 14.8144 8.9548C15.5706 9.42546 16.2875 9.95655 16.9581 10.5429C17.1493 10.7278 17.3774 10.8703 17.6274 10.9612C17.8452 11.023 18.0742 11.0339 18.2968 10.993C18.7988 10.911 19.2623 10.6366 19.679 10.3571C20.1593 10.0358 20.6078 9.67102 21.0763 9.33299C21.4645 9.05186 21.8829 8.75734 22.3548 8.63685C22.4477 8.6125 22.5432 8.59903 22.6393 8.59669C22.7112 8.59669 22.8066 8.43772 22.7162 8.43772C22.2527 8.43772 21.831 8.67534 21.4511 8.91966C20.9709 9.22757 20.5258 9.58902 20.0656 9.9237C19.3326 10.4609 18.2483 11.2407 17.3496 10.6014C17.1957 10.4927 17.0551 10.3621 16.9095 10.2416C16.7422 10.0977 16.5598 9.95549 16.3807 9.81493C16.0293 9.54049 15.6695 9.27609 15.2947 9.03345C14.9328 8.7965 14.5542 8.58621 14.1618 8.40425C13.7973 8.23636 13.4079 8.12897 13.0088 8.0863C12.1721 7.99259 11.3354 8.08631 10.4987 8.10639C9.66203 8.12647 8.87888 8.00765 8.0656 8.01769C7.66961 8.01353 7.27509 8.06651 6.89422 8.17499C6.55517 8.27212 6.24797 8.45749 6.00397 8.71216C5.88014 8.84101 5.76468 8.97655 5.6375 9.10206C5.49632 9.2357 5.3483 9.36193 5.19405 9.48025C4.85937 9.73461 4.52469 9.96554 4.17327 10.1898L3.69803 10.4943C3.65954 10.5194 3.6679 10.5763 3.71643 10.5462L3.72647 10.5512Z" fill="black"/>
<path d="M22.655 8.57321C22.9361 8.57321 23.2173 8.58827 23.5001 8.59329C23.7829 8.59831 24.0657 8.59329 24.3502 8.59329H26.0236H29.3938H31.181C31.2257 8.58913 31.2696 8.579 31.3115 8.56317C31.3416 8.55481 31.4253 8.47448 31.3651 8.45105C31.3387 8.43909 31.3112 8.42957 31.2831 8.42261C31.2496 8.42261 31.2128 8.42261 31.1793 8.42261H27.9999H24.6263H23.6708C23.3478 8.42261 23.0248 8.43934 22.7019 8.44436C22.655 8.44436 22.5814 8.55146 22.65 8.55313L22.655 8.57321Z" fill="black"/>
<path d="M31.3004 8.54315L31.3456 8.57494C31.3643 8.58905 31.3874 8.59616 31.4108 8.59502L31.5648 8.60841C31.6521 8.61942 31.7387 8.63562 31.8242 8.65694C31.9686 8.69146 32.1068 8.74789 32.2341 8.82428C32.4438 8.9547 32.6125 9.14141 32.7211 9.36311C32.8254 9.58165 32.9083 9.80973 32.9688 10.0442C33.0213 10.2576 33.0983 10.4642 33.198 10.66C33.2452 10.7469 33.3062 10.8255 33.3788 10.8926C33.484 10.9828 33.6033 11.0551 33.7318 11.1068C34.0674 11.2565 34.4214 11.3612 34.7844 11.4181C34.9293 11.4464 35.0774 11.4548 35.2245 11.4432C35.4048 11.4124 35.5729 11.3318 35.7098 11.2105C36.0256 10.9366 36.2907 10.6092 36.493 10.2433C36.5415 10.1613 36.59 10.076 36.6369 9.99566C36.6837 9.91534 36.7205 9.86346 36.759 9.79318C36.8362 9.64423 36.8995 9.4885 36.9481 9.32797C37.0033 9.16063 37.0535 8.99329 37.1238 8.84268C37.1798 8.69948 37.2667 8.57036 37.3782 8.4645C37.4358 8.41689 37.5001 8.37799 37.569 8.34903C37.5859 8.34197 37.6007 8.33075 37.6121 8.31641C37.6235 8.30208 37.6311 8.28509 37.6342 8.26703C37.636 8.26045 37.6358 8.2535 37.6336 8.24703C37.6315 8.24056 37.6275 8.23485 37.6222 8.2306C37.6169 8.22634 37.6104 8.22373 37.6037 8.22307C37.5969 8.22241 37.5901 8.22373 37.584 8.22687C37.2493 8.33397 37.0586 8.66698 36.9381 8.9799C36.8474 9.29531 36.7229 9.59998 36.5666 9.88856C36.5164 9.96386 36.4762 10.0559 36.431 10.1262C36.3859 10.1965 36.3323 10.2935 36.2804 10.3705C36.1709 10.5479 36.0466 10.7159 35.9089 10.8725C35.7906 11.0138 35.6471 11.1318 35.4856 11.2206C35.4231 11.254 35.355 11.2756 35.2848 11.2842C35.218 11.29 35.1508 11.29 35.084 11.2842C34.7258 11.2451 34.3749 11.1561 34.0414 11.0198C33.7936 10.9482 33.5727 10.8043 33.4072 10.6064C33.2998 10.4287 33.2197 10.2357 33.1696 10.0341C33.108 9.80348 33.0314 9.57708 32.9403 9.35642C32.8436 9.12541 32.6919 8.9215 32.4985 8.76236C32.2422 8.57756 31.9374 8.4717 31.6217 8.4578H31.4861C31.4276 8.46128 31.3706 8.47726 31.3188 8.50466C31.3071 8.50466 31.2753 8.54314 31.2937 8.55653L31.3004 8.54315Z" fill="black"/>
<path d="M37.5477 8.3473C37.628 8.3473 37.715 8.3473 37.7887 8.35901C37.8623 8.37072 37.9962 8.35901 38.0982 8.35901L38.9349 8.34897C39.7616 8.33893 40.5866 8.32889 41.4132 8.32387H42.2951H42.7654C42.9427 8.32387 43.1151 8.31215 43.2908 8.29542C43.307 8.29344 43.3225 8.28733 43.3357 8.27766C43.3489 8.26799 43.3593 8.25509 43.3661 8.2402C43.3778 8.21677 43.3761 8.18832 43.3443 8.18498C43.1988 8.16855 43.0524 8.15962 42.9059 8.1582H42.4825H41.681L40.2653 8.17326C39.5959 8.1833 38.9266 8.19167 38.2572 8.21008C38.1367 8.21008 38.0129 8.21008 37.8924 8.21845C37.8037 8.21845 37.6983 8.23518 37.6012 8.23685C37.556 8.23685 37.4824 8.34228 37.5494 8.34395L37.5477 8.3473Z" fill="black"/>
<path d="M43.2882 8.30382C43.5543 8.30076 43.8113 8.40023 44.0061 8.5816C44.1936 8.77567 44.3313 9.01221 44.4077 9.27104C44.5043 9.5744 44.5705 9.88664 44.6051 10.2031C44.6486 10.5378 44.6721 10.8909 44.6955 11.2356C44.7156 11.5502 44.734 11.8648 44.7741 12.1777C44.8143 12.4907 44.8846 12.7969 44.9532 13.1031C45.108 13.873 45.3506 14.6225 45.6761 15.3371C45.8241 15.6602 46.0199 15.9592 46.2568 16.224C46.4675 16.4577 46.7367 16.631 47.0366 16.7261C47.1565 16.7606 47.2823 16.7697 47.406 16.7527C47.5296 16.7357 47.6483 16.693 47.7545 16.6273C47.9722 16.4788 48.1512 16.2802 48.2766 16.0483C48.5744 15.5463 48.7351 14.9757 48.9242 14.4268C49.0096 14.1558 49.1288 13.8966 49.2789 13.6554C49.5467 13.2537 49.9132 12.9191 50.1156 12.484C50.3181 12.0489 50.3181 11.5301 50.2997 11.0382C50.2808 10.8154 50.2808 10.5915 50.2997 10.3688C50.3237 10.1951 50.3805 10.0276 50.4671 9.87514C50.6421 9.59419 50.8872 9.36354 51.1783 9.20578C51.5023 9.02083 51.8376 8.85651 52.1823 8.7138C52.3496 8.6385 52.517 8.5632 52.6843 8.4812C52.7031 8.47318 52.7194 8.46024 52.7315 8.44376C52.7436 8.42727 52.751 8.40783 52.7529 8.38749C52.7529 8.35067 52.7111 8.34733 52.6843 8.36071C52.3413 8.52805 51.9882 8.67866 51.6435 8.84433C51.3108 8.9928 51.0009 9.18774 50.7231 9.42332C50.4634 9.64989 50.2818 9.95266 50.2043 10.2885C50.1689 10.4928 50.1577 10.7006 50.1709 10.9076C50.1709 11.1553 50.196 11.4097 50.1909 11.6506C50.1883 11.889 50.1464 12.1253 50.0671 12.3501C49.9726 12.5856 49.8416 12.8047 49.6789 12.9994C49.394 13.3187 49.15 13.6723 48.9526 14.052C48.7301 14.554 48.5928 15.0978 48.3703 15.6032C48.2681 15.8555 48.13 16.0916 47.9603 16.3044L47.9385 16.3295L47.9068 16.3629L47.8398 16.4282L47.8281 16.4382C47.808 16.4566 47.8432 16.4265 47.8281 16.4382L47.7963 16.4633C47.7729 16.4817 47.7478 16.4968 47.7227 16.5135C47.6976 16.5303 47.7344 16.5135 47.7227 16.5135L47.7059 16.5236L47.6725 16.542L47.6373 16.557C47.6373 16.557 47.5938 16.5738 47.6072 16.5704C47.5579 16.5876 47.5068 16.5993 47.4549 16.6056C47.1761 16.6115 46.9044 16.5177 46.6885 16.3412C46.4249 16.1453 46.2054 15.8961 46.0443 15.6099C45.6644 14.929 45.3865 14.196 45.2193 13.4345C45.1339 13.0998 45.0603 12.7651 44.9934 12.417C44.9413 12.1277 44.9066 11.8354 44.8896 11.5419C44.8681 10.8678 44.7942 10.1964 44.6687 9.53377C44.5482 9.01334 44.3123 8.42598 43.7584 8.24358C43.6274 8.20241 43.4907 8.18263 43.3534 8.18501C43.3342 8.18701 43.3158 8.19411 43.3002 8.20559C43.2846 8.21706 43.2724 8.23248 43.2647 8.25027C43.253 8.27537 43.253 8.31553 43.2898 8.31553L43.2882 8.30382Z" fill="black"/>
<path d="M52.664 8.46111C52.9267 8.48454 53.1911 8.48454 53.4538 8.48788C53.7165 8.49123 53.9876 8.48788 54.2554 8.48788H55.8585H62.2559C63.2784 8.48788 64.3025 8.48788 65.3249 8.48788C65.7249 8.48788 66.1265 8.47784 66.5264 8.44939H66.5683C66.5839 8.44767 66.5989 8.4418 66.6115 8.43239C66.6242 8.42298 66.6341 8.41036 66.6402 8.39585C66.6486 8.37744 66.6503 8.34062 66.6185 8.3423H66.5783C66.5331 8.3423 66.4679 8.4427 66.5298 8.4427H66.5683C66.6151 8.4427 66.6854 8.34062 66.6185 8.3356C66.2503 8.30716 65.8822 8.29879 65.5123 8.29377C64.5886 8.28373 63.6716 8.29377 62.7412 8.29377H59.545H56.3438C55.2728 8.29377 54.2001 8.29377 53.1292 8.30548C52.9919 8.30548 52.8547 8.31552 52.7175 8.32724C52.674 8.32724 52.5903 8.43099 52.664 8.43768V8.46111Z" fill="black"/>
<path d="M66.5087 8.50954C66.5834 8.64942 66.6126 8.8091 66.5924 8.96638C66.5806 9.15372 66.5588 9.34029 66.5271 9.52529C66.4976 9.70243 66.4797 9.88131 66.4735 10.0608C66.4676 10.2393 66.5079 10.4163 66.5907 10.5745C66.6961 10.782 66.8802 11.0196 67.1278 10.854C67.3755 10.6883 67.4742 10.3837 67.5679 10.1344C67.7988 9.52669 67.9359 8.88739 67.9746 8.23845C68.0107 7.89959 67.9724 7.55695 67.8625 7.2344C67.7948 7.08846 67.6916 6.96177 67.5624 6.8659C67.4333 6.77003 67.2821 6.70802 67.1228 6.68553C66.7312 6.63866 66.3357 6.63361 65.9431 6.67047C65.7455 6.66819 65.5483 6.65422 65.3524 6.62863C65.0743 6.60246 64.795 6.59073 64.5157 6.59349C63.9561 6.60371 63.3975 6.64393 62.8423 6.71398C62.29 6.77422 61.7361 6.85789 61.1822 6.87295C60.0243 6.90474 58.8646 6.84785 57.7066 6.87295C57.1627 6.88801 56.6222 6.95997 56.0817 6.88132C55.5412 6.80267 55.0425 6.64035 54.5087 6.61859C53.9749 6.59684 53.4126 6.62863 52.8638 6.63533C52.4169 6.62639 51.9737 6.55197 51.5485 6.41444C50.6917 6.17347 49.8031 5.91241 48.9313 6.23705C48.6917 6.32932 48.4664 6.45496 48.2619 6.61023C48.19 6.66377 48.205 6.78593 48.3004 6.71565C48.693 6.42332 49.165 6.25702 49.6542 6.23873C50.091 6.24013 50.5252 6.3061 50.9427 6.43452C51.3477 6.54496 51.7493 6.67716 52.1643 6.75079C52.6462 6.80937 53.1328 6.81946 53.6168 6.78091C53.8812 6.78091 54.1456 6.77254 54.41 6.78091C54.6767 6.79822 54.9415 6.83796 55.2015 6.89972C55.682 7.0248 56.176 7.09056 56.6724 7.09551C57.2247 7.07376 57.7735 7.03862 58.3274 7.03694C58.8813 7.03527 59.4352 7.04531 59.9874 7.04866C60.5395 7.06152 61.0919 7.04588 61.6424 7.0018C62.1796 6.94993 62.7168 6.87797 63.2539 6.83446C63.7817 6.77646 64.3129 6.75522 64.8437 6.77087C65.088 6.77087 65.3273 6.81271 65.5699 6.83279C65.7538 6.84448 65.9382 6.84448 66.1221 6.83279C66.4869 6.81605 66.8802 6.77757 67.2299 6.90809C67.3725 6.96139 67.4984 7.05134 67.5951 7.16886C67.6917 7.28638 67.7557 7.42732 67.7805 7.57745C67.8418 7.92123 67.848 8.27258 67.7989 8.61831C67.7683 8.93136 67.7124 9.2414 67.6315 9.54537C67.5574 9.8379 67.4594 10.1239 67.3387 10.4005C67.2734 10.5427 67.1295 10.8824 66.9237 10.7352C66.7943 10.6205 66.7003 10.4713 66.6526 10.3051C66.6106 10.1515 66.6003 9.99091 66.6225 9.8332C66.6793 9.4845 66.7112 9.13219 66.7179 8.77895C66.7166 8.65083 66.6795 8.52562 66.6108 8.4175C66.5806 8.37567 66.4853 8.46603 66.5171 8.51288L66.5087 8.50954Z" fill="black"/>
<path d="M0.18592 14.6778C0.212069 14.7435 0.251826 14.803 0.302583 14.8523C0.35334 14.9017 0.413951 14.9397 0.480438 14.9639C0.54097 14.9801 0.60419 14.9835 0.666113 14.974C0.728035 14.9645 0.787317 14.9423 0.84022 14.9087C0.969565 14.8217 1.06937 14.6974 1.12637 14.5523C1.19974 14.3809 1.24875 14.2001 1.27196 14.0151C1.29566 13.8341 1.31018 13.652 1.31547 13.4696C1.32551 13.2721 1.33722 13.0746 1.34726 12.8772C1.36901 12.4471 1.3891 12.0171 1.43428 11.5887C1.45938 11.3494 1.49285 11.1101 1.5397 10.8741C1.58656 10.6382 1.65684 10.4106 1.71708 10.178C1.72545 10.1445 1.67692 10.1663 1.67023 10.178C1.59772 10.3617 1.54172 10.5516 1.50289 10.7453C1.45938 10.9427 1.42591 11.1419 1.40081 11.341C1.34726 11.7393 1.32049 12.1409 1.30041 12.5425C1.28032 12.919 1.26526 13.2955 1.24184 13.6721C1.22176 14.0201 1.18327 14.415 0.977439 14.7096C0.936086 14.7748 0.878283 14.828 0.80984 14.8639C0.741398 14.8997 0.664727 14.9169 0.587536 14.9137C0.508499 14.9024 0.433653 14.8712 0.370101 14.8228C0.306549 14.7745 0.256398 14.7108 0.224408 14.6376C0.212694 14.6142 0.169186 14.651 0.179226 14.6727L0.18592 14.6778Z" fill="black"/>
<path d="M1.73896 10.951C1.77892 10.7242 1.83484 10.5005 1.9063 10.2816C1.94282 10.1716 1.98815 10.0647 2.04185 9.96199C2.10221 9.86041 2.16872 9.76262 2.24098 9.66914C2.25939 9.64237 2.23094 9.63233 2.21086 9.65073C2.12976 9.73347 2.06202 9.82831 2.01005 9.93186C1.95372 10.0351 1.90668 10.1432 1.86949 10.2548C1.79431 10.4869 1.73835 10.7248 1.70215 10.966C1.70215 11.0012 1.74566 10.9761 1.75068 10.9526L1.73896 10.951Z" fill="black"/>
<path d="M5.56633 8.48945C5.63183 8.36209 5.73149 8.25547 5.85415 8.18154C5.91679 8.14025 5.98221 8.10335 6.04994 8.0711L6.14365 8.02759C6.1773 8.01608 6.20936 8.00033 6.23904 7.98074C6.23904 7.98074 6.26414 7.95061 6.23904 7.94727C6.20618 7.94715 6.17367 7.95399 6.14365 7.96735C6.10684 7.98074 6.0717 7.99747 6.03655 8.01253C5.96113 8.04809 5.88891 8.09008 5.82069 8.13803C5.68578 8.22288 5.57827 8.34492 5.51111 8.48945C5.49437 8.52961 5.54625 8.51622 5.55796 8.48945H5.56633Z" fill="black"/>
<path d="M13.892 7.82173C14.2908 7.88701 14.6829 7.98839 15.0633 8.12462C15.4463 8.2608 15.7979 8.47248 16.0975 8.74712C16.2398 8.88434 16.3669 9.03494 16.5008 9.17886C16.6133 9.29991 16.7353 9.41182 16.8656 9.51354C17.134 9.72259 17.4339 9.88754 17.7542 10.0022C18.0889 10.1143 18.4855 10.1595 18.79 9.9503C18.8068 9.93858 18.8134 9.89842 18.79 9.91516C18.1742 10.2364 17.4513 9.85157 16.9493 9.48342C16.8192 9.39071 16.6977 9.28654 16.5861 9.17216C16.4523 9.03495 16.3301 8.88769 16.1962 8.75214C15.9149 8.47789 15.5815 8.26281 15.2156 8.11959C14.8009 7.96288 14.3706 7.85069 13.9321 7.78491C13.9104 7.78491 13.8769 7.82507 13.8987 7.83009L13.892 7.82173Z" fill="black"/>
<path d="M18.6167 9.68429C18.7027 9.63892 18.7859 9.58863 18.8661 9.53368L18.9916 9.45671L19.0619 9.41822C19.0857 9.40848 19.1077 9.39491 19.1271 9.37806C19.1271 9.36969 19.1422 9.35296 19.1271 9.34961C19.1049 9.3496 19.0832 9.35663 19.0652 9.36969L18.9949 9.4065L18.8661 9.48515C18.7856 9.54102 18.7018 9.59188 18.6151 9.63743C18.6034 9.63743 18.5883 9.65919 18.59 9.67425C18.5916 9.68931 18.605 9.68931 18.6167 9.68429V9.68429Z" fill="black"/>
<path d="M31.4903 7.80181C31.769 7.80509 32.0451 7.85545 32.307 7.95074C32.4349 7.997 32.5591 8.05295 32.6785 8.11808C32.7387 8.15155 32.7989 8.18836 32.8575 8.22853C32.9161 8.26869 32.9629 8.32224 33.0249 8.3306C33.0349 8.3306 33.05 8.31554 33.0466 8.3055C33.0433 8.29546 33.0031 8.2553 32.9763 8.23355L32.8943 8.17163C32.8374 8.13147 32.7805 8.09465 32.727 8.06119C32.6066 7.99065 32.48 7.93128 32.3488 7.88381C32.0828 7.79038 31.8024 7.7445 31.5205 7.74826C31.5004 7.74826 31.4686 7.79512 31.4987 7.79512L31.4903 7.80181Z" fill="black"/>
<path d="M33.8242 9.63899C34.0171 9.93089 34.3004 10.1514 34.6308 10.2665C34.9772 10.3903 35.3253 10.2665 35.6348 10.0992C35.7219 10.049 35.8022 9.99375 35.8892 9.93183C35.9776 9.87811 36.0626 9.81886 36.1436 9.75445C36.1653 9.73605 36.162 9.69923 36.1285 9.71262C36.0544 9.7497 35.9839 9.79338 35.9176 9.84314L35.7018 9.98371C35.5577 10.0796 35.4004 10.1541 35.2349 10.2046C35.0708 10.251 34.897 10.251 34.7329 10.2046C34.5673 10.155 34.4099 10.0811 34.266 9.98538C34.1104 9.88194 33.9772 9.74819 33.8744 9.59213C33.8627 9.5754 33.8225 9.61221 33.8359 9.6323L33.8242 9.63899Z" fill="black"/>
<path d="M35.7888 9.57724C35.9155 9.54231 36.0309 9.47481 36.1235 9.38145C36.1718 9.33565 36.2155 9.2852 36.254 9.23084C36.2963 9.18091 36.3303 9.12438 36.3544 9.0635C36.3544 9.04008 36.331 9.04677 36.3209 9.0635C36.2834 9.11023 36.2482 9.15883 36.2155 9.20909C36.1802 9.25746 36.1417 9.30331 36.1 9.34631C36.017 9.43402 35.9117 9.49763 35.7955 9.53038C35.7881 9.53285 35.7813 9.537 35.7758 9.54252C35.7703 9.54804 35.7661 9.55477 35.7637 9.56218C35.7637 9.57557 35.7637 9.58561 35.7821 9.58226L35.7888 9.57724Z" fill="black"/>
<path d="M44.4092 7.95069C44.5963 8.02505 44.7645 8.14004 44.9017 8.28734C45.0388 8.43465 45.1416 8.61059 45.2024 8.80245C45.2717 8.99218 45.3156 9.19025 45.333 9.39149C45.3581 9.66593 45.4066 9.93869 45.4534 10.2098C45.5455 10.7704 45.6308 11.3293 45.671 11.8949C45.6911 12.1777 45.7061 12.4622 45.7379 12.745C45.7614 12.9525 45.7915 13.1617 45.8249 13.3692C45.8562 13.5875 45.9072 13.8026 45.9772 14.0118C46.0327 14.2104 46.1499 14.3862 46.3119 14.5138C46.3353 14.5288 46.3822 14.4853 46.3621 14.4652C46.0776 14.1891 45.9789 13.7959 45.9136 13.4227C45.8328 12.9418 45.777 12.4569 45.7463 11.9702C45.7078 11.4012 45.6291 10.839 45.5354 10.275C45.4869 9.99224 45.435 9.70776 45.4032 9.42161C45.3871 9.22482 45.3506 9.03023 45.2945 8.84094C45.2381 8.62764 45.132 8.43073 44.9848 8.26638C44.8376 8.10203 44.6536 7.97492 44.4477 7.89547C44.4226 7.8871 44.3825 7.9373 44.4092 7.94734V7.95069Z" fill="black"/>
<path d="M49.3688 9.51528C49.5579 9.12371 49.7955 8.72711 50.234 8.58654C50.4917 8.50455 50.7644 8.51626 51.0255 8.44598C51.2687 8.35438 51.4988 8.23116 51.7099 8.0795C51.9643 7.93559 52.2571 7.92722 52.5366 7.87033C52.5633 7.87033 52.5935 7.80339 52.5516 7.81176C52.29 7.83451 52.0325 7.89075 51.7852 7.9791C51.5392 8.09791 51.3367 8.2937 51.069 8.37235C50.8012 8.451 50.5117 8.43259 50.2423 8.52128C50.0346 8.58984 49.8495 8.71363 49.7068 8.87939C49.5481 9.06951 49.4173 9.28139 49.3186 9.50859C49.2985 9.5521 49.3571 9.53704 49.3688 9.50859V9.51528Z" fill="black"/>
<path d="M66.9711 8.11117C67.067 8.57396 67.1113 9.04594 67.1033 9.5185C67.0792 9.75245 67.0837 9.98846 67.1166 10.2213C67.1417 10.3234 67.2137 10.4305 67.3325 10.3887C67.3476 10.3887 67.3928 10.3268 67.3576 10.3201C67.3193 10.3184 67.2826 10.3037 67.2539 10.2782C67.2255 10.2434 67.2065 10.2019 67.1986 10.1577C67.1749 10.0416 67.167 9.92286 67.1752 9.80465C67.1906 9.47432 67.1833 9.14333 67.1535 8.814C67.128 8.56582 67.085 8.31976 67.0246 8.0777C67.0162 8.05092 66.966 8.09109 66.9711 8.11619V8.11117Z" fill="black"/>
<defs>
<radialGradient id="paint0_radial_252_3" cx="0" cy="0" r="1" gradientUnits="userSpaceOnUse" gradientTransform="translate(34 11.3775) rotate(90) scale(5.37633 34)">
<stop stop-color="white"/>
<stop offset="1" stop-color="#F2FEFF"/>
</radialGradient>
</defs>
</svg>
