<svg width="18" height="18" viewBox="0 0 18 18" fill="none" xmlns="http://www.w3.org/2000/svg">
<path d="M9 1C4.5824 1 1 4.5824 1 9C1 13.4176 4.5824 17 9 17C13.4176 17 17 13.4176 17 9C17 4.5824 13.4192 1 9 1ZM4.9472 9.2688L4.9808 9.2144L7.0624 5.9584C7.0928 5.912 7.1648 5.9168 7.1872 5.968C7.5344 6.7472 7.8352 7.7168 7.6944 8.32C7.6352 8.568 7.4704 8.904 7.2848 9.2144C7.2608 9.2592 7.2352 9.304 7.2064 9.3472C7.1936 9.3664 7.1712 9.3776 7.1472 9.3776H5.008C4.9504 9.3776 4.9168 9.3152 4.9472 9.2688ZM14.2224 10.3888C14.2224 10.4192 14.2048 10.4448 14.1792 10.456C14.0176 10.5248 13.4656 10.7792 13.2368 11.0976C12.6512 11.912 12.2048 13.0768 11.2048 13.0768H7.0352C5.5568 13.0768 4.36 11.8752 4.36 10.392V10.344C4.36 10.3056 4.392 10.2736 4.432 10.2736H6.7552C6.8016 10.2736 6.8352 10.3152 6.832 10.3616C6.8144 10.512 6.8432 10.6672 6.9152 10.808C7.0528 11.088 7.3392 11.2624 7.648 11.2624H8.7984V10.3648H7.6608C7.6032 10.3648 7.568 10.2976 7.6016 10.2496C7.6144 10.2304 7.6272 10.2112 7.6432 10.1888C7.7504 10.0352 7.904 9.7984 8.0576 9.528C8.1616 9.3456 8.2624 9.1504 8.344 8.9552C8.36 8.92 8.3728 8.8832 8.3872 8.848C8.4096 8.7856 8.432 8.7264 8.448 8.6688C8.464 8.6192 8.4784 8.568 8.4912 8.52C8.5296 8.3536 8.5456 8.1776 8.5456 7.9952C8.5456 7.9232 8.5424 7.848 8.536 7.7776C8.5328 7.6992 8.5232 7.6208 8.5136 7.5424C8.5072 7.4736 8.4944 7.4048 8.4816 7.3344C8.464 7.2304 8.4416 7.1264 8.416 7.0224L8.4064 6.9824C8.3872 6.9104 8.3696 6.8432 8.3472 6.7712C8.2816 6.5472 8.208 6.328 8.128 6.1232C8.0992 6.0416 8.0672 5.9632 8.0336 5.8864C7.9856 5.768 7.936 5.6608 7.8912 5.56C7.8672 5.5136 7.848 5.472 7.8288 5.4288C7.8064 5.3808 7.784 5.3328 7.76 5.2864C7.744 5.2512 7.7248 5.2176 7.712 5.1856L7.5712 4.9264C7.552 4.8912 7.584 4.848 7.6224 4.8592L8.5024 5.0976H8.5056C8.5072 5.0976 8.5072 5.0976 8.5088 5.0976L8.624 5.1312L8.752 5.1664L8.7984 5.1792V4.6576C8.7984 4.4048 9 4.2 9.2512 4.2C9.376 4.2 9.4896 4.2512 9.5696 4.3344C9.6512 4.4176 9.7024 4.5312 9.7024 4.6576V5.4336L9.7968 5.4592C9.8032 5.4624 9.8112 5.4656 9.8176 5.4704C9.84 5.4864 9.8736 5.512 9.9152 5.544C9.9488 5.5696 9.984 5.6016 10.0256 5.6352C10.1104 5.704 10.2128 5.792 10.3232 5.8928C10.352 5.9184 10.3808 5.944 10.408 5.9712C10.5504 6.104 10.7104 6.2592 10.864 6.432C10.9072 6.4816 10.9488 6.5296 10.992 6.5824C11.0336 6.6352 11.08 6.6864 11.1184 6.7376C11.1712 6.8064 11.2256 6.8784 11.2752 6.9536C11.2976 6.9888 11.3248 7.0256 11.3456 7.0608C11.4096 7.1552 11.464 7.2528 11.5168 7.3504C11.5392 7.3952 11.5616 7.4448 11.5808 7.4928C11.64 7.624 11.6864 7.7568 11.7152 7.8912C11.7248 7.92 11.7312 7.9504 11.7344 7.9792V7.9856C11.744 8.024 11.7472 8.0656 11.7504 8.1088C11.7632 8.2448 11.7568 8.3824 11.728 8.52C11.7152 8.5776 11.6992 8.632 11.68 8.6912C11.6592 8.7472 11.64 8.8048 11.6144 8.8608C11.5648 8.9744 11.5072 9.0896 11.4384 9.1952C11.416 9.2352 11.3888 9.2768 11.3632 9.3168C11.3344 9.3584 11.304 9.3984 11.2784 9.4368C11.2416 9.4864 11.2032 9.5376 11.1632 9.584C11.128 9.632 11.0928 9.68 11.0528 9.7232C10.9984 9.7888 10.9456 9.8496 10.8896 9.9088C10.8576 9.9472 10.8224 9.9872 10.7856 10.0224C10.7504 10.0624 10.7136 10.0976 10.6816 10.1296C10.6256 10.1856 10.5808 10.2272 10.5424 10.264L10.4512 10.3456C10.4384 10.3584 10.4208 10.3648 10.4032 10.3648H9.7024V11.2624H10.584C10.7808 11.2624 10.968 11.1936 11.12 11.064C11.1712 11.0192 11.3968 10.824 11.664 10.5296C11.6736 10.5184 11.6848 10.512 11.6976 10.5088L14.1312 9.8048C14.1776 9.792 14.2224 9.8256 14.2224 9.8736V10.3888Z" fill="white"/>
</svg>
