<svg width="57" height="18" viewBox="0 0 57 18" fill="none" xmlns="http://www.w3.org/2000/svg">
<path d="M0.411743 2.30943C0.411743 1.24431 1.34511 0.380859 2.49647 0.380859H53.9197C55.071 0.380859 56.0044 1.24431 56.0044 2.30943V15.488C56.0044 16.5531 55.071 17.4166 53.9197 17.4166H2.49647C1.34511 17.4166 0.411743 16.5531 0.411743 15.488V2.30943Z" fill="white"/>
<path fill-rule="evenodd" clip-rule="evenodd" d="M2.60591 0H54.0291C55.4683 0 56.635 1.07931 56.635 2.41071V15.5893C56.635 16.9207 55.4683 18 54.0291 18H2.60591C1.16671 18 0 16.9207 0 15.5893V2.41071C0 1.07931 1.1667 0 2.60591 0ZM2.60591 0.482143C1.45454 0.482143 0.521181 1.34559 0.521181 2.41071V15.5893C0.521181 16.6544 1.45455 17.5179 2.60591 17.5179H54.0291C55.1805 17.5179 56.1139 16.6544 56.1139 15.5893V2.41071C56.1139 1.34559 55.1805 0.482143 54.0291 0.482143H2.60591Z" fill="black"/>
<path d="M9.10718 12.595V5.2954H11.4733C11.8277 5.2954 12.1196 5.3404 12.3489 5.4304C12.5782 5.51397 12.7589 5.6554 12.891 5.85469C13.0299 6.04754 13.1237 6.30469 13.1724 6.62612C13.228 6.94112 13.2558 7.33326 13.2558 7.80254C13.2558 8.27826 13.228 8.68326 13.1724 9.01754C13.1237 9.3454 13.0299 9.61219 12.891 9.8179C12.7589 10.0236 12.5782 10.1715 12.3489 10.2615C12.1196 10.3515 11.8277 10.3965 11.4733 10.3965H10.7437V12.595H9.10718ZM11.1815 8.89219C11.3344 8.89219 11.4421 8.81505 11.5046 8.66076C11.5672 8.50005 11.5984 8.20112 11.5984 7.76397C11.5984 7.37826 11.5602 7.12433 11.4838 7.00219C11.4143 6.88004 11.2996 6.81897 11.1398 6.81897H10.7437V8.89219H11.1815Z" fill="#D232EA"/>
<path d="M17.5524 5.2954H19.1784V10.3483C19.1715 10.6504 19.1576 10.9011 19.1367 11.1004C19.1159 11.2997 19.0881 11.4668 19.0534 11.6018C19.0256 11.7368 18.9908 11.8493 18.9491 11.9393C18.9074 12.0229 18.8588 12.1065 18.8032 12.19C18.7337 12.2929 18.6503 12.3797 18.553 12.4504C18.4627 12.5147 18.348 12.5661 18.209 12.6047C18.0701 12.6497 17.9068 12.6786 17.7191 12.6915C17.5315 12.7108 17.3126 12.7204 17.0624 12.7204C16.5552 12.7204 16.1695 12.6818 15.9054 12.6047C15.6414 12.534 15.4433 12.3958 15.3113 12.19C15.2557 12.1065 15.2036 12.0229 15.1549 11.9393C15.1063 11.8493 15.0646 11.7368 15.0298 11.6018C14.9951 11.4668 14.9673 11.2997 14.9464 11.1004C14.9325 10.9011 14.9256 10.6504 14.9256 10.3483V5.2954H16.6038V10.3483C16.6038 10.5218 16.6073 10.6568 16.6142 10.7533C16.6281 10.8497 16.6524 10.9236 16.6872 10.975C16.7219 11.0265 16.7706 11.0586 16.8331 11.0715C16.8957 11.0843 16.9791 11.0908 17.0833 11.0908C17.1875 11.0908 17.2674 11.0843 17.323 11.0715C17.3856 11.0586 17.4342 11.0265 17.469 10.975C17.5037 10.9236 17.5246 10.8497 17.5315 10.7533C17.5454 10.6568 17.5524 10.5218 17.5524 10.3483V5.2954Z" fill="#D232EA"/>
<path d="M23.2636 7.56147C23.2706 7.51004 23.274 7.46826 23.274 7.43612C23.274 7.39754 23.274 7.33326 23.274 7.24326C23.274 7.01826 23.2428 6.86397 23.1802 6.7804C23.1246 6.6904 22.9961 6.6454 22.7945 6.6454C22.593 6.6454 22.4645 6.6904 22.4089 6.7804C22.3533 6.86397 22.3255 7.01826 22.3255 7.24326C22.3255 7.4554 22.3533 7.60647 22.4089 7.69647C22.4714 7.78004 22.5687 7.85719 22.7007 7.9279C22.8536 8.01147 22.9961 8.08219 23.1281 8.14004C23.2671 8.1979 23.3922 8.25254 23.5033 8.30397C23.6215 8.34897 23.7327 8.39397 23.8369 8.43897C23.9411 8.48397 24.0454 8.53862 24.1496 8.6029C24.2608 8.68004 24.3581 8.76362 24.4415 8.85362C24.5318 8.93719 24.6013 9.04969 24.6499 9.19112C24.7055 9.32612 24.7472 9.49647 24.775 9.70219C24.8028 9.90147 24.8167 10.1522 24.8167 10.4543C24.8167 10.8915 24.782 11.2547 24.7125 11.544C24.6499 11.8333 24.5388 12.0647 24.3789 12.2383C24.226 12.4118 24.0141 12.534 23.7431 12.6047C23.479 12.6818 23.1489 12.7204 22.7528 12.7204C22.0996 12.7204 21.6201 12.6079 21.3144 12.3829C21.0086 12.1515 20.8557 11.7497 20.8557 11.1775C20.8557 10.9911 20.8592 10.8047 20.8662 10.6183C20.8801 10.4254 20.9044 10.2711 20.9391 10.1554H22.3046C22.2907 10.194 22.2838 10.2358 22.2838 10.2808C22.2838 10.3258 22.2838 10.374 22.2838 10.4254C22.2838 10.7083 22.3151 10.9043 22.3776 11.0136C22.4401 11.1165 22.5756 11.1679 22.7841 11.1679C22.9926 11.1679 23.1281 11.1229 23.1906 11.0329C23.2601 10.9365 23.2949 10.734 23.2949 10.4254C23.2949 10.239 23.2636 10.0975 23.2011 10.0011C23.1385 9.90469 23.0378 9.81147 22.8988 9.72147C22.7737 9.64433 22.6382 9.57362 22.4923 9.50933C22.3533 9.44504 22.2108 9.38397 22.0649 9.32612C21.9259 9.26826 21.7904 9.20719 21.6584 9.1429C21.5263 9.07219 21.4082 8.99183 21.304 8.90183C21.0885 8.72826 20.9565 8.4904 20.9079 8.18826C20.8662 7.88612 20.8453 7.49397 20.8453 7.01183C20.8453 6.67112 20.8731 6.38504 20.9287 6.15362C20.9913 5.91576 21.0955 5.72612 21.2414 5.58469C21.3873 5.43683 21.5854 5.33076 21.8356 5.26647C22.0857 5.20219 22.4054 5.17004 22.7945 5.17004C23.1489 5.17004 23.4443 5.19576 23.6805 5.24719C23.9238 5.29862 24.1218 5.38862 24.2747 5.51719C24.4276 5.63933 24.5353 5.80326 24.5978 6.00897C24.6673 6.21469 24.7021 6.47183 24.7021 6.7804C24.7021 6.97969 24.6951 7.13719 24.6812 7.2529C24.6743 7.36862 24.6534 7.47147 24.6187 7.56147H23.2636Z" fill="#D232EA"/>
<path d="M29.2668 12.595V9.59612H28.2453V12.595H26.5671V5.2954H28.2453V8.12076H29.2668V5.2954H30.945V12.595H29.2668Z" fill="#D232EA"/>
<path d="M40.8226 12.595V8.21719H40.7601L39.5613 12.595H38.8421L37.633 8.21719H37.5704V12.595H36.0799V5.2954H38.3939L39.1236 8.4679H39.1965L40.0096 5.2954H42.3132L42.3236 12.595H40.8226Z" fill="#D232EA"/>
<path d="M44.2112 12.595V5.2954H47.7031V6.83826H45.8477V8.12076H47.6718V9.59612H45.8477V10.975H47.6927V12.595H44.2112Z" fill="#D232EA"/>
</svg>
