<svg width="261" height="61" viewBox="0 0 261 61" fill="none" xmlns="http://www.w3.org/2000/svg">
<path d="M7.92969 13.4531H21.5771C24.2952 13.4531 26.6471 13.86 28.6328 14.6738C30.6348 15.4876 32.1729 16.6921 33.2471 18.2871C34.3213 19.8822 34.8584 21.8516 34.8584 24.1953C34.8584 26.1484 34.541 27.8086 33.9062 29.1758C33.2715 30.543 32.3763 31.6742 31.2207 32.5693C30.0814 33.4645 28.7467 34.1888 27.2168 34.7422L24.6289 36.1582H13.0078L12.959 29.9814H21.6016C22.7897 29.9814 23.7744 29.7699 24.5557 29.3467C25.3369 28.9235 25.9229 28.3294 26.3135 27.5645C26.7204 26.7832 26.9238 25.8717 26.9238 24.8301C26.9238 23.7559 26.7204 22.8281 26.3135 22.0469C25.9066 21.2656 25.3044 20.6715 24.5068 20.2646C23.7256 19.8415 22.749 19.6299 21.5771 19.6299H15.8887V49H7.92969V13.4531ZM27.6074 49L19.624 33.2041L28.0225 33.1797L36.1279 48.6338V49H27.6074ZM69.8926 30.4453V32.0322C69.8926 34.734 69.5182 37.1592 68.7695 39.3076C68.0371 41.4561 66.9873 43.2871 65.6201 44.8008C64.2692 46.3145 62.6579 47.4782 60.7861 48.292C58.9307 49.0895 56.8717 49.4883 54.6094 49.4883C52.347 49.4883 50.2799 49.0895 48.4082 48.292C46.5365 47.4782 44.9089 46.3145 43.5254 44.8008C42.1582 43.2871 41.1003 41.4561 40.3516 39.3076C39.6029 37.1592 39.2285 34.734 39.2285 32.0322V30.4453C39.2285 27.7435 39.6029 25.3184 40.3516 23.1699C41.1003 21.0052 42.1501 19.166 43.501 17.6523C44.8682 16.1387 46.4876 14.9831 48.3594 14.1855C50.2311 13.3717 52.2982 12.9648 54.5605 12.9648C56.8229 12.9648 58.89 13.3717 60.7617 14.1855C62.6335 14.9831 64.2448 16.1387 65.5957 17.6523C66.9629 19.166 68.0208 21.0052 68.7695 23.1699C69.5182 25.3184 69.8926 27.7435 69.8926 30.4453ZM61.8604 32.0322V30.3965C61.8604 28.5898 61.6976 26.9948 61.3721 25.6113C61.0465 24.2116 60.5745 23.0397 59.9561 22.0957C59.3376 21.1517 58.5726 20.4437 57.6611 19.9717C56.7497 19.4834 55.7161 19.2393 54.5605 19.2393C53.3561 19.2393 52.3063 19.4834 51.4111 19.9717C50.516 20.4437 49.7591 21.1517 49.1406 22.0957C48.5384 23.0397 48.0745 24.2116 47.749 25.6113C47.4398 26.9948 47.2852 28.5898 47.2852 30.3965V32.0322C47.2852 33.8226 47.4398 35.4176 47.749 36.8174C48.0745 38.2008 48.5465 39.3727 49.165 40.333C49.7835 41.2933 50.5404 42.0176 51.4355 42.5059C52.347 42.9941 53.4049 43.2383 54.6094 43.2383C55.765 43.2383 56.7904 42.9941 57.6855 42.5059C58.597 42.0176 59.362 41.2933 59.9805 40.333C60.599 39.3727 61.0628 38.2008 61.3721 36.8174C61.6976 35.4176 61.8604 33.8226 61.8604 32.0322ZM89.0088 20.2158L79.8291 49H71.333L84.4922 13.4531H89.8633L89.0088 20.2158ZM96.626 49L87.4219 20.2158L86.4697 13.4531H91.9141L105.122 49H96.626ZM96.2354 35.7676V41.9199H77.7051V35.7676H96.2354ZM119.331 49H111.519L111.567 42.8477H119.331C121.105 42.8477 122.603 42.4408 123.823 41.627C125.044 40.7969 125.972 39.5762 126.606 37.9648C127.241 36.3372 127.559 34.3597 127.559 32.0322V30.3965C127.559 28.6387 127.38 27.0924 127.021 25.7578C126.663 24.4069 126.134 23.2757 125.435 22.3643C124.735 21.4528 123.864 20.7692 122.822 20.3135C121.797 19.8577 120.617 19.6299 119.282 19.6299H111.372V13.4531H119.282C121.691 13.4531 123.888 13.86 125.874 14.6738C127.876 15.4876 129.601 16.6514 131.05 18.165C132.515 19.6787 133.646 21.4691 134.443 23.5361C135.241 25.6032 135.64 27.9062 135.64 30.4453V32.0322C135.64 34.555 135.241 36.8581 134.443 38.9414C133.646 41.0085 132.515 42.7988 131.05 44.3125C129.601 45.8099 127.884 46.9655 125.898 47.7793C123.913 48.5931 121.724 49 119.331 49ZM116.035 13.4531V49H108.076V13.4531H116.035ZM144.307 13.4531H150.898L159.443 38.8682L167.964 13.4531H174.556L162.104 49H156.758L144.307 13.4531ZM140.498 13.4531H147.212L148.457 39.7959V49H140.498V13.4531ZM171.65 13.4531H178.389V49H170.405V39.7959L171.65 13.4531ZM199.507 20.2158L190.327 49H181.831L194.99 13.4531H200.361L199.507 20.2158ZM207.124 49L197.92 20.2158L196.968 13.4531H202.412L215.62 49H207.124ZM206.733 35.7676V41.9199H188.203V35.7676H206.733ZM232.588 36.6465H223.652V30.4697H232.588C233.906 30.4697 234.964 30.25 235.762 29.8105C236.576 29.3711 237.17 28.7689 237.544 28.0039C237.935 27.2227 238.13 26.3438 238.13 25.3672C238.13 24.3581 237.935 23.4222 237.544 22.5596C237.17 21.6807 236.576 20.9727 235.762 20.4355C234.964 19.8984 233.906 19.6299 232.588 19.6299H226.533V49H218.574V13.4531H232.588C235.42 13.4531 237.845 13.9658 239.863 14.9912C241.898 16.0166 243.452 17.4245 244.526 19.2148C245.617 20.9889 246.162 23.0234 246.162 25.3184C246.162 27.6133 245.617 29.6071 244.526 31.2998C243.452 32.9925 241.898 34.3109 239.863 35.2549C237.845 36.1826 235.42 36.6465 232.588 36.6465Z" fill="#4A1452"/>
<path d="M5.92969 11.4531H19.5771C22.2952 11.4531 24.6471 11.86 26.6328 12.6738C28.6348 13.4876 30.1729 14.6921 31.2471 16.2871C32.3213 17.8822 32.8584 19.8516 32.8584 22.1953C32.8584 24.1484 32.541 25.8086 31.9062 27.1758C31.2715 28.543 30.3763 29.6742 29.2207 30.5693C28.0814 31.4645 26.7467 32.1888 25.2168 32.7422L22.6289 34.1582H11.0078L10.959 27.9814H19.6016C20.7897 27.9814 21.7744 27.7699 22.5557 27.3467C23.3369 26.9235 23.9229 26.3294 24.3135 25.5645C24.7204 24.7832 24.9238 23.8717 24.9238 22.8301C24.9238 21.7559 24.7204 20.8281 24.3135 20.0469C23.9066 19.2656 23.3044 18.6715 22.5068 18.2646C21.7256 17.8415 20.749 17.6299 19.5771 17.6299H13.8887V47H5.92969V11.4531ZM25.6074 47L17.624 31.2041L26.0225 31.1797L34.1279 46.6338V47H25.6074ZM67.8926 28.4453V30.0322C67.8926 32.734 67.5182 35.1592 66.7695 37.3076C66.0371 39.4561 64.9873 41.2871 63.6201 42.8008C62.2692 44.3145 60.6579 45.4782 58.7861 46.292C56.9307 47.0895 54.8717 47.4883 52.6094 47.4883C50.347 47.4883 48.2799 47.0895 46.4082 46.292C44.5365 45.4782 42.9089 44.3145 41.5254 42.8008C40.1582 41.2871 39.1003 39.4561 38.3516 37.3076C37.6029 35.1592 37.2285 32.734 37.2285 30.0322V28.4453C37.2285 25.7435 37.6029 23.3184 38.3516 21.1699C39.1003 19.0052 40.1501 17.166 41.501 15.6523C42.8682 14.1387 44.4876 12.9831 46.3594 12.1855C48.2311 11.3717 50.2982 10.9648 52.5605 10.9648C54.8229 10.9648 56.89 11.3717 58.7617 12.1855C60.6335 12.9831 62.2448 14.1387 63.5957 15.6523C64.9629 17.166 66.0208 19.0052 66.7695 21.1699C67.5182 23.3184 67.8926 25.7435 67.8926 28.4453ZM59.8604 30.0322V28.3965C59.8604 26.5898 59.6976 24.9948 59.3721 23.6113C59.0465 22.2116 58.5745 21.0397 57.9561 20.0957C57.3376 19.1517 56.5726 18.4437 55.6611 17.9717C54.7497 17.4834 53.7161 17.2393 52.5605 17.2393C51.3561 17.2393 50.3063 17.4834 49.4111 17.9717C48.516 18.4437 47.7591 19.1517 47.1406 20.0957C46.5384 21.0397 46.0745 22.2116 45.749 23.6113C45.4398 24.9948 45.2852 26.5898 45.2852 28.3965V30.0322C45.2852 31.8226 45.4398 33.4176 45.749 34.8174C46.0745 36.2008 46.5465 37.3727 47.165 38.333C47.7835 39.2933 48.5404 40.0176 49.4355 40.5059C50.347 40.9941 51.4049 41.2383 52.6094 41.2383C53.765 41.2383 54.7904 40.9941 55.6855 40.5059C56.597 40.0176 57.362 39.2933 57.9805 38.333C58.599 37.3727 59.0628 36.2008 59.3721 34.8174C59.6976 33.4176 59.8604 31.8226 59.8604 30.0322ZM87.0088 18.2158L77.8291 47H69.333L82.4922 11.4531H87.8633L87.0088 18.2158ZM94.626 47L85.4219 18.2158L84.4697 11.4531H89.9141L103.122 47H94.626ZM94.2354 33.7676V39.9199H75.7051V33.7676H94.2354ZM117.331 47H109.519L109.567 40.8477H117.331C119.105 40.8477 120.603 40.4408 121.823 39.627C123.044 38.7969 123.972 37.5762 124.606 35.9648C125.241 34.3372 125.559 32.3597 125.559 30.0322V28.3965C125.559 26.6387 125.38 25.0924 125.021 23.7578C124.663 22.4069 124.134 21.2757 123.435 20.3643C122.735 19.4528 121.864 18.7692 120.822 18.3135C119.797 17.8577 118.617 17.6299 117.282 17.6299H109.372V11.4531H117.282C119.691 11.4531 121.888 11.86 123.874 12.6738C125.876 13.4876 127.601 14.6514 129.05 16.165C130.515 17.6787 131.646 19.4691 132.443 21.5361C133.241 23.6032 133.64 25.9062 133.64 28.4453V30.0322C133.64 32.555 133.241 34.8581 132.443 36.9414C131.646 39.0085 130.515 40.7988 129.05 42.3125C127.601 43.8099 125.884 44.9655 123.898 45.7793C121.913 46.5931 119.724 47 117.331 47ZM114.035 11.4531V47H106.076V11.4531H114.035ZM142.307 11.4531H148.898L157.443 36.8682L165.964 11.4531H172.556L160.104 47H154.758L142.307 11.4531ZM138.498 11.4531H145.212L146.457 37.7959V47H138.498V11.4531ZM169.65 11.4531H176.389V47H168.405V37.7959L169.65 11.4531ZM197.507 18.2158L188.327 47H179.831L192.99 11.4531H198.361L197.507 18.2158ZM205.124 47L195.92 18.2158L194.968 11.4531H200.412L213.62 47H205.124ZM204.733 33.7676V39.9199H186.203V33.7676H204.733ZM230.588 34.6465H221.652V28.4697H230.588C231.906 28.4697 232.964 28.25 233.762 27.8105C234.576 27.3711 235.17 26.7689 235.544 26.0039C235.935 25.2227 236.13 24.3438 236.13 23.3672C236.13 22.3581 235.935 21.4222 235.544 20.5596C235.17 19.6807 234.576 18.9727 233.762 18.4355C232.964 17.8984 231.906 17.6299 230.588 17.6299H224.533V47H216.574V11.4531H230.588C233.42 11.4531 235.845 11.9658 237.863 12.9912C239.898 14.0166 241.452 15.4245 242.526 17.2148C243.617 18.9889 244.162 21.0234 244.162 23.3184C244.162 25.6133 243.617 27.6071 242.526 29.2998C241.452 30.9925 239.898 32.3109 237.863 33.2549C235.845 34.1826 233.42 34.6465 230.588 34.6465Z" fill="#D232EA"/>
<path d="M235.563 10.6575C237.563 10.6575 239.569 10.6575 241.563 10.555C241.551 10.5699 241.545 10.5868 241.545 10.604C241.545 10.6212 241.551 10.6381 241.563 10.653C242.341 11.5439 241.715 12.9425 241.563 13.918C241.386 14.9781 241.429 16.0337 242.523 16.8488C244.249 18.145 245.751 14.3767 246.012 13.7309C246.79 11.82 247.44 9.44594 246.62 7.495C245.599 5.09418 241.204 5.86921 238.675 5.78904C237.642 5.75786 236.615 5.63314 235.582 5.60641C234.31 5.57964 233.038 5.60195 231.77 5.67323C229.339 5.79349 226.908 6.04292 224.44 6.22555C219.504 6.59079 214.49 6.26118 209.536 6.35917C208.35 6.3859 207.171 6.45717 205.992 6.4928C204.765 6.49758 203.541 6.39894 202.345 6.19882C201.336 6.05183 200.339 5.88703 199.306 5.7534C198.097 5.63872 196.876 5.60741 195.659 5.65987C193.422 5.65987 191.209 5.83357 189.003 5.47278C187.113 5.16544 185.289 4.67548 183.386 4.40823C182.006 4.18484 180.577 4.17728 179.192 4.38605C177.808 4.59481 176.499 5.0152 175.351 5.61977C175.325 5.62687 175.301 5.63583 175.278 5.6465C173.783 6.45717 171.831 6.53735 170.038 6.53735C168.352 6.52583 166.668 6.62421 165.005 6.83132C164.311 6.98558 163.582 7.03707 162.86 6.98277C161.982 6.79607 161.159 6.49423 160.428 6.09192C159.024 5.45497 157.547 5.37034 155.924 5.41488C153.809 5.47279 151.785 6.00729 149.785 6.46162C147.703 6.93769 145.554 7.23661 143.378 7.35246C141.259 7.446 139.133 7.43707 137.014 7.32573C135.884 7.27228 134.741 7.17875 133.611 7.10302C132.988 7.05209 132.376 6.94744 131.787 6.79123C131.345 6.64953 130.865 6.58255 130.383 6.59525C130.089 6.64018 129.809 6.72804 129.562 6.85359C129.166 7.00845 128.711 7.06472 128.268 7.01394C127.901 6.98045 127.548 6.88953 127.233 6.74735C126.919 6.60517 126.65 6.41506 126.444 6.18991C125.405 5.29907 124.225 4.55967 122.578 4.40823C118.767 4.04744 114.865 4.85366 111.37 5.88258C110.273 6.23499 109.115 6.4748 107.929 6.59525C106.833 6.66651 105.731 6.66651 104.635 6.59525C102.447 6.475 100.251 6.43932 98.058 6.48835C97.0186 6.51507 95.9853 6.53289 94.9459 6.48835C93.8533 6.42439 92.782 6.23187 91.773 5.9182C90.4875 5.48956 89.0883 5.27508 87.6761 5.29017C85.8526 5.3748 84.0291 5.50397 82.163 5.62423C80.6556 5.72222 79.1239 5.89593 77.6164 5.94048C77.6164 5.90039 77.5617 5.87366 77.4705 5.87812C75.5376 5.87812 73.5317 6.20773 71.9027 5.24562C71.3273 4.86991 70.7022 4.53717 70.0367 4.25234C69.2614 4.03894 68.4288 3.96114 67.6053 4.02517C66.8529 4.01668 66.1061 4.12128 65.411 4.33251C64.8493 4.57344 64.3807 4.9153 64.0494 5.3258C62.8338 6.55071 60.4754 5.4906 59.1138 4.98283C58.3615 4.68343 57.5582 4.45874 56.725 4.3147C55.778 4.20471 54.8114 4.22435 53.8742 4.3726C51.7286 4.62204 49.7409 5.33025 47.6074 5.61532C46.5255 5.75786 45.4739 6.06074 44.3555 5.92266C43.3951 5.79349 42.69 5.26789 41.9241 4.83584C41.3809 4.5083 40.7273 4.29408 40.0321 4.2157C39.3368 4.13731 38.6256 4.19767 37.9732 4.39042C37.2134 4.61313 36.5143 4.93828 35.7789 5.20554C34.8239 5.54942 33.7315 5.62853 32.7032 5.42825C31.5361 5.27235 30.3752 5.09864 29.202 4.98283C27.831 4.85726 26.4504 4.79626 25.0687 4.8002C20.3778 4.66403 15.7118 5.36407 11.4714 6.84023C11.4375 6.85081 11.4066 6.86592 11.3802 6.88477C5.65705 9.8482 1.75864 14.3453 0.530292 19.4011C0.271971 20.4893 0.113578 21.589 0.0561787 22.6927C-0.0907041 24.0059 0.050898 25.3277 0.475587 26.608C0.882839 27.6948 2.63949 30.0333 4.65752 29.3072C5.67261 28.942 6.20143 28.02 6.57221 27.2939C7.06827 26.2565 7.45836 25.1935 7.73926 24.1136C7.97021 23.1737 8.3098 22.2498 8.75435 21.352C9.85454 19.3432 11.1857 17.4813 13.5198 16.1183C15.2157 15.3299 16.9116 14.5415 18.5345 13.6685C19.9073 12.8531 21.2181 11.9832 22.4611 11.0628C24.0293 10.0116 26.4607 9.79782 28.4909 9.72655C30.5211 9.65528 32.6789 9.83345 34.7638 9.92699C38.8545 10.1096 42.9514 9.59292 47.03 9.92699C51.3942 10.3011 55.3087 12.4213 58.6762 14.3456C60.0134 15.1117 61.2534 16.0114 62.6575 16.7107C63.4165 17.0863 64.3017 17.302 65.2165 17.3343C67.2284 17.419 69.1857 16.6395 70.8329 15.8867C72.8874 14.9424 74.7535 13.7977 76.7168 12.7688C78.3033 11.9314 80.1876 10.947 82.2238 10.9025C82.2957 10.8933 82.3628 10.8703 82.4183 10.8356C87.6336 10.9025 92.8549 10.9025 98.0702 10.9069H111.813C112.45 10.9452 113.09 10.9182 113.716 10.8267C113.745 10.8198 113.771 10.8093 113.795 10.7956C114.324 11.0138 115.12 10.9648 115.704 11.0717C116.366 11.1974 116.986 11.4201 117.527 11.7265C118.363 12.255 118.977 12.9472 119.296 13.722C119.904 15.0048 120.11 16.5504 121.843 17.321C123.182 17.8777 124.649 18.2506 126.171 18.4212C127.605 18.6038 128.675 18.5236 129.818 17.8332C131.031 17.0313 132.042 16.0782 132.802 15.0181C133.163 14.6 133.492 14.1673 133.787 13.722C134.079 13.2276 134.285 12.7064 134.522 12.1942C134.899 11.4058 135.373 10.6486 136.461 10.2789C138.777 10.3323 141.093 10.2789 143.409 10.2789C145.435 10.2611 147.461 10.2477 149.487 10.2388C152.016 10.2388 154.587 10.319 157.11 10.1497C157.137 10.1554 157.167 10.1554 157.195 10.1497C159.96 10.2031 161.103 11.9982 161.638 13.7442C162.246 15.7843 162.246 17.9045 162.513 19.9801C162.861 22.0922 163.503 24.1727 164.428 26.1893C165.309 28.2115 166.531 30.5678 168.956 31.8728C170.78 32.8617 172.853 32.9552 174.427 31.668C176.001 30.3807 176.67 28.599 177.393 27.0178C177.738 26.1462 178.221 25.3075 178.834 24.519C179.897 23.2718 181.472 22.2919 182.219 20.8932C182.967 19.4946 182.675 18.0604 182.645 16.6395C182.578 16.0258 182.699 15.409 182.997 14.8335C183.296 14.2581 183.765 13.7385 184.371 13.3122C186.274 11.9759 189.033 11.4192 191.337 10.5862C193.689 10.7377 196.096 10.6619 198.461 10.6664H206.047H221.158L235.563 10.6575Z" fill="url(#paint0_radial_217_3883)"/>
<path d="M11.4715 7.16098C13.7845 6.35837 16.2398 5.79761 18.7655 5.49511C21.3194 5.26137 23.8961 5.18984 26.4669 5.28131C27.8784 5.31958 29.2832 5.44324 30.667 5.651C31.3174 5.74009 31.9678 5.83808 32.6182 5.92271C33.1416 6.01299 33.6823 6.03709 34.2168 5.99398C35.9856 5.79354 37.3472 4.60872 39.1707 4.62209C40.1857 4.67585 41.1419 4.99148 41.8695 5.51293C42.6564 6.08258 43.7175 6.40256 44.8236 6.40377C45.4569 6.36101 46.0835 6.27603 46.6957 6.14987C47.3036 6.03852 47.9114 5.95389 48.5192 5.82917C49.7775 5.57083 51.0114 5.24567 52.2757 5.00515C53.5197 4.71645 54.8301 4.61346 56.1294 4.70226C57.2002 4.87993 58.2259 5.18059 59.1686 5.5931C60.0405 5.96611 61.0058 6.20694 62.0072 6.30131C62.4597 6.3292 62.9142 6.26792 63.3235 6.12382C63.7328 5.97972 64.0821 5.75804 64.3352 5.48174C64.5399 5.23941 64.7895 5.01906 65.0768 4.82697C65.4931 4.62521 65.9762 4.50978 66.4748 4.49291C67.0474 4.44026 67.6257 4.42982 68.2011 4.46173C68.706 4.46795 69.2041 4.54822 69.666 4.69781C70.5595 5.03187 71.1916 5.61983 72.0608 5.98062C73.1348 6.33407 74.3217 6.46205 75.4891 6.35031C76.03 6.35031 76.5771 6.30131 77.1241 6.30131C77.3794 6.30131 77.732 5.87817 77.3977 5.87817C76.2143 5.93977 75.0269 5.95018 73.8418 5.90935C73.2759 5.85004 72.7357 5.69777 72.2614 5.46393C71.8603 5.26794 71.5138 5.01851 71.143 4.7958C70.7546 4.54273 70.3107 4.33944 69.8301 4.19448C69.361 4.08698 68.8745 4.02557 68.3834 4.01185C67.8237 3.98739 67.2621 4.00081 66.7058 4.05195C66.2058 4.08145 65.7175 4.17808 65.2652 4.33702C64.8698 4.50301 64.5278 4.72935 64.2623 5.00069C64.0592 5.23356 63.8206 5.44875 63.5511 5.64209C62.767 6.08751 61.5027 5.80245 60.6882 5.55301C59.6974 5.25458 58.7856 4.83143 57.7888 4.54636C56.6955 4.24542 55.5146 4.15644 54.3606 4.28802C53.042 4.43569 51.7441 4.66973 50.4826 4.98733C49.8747 5.12986 49.2669 5.27685 48.659 5.40157C48.0512 5.52629 47.4069 5.61092 46.7808 5.72227C46.1482 5.85807 45.4946 5.9344 44.8357 5.94944C44.2397 5.93105 43.6619 5.794 43.1642 5.55301C42.743 5.33359 42.3373 5.0987 41.9485 4.84925C41.5568 4.62227 41.1175 4.44327 40.6477 4.3192C39.7641 4.08841 38.7945 4.10908 37.9307 4.3771C37.098 4.61763 36.3503 4.99178 35.5358 5.26794C35.1257 5.4114 34.6863 5.50468 34.235 5.5441C33.6343 5.55443 33.0346 5.50194 32.4541 5.38821C31.129 5.20559 29.8039 5.00515 28.4666 4.89379C27.0927 4.80028 25.713 4.76013 24.3333 4.77353C23.0571 4.76533 21.781 4.80398 20.51 4.88933C18.0316 5.07459 15.602 5.51857 13.295 6.20778C12.6871 6.39486 12.0793 6.59975 11.4715 6.84028C11.2283 6.92936 11.0946 7.31242 11.4715 7.18325V7.16098Z" fill="black"/>
<path d="M77.2274 6.23893C79.1299 6.23893 81.0446 6.08749 82.935 5.97614C84.0838 5.90932 85.2326 5.83806 86.3814 5.7757C87.332 5.69172 88.2941 5.70822 89.2383 5.82469C90.0418 5.9742 90.8283 6.16929 91.5906 6.40819C92.4262 6.66123 93.3059 6.82764 94.2043 6.90261C96.2466 7.05851 98.3072 6.90261 100.35 6.87589C102.392 6.84916 104.41 7.12087 106.428 7.09415C107.379 7.08491 108.325 6.99674 109.248 6.83134C110.23 6.61452 111.192 6.3527 112.129 6.0474C113.915 5.51051 115.786 5.14086 117.697 4.94722C118.686 4.86644 119.681 4.83222 120.676 4.84477C121.481 4.81079 122.29 4.86941 123.071 5.01849C123.891 5.23849 124.628 5.60065 125.216 6.07413C125.625 6.45693 126.074 6.81584 126.56 7.14759C127.142 7.42506 127.828 7.56353 128.523 7.54402C128.841 7.5431 129.153 7.47674 129.422 7.35248C129.604 7.24683 129.816 7.17206 130.042 7.13355C130.268 7.09503 130.503 7.09374 130.729 7.12977C131.234 7.22331 131.714 7.38367 132.219 7.48166C132.743 7.564 133.275 7.61318 133.811 7.62865C134.936 7.69546 136.054 7.79345 137.179 7.84245C139.229 7.94266 141.286 7.94266 143.336 7.84245C145.272 7.73641 147.188 7.47958 149.05 7.07632C151.025 6.6309 152.982 6.09195 155.049 5.94496C156.658 5.75029 158.31 5.93593 159.766 6.475C160.488 6.83636 161.255 7.14658 162.057 7.40148C162.624 7.5362 163.228 7.56529 163.814 7.48611C164.629 7.38812 165.419 7.22332 166.245 7.14759C167.076 7.08819 167.909 7.05994 168.744 7.06296C170.38 7.11477 172.019 6.99021 173.606 6.69326C174.301 6.53061 174.944 6.26702 175.497 5.91823C175.74 5.76233 175.588 5.49954 175.284 5.66879C173.947 6.40374 172.202 6.52846 170.585 6.55964C168.993 6.53495 167.4 6.59748 165.82 6.74671C165.065 6.88751 164.297 6.98873 163.522 7.0496C162.772 7.04055 162.041 6.87188 161.419 6.56409C160.751 6.2275 160.048 5.92965 159.316 5.67325C158.673 5.50727 157.998 5.41998 157.316 5.41491C153.268 5.29465 149.639 6.71554 145.706 7.16987C143.706 7.38063 141.684 7.4626 139.665 7.41484C137.525 7.38366 135.367 7.25894 133.246 7.08078C132.31 7.0006 131.325 6.50174 130.377 6.59973C130.047 6.65448 129.735 6.75585 129.459 6.89816C129.045 7.0507 128.571 7.09018 128.122 7.00951C127.48 6.93763 126.904 6.6831 126.517 6.30129C126.032 5.84199 125.47 5.42899 124.845 5.07193C123.441 4.35481 121.922 4.3459 120.262 4.37708C118.426 4.39939 116.602 4.59552 114.834 4.96058C113.965 5.1432 113.108 5.37037 112.263 5.61089C111.277 5.93158 110.261 6.20243 109.224 6.42156C107.249 6.76453 105.224 6.6309 103.225 6.51955C101.188 6.44383 99.1468 6.44383 97.1098 6.51955C96.1217 6.54854 95.1321 6.52174 94.1496 6.43938C93.2176 6.32134 92.3091 6.11937 91.4447 5.83806C90.2414 5.45599 88.9384 5.27201 87.6275 5.2991C86.7279 5.33918 85.804 5.39709 84.9287 5.455C82.6493 5.59308 80.376 5.76234 78.0966 5.90042C77.8595 5.90042 77.6225 5.93605 77.3854 5.9405C77.1484 5.94496 76.966 6.21666 77.2031 6.22112L77.2274 6.23893Z" fill="black"/>
<path d="M11.4049 6.84028C9.28827 7.90529 7.40302 9.1982 5.81276 10.6753C4.40316 12.003 3.24014 13.4619 2.35416 15.0137C1.55149 16.3955 0.954389 17.8366 0.573195 19.312C0.198922 20.8062 0.0177949 22.3229 0.0322188 23.842C0.015289 24.7175 0.145949 25.5912 0.421235 26.4432C0.686382 27.1912 1.17187 27.8875 1.84358 28.4832C2.5122 29.0935 3.582 29.7572 4.69434 29.3117C5.80669 28.8663 6.26864 27.9755 6.65158 27.1782C7.10708 26.1904 7.47259 25.1815 7.74569 24.1582C7.87334 23.7128 8.00098 23.2674 8.13471 22.822C8.21907 22.4958 8.34108 22.1754 8.49941 21.8643C9.41725 20.1673 10.3776 18.4212 12.1464 17.076C12.586 16.7374 13.0594 16.4233 13.5627 16.1362C13.6964 16.0605 13.6782 15.9001 13.4898 15.9892C11.3988 17.0092 10.0676 18.6261 9.05862 20.2742C8.80333 20.6884 8.5602 21.1115 8.32922 21.5347C8.18778 21.7671 8.06399 22.005 7.95844 22.2474C7.82471 22.5859 7.72138 22.9333 7.61805 23.2807C7.32021 24.2562 7.04668 25.2361 6.66374 26.1982C6.4783 26.6765 6.25505 27.1465 5.99512 27.6058C5.87355 27.8062 5.7459 28.0067 5.59394 28.2026L5.53924 28.2694C5.53924 28.3051 5.53924 28.2694 5.53924 28.2962L5.42983 28.4209C5.35689 28.5011 5.27787 28.5768 5.19885 28.6481C5.11983 28.7193 5.19885 28.6481 5.19885 28.6481C5.18189 28.6664 5.16142 28.6829 5.13807 28.6971C5.10069 28.7304 5.06006 28.7616 5.0165 28.7906L4.96179 28.8262C4.92532 28.853 5.0165 28.795 4.96179 28.8262L4.9314 28.8485L4.79767 28.9153C4.7612 28.9153 4.74297 28.942 4.79767 28.9153L4.73081 28.942L4.59101 28.991C4.54846 28.991 4.65179 28.991 4.59101 28.991H4.53023H4.45728H4.36003C4.26112 29 4.1611 29 4.06219 28.991C4.06219 28.991 3.98925 28.991 4.06219 28.991H3.98317L3.81905 28.9554C3.5962 28.8878 3.39065 28.7929 3.21122 28.6748C2.56693 28.2737 2.03444 27.7852 1.64299 27.2361C1.16014 26.4999 0.871418 25.7035 0.792017 24.8887C0.693739 24.0353 0.68358 23.1776 0.761626 22.3231C0.810253 21.606 0.871035 20.8888 1.00476 20.1762C1.26909 18.7786 1.72526 17.4042 2.36632 16.0738C3.08823 14.5875 4.05799 13.1722 5.25355 11.8602C6.58596 10.3974 8.20615 9.0871 10.0616 7.97164C10.56 7.67766 11.0706 7.3926 11.5933 7.12534C11.6966 7.07635 11.8304 6.95608 11.7757 6.85809C11.721 6.7601 11.5447 6.80909 11.4596 6.85809L11.4049 6.84028Z" fill="black"/>
<path d="M13.532 16.1139C15.9634 14.9959 18.4312 13.8868 20.5343 12.4837C21.4522 11.8691 22.212 11.0851 23.3 10.6174C24.5766 10.1222 25.9849 9.8365 27.4272 9.78005C30.4117 9.58407 33.3962 9.93595 36.3746 9.98494C39.353 10.0339 42.2646 9.74887 45.2187 9.83795C46.7024 9.85924 48.175 10.0301 49.5951 10.3457C51.0706 10.7379 52.4832 11.2472 53.8074 11.8646C56.5543 13.1174 59.1582 14.531 61.5939 16.0917C62.2886 16.5838 63.117 16.9633 64.0252 17.2052C64.8161 17.3696 65.648 17.3986 66.4566 17.2898C68.2801 17.0716 69.9638 16.3411 71.4773 15.5972C73.2218 14.742 74.8508 13.771 76.5528 12.8713C77.963 12.123 79.4826 11.339 81.1967 11.0183C81.5343 10.9535 81.8811 10.9176 82.23 10.9114C82.4914 10.9114 82.8378 10.4883 82.5096 10.4883C80.8259 10.4883 79.2941 11.1208 77.9143 11.7711C76.1698 12.5907 74.553 13.5528 72.8814 14.4436C70.2191 15.8734 66.2803 17.9491 63.0162 16.2476C62.457 15.958 61.9464 15.6106 61.4176 15.2899C60.8097 14.9068 60.1472 14.5282 59.4968 14.1541C58.2203 13.4236 56.9135 12.7198 55.5519 12.074C54.2375 11.4433 52.8622 10.8835 51.4369 10.3992C50.1128 9.95229 48.6983 9.66645 47.2489 9.55288C44.2097 9.30345 41.1705 9.55289 38.1313 9.60634C35.0921 9.65979 32.2474 9.34353 29.2933 9.37026C27.8549 9.35919 26.4219 9.5002 25.0384 9.78896C23.8069 10.0475 22.691 10.5409 21.8047 11.2188C21.3549 11.5617 20.9355 11.9225 20.4736 12.2566C19.9607 12.6123 19.4231 12.9483 18.8628 13.2632C17.6471 13.9403 16.4314 14.555 15.155 15.1518L13.4287 15.9625C13.2889 16.0293 13.3193 16.1807 13.4956 16.1006L13.532 16.1139Z" fill="black"/>
<path d="M82.2906 10.8491C83.3117 10.8491 84.3329 10.8892 85.3602 10.9026C86.3874 10.9159 87.4147 10.9026 88.448 10.9026H94.5264H106.768H113.26C113.422 10.8915 113.582 10.8645 113.734 10.8224C113.843 10.8001 114.147 10.5863 113.929 10.524C113.833 10.4921 113.733 10.4668 113.631 10.4482C113.509 10.4482 113.375 10.4482 113.254 10.4482H101.705H89.4509H85.9802C84.807 10.4482 83.6339 10.4928 82.4608 10.5061C82.2906 10.5061 82.0231 10.7912 82.2723 10.7957L82.2906 10.8491Z" fill="black"/>
<path d="M113.698 10.7689L113.862 10.8535C113.93 10.8911 114.014 10.91 114.099 10.907L114.658 10.9426C114.975 10.9719 115.29 11.0151 115.6 11.0718C116.125 11.1637 116.627 11.3139 117.089 11.5172C117.851 11.8644 118.464 12.3614 118.858 12.9515C119.237 13.5332 119.538 14.1403 119.758 14.7643C119.949 15.3323 120.228 15.8823 120.59 16.4035C120.762 16.6347 120.983 16.8439 121.247 17.0226C121.629 17.2627 122.062 17.4553 122.529 17.5928C123.748 17.9913 125.034 18.2699 126.353 18.4212C126.879 18.4967 127.417 18.5192 127.951 18.4881C128.606 18.4062 129.217 18.1917 129.714 17.8689C130.861 17.1398 131.824 16.2683 132.559 15.2944C132.735 15.0761 132.911 14.849 133.082 14.6352C133.252 14.4214 133.385 14.2833 133.525 14.0962C133.805 13.6997 134.035 13.2852 134.212 12.8579C134.413 12.4125 134.595 11.9671 134.85 11.5662C135.054 11.1851 135.369 10.8414 135.774 10.5596C135.983 10.4329 136.217 10.3293 136.467 10.2522C136.529 10.2334 136.582 10.2036 136.624 10.1654C136.665 10.1273 136.693 10.082 136.704 10.034C136.711 10.0165 136.71 9.99796 136.702 9.98074C136.694 9.96352 136.68 9.94832 136.661 9.937C136.641 9.92567 136.618 9.91871 136.593 9.91695C136.569 9.91519 136.544 9.9187 136.522 9.92707C135.306 10.2121 134.613 11.0985 134.176 11.9315C133.846 12.771 133.394 13.582 132.826 14.3501C132.644 14.5505 132.498 14.7955 132.334 14.9826C132.17 15.1697 131.975 15.428 131.787 15.6329C131.389 16.1052 130.937 16.5522 130.437 16.9692C130.008 17.3452 129.486 17.6594 128.9 17.8956C128.673 17.9846 128.425 18.0419 128.17 18.0649C127.927 18.0805 127.683 18.0805 127.441 18.0649C126.14 17.9608 124.865 17.7239 123.654 17.3611C122.754 17.1707 121.951 16.7876 121.35 16.261C120.96 15.7877 120.669 15.2742 120.487 14.7376C120.264 14.1236 119.985 13.521 119.654 12.9337C119.303 12.3188 118.752 11.776 118.05 11.3524C117.118 10.8605 116.011 10.5788 114.865 10.5418H114.372C114.16 10.551 113.953 10.5936 113.764 10.6665C113.722 10.6665 113.606 10.7689 113.673 10.8046L113.698 10.7689Z" fill="black"/>
<path d="M136.388 10.2477C136.68 10.2477 136.996 10.2477 137.264 10.2789C137.531 10.3101 138.017 10.2789 138.388 10.2789L141.427 10.2522C144.43 10.2254 147.427 10.1987 150.43 10.1853H153.633H155.341C155.985 10.1853 156.611 10.1542 157.25 10.1096C157.308 10.1044 157.365 10.0881 157.413 10.0623C157.46 10.0366 157.498 10.0023 157.523 9.96264C157.566 9.90028 157.56 9.82456 157.444 9.81565C156.915 9.77194 156.384 9.74815 155.851 9.74438H154.314H151.402L146.26 9.78447C143.828 9.8112 141.397 9.83347 138.966 9.88246C138.528 9.88246 138.078 9.88247 137.641 9.90474C137.318 9.90474 136.936 9.94928 136.583 9.95373C136.419 9.95373 136.151 10.2343 136.395 10.2388L136.388 10.2477Z" fill="black"/>
<path d="M157.238 10.1319C158.204 10.1238 159.138 10.3886 159.845 10.8713C160.526 11.3879 161.027 12.0175 161.304 12.7065C161.655 13.5139 161.895 14.3451 162.021 15.1875C162.179 16.0783 162.265 17.0181 162.35 17.9357C162.423 18.7731 162.489 19.6105 162.635 20.4434C162.781 21.2764 163.036 22.0915 163.286 22.9066C163.848 24.9557 164.729 26.9509 165.912 28.853C166.449 29.7129 167.16 30.5087 168.021 31.2137C168.786 31.8356 169.764 32.2969 170.853 32.55C171.289 32.642 171.746 32.6662 172.195 32.6209C172.644 32.5757 173.075 32.462 173.461 32.2872C174.252 31.8917 174.902 31.3633 175.357 30.746C176.439 29.4097 177.023 27.8909 177.71 26.4299C178.02 25.7085 178.453 25.0187 178.998 24.3765C179.971 23.3075 181.302 22.4166 182.038 21.2585C182.773 20.1005 182.773 18.7196 182.706 17.4101C182.637 16.8173 182.637 16.2213 182.706 15.6284C182.793 15.1662 183 14.7203 183.314 14.3144C183.95 13.5666 184.84 12.9527 185.897 12.5328C187.074 12.0405 188.292 11.6031 189.544 11.2232C190.152 11.0228 190.76 10.8223 191.368 10.6041C191.436 10.5827 191.495 10.5483 191.539 10.5044C191.583 10.4605 191.61 10.4088 191.617 10.3547C191.617 10.2567 191.465 10.2478 191.368 10.2834C190.122 10.7288 188.839 11.1297 187.587 11.5707C186.379 11.9658 185.253 12.4847 184.244 13.1118C183.301 13.7149 182.641 14.5208 182.36 15.4146C182.231 15.9586 182.19 16.5117 182.238 17.0627C182.238 17.7219 182.329 18.3989 182.311 19.0404C182.301 19.6748 182.149 20.3038 181.861 20.9022C181.518 21.529 181.042 22.1122 180.451 22.6304C179.416 23.4804 178.53 24.4215 177.813 25.4321C177.005 26.7684 176.506 28.216 175.698 29.5612C175.327 30.2326 174.825 30.8612 174.209 31.4275L174.13 31.4943L174.014 31.5834L173.771 31.7571L173.728 31.7838C173.655 31.8328 173.783 31.7526 173.728 31.7838L173.613 31.8506C173.528 31.8996 173.437 31.9397 173.345 31.9843C173.254 32.0288 173.388 31.9843 173.345 31.9843L173.285 32.011L173.163 32.06L173.035 32.1001C173.035 32.1001 172.877 32.1446 172.926 32.1357C172.747 32.1813 172.561 32.2127 172.373 32.2292C171.36 32.245 170.373 31.9954 169.589 31.5255C168.631 31.004 167.834 30.3409 167.249 29.579C165.869 27.7666 164.859 25.8157 164.252 23.7885C163.942 22.8977 163.675 22.0069 163.432 21.0804C163.242 20.3101 163.117 19.5322 163.055 18.7508C162.976 16.9566 162.708 15.1696 162.252 13.4058C161.815 12.0205 160.958 10.4571 158.946 9.97159C158.47 9.86202 157.973 9.80937 157.475 9.81569C157.405 9.82102 157.338 9.83994 157.281 9.87047C157.225 9.90101 157.18 9.94207 157.153 9.98941C157.11 10.0562 157.11 10.1631 157.244 10.1631L157.238 10.1319Z" fill="black"/>
<path d="M191.294 10.5506C192.248 10.6129 193.209 10.6129 194.163 10.6218C195.117 10.6307 196.102 10.6218 197.075 10.6218H202.898H226.135C229.849 10.6218 233.569 10.6218 237.283 10.6218C238.736 10.6218 240.195 10.5951 241.647 10.5194H241.799C241.856 10.5148 241.911 10.4992 241.956 10.4741C242.002 10.4491 242.038 10.4155 242.061 10.3768C242.091 10.3279 242.097 10.2299 241.982 10.2343H241.836C241.672 10.2343 241.435 10.5016 241.66 10.5016H241.799C241.97 10.5016 242.225 10.2299 241.982 10.2165C240.644 10.1408 239.307 10.1185 237.964 10.1051C234.609 10.0784 231.278 10.1051 227.898 10.1051H216.288H204.66C200.77 10.1051 196.874 10.1051 192.984 10.1363C192.485 10.1363 191.987 10.163 191.489 10.1942C191.331 10.1942 191.027 10.4704 191.294 10.4882V10.5506Z" fill="black"/>
<path d="M241.581 10.6798C241.853 11.0521 241.959 11.4772 241.885 11.8958C241.843 12.3945 241.763 12.8911 241.648 13.3835C241.541 13.855 241.476 14.3311 241.454 14.8089C241.432 15.2839 241.579 15.755 241.879 16.1763C242.262 16.7286 242.931 17.3611 243.83 16.9201C244.73 16.4792 245.088 15.6685 245.429 15.0048C246.267 13.3872 246.766 11.6856 246.906 9.95822C247.037 9.05628 246.898 8.14424 246.499 7.2857C246.253 6.89723 245.878 6.56003 245.409 6.30484C244.94 6.04966 244.391 5.8846 243.812 5.82472C242.39 5.69997 240.953 5.68654 239.527 5.78464C238.809 5.77857 238.093 5.74139 237.381 5.67328C236.371 5.60362 235.357 5.5724 234.342 5.57974C232.309 5.60696 230.28 5.71401 228.264 5.90045C226.258 6.0608 224.246 6.28351 222.234 6.32359C218.028 6.40822 213.815 6.25678 209.609 6.32359C207.633 6.36368 205.67 6.55521 203.707 6.34587C201.744 6.13652 199.932 5.70446 197.993 5.64656C196.054 5.58865 194.012 5.67328 192.018 5.6911C190.395 5.66731 188.785 5.46922 187.24 5.10315C184.128 4.46174 180.901 3.76688 177.734 4.63099C176.864 4.87659 176.045 5.211 175.303 5.62429C175.041 5.76682 175.096 6.09197 175.442 5.9049C176.868 5.12679 178.583 4.68414 180.36 4.63545C181.946 4.63917 183.524 4.81478 185.04 5.15659C186.511 5.45057 187.97 5.80245 189.477 5.99844C191.228 6.15435 192.995 6.18121 194.753 6.07861C195.714 6.07861 196.674 6.05634 197.635 6.07861C198.603 6.12468 199.565 6.23047 200.51 6.39486C202.255 6.7278 204.049 6.90281 205.853 6.916C207.858 6.8581 209.852 6.76456 211.864 6.76011C213.876 6.75566 215.888 6.78238 217.894 6.79129C219.899 6.82553 221.906 6.7839 223.905 6.66657C225.856 6.52849 227.808 6.33696 229.759 6.22115C231.676 6.06678 233.605 6.01022 235.533 6.05189C236.421 6.05189 237.29 6.16325 238.171 6.2167C238.839 6.24782 239.509 6.24782 240.177 6.2167C241.502 6.17215 242.931 6.06971 244.201 6.41713C244.719 6.55901 245.176 6.79843 245.527 7.11124C245.878 7.42406 246.111 7.7992 246.201 8.19882C246.424 9.11387 246.446 10.0491 246.268 10.9693C246.157 11.8026 245.953 12.6279 245.66 13.437C245.39 14.2156 245.035 14.9768 244.596 15.7131C244.359 16.0917 243.836 16.9959 243.089 16.6039C242.619 16.2986 242.277 15.9015 242.104 15.4592C241.951 15.0503 241.914 14.6229 241.995 14.2031C242.201 13.2749 242.317 12.3372 242.341 11.3969C242.337 11.0559 242.202 10.7226 241.952 10.4348C241.843 10.3235 241.496 10.564 241.612 10.6887L241.581 10.6798Z" fill="black"/>
<path d="M0.676216 27.0981C0.771198 27.2731 0.91561 27.4315 1.09998 27.5627C1.28435 27.694 1.50451 27.7952 1.74601 27.8597C1.96588 27.9027 2.19552 27.9118 2.42045 27.8865C2.64537 27.8612 2.8607 27.8021 3.05287 27.7127C3.52269 27.4811 3.88522 27.1502 4.09227 26.764C4.35878 26.3078 4.53678 25.8266 4.62109 25.3342C4.70719 24.8524 4.75994 24.3678 4.77913 23.8821C4.8156 23.3565 4.85815 22.8309 4.89462 22.3053C4.97364 21.1606 5.04658 20.0159 5.21069 18.8756C5.30187 18.2387 5.42344 17.6017 5.59363 16.9737C5.76383 16.3456 6.01912 15.7398 6.23794 15.1207C6.26833 15.0316 6.09206 15.0895 6.06775 15.1207C5.80439 15.6098 5.60097 16.1151 5.45991 16.6307C5.30187 17.1563 5.1803 17.6863 5.08913 18.2164C4.89462 19.2765 4.79736 20.3455 4.72442 21.4145C4.65148 22.4167 4.59678 23.4189 4.51168 24.4211C4.43874 25.3476 4.29894 26.3988 3.55129 27.1827C3.40108 27.3564 3.19112 27.4981 2.94252 27.5935C2.69391 27.6888 2.41541 27.7346 2.13503 27.7261C1.84794 27.6961 1.57607 27.6128 1.34523 27.4842C1.11438 27.3556 0.932219 27.1859 0.816019 26.9912C0.77347 26.9288 0.615432 27.0268 0.651902 27.0847L0.676216 27.0981Z" fill="black"/>
<path d="M6.31732 17.1785C6.46247 16.5749 6.66559 15.9795 6.92516 15.3968C7.05779 15.104 7.22244 14.8195 7.41751 14.5461C7.63677 14.2757 7.87833 14.0154 8.14084 13.7666C8.2077 13.6953 8.10436 13.6686 8.03142 13.7176C7.73684 13.9378 7.49076 14.1903 7.30202 14.4659C7.09739 14.7408 6.92652 15.0285 6.79143 15.3256C6.51837 15.9433 6.31508 16.5764 6.18359 17.2186C6.18359 17.3121 6.34163 17.2453 6.35987 17.183L6.31732 17.1785Z" fill="black"/>
<path d="M20.2184 10.6263C20.4563 10.2873 20.8183 10.0035 21.2639 9.8067C21.4914 9.69678 21.729 9.59855 21.9751 9.51272L22.3155 9.39692C22.4377 9.36626 22.5541 9.32435 22.6619 9.2722C22.6619 9.2722 22.7531 9.19202 22.6619 9.18311C22.5426 9.18279 22.4245 9.20102 22.3155 9.23656C22.1817 9.2722 22.0541 9.31674 21.9264 9.35682C21.6525 9.45148 21.3901 9.56325 21.1423 9.69089C20.6523 9.91673 20.2618 10.2416 20.0178 10.6263C19.957 10.7332 20.1455 10.6975 20.188 10.6263H20.2184Z" fill="black"/>
<path d="M50.4642 8.84897C51.9129 9.02274 53.337 9.2926 54.7191 9.65519C56.11 10.0177 57.3874 10.5811 58.4755 11.3121C58.9922 11.6774 59.4542 12.0783 59.9404 12.4613C60.3492 12.7835 60.7923 13.0814 61.2655 13.3522C62.2403 13.9086 63.3298 14.3477 64.4931 14.6528C65.7088 14.9512 67.1494 15.0715 68.2557 14.5147C68.3164 14.4835 68.3408 14.3766 68.2557 14.4212C66.0188 15.2764 63.393 14.2519 61.5694 13.272C61.0969 13.0252 60.6555 12.748 60.2504 12.4435C59.7642 12.0783 59.3204 11.6863 58.8342 11.3255C57.8123 10.5955 56.6011 10.023 55.2722 9.64182C53.7656 9.22469 52.2028 8.92607 50.6101 8.75098C50.5311 8.75098 50.4095 8.85788 50.4885 8.87124L50.4642 8.84897Z" fill="black"/>
<path d="M67.6236 13.8069C67.9357 13.6861 68.2381 13.5522 68.5293 13.406L68.9852 13.2011L69.2404 13.0986C69.3269 13.0727 69.407 13.0366 69.4775 12.9917C69.4775 12.9695 69.5322 12.9249 69.4775 12.916C69.3967 12.916 69.318 12.9347 69.2526 12.9695L68.9973 13.0675L68.5293 13.2768C68.237 13.4255 67.9325 13.5609 67.6175 13.6821C67.575 13.6821 67.5203 13.74 67.5263 13.7801C67.5324 13.8202 67.5811 13.8202 67.6236 13.8069V13.8069Z" fill="black"/>
<path d="M114.385 8.79569C115.397 8.80443 116.4 8.93846 117.351 9.19211C117.816 9.31525 118.267 9.46416 118.7 9.63753C118.919 9.72662 119.138 9.82461 119.351 9.93151C119.563 10.0384 119.734 10.1809 119.959 10.2032C119.995 10.2032 120.05 10.1631 120.038 10.1364C120.025 10.1097 119.88 10.0028 119.782 9.94487L119.484 9.78007C119.278 9.67317 119.071 9.57518 118.877 9.48609C118.439 9.29834 117.98 9.1403 117.503 9.01395C116.537 8.76527 115.518 8.64314 114.494 8.65316C114.421 8.65316 114.306 8.77787 114.415 8.77787L114.385 8.79569Z" fill="black"/>
<path d="M122.864 13.6863C123.565 14.4633 124.594 15.0501 125.794 15.3566C127.052 15.6862 128.317 15.3566 129.441 14.9112C129.757 14.7776 130.049 14.6306 130.365 14.4658C130.686 14.3228 130.995 14.1651 131.289 13.9936C131.368 13.9446 131.356 13.8467 131.234 13.8823C130.965 13.981 130.709 14.0973 130.468 14.2297L129.684 14.6039C129.161 14.8592 128.59 15.0573 127.988 15.1918C127.392 15.3154 126.761 15.3154 126.165 15.1918C125.563 15.0598 124.992 14.8631 124.469 14.6083C123.904 14.333 123.42 13.977 123.047 13.5616C123.004 13.517 122.858 13.615 122.907 13.6685L122.864 13.6863Z" fill="black"/>
<path d="M130 13.5216C130.461 13.4286 130.88 13.2489 131.216 13.0004C131.392 12.8785 131.55 12.7442 131.69 12.5996C131.844 12.4666 131.967 12.3162 132.055 12.1541C132.055 12.0918 131.97 12.1096 131.933 12.1541C131.797 12.2785 131.669 12.4079 131.55 12.5417C131.422 12.6704 131.282 12.7925 131.131 12.9069C130.829 13.1404 130.447 13.3097 130.025 13.3969C129.998 13.4034 129.973 13.4145 129.953 13.4292C129.933 13.4439 129.918 13.4618 129.909 13.4815C129.909 13.5171 129.909 13.5438 129.976 13.5349L130 13.5216Z" fill="black"/>
<path d="M161.31 9.19196C161.989 9.3899 162.6 9.69597 163.099 10.0881C163.597 10.4801 163.97 10.9485 164.191 11.4591C164.443 11.9642 164.602 12.4914 164.665 13.027C164.756 13.7575 164.933 14.4836 165.103 15.2051C165.437 16.6973 165.747 18.185 165.893 19.6905C165.966 20.4433 166.021 21.2005 166.136 21.9533C166.221 22.5056 166.331 23.0624 166.452 23.6147C166.566 24.1959 166.751 24.7683 167.005 25.3251C167.207 25.8537 167.633 26.3217 168.221 26.6613C168.306 26.7014 168.476 26.5856 168.403 26.5322C167.37 25.7972 167.012 24.7505 166.774 23.7572C166.481 22.477 166.278 21.1865 166.167 19.891C166.027 18.3765 165.741 16.8799 165.401 15.3789C165.224 14.6261 165.036 13.8689 164.921 13.1072C164.862 12.5834 164.729 12.0655 164.525 11.5616C164.321 10.9938 163.935 10.4697 163.401 10.0323C162.866 9.59479 162.197 9.25645 161.45 9.04497C161.359 9.0227 161.213 9.15633 161.31 9.18305V9.19196Z" fill="black"/>
<path d="M179.326 13.3569C180.013 12.3146 180.876 11.2589 182.469 10.8848C183.405 10.6665 184.396 10.6977 185.344 10.5106C186.227 10.2668 187.063 9.93884 187.83 9.53516C188.754 9.1521 189.818 9.12983 190.833 8.97838C190.93 8.97838 191.039 8.80021 190.887 8.82248C189.937 8.88303 189.002 9.03273 188.104 9.2679C187.21 9.58415 186.475 10.1053 185.502 10.3146C184.529 10.524 183.478 10.475 182.499 10.7111C181.745 10.8935 181.072 11.2231 180.554 11.6643C179.977 12.1703 179.503 12.7343 179.144 13.339C179.071 13.4549 179.284 13.4148 179.326 13.339V13.3569Z" fill="black"/>
<path d="M243.265 9.61973C243.613 10.8516 243.774 12.1079 243.745 13.3657C243.658 13.9884 243.674 14.6166 243.794 15.2365C243.885 15.5082 244.146 15.7933 244.578 15.6819C244.633 15.6819 244.797 15.5171 244.669 15.4993C244.53 15.4949 244.397 15.4556 244.292 15.3879C244.189 15.2952 244.12 15.1849 244.092 15.0672C244.005 14.7582 243.977 14.442 244.007 14.1274C244.062 13.2481 244.036 12.3671 243.927 11.4905C243.835 10.8299 243.679 10.175 243.459 9.53064C243.429 9.45937 243.247 9.56628 243.265 9.63309V9.61973Z" fill="black"/>
<defs>
<radialGradient id="paint0_radial_217_3883" cx="0" cy="0" r="1" gradientUnits="userSpaceOnUse" gradientTransform="translate(123.5 18.3139) rotate(90) scale(14.3105 123.5)">
<stop stop-color="white" stop-opacity="0.93"/>
<stop offset="1" stop-color="white"/>
</radialGradient>
</defs>
</svg>
