<svg width="214" height="162" viewBox="0 0 214 162" fill="none" xmlns="http://www.w3.org/2000/svg">
<g clip-path="url(#clip0_3_34)">
<path d="M75.11 159C54.0269 159.014 33.3853 152.96 15.65 141.56L8.37 136.88L16.97 137.88C19.9072 138.228 22.8623 138.402 25.82 138.4H26C40.8908 138.38 55.4386 133.927 67.79 125.61C60.4462 124.455 53.5669 121.285 47.9174 116.453C42.268 111.621 38.0698 105.316 35.79 98.24L34.79 95.03L38.1 95.66C40.348 96.0883 42.6316 96.3026 44.92 96.3C45.36 96.3 45.8 96.3 46.24 96.3C39.13 93.16 33.0858 88.0214 28.8427 81.5094C24.5996 74.9973 22.3404 67.3925 22.34 59.62V55.73L25.34 57.38C28.2956 59.0281 31.4708 60.247 34.77 61C28.3318 54.7615 24.1672 46.5473 22.9403 37.6668C21.7133 28.7862 23.4945 19.7505 28 12L29.45 9.5L31.28 11.74C40.6605 23.3159 52.3838 32.7764 65.68 39.5C78.2013 45.8585 91.8638 49.6591 105.87 50.68C104.924 44.9307 105.24 39.0445 106.797 33.4297C108.354 27.815 111.114 22.6062 114.885 18.1649C118.657 13.7236 123.35 10.1562 128.638 7.71017C133.926 5.26415 139.683 3.99814 145.51 4C150.816 3.99661 156.07 5.04475 160.969 7.08384C165.868 9.12294 170.314 12.1126 174.05 15.88C181.991 14.2103 189.603 11.244 196.58 7.1L201.12 4.4L199.5 9.4C197.406 15.9262 193.674 21.8066 188.66 26.48C193.213 25.4236 197.656 23.9404 201.93 22.05L208.16 19.3L204.4 25C199.35 32.5668 193.034 39.2072 185.73 44.63C185.78 45.97 185.8 47.29 185.8 48.57C185.8 75.37 175.43 102.49 157.34 122.99C142.84 139.41 116.83 158.99 75.22 158.99L75.11 159Z" fill="#D232EA"/>
<path d="M145.51 6C150.731 6.00355 155.896 7.0753 160.687 9.14931C165.478 11.2233 169.794 14.2557 173.37 18.06C181.915 16.3915 190.111 13.2695 197.6 8.83C194.755 17.6652 188.79 25.1621 180.82 29.92C188.384 29.0214 195.772 26.9991 202.74 23.92C197.623 31.5629 191.19 38.2365 183.74 43.63C183.81 45.27 183.85 46.92 183.85 48.56C183.8 99 145.43 157 75.22 157H75.1C54.4083 157.002 34.1517 151.059 16.74 139.88C19.7539 140.232 22.7856 140.409 25.82 140.41H26C43.1263 140.402 59.7569 134.66 73.24 124.1C65.2813 123.955 57.5669 121.327 51.1751 116.583C44.7833 111.838 40.0336 105.216 37.59 97.64C39.9629 98.0955 42.3738 98.3232 44.79 98.32C48.1673 98.3182 51.5296 97.871 54.79 96.99C46.1639 95.2455 38.4065 90.5716 32.833 83.7606C27.2596 76.9496 24.2131 68.4207 24.21 59.62V59.13C29.5119 62.0725 35.4393 63.7078 41.5 63.9C33.4226 58.5128 27.7038 50.2479 25.5094 40.7901C23.315 31.3323 24.8101 21.3936 29.69 13C39.2715 24.7817 51.2234 34.4168 64.77 41.28C78.3243 48.1399 93.1677 52.0782 108.34 52.84C107.028 47.2404 107 41.4166 108.257 35.8044C109.513 30.1921 112.023 24.9369 115.598 20.4318C119.173 15.9267 123.721 12.2884 128.901 9.7892C134.081 7.29002 139.759 5.99464 145.51 6ZM204.64 0L195.56 5.39C189.075 9.23922 182.026 12.0467 174.67 13.71C166.82 6.19749 156.375 2.00291 145.51 2C139.608 1.99537 133.771 3.23053 128.377 5.62547C122.983 8.02041 118.152 11.5217 114.197 15.9026C110.242 20.2835 107.252 25.4463 105.419 31.0565C103.587 36.6668 102.954 42.5993 103.56 48.47C90.6624 47.2216 78.1127 43.5686 66.56 37.7C53.5124 31.11 42.0044 21.8375 32.79 10.49L29.13 6L26.23 11C22.631 17.2077 20.6751 24.2309 20.5473 31.4053C20.4196 38.5797 22.1242 45.6681 25.5 52C26.3974 53.649 27.3995 55.239 28.5 56.76C27.72 56.4 26.94 56 26.19 55.58L20.24 52.29V59.57C20.2271 66.1793 21.7723 72.6986 24.7503 78.599C27.7283 84.4994 32.0552 89.6147 37.38 93.53L31.72 92.46L33.78 98.87C35.9184 105.494 39.6613 111.486 44.6756 116.314C49.6898 121.141 55.8198 124.654 62.52 126.54C51.4264 132.985 38.83 136.393 26 136.42H25.89C22.9995 136.419 20.1114 136.252 17.24 135.92L0 133.9L14.57 143.25C32.6247 154.854 53.6379 161.016 75.1 161H75.22C91.8636 161.152 108.339 157.66 123.49 150.77C136.989 144.515 149.03 135.505 158.84 124.32C177.25 103.47 187.84 75.86 187.84 48.58C187.84 47.58 187.84 46.58 187.84 45.58C194.92 40.1532 201.056 33.5951 206 26.17L213.39 14.86L201.04 20.32C198.973 21.24 196.863 22.0567 194.71 22.77C197.624 18.9597 199.864 14.6775 201.33 10.11L204.56 0.11L204.64 0Z" fill="white"/>
</g>
<defs>
<clipPath id="clip0_3_34">
<rect width="213.47" height="161.01" fill="white"/>
</clipPath>
</defs>
</svg>
