<svg width="480" height="69" viewBox="0 0 480 69" fill="none" xmlns="http://www.w3.org/2000/svg">
<path d="M65.9066 34.109C60.0366 31.6514 54.4266 28.0857 48.5566 25.5854C48.2794 25.4944 47.9891 25.5292 47.7265 25.6849C46.9773 24.8443 46.1269 24.2041 45.2166 23.7955C44.2166 23.3267 41.8566 26.4094 43.0166 27.4749C47.5866 31.7366 48.6066 39.5357 54.5766 41.0558C58.4366 42.0502 64.2966 42.5616 66.2166 36.4246C66.4366 35.7569 66.6266 34.4216 65.9066 34.109Z" fill="#14627C"/>
<path d="M105.967 64.453C105.954 64.2695 105.905 64.0948 105.825 63.949C105.746 63.8033 105.639 63.6924 105.517 63.6292C104.436 63.1122 103.294 62.9046 102.157 63.0183C101.065 62.3843 99.912 61.9914 98.7368 61.8534C98.2053 61.6218 97.6527 61.5022 97.0968 61.4983C97.0178 61.5028 96.94 61.5268 96.8668 61.5693C96.8114 61.4907 96.7512 61.4193 96.6868 61.3561C95.9468 60.3475 94.1968 62.6347 94.6868 63.7996C96.4968 68.3597 102.067 70.6185 105.207 67.6778C105.767 67.138 106.427 65.0923 105.967 64.453Z" fill="#14627C"/>
<path d="M215.487 13.2404C209.717 10.8253 205.067 4.97245 199.227 3.01203C198.227 2.67108 196.317 4.94407 197.227 6.4215C196.647 10.8822 202.647 14.1779 204.737 15.4423C207.617 17.1896 213.217 20.5565 215.547 15.7691C215.837 15.1724 216.297 13.5813 215.487 13.2404Z" fill="#14627C"/>
<path d="M333.307 33.768C325.917 28.5118 320.467 19.3347 312.687 15.1014C311.687 14.5757 309.987 17.3743 311.117 18.2125C318.357 23.5681 324.927 30.6001 332.117 36.0126C332.847 36.524 334.117 34.3363 333.307 33.768Z" fill="#14627C"/>
<path d="M10.007 54.6793C14.1831 48.9234 18.6337 43.5835 23.327 38.6975C25.667 36.2825 28.087 33.9954 30.567 31.8787C31.827 30.799 33.0969 29.7478 34.3569 28.6823C35.5878 27.6068 36.8711 26.6573 38.197 25.8411C40.7252 24.1816 43.5652 23.7378 46.2869 24.5769C47.6863 25.1614 49.059 25.8683 50.397 26.6935C51.797 27.4322 53.1969 28.1141 54.6069 28.8528C60.2269 31.5945 66.097 33.7823 72.067 33.8533C74.9205 33.7259 77.7643 33.3129 80.577 32.6174C83.5028 32.1 86.4069 31.3602 89.277 30.4013C89.977 30.1456 90.6769 29.8756 91.3569 29.5631C91.5169 29.5631 91.687 28.9807 91.447 29.0801C88.6087 30.2643 85.71 31.1335 82.777 31.6799C81.317 31.9924 79.847 32.2764 78.387 32.5748C76.927 32.8731 75.477 33.1715 74.007 33.2709C67.907 33.6403 61.8569 31.5662 56.1069 28.8812C53.2569 27.5459 50.4769 26.04 47.6669 24.5058C45.1251 23.2772 42.3688 23.2772 39.827 24.5058C37.1756 25.9308 34.6408 27.7598 32.267 29.9609C29.727 32.0066 27.2669 34.2227 24.8569 36.6093C20.1028 41.3468 15.5976 46.5695 11.377 52.2359L9.79694 54.381C9.58694 54.6651 9.79696 54.9635 10.007 54.6651V54.6793Z" fill="black"/>
<path d="M86.1166 27.759C87.6143 27.2929 89.1433 27.0595 90.6765 27.0629C91.4165 27.0629 92.1566 27.0629 92.8966 27.0629C93.6363 27.1628 94.3817 27.1341 95.1166 26.9776C95.1866 26.9776 95.3665 26.6935 95.2365 26.6366C94.9087 26.5314 94.5724 26.4884 94.2365 26.5088H93.0965C92.3165 26.5088 91.5366 26.5088 90.7566 26.5088C89.22 26.5357 87.6905 26.8073 86.1966 27.3186C86.0666 27.3186 85.9066 27.8158 86.1266 27.7448L86.1166 27.759Z" fill="black"/>
<path d="M96.6265 61.1573C99.4365 61.7823 102.157 63.0324 104.967 63.6007C106.336 63.9058 107.727 63.9631 109.107 63.7711C109.822 63.6725 110.529 63.4727 111.217 63.1745C111.857 62.8904 112.477 62.5637 113.107 62.2085C114.407 61.484 115.697 60.6884 117.017 60.0349C117.677 59.7082 118.337 59.4099 119.017 59.1684C119.697 58.9269 120.417 58.7706 121.107 58.5433C124.041 57.7529 127.02 57.344 130.007 57.3216C133.327 57.3368 136.642 56.9519 139.917 56.171C140.047 56.171 140.197 55.7021 139.987 55.7589C134.157 57.3358 128.177 56.2704 122.337 57.7336C121.617 57.9041 120.907 58.1313 120.187 58.3302C119.51 58.5057 118.842 58.7429 118.187 59.0405C116.887 59.6087 115.617 60.3474 114.357 61.072C113.07 61.9011 111.731 62.5529 110.357 63.0183C108.972 63.3895 107.557 63.4709 106.157 63.2597C102.997 62.8478 99.9665 61.3704 96.8265 60.7027C96.6865 60.7027 96.4665 61.1147 96.6765 61.1573H96.6265Z" fill="black"/>
<path d="M123.157 50.4743C124.099 49.9739 125.074 49.6075 126.067 49.3804C126.567 49.2762 127.067 49.2053 127.567 49.1674C127.807 49.1674 128.057 49.1674 128.297 49.1674C128.576 49.1873 128.856 49.149 129.127 49.0537C129.187 49.0537 129.347 48.8264 129.227 48.7411C128.977 48.655 128.717 48.655 128.467 48.7411H127.627C127.137 48.7411 126.627 48.869 126.147 48.9827C125.124 49.2307 124.119 49.616 123.147 50.1334C122.997 50.2186 122.917 50.659 123.147 50.5311L123.157 50.4743Z" fill="black"/>
<path d="M184.837 1.09439C187.646 0.835953 190.466 0.96922 193.257 1.4922C195.864 2.01071 198.423 2.93483 200.887 4.24807C203.529 5.71406 206.096 7.442 208.567 9.41907C211.001 11.3755 213.524 13.1029 216.117 14.5901C219.048 16.2286 222.167 17.0859 225.317 17.1188C225.477 17.1188 225.697 16.6357 225.487 16.6357C222.615 16.6004 219.769 15.8752 217.067 14.4906C214.48 13.1085 211.969 11.4511 209.557 9.53275C207.072 7.53417 204.504 5.75043 201.867 4.19128C199.439 2.82091 196.915 1.82555 194.337 1.22228C191.237 0.557425 188.095 0.381068 184.967 0.696578C184.847 0.696578 184.667 1.10859 184.837 1.09439Z" fill="black"/>
<path d="M203.047 10.3567C204.378 11.2175 205.756 11.9253 207.167 12.4734C207.847 12.7433 208.527 12.999 209.217 13.2405L210.307 13.6241C210.645 13.8051 211.005 13.8919 211.367 13.8798C211.447 13.8798 211.587 13.6525 211.507 13.5389C211.427 13.4252 210.807 13.1837 210.507 13.0842L209.407 12.7007C208.717 12.4734 208.027 12.2319 207.347 11.962C205.945 11.4343 204.575 10.7551 203.247 9.93047C203.117 9.84524 202.877 10.2573 203.037 10.3567H203.047Z" fill="black"/>
<path d="M299.367 13.8798C301.527 12.9011 303.792 12.473 306.057 12.6155C308.145 12.7922 310.202 13.4197 312.157 14.4764C316.139 16.7915 319.848 19.9583 323.157 23.8667C324.877 25.7561 326.567 27.7165 328.267 29.6343C330.127 31.7368 332.047 33.7398 334.017 35.615C338.097 39.5587 342.453 42.8912 347.017 45.5591C351.475 48.2135 356.199 49.8531 361.017 50.4176C361.597 50.4176 362.187 50.5029 362.777 50.5029C362.927 50.5029 363.157 50.034 362.947 50.0198C358.067 49.6894 353.256 48.2506 348.697 45.758C344.018 43.2282 339.548 39.9794 335.367 36.0696C333.367 34.2086 331.367 32.2055 329.437 30.103C327.707 28.1994 326.017 26.2106 324.287 24.2786C321.008 20.3735 317.379 17.1014 313.497 14.5474C309.602 12.0778 305.251 11.4504 301.087 12.7576C300.517 12.9422 299.957 13.1695 299.397 13.4252C299.277 13.4252 299.137 13.8798 299.327 13.8088L299.367 13.8798Z" fill="black"/>
<path d="M347.797 37.3481C351.614 39.3144 355.524 40.8951 359.497 42.0787C363.456 43.249 367.465 44.0509 371.497 44.4795C372.637 44.6073 373.787 44.6926 374.927 44.7636C376.073 44.856 377.221 44.856 378.367 44.7636C378.477 44.7636 378.677 44.3942 378.497 44.38C377.497 44.2522 376.497 44.2948 375.497 44.238C374.497 44.1812 373.497 44.1243 372.497 44.0391C370.497 43.8402 368.48 43.5561 366.447 43.1868C362.425 42.4319 358.443 41.2976 354.527 39.7915C352.327 38.9581 350.147 38.0111 347.987 36.9503C347.847 36.8793 347.617 37.3055 347.777 37.3765L347.797 37.3481Z" fill="black"/>
<path d="M442.907 38.7544C446.853 35.6405 451.112 33.4077 455.537 32.1344C460.019 30.8117 464.572 30.0323 469.147 29.8047C470.427 29.7195 471.697 29.6768 472.977 29.6342C474.257 29.5916 475.557 29.6342 476.837 29.5206C476.947 29.5206 477.157 29.1512 476.967 29.1227C475.847 28.9949 474.707 29.1227 473.577 29.1227L470.127 29.2506C467.807 29.3785 465.497 29.5916 463.187 29.9467C458.627 30.5539 454.132 31.898 449.787 33.9528C447.398 35.1278 445.091 36.6164 442.897 38.3993C442.767 38.4987 442.697 38.9534 442.897 38.7829L442.907 38.7544Z" fill="black"/>
<path d="M472.066 33.7681C473.216 33.5977 474.356 33.4272 475.496 33.2993C476.066 33.2283 476.636 33.1857 477.216 33.1431C477.769 33.177 478.322 33.1246 478.866 32.9868C478.936 32.9868 479.116 32.7027 478.986 32.6459C478.461 32.5106 477.922 32.5106 477.396 32.6459C476.826 32.6459 476.246 32.7453 475.676 32.8164C474.526 32.9584 473.376 33.1431 472.236 33.3278C472.086 33.3278 471.866 33.8392 472.066 33.8108V33.7681Z" fill="black"/>
<path d="M380.037 20.6703C382.037 21.4232 383.987 22.0909 385.987 22.5739C386.987 22.8296 387.987 23.0711 388.987 23.2984L390.497 23.6109C391.033 23.7755 391.579 23.8565 392.127 23.8524C392.217 23.8524 392.467 23.5398 392.307 23.4404C391.855 23.2535 391.388 23.1439 390.917 23.1137L389.407 22.8012C388.347 22.5739 387.287 22.3324 386.237 22.0625C384.237 21.551 382.237 20.9544 380.317 20.2157C380.167 20.2157 379.927 20.6135 380.087 20.6703H380.037Z" fill="black"/>
<path d="M391.787 26.3669C393.02 26.8868 394.281 27.2669 395.557 27.5034C396.197 27.6171 396.827 27.7023 397.467 27.7591C397.777 27.7591 398.097 27.7591 398.467 27.7591C398.798 27.83 399.135 27.83 399.467 27.7591C399.547 27.7591 399.767 27.4039 399.607 27.3329C399.326 27.2588 399.041 27.235 398.757 27.2619H397.757C397.147 27.2619 396.527 27.1483 395.907 27.0488C394.608 26.8334 393.323 26.4676 392.067 25.9549C391.917 25.8839 391.657 26.3527 391.837 26.4238L391.787 26.3669Z" fill="black"/>
</svg>
