<svg width="470" height="69" viewBox="0 0 470 69" fill="none" xmlns="http://www.w3.org/2000/svg">
<path d="M56.1966 33.5643C50.3266 31.1067 44.7166 27.541 38.8466 25.0408C38.5694 24.9498 38.2791 24.9846 38.0166 25.1402C37.2674 24.2996 36.417 23.6594 35.5066 23.2508C34.5066 22.782 32.1466 25.8647 33.3066 26.9302C37.8766 31.192 38.8966 38.9911 44.8666 40.5111C48.7266 41.5055 54.5866 42.0169 56.5066 35.8799C56.7266 35.2122 56.9166 33.8769 56.1966 33.5643Z" fill="#14627C"/>
<path d="M96.2569 63.9084C96.2441 63.7248 96.195 63.5501 96.1154 63.4043C96.0358 63.2586 95.9289 63.1477 95.8069 63.0845C94.7263 62.5675 93.5843 62.3599 92.4469 62.4736C91.3554 61.8396 90.202 61.4467 89.0268 61.3087C88.4953 61.0772 87.9428 60.9575 87.3868 60.9536C87.3078 60.9581 87.23 60.9821 87.1568 61.0246C87.1015 60.946 87.0412 60.8747 86.9768 60.8115C86.2368 59.8028 84.4868 62.09 84.9768 63.2549C86.7868 67.8151 92.3569 70.0738 95.4969 67.1331C96.0569 66.5933 96.7169 64.5476 96.2569 63.9084Z" fill="#14627C"/>
<path d="M205.777 12.6957C200.007 10.2807 195.357 4.42777 189.517 2.46735C188.517 2.1264 186.607 4.3994 187.517 5.87682C186.937 10.3375 192.937 13.6333 195.027 14.8976C197.907 16.6449 203.507 20.0118 205.837 15.2244C206.127 14.6277 206.587 13.0366 205.777 12.6957Z" fill="#14627C"/>
<path d="M323.597 33.2234C316.207 27.9672 310.757 18.7901 302.977 14.5567C301.977 14.0311 300.277 16.8296 301.407 17.6678C308.647 23.0235 315.217 30.0555 322.407 35.4679C323.137 35.9794 324.407 33.7916 323.597 33.2234Z" fill="#14627C"/>
<path d="M0.297002 54.1346C4.47313 48.3787 8.9237 43.0388 13.617 38.1529C15.957 35.7378 18.377 33.4507 20.857 31.334C22.117 30.2543 23.387 29.2031 24.647 28.1376C25.8778 27.0621 27.1611 26.1127 28.487 25.2964C31.0152 23.6369 33.8553 23.1931 36.577 24.0322C37.9764 24.6167 39.349 25.3236 40.687 26.1489C42.087 26.8876 43.487 27.5694 44.897 28.3081C50.517 31.0499 56.387 33.2376 62.357 33.3086C65.2106 33.1813 68.0543 32.7683 70.867 32.0727C73.7928 31.5553 76.697 30.8155 79.567 29.8566C80.267 29.6009 80.967 29.3309 81.647 29.0184C81.807 29.0184 81.977 28.436 81.737 28.5355C78.8988 29.7196 76.0001 30.5888 73.067 31.1352C71.607 31.4477 70.137 31.7317 68.677 32.0301C67.217 32.3284 65.767 32.6268 64.297 32.7262C58.197 33.0956 52.147 31.0215 46.397 28.3366C43.547 27.0012 40.767 25.4953 37.957 23.9611C35.4152 22.7325 32.6588 22.7325 30.117 23.9611C27.4657 25.3861 24.9309 27.2152 22.557 29.4162C20.017 31.4619 17.557 33.678 15.147 36.0646C10.3928 40.8021 5.8876 46.0248 1.667 51.6912L0.0869803 53.8363C-0.12302 54.1204 0.0870023 54.4188 0.297002 54.1205V54.1346Z" fill="black"/>
<path d="M76.4066 27.2143C77.9043 26.7483 79.4333 26.5149 80.9666 26.5182C81.7066 26.5182 82.4466 26.5182 83.1866 26.5182C83.9263 26.6181 84.6718 26.5894 85.4066 26.4329C85.4766 26.4329 85.6566 26.1488 85.5266 26.092C85.1987 25.9867 84.8624 25.9438 84.5266 25.9642H83.3866C82.6066 25.9642 81.8266 25.9642 81.0466 25.9642C79.5101 25.991 77.9805 26.2627 76.4866 26.7739C76.3566 26.7739 76.1966 27.2711 76.4166 27.2001L76.4066 27.2143Z" fill="black"/>
<path d="M86.9166 60.6126C89.7266 61.2377 92.4466 62.4877 95.2566 63.056C96.626 63.3611 98.017 63.4184 99.3966 63.2264C100.112 63.1278 100.819 62.928 101.507 62.6298C102.147 62.3457 102.767 62.019 103.397 61.6638C104.697 60.9393 105.987 60.1437 107.307 59.4903C107.967 59.1635 108.627 58.8652 109.307 58.6237C109.987 58.3822 110.707 58.226 111.397 57.9987C114.331 57.2082 117.31 56.7993 120.297 56.777C123.617 56.7921 126.932 56.4072 130.207 55.6263C130.337 55.6263 130.487 55.1574 130.277 55.2142C124.447 56.7911 118.467 55.7257 112.627 57.1889C111.907 57.3594 111.197 57.5866 110.477 57.7855C109.8 57.961 109.132 58.1982 108.477 58.4958C107.177 59.0641 105.907 59.8028 104.647 60.5273C103.36 61.3564 102.021 62.0082 100.647 62.4736C99.2624 62.8449 97.8474 62.9262 96.4466 62.7151C93.2866 62.3031 90.2566 60.8257 87.1166 60.158C86.9766 60.158 86.7566 60.57 86.9666 60.6126H86.9166Z" fill="black"/>
<path d="M113.447 49.9296C114.389 49.4292 115.364 49.0628 116.357 48.8357C116.857 48.7316 117.357 48.6606 117.857 48.6227C118.097 48.6227 118.347 48.6227 118.587 48.6227C118.866 48.6426 119.146 48.6043 119.417 48.509C119.477 48.509 119.637 48.2817 119.517 48.1965C119.267 48.1103 119.007 48.1103 118.757 48.1965H117.917C117.427 48.1965 116.917 48.3244 116.437 48.438C115.414 48.686 114.409 49.0713 113.437 49.5887C113.287 49.6739 113.207 50.1143 113.437 49.9864L113.447 49.9296Z" fill="black"/>
<path d="M175.127 0.549709C177.936 0.291275 180.756 0.424542 183.547 0.947518C186.154 1.46603 188.713 2.39016 191.177 3.7034C193.819 5.16938 196.386 6.89732 198.857 8.8744C201.292 10.8309 203.814 12.5582 206.407 14.0454C209.338 15.684 212.457 16.5412 215.607 16.5741C215.767 16.5741 215.987 16.0911 215.777 16.0911C212.905 16.0558 210.059 15.3305 207.357 13.9459C204.77 12.5638 202.259 10.9065 199.847 8.98807C197.362 6.98949 194.794 5.20575 192.157 3.6466C189.729 2.27623 187.205 1.28087 184.627 0.677601C181.527 0.0127468 178.385 -0.163609 175.257 0.1519C175.137 0.1519 174.957 0.563915 175.127 0.549709Z" fill="black"/>
<path d="M193.337 9.81205C194.668 10.6728 196.046 11.3806 197.457 11.9287C198.137 12.1986 198.817 12.4543 199.507 12.6958L200.597 13.0794C200.935 13.2604 201.295 13.3472 201.657 13.3351C201.737 13.3351 201.877 13.1078 201.797 12.9942C201.717 12.8805 201.097 12.639 200.797 12.5396L199.697 12.156C199.007 11.9287 198.317 11.6872 197.637 11.4173C196.235 10.8896 194.865 10.2104 193.537 9.3858C193.407 9.30056 193.167 9.7126 193.327 9.81205H193.337Z" fill="black"/>
<path d="M289.657 13.3351C291.817 12.3564 294.082 11.9284 296.347 12.0708C298.435 12.2475 300.492 12.8751 302.447 13.9318C306.429 16.2469 310.138 19.4136 313.447 23.322C315.167 25.2114 316.857 27.1718 318.557 29.0896C320.417 31.1921 322.337 33.1951 324.307 35.0703C328.387 39.014 332.743 42.3466 337.307 45.0145C341.765 47.6688 346.489 49.3084 351.307 49.8729C351.887 49.8729 352.477 49.9582 353.067 49.9582C353.217 49.9582 353.447 49.4894 353.237 49.4752C348.357 49.1447 343.546 47.7059 338.987 45.2134C334.308 42.6836 329.838 39.4348 325.657 35.5249C323.657 33.6639 321.657 31.6608 319.727 29.5583C317.997 27.6547 316.307 25.6659 314.577 23.7339C311.298 19.8288 307.67 16.5567 303.787 14.0028C299.892 11.5331 295.542 10.9058 291.377 12.2129C290.807 12.3976 290.247 12.6248 289.687 12.8805C289.567 12.8805 289.427 13.3351 289.617 13.2641L289.657 13.3351Z" fill="black"/>
<path d="M338.087 36.8035C341.904 38.7697 345.814 40.3504 349.787 41.534C353.746 42.7043 357.755 43.5063 361.787 43.9348C362.927 44.0627 364.077 44.1479 365.217 44.219C366.363 44.3113 367.511 44.3113 368.657 44.219C368.767 44.219 368.967 43.8496 368.787 43.8354C367.787 43.7075 366.787 43.7502 365.787 43.6933C364.787 43.6365 363.787 43.5797 362.787 43.4944C360.787 43.2955 358.77 43.0115 356.737 42.6421C352.715 41.8872 348.733 40.7529 344.817 39.2469C342.617 38.4134 340.437 37.4664 338.277 36.4057C338.137 36.3346 337.907 36.7608 338.067 36.8318L338.087 36.8035Z" fill="black"/>
<path d="M433.197 38.2098C437.143 35.0958 441.403 32.863 445.827 31.5897C450.309 30.267 454.862 29.4876 459.437 29.26C460.717 29.1748 461.987 29.1322 463.267 29.0895C464.547 29.0469 465.847 29.0895 467.127 28.9759C467.237 28.9759 467.447 28.6065 467.257 28.5781C466.137 28.4502 464.997 28.5781 463.867 28.5781L460.417 28.706C458.097 28.8338 455.787 29.0469 453.477 29.402C448.917 30.0093 444.422 31.3533 440.077 33.4081C437.688 34.5831 435.381 36.0717 433.187 37.8546C433.057 37.9541 432.987 38.4087 433.187 38.2382L433.197 38.2098Z" fill="black"/>
<path d="M462.356 33.2235C463.506 33.053 464.646 32.8825 465.786 32.7546C466.356 32.6836 466.926 32.641 467.506 32.5984C468.059 32.6323 468.612 32.5799 469.156 32.4422C469.226 32.4422 469.406 32.158 469.276 32.1012C468.751 31.9659 468.212 31.9659 467.686 32.1012C467.116 32.1012 466.536 32.2007 465.966 32.2717C464.816 32.4137 463.666 32.5984 462.526 32.7831C462.376 32.7831 462.156 33.2945 462.356 33.2661V33.2235Z" fill="black"/>
<path d="M370.327 20.1256C372.327 20.8785 374.277 21.5462 376.277 22.0292C377.277 22.2849 378.277 22.5264 379.277 22.7537L380.787 23.0662C381.323 23.2308 381.869 23.3118 382.417 23.3077C382.507 23.3077 382.757 22.9952 382.597 22.8957C382.145 22.7089 381.678 22.5992 381.207 22.569L379.697 22.2565C378.637 22.0292 377.577 21.7877 376.527 21.5178C374.527 21.0064 372.527 20.4097 370.607 19.671C370.457 19.671 370.217 20.0688 370.377 20.1256H370.327Z" fill="black"/>
<path d="M382.077 25.8222C383.31 26.3422 384.571 26.7222 385.847 26.9587C386.487 27.0724 387.117 27.1576 387.757 27.2144C388.067 27.2144 388.387 27.2144 388.757 27.2144C389.088 27.2853 389.425 27.2853 389.757 27.2144C389.837 27.2144 390.057 26.8592 389.897 26.7882C389.616 26.7142 389.331 26.6903 389.047 26.7172H388.047C387.437 26.7172 386.817 26.6036 386.197 26.5041C384.898 26.2887 383.613 25.9229 382.357 25.4103C382.207 25.3392 381.947 25.808 382.127 25.8791L382.077 25.8222Z" fill="black"/>
</svg>
