<svg width="109" height="108" viewBox="0 0 109 108" fill="none" xmlns="http://www.w3.org/2000/svg">
<path d="M46.9338 103.157C47.0883 103.425 46.7864 103.457 46.7589 103.521C46.6039 103.032 47.0046 103.137 46.9338 103.157Z" fill="white"/>
<path d="M46.0014 98.2968L45.904 98.4165L46.0522 97.6374L46.0014 98.2968Z" fill="white"/>
<path d="M45.5879 93.7627C45.8284 93.9624 45.8082 94.3677 45.7579 94.8398C45.6898 95.3049 45.6974 95.7696 45.7805 96.2163L45.9043 96.3289L45.5723 96.7701C45.5493 96.2318 45.5578 95.6893 45.5979 95.1453C45.6436 94.6801 45.6402 94.2168 45.5879 93.7627Z" fill="white"/>
<path d="M44.7403 91.2966C44.9047 91.4551 44.9458 90.7449 44.74 91.8928C44.7305 91.8559 44.7182 91.82 44.7033 91.7855C44.7169 91.6812 44.7277 91.5402 44.7403 91.2966Z" fill="white"/>
<path d="M44.7033 91.7854C44.6581 92.2806 44.5828 91.456 44.7033 91.7854V91.7854Z" fill="white"/>
<path d="M45.1361 89.4614C45.045 89.6774 44.9374 89.8947 44.8574 90.1137C44.7513 89.9793 44.8621 89.3739 44.7408 89.5904C44.962 88.9094 45.0393 89.0626 45.1361 89.4614Z" fill="white"/>
<path d="M45.5926 88.8632L45.458 89.1953C45.4263 89.1386 45.4311 89.0452 45.5926 88.8632Z" fill="white"/>
<path d="M45.1694 89.9181L45.4699 89.194C45.54 89.2828 45.6735 89.3138 45.3552 89.5183C45.4941 89.4787 45.3348 89.6084 45.1694 89.9181Z" fill="white"/>
<path d="M45.1885 90.3233C45.2362 90.6986 45.2325 91.1689 45.4874 90.5197C45.3625 91.1403 45.2371 91.4067 45.1617 91.361C45.0864 91.3153 45.0666 90.9532 45.1885 90.3233Z" fill="white"/>
<path d="M46.0835 93.4843C46.1188 93.6395 46.1762 93.8006 46.2166 93.9402L46.0616 94.3624C46.1354 94.1522 45.9286 93.4703 46.0835 93.4843Z" fill="white"/>
<path d="M46.0055 85.3321C46.1129 85.3135 46.1813 85.61 46.284 85.6848L46.0126 86.1366C46.0303 85.8772 46.1326 85.3992 46.0055 85.3321Z" fill="white"/>
<path d="M46.2843 85.6845L46.6933 85.015C46.4919 85.6492 46.3775 85.7473 46.2843 85.6845Z" fill="white"/>
<path d="M46.129 88.8022L45.549 89.9456C45.7642 89.4836 45.9596 89.0295 46.1862 88.5819C46.1662 88.656 46.1444 88.7278 46.129 88.8022Z" fill="white"/>
<path d="M47.093 82.6161L46.6954 82.9299C46.9113 82.7284 47.1199 82.5286 47.3342 82.3361C47.2602 82.4413 47.1924 82.5376 47.093 82.6161Z" fill="white"/>
<path d="M48.0141 80.8994C47.6897 81.1127 47.949 80.3861 47.677 80.6436C47.9477 80.2365 48.2867 79.8725 48.6778 79.5693C48.3447 79.9599 48.1155 80.4191 48.0141 80.8994Z" fill="white"/>
<path d="M49.215 79.0786C49.0466 79.253 48.8671 79.4168 48.6776 79.569C48.8355 79.3847 49.0163 79.2197 49.215 79.0786Z" fill="white"/>
<path d="M47.1187 83.8144C47.07 83.7219 47.0431 83.6183 47.0398 83.5102C47.0364 83.4022 47.0565 83.2922 47.099 83.1873L47.2338 83.5404C47.2005 83.6252 47.1639 83.7281 47.1187 83.8144Z" fill="white"/>
<path d="M47.2387 83.5525L47.4899 82.9647C47.4532 83.0287 47.3776 83.2091 47.2387 83.5525Z" fill="white"/>
<path d="M47.0932 83.8813L47.119 83.8139C47.1337 83.8493 47.1378 83.8656 47.0932 83.8813Z" fill="white"/>
<path d="M46.3584 86.9224C46.6267 86.5276 47.0576 85.7201 47.0289 86.584C46.7588 86.844 46.768 86.342 46.3584 86.9224Z" fill="white"/>
<path d="M47.2856 84.3134L47.0552 85.06C46.9913 85.0287 46.9403 84.8702 46.7925 85.0531L47.2856 84.3134Z" fill="white"/>
<path d="M47.5076 83.9865L47.2806 84.3176L47.3682 84.042L47.5076 83.9865Z" fill="white"/>
<path d="M48.7206 80.3806C49.0004 80.0989 49.245 79.7867 49.4482 79.4518C49.2573 79.8673 49.0252 80.2803 48.8146 80.6764C48.7072 80.695 48.4697 80.8084 48.7206 80.3806Z" fill="white"/>
<path d="M47.9791 81.916L48.0276 81.8504C48.0254 81.9028 48.0244 81.9347 47.9791 81.916Z" fill="white"/>
<path d="M51.8985 75.9987L51.8953 76.083L51.8491 76.0688L51.8985 75.9987Z" fill="white"/>
<path d="M48.8359 80.753C48.7529 80.9933 48.5939 81.209 48.3834 81.3673C48.5431 81.1398 48.6915 80.9056 48.8281 80.6657C48.8602 80.6677 48.8869 80.6739 48.8359 80.753Z" fill="white"/>
<path d="M49.981 78.1433C49.9183 78.3324 49.8462 78.5194 49.7648 78.7035C49.7995 78.532 49.8854 78.1603 49.981 78.1433Z" fill="white"/>
<path d="M48.012 81.7194L47.9688 81.7536C47.9749 81.639 47.994 81.6632 48.012 81.7194Z" fill="white"/>
<path d="M48.0114 81.719C48.1184 81.5935 48.2387 81.4789 48.3699 81.3777C48.2649 81.5407 48.1507 81.6985 48.0278 81.8502C48.0274 81.8055 48.0219 81.7615 48.0114 81.719Z" fill="white"/>
<path d="M54.0532 76.0545C53.8327 75.952 53.0711 76.4675 52.8272 77.2248C52.2228 77.7019 51.8438 76.8793 51.8954 76.083C51.999 76.1259 52.0736 76.1761 52.6989 75.6591C52.6115 75.9462 51.8624 77.1957 52.4492 76.8066C53.1831 76.0792 52.9122 76.1061 53.1282 75.6396C53.1133 75.8968 53.41 75.7092 53.7361 75.5258C54.0623 75.3424 54.4315 75.1638 54.5309 75.3892C54.2972 75.5737 54.0581 75.7624 53.8217 75.949C53.8671 76.0066 54.1596 75.8303 54.0532 76.0545Z" fill="white"/>
<path d="M50.994 77.3006L50.7632 77.5606C50.9413 77.2075 51.0766 76.8391 51.1661 76.4636C51.6034 76.0951 51.7461 76.0603 51.8353 76.0795C51.5141 76.5122 51.1941 76.9244 50.8827 77.3806L50.994 77.3006Z" fill="white"/>
<path d="M49.9427 78.7578C50.3136 78.6753 50.8447 78.0886 50.831 78.6291C50.2995 79.4031 50.2722 79.0702 49.8636 79.4862C50.7563 78.2363 49.4848 79.7852 49.9616 78.7818C49.7711 78.9912 49.5992 79.2155 49.4484 79.4518C49.5623 79.1983 49.6726 78.9515 49.7742 78.7155L49.7697 78.7541C49.7616 78.8267 49.7706 78.8547 49.7925 78.7829C49.7925 78.7829 49.814 78.7659 49.8193 78.7617C49.8608 78.7682 49.9043 78.7645 49.9462 78.7511C50.1457 78.3521 49.9254 78.6585 49.8193 78.7617C49.8193 78.7617 49.7865 78.7643 49.7716 78.7565C50.0999 78.3493 50.4336 77.9379 50.7884 77.5644C50.6119 77.8323 50.3665 78.1623 49.9427 78.7578Z" fill="white"/>
<path d="M47.8547 85.9674C47.8541 85.9539 47.8496 85.9413 47.8415 85.9311C47.8334 85.9209 47.8222 85.9135 47.8092 85.9098C47.872 85.8291 47.9069 85.8016 47.8547 85.9674Z" fill="white"/>
<path d="M47.8891 85.3643C47.7388 85.4916 47.6355 85.6632 47.5985 85.8468C47.5783 86.1471 47.7255 85.8751 47.8096 85.9099C47.6699 86.0864 47.3771 86.5552 47.4602 85.9092L47.5318 85.8176C47.6168 85.2403 47.5895 84.4323 47.5141 84.5191C47.7051 84.7633 47.8332 85.052 47.8891 85.3643Z" fill="white"/>
<path d="M48.7935 82.0524C49.0161 81.6937 49.2684 81.3504 49.5096 81.0042L49.4146 81.6517L49.3017 81.5694C49.006 82.2001 48.9428 81.993 48.7935 82.0524Z" fill="white"/>
<path d="M51.8989 75.7953L51.5615 75.7656C51.8235 75.6445 52.0976 75.5333 52.3626 75.4215L51.8989 75.7953Z" fill="white"/>
<path d="M53.0084 74.5381L52.7769 74.4326L53.1919 74.1906L53.0084 74.5381Z" fill="white"/>
<path d="M50.9261 44.6726L51.0319 45.0331C50.9867 44.9168 50.9514 44.7963 50.9261 44.6726Z" fill="white"/>
<path d="M50.0163 42.1116L50.1345 42.0183C50.0852 42.1546 50.0431 42.2228 50.0163 42.1116Z" fill="white"/>
<path d="M78.8328 48.9146C78.5335 48.5355 78.1146 48.165 78.4058 48.1417L78.7101 48.2013C78.6918 48.4513 78.7338 48.6956 78.8328 48.9146Z" fill="white"/>
<path d="M65.584 30.6721L65.7573 30.621C65.8482 30.7362 65.9139 30.8635 65.9789 30.968C65.8541 30.8614 65.7222 30.7626 65.584 30.6721Z" fill="white"/>
<path d="M65.6161 29.4703C65.3653 29.4705 65.1131 29.4849 64.8608 29.5134C65.1131 29.4609 65.3679 29.4463 65.6161 29.4703Z" fill="white"/>
<path d="M61.4873 53.5939L61.8017 53.9922C61.1267 53.7889 61.4764 53.7348 61.4873 53.5939Z" fill="white"/>
<path d="M66.5954 64.2914C66.8729 64.0277 67.1744 63.7896 67.4954 63.581C67.1003 63.9864 66.8264 64.4128 66.5954 64.2914Z" fill="white"/>
<path d="M53.3573 42.4111C53.3787 42.5929 53.3548 42.6897 53.295 42.7134C53.2661 42.5221 53.2748 42.4061 53.3573 42.4111Z" fill="white"/>
<path d="M68.6046 62.9085C68.5515 62.9738 68.4916 63.025 68.4366 63.0879C68.1097 63.2215 67.7944 63.3868 67.496 63.5811C67.7804 63.2376 68.1762 62.9974 68.6046 62.9085Z" fill="white"/>
<path d="M73.9181 13.4836C73.8953 13.4548 73.8688 13.4212 73.8346 13.4054C73.8649 13.3775 73.8906 13.4157 73.9181 13.4836Z" fill="white"/>
<path d="M62.8105 5.18481C62.9062 5.27287 63.0777 5.39068 63.2381 5.50552C63.0775 5.42194 62.9334 5.31384 62.8105 5.18481Z" fill="white"/>
<path d="M57.8642 69.7628C57.5955 69.9749 57.8041 69.7751 57.8642 69.7628V69.7628Z" fill="white"/>
<path d="M57.2266 71.668C57.3027 71.6429 57.3711 71.6357 57.4197 71.6752C57.3613 71.6488 57.2923 71.6462 57.2266 71.668Z" fill="white"/>
<path d="M72.2766 62.4674L72.3142 62.4377C72.2459 62.55 72.2563 62.5301 72.2766 62.4674Z" fill="white"/>
<path d="M57.5116 70.2005C57.6074 70.0786 57.7105 69.9621 57.8204 69.8516C57.7253 69.974 57.6221 70.0906 57.5116 70.2005Z" fill="white"/>
<path d="M57.4961 70.0535L57.2744 70.2753C57.2102 70.2714 57.2216 70.2195 57.4961 70.0535Z" fill="white"/>
<path d="M58.2665 69.4606C58.1132 69.5803 57.967 69.7087 57.8288 69.8451C57.8711 69.7883 57.8858 69.7572 57.864 69.7627L58.2665 69.4606Z" fill="white"/>
<path d="M78.7446 39.0092L78.7244 38.9394C78.8735 38.6036 78.8409 38.7501 78.7446 39.0092Z" fill="white"/>
<path d="M78.5142 39.2692C78.4891 39.4779 78.5136 39.6842 78.586 39.8717C78.6584 40.0592 78.7766 40.2229 78.9313 40.3499L78.0161 40.4998C78.1836 40.0988 78.3428 39.6928 78.5142 39.2692Z" fill="white"/>
<path d="M54.7135 49.5312L53.9006 49.1642C54.3467 50.1713 55.0624 50.5256 54.1772 50.2935C54.4473 49.9011 53.821 49.3673 53.2655 48.7464C52.9911 48.4764 52.7522 48.1737 52.5533 47.8441C52.392 47.5625 52.3504 47.311 52.5169 47.1407L52.0206 46.8158C52.121 46.9429 52.0985 46.9918 52.2024 47.1124C51.6895 46.8162 51.7004 46.5427 51.741 46.2185C51.7744 46.0376 51.7781 45.8559 51.752 45.6801C51.6931 45.4191 51.5862 45.1752 51.4362 44.9596C51.1331 44.5757 50.8728 44.3177 50.9236 44.6749C50.834 44.3017 50.7623 43.9181 50.6802 43.5545C50.5687 43.253 50.4334 43.391 50.564 43.689C50.3809 43.1389 50.242 42.5715 50.1486 41.9917L50.1244 42.0108C50.1708 41.8651 50.2069 41.6457 50.2603 41.4206C50.3136 41.1954 50.3788 40.9687 50.4114 40.8222C50.2411 40.4075 50.3393 41.0622 50.218 40.9748L50.2812 40.4693C50.3078 40.3042 50.3562 40.1335 50.392 39.969C50.1757 39.5789 49.8926 40.4411 50.0227 41.1251C49.5257 40.7385 49.5569 40.5074 49.6795 40.138C49.7532 39.9072 49.8014 39.6719 49.8233 39.4364C49.8826 39.0243 49.8911 38.6122 49.8487 38.209L49.5941 39.2123C49.4001 38.8739 49.3248 38.4738 49.3783 38.0661L49.4806 37.3505C49.512 37.0921 49.5428 36.8107 49.5907 36.4847C49.6066 36.5656 49.5855 36.7653 49.6047 36.9995C49.6274 37.2335 49.6642 37.4645 49.7148 37.6915C49.8095 38.1152 49.9698 38.3237 50.2241 37.7841C50.2427 37.3342 50.4191 36.8871 50.7239 36.5171C50.5772 36.4694 50.5801 36.3074 50.6622 36.0634C50.7989 35.758 50.96 35.4615 51.144 35.1767L50.7584 35.0527C50.9106 34.8105 51.1286 34.6099 51.3848 34.4764C51.5685 34.4 51.7456 34.3059 51.9132 34.1957C52.1171 33.9318 52.2661 33.6351 52.3506 33.3246C52.3789 33.1328 52.3749 32.9411 52.3389 32.7574C52.8932 32.1835 52.7791 32.4644 52.7092 32.7183C52.6392 32.9721 52.6236 33.2065 53.2983 32.6194C54.1298 31.6786 54.9734 31.2503 56.3307 30.8099C57.019 30.2899 56.1014 30.652 56.3293 30.4215C56.5956 30.3943 56.8599 30.3921 57.1272 30.3993C57.2896 30.3178 57.2018 30.2508 57.1589 30.2184C57.7718 30.089 57.3359 30.5422 58.253 30.3285C58.3269 30.4221 58.4875 30.377 58.6768 30.2743C58.8661 30.1716 59.1094 30.038 59.3823 29.881C59.523 29.7985 59.6675 29.7234 59.8152 29.6561C59.9685 29.5917 60.1251 29.5371 60.2837 29.4927C60.595 29.3902 60.921 29.3821 61.216 29.4696C61.4964 29.3222 61.0716 29.2369 61.154 29.0706C61.6466 29.0916 62.1322 29.1525 62.6058 29.2527C62.7633 29.285 62.9175 29.3272 63.0675 29.379C63.2431 29.4468 63.4586 29.5376 63.7377 29.6757C64.1119 29.6047 64.4878 29.5551 64.8632 29.5272C64.0008 29.7328 64.9431 30.1808 65.586 30.6859C65.2857 30.775 65.0354 30.8557 64.8745 30.8893C65.2613 31.04 65.6377 31.2109 66.0023 31.4011C66.1728 31.3795 66.1124 31.2091 65.9782 30.9839L66.1628 31.1459C66.6525 31.1255 66.5416 30.8469 66.3023 30.5217C66.1157 30.556 65.9257 30.597 65.7566 30.6369C65.536 30.3243 65.3193 29.989 65.4624 29.767C65.5822 29.8557 65.7165 29.9254 65.8613 29.974C65.795 29.89 65.7664 29.8152 65.8205 29.7842C65.8745 29.7532 65.9937 29.8656 66.1637 30.0313L66.6353 29.6785L66.636 29.8727C66.9443 29.9098 67.2518 29.9513 67.5481 30.0173C67.8444 30.0834 68.1584 30.1276 68.4488 30.2138C69.3918 31.1598 69.9196 32.2427 71.2531 33.4957C71.1157 32.946 71.5477 32.9906 71.8019 32.6497C71.1121 32.6762 70.7097 31.6307 69.7739 31.1854C70.2574 31.4112 70.2669 31.1857 70.1913 31.0623C70.648 31.4807 71.0725 31.9246 71.4782 32.3833C71.6749 32.08 71.9363 32.4112 72.4175 32.5844C71.7019 32.8766 73.1417 33.7615 73.4958 34.4089C73.6952 34.2749 73.7406 33.9898 73.0471 33.4428C74.1394 33.7217 73.3998 34.8508 74.3599 35.2108C74.2292 35.0452 74.1248 35.0069 74.1418 34.8571C74.2896 35.1598 74.4992 35.4253 74.7593 35.6394C75.0065 35.8532 75.2273 35.9671 75.2089 35.7947L75.0801 35.6315C75.7091 36.2664 76.2688 36.9643 76.7517 37.716C77.2394 38.4995 77.5323 39.2186 77.3543 39.4682C77.5602 39.2614 77.7348 39.0276 77.8715 38.7756C77.8218 39.8247 77.7163 40.8765 77.5553 41.9269C77.8667 41.4707 79.3148 41.5817 78.9778 40.4145C79.3302 40.7668 79.5734 41.2118 79.6841 41.707C79.5156 41.5323 78.7941 41.5683 78.9018 41.8649C79.779 42.3409 79.4364 42.2218 80.3157 42.9767C80.0707 42.7105 79.5511 43.4166 79.7745 43.8985C79.846 43.7681 80.4855 43.606 80.4804 43.3841C80.4381 43.9161 80.3621 44.4551 80.2775 44.9776C80.2867 44.6081 80.8588 44.6589 81.1548 44.8848C81.065 44.8428 81.1551 45.1338 81.2763 45.4861C81.3913 45.7989 81.4736 46.1252 81.5221 46.4605L81.2105 45.9276C81.3091 46.1878 81.347 46.4718 81.3215 46.7605C81.296 47.0493 81.2078 47.3362 81.0628 47.602C80.9459 47.8306 80.8474 48.066 80.7681 48.3059C80.7212 48.4396 80.6872 48.576 80.6666 48.7132C80.6403 48.8869 80.6315 49.0608 80.6405 49.2324C80.786 49.0357 81.5666 48.6104 81.6797 49.4442C81.4913 49.6474 81.0627 50.0987 80.5364 50.6583C80.2792 50.9236 80.0426 51.2038 79.8052 51.4886C79.5756 51.755 79.3759 52.0434 79.2102 52.3478L79.3566 52.6217C79.2011 52.9275 78.9923 53.2208 78.8145 53.5092C79.0602 53.3571 79.2974 53.1907 79.5244 53.0111C79.828 52.7626 80.1154 52.4954 80.3845 52.2114C80.6694 51.8988 80.9343 51.57 81.1774 51.2273C81.389 50.9251 81.5774 50.6097 81.7408 50.2839C81.8613 50.9171 81.9815 50.4562 81.8505 51.4281C82.0029 51.7869 82.2277 50.9006 82.2681 50.6038C82.2385 51.3838 82.1376 52.1673 81.9665 52.9451C81.7639 52.8597 81.5474 53.2759 81.2978 53.6833C81.0481 54.0907 80.7941 54.4704 80.6434 54.379C81.118 53.6457 81.5136 52.8724 81.8231 52.0729C81.609 52.0005 81.2567 52.3331 80.8613 52.8321C80.4114 53.4027 80.0439 54.0261 79.7709 54.6822C79.7481 55.0897 80.6226 54.6564 80.7287 54.7245C80.517 54.9459 80.3332 55.1905 80.1823 55.4519C80.0122 55.6744 79.8799 55.9198 79.7912 56.1773C79.9714 56.0078 80.1561 55.8386 80.3352 55.6622C80.1797 56.0482 79.9147 56.3929 79.5736 56.6529C79.212 56.952 78.9489 57.3485 78.8249 57.7814C78.632 58.0894 78.5721 58.9858 78.3234 58.8861C78.3492 58.1179 77.1734 57.2194 76.6696 57.2938C76.6483 57.3496 76.4625 57.7495 76.255 58.1937C76.0626 58.5685 75.8919 58.9517 75.7437 59.3412C75.6786 59.673 75.9994 59.6651 76.3072 59.6519C76.6151 59.6387 76.9595 59.5888 76.8969 59.8797C76.7965 59.8188 76.4611 59.9628 76.3312 60.0303C76.1282 60.3697 76.7034 60.1649 76.0569 60.7103C75.6713 60.52 74.8188 61.8706 75.5317 60.7354C74.8461 61.187 74.9518 61.3762 74.2004 61.9655C74.2601 61.5717 72.9659 61.7715 72.2793 62.1226C72.3779 62.1811 72.3169 62.3967 72.2861 62.5068C70.9958 63.4629 70.3614 64.0845 69.0803 64.8699C69.0124 65.0325 68.4492 65.5122 68.8013 65.5108C68.5054 65.5308 68.2107 65.6168 67.9401 65.7621C67.3418 66.5343 68.8654 65.2771 68.4773 66.0118C68.3097 65.8326 67.2831 66.3274 66.6465 66.5262C66.6412 66.0942 67.9191 65.6969 68.562 65.4893C68.3101 65.0377 67.0699 65.1404 65.6075 65.7183C64.4644 66.2312 65.3038 66.2891 65.0828 66.3351C64.4806 66.7609 63.7873 67.0293 63.0788 67.1108C62.771 67.1436 62.4664 67.2372 62.184 67.3858C61.9016 67.5344 61.6472 67.7348 61.4366 67.9747C60.9594 68.6903 61.7622 68.5473 61.7446 68.8455C62.6541 68.3846 62.9414 67.8151 63.5382 67.4608L62.8965 68.0453C63.337 67.9278 63.7529 67.7092 64.1076 67.4087C63.9071 67.7071 63.0733 68.2251 62.1383 68.858C61.2118 69.4522 60.3442 70.137 59.5512 70.9002C59.2351 71.0134 58.7317 71.2706 58.8525 71.0039L59.3276 70.6833C59.5782 70.1389 58.2525 71.0724 58.7559 70.5114C58.3592 70.6787 57.9715 70.8702 57.5952 71.0849C57.1562 71.336 56.7634 71.6646 56.4397 72.0516L56.546 72.4624C56.4778 72.376 56.9128 71.8223 57.242 71.687C56.7815 71.8714 56.3475 73.1721 55.6555 73.1848L56.0228 72.4625C55.6763 72.6698 55.2511 72.8769 54.8344 73.1279C54.4119 73.3849 54.0379 73.7172 53.735 74.1049C53.7623 73.5263 53.9176 73.9607 54.0899 73.1625C54.0752 73.5637 54.507 73.0943 54.9331 72.6839C55.3592 72.2736 55.7476 71.893 55.6048 72.4302C55.6716 72.0828 55.8477 71.753 56.108 71.4877C56.3889 71.1823 56.6243 70.8415 56.8059 70.4772C56.8648 70.5904 56.7061 70.8754 57.3074 70.2839C57.3779 70.2804 57.4486 70.2678 57.5177 70.2464L57.5607 70.2125L57.5371 70.2545C57.5667 70.2311 57.5826 70.2458 57.5237 70.2651C57.4256 70.3923 57.356 70.5364 57.3201 70.6867C57.6755 70.586 58.0152 70.4222 58.3214 70.204C58.6241 69.989 58.9467 69.8049 59.2834 69.655C59.6399 69.3112 59.032 69.6625 59.1666 69.3966L59.8302 69.1766C59.7131 68.9068 60.6381 68.0403 59.591 68.5864L60.4477 67.9647C60.8883 67.4566 61.4391 67.0486 62.0518 66.7764C62.4413 66.4689 63.2521 66.3858 62.7849 66.4236C63.2706 66.1882 63.7574 65.9597 64.2434 65.7357L64.2251 65.6684C65.5616 64.8315 67.2267 64.4441 68.4698 63.0967C69.053 62.8649 69.6043 62.5468 70.1025 62.1545L70.112 61.8627C70.7015 61.5765 71.5635 60.5805 71.9093 60.6153C71.9885 60.1633 72.5579 59.6749 73.1812 59.1829C73.7655 58.758 74.3064 58.2762 74.7941 57.7461L75.0587 57.9267C75.5468 57.3739 76.0737 56.9035 76.7069 56.2362L76.9115 56.4291C77.2689 56.0844 77.5386 55.665 77.6944 55.2113C77.9027 54.6963 78.0866 54.1228 78.319 53.5887C78.1794 53.6327 78.1047 53.9137 78.0674 54.1262C78.0637 53.3813 78.4102 52.7651 78.7241 52.0966C79.038 51.4282 79.296 50.7221 79.0547 50.1181C79.1071 49.9952 79.134 49.8659 79.1337 49.7381C79.1334 49.6104 79.1059 49.4869 79.0529 49.3756C79.0536 49.4019 79.0497 49.4287 79.0413 49.4548C79.0346 49.4141 79.031 49.3727 79.0306 49.3308L78.8552 48.9318C78.9308 49.0309 78.9894 49.1423 79.0288 49.2622C79.0379 49.0252 79.0272 48.6636 79.0647 48.2913L78.7326 48.2185L78.7285 48.136C78.5502 47.8328 78.8271 47.8245 79.0948 47.9482C79.1094 47.7732 79.1455 47.5982 79.2023 47.4271C78.9297 47.3579 78.906 47.1235 78.8908 46.8667C78.9057 46.7315 78.8766 46.5999 78.8076 46.4907C78.7386 46.3814 78.6332 46.3002 78.5067 46.2586C78.5567 46.1196 78.571 45.9743 78.5483 45.8363C78.5239 45.6452 78.4776 45.4208 78.4412 45.1924C78.3693 44.7312 78.2955 44.2676 78.5199 44.0437C78.4491 44.0645 78.3755 43.9824 78.4473 44.1672C78.1935 43.8543 78.0268 43.4785 77.9613 43.0708L77.5145 43.1236C77.5405 42.7643 77.5591 42.4068 77.5649 42.0439C77.0725 41.6964 76.8319 41.5904 76.8382 42.2281C76.5784 40.844 76.4489 41.2267 76.2221 40.0114L76.0337 40.2147C75.817 39.8794 75.7247 39.1382 75.3974 39.0772C74.9218 38.8723 74.2369 37.9992 73.3691 37.0601C72.5013 36.1209 71.4337 35.1331 70.3867 34.6353C70.822 34.4631 70.5553 34.3738 70.2184 34.2619C69.8815 34.15 69.4903 34.0576 69.6308 33.7715C69.4069 33.847 69.0909 33.7615 69.29 34.0911C69.1093 33.919 68.9027 33.7742 68.6756 33.6608C68.4947 33.5643 68.3073 33.4782 68.1144 33.4028C67.9421 33.3366 67.7809 33.2493 67.6345 33.1429C67.4739 33.0297 67.3406 32.8851 67.2416 32.7169C67.0343 32.8299 67.3208 33.0438 67.1715 33.1033C67.1147 33.0313 66.9251 32.8187 66.7682 32.8686C66.6114 32.9184 66.846 33.072 66.9623 33.2139C65.9559 32.762 66.0605 32.2315 66.1882 31.714C65.9232 31.7513 65.6594 31.7306 65.4165 31.6533C65.2048 31.5716 65.0281 31.4301 64.907 31.2453C64.7741 31.3035 64.6099 31.3552 64.5671 31.4279C64.5242 31.5007 64.6029 31.5672 64.9562 31.6778C64.7464 31.633 64.1151 31.59 63.5422 31.5437C63.2795 31.5347 63.0196 31.5082 62.7644 31.4644C62.5561 31.438 62.4182 31.3793 62.4155 31.2763C62.2758 31.3866 61.8168 31.3244 61.7027 31.3015C61.3666 31.3386 61.0309 31.3967 60.6977 31.4755C60.4407 31.5421 60.1805 31.5606 59.7127 31.6805L59.9606 31.5472C59.5124 31.1727 59.1544 31.6306 58.3888 31.8649L58.421 31.9057C58.0158 32.1437 57.788 32.308 57.6172 32.3844C57.5012 32.437 57.3827 32.4824 57.2623 32.5204C57.1431 32.5569 57.0287 32.6117 56.9237 32.6825C56.6667 32.8469 56.4327 33.046 56.2299 33.273L56.1559 32.9693C55.9315 32.7569 55.6017 33.0406 55.29 33.4853C55.1275 33.6993 54.9591 33.9334 54.7972 34.1703C54.6359 34.3884 54.4438 34.5846 54.2276 34.7523C54.2628 34.6216 54.3064 34.4922 54.358 34.3651C54.0742 34.4917 53.9751 34.9517 53.9418 35.3791L53.9508 36.0146C53.952 36.1001 53.9486 36.186 53.9404 36.2721C53.9396 36.3408 53.9298 36.4101 53.9112 36.4782C53.9181 36.5974 54.0536 36.3658 54.1799 36.2662C54.0309 36.8784 53.9465 36.871 53.7923 36.8136C53.7182 36.7695 53.6304 36.7483 53.5391 36.7525C53.463 36.7718 53.3916 36.8109 53.333 36.8655C53.2744 36.92 53.2308 36.9878 53.2072 37.0612C53.3459 37.2867 53.8065 37.0361 53.6277 37.5939C53.6306 37.647 53.6153 37.7014 53.5843 37.7489C53.5547 37.8293 53.517 37.9073 53.4717 37.9819C53.3832 38.157 53.2107 38.3749 53.1068 38.6244C52.9852 38.8781 52.9011 39.144 52.8574 39.4133C52.8139 39.6661 52.8507 39.9172 52.9629 40.1324C52.8911 40.0523 52.7997 39.9913 52.6955 39.9539C52.6204 39.947 52.5218 40.021 52.4951 40.2523C52.5051 40.4531 52.5458 40.648 52.6159 40.8308C52.6983 41.0345 52.8245 41.2386 52.916 41.4429C53.0134 41.6369 53.0988 41.8374 53.1719 42.0433C53.2237 42.2355 53.2208 42.4434 53.1635 42.6458C53.2429 42.7078 53.299 42.718 53.3415 42.7001C53.375 43.2617 53.9241 44.3551 53.8685 44.804C54.0254 44.7936 54.1782 44.8216 54.3129 44.8852C54.4477 44.9489 54.5602 45.0462 54.6403 45.1685C54.8722 45.4739 55.0843 45.7942 55.2754 46.1277C55.4553 46.4389 55.67 46.7275 55.9161 46.989C56.1279 47.1801 56.3315 47.2336 56.5084 47.0434C56.9114 47.438 57.3475 47.8026 57.7943 48.1587L57.8252 48.0487C58.0257 48.1691 58.2155 48.3043 58.3932 48.4533C58.5255 48.5579 58.6476 48.6738 58.7583 48.7999C58.9128 48.9909 59.0422 49.2012 59.1439 49.4264C59.4111 49.4998 59.2889 49.3119 59.3106 49.2675C59.8427 49.4646 60.3552 49.7004 60.8443 49.9731C61.2584 50.2666 61.6471 50.5911 62.0075 50.9439L62.2851 50.6936C62.4101 50.8519 63.0321 50.9218 63.7751 51.0013C64.5744 51.0495 65.363 51.1532 66.135 51.3118C66.1237 51.2764 66.1042 51.2447 66.0779 51.2191C66.0516 51.1934 66.0191 51.1743 65.9828 51.1632C66.4255 51.2577 66.8959 51.2489 67.3577 51.1372C67.8153 51.0225 68.2635 50.8582 68.6935 50.6475C69.502 50.2742 70.1161 49.9141 70.6713 50.2197C71.0711 50.0916 71.4637 49.9353 71.8458 49.7522C71.6556 49.8857 71.4904 50.0519 71.3596 50.2411C71.3343 50.3195 71.4316 50.3323 71.5335 50.3453C71.7633 50.3548 72.1098 50.2799 71.8678 50.5644C72.1654 50.3757 72.4132 50.1168 72.5847 49.8154C72.7118 49.5788 72.6794 49.4603 72.3456 49.7004L72.2841 49.8268C72.1333 49.7628 72.142 49.6469 72.2565 49.4825C72.403 49.2944 72.5613 49.1148 72.7303 48.9449C73.104 48.5565 73.4809 48.1226 73.3052 48.0159C74.3477 46.8352 75.1257 45.4673 75.5804 44.0154C76.0242 42.5931 76.3123 41.1447 76.4395 39.6957L76.8646 40.03C76.9012 39.6896 76.9312 39.3465 76.9494 39.005C76.8644 38.7371 76.6071 38.6598 76.5598 39.3787C76.3285 39.0083 76.8979 38.1498 76.9878 38.1256C76.8562 36.7105 76.4048 38.7182 76.4102 38.2777L76.472 37.6876L76.5212 37.8162C76.7347 37.3244 76.9543 37.2601 76.9251 36.3835C76.8197 35.8357 76.6239 36.1344 76.6016 35.9183C76.566 35.923 76.5504 35.8535 76.5788 35.5857C76.5499 35.1568 76.5182 34.73 76.4773 34.3027L76.8857 34.7593C77.045 34.1545 76.7904 33.5337 77.2605 34.074C76.8979 33.6864 76.7584 32.4878 76.6065 31.3342C76.4545 30.1805 76.3318 29.0583 76.1882 28.8212C76.2752 27.9339 76.1775 27.0584 75.9008 26.2476C76.0328 26.4589 76.4841 26.4727 76.2398 25.6606C75.4579 26.2389 75.513 24.2869 74.6901 23.8577C75.2778 24.2818 74.101 21.5535 74.9544 22.2314C74.6655 21.5948 74.6247 22.3164 74.2557 21.8987C74.0622 20.1898 72.8138 18.5696 72.0546 16.7074C72.154 16.6289 72.4543 16.8437 72.4249 16.3645C72.1022 16.1324 71.7579 15.9173 71.4237 15.6982C71.2928 15.3224 71.8663 15.0216 71.1507 14.6011C71.2879 14.6369 71.4953 14.6952 71.3987 14.4403C70.1871 12.8612 69.205 11.1088 67.9398 9.54472C66.6746 7.98064 65.207 6.54129 63.2528 5.84438C63.8367 5.95989 63.5593 5.74654 63.2282 5.50938C63.4807 5.61384 63.4038 5.27338 63.5484 5.17482C63.2714 5.07801 62.9998 4.97695 62.7239 4.88705L61.8815 4.64844C61.8851 4.37684 61.5026 4.16853 61.1102 3.96418C60.7178 3.75983 60.3519 3.58908 60.3754 3.37579C60.5252 3.47172 60.6821 3.55435 60.8257 3.65904C60.6337 3.28872 60.9882 3.14128 61.4448 3.04573C61.9014 2.95018 62.4434 2.86898 62.5697 2.57059C62.7946 3.00458 63.3731 3.12432 64.0219 3.30545C64.6707 3.48658 65.3409 3.78323 65.6073 4.53498C65.9371 4.6213 65.5307 4.20595 65.7737 4.19333C65.8241 4.41495 65.9355 4.61319 66.0965 4.76807C66.3134 4.99566 66.5632 5.19132 66.8394 5.3501L66.8191 5.2415C67.6251 5.99184 68.2091 6.51623 68.8284 7.06333C69.5696 7.70088 70.2659 8.38553 70.9135 9.11362L70.5435 9.16419C70.7451 9.39282 70.983 9.58811 71.2497 9.744C71.2323 10.1472 71.0062 9.83881 70.7759 9.54155C70.5456 9.24428 70.2855 8.95889 70.2418 9.33998C70.5519 9.43294 70.8155 9.61857 70.998 9.87258C71.2821 10.1976 71.5417 10.5431 71.7751 10.9067C72.303 11.6584 72.7399 12.3885 73.1881 12.393C73.5923 13.0983 72.7471 12.3867 73.1521 13.0875L73.4314 13.1707L73.3046 13.4851C73.6027 13.9235 73.9342 14.0396 74.0962 13.9741C74.0232 13.8186 73.9626 13.6569 73.9148 13.4902C74.1972 13.8092 74.4118 14.1822 74.5482 14.591C74.6389 14.8911 74.7554 15.1808 74.8964 15.4574L74.4498 14.8089C74.8442 15.8608 75.3752 16.9644 75.8186 18.1061C76.2658 19.1902 76.5826 20.3325 76.7632 21.5124L76.5722 21.4139C76.7927 23.0743 77.1256 22.6012 77.4676 24.3877L77.4848 24.3156C77.4385 24.7816 77.4777 25.2427 77.6003 25.6772C77.6672 25.1765 78.1223 26.4103 78.1744 25.7693C78.259 27.611 78.1395 26.7083 77.8105 28.004L78.1014 28.2067C77.8899 28.666 77.8247 29.1628 77.9148 29.6276C78.0126 28.8454 78.3723 30.1077 78.5212 29.2191C79.3401 30.9912 78.335 32.143 79.1988 32.8671C78.6002 33.8654 78.675 31.2865 78.5701 31.8055C78.3116 31.4448 78.1395 32.6245 78.2539 33.2002C78.2978 33.8082 79.2133 34.0787 79.2377 35.6563C79.2307 35.4982 79.2824 35.4808 79.2772 35.3252C79.4619 35.8961 79.0686 36.5026 79.3272 37.2059C78.9093 37.6487 79.3155 38.1577 78.7853 38.3036C78.8456 37.8275 78.9002 37.3443 78.951 36.8563C78.799 37.6968 78.1763 38.4766 78.3103 39.8119C78.4907 39.5703 78.6271 39.3029 78.7124 39.0232C78.8347 39.4213 78.5319 39.7889 78.6346 40.2063C78.8985 40.1538 78.996 39.7029 79.0571 39.1561C79.0804 38.6057 79.1859 38.0527 79.3703 37.5146C79.5838 37.9342 78.8898 39.2259 79.4808 38.7594C79.0903 39.0988 79.0817 39.4911 79.0666 39.9471C79.095 40.4598 78.9483 40.9859 78.649 41.4452L78.9696 41.3985C78.8113 41.666 78.687 41.9487 78.6 42.2394L79.1259 41.6958C78.9024 42.1165 78.7894 42.5748 78.7978 43.0258C78.8041 43.4733 78.6991 43.9276 78.4916 44.3503C78.8189 43.4337 78.7315 43.3119 78.6119 43.3206C78.4923 43.3293 78.2864 43.4607 78.2939 43.0614C77.7683 44.119 77.8196 44.4602 77.9067 44.8744C77.9695 45.1167 77.9786 45.3746 77.9336 45.6321C77.9017 45.8281 77.8436 46.0219 77.7608 46.2086C77.6518 46.4784 77.5138 46.7389 77.3492 46.9853C77.5914 46.6734 77.8303 45.6669 77.4405 46.1343C77.3557 46.3804 77.2565 46.669 77.1628 46.926C77.0838 47.1537 77.0231 47.3853 76.9813 47.6185C75.8983 49.1355 76.8787 47.2399 76.2866 47.8046C76.2395 48.4961 75.6478 48.4647 75.0514 49.0017L75.285 49.1872C75.1121 49.4714 74.8809 49.7217 74.6079 49.9204C74.5552 49.9603 74.4953 49.9893 74.4324 50.0052C74.3696 50.0211 74.3055 50.0236 74.2446 50.0125C74.0565 49.9896 73.9055 49.953 73.2951 50.649C73.5906 50.5871 73.8699 50.499 74.1649 50.4142C73.8963 50.6263 73.641 50.8277 73.352 50.9974L73.7285 51.1209C72.9736 51.5129 72.2576 51.9827 71.5942 52.5213C71.654 52.3651 71.558 52.2656 71.3484 52.2597C71.0239 52.2802 70.7 52.3696 70.3997 52.5217C69.8786 52.9331 70.838 52.6626 69.5692 53.1267C69.7422 53.179 69.9279 53.1965 70.1157 53.1783C70.2386 53.1589 70.3586 53.1139 70.4672 53.0463C70.5758 52.9787 70.6705 52.8903 70.7444 52.7871C70.8376 52.8499 71.094 52.8267 71.1925 52.8852C70.6316 53.4175 69.5253 53.6677 69.0459 53.8007C69.254 53.7386 69.4541 53.6451 69.6384 53.5238C69.3058 53.5673 68.973 53.5921 68.6417 53.5979L68.1487 53.5976L67.6772 53.5803C67.3898 53.7409 67.6254 53.7964 67.8818 53.8394C67.4805 53.8835 67.2166 53.7647 66.662 53.7857C66.7973 54.0178 66.7455 54.3002 67.5882 54.3127C67.27 54.3184 66.9556 54.2901 66.6479 54.276C66.3402 54.2618 66.035 54.2067 65.7401 54.159C65.6085 54.2629 64.7586 54.4236 64.9791 54.5261C64.6964 54.533 64.4183 54.5022 64.1525 54.4347C63.8565 54.3482 63.5668 54.2466 63.2845 54.1305C62.7183 53.8633 62.118 53.6583 61.4936 53.5189C61.3939 53.4044 61.2688 53.3136 61.126 53.2522C60.05 52.9331 58.9585 52.7821 58.0177 51.8499C57.7198 51.8592 57.4192 51.8706 57.1129 51.8748C56.7044 51.5507 57.0094 51.567 57.2415 51.524C57.4736 51.481 57.6338 51.3857 56.9776 50.8638C56.0886 50.0855 56.3718 50.9525 55.9324 50.8047L55.6372 50.3367C55.524 50.1431 55.3971 49.9584 55.2572 49.7836C54.9468 49.3675 54.5358 49.0357 54.0548 48.8127C54.2528 49.0708 54.473 49.311 54.7135 49.5312ZM50.2207 37.8296C50.0621 38.0872 49.7826 38.639 49.9447 38.8499C50.3571 38.5438 50.1852 38.3094 50.2207 37.8296ZM67.5403 30.6427C67.4433 30.5593 67.3268 30.499 67.1984 30.4659C67.0701 30.4329 66.9329 30.4279 66.7961 30.4512C67.0279 30.5542 67.2791 30.6188 67.5403 30.6427ZM61.1615 67.6427C61.1718 67.6402 61.1821 67.6386 61.1925 67.6378C61.6209 67.2139 61.476 67.3672 61.1615 67.6427ZM60.2408 68.4318C60.121 68.4679 60.1026 68.428 60.1228 68.3653C60.3384 68.3105 60.5388 68.1944 60.6974 68.0325C60.681 68.1388 60.5813 68.2721 60.2488 68.4255L60.2408 68.4318ZM76.6951 35.7938L76.7818 35.9864C76.8722 35.5099 76.7946 35.6491 76.7032 35.7875L76.6951 35.7938Z" fill="white"/>
<path d="M65.622 29.61C65.5544 29.6351 65.4955 29.6816 65.4554 29.7415C65.3852 29.6801 65.3952 29.6099 65.622 29.61Z" fill="white"/>
<path d="M61.4334 53.5198L61.4738 53.5269C61.486 53.5463 61.4909 53.5699 61.4875 53.594L61.4334 53.5198Z" fill="white"/>
<path d="M76.6717 60.3069C76.7782 60.171 76.8563 60.0178 76.901 59.8572C76.9642 59.893 76.939 60.0103 76.6717 60.3069Z" fill="white"/>
<path d="M54.9739 72.1339C55.1807 71.9706 55.3876 71.8073 55.5945 71.644C55.4099 71.7958 55.2596 71.9837 55.1557 72.1929C55.1186 72.1404 55.1559 71.9668 54.9739 72.1339Z" fill="white"/>
<path d="M52.0786 78.2323C51.99 78.3022 51.9427 78.4136 51.8422 78.4851L51.7569 78.3771C52.0162 78.0206 52.3008 77.8232 52.0786 78.2323Z" fill="white"/>
<path d="M55.1724 73.313C55.307 73.5222 54.9214 73.8071 54.5255 74.1507C54.5506 74.1328 54.5748 74.1137 54.5981 74.0935C54.2089 73.9761 54.6899 73.6354 55.1724 73.313Z" fill="white"/>
<path d="M54.4237 74.2428C54.2995 74.3507 54.1862 74.4701 54.0858 74.5991C53.9383 74.5558 54.19 74.4273 54.4237 74.2428Z" fill="white"/>
<path d="M58.9193 69.1941C58.7511 69.4008 58.6063 69.0516 58.542 69.2076C58.1209 69.1272 60.1485 68.4808 58.9193 69.1941Z" fill="white"/>
<path d="M55.4721 74.1788L55.375 73.8349C55.5027 73.8198 55.6341 73.8095 55.7744 73.7884C55.6479 73.9154 55.5684 74.0522 55.4721 74.1788Z" fill="white"/>
<path d="M58.3457 71.2288L57.7648 71.8353C57.7326 71.7946 57.6396 71.8369 57.5261 71.903C57.9101 71.5609 58.3023 71.1463 58.3457 71.2288Z" fill="white"/>
<path d="M57.5392 71.8923C57.3792 72.0559 57.1982 72.1987 57.0019 72.3164C57.1683 72.1597 57.3482 72.0177 57.5392 71.8923Z" fill="white"/>
<path d="M56.3456 73.4463L56.476 73.2304C56.6075 73.0876 56.7493 72.9524 56.8891 72.8147C56.69 73.0264 56.518 73.2284 56.3456 73.4463Z" fill="white"/>
<path d="M65.7339 66.16L66.555 65.7805C66.6834 65.8272 66.5035 66.0081 66.1907 66.1421C65.9697 66.188 65.6595 66.3199 65.7339 66.16Z" fill="white"/>
<path d="M63.805 68.3016C63.9156 68.1839 63.9921 68.0409 64.0253 67.8902L64.2379 68.2092L63.805 68.3016Z" fill="white"/>
<path d="M66.0925 67.0292C66.2209 67.0758 67.3659 66.6316 66.3733 67.197C66.2411 67.1456 65.4273 67.5232 66.0925 67.0292Z" fill="white"/>
<path d="M76.8823 58.563L76.7186 58.7312L76.2607 58.3059L76.8823 58.563Z" fill="white"/>
<path d="M82.1498 47.4491C82.4214 48.5278 81.7895 47.788 82.0533 48.7521C81.9776 48.8937 81.9292 48.6943 81.8827 48.4973C81.8362 48.3003 81.7672 48.1133 81.6933 48.2573C81.8194 47.5774 81.668 47.253 82.1498 47.4491Z" fill="white"/>
<path d="M81.7237 48.2683C81.7095 48.3856 81.6851 48.5026 81.6509 48.618C81.6652 48.5007 81.6896 48.3838 81.7237 48.2683Z" fill="white"/>
<path d="M60.7379 4.4258C60.5373 4.38161 60.3463 4.32201 60.1426 4.2959C60.2938 4.27539 60.4452 4.2625 60.5961 4.25727L60.7379 4.4258Z" fill="white"/>
<path d="M59.9639 3.51751L59.6305 3.83527L59.4854 3.34218C59.5945 3.41964 59.8159 3.55647 59.9639 3.51751Z" fill="white"/>
<path d="M50.2125 35.4717L50.3345 35.4494C50.369 35.6091 50.2732 35.786 50.1471 36.1621C50.1492 35.9327 50.1711 35.7017 50.2125 35.4717Z" fill="white"/>
<path d="M50.9714 45.6691L50.8853 45.5268L51.3752 45.5841L50.9714 45.6691Z" fill="white"/>
<path d="M56.0574 51.6094C55.7793 51.4394 55.531 51.1525 55.2583 50.9783C55.7858 51.4421 56.4277 51.2665 56.0574 51.6094Z" fill="white"/>
<path d="M47.7648 104.254C47.8298 104.254 47.6808 104.496 47.6656 104.543C47.6055 104.45 47.8015 104.19 47.7648 104.254Z" fill="white"/>
<path d="M47.205 103.318L47.1631 103.425L47.1768 103.122L47.205 103.318Z" fill="white"/>
<path d="M46.4113 102.959C46.7257 102.578 46.6517 103.159 46.8837 103.077L46.9591 102.99L46.8211 103.368C46.6883 103.227 46.5953 102.899 46.4113 102.959Z" fill="white"/>
<path d="M45.4589 103.652C45.5802 103.502 45.4467 103.471 45.5869 103.649L45.5439 103.683C45.5194 103.665 45.4902 103.655 45.4589 103.652Z" fill="white"/>
<path d="M45.5532 103.695C45.6323 103.745 45.4189 103.801 45.5532 103.695V103.695Z" fill="white"/>
<path d="M45.212 103.395L45.2348 103.595C45.1556 103.677 45.0424 103.65 45.0441 103.746C44.9724 103.6 45.0535 103.52 45.212 103.395Z" fill="white"/>
<path d="M45.2922 103.044L45.3111 103.134C45.2772 103.169 45.2554 103.174 45.2922 103.044Z" fill="white"/>
<path d="M45.3545 103.322L45.3111 103.134C45.3755 103.083 45.4513 102.942 45.3377 103.207C45.4038 103.08 45.356 103.208 45.3545 103.322Z" fill="white"/>
<path d="M45.4592 103.294C45.5784 103.235 45.6877 103.219 45.6729 103.012C45.8403 103.18 45.6365 103.458 45.4592 103.294Z" fill="white"/>
<path d="M46.6221 102.508L46.7734 102.424L46.7616 102.597C46.7648 102.512 46.5395 102.636 46.6221 102.508Z" fill="white"/>
<path d="M44.3987 103.254C44.4797 103.145 44.5662 103.039 44.6581 102.937L44.6747 103.079C44.5675 103.105 44.4695 103.168 44.3987 103.254Z" fill="white"/>
<path d="M44.6581 102.937L44.6331 102.723C44.755 102.767 44.7251 102.845 44.6581 102.937Z" fill="white"/>
<path d="M45.552 102.578L45.5559 102.991L45.5194 102.553L45.552 102.578Z" fill="white"/>
<path d="M43.9286 103.018L43.8683 103.256L43.9425 102.886L43.9286 103.018Z" fill="white"/>
<path d="M43.6525 102.811C43.5928 103.006 43.4028 103.047 43.3836 103.183C43.323 103.107 43.3455 102.925 43.3668 102.764C43.3871 102.873 43.4709 102.896 43.6525 102.811Z" fill="white"/>
<path d="M43.3865 102.519C43.3886 102.6 43.382 102.683 43.3666 102.764C43.355 102.684 43.3618 102.6 43.3865 102.519Z" fill="white"/>
<path d="M44.4018 102.656C44.3374 102.742 44.2506 102.811 44.1519 102.853L44.3546 102.635L44.4018 102.656Z" fill="white"/>
<path d="M44.3629 102.629L44.2539 102.59L44.3629 102.629Z" fill="white"/>
<path d="M44.4171 102.664C44.4269 102.636 44.4353 102.629 44.4171 102.664V102.664Z" fill="white"/>
<path d="M45.1036 102.639C45.12 102.467 45.0691 102.242 45.338 102.108C45.2829 102.303 45.1286 102.378 45.1036 102.639Z" fill="white"/>
<path d="M44.6709 102.389L44.8332 102.402C44.7685 102.468 44.7216 102.548 44.6977 102.633L44.6709 102.389Z" fill="white"/>
<path d="M44.6597 102.281L44.6709 102.389L44.6113 102.386L44.6597 102.281Z" fill="white"/>
<path d="M43.7513 102.418C43.7599 102.372 43.7559 102.327 43.7399 102.286C43.7238 102.245 43.6962 102.211 43.6599 102.186C43.754 102.176 43.846 102.193 43.9246 102.234C43.8829 102.314 43.8231 102.47 43.7513 102.418Z" fill="white"/>
<path d="M44.0615 102.501L44.0498 102.486C44.0803 102.462 44.0925 102.46 44.0615 102.501Z" fill="white"/>
<path d="M43.9633 102.2C44.0451 102.182 44.0408 102.26 44.0204 102.35C44.0009 102.302 43.969 102.262 43.9276 102.232C43.9538 102.188 43.9482 102.181 43.9633 102.2Z" fill="white"/>
<path d="M43.281 102.302C43.34 102.271 43.4011 102.245 43.4636 102.224C43.3876 102.288 43.2462 102.369 43.281 102.302Z" fill="white"/>
<path d="M43.9977 102.535C43.9473 102.595 43.9634 102.57 43.9977 102.535V102.535Z" fill="white"/>
<path d="M43.997 102.536C43.9972 102.473 44.006 102.41 44.023 102.348C44.0448 102.387 44.0567 102.433 44.0577 102.48C44.0366 102.497 44.0163 102.516 43.997 102.536Z" fill="white"/>
<path d="M43.9029 100.168C43.7544 100.394 43.7457 100.681 44.0237 100.509C44.0218 100.744 43.4394 101.426 43.0553 101.768C43.0993 101.711 43.1309 101.646 43.1479 101.579C43.1649 101.512 43.1668 101.443 43.1536 101.378C43.2772 101.281 43.6149 101.256 43.648 100.988C43.571 100.78 43.465 100.989 43.3069 101.059C43.5604 100.828 43.3934 100.539 43.717 100.159L43.7469 100.384C43.7995 100.335 43.8251 100.202 43.9029 100.168Z" fill="white"/>
<path d="M43.3017 101.881L43.3414 101.931C43.2031 101.967 43.0721 102.034 42.9599 102.127C42.9503 102.017 42.9776 101.903 43.0379 101.801L43.3045 101.918L43.3017 101.881Z" fill="white"/>
<path d="M43.5549 102.074C43.6803 101.808 43.6342 101.622 43.8867 101.423C44.0193 101.525 43.8499 101.686 43.8612 101.833C43.6665 101.636 43.8376 102.007 43.5925 102.045C43.6062 102.099 43.6353 102.148 43.6768 102.185C43.6108 102.189 43.5447 102.202 43.4803 102.223C43.5125 102.198 43.5287 102.185 43.5099 102.2C43.5284 102.164 43.5458 102.131 43.562 102.1C43.4608 102.11 43.5002 102.149 43.5099 102.2L43.4871 102.237L43.3274 101.946C43.4057 101.935 43.4627 101.98 43.5549 102.074Z" fill="white"/>
<path d="M45.5475 101.511C45.5297 101.526 45.5146 101.545 45.5029 101.565C45.5074 101.526 45.5141 101.502 45.5475 101.511Z" fill="white"/>
<path d="M45.3564 101.606C45.3512 101.649 45.3047 101.756 45.3753 101.763C45.4718 101.714 45.4497 101.642 45.5025 101.565C45.4947 101.649 45.509 101.805 45.3269 101.867L45.3321 101.824C45.153 101.891 44.9896 101.999 44.8577 102.14C45.0091 101.95 45.176 101.771 45.3564 101.606Z" fill="white"/>
<path d="M44.5122 101.79L44.3953 101.559L44.6353 101.405L44.5463 101.53C44.6727 101.535 44.5457 101.678 44.5122 101.79Z" fill="white"/>
<path d="M42.9097 101.909L42.756 102.179L42.8954 101.753L42.9097 101.909Z" fill="white"/>
<path d="M42.6747 101.722L42.529 101.946L42.5545 101.774L42.6747 101.722Z" fill="white"/>
<path d="M45.4573 102.855L45.4681 102.952C45.4585 102.921 45.4549 102.888 45.4573 102.855Z" fill="white"/>
<path d="M45.0445 102.625L45.1109 102.51C45.0845 102.581 45.062 102.63 45.0445 102.625Z" fill="white"/>
<path d="M39.8486 95.2087C40.0825 95.0631 40.4124 94.8182 40.212 95.0504L40.0056 95.264C39.9843 95.1873 39.9229 95.1813 39.8486 95.2087Z" fill="white"/>
<path d="M42.7084 99.2955L42.6331 99.3548L42.7486 99.0923L42.7084 99.2955Z" fill="white"/>
<path d="M42.0332 100.307L42.2514 100.225C42.1834 100.266 42.1093 100.294 42.0332 100.307Z" fill="white"/>
<path d="M48.77 104.345C48.8162 104.433 48.8686 104.522 48.9271 104.611C48.6975 104.64 48.8062 104.468 48.77 104.345Z" fill="white"/>
<path d="M40.2292 99.9166C40.1383 99.9519 40.0414 99.9588 39.9526 99.9363C40.1372 99.8607 40.3646 99.7124 40.2292 99.9166Z" fill="white"/>
<path d="M47.1004 100.203C47.1033 100.264 47.0833 100.327 47.0439 100.38C47.0401 100.349 47.0432 100.318 47.053 100.287C47.0627 100.257 47.0789 100.228 47.1004 100.203Z" fill="white"/>
<path d="M39.7535 99.7781C39.7804 99.7569 39.8071 99.7631 39.8342 99.7534C39.8384 99.7918 39.8511 99.8281 39.8715 99.8597C39.8919 99.8913 39.9196 99.9174 39.9526 99.9365C39.8065 99.9778 39.6869 99.9865 39.7535 99.7781Z" fill="white"/>
<path d="M57.7712 97.5026C57.7729 97.488 57.7722 97.4735 57.7691 97.4596C57.7955 97.4874 57.7891 97.4965 57.7712 97.5026Z" fill="white"/>
<path d="M58.4266 93.5327C58.3866 93.5444 58.349 93.5648 58.3166 93.5922C58.329 93.5747 58.3604 93.5538 58.4266 93.5327Z" fill="white"/>
<path d="M41.5899 101.176C41.631 101.228 41.5775 101.206 41.5899 101.176V101.176Z" fill="white"/>
<path d="M42.5482 100.407C42.5627 100.363 42.5851 100.32 42.6143 100.281C42.587 100.321 42.5647 100.363 42.5482 100.407Z" fill="white"/>
<path d="M40.4814 98.0044C40.5298 97.9702 40.5197 97.9742 40.4814 98.0044V98.0044Z" fill="white"/>
<path d="M41.7499 101.119C41.7115 101.137 41.6703 101.145 41.6299 101.144C41.6691 101.13 41.7095 101.122 41.7499 101.119Z" fill="white"/>
<path d="M41.6548 101.225C41.6764 101.226 41.6977 101.229 41.7181 101.234C41.7002 101.283 41.6761 101.302 41.6548 101.225Z" fill="white"/>
<path d="M41.5269 101.113C41.54 101.125 41.5561 101.134 41.5738 101.14C41.5916 101.145 41.6108 101.147 41.6301 101.144C41.6218 101.147 41.614 101.151 41.6071 101.156C41.6001 101.162 41.5943 101.169 41.5898 101.176L41.5269 101.113Z" fill="white"/>
<path d="M53.0288 100.372C53.0288 100.372 53.0288 100.372 53.0137 100.353C53.1463 100.388 53.1135 100.391 53.0288 100.372Z" fill="white"/>
<path d="M39.2741 98.8168C39.4329 98.4656 39.3518 98.4789 39.2463 98.4999L39.8311 97.8708L39.2741 98.8168Z" fill="white"/>
<path d="M40.6535 85.3532C40.5702 85.2837 40.4848 85.2104 40.3954 85.1294C39.9683 85.5339 40.1202 85.7941 39.757 85.5835C39.8395 85.5682 39.9193 85.5345 39.9899 85.485C40.0604 85.4355 40.1197 85.3717 40.163 85.2988C40.1956 85.2382 40.2177 85.1738 40.2284 85.1083C40.2488 85.0489 40.2447 84.9537 40.2502 84.928C40.2737 84.7717 40.3015 84.6029 40.7464 84.5561L40.5584 84.4695C40.5674 84.5018 40.5143 84.51 40.5337 84.5413C40.1067 84.3801 41.184 84.3257 41.0591 84.075C41.0306 84.0257 40.9827 83.9909 40.9249 83.9777C40.8672 83.9646 40.8041 83.9741 40.7483 84.0042L40.973 83.7793C40.956 83.7215 40.8021 83.7404 40.8159 83.8075L40.8921 83.4881L40.8704 83.4831C41.0249 83.4161 41.1751 83.3377 41.3194 83.2486C41.1914 83.1824 41.2254 83.298 41.1144 83.2895L41.3346 83.0972C41.1047 83.0448 40.8734 83.211 40.9166 83.3388C40.0266 83.2573 41.1437 83.175 40.6279 82.8723L40.5107 83.0476C40.0057 82.9865 40.1921 82.8438 39.8782 82.6847C40.0429 82.7222 40.6692 82.9861 40.8948 82.7781C40.8298 82.7331 40.7994 82.6655 40.9741 82.547C40.6572 82.5725 40.7373 82.4661 40.7594 82.3432L40.3363 82.3849C40.4625 82.2419 40.6765 82.2334 40.8665 82.1386C40.8286 81.9953 40.5047 81.9922 40.2287 81.9765C40.1679 81.7438 40.7507 82.0954 40.8348 81.8115C40.6811 81.6249 40.8551 81.4794 41.1208 81.2031C40.9768 81.076 40.8607 81.2483 40.7407 81.2075L41.0829 81.0598C41.0926 81.0317 40.9742 81.035 40.92 81.0564C41.0531 80.9419 41.3399 81.0139 41.4622 80.8431C41.9272 80.7671 40.7925 80.5593 41.3268 80.3206C41.211 80.2774 41.0678 80.3626 40.9079 80.3599C41.1204 80.1497 41.3684 79.9775 41.6382 79.8527L41.3629 79.6789C41.6575 79.7965 42.0616 79.5955 42.3709 79.4168C42.5231 79.4514 42.6536 79.4812 42.7166 79.5123L42.9575 79.2305C42.8277 79.2202 42.6937 79.2418 42.5675 79.2932C42.6002 79.2741 42.6341 79.257 42.6687 79.2421C42.4658 79.1842 42.2393 79.206 42.0347 79.3032C42.1186 79.3223 42.2087 79.3428 42.2903 79.3782C42.0315 79.4656 41.7653 79.5183 41.4995 79.5349C41.5467 79.517 41.5883 79.4851 41.6178 79.444C41.5609 79.4651 41.5016 79.4756 41.443 79.4749C41.3995 79.465 41.4922 79.4389 41.6028 79.39L41.1369 79.3614L41.3231 79.3364L41.0303 79.0475C41.5182 78.7781 42.2135 78.529 42.4347 78.1483C42.1112 78.2188 41.7841 78.2452 41.463 78.2267C41.8889 78.3035 41.2687 78.5192 41.3444 78.7183C41.304 78.6215 41.1052 78.6638 41.0374 78.6854L41.4507 78.3115C41.1067 78.3375 41.2021 78.2549 41.0701 78.1709C41.7291 78.2031 41.5239 77.8836 41.7332 77.7326C41.511 77.7359 41.2841 77.7819 41.3228 77.9523C40.8376 77.7846 42.1088 77.6632 41.6995 77.4993C41.6855 77.5399 41.7247 77.5623 41.6103 77.5834C41.8119 77.4744 41.6647 77.259 41.4762 77.3104L41.4623 77.351C41.3999 77.0741 41.5112 76.4967 42.0736 76.4295C42.0053 76.4139 41.3814 76.4941 41.2825 76.5187L43.1952 75.944C42.7106 76.0088 41.5802 75.886 41.292 76.1302C41.2262 76.0681 41.1534 75.9875 41.3346 75.8402C41.5686 75.8992 41.8185 75.9067 42.0674 75.8623C41.812 75.795 41.5708 75.6937 41.3501 75.5609C41.4481 75.627 42.2051 75.5199 42.1907 75.4156C42.0763 75.4366 41.4481 75.4317 41.3667 75.4737L42.1372 75.1811C41.8553 75.238 41.5708 75.2319 41.3057 75.1635C41.4455 75.1954 41.3114 74.9324 41.3912 74.8462L41.5541 74.9574C41.4671 74.6547 42.6168 74.6236 42.6025 74.324C42.4473 74.3661 41.6563 74.4452 41.5749 74.292C41.7737 74.2497 42.2586 74.1547 42.7251 74.0353L42.8152 74.0559C42.4632 74.0777 42.1115 74.167 41.7802 74.3186L41.984 74.3885L41.6984 74.5761C42.2278 74.4979 43.2954 74.2865 43.8534 74.1542L41.6478 74.0796C41.5862 74.1128 41.532 74.1341 41.484 74.1568C41.4365 74.1238 41.3817 74.1011 41.3227 74.0898L44.1719 74.183C44.2278 74.1957 44.2462 74.2201 44.2141 74.3138C44.2681 74.3396 44.3321 74.3442 44.3943 74.3267C44.4564 74.3093 44.5123 74.2709 44.5515 74.2189L40.9405 74.1004L44.5826 74.226L44.6367 74.5953C44.2053 74.5442 44.1417 74.8462 43.784 74.8052L44.2971 74.4135C43.8678 74.3562 43.0185 74.5467 43.0382 74.8307C43.3433 74.8685 43.6548 74.8763 43.9683 74.8539C43.8102 74.8751 43.6365 75.0881 43.7358 75.1209L43.9913 75.0208C44.1277 75.1798 43.3745 75.2171 43.7521 75.4344C43.7701 75.4991 44.2845 75.6499 44.0146 75.6457C43.2302 75.4999 42.4232 75.4369 41.6067 75.4577C41.8018 75.6382 42.0232 75.7905 42.2652 75.9107C42.6387 76.0328 43.2238 75.7923 43.5456 75.8992C43.4341 75.9045 43.3224 75.9292 43.2156 75.9722C43.3093 76.0407 43.5916 75.9602 43.507 76.0992C43.0625 76.1058 43.5007 76.3907 43.1244 76.1501C42.9733 76.2875 43.1891 76.303 43.1489 76.4689C42.761 76.4382 42.3594 76.5308 42.0028 76.7332C42.1127 76.7327 42.2203 76.7481 42.3221 76.779C42.3209 77.0751 42.5009 77.2339 42.4835 77.4893C42.5891 77.5133 42.705 77.6441 42.9061 77.5855C42.8215 77.6269 42.6654 77.662 42.6468 77.7453C43.0147 77.9032 42.7122 77.5548 43.1781 77.6811C42.9194 77.6929 42.7926 77.8964 42.6199 78.0187C42.2226 77.9855 42.5742 77.7423 42.7551 77.6252C42.2479 77.6205 41.7374 77.813 41.335 78.1605C41.1777 78.3941 41.6892 78.2412 41.6035 78.2958C41.66 78.7262 40.5981 78.6965 40.9732 79.048C41.3165 79.18 41.6774 79.0265 41.9305 79.0505C42.077 78.8582 41.7249 78.7713 41.7367 78.6393L41.8918 78.7925C42.014 78.7294 42.1151 78.6008 42.0192 78.5386C42.3171 78.6468 42.0227 79.26 42.2965 79.5749C42.1743 79.638 42.0464 79.747 41.916 79.7072L41.9722 79.6021C41.6864 79.537 41.5628 79.8187 41.4406 79.6966C41.2344 79.8483 40.9105 80.0305 41.0631 80.2201L41.4648 80.2308C41.3464 80.2341 41.2293 80.1166 41.3557 80.051C41.1719 80.1473 41.8864 80.3201 41.3565 80.4486L41.064 80.3247C40.8588 80.4834 40.4234 80.6975 40.5388 80.8786C40.1437 80.8291 40.587 80.8357 40.1229 80.7435C40.7005 80.8077 40.1114 80.2795 40.7152 80.4137C40.1815 80.3191 40.4964 80.2022 40.0443 80.0555C40.1751 80.055 40.2928 80.1121 40.2364 79.9544C40.2769 79.9433 40.3167 79.9287 40.3553 79.9108C40.377 79.9157 40.3708 79.9143 40.3553 79.9108C40.4145 79.9464 40.4822 79.9687 40.5539 79.9762C40.8644 79.8819 40.866 79.6432 41.0341 79.5535C40.9759 79.4695 40.8779 79.5987 40.7413 79.5575L40.9847 79.4244C40.6887 79.4277 40.5094 79.2084 40.3139 79.4265L40.3129 79.2344C40.1552 79.1277 40.1008 78.9739 40.2306 78.8789C40.1714 78.7879 40.5749 78.6374 40.3372 78.7247L40.5408 78.4343L40.4724 78.4187C40.4612 78.1198 41.0181 77.8055 40.5255 77.4643C40.5836 77.4196 40.6273 77.3593 40.6503 77.2924C40.6733 77.2255 40.6743 77.1555 40.6532 77.0927L40.4013 77.0555C40.5086 76.9284 40.1978 76.6724 40.4737 76.6106C39.8025 76.4578 40.4142 75.9741 40.3296 75.7427L40.6628 75.7479C40.6988 75.5629 40.8023 75.3899 40.9537 75.2618L41.242 75.2904C41.5116 75.1397 41.1077 74.8524 41.1862 74.6042C41.073 74.6121 41.0857 74.6824 41.1423 74.7323C40.6441 74.4269 41.4109 74.1941 41.4147 73.939L44.0646 74.0272C44.07 74.0571 44.0826 74.0847 44.1014 74.1076C44.1203 74.1306 44.1448 74.1484 44.1732 74.1597C44.0613 74.2319 44.095 74.28 44.163 74.3258C44.1631 74.3181 44.1657 74.3105 44.1706 74.3039C44.1694 74.3125 44.1665 74.321 44.162 74.3289C44.2084 74.3597 44.2662 74.3863 44.3084 74.4195C44.2547 74.4021 44.2047 74.3771 44.1597 74.3452C44.1351 74.4245 44.089 74.4979 44.0266 74.5573L44.3523 74.5844L44.3458 74.6031C44.4582 74.6758 44.1925 74.6692 43.9561 74.6356C43.8957 74.6824 43.8286 74.7196 43.7576 74.7453C44.2649 74.7901 43.5715 74.9555 44.1087 75.0206C43.839 75.0837 43.8779 75.4193 43.3176 75.4802C43.3913 75.4802 43.4232 75.5043 43.432 75.4592C43.4892 75.5463 43.5475 75.6302 43.3815 75.7137L43.7831 75.7344L43.2284 75.9448C43.3264 76.0053 43.4414 76.0388 43.5626 76.0423C43.6838 76.0458 43.8074 76.0191 43.9217 75.9647C43.4284 76.2598 43.7281 76.1967 43.2415 76.4529L43.5013 76.4279C43.4734 76.5091 43.1237 76.6787 43.3394 76.7042C43.8225 76.8681 43.3562 77.6308 43.7862 78.0856C43.0226 78.0363 44.1183 78.2892 43.5238 78.3424C43.7022 78.3595 43.8066 78.4068 43.9621 78.3345C43.7745 78.5881 44.2344 78.6827 43.7235 78.8829C43.905 78.9007 43.9911 78.8159 44.0988 78.8337C44.0581 78.8547 43.9349 78.921 44.0427 78.9388C44.1504 78.9566 44.1989 78.8935 44.2772 78.8508C44.2381 79.1011 43.6778 79.1621 43.1477 79.2131C43.3905 79.3257 43.3513 79.3909 43.0001 79.5163C43.1678 79.5545 43.3458 79.6118 43.414 79.4523C43.4349 79.5378 43.645 79.9696 43.2231 80.0082C43.3287 80.0323 43.2487 80.1285 43.1996 80.1544C43.2338 80.284 43.2366 80.4228 43.2076 80.5603L43.1407 80.5114C42.6327 80.6247 43.0225 80.6798 42.9564 80.8432L43.0063 80.8344C43.363 81.1614 42.8279 81.0026 43.2346 81.3208L42.9209 81.3268C42.2409 81.4144 43.3103 81.6074 43.0451 81.8333L42.8682 81.7728C42.6321 81.9042 43.7918 82.01 43.8675 82.1115C43.9266 82.1249 43.9635 82.066 44.0065 82.0286C44.4003 82.2867 43.5925 82.1027 43.4913 82.3289C43.7123 82.3489 44.0594 82.2259 44.0973 82.3692C44.2806 82.411 43.363 82.8587 43.79 83.0199C43.6222 82.9817 43.448 82.9622 43.3149 83.0767C43.2591 83.2391 43.9588 83.4355 43.4148 83.6248C43.4543 83.6444 43.4989 83.6546 43.5453 83.6545C43.4026 83.787 43.3082 84.0619 43.0153 84.1635C44.1045 84.1624 42.4799 84.9811 43.479 84.7642L43.4259 84.9676L43.5291 84.9305C43.5956 85.0197 43.3564 85.1504 43.123 85.3229C43.1936 85.3221 43.2847 85.252 43.3369 85.2268C43.5737 85.3178 43.5084 85.3029 43.1374 85.8077L43.444 85.588C43.3745 85.6732 43.538 85.6363 43.69 85.5935C43.8421 85.5506 43.965 85.5146 43.9255 85.7077C43.9542 85.6646 43.9797 85.6197 44.0017 85.5735C43.9716 85.7687 44.2258 85.5942 44.3442 85.4932C44.4174 85.4459 44.4334 85.4092 44.4846 85.4747C44.5358 85.5402 44.5518 85.6887 44.4894 85.9776L44.6394 86.3114C44.2976 86.3312 44.5207 86.8131 44.329 86.9715C44.4307 87.0654 44.7566 86.7018 44.631 86.6092L44.5899 86.6605C44.7325 86.0599 45.0533 86.5404 45.1835 86.1221C45.7953 86.2918 46.515 86.0886 47.1025 86.2022L46.8826 86.6471L47.0943 86.665C47.1836 86.5709 47.286 86.3214 47.1355 86.3107C47.3002 86.0654 47.3039 86.5814 47.2768 86.6797C47.624 86.5567 47.3453 86.1194 47.4366 86.1267L47.5429 86.188L47.4998 86.2354C47.5317 86.4447 47.4735 86.6436 47.655 86.6614C47.7959 86.5925 47.8085 86.3899 47.8586 86.371C47.9086 86.3521 47.8913 86.3246 47.9323 86.371L48.201 86.3884L47.9772 86.728C48.031 86.9322 48.2229 86.7638 47.9674 87.1467C48.3497 86.5603 48.9975 87.1321 49.1708 86.9594C49.1809 87.063 49.2308 87.155 49.3109 87.2175C49.3911 87.2799 49.4956 87.3083 49.6042 87.2972C49.5307 87.3647 49.3633 87.7643 49.5483 87.7526C49.7716 86.8976 49.9845 87.4579 50.32 86.881C50.0615 87.2532 50.7621 87.0861 50.3805 87.6121C50.5439 87.5752 50.4877 87.2997 50.6683 87.1253C50.8935 87.5134 51.4725 87.0761 51.8482 87.2795C51.8106 87.3888 51.6905 87.5433 51.7249 87.7263L52.125 87.2247C52.1906 87.2969 51.9912 87.8677 52.266 87.5262C52.212 87.6149 52.1327 87.7484 52.1737 87.7948C53.1609 87.437 53.6725 88.6008 54.831 87.7736C54.6493 87.9612 54.7163 88 54.7981 88.0254C54.725 88.0626 54.7048 88.2971 54.6533 88.447L55.2002 88.0934C55.1239 88.5205 55.5583 88.2019 55.4593 88.607L55.3752 88.5104C55.3614 89.009 54.8223 89.5059 54.6412 90.1112C54.6589 89.5427 53.9472 90.8051 53.9407 89.9853C53.8398 90.0937 53.9249 90.1872 53.8456 90.3206C53.8652 90.049 53.8037 89.9743 53.6014 90.0562L53.5986 90.1229C53.1964 89.9674 52.9293 90.1793 52.398 90.2435L52.5394 89.939C52.423 89.9563 52.369 90.045 52.2967 90.1093C52.3331 89.6327 52.5922 90.1463 52.6529 89.6281C52.3123 90.2004 51.9352 89.4646 51.6048 90.1437C51.4494 90.1083 51.7694 89.8108 51.6099 89.7778L51.5051 89.956L51.5473 89.7063C51.4308 89.7236 51.3017 89.9434 51.2439 90.102C51.2752 90.0889 51.3004 90.162 51.3209 90.1801C51.1153 90.369 50.9696 90.0227 50.9015 90.0846L51.0903 90.003C50.7205 89.7336 50.1324 89.8657 49.8335 89.38L49.9129 89.2466C49.6901 88.9197 49.6076 89.3454 49.3003 89.1475L49.2896 89.1787C49.2684 89.0257 49.1988 88.9358 49.0971 88.9295C49.1315 89.1124 48.8283 89.205 48.8789 89.4186C48.6284 89.0652 48.7831 89.161 48.7343 88.5909L48.6011 88.8132C48.5953 88.5862 48.6244 88.4817 48.474 88.3734C48.5483 88.6058 48.243 88.7047 48.3123 89.0101C47.777 89.4371 47.9434 88.3772 47.5266 89.0837C47.5766 88.4014 47.9606 88.7953 47.9146 88.6366C48.0642 88.4451 47.94 88.1238 47.8056 88.1639C47.6875 88.137 47.3298 88.9446 47.042 88.8656C47.0699 88.8719 47.057 88.9195 47.086 88.9227C46.9204 89.0635 46.9478 88.6522 46.7219 88.8903C46.7783 88.4823 46.5404 88.8726 46.6881 88.3742L46.9167 88.5474C46.8085 88.3847 46.8495 87.7677 46.5158 87.9982C46.5079 88.1169 46.521 88.2337 46.5545 88.3437C46.4327 88.4743 46.448 88.2151 46.3208 88.3511C46.1762 88.8503 46.6117 88.5285 46.6435 88.9432C46.497 89.1355 46.455 88.5164 46.3575 89.0734C46.4713 88.3618 46.0416 89.0958 46.0188 88.5282L45.9324 88.8284C45.9175 88.7745 45.8994 88.6222 45.8382 88.615L45.815 89.0239C45.7576 88.6741 45.4046 89.2436 45.3134 89.031C45.6242 89.1017 45.5083 88.6881 45.717 88.4999C45.4544 88.0158 45.2251 89.2297 44.8344 88.9724C44.8795 89.0264 45.1203 88.8422 45.0722 88.6898C44.9298 88.7477 44.8042 88.8448 44.7119 88.9681C44.4216 88.838 44.8627 88.6656 44.7954 88.4617C44.5746 88.8021 44.6998 88.2817 44.6121 88.1371L44.5048 88.4494C44.1058 88.5674 44.6261 87.8036 44.2484 87.9668L44.2321 88.4143L44.1143 88.2696L44.0305 88.6209C43.9433 88.3283 43.868 88.3819 43.6701 88.4412C43.7803 88.2373 43.8329 87.889 43.687 87.8456C43.4788 87.9935 43.6722 88.1521 43.3723 88.04C43.3635 88.1335 43.3727 88.2258 43.3994 88.3122C43.4238 88.3683 43.5109 88.378 43.5891 88.2477C43.5559 88.3445 43.5745 88.4464 43.5506 88.5453C43.5182 88.583 43.4746 88.61 43.4272 88.6216C43.3694 88.6187 43.3137 88.606 43.2625 88.5841C43.1591 88.5437 43.0726 88.4836 43.0084 88.4656C43.0661 88.4712 43.1261 88.4576 43.1791 88.427C43.0704 88.2625 42.9768 88.0881 42.8993 87.9054C42.8522 87.9397 42.8166 87.9874 42.7983 88.0406C42.78 88.0939 42.7801 88.1496 42.7985 88.1989C42.7181 88.1402 42.7291 87.9912 42.6157 87.9216C42.5061 88.1627 42.3426 88.3948 42.4975 88.5682C42.3837 88.441 42.2804 88.3049 42.1884 88.161C42.095 88.2475 41.7672 88.3143 41.7639 88.4213C41.5864 88.4213 41.519 88.2275 41.464 88.0365C41.409 87.8455 41.3592 87.6489 41.1646 87.5911C41.1812 87.5626 41.192 87.5317 41.1965 87.5003C41.2009 87.469 41.1989 87.4377 41.1905 87.4085C40.9518 87.216 40.5127 87.1093 40.7295 86.566C40.5674 86.5695 40.3941 86.5671 40.2332 86.5574C40.2498 86.3726 40.4095 86.3955 40.5664 86.3773C40.6109 86.3773 40.6558 86.3684 40.6986 86.3512C40.7413 86.3339 40.7809 86.3087 40.815 86.2771C40.849 86.2454 40.8768 86.208 40.8967 86.1671C40.9166 86.1263 40.9281 86.0828 40.9305 86.0393C41.0365 85.6526 40.5264 86.055 40.3851 85.969C40.5214 85.8169 40.647 85.6564 40.7611 85.4888C40.7904 85.4519 40.8122 85.4102 40.8249 85.3664C40.8377 85.3226 40.8412 85.2777 40.8353 85.2345C40.8293 85.1914 40.814 85.1509 40.7903 85.1156C40.7666 85.0804 40.735 85.0512 40.6976 85.0299C40.6213 85.1641 40.688 85.2432 40.6535 85.3532ZM40.8884 82.7868C40.8204 82.8387 40.6115 82.9494 40.8003 82.9654C41.1657 82.8769 40.9926 82.8543 40.8884 82.7868ZM41.771 79.1151C41.6667 79.1554 41.716 79.207 41.8327 79.2572C41.8612 79.2132 41.8514 79.1638 41.771 79.1151ZM40.5431 79.0713C40.4814 79.0168 40.4425 78.9642 40.5431 79.0713V79.0713ZM40.6633 79.2872C40.6206 79.3078 40.5735 79.3138 40.5302 79.304C40.6134 79.286 40.6202 79.237 40.6032 79.1792C40.6861 79.1914 40.7409 79.2173 40.6633 79.2872ZM47.9126 86.4675L47.8453 86.5364C47.9116 86.6457 47.9105 86.5613 47.9157 86.4682L47.9126 86.4675Z" fill="white"/>
<path d="M42.1035 100.186C42.1496 100.147 42.1908 100.103 42.2261 100.055C42.2176 100.084 42.2019 100.111 42.1805 100.134C42.159 100.157 42.1326 100.175 42.1035 100.186Z" fill="white"/>
<path d="M48.7395 104.295C48.747 104.312 48.7525 104.33 48.7558 104.349L48.7395 104.295Z" fill="white"/>
<path d="M40.735 96.5304C40.6731 96.54 40.613 96.5647 40.5604 96.602C40.6146 96.5436 40.6748 96.5039 40.735 96.5304Z" fill="white"/>
<path d="M42.0498 101.654L41.9846 101.511C42.0263 101.563 42.0927 101.515 42.1524 101.491C42.1047 101.552 42.0152 101.627 42.0498 101.654Z" fill="white"/>
<path d="M44.2245 100.619C44.2173 100.66 44.2491 100.65 44.25 100.685L44.1564 100.809C44.1405 100.797 44.1292 100.78 44.124 100.76C44.1188 100.741 44.1199 100.719 44.1272 100.699C44.1345 100.678 44.1477 100.66 44.165 100.646C44.1823 100.632 44.203 100.622 44.2245 100.619Z" fill="white"/>
<path d="M42.8006 100.843C42.973 100.625 42.9864 100.747 43.0374 100.839C42.8314 101.169 42.8103 100.999 42.8006 100.843Z" fill="white"/>
<path d="M43.0509 100.856C43.065 100.883 43.0897 100.902 43.12 100.911C43.0448 101.036 43.0726 100.917 43.0509 100.856Z" fill="white"/>
<path d="M41.5534 100.881C41.633 100.85 41.3548 101.182 41.4523 101.101C41.2778 101.41 41.4605 100.592 41.5534 100.881Z" fill="white"/>
<path d="M43.401 100.151L43.171 100.407L43.2886 100.158L43.401 100.151Z" fill="white"/>
<path d="M42.6314 99.9604L42.8135 99.9646C42.7991 99.9811 42.7882 100 42.7815 100.02C42.7748 100.04 42.7724 100.061 42.7746 100.081C42.6939 100.04 42.5775 100.03 42.6314 99.9604Z" fill="white"/>
<path d="M42.7825 100.075C42.8065 100.081 42.8264 100.095 42.8386 100.116C42.8508 100.136 42.8543 100.161 42.8486 100.186C42.8151 100.157 42.7921 100.118 42.7825 100.075Z" fill="white"/>
<path d="M43.2908 99.9615L43.2112 99.9932L43.1133 99.9575L43.2908 99.9615Z" fill="white"/>
<path d="M41.302 99.0935L41.2324 98.9225C41.2937 98.8234 41.3828 98.8037 41.3954 98.8639C41.408 98.924 41.3933 99.0214 41.302 99.0935Z" fill="white"/>
<path d="M42.2796 98.6526C42.1996 98.6953 42.1275 98.7523 42.0674 98.8202L42.3273 98.4865L42.2796 98.6526Z" fill="white"/>
<path d="M41.9702 98.3051C42.0342 98.2039 41.993 97.8976 42.1471 98.0486C42.0777 98.154 42.1488 98.316 41.9702 98.3051Z" fill="white"/>
<path d="M39.7604 97.2294L39.7877 97.2585L39.3103 97.7639L39.7604 97.2294Z" fill="white"/>
<path d="M37.759 98.0578C37.4989 98.0762 37.9889 97.6972 37.7189 97.7584C37.7833 97.6024 37.9407 97.708 38.0008 97.5632C37.9781 97.7719 38.0868 97.7329 37.759 98.0578Z" fill="white"/>
<path d="M38.0023 97.5816C38.0038 97.5424 38.0092 97.5029 38.0183 97.4638C38.0184 97.503 38.013 97.5427 38.0023 97.5816Z" fill="white"/>
<path d="M58.6107 92.9704L58.6341 92.7845L58.6976 93.0031L58.6107 92.9704Z" fill="white"/>
<path d="M59.1037 93.1694L58.8789 92.8405L59.1696 93.0706C59.134 93.0753 59.0649 93.0871 59.1037 93.1694Z" fill="white"/>
<path d="M43.7151 102.676L43.7703 102.586C43.8616 102.514 43.8751 102.503 43.9425 102.528L43.7151 102.676Z" fill="white"/>
<path d="M45.3416 103.289L45.3103 103.282L45.5875 102.982L45.3416 103.289Z" fill="white"/>
<path d="M46.849 104.712C46.7396 104.69 46.6545 104.554 46.5493 104.521C46.7471 104.699 47.0462 104.261 46.849 104.712Z" fill="white"/>
</svg>
