<svg width="139" height="141" viewBox="0 0 139 141" fill="none" xmlns="http://www.w3.org/2000/svg">
<path d="M99.1667 116.918C99.3087 116.444 99.6471 116.761 99.7624 116.73C99.3466 117.45 99.0518 116.846 99.1667 116.918Z" fill="white"/>
<path d="M94.9506 123.856L95.1731 123.809L94.2422 124.652L94.9506 123.856Z" fill="white"/>
<path d="M90.2375 134.157C90.1551 134.299 90.148 134.354 90.1104 134.444C89.9365 134.661 89.7061 134.967 89.318 135.504C89.4202 134.905 88.286 136.455 90.2375 134.157Z" fill="white"/>
<path d="M90.1023 134.459C90.9517 133.385 89.7155 135.357 90.1023 134.459V134.459Z" fill="white"/>
<path d="M78.427 133.573C78.4372 133.403 78.9054 133.361 79.0702 133.203L79.6654 133.693C79.2695 133.635 78.5641 133.403 78.427 133.573Z" fill="white"/>
<path d="M79.0607 133.217L78.1657 132.486C79.0836 132.899 79.1913 133.093 79.0607 133.217Z" fill="white"/>
<path d="M74.9687 132.328L74.1854 131.344L74.5505 131.726L74.9687 132.328Z" fill="white"/>
<path d="M72.0246 130.423C72.316 130.899 71.223 130.595 71.5918 130.978C70.9951 130.605 70.4591 130.143 70.0026 129.607C70.5993 130.041 71.2938 130.321 72.0246 130.423Z" fill="white"/>
<path d="M69.2537 128.867C69.5194 129.096 69.7695 129.344 70.0025 129.606C69.7213 129.394 69.4695 129.145 69.2537 128.867Z" fill="white"/>
<path d="M76.4139 131.718C76.2591 131.785 76.0924 131.821 75.9236 131.824C75.7547 131.826 75.5872 131.794 75.4307 131.731L76.029 131.54L76.4139 131.718Z" fill="white"/>
<path d="M76.0334 131.523L75.1636 131.128L76.0334 131.523Z" fill="white"/>
<path d="M76.5116 131.765L76.4175 131.711C76.4797 131.703 76.4881 131.689 76.5116 131.765Z" fill="white"/>
<path d="M78.2655 132.348L77.2477 131.516L78.3652 131.947C78.2957 132.033 78.025 132.097 78.2655 132.348Z" fill="white"/>
<path d="M77.2471 131.516L76.833 131.355L76.7801 131.134L77.2471 131.516Z" fill="white"/>
<path d="M71.2696 129.397C70.8423 129.004 70.3576 128.678 69.8321 128.43C70.4822 128.653 71.1183 128.914 71.7368 129.213C71.7628 129.379 71.9179 129.727 71.2696 129.397Z" fill="white"/>
<path d="M73.6001 130.396L73.5024 130.339C73.5896 130.322 73.6492 130.328 73.6001 130.396Z" fill="white"/>
<path d="M71.8771 129.191C72.2477 129.292 72.575 129.512 72.8088 129.817C72.4758 129.624 72.1209 129.42 71.744 129.202C71.727 129.138 71.7387 129.101 71.8771 129.191Z" fill="white"/>
<path d="M67.775 127.911C68.0791 127.953 68.3808 128.012 68.6788 128.086C68.3768 128.102 67.8036 128.064 67.775 127.911Z" fill="white"/>
<path d="M73.302 130.356L73.3677 130.394C73.1701 130.416 73.2078 130.384 73.302 130.356Z" fill="white"/>
<path d="M73.302 130.356C73.1169 130.196 72.9512 130.015 72.8081 129.817C73.047 129.969 73.2765 130.136 73.4956 130.316C73.4294 130.319 73.3641 130.332 73.302 130.356Z" fill="white"/>
<path d="M77.7314 131.124L77.6269 131.179C77.6063 131.148 77.6427 131.135 77.7314 131.124Z" fill="white"/>
<path d="M102.137 58.5836C102.198 58.7404 102.247 58.9004 102.302 59.0588C102.235 58.9047 102.18 58.7459 102.137 58.5836Z" fill="white"/>
<path d="M99.8317 55.8665L99.906 55.6623C99.9488 55.8566 99.9426 55.9597 99.8317 55.8665Z" fill="white"/>
<path d="M62.0673 93.2389C61.4204 92.5678 60.5973 91.8047 61.0555 91.7716L61.554 91.8886C61.6221 92.3714 61.7976 92.8327 62.0673 93.2389Z" fill="white"/>
<path d="M70.6016 53.9491C70.8533 53.8246 71.1112 53.7132 71.3744 53.6153C71.3322 53.6884 71.3113 53.7836 71.2816 53.8689C71.0344 53.8918 70.809 53.9275 70.6016 53.9491Z" fill="white"/>
<path d="M73.5906 53.758C73.428 54.0675 73.2335 54.359 73.0103 54.6281L73.5906 53.758Z" fill="white"/>
<path d="M98.9875 73.8997C98.7573 73.8594 98.5438 73.8239 98.3037 73.7584C99.0344 73.371 98.8196 73.7345 98.9875 73.8997Z" fill="white"/>
<path d="M78.4643 124.042C78.5551 124.075 78.6433 124.114 78.7279 124.16C78.8743 124.245 78.9325 124.347 78.7702 124.433C78.4474 124.26 78.1829 123.995 78.0095 123.672L78.2559 123.888C78.3118 123.935 78.4114 124.041 78.4643 124.042Z" fill="white"/>
<path d="M105.002 54.5244C105.172 54.8807 105.182 55.0572 105.114 55.1156C104.935 54.7587 104.868 54.5295 105.002 54.5244Z" fill="white"/>
<path d="M76.9546 121.926C77.0539 122.007 77.1373 122.099 77.2359 122.19C77.439 122.704 77.6922 123.197 77.9919 123.661C77.4455 123.229 77.0765 122.612 76.9546 121.926Z" fill="white"/>
<path d="M50.6684 30.9612C50.728 30.9421 50.745 31.0054 50.7298 31.1329C50.7137 31.0742 50.6931 31.0168 50.6684 30.9612Z" fill="white"/>
<path d="M49.3041 8.40314C49.3723 8.07908 49.4814 7.76503 49.629 7.46857C49.529 7.68404 49.4193 8.05985 49.3041 8.40314Z" fill="white"/>
<path d="M78.7872 126.862C78.6047 126.757 78.7003 126.768 78.7872 126.862V126.862Z" fill="white"/>
<path d="M76.5802 116.007L76.5474 115.988C76.7258 116.066 76.6856 116.043 76.5802 116.007Z" fill="white"/>
<path d="M78.8192 126.969C78.8284 126.992 78.8291 127.017 78.8211 127.04C78.8131 127.063 78.797 127.083 78.7758 127.095C78.7736 127.072 78.7763 127.049 78.7838 127.027C78.7913 127.006 78.8034 126.986 78.8192 126.969Z" fill="white"/>
<path d="M78.5746 126.755C78.5494 126.762 78.5232 126.765 78.497 126.764C78.4231 126.648 78.3656 126.571 78.5746 126.755Z" fill="white"/>
<path d="M78.9962 126.989C78.9051 126.936 78.8597 126.939 78.8247 126.958C78.8146 126.919 78.7954 126.883 78.7688 126.853L78.9962 126.989Z" fill="white"/>
<path d="M66.7322 68.3083C66.6959 68.2911 66.6581 68.2774 66.6192 68.2674C66.3354 67.7964 66.4918 67.9647 66.7322 68.3083Z" fill="white"/>
<path d="M63.7719 78.8851C63.7719 78.8851 63.7531 78.9176 63.7427 78.9357L63.7229 78.8617L63.7719 78.8851Z" fill="white"/>
<path d="M64.042 77.0835C63.8348 77.3245 63.6973 77.6176 63.6445 77.931C63.5916 78.2444 63.6254 78.5663 63.7421 78.862C63.3058 78.6881 62.868 78.5085 62.4307 78.3195C62.9446 77.8941 63.4957 77.4804 64.042 77.0835Z" fill="white"/>
<path d="M50.9296 34.5231L50.9534 34.6234C50.9414 34.5911 50.9333 34.5574 50.9296 34.5231Z" fill="white"/>
<path d="M101.284 57.2472L101.401 57.3971C101.357 57.3514 101.318 57.3011 101.284 57.2472Z" fill="white"/>
<path d="M72.8166 54.516C72.8332 54.4113 72.8122 54.3042 72.7572 54.2136C72.9328 54.1882 72.9853 54.2575 72.8166 54.516Z" fill="white"/>
<path d="M99.11 73.9165C99.0951 73.9248 99.0812 73.9348 99.0686 73.9462C99.0343 73.9363 99.003 73.9182 98.9773 73.8935L99.11 73.9165Z" fill="white"/>
<path d="M74.5942 108.917C74.4377 108.72 74.2426 108.558 74.0209 108.44C74.1145 108.362 74.2907 108.454 74.5942 108.917Z" fill="white"/>
<path d="M77.351 126.258C77.3511 126.131 77.3801 125.963 77.3018 125.913C77.3872 126.001 77.48 126.094 77.5896 126.191C77.4476 126.099 77.424 126.208 77.351 126.258Z" fill="white"/>
<path d="M81.8526 125.881L81.4275 124.826C81.5581 124.701 81.8679 125.026 82.0368 125.461C82.031 125.716 82.1598 126.093 81.8526 125.881Z" fill="white"/>
<path d="M83.9701 126.498C84.0447 126.453 83.8857 125.917 83.832 125.613C83.7783 125.309 83.8408 125.277 84.3927 126.332C84.3285 126.393 84.4807 126.822 84.484 127.019C84.4873 127.216 84.4359 127.221 83.9701 126.498Z" fill="white"/>
<path d="M72.1806 108.24L71.2529 108.714L72.0137 107.929L72.1806 108.24Z" fill="white"/>
<path d="M66.972 92.197C66.8668 92.6241 66.3429 91.1654 66.2661 91.5943C66.2093 90.5857 65.9303 90.1563 66.7023 90.3824C67.4255 91.8001 66.213 90.9342 66.972 92.197Z" fill="white"/>
<path d="M66.2661 91.5947C66.2821 91.7679 66.2875 91.942 66.2821 92.1158C66.2546 91.9435 66.2492 91.7684 66.2661 91.5947Z" fill="white"/>
<path d="M50.396 3.48624L50.5985 2.38342L50.6631 3.16722L50.396 3.48624Z" fill="white"/>
<path d="M51.37 1.32055L52.1651 0.940459C52.0426 1.15269 51.8018 1.56984 51.8877 1.80973L51.37 1.32055Z" fill="white"/>
<path d="M93.5172 52.5478C93.2488 52.5733 93.0034 52.5927 92.7255 52.6176L92.7168 52.4468C92.9155 52.3224 93.1111 52.4061 93.5172 52.5478Z" fill="white"/>
<path d="M102.184 59.8979L102.069 59.7246L102.783 59.7713L102.184 59.8979Z" fill="white"/>
<path d="M102.947 68.5396C102.975 68.7514 102.941 68.8288 102.612 68.6539C102.761 68.3332 102.89 68.0033 102.997 67.6661C102.936 67.821 102.91 67.9875 102.92 68.1537C102.921 68.2827 102.93 68.4116 102.947 68.5396Z" fill="white"/>
<path d="M60.3844 120.229C60.3073 120.253 60.4061 119.837 60.4091 119.756C60.5138 119.87 60.363 120.334 60.3844 120.229Z" fill="white"/>
<path d="M61.3722 121.399L61.3845 121.226L61.471 121.676L61.3722 121.399Z" fill="white"/>
<path d="M62.4463 121.61C62.1963 122.305 62.0804 121.398 61.8378 121.624L61.7752 121.783L61.8051 121.191C62.0225 121.321 62.2369 121.786 62.4463 121.61Z" fill="white"/>
<path d="M63.2014 120.251C63.2155 120.23 63.2281 120.208 63.2392 120.185C63.2758 120.196 63.3141 120.198 63.3516 120.192C63.2604 120.459 63.4498 120.467 63.2014 120.251Z" fill="white"/>
<path d="M63.2433 120.187C63.142 120.128 63.3665 119.973 63.2433 120.187V120.187Z" fill="white"/>
<path d="M63.7397 120.459L63.643 120.179C63.7274 120.032 63.859 120.016 63.8182 119.875C63.9588 120.054 63.889 120.209 63.7397 120.459Z" fill="white"/>
<path d="M63.7639 121.009L63.7106 120.89C63.7355 120.822 63.7524 120.793 63.7639 121.009Z" fill="white"/>
<path d="M63.6528 120.794C63.6173 121.008 63.6528 120.794 63.5944 120.634L63.7095 120.89C63.6613 120.999 63.608 121.227 63.6528 120.794Z" fill="white"/>
<path d="M63.4764 120.721C63.3585 120.858 63.2294 120.93 63.3224 121.208C63.0576 121.05 63.2101 120.558 63.4764 120.721Z" fill="white"/>
<path d="M62.3655 122.349L62.2144 122.535L62.1658 122.273C62.1667 122.415 62.3989 122.139 62.3655 122.349Z" fill="white"/>
<path d="M64.7664 120.32C64.7422 120.472 64.6138 120.719 64.5632 120.9L64.494 120.699C64.6217 120.604 64.7168 120.471 64.7664 120.32Z" fill="white"/>
<path d="M64.5651 120.898L64.666 121.194C64.5028 121.182 64.5159 121.058 64.5651 120.898Z" fill="white"/>
<path d="M63.6117 121.804L63.4625 121.201L63.6598 121.822L63.6117 121.804Z" fill="white"/>
<path d="M65.4429 120.651L65.415 120.455L65.4088 120.086L65.4429 120.651Z" fill="white"/>
<path d="M66.1875 120.564C66.1248 120.411 66.0185 120.418 65.8264 120.624C65.8299 120.314 66.0511 120.159 66.0231 119.962C66.1353 120.047 66.1588 120.318 66.1875 120.564Z" fill="white"/>
<path d="M66.1868 120.565C66.2294 120.68 66.2496 120.802 66.2462 120.925C66.2161 120.807 66.1962 120.686 66.1868 120.565Z" fill="white"/>
<path d="M65.2137 120.797L65.0501 121.19L64.9826 121.181C65.0286 121.037 65.1077 120.905 65.2137 120.797Z" fill="white"/>
<path d="M65.0312 121.214L65.1796 121.227L65.0312 121.214Z" fill="white"/>
<path d="M64.9528 121.189C64.9592 121.235 64.9531 121.246 64.9528 121.189V121.189Z" fill="white"/>
<path d="M64.0325 122.403C64.0302 122.094 64.1924 121.915 64.1307 121.523C64.1589 121.778 64.3127 122.087 64.0325 122.403Z" fill="white"/>
<path d="M64.5406 121.75C64.5958 121.626 64.6251 121.492 64.6267 121.356L64.7403 121.7L64.5406 121.75Z" fill="white"/>
<path d="M64.7914 121.856L64.7406 121.701L64.8115 121.678L64.7914 121.856Z" fill="white"/>
<path d="M65.8417 121.238C65.8434 121.301 65.8621 121.362 65.8959 121.415C65.9297 121.468 65.9773 121.511 66.0336 121.539C65.9303 121.592 65.8113 121.607 65.6983 121.58C65.7214 121.447 65.7382 121.198 65.8417 121.238Z" fill="white"/>
<path d="M65.433 121.261L65.4443 121.292C65.429 121.327 65.4155 121.333 65.433 121.261Z" fill="white"/>
<path d="M66.9157 121.863L66.9295 121.789C66.9392 121.814 66.9246 121.839 66.9157 121.863Z" fill="white"/>
<path d="M65.6623 121.657C65.5626 121.72 65.5532 121.594 65.5345 121.466C65.5798 121.516 65.6396 121.551 65.7054 121.565C65.6967 121.647 65.6757 121.684 65.6623 121.657Z" fill="white"/>
<path d="M66.4483 121.193C66.3905 121.264 66.3264 121.33 66.2568 121.39C66.3323 121.267 66.4682 121.083 66.4483 121.193Z" fill="white"/>
<path d="M65.5043 121.18C65.5404 121.075 65.5195 121.111 65.5043 121.18V121.18Z" fill="white"/>
<path d="M65.5339 121.465C65.4955 121.414 65.4664 121.356 65.4481 121.294C65.4649 121.265 65.488 121.225 65.5111 121.185C65.5283 121.277 65.5359 121.371 65.5339 121.465Z" fill="white"/>
<path d="M66.4617 123.25C66.6278 123.511 66.6828 123.162 66.8523 122.987C66.6223 123.445 66.9321 123.77 66.6801 124.468L66.5583 124.164C66.5232 124.275 66.5417 124.472 66.4591 124.556C66.5583 124.164 66.4694 123.752 66.1858 124.125C66.1077 123.787 66.5671 122.535 66.9181 121.859C66.8488 122.056 66.8548 122.271 66.9348 122.464C66.815 122.663 66.4168 122.863 66.4617 123.25Z" fill="white"/>
<path d="M66.9291 121.788L66.5685 121.745L66.5761 121.808L66.5177 121.74C66.6794 121.616 66.8132 121.459 66.9104 121.28C66.9649 121.444 66.9714 121.62 66.9291 121.788Z" fill="white"/>
<path d="M66.2452 121.417C66.2157 121.469 66.1988 121.498 66.2178 121.465C66.1882 121.516 66.1958 121.579 66.1872 121.628C66.3101 121.567 66.2442 121.529 66.2178 121.465L66.2312 121.4L66.5033 121.723C66.4156 121.765 66.3309 121.725 66.1851 121.632C66.1238 122.084 66.2471 122.302 66.0313 122.743C65.8378 122.656 65.9869 122.347 65.902 122.122C66.2061 122.322 65.8686 121.859 66.1597 121.675C66.1274 121.607 66.0745 121.551 66.0084 121.515C66.0899 121.476 66.166 121.426 66.235 121.368L66.2452 121.417Z" fill="white"/>
<path d="M63.9839 123.366C64.0046 123.34 64.0215 123.31 64.034 123.279C64.0375 123.315 64.0269 123.367 63.9839 123.366Z" fill="white"/>
<path d="M64.5694 122.235C64.5825 122.208 64.5977 122.181 64.6148 122.156C64.6047 122.185 64.5893 122.212 64.5694 122.235Z" fill="white"/>
<path d="M64.1373 122.815C64.3156 122.649 64.4621 122.453 64.5696 122.235C64.4612 122.546 64.3317 122.849 64.182 123.143C64.1765 123.076 64.1946 122.901 64.108 122.925C64.0084 123.038 64.0578 123.13 64.021 123.27C63.9866 123.182 63.9786 123.086 63.9979 122.994C64.0172 122.902 64.063 122.818 64.1297 122.752L64.1373 122.815Z" fill="white"/>
<path d="M65.1505 123.112L65.2148 122.891C65.036 122.939 65.1388 122.677 65.1626 122.5L65.3881 122.777L65.1505 123.112Z" fill="white"/>
<path d="M67.1297 121.128L67.1136 121.806L67.0418 121.585L67.1297 121.128Z" fill="white"/>
<path d="M67.5189 121.611L67.39 121.742L67.4891 121.351L67.5189 121.611Z" fill="white"/>
<path d="M84.7273 135.596L84.705 135.34C84.7408 135.497 84.7606 135.605 84.7273 135.596Z" fill="white"/>
<path d="M76.105 124.968C76.3725 124.674 76.742 124.194 76.5395 124.604L76.3282 124.97C76.2746 124.885 76.1959 124.903 76.105 124.968Z" fill="white"/>
<path d="M79.9509 131.609C79.8688 131.68 79.7759 131.738 79.6758 131.781L79.9509 131.609Z" fill="white"/>
<path d="M71.3738 122.914C71.53 122.77 71.6743 122.698 71.666 123.024C71.639 123.052 71.6097 123.078 71.5782 123.101C71.531 123.005 71.4774 122.92 71.3738 122.914Z" fill="white"/>
<path d="M94.8697 122.736L94.8353 122.687C94.8915 122.715 94.8852 122.725 94.8697 122.736Z" fill="white"/>
<path d="M92.8092 117.483C92.7649 117.507 92.7277 117.543 92.7015 117.586C92.6866 117.553 92.7112 117.519 92.8092 117.483Z" fill="white"/>
<path d="M68.9102 121.999C68.8352 121.956 68.9114 121.947 68.9102 121.999V121.999Z" fill="white"/>
<path d="M68.0114 123.556C68.0123 123.629 68.0016 123.701 67.9797 123.77C68.0002 123.701 68.0108 123.628 68.0114 123.556Z" fill="white"/>
<path d="M68.7324 122.155C68.772 122.116 68.8185 122.083 68.8698 122.06C68.8295 122.099 68.7831 122.131 68.7324 122.155Z" fill="white"/>
<path d="M68.8084 121.961C68.7829 121.969 68.757 121.975 68.7308 121.979C68.7425 121.909 68.7618 121.867 68.8084 121.961Z" fill="white"/>
<path d="M69.007 122.056C68.9854 122.046 68.9619 122.041 68.9382 122.042C68.9145 122.042 68.8912 122.048 68.8701 122.059C68.887 122.042 68.8992 122.021 68.9056 121.998C68.9382 122.019 68.972 122.039 69.007 122.056Z" fill="white"/>
<path d="M90.7816 127.611L90.7451 127.59C90.9526 127.593 90.9102 127.608 90.7816 127.611Z" fill="white"/>
<path d="M76.0972 130.408C76.238 129.86 76.1472 129.89 76.0201 129.958L76.6539 128.861L76.0972 130.408Z" fill="white"/>
<path d="M87.5132 138.463C87.2036 138.222 86.9358 137.932 86.7204 137.605C86.2242 137.45 85.6691 137.237 86.0505 137.506C84.2772 136.521 84.7189 136.542 85.6371 136.667L85.8603 136.796L85.851 136.415L85.6314 136.288L85.6569 136.337L85.6241 136.284L84.9855 135.886C85.1663 135.868 85.2116 135.714 85.4625 135.981L85.1693 135.441C85.0782 135.413 85.114 135.731 85.2124 135.763L84.7057 135.28L84.708 135.336C84.6782 135.201 84.6297 135.032 84.5849 134.864L84.1748 134.569C84.2145 134.821 84.3351 135.052 84.4591 135.099C84.4338 135.228 84.4008 135.356 84.3604 135.481L84.9855 135.886C84.8617 135.897 84.6707 135.831 84.3451 135.516C84.2597 135.74 84.2011 135.614 84.14 135.432C84.0458 135.173 83.9524 134.836 83.5971 135.08L83.8595 135.47C83.5663 136.223 83.364 135.745 82.8953 136.016C83.074 135.835 83.2405 135.643 83.3937 135.44C83.4888 135.316 83.5525 135.17 83.5796 135.016C83.6066 134.862 83.5962 134.704 83.5491 134.554C83.4472 134.612 83.3126 134.584 83.2174 134.182C83.1014 134.696 82.9568 134.456 82.7605 134.289L82.5804 134.956C82.3954 134.6 82.5257 134.29 82.4906 133.928C82.2295 133.831 81.9739 134.274 81.7334 134.623C81.4875 134.525 81.6526 134.391 81.8143 134.221C81.9759 134.051 82.1231 133.838 81.9196 133.633C81.8242 133.64 81.7287 133.62 81.6441 133.575C81.5594 133.531 81.4889 133.463 81.4407 133.381C81.3864 133.305 81.3586 133.214 81.3617 133.12L81.3338 132.797C81.0775 132.903 81.1408 133.173 81.0035 133.285L81.1505 132.76C81.1212 132.743 81.0419 132.897 81.0054 132.969C81.0044 132.734 81.3329 132.401 81.2633 132.142C81.4849 131.699 80.9858 132.191 80.7213 132.278L80.7579 132.299C81.0493 132.774 80.2743 132.629 80.9977 133.413C80.5971 132.991 79.7703 132.353 80.2444 132.275C80.2361 132.04 80.2559 131.804 80.3036 131.573C80.2167 131.585 80.1283 131.581 80.0432 131.559L79.9213 131.635C79.9403 131.602 79.9593 131.569 79.9982 131.553L79.8432 131.517C79.8151 131.556 79.7803 131.591 79.7405 131.619C79.7617 131.582 79.787 131.538 79.8081 131.501L79.6923 131.381L79.674 131.37L79.3982 131.772L79.5235 131.513L78.9603 131.719C78.9809 131.565 79.0078 131.4 79.039 131.228L78.7593 131.189C78.6658 131.282 78.5987 131.398 78.5649 131.525L78.5262 131.161L78.2417 131.139C78.1691 131.162 78.0998 131.194 78.0353 131.234L78.0945 131.132C77.9635 131.126 77.8323 131.131 77.7019 131.144C77.865 131.052 78.0356 130.975 78.2118 130.912C78.4473 130.394 78.0798 130.43 78.0754 130.125C77.9042 130.422 77.7838 130.757 78.0001 130.78C77.4467 131.358 78.3016 129.573 77.7937 130.055C77.8376 130.081 77.8849 130.05 77.8239 130.214C77.8547 129.891 77.477 129.97 77.4133 130.275L77.4572 130.3C77.1021 130.256 76.5452 129.852 76.8831 129.047C76.8261 129.146 76.4601 130.008 76.3991 130.172C76.6518 129.211 76.8993 128.241 77.1316 127.273C77.0023 127.598 76.7296 128.104 76.4785 128.598C76.5138 128.672 76.5454 128.744 76.588 128.823L76.3949 128.76C76.169 129.133 76.0264 129.55 75.977 129.982C75.8578 130.045 75.7155 130.114 75.677 129.809C75.9157 129.504 76.102 129.162 76.2281 128.795C75.9724 129.115 75.6866 129.409 75.3747 129.674C75.5177 129.561 75.9356 128.466 75.7962 128.453C75.7389 128.62 75.2963 129.497 75.2868 129.623L75.4787 128.446C75.3492 128.862 75.1484 129.253 74.885 129.601C74.9991 129.403 74.6297 129.502 74.5983 129.362L74.8308 129.179C74.433 129.184 75.1687 127.554 74.807 127.463C74.753 127.7 74.3134 128.841 74.0883 128.902C74.2512 128.332 74.8851 126.161 74.7534 125.612L74.5624 125.892L74.4779 125.438C74.2929 126.283 73.9789 128.043 73.8794 128.849C73.9219 128.962 73.8539 129.054 73.876 129.16L73.7479 129.086C73.6399 129.214 73.6275 129.294 73.4963 129.209C73.4304 129.278 73.39 129.368 73.3819 129.464C73.3737 129.559 73.3983 129.655 73.4515 129.734L72.9589 129.743C73.2065 129.212 72.9946 129.022 73.0732 128.657L73 128.615C72.9811 128.653 72.96 128.689 72.9367 128.725C72.9471 128.678 72.9499 128.631 72.9451 128.583L72.7183 128.452L72.7107 128.736C72.573 128.822 72.5941 128.566 72.585 128.37L72.3764 128.25C72.3637 128.272 72.349 128.298 72.3138 128.316C72.2786 128.335 71.7738 129.049 71.9102 128.669C72.0581 128.413 72.2866 127.949 72.5184 127.429C72.4838 127.433 72.4487 127.431 72.4147 127.423C72.4451 127.294 72.3522 127.109 72.1727 126.913C72.1155 127.264 72.0031 127.604 71.8397 127.921C71.8932 127.76 71.9224 127.593 71.9262 127.424C71.7905 127.541 71.7435 127.977 71.6121 127.833C71.8372 127.173 71.2592 127.751 71.7472 127.252C71.6582 127.001 71.5258 127.315 71.3481 127.217C71.4609 126.974 71.5376 126.716 71.5758 126.451C71.2147 126.236 70.8161 126.092 70.4011 126.026C70.2401 126.173 70.1287 126.366 70.0821 126.579C70.0769 126.444 70.1157 126.208 70.0242 126.155C69.6363 126.658 70.2074 126.32 69.8231 126.951C69.9485 126.565 69.7614 126.34 69.7066 126.055C69.9512 125.479 70.0666 126.048 70.1193 126.337C70.1586 126.23 70.1937 126.118 70.2246 126.003C70.0933 125.914 69.9988 125.781 69.9588 125.627C69.9189 125.474 69.9362 125.311 70.0076 125.17C70.0004 125.039 69.9489 124.951 70.0355 124.801L70.1386 124.943C70.2265 124.834 70.3284 124.737 70.4418 124.655C70.4336 124.444 70.3884 124.236 70.3083 124.041C70.1062 123.748 70.0209 124.538 69.999 124.399C69.4499 124.37 70.0501 122.823 69.4249 123.272C69.0885 123.737 69.0771 124.306 68.9187 124.673C69.0711 124.941 69.3678 124.444 69.4959 124.518L69.2309 124.707C69.2437 124.904 69.3409 125.083 69.4714 124.958C69.3116 125.192 69.0593 125.105 68.7735 125.043C68.9164 125.184 68.8596 125.249 68.4603 125.121C68.4074 125.075 68.3466 125.04 68.2809 125.017C68.2024 125.03 68.1269 125.058 68.0584 125.098C68.0583 125.064 68.0553 125.029 68.0494 124.996L67.967 125.138L68.0649 124.926L68.0755 124.908L67.0651 127.013C67.6378 127.264 68.1966 127.546 68.7389 127.858C68.5843 127.28 67.6266 126.615 68.474 126.499C69.741 127.153 69.2117 127.267 69.8948 127.808C67.8767 126.706 70.3809 128.318 68.7774 127.816C69.1187 128.054 69.4751 128.27 69.8442 128.461C69.436 128.323 69.0602 128.214 68.6869 128.125L68.7477 128.121C68.8599 128.113 68.9024 128.098 68.7773 128.07L68.737 128.047C68.7441 127.982 68.7371 127.916 68.7164 127.854C68.078 127.642 68.5731 127.908 68.737 128.047C68.737 128.047 68.7415 128.098 68.7346 128.118L67.0303 127.056L68.0645 124.902C68.0426 124.766 68.0662 124.627 68.1318 124.506L68.2137 124.593L68.3327 124.344C68.3605 124.102 68.2386 123.924 68.4027 123.809C68.3287 123.464 68.2829 122.935 67.9719 123.102L67.7455 123.688C67.8013 123.515 68.0063 123.38 68.0169 123.581C68.0025 123.285 67.4127 124.282 67.5431 123.464L67.832 123.099C67.7528 122.746 67.7308 122.04 67.4619 122.168C67.7307 121.601 67.4893 122.247 67.8481 121.601C67.4597 122.425 68.4062 121.733 67.9239 122.576C68.3172 121.828 68.2998 122.305 68.7077 121.692C68.6429 121.889 68.4964 122.058 68.7304 122.008C68.7218 122.069 68.7168 122.132 68.7154 122.194L68.7027 122.216C68.6879 122.242 68.6858 122.245 68.7027 122.216C68.6249 122.295 68.5617 122.388 68.516 122.489C68.4731 122.952 68.7536 123.041 68.7718 123.305C68.9062 123.241 68.7996 123.062 68.9246 122.871L68.9374 123.069L69.0887 122.756L69.1984 122.819C69.3041 122.636 69.3928 122.483 69.3019 122.294L69.5355 122.346C69.7444 122.144 69.9626 122.104 70.026 122.341C70.162 122.283 70.1335 122.915 70.154 122.542L70.4164 122.932L70.4735 122.833C70.6159 122.857 70.7148 123.007 70.8259 123.144L71.0528 123.148C71.0528 123.148 71.0528 123.148 71.0633 123.13C71.1546 123.039 71.2753 122.982 71.4042 122.971C71.33 123.04 71.2546 123.128 71.1883 123.193L71.3575 123.339C71.4502 123.292 71.535 123.231 71.6088 123.157C71.6867 123.31 71.7556 123.486 71.9933 123.438L72.1789 123.057C72.2813 123.243 72.7814 122.858 72.6853 123.262C73.2283 122.321 73.4922 123.318 73.82 123.248L73.6376 123.733C73.826 123.779 73.9441 123.988 74.0864 124.266L73.8985 124.684C73.9347 125.027 74.3012 124.756 74.5912 124.718L74.6145 124.678L74.6693 124.71C74.7189 124.705 74.7686 124.717 74.8112 124.743C74.8576 124.569 74.7643 124.579 74.6685 124.66C75.4283 123.86 75.1168 125.675 75.7351 125.12C75.7484 125.308 75.8276 125.281 75.9328 125.2C75.9328 125.2 75.9328 125.2 75.9214 125.169L75.9507 125.186C76.0222 125.13 76.0964 125.06 76.1637 125.011C76.1071 125.079 76.0424 125.14 75.9711 125.193C76.0556 125.265 76.1159 125.361 76.1439 125.468L76.3911 125.04L76.413 125.053C76.5761 124.922 76.391 125.294 76.1883 125.611C76.2027 125.716 76.202 125.822 76.1864 125.927C76.5751 125.254 76.3106 126.286 76.7572 125.564C76.7268 125.685 76.7392 125.812 76.7922 125.925C76.8121 125.924 76.8313 125.917 76.8484 125.907C76.8654 125.896 76.8798 125.882 76.8905 125.865C76.864 125.903 76.8407 125.944 76.8208 125.986C76.8596 126.092 76.8822 126.204 76.888 126.317C76.9839 126.387 77.0869 126.447 77.1953 126.495L77.2868 126.548L77.403 126.346L77.3621 126.586C77.4438 126.624 77.5172 126.678 77.5779 126.745L77.6085 126.802C77.7025 126.633 77.7631 126.448 77.787 126.256C77.7733 126.444 77.7895 126.632 77.8349 126.815C77.8796 126.781 77.9325 126.76 77.9882 126.753C78.1052 126.727 78.2728 126.741 78.1192 126.272C78.2919 126.581 78.3254 126.811 78.577 126.814C78.6541 126.917 78.7761 127.061 78.869 127.154L78.8873 127.164C78.9404 127.224 78.9493 127.234 78.8873 127.164C78.8746 127.186 78.8985 127.229 78.9041 127.262C79.1487 127.375 79.4021 127.467 79.6618 127.538C79.3931 127.251 79.0323 126.828 79.1725 127.017C78.7036 126.502 79.0836 126.858 79.5518 127.289L79.8331 127.554L79.941 127.553C80.0127 127.546 80.0834 127.531 80.1519 127.509C79.5142 126.78 79.2573 126.456 79.5205 126.549C79.3786 126.389 79.5733 126.458 79.6947 126.484C79.8162 126.51 79.9177 126.554 79.6289 126.446C79.6921 126.291 79.7171 126.123 79.7018 125.956L79.5298 125.857C79.2695 125.463 79.329 125.165 79.1327 124.652C79.0808 124.514 79.02 124.379 78.9505 124.249C78.9163 124.181 78.878 124.115 78.8356 124.051L78.6586 123.783C78.2755 123.219 77.8275 122.701 77.3238 122.241C76.968 121.304 76.4826 120.421 75.8817 119.618L75.4038 119.601C74.9825 118.64 73.4368 117.143 73.5601 116.541C72.0498 116.157 70.7242 112.318 69.6383 110.793L70.0511 110.475C69.3335 109.277 68.7256 108.016 68.2346 106.709L68.6817 106.577C68.3571 105.204 66.7311 103.626 65.8328 101.624C65.7407 101.834 66.0126 102.318 66.288 102.619C65.2467 101.676 64.8361 100.317 64.474 99.0002C64.112 97.6837 63.8789 96.3635 63.1086 95.3822C63.0751 94.8915 62.9069 94.4197 62.6226 94.0184C62.6401 94.0668 62.6485 94.118 62.6476 94.1695L62.5611 93.939C62.4023 93.7156 62.2245 93.491 62.0601 93.235C62.2321 93.4126 62.3866 93.6063 62.5213 93.8136C62.3266 93.227 62.1848 92.6243 62.0975 92.0125L61.5394 91.8806C61.5313 91.8271 61.5168 91.7846 61.505 91.729C61.1297 91.1366 61.5647 91.1438 62.028 91.3723C62.0004 91.0517 62.0084 90.729 62.0517 90.4102C61.1464 90.1022 61.8253 88.6304 60.834 88.1166C60.9924 87.8422 60.8526 86.9857 60.7972 86.1438C60.7711 85.4115 60.7979 84.6805 61.0421 84.3336C60.7737 83.6501 60.6776 82.911 60.7624 82.1815L60.1068 81.9396L60.7733 80.2021C60.318 79.2415 60.0798 78.8259 59.658 79.8607C59.8421 79.1364 59.9799 78.4011 60.0703 77.6593C60.1638 77.0175 60.3305 76.3886 60.5671 75.7847L60.1621 75.8778C60.2068 75.1327 60.803 73.9987 60.5074 73.5304C60.3496 72.8482 60.3074 72.1443 60.3825 71.4482C60.497 70.3761 60.6823 69.3128 60.937 68.2652C61.0182 67.9218 61.1052 67.5768 61.1964 67.2245C60.5459 66.7709 60.6229 67.2545 60.3483 67.0032C60.3209 67.0508 60.2013 66.9622 59.9173 66.5836C59.3647 66.045 58.8821 65.4444 58.3579 64.8734L59.4005 65.1972C58.9792 64.2368 57.9947 63.5757 59.1875 63.9521C58.5471 63.6832 57.9867 63.2538 57.5605 62.7054C56.8909 61.9789 56.2825 61.1985 55.7413 60.3719C54.5613 58.6807 53.6877 56.898 53.3024 56.5683C53.1331 55.8577 52.9044 55.1626 52.6188 54.4904C52.3283 53.8104 51.9436 53.1247 51.597 52.3392C51.8847 52.6858 52.5825 52.6349 51.9248 51.3234C51.4053 51.843 50.9817 51.2668 50.546 50.4834C50.1104 49.7001 49.7405 48.7352 49.1162 48.2869C49.8041 48.6841 47.9701 44.1368 49.286 45.4576C48.8216 44.3015 48.7553 45.5317 48.1956 44.7012C48.1343 43.9207 48.0047 43.1471 47.8081 42.3893C47.6072 41.6049 47.4274 40.7839 47.1938 39.9464C46.9601 39.109 46.77 38.2381 46.5958 37.3569C46.5108 36.9126 46.4242 36.4626 46.368 36.0105C46.3119 35.5585 46.2846 35.0988 46.2688 34.636C46.4415 34.5649 46.7681 35.1486 46.964 34.3445C46.6145 33.7329 46.2431 33.1087 45.931 32.4747C45.9867 31.736 46.9409 31.7649 46.2617 30.4653C46.4213 30.6452 46.6585 30.9188 46.6989 30.4347C46.186 26.8697 46.5907 23.1856 47.178 19.5825C47.7653 15.9794 48.57 12.414 48.8024 8.69875C48.8439 9.74239 49.0543 9.10761 49.3048 8.4033C49.2392 8.89722 49.7256 8.51943 49.9371 8.68546C50.036 7.66918 50.0821 6.61754 50.2229 5.5962C50.6334 5.4429 50.9119 4.6816 51.1778 3.94225C51.4436 3.2029 51.7496 2.52085 52.1035 2.49099L51.6438 3.33795C52.2333 2.88306 52.4661 3.45167 52.6784 4.14021C52.8907 4.82876 53.125 5.65682 53.6162 5.73551C52.9914 6.24319 52.9509 7.20052 52.9268 8.26483C52.9027 9.32914 52.7589 10.4317 51.8911 11.3602C51.9616 11.8888 52.3044 11.0329 52.4576 11.3506C51.9164 11.7895 51.6185 12.4323 51.5121 13.7321L51.6457 13.6189C51.4317 14.4712 51.2648 15.2335 51.1396 15.9321C51.0144 16.6307 50.9669 17.296 50.9184 17.9462C50.8699 18.5964 50.8301 19.2906 50.8052 20.052C50.7804 20.8134 50.7221 21.658 50.7135 22.6532L50.2591 22.3079C50.2517 22.8041 50.3296 23.298 50.4894 23.7679C49.6657 24.6877 50.6773 21.3637 49.7843 22.1752C50.2333 22.8004 50.0484 24.3037 50.0246 25.7731C50.0007 27.2425 49.9938 28.6827 50.5697 29.0542C50.5649 30.3639 50.0117 28.6686 50.0084 29.9841L50.3208 30.3303L49.9284 30.6551C50.0299 31.5187 50.4316 31.9214 50.6815 31.9534C50.6772 31.6808 50.6973 31.4083 50.7417 31.1393C50.9142 31.7957 50.9764 32.4763 50.9256 33.1531C50.9298 33.7459 50.9017 34.2761 50.9415 34.5284L50.6688 33.3951C50.7016 35.309 50.8962 37.2166 51.2503 39.0977C51.5917 41.0414 51.9669 42.9267 52.1573 44.6759L51.8536 44.5005C51.922 45.3117 52.1444 46.1024 52.5088 46.8304C52.9547 47.5826 53.2928 48.3937 53.5132 49.2399L53.5279 49.1215C53.5604 49.8479 53.7468 50.5592 54.0746 51.2082C54.0341 50.4334 55.0945 52.2557 54.9885 51.2479C55.1525 51.9525 55.3189 52.3657 55.3805 52.6647C55.4378 52.8544 55.4637 53.0523 55.457 53.2504C55.3665 53.747 55.3399 54.253 55.378 54.7563L55.9357 54.9564C55.9582 55.6865 55.8307 55.8227 56.4894 57.1495C56.1625 55.9411 57.4472 57.6538 57.1421 56.2725C57.6266 56.7418 58.0539 57.2669 58.4149 57.8368C58.6787 58.2895 58.913 58.7588 59.1162 59.2418C59.536 60.0696 59.8811 60.7226 60.7712 60.9048C60.7843 62.6736 58.7319 59.1468 59.0294 59.8992C58.3491 59.5649 59.095 61.2982 59.76 62.014C60.0701 62.3979 60.6126 62.5062 61.2509 62.7527C61.649 62.9003 62.0271 63.0972 62.3761 63.339C62.6083 62.6241 62.8378 61.9223 63.0336 61.2791C63.4039 61.9222 63.4544 61.3952 63.6186 60.7728C63.7828 60.1504 63.9414 59.3686 64.3993 59.5305C64.2656 59.1704 64.4559 58.5874 63.8789 59.0544C64.1828 58.6554 64.4625 58.2386 64.7167 57.8061C64.9385 57.4219 65.1063 57.0553 65.3314 56.7413C65.6904 56.0778 66.2481 55.5433 66.9262 55.2128C66.875 54.8368 66.2868 55.3316 66.308 55.0413C66.4752 54.9378 66.966 54.6454 66.9908 54.3573C67.0157 54.0692 66.5947 54.4604 66.2626 54.6638C67.8182 52.8736 68.6634 53.3616 69.3464 53.8096C69.5294 53.3746 69.8032 52.9838 70.1497 52.6634C70.495 52.4287 70.8956 52.2883 71.3118 52.2561C71.4354 51.8054 71.7722 51.146 70.6406 51.9905L71.4286 51.2257C71.7948 50.8956 72.2665 50.5434 72.7203 50.2053C72.9372 50.0408 73.1625 49.8875 73.3952 49.7461C73.6259 49.6255 73.8407 49.5154 74.0307 49.4397C74.4114 49.2789 74.6925 49.2315 74.7889 49.3603C74.9306 49.1791 75.1189 49.0399 75.3337 48.9576C75.535 48.8717 75.7459 48.81 75.9618 48.7738C77.0309 48.1715 78.1675 47.6977 79.3479 47.3623C79.2029 47.4445 79.0647 47.5403 78.9317 47.6099C79.1147 47.7148 79.3202 47.774 79.5309 47.7827C79.7415 47.7914 79.9512 47.7493 80.1422 47.6599C80.6459 47.4115 81.1855 47.244 81.7413 47.1634L81.685 47.0918C82.0645 46.9499 82.3737 46.8454 82.6282 46.7679C82.8331 46.7107 83.0419 46.6682 83.253 46.6408C83.4745 46.6075 83.6993 46.6013 83.9223 46.6223C84.1443 46.6397 84.3675 46.6327 84.588 46.6016C85.1241 46.5367 85.6559 46.4397 86.1804 46.311L86.0032 46.8039C86.1466 47.3161 86.8116 47.2121 87.7076 47.0123C88.6036 46.8124 89.7268 46.6753 90.5939 47.0833L89.8978 47.2327C90.1656 47.3645 90.4713 47.3976 90.7611 47.3262C91.0999 47.2632 91.4793 47.1554 91.8901 47.0608C92.3009 46.9662 92.6899 46.8248 93.055 46.7331C93.3727 46.6531 93.7033 46.6382 94.0269 46.6893C94.2738 46.6757 93.7319 46.4311 93.445 46.2606C94.8587 46.4231 94.9003 46.613 94.8086 46.8479C94.7169 47.0828 94.515 47.3565 95.4174 47.8385C95.9008 47.6687 95.304 46.8265 96.6162 47.3255C96.9325 47.4081 97.2208 47.5745 97.4505 47.8072C97.8024 48.0933 98.2422 48.4302 98.6659 48.8456C99.5539 49.6314 100.479 50.5218 101.416 50.843C101.177 50.8079 100.929 50.7911 100.823 50.8719C100.718 50.9526 100.764 51.1106 101.055 51.4934C101.362 51.7669 101.699 52.0055 102.059 52.2049C102.454 52.433 102.85 52.7199 103.253 53.0015C103.643 53.2647 103.991 53.5856 104.284 53.9532C104.559 54.2592 104.735 54.6413 104.788 55.0492C104.96 55.1485 105.058 55.1657 105.117 55.1313C105.372 55.6351 105.803 56.4352 106.133 57.216C106.434 57.8215 106.593 58.4874 106.599 59.1634C107.583 59.2433 108.108 60.9861 108.213 62.6128C108.318 64.2395 108.111 65.6961 108.883 65.678C108.87 66.8816 108.698 68.0781 108.37 69.2364L108.548 69.1827C108.399 70.0323 108.064 70.8388 107.569 71.5451C107.264 71.9345 106.892 72.2667 106.471 72.526C106.292 73.0225 106.613 72.7787 106.704 72.7822C106.232 73.8351 105.541 74.7753 104.677 75.5399C103.87 76.1423 102.953 76.5823 101.978 76.8354L102.023 77.4079C101.643 77.4911 100.762 78.2561 99.4897 78.9899C98.1305 79.8248 96.5852 80.3091 94.9925 80.399C95.0405 80.4554 95.1012 80.4997 95.1696 80.5281C95.238 80.5566 95.3121 80.5684 95.3859 80.5627C93.6293 80.656 91.6477 81.2489 89.8324 81.4693C88.017 81.6897 86.4484 81.5842 85.9476 80.5925C85.2196 80.3576 84.5091 80.084 83.8128 79.7942C85.2396 79.9935 85.16 79.7426 84.8875 79.4877C84.6151 79.2329 84.1607 78.8876 84.7426 78.843C84.1996 78.7098 83.6365 78.6792 83.0822 78.7528C82.659 78.8012 82.5105 78.974 83.1568 79.1813L83.3865 79.1383C83.6263 80.2525 79.9418 78.5302 79.8179 79.1759L77.8447 78.4611C77.5188 78.3412 77.188 78.2381 76.8663 78.1109L75.9058 77.7125C75.2708 77.4434 74.6209 77.2 73.9922 76.9199L72.1394 76.0307C71.5143 75.7528 70.9273 75.409 70.3376 75.0783C69.7479 74.7476 69.1482 74.4257 68.5812 74.0642C67.4532 73.3552 66.3663 72.5828 65.3259 71.7506L66.2581 71.5472L64.8297 70.4297C64.3536 70.2573 63.9533 70.4604 64.9816 71.2737C64.759 71.2022 64.5537 71.0854 64.3786 70.9305C64.2034 70.7757 64.0623 70.5862 63.9642 70.374L63.9439 70.333C63.9008 70.6106 63.8513 70.8992 63.7976 71.195C63.6402 71.9239 63.5388 72.6996 63.4035 73.407L63.2943 73.9343L63.2035 74.438C63.1526 74.7279 63.0848 75.0146 63.0005 75.2966C62.8373 75.8074 62.6686 76.1589 62.4533 76.2444C62.8761 76.1639 63.2854 76.024 63.669 75.8289C63.1776 76.4771 62.6998 77.1527 62.2108 77.8559C61.7219 78.5591 61.3072 79.2858 60.8668 80.0317C61.2205 79.8163 61.8741 80.0278 62.4715 80.0409C63.0689 80.0541 63.5907 79.8771 63.7583 78.9445C63.8398 79.2467 63.8986 79.5546 63.934 79.8656C63.9916 80.3251 63.9872 80.7902 63.921 81.2486C63.779 80.9031 62.7538 80.4478 62.7363 80.9598C63.698 82.2517 63.2946 81.8773 64.2283 83.4459C63.9964 82.9265 62.9074 83.7225 63.1258 84.595C63.2722 84.4258 64.2757 84.4539 64.3375 84.1187C64.0961 84.8917 63.842 85.6867 63.654 86.4856C63.7268 85.9032 64.5809 86.1816 65.0078 86.5745C64.8688 86.4942 64.98 86.9438 65.1348 87.4869C65.3079 87.9684 65.4434 88.4626 65.5401 88.9651L65.0365 88.1474C65.3423 88.9736 65.3375 89.8829 65.023 90.7059C64.6864 91.5432 64.6907 92.479 65.035 93.3133C65.1556 92.9438 66.1696 92.1339 66.7175 93.2552C66.3478 93.9842 66.0311 94.739 65.7699 95.5135C65.3852 96.6136 65.2883 97.7938 65.4884 98.9418L65.9641 99.2165C66.0768 99.7987 66.201 100.378 66.3389 100.95C66.4986 100.276 66.7027 99.0526 66.8781 97.8024C67.0535 96.5522 67.2201 95.2579 67.2859 94.3835C67.8684 95.1492 67.7215 94.474 68.2382 95.7677C68.7184 96.0937 68.3936 94.8816 68.2606 94.5121C68.7254 95.4732 69.1849 96.4265 69.6907 97.3673C69.3455 97.4413 69.4344 98.0732 69.5501 98.701C69.6657 99.3289 69.8066 99.9469 69.5259 100.019C69.2165 98.8646 68.9707 97.6933 68.7222 96.535C68.0272 96.6655 67.7356 99.1903 68.8732 101.242C69.3844 101.65 69.7814 100.303 70.0096 100.254C69.9194 100.622 70.5807 102.409 70.8239 102.52L70.7158 101.482C71.0327 101.977 71.2169 102.545 71.2509 103.132C71.2845 103.46 71.3836 103.777 71.5422 104.066C71.7008 104.354 71.9157 104.608 72.1742 104.812C72.4709 105.261 73.716 105.775 73.4097 106.052C72.2998 105.685 70.1072 106.702 69.8641 107.503C70.005 107.648 71.929 109.623 72.581 109.955C73.5606 110.413 73.1827 108.068 74.0132 108.455C73.866 108.575 73.9149 109.115 73.9512 109.331C74.3754 109.737 74.3312 108.833 74.8824 109.932C74.3884 110.467 76.211 112.051 74.6734 110.734C75.1143 111.871 75.4487 111.757 76.1549 112.985C75.5356 112.832 75.5024 114.867 75.9622 116.006C76.0573 115.841 76.4152 115.965 76.5727 116.021C77.9187 118.101 78.8808 119.071 80.0816 121.048C80.3333 121.144 81.0826 122.001 81.0956 121.438C81.1268 121.612 81.1327 121.796 81.1727 122.014C81.1958 122.137 81.2291 122.257 81.2722 122.374C81.3381 122.544 81.4155 122.709 81.5037 122.869C82.2023 123.467 81.9955 123.065 81.7457 122.56C81.6849 122.437 81.6226 122.308 81.5765 122.194C81.5379 122.117 81.5146 122.034 81.5078 121.949C81.5079 121.822 81.605 121.781 81.8942 121.914C81.7385 122.048 81.9454 122.67 82.1773 123.316C82.4092 123.963 82.7386 124.719 82.8799 125.235C82.4122 125.047 82.0756 124.507 81.7803 123.843C81.6298 123.513 81.4894 123.139 81.3564 122.769C81.2234 122.4 81.1273 122.076 81.0514 121.827C80.8455 121.965 80.7027 122.179 80.6541 122.422C80.5845 122.758 80.5506 123.1 80.5531 123.442C80.5466 123.809 80.5593 124.177 80.5912 124.543C80.6141 124.886 80.6613 125.228 80.7323 125.566C81.059 126.589 81.807 126.332 81.7492 126.475C82.1499 127.116 82.2828 127.52 82.2415 127.735C82.2002 127.95 82.0172 127.971 81.818 127.978C81.6188 127.985 81.4324 127.936 81.4089 128.044C81.3854 128.153 81.5284 128.387 82.0412 129.053C82.4266 129.476 82.7777 129.84 83.1033 130.155C83.1858 130.134 83.2662 130.105 83.3432 130.069L83.2291 130.266L83.4567 130.481C83.5376 130.425 83.5948 130.419 83.5811 130.552L83.5578 130.593L83.6164 130.626C83.6713 130.531 83.7347 130.422 83.8044 130.301C83.8741 130.18 83.9755 130.004 84.0302 129.851C83.7767 129.536 83.5486 129.202 83.3481 128.852C83.5821 129.148 83.8165 129.469 84.0546 129.791C84.1581 129.612 84.2091 129.456 84.2296 129.429C84.099 129.155 83.9366 128.898 83.7457 128.662C83.9332 128.861 84.1052 129.075 84.2601 129.3C84.2749 129.275 84.2641 129.234 84.27 129.199C84.4263 128.928 84.3638 129.087 84.2877 129.345L84.3262 129.397C84.3419 129.298 84.3738 129.203 84.4208 129.115C84.4649 128.979 84.4294 129.286 84.4444 129.573L84.5776 129.781C84.5794 129.774 84.583 129.768 84.5882 129.763L84.5776 129.781L84.8253 130.197C84.8192 130.14 84.8095 130.081 84.8077 130.016C84.8226 130.084 84.8281 130.15 84.8372 130.219C84.9589 130.431 85.0764 130.65 85.2116 130.889C85.239 130.841 85.2591 130.916 85.3232 131.017C85.441 131.26 85.6418 131.732 85.6595 131.626C85.6266 131.35 85.5662 131.078 85.4792 130.814L85.6174 130.718L85.5429 130.509C85.5566 130.249 85.7575 130.687 85.978 131.082C85.9377 130.938 85.8806 130.798 85.8079 130.667C85.8041 130.572 85.7971 130.5 85.7911 130.443C85.5596 130.168 85.3737 130.016 85.0899 129.731L86.0779 130.301L86.0457 130.238C86.1478 130.366 86.0689 130.071 86.0076 129.831C85.9463 129.591 85.9047 129.401 86.1703 129.549C86.1175 129.491 86.0607 129.437 86.0002 129.388C86.269 129.514 86.069 129.125 85.9736 128.884C85.8782 128.644 85.867 128.579 86.6753 129.021C86.8369 129.045 86.9997 129.059 87.163 129.064C87.1607 129.228 87.3363 129.33 87.542 129.404C87.7482 129.444 87.9391 129.541 88.0931 129.684C88.2576 129.593 87.7777 129.072 87.6074 129.198L87.6752 129.267C86.7848 128.899 87.6013 128.668 87.0046 128.392C87.4039 127.7 87.2969 126.77 87.6159 126.09L88.234 126.516L88.319 126.267C88.1986 126.129 87.8463 125.911 87.7863 126.091C87.4626 125.807 88.2453 125.981 88.3923 126.056C88.2953 125.59 87.5759 125.78 87.5906 125.661L87.7106 125.555L87.7726 125.625C88.1016 125.663 88.3902 125.806 88.4656 125.591C88.4015 125.397 88.0927 125.307 88.0945 125.245C88.0964 125.182 88.0287 125.207 88.1368 125.171L88.2336 124.852L88.6925 125.248C89.0174 125.26 88.8117 124.966 89.328 125.415C88.525 124.727 89.5882 124.17 89.3756 123.896C89.8472 123.924 89.9528 123.741 90.0141 123.509C90.0907 123.621 90.6525 123.975 90.6886 123.752C89.4544 123.151 90.3612 123.119 89.5874 122.482C90.0785 122.941 90.0306 122.035 90.7137 122.702C90.7073 122.494 90.2709 122.447 90.0537 122.156C90.7187 122.052 90.219 121.168 90.6404 120.801C90.8287 120.956 91.0467 121.07 91.2809 121.137L90.6431 120.442C90.7727 120.395 91.5876 120.885 91.1505 120.408C91.2696 120.506 91.4424 120.654 91.5164 120.619C91.3064 119.293 93.2041 119.183 92.3477 117.43C92.5717 117.735 92.6511 117.674 92.7149 117.588C92.7522 117.693 93.0991 117.81 93.2966 117.958L92.9502 117.232C93.5689 117.52 93.236 116.855 93.8121 117.158L93.6248 117.221C94.371 117.466 94.9342 118.333 95.7774 118.825C94.9349 118.543 96.5899 119.953 95.3422 119.579C95.4761 119.744 95.6477 119.692 95.8142 119.851C95.4103 119.706 95.2848 119.745 95.345 120.005L95.4365 120.057C95.0757 120.454 95.3123 120.864 95.245 121.513L94.8495 121.226C94.8389 121.371 94.958 121.469 95.0324 121.585C94.3245 121.333 95.1791 121.255 94.4189 120.958C95.177 121.605 93.9668 121.741 94.8789 122.409C94.7817 122.577 94.4239 122.073 94.3282 122.247L94.5642 122.447L94.2007 122.291C94.1922 122.432 94.4877 122.681 94.7067 122.817C94.6943 122.771 94.8133 122.776 94.8485 122.758C95.0714 123.081 94.5079 123.102 94.5865 123.211L94.5185 122.957C94.0071 123.277 94.0257 124.039 93.2416 124.172L93.063 124.025C92.4859 124.179 93.1205 124.424 92.7382 124.706L92.7858 124.733C92.5475 124.698 92.3895 124.743 92.3523 124.858C92.6378 124.896 92.7047 125.296 93.0348 125.316C92.4356 125.458 92.6197 125.325 91.7399 125.159L92.0397 125.4C91.6905 125.32 91.5289 125.237 91.3385 125.381C91.7075 125.384 91.778 125.786 92.2496 125.814C92.7701 126.602 91.1874 126.006 92.1541 126.774C91.1341 126.453 91.8283 126.146 91.5768 126.143C91.3232 125.889 90.8047 125.917 90.8302 126.092C90.7818 126.235 91.8933 126.955 91.7007 127.263C91.7176 127.234 91.7856 127.268 91.7973 127.231C91.966 127.48 91.3505 127.295 91.6592 127.639C91.0569 127.423 91.588 127.847 90.8638 127.487L91.1865 127.283C90.91 127.348 89.9836 127.077 90.2482 127.557C90.4183 127.606 90.5947 127.631 90.7719 127.63C90.9404 127.82 90.5494 127.711 90.723 127.909C91.4494 128.265 91.0733 127.623 91.7116 127.743C91.9637 127.991 91.0027 127.821 91.8341 128.131C90.7788 127.736 91.7884 128.514 90.9192 128.329L91.3569 128.543C91.27 128.542 91.0317 128.507 91.0067 128.575L91.6243 128.756C91.2655 128.71 91.4542 128.941 91.5545 129.13C92.065 128.415 92.8751 127.629 93.1607 126.813L93.1278 126.541L93.9365 126.315C93.1264 127.574 91.8438 129.01 91.2952 130.044C91.2466 130.128 91.1938 130.22 91.1495 130.297C91.1375 130.232 91.1332 130.165 91.1367 130.099C90.9906 130.073 90.857 129.84 90.6644 129.768C90.6563 129.786 90.6464 129.803 90.6348 129.819C90.7439 129.926 90.692 129.94 90.5757 129.922C90.5417 129.995 90.5014 130.064 90.4553 130.13C90.4561 130.526 89.4912 129.73 89.653 130.218L90.3357 130.388L90.0895 130.485L90.6084 130.702C90.1086 130.764 90.1483 130.924 90.1393 131.294C89.88 131.042 89.3636 130.846 89.2374 131.057C89.401 131.39 89.671 131.244 89.4448 131.542C89.731 131.664 90.0999 131.794 89.8014 131.373C89.9405 131.453 90.1003 131.472 90.2399 131.543C90.4247 131.932 90.0519 132.088 89.9816 132.218C90.0037 132.144 89.9977 132.064 89.9648 131.994C89.6916 132.036 89.4383 132.061 89.1653 132.069C89.1993 132.148 89.2536 132.216 89.3227 132.267C89.3918 132.318 89.4732 132.35 89.5586 132.359C89.4613 132.435 89.2526 132.349 89.143 132.471C89.4751 132.741 89.7735 133.069 90.0314 132.935C89.8213 133.028 89.6197 133.107 89.4098 133.166C89.5207 133.338 89.6106 133.858 89.7498 133.904C89.7507 134.173 89.5131 134.221 89.2855 134.261C89.0578 134.3 88.847 134.344 88.8401 134.711C88.8172 134.682 88.7858 134.66 88.7503 134.649C88.7147 134.638 88.6766 134.638 88.6412 134.65C88.6134 134.767 88.5936 134.886 88.582 135.006C88.6731 134.916 88.771 134.834 88.875 134.76L88.8347 134.737L88.8754 134.785C88.9794 134.723 89.0366 134.717 89.0384 134.781C89.0375 134.825 89.0278 134.867 89.0101 134.907L89.2555 135.107C89.1456 135.297 89.085 135.14 88.992 134.955C88.7606 135.41 88.4816 135.839 88.1598 136.236C88.2173 136.508 88.2669 136.785 88.3265 137.054C88.1904 137.146 88.1266 136.758 88.0365 136.398C87.9668 136.519 87.8562 136.626 87.7703 136.733C87.8233 136.87 87.8586 137.013 87.8753 137.159C87.8017 137.092 87.7131 136.992 87.6254 136.908C87.6001 136.952 87.579 136.988 87.5295 137.023L87.6077 136.888C87.3896 136.674 87.1774 136.551 87.1797 137.206C87.1702 137.234 87.1634 137.263 87.1594 137.292C87.1813 137.331 87.2056 137.368 87.2323 137.403C87.3093 137.413 87.3196 137.209 87.3654 137.172C87.3772 137.447 87.3838 137.749 87.3679 138.013L87.3899 138.026C87.828 138.61 87.8859 137.961 87.9679 139.086C87.7715 138.48 87.6324 138.4 87.5132 138.463ZM73.3546 129.268C73.4137 129.139 73.4647 129.005 73.5073 128.869L73.2292 128.708L73.3546 129.268ZM73.1793 128.372C73.3493 128.441 73.4822 128.498 73.5868 128.554C73.6454 128.301 73.6768 128.043 73.6803 127.783L73.3685 127.554C73.2954 127.732 73.2194 127.956 73.1514 128.175L73.3248 128.188L73.1793 128.372ZM72.5693 128.127L72.5474 128.114L72.5693 128.127ZM72.6325 127.232C72.6621 127.181 72.6917 127.129 72.7191 127.082L72.576 126.975C72.5245 127.013 72.6005 127.135 72.6325 127.232ZM71.7055 125.677C71.7084 125.591 71.6989 125.505 71.6773 125.422C71.6516 125.492 71.6216 125.561 71.5873 125.628L71.7055 125.677ZM68.2154 124.564L68.241 124.579C68.2949 124.497 68.3291 124.403 68.3407 124.305L68.2154 124.564ZM69.0745 122.772L68.947 123.035L68.9655 123.231C69.0253 123.086 69.1042 122.95 69.2 122.825L69.0745 122.772ZM69.6326 122.651L69.6221 122.669C69.8082 122.532 69.7403 122.591 69.6295 122.639L69.6326 122.651ZM73.4522 125.119C73.2095 125.314 72.9783 125.523 72.7597 125.744L72.833 125.752C72.6085 125.803 72.6319 125.948 72.7627 126.136L72.9895 125.574L72.7835 126.168C72.8455 126.253 72.9127 126.334 72.9847 126.411C73.1634 125.989 73.3195 125.558 73.4522 125.119ZM60.3442 66.7569L60.6772 66.9492C60.2291 66.2465 60.2892 66.5056 60.3442 66.7569ZM96.3476 52.6836C96.1125 52.5928 95.8667 52.5328 95.6162 52.5053C95.8898 52.7413 96.2941 53.3846 96.6604 53.2741C96.6515 52.9176 96.5343 52.7573 96.3476 52.6836ZM67.3544 69.4625C67.2071 69.0456 66.9948 68.6547 66.7254 68.3041C67.3528 68.5103 67.538 69.1782 68.1859 69.3913C68.5608 68.632 66.1685 67.5532 65.6329 66.1316C65.9868 66.2286 66.3502 66.7653 66.6414 67.1481C66.9327 67.531 67.1735 67.7139 67.1963 67.1758C67.2057 67.9032 67.6936 68.2581 68.2616 68.6348C68.8296 69.0116 69.4909 69.3787 69.907 70.2045L70.103 69.7468C70.3371 70.1178 70.6275 70.4501 70.9639 70.7317L70.6256 69.7119C70.8036 69.9906 71.0392 70.2281 71.3164 70.4083C71.5982 70.5606 71.8946 70.6843 72.201 70.7775C72.8131 70.9229 73.3835 71.2071 73.8681 71.6083C71.6632 70.2133 73.0691 71.8008 71.9357 71.5075C72.3392 71.9341 72.8278 72.271 73.3699 72.4965C73.6984 72.5843 74.0422 72.5978 74.3765 72.5361C74.7354 72.4739 75.1022 72.4729 75.4614 72.5331C75.7202 72.5829 75.9727 72.6616 76.214 72.7675C76.5693 72.8944 76.9144 73.048 77.2465 73.227C76.943 73.0729 76.6122 72.9797 76.2729 72.9528C75.9549 72.9205 75.7697 72.9794 76.0483 73.2573C76.7134 73.4756 77.4085 73.5889 78.1085 73.593C80.2549 74.6078 77.5741 73.9187 78.3928 74.5963C79.3783 74.3261 79.4057 75.225 80.3571 75.7743L80.5211 75.3128C80.9482 75.3884 81.3621 75.5254 81.7498 75.7197C81.8251 75.766 81.8896 75.8277 81.939 75.9009C81.9885 75.974 82.0218 76.0569 82.0367 76.1439C82.1073 76.4189 82.1511 76.6979 83.4161 76.8476L82.5882 75.8817C82.9795 76.0491 83.3842 76.2438 83.7599 76.3875L83.6446 75.7842C84.838 76.4976 85.304 76.4593 86.6195 76.4626C86.2801 76.7545 86.6887 77.3905 87.9063 77.4787C88.7418 77.2146 87.4723 77.0135 89.162 77.1206C88.7756 76.8097 88.3943 76.4139 87.6445 76.8251C87.5787 76.6602 87.2975 76.4881 87.2354 76.3254C88.1007 76.0688 89.3615 76.3526 89.9632 76.3244C89.7469 76.3364 89.5331 76.377 89.3275 76.4453C90.1321 76.6735 90.948 76.8596 91.772 77.0028C92.1356 76.7785 91.8133 76.6607 91.5062 76.542C92.0314 76.6523 92.5662 76.711 93.1028 76.7173C92.8597 76.3525 92.8333 75.942 91.8378 75.8747C92.5932 75.9424 93.3515 75.9715 94.1098 75.9619C94.2218 75.7679 95.102 75.232 94.7863 75.162C95.4595 74.9375 96.1604 74.807 96.8692 74.774C97.6742 74.7283 98.4476 74.4446 99.0913 73.959C99.2954 73.9858 99.5028 73.9465 99.6829 73.8468C100.235 73.4222 100.737 72.936 101.178 72.3976C101.659 71.8534 102.194 71.3597 102.775 70.9242C102.752 70.552 102.702 70.182 102.624 69.8172C102.953 69.3485 103.035 69.6885 103.154 69.9814C103.273 70.2744 103.459 70.509 104.043 69.5824C104.196 69.38 104.287 69.1375 104.304 68.8844C104.307 68.8296 104.291 68.7755 104.26 68.7307C104.228 68.6859 104.182 68.6531 104.13 68.6373C103.942 68.5579 103.675 68.5797 103.646 68.3092C103.774 68.1635 103.934 67.9876 104.106 67.7746C104.276 67.5487 104.418 67.303 104.529 67.0427C104.662 66.7281 104.727 66.3883 104.718 66.0465C104.709 65.7047 104.627 65.3688 104.477 65.0615C104.373 65.5379 104.486 65.8911 104.411 66.3164C104.301 65.9689 104.172 65.6275 104.026 65.2937C103.421 66.5446 103.488 67.2566 103.035 66.3852C103.726 66.3793 103.837 65.4187 103.707 64.4265C103.577 63.4344 103.305 62.4432 103.94 62.1216C103.776 61.9149 103.591 61.7201 103.41 61.5275C103.498 61.7203 103.434 61.7808 103.525 61.9698C103.325 61.8283 103.185 61.6182 103.13 61.3796C103.075 61.141 103.11 60.8907 103.228 60.6761C103.349 60.3805 103.382 60.0564 103.323 59.7424C103.265 59.4284 103.118 59.1378 102.899 58.9054C102.45 58.373 102.006 58.1116 102.116 58.5706C101.933 58.094 101.734 57.6182 101.501 57.1518C101.242 56.8902 101.125 57.0081 101.263 57.2341C100.843 56.6653 100.389 56.1216 99.9051 55.606L99.8819 55.6463C99.8208 55.3813 99.7349 55.1226 99.6254 54.8737C99.4982 54.5953 99.3559 54.318 99.255 54.1378C98.6618 53.8977 99.3914 54.4507 99.1644 54.4807C98.9073 54.1021 98.6282 53.739 98.3286 53.3931C97.6746 53.3766 98.3787 54.2612 99.0733 54.7989C98.1618 54.941 98.0534 54.6979 97.782 54.3314C97.621 54.0792 97.4227 53.8528 97.1938 53.6601C96.785 53.3617 96.3161 53.1559 95.8197 53.057L96.7444 53.83C96.2722 53.9372 95.7777 53.8835 95.3395 53.6775C94.8046 53.4684 94.2445 53.3304 93.6737 53.267C93.8711 53.1956 94.5716 53.2244 95.1391 53.1373C95.7065 53.0502 96.1034 52.9037 95.5511 52.4238C94.9953 52.2808 94.4891 51.9886 94.0874 51.5787C93.8762 52.0374 93.2724 51.596 92.3975 51.2861L92.2416 51.9279C91.3853 51.4336 91.5495 51.1576 91.0615 50.7099C90.8356 50.658 90.6034 50.6389 90.3721 50.6534C90.2046 50.674 90.0421 50.7238 89.8919 50.8006C89.6649 50.941 89.4659 51.1222 89.3051 51.3352C88.8867 51.2741 88.7559 51.2133 88.7657 51.1457C88.7754 51.0782 88.9267 50.985 89.0739 50.8992C89.366 50.7312 89.6459 50.483 88.6118 50.2714C88.2619 50.2876 87.9113 50.276 87.5633 50.2368C87.2341 50.2215 86.9062 50.1854 86.5816 50.1287C86.4151 50.096 86.2486 50.0633 86.0732 50.0206L85.539 49.9317C85.1656 49.8771 84.76 49.76 84.3105 49.7103C83.2913 50.0391 84.5263 50.0886 84.1721 50.3134L83.2002 49.8841C82.9778 49.9313 83.0819 50.089 83.1215 50.1557C82.3283 50.093 82.9666 49.5199 81.6954 49.5666C81.4464 49.2374 80.8632 49.6813 80.1705 50.1206C79.8301 50.3895 79.4641 50.6243 79.0778 50.8217C78.8851 50.913 78.6821 50.9809 78.4732 51.0239C78.2715 51.0872 78.0604 51.1155 77.8491 51.1076C77.5793 51.4397 78.1728 51.392 78.1768 51.6724L76.9792 51.9129C76.6818 51.9802 76.4765 52.0569 76.2693 52.1031C76.0482 52.1611 75.8243 52.2077 75.5984 52.2427C75.2385 52.2945 74.8817 52.3654 74.5294 52.4549C74.1957 52.8722 73.8648 53.2763 73.5543 53.6874C73.8543 53.1678 73.6318 52.9954 73.1559 53.0085C72.5303 53.1116 71.9199 53.2918 71.3386 53.5449C71.4587 53.1762 71.6004 52.815 71.7632 52.463C71.1258 52.828 70.5107 53.2304 69.9209 53.6681C69.8086 53.9301 70.1247 53.9321 70.5651 53.879C70.4212 53.9423 70.2889 54.0025 70.1766 54.045C69.8023 54.7608 70.3643 54.7339 70.9921 54.6183C71.0793 54.3434 71.1652 54.0677 71.25 53.7914C71.9173 53.7425 72.5571 53.7752 72.7163 54.1501C72.4965 54.2128 72.2889 54.3123 72.1024 54.4445C72.2711 54.4395 72.3968 54.4584 72.3954 54.5454C72.394 54.6324 72.1276 54.6543 71.7802 54.7659L71.9662 55.61L71.6842 55.4814C71.4474 55.8325 71.178 56.1893 70.9494 56.5598L70.2966 57.6905C69.8438 57.917 69.435 58.1688 68.9932 58.4017C68.5233 58.6483 68.0724 58.9293 67.6441 59.2426C67.16 59.5942 66.7049 59.984 66.2831 60.4084C65.7997 60.9309 65.3653 61.4967 64.9853 62.0985C65.8059 61.6405 65.8249 62.3344 66.4218 62.5766C66.3103 62.0683 66.6594 61.5819 67.0999 61.0556C67.5404 60.5293 68.1464 60.0205 68.4891 59.3255C68.12 60.0492 68.4696 60.0607 68.6619 59.9473L67.679 60.9313C67.3667 61.2779 67.069 61.633 66.7561 61.989C67.25 62.1815 66.8024 62.6695 66.7115 63.4269C66.3587 62.9647 65.9927 63.3535 65.6142 63.9838C65.3247 64.4852 65.0719 65.1344 64.7997 65.6311C64.9174 65.7097 65.0437 65.7744 65.1762 65.8241C65.4278 65.4989 65.6089 65.1249 65.7078 64.7258C65.7478 64.9641 65.7221 65.2088 65.6336 65.4336C65.545 65.6583 65.397 65.8548 65.2053 66.0019C65.3472 66.7278 66.2325 66.834 65.8532 67.5078L64.7877 66.3365L64.7041 66.4053C65.2838 67.4377 65.7212 68.666 67.3544 69.4625ZM70.0563 56.3321C70.2208 56.2652 70.3585 56.1456 70.4478 55.9921C70.582 55.8052 70.6974 55.6054 70.7921 55.3957C70.6464 55.5118 70.5124 55.642 70.3921 55.7843C70.2554 55.9504 70.139 56.1321 70.0453 56.3257L70.0563 56.3321ZM61.0677 84.3484C61.1067 84.2893 61.1574 84.2389 61.2167 84.2002C61.0925 84.1871 61.0148 84.0007 61.0567 84.3421L61.0677 84.3484ZM88.2515 125.311L88.3395 125.42C88.5216 125.384 88.3891 125.351 88.2515 125.311ZM91.1649 129.881C91.1877 129.801 91.2152 129.723 91.2472 129.646C91.1798 129.559 91.0814 129.503 90.9728 129.487C91.0086 129.631 91.0741 129.765 91.1649 129.881ZM91.3117 129.517C91.3734 129.39 91.444 129.268 91.523 129.151C91.4337 128.968 90.9827 128.912 90.7988 128.665C90.4086 128.732 90.6424 128.936 90.9072 129.162L91.1112 129.011C91.0486 129.064 90.9955 129.128 90.9542 129.199C91.0812 129.296 91.2008 129.402 91.3117 129.517ZM90.3587 130.035L90.4049 129.896C90.2767 129.86 90.1431 129.845 90.01 129.854L90.3587 130.035ZM86.4519 137.157C86.4488 137.167 86.4438 137.175 86.4372 137.183L86.5799 137.265C86.5248 137.109 86.48 136.95 86.4457 136.788L86.4055 136.764C86.3653 136.834 86.3566 136.917 86.3274 136.993C86.375 137.02 86.4038 137.139 86.4519 137.157ZM85.8811 136.828L86.2287 137.028C86.1816 136.899 86.1294 136.727 86.0721 136.548L85.8525 136.421L85.8811 136.828ZM85.6162 135.596C85.5075 135.641 85.4392 135.802 85.5257 136.032C85.6096 136.126 85.6877 136.225 85.7597 136.328C85.6693 136.13 85.7716 136.223 86.0516 136.448C85.9863 136.163 85.8747 135.891 85.7213 135.642L85.6408 135.596L85.6162 135.596ZM84.4145 134.298C84.2974 134.45 84.4492 134.508 84.4295 134.677L84.5576 134.751L84.4145 134.298ZM84.4207 134.667L84.1972 134.133C84.1651 134.235 84.1548 134.342 84.1669 134.447L84.4207 134.667ZM83.8139 134.873C83.806 134.185 83.7104 134.452 83.5518 134.541C83.6103 134.702 83.7188 135.164 83.8176 134.875L83.8139 134.873ZM81.1515 128.769L81.053 128.644L80.9262 128.864C80.9921 128.813 81.0696 128.781 81.1515 128.769ZM80.8851 129.738L80.6355 129.545C80.5904 129.623 80.5565 129.715 80.5336 129.822L80.5606 129.657C80.4115 129.792 80.2996 129.963 80.2355 130.153L80.4019 130.22L80.54 129.811C80.5285 129.907 80.5129 130.01 80.4966 130.123C80.4776 130.156 80.4403 130.178 80.4119 130.211L80.4777 130.249C80.4946 130.219 80.488 130.172 80.4903 130.134C80.6598 129.959 80.8052 129.808 80.8851 129.738ZM79.6621 130.749C79.6163 130.913 79.7114 130.875 79.865 130.744C79.8401 130.686 79.7804 130.671 79.6621 130.749ZM80.1076 130.518L80.2808 130.345C80.2565 130.308 80.2287 130.274 80.1979 130.243C80.1597 130.343 80.1367 130.442 80.0903 130.523L80.1076 130.518ZM79.9166 131.145C79.8955 131.181 79.8765 131.214 79.8575 131.247L79.912 131.254C79.9153 131.221 79.9147 131.188 79.9103 131.156L79.9166 131.145ZM79.1285 129.358C79.0989 129.409 79.0934 129.469 79.0754 129.517L79.2035 129.591C79.1878 129.513 79.1604 129.438 79.1222 129.369L79.1285 129.358ZM81.1816 129.182L81.1487 129.163C81.1339 129.188 81.1212 129.21 81.1043 129.24C81.1463 129.234 81.1663 129.217 81.1826 129.197L81.1816 129.182ZM79.9577 127.812L79.9211 127.79C79.9167 127.832 79.9314 127.84 79.9587 127.827L79.9577 127.812ZM80.2161 127.922L80.2668 127.834C80.2493 127.873 80.2345 127.898 80.2171 127.937L80.2161 127.922ZM81.2187 128.847C81.2132 128.919 81.2013 128.991 81.1832 129.061L81.2527 129.101C81.276 129.061 81.2992 129.02 81.3407 128.991L81.2187 128.847ZM80.5931 132.238C80.5565 132.217 80.5579 132.13 80.5926 131.993C80.5332 132.062 80.4873 132.142 80.4574 132.228L80.5931 132.238ZM80.4445 130.425L80.333 130.39C80.2585 130.611 80.1721 130.828 80.0743 131.04L80.2225 131.189C80.3334 130.952 80.4085 130.699 80.4454 130.44L80.4445 130.425ZM80.0219 131.157C80.0008 131.193 79.9818 131.226 79.9607 131.263C80.0382 131.264 80.0389 131.22 80.0177 131.164L80.0219 131.157ZM79.793 131.249L79.8113 131.259C79.8282 131.23 79.8289 131.187 79.837 131.147L79.7757 131.253L79.793 131.249ZM79.1454 130.748C79.2254 130.383 79.248 130.007 79.2122 129.635L79.0727 129.53C78.8889 129.932 78.6803 130.321 78.4481 130.697C78.6794 130.406 78.7081 130.559 78.7324 130.754C78.8509 130.734 78.9752 130.713 79.1163 130.697L79.1454 130.748ZM78.5288 130.802L78.5436 130.776C78.5436 130.776 78.5267 130.806 78.5183 130.82L78.5288 130.802ZM76.7007 126.819C76.7313 126.778 76.7569 126.734 76.7768 126.687L76.7548 126.675C76.7368 126.729 76.7159 126.782 76.6923 126.834L76.7007 126.819ZM79.9555 127.722L80.0196 127.789C80.0553 127.769 80.0896 127.746 80.1221 127.721L80.0083 127.631L79.9555 127.722ZM80.184 127.606L80.0938 127.5C80.0752 127.528 80.0583 127.557 80.0431 127.588L80.1382 127.643L80.1858 127.67C80.1858 127.67 80.185 127.621 80.1819 127.609L80.184 127.606ZM80.4744 127.593C80.2762 127.361 80.3294 127.421 80.4723 127.596L80.4744 127.593ZM84.1589 130.008C84.1622 129.998 84.1672 129.99 84.1737 129.982L84.1518 129.97C84.1515 129.984 84.1532 129.998 84.1568 130.011L84.1589 130.008ZM84.2527 129.423C84.2128 129.566 84.1826 129.711 84.1622 129.858L84.1919 129.9L84.3007 129.475L84.2527 129.423ZM84.5401 130.565C84.5584 130.575 84.5694 130.581 84.573 130.584L84.5204 130.514C84.5276 130.529 84.5356 130.543 84.5443 130.557L84.5401 130.565ZM86.0902 130.347C86.0847 130.407 86.0777 130.462 86.0743 130.518L86.3319 130.799L86.0902 130.347ZM86.4193 136.724C86.4147 136.735 86.4083 136.747 86.4003 136.756L86.4295 136.773L86.4193 136.724ZM88.1504 135.889C88.1321 135.878 88.1211 135.872 88.0886 135.877L88.1091 135.977C88.1267 135.946 88.1419 135.914 88.1546 135.881L88.1504 135.889ZM87.735 136.659C87.8259 136.501 87.9146 136.348 87.9906 136.216C87.96 136.095 87.9114 135.98 87.8465 135.874C87.7865 135.927 87.715 135.984 87.6329 136.058C87.7019 135.981 87.7609 135.912 87.822 135.84C87.8017 135.809 87.7702 135.786 87.7339 135.777C87.6975 135.768 87.6591 135.773 87.6262 135.791C87.4263 135.841 87.6 136.259 87.7392 136.651L87.735 136.659Z" fill="white"/>
<path d="M71.9002 127.855C71.8596 127.967 71.7909 128.044 71.7168 128.055C71.7904 128.001 71.8528 127.933 71.9002 127.855Z" fill="white"/>
<path d="M68.108 121.824C68.1465 121.716 68.2234 121.566 68.1739 121.542L68.303 121.714C68.2323 121.668 68.1703 121.758 68.108 121.824Z" fill="white"/>
<path d="M65.9029 124.064C65.8974 123.997 65.8592 124.038 65.8495 123.979L65.9173 123.761C65.9426 123.778 65.9632 123.801 65.9769 123.829C65.9906 123.856 65.9971 123.886 65.9956 123.916C65.9942 123.947 65.9849 123.976 65.9686 124.002C65.9524 124.028 65.9297 124.049 65.9029 124.064Z" fill="white"/>
<path d="M67.2889 123.186C67.4192 122.623 67.4873 122.842 67.5554 123.062C67.4175 123.47 67.3601 123.29 67.2685 123.179C67.2758 123.183 67.281 123.191 67.2889 123.186Z" fill="white"/>
<path d="M67.2584 123.169C67.2492 123.152 67.2354 123.138 67.2187 123.128C67.2019 123.118 67.1829 123.113 67.1636 123.114C67.1938 122.893 67.1992 123.086 67.2584 123.169Z" fill="white"/>
<path d="M69.0585 122.402C68.9722 122.484 69.1859 121.886 69.103 122.038C69.1933 121.51 69.2773 122.758 69.0585 122.402Z" fill="white"/>
<path d="M67.0736 124.345L67.2611 123.868L67.208 124.281L67.0736 124.345Z" fill="white"/>
<path d="M68.087 124.267L67.8655 124.348C67.8886 124.29 67.8899 124.225 67.869 124.166C67.9665 124.173 68.1169 124.115 68.087 124.267Z" fill="white"/>
<path d="M67.7354 124.034C67.7624 124.045 67.7869 124.062 67.8073 124.083C67.8277 124.104 67.8436 124.129 67.854 124.156C67.8381 124.156 67.8224 124.153 67.8077 124.147C67.793 124.141 67.7797 124.132 67.7686 124.12C67.7575 124.109 67.7489 124.096 67.7431 124.081C67.7374 124.066 67.7348 124.05 67.7354 124.034Z" fill="white"/>
<path d="M67.4928 124.486L67.2754 124.569L67.3596 124.482L67.4928 124.486Z" fill="white"/>
<path d="M69.0074 126.183L68.9986 125.92C69.0797 125.814 69.1465 125.699 69.197 125.576L69.0074 126.183Z" fill="white"/>
<path d="M69.5025 126.255C69.462 126.427 69.6205 126.811 69.3827 126.707C69.4232 126.536 69.2744 126.338 69.5025 126.255Z" fill="white"/>
<path d="M74.0024 129.482C74.0533 129.233 74.2642 129.316 74.3018 129.098C74.322 129.393 74.4514 129.287 74.1143 129.888C73.7977 130.022 74.3357 129.259 74.0024 129.482Z" fill="white"/>
<path d="M74.3009 129.097C74.2953 129.04 74.2943 128.983 74.2981 128.926C74.3064 128.983 74.3073 129.04 74.3009 129.097Z" fill="white"/>
<path d="M92.5301 116.453L92.7729 116.725L92.6306 116.701L92.5301 116.453Z" fill="white"/>
<path d="M93.4478 116.85L92.907 116.47L93.4621 116.708C93.4232 116.724 93.3346 116.751 93.4478 116.85Z" fill="white"/>
<path d="M82.9072 135.267C82.8131 135.354 82.719 135.441 82.6175 135.524L82.645 135.35C82.7279 135.198 82.787 135.222 82.9072 135.267Z" fill="white"/>
<path d="M88.1534 138.359C88.164 138.329 88.1803 138.301 88.2014 138.276C88.1927 138.307 88.1762 138.336 88.1534 138.359Z" fill="white"/>
<path d="M88.385 138.059C88.3473 138.183 88.2592 138.201 88.1982 138.273C88.2801 137.979 88.0853 137.159 88.385 138.059Z" fill="white"/>
</svg>
