<svg width="40" height="40" viewBox="0 0 40 40" fill="none" xmlns="http://www.w3.org/2000/svg">
<path d="M19.4 31.9999C16.2 31.8333 13.5 30.6 11.3 28.3C9.09999 26 8.00002 23.2333 8.00002 20C8.00002 16.6666 9.16671 13.8333 11.5 11.5C13.8334 9.16665 16.6667 7.99996 20 7.99996C23.2333 7.99996 26 9.10002 28.3 11.3C30.6 13.5 31.8334 16.2 32 19.4L27.8 18.1499C27.3667 16.3499 26.4334 14.8753 25 13.726C23.5667 12.5753 21.9 12 20 12C17.8 12 15.9167 12.7833 14.35 14.35C12.7833 15.9167 12 17.8 12 20C12 21.9 12.5754 23.5666 13.726 25C14.8753 26.4333 16.35 27.3666 18.15 27.7999L19.4 31.9999ZM20 40C17.2333 40 14.6333 39.4746 12.2 38.424C9.76671 37.3746 7.65 35.95 5.85 34.15C4.05 32.35 2.62533 30.2334 1.576 27.7999C0.525331 25.3666 0 22.7667 0 20C0 17.2333 0.525331 14.6334 1.576 12.2C2.62533 9.76665 4.05 7.64995 5.85 5.84995C7.65 4.05 9.76671 2.62467 12.2 1.574C14.6333 0.524669 17.2333 0 20 0C22.7666 0 25.3667 0.524669 27.8 1.574C30.2333 2.62467 32.35 4.05 34.15 5.84995C35.95 7.64995 37.3747 9.76665 38.424 12.2C39.4747 14.6334 40 17.2333 40 20V20.9C40 21.2 39.9667 21.5 39.9 21.8L36 20.6V20C36 15.5334 34.45 11.75 31.35 8.64998C28.25 5.54999 24.4667 4 20 4C15.5333 4 11.75 5.54999 8.65003 8.64998C5.55 11.75 4 15.5334 4 20C4 24.4666 5.55 28.25 8.65003 31.3499C11.75 34.45 15.5333 36 20 36H20.6L21.8 39.9C21.5 39.9666 21.2 40 20.9 40H20ZM29.0864 30.2715L28.5 32.45L26 40L20 20L40 25.9999L32.45 28.5L29.9753 29.1851L29.0864 30.2715Z" fill="white"/>
</svg>
