<svg width="66" height="53" viewBox="0 0 66 53" fill="none" xmlns="http://www.w3.org/2000/svg">
<g filter="url(#filter0_d_57_12222)">
<path d="M18 17.9556C18 17.9801 18.0192 18 18.0429 18H47.9571C47.9808 18 48 17.9801 48 17.9556V17.0444C48 17.0199 47.9808 17 47.9571 17H18.0429C18.0192 17 18 17.0199 18 17.0444V17.9556Z" fill="#020101"/>
<path d="M18.0429 18.5C17.7264 18.5 17.5 18.2393 17.5 17.9556V17.0444C17.5 16.7607 17.7264 16.5 18.0429 16.5H47.9571C48.2736 16.5 48.5 16.7607 48.5 17.0444V17.9556C48.5 18.2393 48.2736 18.5 47.9571 18.5H18.0429Z" stroke="#08E2FF"/>
</g>
<g filter="url(#filter1_d_57_12222)">
<path d="M18 24.9556C18 24.9801 18.0192 25 18.0429 25H47.9571C47.9808 25 48 24.9801 48 24.9556V24.0444C48 24.0199 47.9808 24 47.9571 24H18.0429C18.0192 24 18 24.0199 18 24.0444V24.9556Z" fill="#020101"/>
<path d="M18.0429 25.5C17.7264 25.5 17.5 25.2393 17.5 24.9556V24.0444C17.5 23.7607 17.7264 23.5 18.0429 23.5H47.9571C48.2736 23.5 48.5 23.7607 48.5 24.0444V24.9556C48.5 25.2393 48.2736 25.5 47.9571 25.5H18.0429Z" stroke="#08E2FF"/>
</g>
<g filter="url(#filter2_d_57_12222)">
<path d="M18 33.9556C18 33.9801 18.0192 34 18.0429 34H47.9571C47.9808 34 48 33.9801 48 33.9556V33.0444C48 33.0199 47.9808 33 47.9571 33H18.0429C18.0192 33 18 33.0199 18 33.0444V33.9556Z" fill="#020101"/>
<path d="M18.0429 34.5C17.7264 34.5 17.5 34.2393 17.5 33.9556V33.0444C17.5 32.7607 17.7264 32.5 18.0429 32.5H47.9571C48.2736 32.5 48.5 32.7607 48.5 33.0444V33.9556C48.5 34.2393 48.2736 34.5 47.9571 34.5H18.0429Z" stroke="#08E2FF"/>
</g>
<defs>
<filter id="filter0_d_57_12222" x="0" y="0" width="66" height="37" filterUnits="userSpaceOnUse" color-interpolation-filters="sRGB">
<feFlood flood-opacity="0" result="BackgroundImageFix"/>
<feColorMatrix in="SourceAlpha" type="matrix" values="0 0 0 0 0 0 0 0 0 0 0 0 0 0 0 0 0 0 127 0" result="hardAlpha"/>
<feOffset dy="1"/>
<feGaussianBlur stdDeviation="8.5"/>
<feComposite in2="hardAlpha" operator="out"/>
<feColorMatrix type="matrix" values="0 0 0 0 0.262745 0 0 0 0 0.737255 0 0 0 0 0.866667 0 0 0 1 0"/>
<feBlend mode="normal" in2="BackgroundImageFix" result="effect1_dropShadow_57_12222"/>
<feBlend mode="normal" in="SourceGraphic" in2="effect1_dropShadow_57_12222" result="shape"/>
</filter>
<filter id="filter1_d_57_12222" x="0" y="7" width="66" height="37" filterUnits="userSpaceOnUse" color-interpolation-filters="sRGB">
<feFlood flood-opacity="0" result="BackgroundImageFix"/>
<feColorMatrix in="SourceAlpha" type="matrix" values="0 0 0 0 0 0 0 0 0 0 0 0 0 0 0 0 0 0 127 0" result="hardAlpha"/>
<feOffset dy="1"/>
<feGaussianBlur stdDeviation="8.5"/>
<feComposite in2="hardAlpha" operator="out"/>
<feColorMatrix type="matrix" values="0 0 0 0 0.262745 0 0 0 0 0.737255 0 0 0 0 0.866667 0 0 0 1 0"/>
<feBlend mode="normal" in2="BackgroundImageFix" result="effect1_dropShadow_57_12222"/>
<feBlend mode="normal" in="SourceGraphic" in2="effect1_dropShadow_57_12222" result="shape"/>
</filter>
<filter id="filter2_d_57_12222" x="0" y="16" width="66" height="37" filterUnits="userSpaceOnUse" color-interpolation-filters="sRGB">
<feFlood flood-opacity="0" result="BackgroundImageFix"/>
<feColorMatrix in="SourceAlpha" type="matrix" values="0 0 0 0 0 0 0 0 0 0 0 0 0 0 0 0 0 0 127 0" result="hardAlpha"/>
<feOffset dy="1"/>
<feGaussianBlur stdDeviation="8.5"/>
<feComposite in2="hardAlpha" operator="out"/>
<feColorMatrix type="matrix" values="0 0 0 0 0.262745 0 0 0 0 0.737255 0 0 0 0 0.866667 0 0 0 1 0"/>
<feBlend mode="normal" in2="BackgroundImageFix" result="effect1_dropShadow_57_12222"/>
<feBlend mode="normal" in="SourceGraphic" in2="effect1_dropShadow_57_12222" result="shape"/>
</filter>
</defs>
</svg>
