<svg width="159" height="158" viewBox="0 0 159 158" fill="none" xmlns="http://www.w3.org/2000/svg">
<path d="M81 7C40.6894 7 8 39.6894 8 80C8 120.311 40.6894 153 81 153C121.311 153 154 120.311 154 80C154 39.6894 121.325 7 81 7ZM44.0182 82.4528L44.3248 81.9564L63.3194 52.2454C63.5968 51.822 64.2538 51.8658 64.4582 52.333C67.6264 59.4432 70.3712 68.2908 69.0864 73.795C68.5462 76.058 67.0424 79.124 65.3488 81.9564C65.1298 82.3652 64.8962 82.774 64.6334 83.1682C64.5166 83.3434 64.3122 83.4456 64.0932 83.4456H44.573C44.0474 83.4456 43.7408 82.8762 44.0182 82.4528ZM128.654 92.6728C128.654 92.9502 128.494 93.1838 128.26 93.286C126.786 93.9138 121.749 96.2352 119.661 99.1406C114.317 106.572 110.244 117.201 101.119 117.201H63.0712C49.5808 117.201 38.66 106.236 38.66 92.702V92.264C38.66 91.9136 38.952 91.6216 39.317 91.6216H60.5162C60.9396 91.6216 61.2462 92.0012 61.217 92.4246C61.0564 93.797 61.3192 95.2132 61.9762 96.498C63.2318 99.053 65.8452 100.644 68.663 100.644H79.1604V92.4538H68.7798C68.2542 92.4538 67.933 91.8406 68.2396 91.4026C68.3564 91.2274 68.4732 91.0522 68.6192 90.8478C69.5974 89.4462 70.999 87.2854 72.4006 84.818C73.3496 83.1536 74.2694 81.3724 75.014 79.5912C75.16 79.27 75.2768 78.9342 75.4082 78.613C75.6126 78.0436 75.817 77.5034 75.963 76.9778C76.109 76.5252 76.2404 76.058 76.3572 75.62C76.7076 74.1016 76.8536 72.4956 76.8536 70.8312C76.8536 70.1742 76.8244 69.488 76.766 68.8456C76.7368 68.1302 76.6492 67.4148 76.5616 66.6994C76.5032 66.0716 76.3864 65.4438 76.2696 64.8014C76.109 63.8524 75.9046 62.9034 75.671 61.9544L75.5834 61.5894C75.4082 60.9324 75.2476 60.3192 75.0432 59.6622C74.4446 57.6182 73.773 55.618 73.043 53.7492C72.7802 53.0046 72.4882 52.2892 72.1816 51.5884C71.7436 50.508 71.291 49.5298 70.8822 48.61C70.6632 48.1866 70.488 47.807 70.3128 47.4128C70.1084 46.9748 69.904 46.5368 69.685 46.1134C69.539 45.7922 69.3638 45.4856 69.247 45.1936L67.9622 42.8284C67.787 42.5072 68.079 42.113 68.4294 42.2152L76.4594 44.3906H76.4886C76.5032 44.3906 76.5032 44.3906 76.5178 44.3906L77.569 44.6972L78.737 45.0184L79.1604 45.1352V40.3756C79.1604 38.0688 81 36.2 83.2922 36.2C84.431 36.2 85.4676 36.6672 86.1976 37.4264C86.9422 38.1856 87.4094 39.2222 87.4094 40.3756V47.4566L88.2708 47.6902C88.3292 47.7194 88.4022 47.7486 88.4606 47.7924C88.665 47.9384 88.9716 48.172 89.3512 48.464C89.6578 48.6976 89.979 48.9896 90.3586 49.2962C91.1324 49.924 92.0668 50.727 93.0742 51.6468C93.337 51.8804 93.5998 52.114 93.848 52.3622C95.1474 53.574 96.6074 54.9902 98.009 56.567C98.4032 57.0196 98.7828 57.4576 99.177 57.9394C99.5566 58.4212 99.98 58.8884 100.33 59.3556C100.812 59.9834 101.309 60.6404 101.761 61.3266C101.966 61.6478 102.214 61.9836 102.404 62.3048C102.988 63.1662 103.484 64.0568 103.966 64.9474C104.17 65.3562 104.375 65.8088 104.55 66.2468C105.09 67.444 105.513 68.6558 105.776 69.8822C105.864 70.145 105.922 70.4224 105.951 70.6852V70.7436C106.039 71.094 106.068 71.4736 106.097 71.8678C106.214 73.1088 106.156 74.3644 105.893 75.62C105.776 76.1456 105.63 76.642 105.455 77.1822C105.265 77.6932 105.09 78.2188 104.856 78.7298C104.404 79.7664 103.878 80.8176 103.25 81.7812C103.046 82.1462 102.798 82.5258 102.564 82.8908C102.301 83.2704 102.024 83.6354 101.79 83.9858C101.455 84.4384 101.104 84.9056 100.739 85.329C100.418 85.767 100.097 86.205 99.7318 86.5992C99.2354 87.1978 98.7536 87.7526 98.2426 88.2928C97.9506 88.6432 97.6294 89.0082 97.2936 89.3294C96.9724 89.6944 96.6366 90.0156 96.3446 90.3076C95.8336 90.8186 95.4248 91.1982 95.0744 91.534L94.2422 92.2786C94.1254 92.3954 93.9648 92.4538 93.8042 92.4538H87.4094V100.644H95.454C97.2498 100.644 98.958 100.017 100.345 98.834C100.812 98.4252 102.871 96.644 105.309 93.9576C105.397 93.8554 105.499 93.797 105.616 93.7678L127.822 87.3438C128.246 87.227 128.654 87.5336 128.654 87.9716V92.6728Z" fill="#D232EA" stroke="white" stroke-width="4"/>
</svg>
