<svg width="132" height="48" viewBox="0 0 132 48" fill="none" xmlns="http://www.w3.org/2000/svg">
<path d="M27.6221 40.4082V47H9.65332V40.4082H27.6221ZM12.7051 11.4531V47H4.13574V11.4531H12.7051ZM31.2354 11.4531H45.2246C47.959 11.4531 50.3353 11.86 52.3535 12.6738C54.3717 13.4876 55.9261 14.6921 57.0166 16.2871C58.1234 17.8822 58.6768 19.8516 58.6768 22.1953C58.6768 24.2298 58.3594 25.9307 57.7246 27.2979C57.0898 28.665 56.2028 29.7962 55.0635 30.6914C53.9404 31.5703 52.6302 32.2946 51.1328 32.8643L48.3252 34.4512H36.582L36.5332 27.835H45.2246C46.3151 27.835 47.2184 27.6396 47.9346 27.249C48.6507 26.8584 49.1878 26.305 49.5459 25.5889C49.9202 24.8564 50.1074 23.9857 50.1074 22.9766C50.1074 21.9512 49.9202 21.0723 49.5459 20.3398C49.1715 19.6074 48.6182 19.0459 47.8857 18.6553C47.1696 18.2646 46.2826 18.0693 45.2246 18.0693H39.8047V47H31.2354V11.4531ZM50.6934 47L42.832 31.2773L51.9141 31.2285L59.873 46.6338V47H50.6934ZM78.3545 31.8877H69.1992L69.1504 26.2725H76.5723C77.9069 26.2725 78.973 26.126 79.7705 25.833C80.568 25.5238 81.1458 25.0762 81.5039 24.4902C81.8783 23.9043 82.0654 23.1719 82.0654 22.293C82.0654 21.2839 81.8783 20.4701 81.5039 19.8516C81.1296 19.2331 80.5355 18.7855 79.7217 18.5088C78.9242 18.2158 77.8906 18.0693 76.6211 18.0693H72.4219V47H63.8525V11.4531H76.6211C78.8184 11.4531 80.7796 11.6566 82.5049 12.0635C84.2301 12.4541 85.695 13.0563 86.8994 13.8701C88.1201 14.6839 89.0479 15.7093 89.6826 16.9463C90.3174 18.167 90.6348 19.6074 90.6348 21.2676C90.6348 22.7161 90.3255 24.0752 89.707 25.3447C89.0885 26.6143 88.055 27.6478 86.6064 28.4453C85.1742 29.2266 83.2129 29.6335 80.7227 29.666L78.3545 31.8877ZM78.0127 47H67.124L70.0537 40.4082H78.0127C79.1846 40.4082 80.1204 40.2292 80.8203 39.8711C81.5365 39.4967 82.0492 39.0085 82.3584 38.4062C82.6839 37.7878 82.8467 37.1042 82.8467 36.3555C82.8467 35.444 82.6921 34.6546 82.3828 33.9873C82.0898 33.32 81.6178 32.8073 80.9668 32.4492C80.3158 32.0749 79.445 31.8877 78.3545 31.8877H71.1523L71.2012 26.2725H79.8193L81.8213 28.5186C84.1976 28.4209 86.0775 28.7546 87.4609 29.5195C88.8607 30.2845 89.8617 31.2936 90.4639 32.5469C91.0661 33.8001 91.3672 35.1104 91.3672 36.4775C91.3672 38.805 90.8626 40.75 89.8535 42.3125C88.8607 43.875 87.3714 45.0469 85.3857 45.8281C83.4001 46.6094 80.9424 47 78.0127 47ZM120.078 25.5645V32.1562H101.841V25.5645H120.078ZM104.697 11.4531V47H96.1279V11.4531H104.697ZM125.84 11.4531V47H117.295V11.4531H125.84Z" fill="#4A1452"/>
<path d="M29.6221 40.4082V47H11.6533V40.4082H29.6221ZM14.7051 11.4531V47H6.13574V11.4531H14.7051ZM33.2354 11.4531H47.2246C49.959 11.4531 52.3353 11.86 54.3535 12.6738C56.3717 13.4876 57.9261 14.6921 59.0166 16.2871C60.1234 17.8822 60.6768 19.8516 60.6768 22.1953C60.6768 24.2298 60.3594 25.9307 59.7246 27.2979C59.0898 28.665 58.2028 29.7962 57.0635 30.6914C55.9404 31.5703 54.6302 32.2946 53.1328 32.8643L50.3252 34.4512H38.582L38.5332 27.835H47.2246C48.3151 27.835 49.2184 27.6396 49.9346 27.249C50.6507 26.8584 51.1878 26.305 51.5459 25.5889C51.9202 24.8564 52.1074 23.9857 52.1074 22.9766C52.1074 21.9512 51.9202 21.0723 51.5459 20.3398C51.1715 19.6074 50.6182 19.0459 49.8857 18.6553C49.1696 18.2646 48.2826 18.0693 47.2246 18.0693H41.8047V47H33.2354V11.4531ZM52.6934 47L44.832 31.2773L53.9141 31.2285L61.873 46.6338V47H52.6934ZM80.3545 31.8877H71.1992L71.1504 26.2725H78.5723C79.9069 26.2725 80.973 26.126 81.7705 25.833C82.568 25.5238 83.1458 25.0762 83.5039 24.4902C83.8783 23.9043 84.0654 23.1719 84.0654 22.293C84.0654 21.2839 83.8783 20.4701 83.5039 19.8516C83.1296 19.2331 82.5355 18.7855 81.7217 18.5088C80.9242 18.2158 79.8906 18.0693 78.6211 18.0693H74.4219V47H65.8525V11.4531H78.6211C80.8184 11.4531 82.7796 11.6566 84.5049 12.0635C86.2301 12.4541 87.695 13.0563 88.8994 13.8701C90.1201 14.6839 91.0479 15.7093 91.6826 16.9463C92.3174 18.167 92.6348 19.6074 92.6348 21.2676C92.6348 22.7161 92.3255 24.0752 91.707 25.3447C91.0885 26.6143 90.055 27.6478 88.6064 28.4453C87.1742 29.2266 85.2129 29.6335 82.7227 29.666L80.3545 31.8877ZM80.0127 47H69.124L72.0537 40.4082H80.0127C81.1846 40.4082 82.1204 40.2292 82.8203 39.8711C83.5365 39.4967 84.0492 39.0085 84.3584 38.4062C84.6839 37.7878 84.8467 37.1042 84.8467 36.3555C84.8467 35.444 84.6921 34.6546 84.3828 33.9873C84.0898 33.32 83.6178 32.8073 82.9668 32.4492C82.3158 32.0749 81.445 31.8877 80.3545 31.8877H73.1523L73.2012 26.2725H81.8193L83.8213 28.5186C86.1976 28.4209 88.0775 28.7546 89.4609 29.5195C90.8607 30.2845 91.8617 31.2936 92.4639 32.5469C93.0661 33.8001 93.3672 35.1104 93.3672 36.4775C93.3672 38.805 92.8626 40.75 91.8535 42.3125C90.8607 43.875 89.3714 45.0469 87.3857 45.8281C85.4001 46.6094 82.9424 47 80.0127 47ZM122.078 25.5645V32.1562H103.841V25.5645H122.078ZM106.697 11.4531V47H98.1279V11.4531H106.697ZM127.84 11.4531V47H119.295V11.4531H127.84Z" fill="#DC1BE0"/>
</svg>
