<svg width="100" height="23" viewBox="0 0 100 23" fill="none" xmlns="http://www.w3.org/2000/svg">
<path d="M3.08398 7.78125H8.67969C9.77344 7.78125 10.724 7.94401 11.5312 8.26953C12.3385 8.59505 12.9603 9.07682 13.3965 9.71484C13.8392 10.3529 14.0605 11.1406 14.0605 12.0781C14.0605 12.8919 13.9336 13.5723 13.6797 14.1191C13.4258 14.666 13.071 15.1185 12.6152 15.4766C12.166 15.8281 11.6419 16.1178 11.043 16.3457L9.91992 16.9805H5.22266L5.20312 14.334H8.67969C9.11589 14.334 9.47721 14.2559 9.76367 14.0996C10.0501 13.9434 10.265 13.722 10.4082 13.4355C10.5579 13.1426 10.6328 12.7943 10.6328 12.3906C10.6328 11.9805 10.5579 11.6289 10.4082 11.3359C10.2585 11.043 10.0371 10.8184 9.74414 10.6621C9.45768 10.5059 9.10286 10.4277 8.67969 10.4277H6.51172V22H3.08398V7.78125ZM10.8672 22L7.72266 15.7109L11.3555 15.6914L14.5391 21.8535V22H10.8672ZM28.1621 14.6074V15.1836C28.1621 16.2708 28.0091 17.2474 27.7031 18.1133C27.4036 18.9727 26.9772 19.7083 26.4238 20.3203C25.8704 20.9258 25.2161 21.3913 24.4609 21.7168C23.7057 22.0358 22.8724 22.1953 21.9609 22.1953C21.043 22.1953 20.2031 22.0358 19.4414 21.7168C18.6862 21.3913 18.0286 20.9258 17.4688 20.3203C16.9154 19.7083 16.4857 18.9727 16.1797 18.1133C15.8802 17.2474 15.7305 16.2708 15.7305 15.1836V14.6074C15.7305 13.5202 15.8802 12.5436 16.1797 11.6777C16.4857 10.8118 16.9121 10.0762 17.459 9.4707C18.0124 8.85872 18.6667 8.39323 19.4219 8.07422C20.1836 7.7487 21.0234 7.58594 21.9414 7.58594C22.8529 7.58594 23.6862 7.7487 24.4414 8.07422C25.2031 8.39323 25.8607 8.85872 26.4141 9.4707C26.9674 10.0762 27.3971 10.8118 27.7031 11.6777C28.0091 12.5436 28.1621 13.5202 28.1621 14.6074ZM24.6855 15.1836V14.5879C24.6855 13.8848 24.6237 13.2663 24.5 12.7324C24.3828 12.1921 24.207 11.7396 23.9727 11.375C23.7383 11.0104 23.4486 10.737 23.1035 10.5547C22.765 10.3659 22.3776 10.2715 21.9414 10.2715C21.4857 10.2715 21.0885 10.3659 20.75 10.5547C20.4115 10.737 20.1283 11.0104 19.9004 11.375C19.6725 11.7396 19.5 12.1921 19.3828 12.7324C19.2721 13.2663 19.2168 13.8848 19.2168 14.5879V15.1836C19.2168 15.8802 19.2721 16.4987 19.3828 17.0391C19.5 17.5729 19.6725 18.0254 19.9004 18.3965C20.1348 18.7676 20.4212 19.0475 20.7598 19.2363C21.1048 19.4251 21.5052 19.5195 21.9609 19.5195C22.3971 19.5195 22.7845 19.4251 23.123 19.2363C23.4616 19.0475 23.7448 18.7676 23.9727 18.3965C24.207 18.0254 24.3828 17.5729 24.5 17.0391C24.6237 16.4987 24.6855 15.8802 24.6855 15.1836ZM35.75 10.7695L32.2832 22H28.6016L33.8262 7.78125H36.1602L35.75 10.7695ZM38.6211 22L35.1445 10.7695L34.6953 7.78125H37.0586L42.3125 22H38.6211ZM38.4844 16.6973V19.3438H31.1895V16.6973H38.4844ZM47.9766 22H44.8223L44.8418 19.3633H47.9766C48.6276 19.3633 49.1777 19.207 49.627 18.8945C50.0827 18.582 50.4277 18.1165 50.6621 17.498C50.903 16.873 51.0234 16.1048 51.0234 15.1934V14.5781C51.0234 13.8945 50.9551 13.2956 50.8184 12.7812C50.6882 12.2604 50.4928 11.8275 50.2324 11.4824C49.972 11.1309 49.6465 10.8672 49.2559 10.6914C48.8717 10.5156 48.429 10.4277 47.9277 10.4277H44.7637V7.78125H47.9277C48.8913 7.78125 49.7734 7.94727 50.5742 8.2793C51.3815 8.60482 52.0781 9.07357 52.6641 9.68555C53.2565 10.291 53.7122 11.0104 54.0312 11.8438C54.3568 12.6706 54.5195 13.5885 54.5195 14.5977V15.1934C54.5195 16.196 54.3568 17.1139 54.0312 17.9473C53.7122 18.7806 53.2598 19.5 52.6738 20.1055C52.0879 20.7109 51.3945 21.1797 50.5938 21.5117C49.7995 21.8372 48.9271 22 47.9766 22ZM46.7852 7.78125V22H43.3574V7.78125H46.7852ZM58.0059 7.78125H60.7988L63.9727 17.6738L67.1465 7.78125H69.9395L65.1055 22H62.8398L58.0059 7.78125ZM56.3066 7.78125H59.1973L59.7344 18.6797V22H56.3066V7.78125ZM68.748 7.78125H71.6484V22H68.2109V18.6797L68.748 7.78125ZM80.0469 10.7695L76.5801 22H72.8984L78.123 7.78125H80.457L80.0469 10.7695ZM82.918 22L79.4414 10.7695L78.9922 7.78125H81.3555L86.6094 22H82.918ZM82.7812 16.6973V19.3438H75.4863V16.6973H82.7812ZM93.3281 17.1758H89.793V14.5293H93.3281C93.8099 14.5293 94.2005 14.4479 94.5 14.2852C94.7995 14.1224 95.0176 13.8978 95.1543 13.6113C95.2975 13.3184 95.3691 12.9896 95.3691 12.625C95.3691 12.2344 95.2975 11.873 95.1543 11.541C95.0176 11.209 94.7995 10.9421 94.5 10.7402C94.2005 10.5319 93.8099 10.4277 93.3281 10.4277H91.082V22H87.6543V7.78125H93.3281C94.4674 7.78125 95.4473 7.98958 96.2676 8.40625C97.0944 8.82292 97.7292 9.39583 98.1719 10.125C98.6146 10.8477 98.8359 11.6745 98.8359 12.6055C98.8359 13.5234 98.6146 14.3242 98.1719 15.0078C97.7292 15.6914 97.0944 16.2253 96.2676 16.6094C95.4473 16.987 94.4674 17.1758 93.3281 17.1758Z" fill="#D232EA"/>
<path d="M0.718588 9.95315C0.792635 9.94418 0.863997 9.92143 0.92844 9.88625C0.992884 9.85107 1.0491 9.80418 1.09375 9.74836C1.1384 9.69254 1.17057 9.62892 1.18837 9.56128C1.20616 9.49364 1.20921 9.42336 1.19734 9.3546C1.15873 9.05588 1.13917 8.75528 1.13877 8.4544C1.13275 8.28325 1.15246 8.11216 1.19734 7.94611C1.42719 7.93379 1.6576 7.93379 1.88745 7.94611C3.62674 7.94611 5.37877 8.00549 7.11551 7.93423C7.15035 7.92842 7.18239 7.91265 7.20719 7.8891C7.76743 7.91048 7.76233 9.8914 7.79289 10.212C7.82169 10.681 7.99893 11.1315 8.3022 11.5065C8.75803 12.0647 9.38448 11.8961 9.80976 11.4139C10.6145 10.4994 10.2045 8.28101 11.9718 8.32614C12.6033 8.34514 13.217 8.60166 13.8257 8.73705C14.1126 8.8173 14.4153 8.83612 14.7112 8.79212C15.007 8.74812 15.2884 8.64242 15.5344 8.4829C15.9113 8.24538 16.25 7.98173 16.7236 7.96748C16.8863 7.96624 17.0452 8.0135 17.1772 8.10236C17.3091 8.19123 17.4071 8.31706 17.457 8.46153C17.7117 9.01495 17.7983 9.84627 18.5011 10.0909C19.1607 10.3284 19.8228 9.48049 20.1666 9.09333C20.487 8.71604 20.8934 8.40992 21.3563 8.19713C21.8192 7.98434 22.327 7.8702 22.843 7.86297C22.8689 7.86061 22.8936 7.85157 22.9143 7.83685C23.0958 7.86665 23.2804 7.87621 23.4643 7.86535C23.7521 7.86535 24.0424 7.86535 24.3302 7.86535L25.9294 7.8511L27.5261 7.83685C28.1041 7.83685 28.6949 7.86297 29.2705 7.81547H29.2985C29.6302 8.1539 30.0067 8.4516 30.4189 8.70142C30.9277 8.96324 31.5009 9.09669 32.0818 9.08858C33.1463 9.12896 33.9816 8.63254 34.883 8.186C35.2676 8.7988 35.6063 9.49236 36.4899 9.41398C36.6571 9.39606 36.818 9.34425 36.9614 9.26219C37.1048 9.18012 37.2272 9.0698 37.3201 8.93894C37.4152 8.81105 37.5004 8.67689 37.5747 8.53753C37.6796 8.37719 37.7989 8.22543 37.9313 8.08387C38.2431 8.11791 38.5576 8.12586 38.8709 8.10762H39.9991C40.758 8.13735 41.5182 8.12545 42.2757 8.07199C43.0396 8.07199 43.4904 8.51378 43.8825 9.07908C44.1066 9.40448 44.4275 10.1242 44.9292 10.117C45.3213 10.117 45.5785 9.642 45.7364 9.37598C45.9911 8.95082 46.1439 8.4259 46.5004 8.06249C47.3166 7.96952 48.1407 7.95361 48.9603 8.01499C49.8676 8.04983 50.7762 8.04191 51.6826 7.99124C52.7245 7.92752 53.7695 7.91959 54.8123 7.96748C55.7596 8.02449 56.6815 8.08624 57.6135 7.88198H57.639C58.1273 8.10438 58.5301 8.46187 58.7926 8.90569C58.9725 9.28829 59.1132 9.68594 59.2127 10.0933C59.2997 10.4445 59.5275 10.7513 59.8494 10.9507C60.0113 11.0225 60.1921 11.0489 60.3698 11.0265C60.5475 11.0042 60.7144 10.9341 60.8502 10.8248C61.1643 10.5539 61.4232 10.232 61.6141 9.87477C61.7171 9.70423 61.8401 9.5449 61.9808 9.39973C62.2559 9.13608 62.6888 9.0767 63.0606 9.04345C63.6514 8.99119 64.1199 8.92944 64.6063 8.59454C65.0927 8.25963 65.5409 7.9176 66.1979 7.86535C66.2234 7.86107 66.2472 7.8504 66.2667 7.83447C67.4406 7.91048 68.6273 7.8796 69.8038 7.8796H71.5864C72.1586 7.91729 72.7333 7.90377 73.3028 7.83922C73.9547 7.95561 74.5582 8.28101 75.149 8.55178C75.6991 8.80593 76.2822 9.13371 76.9112 8.95557C77.5402 8.77743 78.0037 8.1575 78.6938 8.31189C78.9485 8.37127 79.1293 8.57791 79.3534 8.69905C79.4643 8.74708 79.5851 8.77197 79.7073 8.77197C79.8296 8.77197 79.9504 8.74708 80.0613 8.69905C80.316 8.61354 80.4968 8.41402 80.7336 8.30951C80.867 8.2401 81.0179 8.20525 81.1706 8.20859C81.3233 8.21194 81.4722 8.25334 81.602 8.32851C81.9534 8.58504 82.0451 9.05533 82.4016 9.3261C82.5673 9.46597 82.7829 9.54341 83.0064 9.54341C83.2299 9.54341 83.4454 9.46597 83.6112 9.3261C83.9804 9.01732 84.1205 8.50903 84.3573 8.10762C86.0253 8.20025 87.706 8.15512 89.3766 8.15512H92.109C92.9163 8.15512 93.7286 8.17175 94.5359 8.10525C96.0205 8.87244 95.7939 10.927 97.3371 11.6277C97.646 11.7672 97.987 11.8335 98.3299 11.8207C98.6729 11.8078 99.0071 11.7162 99.303 11.554C99.769 11.2666 99.9396 10.7298 99.9855 10.2406C100.1 8.99832 99.5246 7.48769 98.6816 6.53049C97.4084 5.07686 95.0834 4.60182 93.1862 4.37143C92.1194 4.25037 91.0437 4.21066 89.9699 4.25267C88.6177 4.29305 87.3342 4.60895 86.0024 4.78709C84.5076 4.98898 83.2165 4.5662 81.8159 4.15529C80.4611 3.75863 79.1242 3.79663 77.7414 3.95339C77.0572 4.06234 76.3651 4.12189 75.6711 4.13153C74.9797 4.09938 74.2997 3.95469 73.6618 3.704C72.4497 3.24083 71.4387 2.43326 70.3335 1.80384C68.1002 0.509351 65.5893 -0.231712 62.9485 0.0651879C60.3078 0.362088 58.1305 1.70645 55.9481 3.02706C54.7792 3.73962 53.4397 4.45218 51.9984 4.35243C50.7455 4.25742 49.6454 3.48785 48.5631 2.96768C46.1973 1.83234 43.5948 2.45702 41.2112 3.2052C40.05 3.57336 38.8353 3.89876 37.7123 4.35243C36.4644 4.85359 35.3592 5.63504 34.0299 5.95569C32.6497 6.28822 31.2135 5.69442 29.9555 5.24313C28.7 4.82272 27.4675 4.49019 26.1535 4.52107C25.0024 4.55194 23.9176 4.96998 22.8608 5.35476C22.1805 5.63743 21.4435 5.78157 20.6988 5.77755C20.0348 5.71861 19.3803 5.5887 18.7481 5.39039C15.8502 4.64458 12.7943 5.07211 9.85559 5.11962C8.62567 5.16373 7.39479 5.05915 6.19366 4.80847C5.32529 4.61607 4.45437 4.36668 3.55035 4.38805C2.27707 4.41656 1.34249 5.19325 0.652378 6.1172C0.639503 6.12683 0.629069 6.139 0.62182 6.15283C0.378159 6.65515 0.22336 7.19097 0.163441 7.73946C0.104871 8.22876 -0.0402822 8.73467 0.0106487 9.22634C0.0361142 9.58737 0.290768 9.9674 0.718588 9.95315Z" fill="url(#paint0_radial_196_1966)"/>
<path d="M0.639005 6.33019C0.415207 6.74074 0.266196 7.17828 0.197168 7.62756C0.171023 7.80009 0.152723 7.97262 0.131807 8.1474C0.110892 8.32217 0.061218 8.49023 0.0350738 8.665C-0.0250579 9.03024 -0.0459733 9.48286 0.296516 9.76519C0.356545 9.81989 0.430723 9.86174 0.513077 9.88737C0.59543 9.913 0.683657 9.9217 0.770649 9.91276C0.857642 9.90382 0.94097 9.8775 1.01392 9.83591C1.08687 9.79432 1.14741 9.73863 1.19065 9.67332C1.26779 9.49864 1.28147 9.30805 1.22986 9.12659C1.20066 8.86597 1.19105 8.60402 1.20111 8.34234C1.20062 8.23525 1.21466 8.12847 1.24294 8.02416C1.24294 7.99951 1.24294 8.02416 1.24294 8.02416V7.99951C1.25601 7.96814 1.24294 8.01296 1.24294 7.99951C1.24294 7.98607 1.21941 8.01968 1.24294 7.99951L1.21679 8.01744H1.19588H1.17758H1.33444C1.8338 8.01744 2.33054 8.01744 2.82989 8.01744H6.82996C6.99467 8.01744 7.16199 8.01744 7.3267 8.01744C7.36333 8.01426 7.39834 8.00285 7.42818 7.98435C7.45802 7.96586 7.48163 7.94095 7.49663 7.91212C7.52278 7.86731 7.52017 7.80457 7.44696 7.80233C6.79858 7.77544 6.13975 7.80233 5.49399 7.78889H1.59327C1.48473 7.77771 1.37501 7.77771 1.26647 7.78889C1.19707 7.81052 1.13486 7.8463 1.08521 7.89315C1.03556 7.93999 0.999965 7.9965 0.981494 8.05777C0.906176 8.29323 0.881372 8.53846 0.908291 8.78152C0.908291 9.00559 0.934435 9.21398 0.963194 9.42908C0.980224 9.49702 0.980224 9.56729 0.963194 9.63523L0.947507 9.6666C0.947507 9.65315 0.947507 9.6666 0.947507 9.6666C0.943688 9.67214 0.938291 9.67677 0.931821 9.68004C0.963194 9.65539 0.931821 9.68004 0.931821 9.68004C0.931821 9.68004 0.931821 9.68004 0.908291 9.68004C0.884761 9.68004 0.887375 9.68004 0.879532 9.68004H0.858616C0.826499 9.68351 0.794 9.68351 0.761883 9.68004C0.359262 9.60386 0.262528 9.18485 0.267757 8.88683C0.276699 8.69703 0.303806 8.50818 0.348805 8.32217C0.382775 8.15983 0.406339 7.99601 0.419393 7.83146C0.446481 7.44826 0.52276 7.06878 0.646849 6.6999C0.69063 6.57442 0.742119 6.45101 0.8011 6.33019C0.816786 6.29658 0.816785 6.25624 0.764497 6.25176C0.712208 6.24728 0.65992 6.29434 0.639005 6.33019Z" fill="black"/>
<path d="M7.32786 7.98893C7.35954 7.98348 7.39216 7.9848 7.42319 7.9928C7.45422 8.0008 7.4828 8.01525 7.50672 8.03503C7.57224 8.09475 7.62218 8.16724 7.65283 8.24708C7.75253 8.49008 7.81525 8.74447 7.83925 9.00309C7.87955 9.30504 7.90474 9.60929 7.92994 9.92506C7.94241 10.1683 7.97017 10.4108 8.01307 10.6511C8.10572 11.0096 8.29841 11.34 8.57232 11.61C8.7171 11.7537 8.91605 11.8418 9.12906 11.8566C9.25607 11.8516 9.38062 11.8229 9.49501 11.7721C9.6094 11.7214 9.7112 11.6497 9.79411 11.5616C9.97104 11.4037 10.1153 11.2178 10.2199 11.013C10.3099 10.8149 10.3799 10.6097 10.4289 10.3999C10.4818 10.1901 10.5247 9.97577 10.5826 9.76602C10.6434 9.558 10.7278 9.35638 10.8345 9.16444C10.9221 8.99385 11.0405 8.83801 11.1847 8.70345C11.2934 8.6009 11.426 8.52211 11.5726 8.47296C11.8976 8.39225 12.2402 8.39225 12.5652 8.47296C12.9506 8.54902 13.3209 8.66658 13.7089 8.75877C14.1123 8.89091 14.5461 8.92584 14.9685 8.86019C15.3509 8.72918 15.7081 8.54322 16.0265 8.30931C16.1764 8.20166 16.3518 8.12765 16.5386 8.09323C16.7254 8.05881 16.9184 8.06492 17.1022 8.11109C17.2311 8.17216 17.3433 8.25898 17.4305 8.36511C17.5177 8.47124 17.5777 8.59397 17.606 8.7242C17.6564 8.8671 17.6992 9.01231 17.7547 9.15291C17.8129 9.30138 17.8854 9.44485 17.9713 9.58163C18.1703 9.91354 18.4751 10.227 18.9336 10.1325C19.3367 10.0495 19.6642 9.73375 19.9287 9.46177C20.0723 9.31426 20.2033 9.15752 20.3494 9.01462C20.4942 8.87322 20.65 8.7415 20.8154 8.62048C21.1865 8.34564 21.6191 8.1489 22.0826 8.04425C22.33 7.99016 22.5839 7.9646 22.8383 7.96818C22.8715 7.96539 22.9033 7.95451 22.9303 7.93667C22.9573 7.91883 22.9786 7.8947 22.992 7.86677C23.0147 7.82297 23.0121 7.76305 22.9492 7.76074C22.4533 7.76813 21.9643 7.86801 21.5121 8.05428C21.0599 8.24055 20.6539 8.50929 20.3192 8.84405C20.0194 9.12295 19.7725 9.45025 19.445 9.70379C19.1931 9.90201 18.8555 10.0564 18.5507 9.84439C18.3742 9.70389 18.2318 9.53116 18.1325 9.33731C18.0554 9.20187 17.9929 9.05982 17.9461 8.9132C17.8795 8.63184 17.7575 8.36393 17.5859 8.12261C17.4643 8.00677 17.3101 7.92393 17.1402 7.88326C16.9704 7.84258 16.7916 7.84565 16.6236 7.89212C16.2235 8.01441 15.8512 8.20267 15.5252 8.44761C15.373 8.55037 15.2026 8.62835 15.0214 8.6781C14.8113 8.71955 14.5941 8.71955 14.384 8.6781C13.9897 8.60654 13.6003 8.51419 13.2177 8.40151C12.8665 8.29562 12.5012 8.2336 12.1319 8.21712C11.763 8.21152 11.4046 8.32957 11.1242 8.54903C10.7865 8.84508 10.5412 9.21827 10.4138 9.63003C10.2677 10.0403 10.2249 10.4736 10.0737 10.8816C10.011 11.0668 9.90527 11.2374 9.76388 11.3818C9.6077 11.5339 9.44647 11.686 9.19707 11.6538C8.98509 11.6086 8.79915 11.4927 8.67561 11.3288C8.51117 11.1372 8.38573 10.9202 8.30529 10.688C8.26955 10.6015 8.24339 10.5119 8.2272 10.4206C8.20704 10.3054 8.19445 10.1901 8.18437 10.0726C8.15666 9.77985 8.13399 9.48482 8.10124 9.1921C8.07477 8.9012 8.02168 8.61284 7.94253 8.33006C7.88963 8.15719 7.8065 7.91287 7.60244 7.84372C7.51885 7.82324 7.43018 7.82892 7.35053 7.85985C7.29511 7.8806 7.22709 8.01198 7.33289 7.98893H7.32786Z" fill="black"/>
<path d="M29.3441 7.89226C29.4961 8.02012 29.6404 8.15007 29.8053 8.26745C29.9555 8.37765 30.1129 8.48121 30.2768 8.57766C30.6075 8.77564 30.986 8.91425 31.3874 8.98429C31.6264 9.02064 31.8685 9.04236 32.1115 9.04926C32.3315 9.05907 32.5521 9.05416 32.7711 9.03459C33.1355 8.99872 33.4899 8.91372 33.8199 8.78307C34.2528 8.61539 34.665 8.41627 35.0902 8.23811C35.1231 8.22573 35.1514 8.20671 35.1726 8.18285C35.1938 8.159 35.2072 8.13111 35.2113 8.10186C35.2113 8.04527 35.1366 8.04318 35.0851 8.06204C34.4048 8.33033 33.7683 8.716 33.0056 8.8208C32.5693 8.87528 32.1252 8.87528 31.6889 8.8208C31.2922 8.76878 30.9136 8.64875 30.5783 8.46867C30.398 8.37042 30.2258 8.26259 30.063 8.14588C29.88 8.01802 29.6945 7.89436 29.5064 7.77069C29.4394 7.72668 29.2977 7.83986 29.3569 7.89226H29.3441Z" fill="black"/>
<path d="M34.9827 7.95888C35.1372 8.19758 35.277 8.45538 35.4389 8.69646C35.5743 8.92561 35.7826 9.10572 36.0323 9.20966C36.3388 9.30806 36.6727 9.2849 36.9617 9.14521C37.195 9.01152 37.3826 8.81394 37.5012 8.57711C37.5699 8.45538 37.6337 8.33841 37.7121 8.21429C37.7505 8.15644 37.7931 8.1014 37.8397 8.04959C37.9058 7.98592 37.9657 7.9164 38.0187 7.84192C38.0432 7.80134 38.0187 7.74883 37.9647 7.76315C37.8222 7.82584 37.7025 7.92902 37.6214 8.05914C37.5429 8.16341 37.4716 8.27266 37.4081 8.38615C37.3541 8.48402 37.3002 8.58905 37.2413 8.67737C37.1901 8.7684 37.1219 8.84935 37.0402 8.91606C36.925 8.98771 36.7957 9.03513 36.6605 9.05527C36.5254 9.07541 36.3874 9.06783 36.2555 9.03302C36.0111 8.95464 35.8016 8.79711 35.662 8.58666C35.5044 8.32746 35.3282 8.07939 35.1348 7.84431C35.0833 7.78941 34.946 7.91114 34.9827 7.97082V7.95888Z" fill="black"/>
<path d="M37.8156 7.94068C37.9429 7.97381 38.0759 7.98397 38.2074 7.97061H41.6391C41.8061 7.96826 41.9727 7.95673 42.1382 7.93607C42.1956 7.93607 42.3154 7.80945 42.2131 7.79794C42.0791 7.78046 41.9441 7.7697 41.8088 7.76571H38.3846C38.2218 7.75389 38.0579 7.76319 37.8979 7.79334C37.8555 7.80715 37.7382 7.90614 37.823 7.93838L37.8156 7.94068Z" fill="black"/>
<path d="M42.0398 7.95647C42.32 7.94432 42.5991 7.99664 42.8516 8.10866C43.0756 8.2213 43.2717 8.37499 43.4279 8.56014C43.7826 8.95836 44.0375 9.42506 44.381 9.82835C44.4828 9.9715 44.6371 10.0767 44.816 10.1251C44.8978 10.1376 44.9815 10.1331 45.0611 10.1121C45.1407 10.091 45.2141 10.0538 45.276 10.0034C45.5852 9.73195 45.8246 9.401 45.977 9.03445C46.0905 8.81886 46.1986 8.60326 46.3205 8.3902C46.3695 8.30277 46.4241 8.21807 46.484 8.13656C46.5117 8.09598 46.5394 8.06047 46.5699 8.02242L46.5976 7.99198L46.6502 7.94379C46.689 7.90828 46.7444 7.82965 46.6946 7.78146C46.6447 7.73327 46.5533 7.78146 46.5172 7.82204C46.2422 8.11858 46.0222 8.45448 45.8661 8.81632C45.7691 9.00148 45.6749 9.18917 45.5669 9.36926C45.5234 9.44603 45.4753 9.52055 45.4228 9.59246L45.3452 9.69899L45.3064 9.74211C45.3064 9.74211 45.276 9.77509 45.3064 9.75733C45.3369 9.73958 45.3064 9.75733 45.2898 9.77255L45.251 9.8106C45.251 9.8106 45.1928 9.85625 45.2316 9.82835L45.1956 9.85372L45.1707 9.86893L45.1319 9.88669C45.1014 9.88669 45.1541 9.88669 45.1319 9.88669H45.1097H45.0876H45.0321C45.0072 9.88691 44.9825 9.88169 44.9601 9.87147C44.9269 9.86071 44.8952 9.84623 44.8659 9.82835C44.7845 9.77743 44.7124 9.71492 44.6526 9.64319C44.3007 9.25005 44.0513 8.79096 43.705 8.39527C43.5349 8.18616 43.3176 8.01312 43.0677 7.88799C42.7712 7.76426 42.4395 7.72963 42.1201 7.78907C42.062 7.78907 41.9622 7.94126 42.062 7.93872L42.0398 7.95647Z" fill="black"/>
<path d="M46.5397 7.97444C46.8304 7.94993 47.1244 7.93407 47.4197 7.92696C47.7583 7.92001 48.0995 7.92696 48.4458 7.92696C49.1102 7.9397 49.7746 7.96865 50.4391 7.95823C52.0527 7.93507 53.6688 7.86442 55.2824 7.92812C56.1296 7.974 56.9877 7.95639 57.8221 7.876C57.8596 7.87138 57.8937 7.86244 57.9211 7.85005C57.9486 7.83766 57.9684 7.82226 57.9786 7.80535C57.994 7.77524 57.953 7.7544 57.8837 7.7625C57.1374 7.83489 56.3714 7.85675 55.6108 7.82736C54.7899 7.80535 53.9716 7.79609 53.1506 7.80651C52.3297 7.81694 51.5396 7.83894 50.7341 7.854C50.0671 7.86674 49.4027 7.84473 48.7357 7.82968C48.3509 7.82157 47.9661 7.81578 47.5813 7.82968C47.2316 7.82942 46.8844 7.85646 46.5551 7.90959C46.4987 7.92001 46.4269 7.98371 46.5372 7.9756L46.5397 7.97444Z" fill="black"/>
<path d="M57.7769 7.93023C58.1634 8.09411 58.5024 8.33796 58.7666 8.64228C58.9826 8.91802 59.1382 9.22894 59.2249 9.55811C59.376 10.0595 59.5271 10.8219 60.1869 10.9685C60.9424 11.1356 61.3705 10.4556 61.6979 9.96565C61.7861 9.83514 61.8717 9.70464 61.9724 9.58329C62.0543 9.4776 62.1588 9.38804 62.2797 9.31999C62.6927 9.09104 63.2064 9.10477 63.6748 9.05211C63.9147 9.0306 64.1484 8.97011 64.3648 8.87353C64.5546 8.77114 64.7349 8.65474 64.9037 8.52551C65.1945 8.28847 65.5381 8.1112 65.9111 8.00578C66.0311 7.98049 66.1532 7.96441 66.2762 7.9577C66.3075 7.95406 66.3372 7.94306 66.3623 7.92579C66.3875 7.90853 66.4073 7.88559 66.4197 7.85925C66.4374 7.82491 66.4399 7.75851 66.3769 7.7608C65.9386 7.78817 65.5174 7.92613 65.1606 8.15918C64.9994 8.25993 64.8483 8.3744 64.6922 8.48201C64.5213 8.61496 64.325 8.71818 64.113 8.78652C63.6572 8.91245 63.1711 8.86208 62.7128 8.97427C62.3299 9.06374 61.9949 9.27492 61.7684 9.56955C61.567 9.82598 61.4108 10.1076 61.2094 10.3617C61.1442 10.4739 61.0515 10.5709 60.9383 10.6452C60.8252 10.7195 60.6948 10.769 60.5571 10.7899C59.8268 10.8197 59.6228 10.0595 59.4743 9.55582C59.3924 9.24436 59.2618 8.94519 59.0864 8.66747C58.8708 8.34956 58.5668 8.08895 58.205 7.91191C58.1043 7.86154 58.001 7.81804 57.8978 7.77683C57.7945 7.73562 57.6913 7.88902 57.7769 7.92794V7.93023Z" fill="black"/>
<path d="M73.5064 7.90949C74.0007 8.01015 74.4762 8.16903 74.9195 8.38159C75.3806 8.59335 75.8577 8.77844 76.3477 8.9356C76.8061 9.06494 77.252 8.88387 77.6324 8.67692C78.0127 8.46997 78.4384 8.21775 78.8918 8.35141C79.0704 8.42112 79.2353 8.51422 79.3805 8.62734C79.4698 8.68404 79.5718 8.72456 79.68 8.74643C79.7883 8.7683 79.9007 8.77105 80.0102 8.75452C80.2283 8.70581 80.4301 8.61429 80.5996 8.48722C80.7801 8.37514 80.989 8.30127 81.2092 8.27165C81.3647 8.24357 81.5268 8.26504 81.6651 8.33201C81.7857 8.40499 81.8849 8.50091 81.9548 8.61225C82.0994 8.88333 82.3138 9.12286 82.582 9.31285C82.7594 9.41824 82.9683 9.47807 83.184 9.48531C83.3811 9.47793 83.5679 9.40799 83.708 9.28914C84.0128 9.04339 84.1563 8.67692 84.3402 8.36434C84.383 8.28889 84.4259 8.21129 84.4763 8.14877C84.5014 8.11428 84.5317 8.05607 84.4763 8.03236C84.4208 8.00865 84.3478 8.06254 84.3201 8.09703C84.0908 8.39883 83.9624 8.74375 83.7306 9.0477C83.6884 9.10551 83.6367 9.15778 83.577 9.20291C83.5545 9.21843 83.5309 9.23282 83.5065 9.24602C83.4787 9.25977 83.4491 9.27062 83.4183 9.27836C83.2269 9.30689 83.0298 9.2747 82.8641 9.18782C82.577 9.02623 82.3505 8.79719 82.2117 8.52817C82.152 8.40517 82.0548 8.29811 81.9303 8.21812C81.8059 8.13813 81.6586 8.08813 81.5039 8.07332C81.2764 8.07029 81.0511 8.11312 80.8465 8.19835C80.645 8.27811 80.4888 8.41392 80.2999 8.50231C80.2096 8.54808 80.1077 8.57453 80.0029 8.5794C79.8981 8.58428 79.7934 8.56745 79.6979 8.53033C79.5421 8.44416 79.3939 8.34833 79.2545 8.24362C79.0411 8.13463 78.7881 8.09701 78.5442 8.13799C78.3201 8.17691 78.1059 8.24992 77.912 8.35356C77.5518 8.5368 77.2067 8.7847 76.7658 8.7847C76.5353 8.76983 76.3107 8.71481 76.1059 8.62303C75.854 8.53464 75.6273 8.43548 75.388 8.33847C74.9146 8.12758 74.4208 7.95231 73.9119 7.81463C73.8112 7.79028 73.7084 7.77227 73.6046 7.76074C73.5341 7.76074 73.4207 7.8944 73.5039 7.90517L73.5064 7.90949Z" fill="black"/>
<path d="M84.3089 7.94113C84.6044 7.95652 84.8949 7.97411 85.1904 7.97631H86.13H88.1886C89.588 7.97631 90.9873 7.97631 92.3841 7.97631C93.0889 7.97631 93.7961 7.97631 94.4983 7.93014C94.5513 7.93014 94.6574 7.81581 94.564 7.80701C93.9603 7.75644 93.3541 7.76084 92.7479 7.76084H90.6867C89.2874 7.76084 87.8872 7.76084 86.4862 7.76084H85.4102C85.0641 7.76084 84.7231 7.77843 84.3771 7.79602C84.319 7.79602 84.2179 7.91255 84.3089 7.91915V7.94113Z" fill="black"/>
<path d="M94.5173 8.13582C95.7889 8.7916 95.7736 10.3194 96.6993 11.2389C97.3911 11.9303 98.8585 12.1417 99.5604 11.3458C100.262 10.5498 99.9801 9.34758 99.6952 8.4946C99.3239 7.3565 98.7085 6.39423 97.6251 5.73608C96.1805 4.85696 94.3926 4.51957 92.6989 4.36038C91.8265 4.27248 90.9489 4.23914 90.0717 4.26059C89.0451 4.30628 88.0243 4.43185 87.0199 4.636C85.7712 4.86171 84.6039 4.95438 83.3653 4.636C82.3658 4.37226 81.4096 3.98022 80.3694 3.87568C79.1996 3.75688 78.0246 3.93983 76.8649 4.07051C75.7848 4.22264 74.6808 4.1012 73.6681 3.71886C72.6279 3.31019 71.7302 2.6663 70.7994 2.08419C69.9245 1.52409 68.9864 1.05558 68.0019 0.687104C66.0928 -0.0265289 63.9985 -0.18875 61.9897 0.221411C59.8992 0.660969 58.1419 1.69452 56.3794 2.78035C55.4003 3.38623 54.3652 4.01111 53.2106 4.27247C52.1348 4.51007 51.1226 4.2297 50.1588 3.76876C49.2712 3.34108 48.4269 2.79936 47.4579 2.54037C46.5223 2.31344 45.5468 2.26815 44.5917 2.40732C42.4681 2.67343 40.4844 3.5074 38.4601 4.11565C36.3721 4.74291 34.6631 6.40848 32.3208 5.96655C30.2048 5.56501 28.3635 4.4174 26.1332 4.52908C24.0223 4.63362 22.2268 6.09248 20.0778 5.69806C19.0605 5.51273 18.1094 5.17772 17.0794 5.07318C15.8019 4.9639 14.5177 4.94008 13.2366 5.0019C11.052 5.0803 8.77582 5.33929 6.62427 4.89023C5.28146 4.60986 3.80895 4.07289 2.46614 4.64075C1.752 4.98237 1.1507 5.49896 0.726592 6.13524C0.650296 6.23979 0.787629 6.25642 0.848665 6.17801C1.42089 5.43908 2.14824 4.7738 3.13755 4.61936C3.86744 4.50769 4.6126 4.65738 5.32215 4.81657C6.04643 5.00329 6.78184 5.15006 7.52457 5.25613C8.59163 5.34759 9.66466 5.36188 10.7341 5.2989C13.1425 5.22049 15.6781 4.93062 18.0534 5.44621C18.9156 5.63391 19.7574 5.94041 20.6475 5.98793C21.6775 6.04258 22.5752 5.65767 23.5137 5.32266C24.4308 4.95769 25.4138 4.75855 26.4104 4.73579C27.5386 4.77978 28.6498 5.00816 29.6936 5.41057C30.6117 5.73133 31.5324 6.09485 32.5064 6.22791C33.4117 6.3308 34.3294 6.18377 35.1463 5.80498C36.0847 5.40819 36.9468 4.85459 37.9005 4.49819C38.8542 4.14179 39.8537 3.8638 40.8201 3.54779C42.7682 2.91103 44.9376 2.241 47.0179 2.67818C48.8465 3.06309 50.2758 4.55759 52.2086 4.57897C54.1414 4.60036 55.8632 3.28643 57.3789 2.3598C59.2533 1.20507 61.3514 0.321203 63.625 0.221411C65.7359 0.128748 67.7781 0.720368 69.599 1.69215C71.3029 2.59977 72.7856 3.94934 74.782 4.28197C75.8578 4.46255 76.9081 4.25821 77.9788 4.14654C79.1316 3.98797 80.3067 4.04613 81.435 4.31761C82.3684 4.55521 83.2687 4.93062 84.2326 5.04466C85.2905 5.16822 86.3409 4.95913 87.376 4.76667C89.2054 4.43671 91.0791 4.37898 92.9278 4.5956C94.652 4.78806 96.5493 5.18247 97.9251 6.23504C98.8407 6.93595 99.3493 7.99326 99.6164 9.05295C99.8834 10.1126 99.919 11.6665 98.3753 11.6665C96.712 11.6665 96.3407 10.2671 95.7253 9.13136C95.4942 8.65654 95.1147 8.25814 94.6368 7.98851C94.5707 7.95525 94.4461 8.09306 94.5249 8.13582H94.5173Z" fill="black"/>
<path d="M0.720288 6.28018C0.692667 6.39053 0.700512 6.50552 0.742936 6.61214C0.78536 6.71875 0.860668 6.81272 0.960334 6.88341C1.20104 7.02169 1.48003 7.09883 1.76689 7.10644C2.48154 7.1348 3.19732 7.08053 3.8961 6.94501C4.15295 6.90465 4.4098 6.8558 4.66905 6.82394C4.68345 6.82394 4.70985 6.78783 4.68345 6.78571C4.4757 6.78934 4.26894 6.81212 4.06653 6.85368C3.73527 6.90465 3.404 6.95351 3.07034 6.98962C2.71183 7.03458 2.34971 7.05305 1.98773 7.04484C1.68874 7.05027 1.39231 6.99505 1.12116 6.88341C0.998631 6.82387 0.899749 6.73242 0.837918 6.62148C0.776087 6.51054 0.754296 6.38546 0.775498 6.26319C0.775498 6.23557 0.725088 6.26319 0.722688 6.28018H0.720288Z" fill="black"/>
<path d="M7.3036 7.18928C7.6143 7.22227 7.90982 7.33943 8.15777 7.5279C8.3739 7.70898 8.53396 7.94694 8.61948 8.21432C8.66754 8.36328 8.70079 8.51654 8.71874 8.67192C8.7349 8.80234 8.73259 8.93276 8.73721 9.06547C8.73312 9.31257 8.78026 9.55788 8.87572 9.7862C8.94103 9.90712 9.04303 10.0047 9.16731 10.065C9.29158 10.1254 9.43185 10.1455 9.56829 10.1225C9.60061 10.1225 9.65371 10.0425 9.60523 10.0425C9.47942 10.0612 9.35083 10.0412 9.23688 9.9851C9.12292 9.92904 9.02909 9.83964 8.96807 9.729C8.86469 9.49477 8.81426 9.24097 8.82032 8.98538C8.81814 8.7047 8.77538 8.42577 8.69335 8.15711C8.6123 7.89217 8.4589 7.65461 8.25011 7.4707C7.98465 7.26389 7.66332 7.13969 7.32669 7.11377C7.29668 7.11377 7.25281 7.17326 7.29437 7.18012L7.3036 7.18928Z" fill="black"/>
<path d="M13.3983 7.72882C13.6844 7.76737 13.9631 7.83994 14.2442 7.8989C14.4791 7.95897 14.7233 7.98424 14.9672 7.97373C15.2262 7.9511 15.4757 7.87339 15.6951 7.74696C15.948 7.59799 16.2122 7.46537 16.4858 7.3501C16.646 7.28385 16.8146 7.23586 16.9879 7.20723C17.1725 7.18259 17.3605 7.18874 17.5426 7.22537C17.5728 7.22537 17.633 7.17321 17.5928 7.15961C17.308 7.0873 17.0049 7.10083 16.7293 7.19816C16.4432 7.28999 16.1689 7.40936 15.911 7.5542C15.6738 7.7053 15.4086 7.81668 15.1278 7.88302C14.8703 7.91383 14.6085 7.8992 14.3572 7.83994C14.0509 7.77871 13.7447 7.70614 13.4334 7.66759C13.4008 7.66759 13.3556 7.72655 13.3983 7.73335V7.72882Z" fill="black"/>
<path d="M19.4844 7.88437C19.5472 7.9219 19.6252 7.9493 19.7109 7.96394C19.7967 7.97858 19.8873 7.97999 19.9743 7.96802C20.1453 7.92994 20.3045 7.87529 20.4453 7.8063C20.6353 7.72937 20.8465 7.67274 21.0695 7.63899C21.3013 7.60769 21.5383 7.59179 21.776 7.59159C21.809 7.59159 21.8608 7.54698 21.8114 7.54698C21.3806 7.53289 20.9518 7.59138 20.5749 7.71568C20.4147 7.77144 20.271 7.84533 20.1038 7.89413C20.0159 7.92128 19.9157 7.93131 19.8176 7.9228C19.7195 7.91429 19.6284 7.88767 19.5574 7.84673C19.5268 7.83279 19.4632 7.87043 19.4914 7.88437H19.4844Z" fill="black"/>
<path d="M28.4166 6.74733C28.7284 6.73121 29.0415 6.74216 29.3501 6.77997C29.5019 6.80443 29.6455 6.8528 29.7721 6.92207C29.8918 6.9919 29.9987 7.07393 30.0899 7.16594C30.2671 7.35993 30.4795 7.53324 30.7204 7.68057C30.9644 7.80422 31.2393 7.88667 31.5273 7.92252C31.6915 7.94496 31.8573 7.95971 32.0238 7.96668C32.2088 7.97916 32.3949 7.97916 32.5799 7.96668C32.6047 7.96668 32.6568 7.91868 32.6122 7.91484C32.4562 7.90426 32.2995 7.90042 32.143 7.90331C31.9841 7.90331 31.8252 7.88603 31.6688 7.86875C31.3625 7.83799 31.0686 7.75609 30.8073 7.62872C30.5626 7.48399 30.349 7.31031 30.1743 7.11409C30 6.93067 29.7534 6.79591 29.4717 6.73005C29.136 6.68331 28.7937 6.67104 28.4539 6.69356C28.4241 6.69356 28.3794 6.74541 28.4216 6.74733H28.4166Z" fill="black"/>
<path d="M36.1646 7.7824C36.2067 7.82953 36.264 7.87082 36.3328 7.90374C36.4016 7.93665 36.4805 7.9605 36.5648 7.9738C36.7018 7.98345 36.8399 7.96205 36.9535 7.91354C37.0914 7.86013 37.2232 7.80092 37.348 7.73632C37.4166 7.70442 37.4823 7.67429 37.5566 7.64594C37.6309 7.61758 37.6995 7.60163 37.771 7.57859C37.771 7.57859 37.8196 7.54492 37.771 7.54492C37.6325 7.55772 37.5037 7.59671 37.4023 7.65657C37.2708 7.71328 37.1507 7.77885 37.0193 7.83379C36.9075 7.89012 36.7688 7.9219 36.6248 7.92418C36.5407 7.91429 36.4609 7.89337 36.3909 7.8628C36.3209 7.83223 36.2623 7.79273 36.2189 7.74695C36.1989 7.72923 36.1332 7.76822 36.1532 7.78772L36.1646 7.7824Z" fill="black"/>
<path d="M43.1962 7.16778C43.4271 7.2344 43.6407 7.33586 43.8259 7.46692C43.9951 7.59048 44.146 7.72993 44.2753 7.88239C44.4048 8.03611 44.4708 8.23969 44.6714 8.34355C44.7403 8.3849 44.8234 8.40719 44.9088 8.40719C44.9942 8.40719 45.0774 8.3849 45.1462 8.34355C45.2225 8.29397 45.2901 8.23594 45.3468 8.17114C45.4185 8.10149 45.483 8.02715 45.5398 7.94886C45.5398 7.93016 45.5271 7.92601 45.5119 7.93432C45.3697 8.01741 45.296 8.1649 45.1716 8.26254C45.1365 8.28876 45.0953 8.30892 45.0505 8.3218C45.0057 8.33468 44.9581 8.34002 44.9107 8.3375C44.8633 8.33498 44.817 8.32464 44.7745 8.30712C44.7321 8.2896 44.6944 8.26525 44.6638 8.23553C44.5365 8.09309 44.4195 7.94465 44.3134 7.79098C44.1843 7.65421 44.0397 7.52764 43.8817 7.41291C43.6977 7.28269 43.486 7.18129 43.2571 7.11377C43.2241 7.11377 43.1682 7.16155 43.2038 7.17401L43.1962 7.16778Z" fill="black"/>
<path d="M56.3429 6.99785C57.0107 7.10967 57.6939 6.96344 58.3668 6.95914C58.5333 6.9556 58.6999 6.96495 58.8643 6.9871C59.0002 7.00083 59.1326 7.03278 59.2562 7.08171C59.3817 7.1492 59.4811 7.24555 59.5424 7.35912C59.7151 7.63007 59.8002 7.93543 59.9446 8.21929C60.0477 8.41713 60.2179 8.66442 60.5221 8.61711C60.6141 8.60085 60.7016 8.5702 60.7799 8.5268C60.9186 8.44743 61.0633 8.3756 61.213 8.31176C61.514 8.21119 61.8383 8.16855 62.1618 8.18703C62.1901 8.18703 62.2288 8.13757 62.1901 8.13757C61.911 8.12449 61.6313 8.15066 61.3626 8.21499C61.2467 8.25095 61.1353 8.29632 61.03 8.35046C60.914 8.40637 60.8057 8.47949 60.6845 8.52895C60.6265 8.55906 60.5595 8.57501 60.4912 8.57501C60.4228 8.57501 60.3558 8.55906 60.2978 8.52895C60.1831 8.44896 60.0944 8.34616 60.04 8.23004C59.8904 7.94833 59.8131 7.64512 59.6558 7.36987C59.5998 7.252 59.5115 7.14669 59.398 7.06236C59.3198 7.01793 59.2324 6.98585 59.1402 6.96774C58.9963 6.93412 58.8485 6.91322 58.6993 6.90538C57.9259 6.86022 57.1525 7.05376 56.3919 6.95914C56.3636 6.95914 56.3146 7.01505 56.3507 7.01935L56.3429 6.99785Z" fill="black"/>
<path d="M72.7943 6.98347C73.1835 6.979 73.5716 7.02016 73.9487 7.10585C74.1317 7.15086 74.3105 7.20829 74.4836 7.27762C74.6603 7.34848 74.8297 7.43221 75.0064 7.49233C75.3318 7.63948 75.6858 7.73055 76.0495 7.76072C76.3483 7.7485 76.6399 7.67501 76.9014 7.54601C77.0611 7.47945 77.216 7.40645 77.3854 7.34633C77.5593 7.28365 77.7403 7.23759 77.9251 7.20891C77.9251 7.20891 77.9469 7.19174 77.9251 7.19174C77.62 7.21021 77.3237 7.29026 77.0587 7.42577C76.786 7.5644 76.4848 7.65345 76.1729 7.68772C75.8094 7.67277 75.4541 7.58701 75.1322 7.43651C74.7927 7.28269 74.4427 7.14787 74.0842 7.03285C73.6733 6.93489 73.2486 6.89005 72.8233 6.89973C72.7918 6.89973 72.7434 6.96414 72.7894 6.96414L72.7943 6.98347Z" fill="black"/>
<path d="M80.7679 7.37929C81.0414 7.35469 81.3208 7.36751 81.5845 7.41675C81.8567 7.49455 82.0186 7.66167 82.3006 7.73514C82.3921 7.75943 82.494 7.76666 82.5927 7.75584C82.6914 7.74502 82.782 7.71667 82.8524 7.67463C82.8696 7.66455 82.872 7.64294 82.8377 7.65158C82.7271 7.69727 82.592 7.71775 82.4576 7.70921C82.3402 7.69014 82.2314 7.65621 82.1388 7.6098C82.0105 7.53663 81.8746 7.4683 81.7317 7.40523C81.4594 7.3015 81.1088 7.33175 80.8022 7.3404C80.7703 7.3404 80.7286 7.38074 80.7679 7.37929Z" fill="black"/>
<path d="M93.9155 6.96247C94.4395 6.94354 94.9636 6.99639 95.4701 7.11923C95.7213 7.20018 95.9499 7.3298 96.1398 7.499C96.3455 7.68295 96.5626 7.85619 96.79 8.01787C97.0221 8.17461 97.2418 8.34578 97.4475 8.53012C97.6413 8.72497 97.8233 8.92914 97.9926 9.14173C98.2847 9.50494 98.6609 9.80632 99.095 10.0249C99.2408 10.1073 99.4127 10.1437 99.5839 10.1287C99.7721 10.0889 99.7819 9.90789 99.7525 9.771C99.7525 9.73567 99.667 9.78645 99.6743 9.81957C99.6816 9.85269 99.7134 9.98958 99.6548 10.0404C99.6313 10.0546 99.6048 10.0641 99.577 10.0683C99.5492 10.0724 99.5207 10.0712 99.4934 10.0647C99.3395 10.0414 99.1919 9.99191 99.0583 9.91893C98.6243 9.67473 98.2507 9.35227 97.9609 8.97171C97.799 8.76401 97.6209 8.567 97.428 8.38219C97.2325 8.21218 97.0198 8.06203 96.8071 7.90968C96.5945 7.75734 96.3965 7.58953 96.1961 7.41731C96.0217 7.26467 95.8157 7.14462 95.5899 7.06403C95.0741 6.88077 94.4948 6.91169 93.9522 6.89844C93.918 6.89844 93.8691 6.96468 93.9155 6.96468V6.96247Z" fill="black"/>
<path d="M45.1463 7.95065C45.2616 7.79696 45.3983 7.65698 45.5532 7.53408L45.7837 7.35119C45.8621 7.29179 45.9345 7.22634 46 7.1556C46.0256 7.12512 46 7.09972 45.9601 7.12258C45.8776 7.17846 45.8036 7.24451 45.7239 7.30801C45.6443 7.37151 45.5646 7.43501 45.4877 7.50106C45.3309 7.63083 45.1941 7.7786 45.0808 7.94049C45.0778 7.94263 45.0754 7.94534 45.0738 7.94842C45.0721 7.9515 45.0713 7.95486 45.0713 7.95827C45.0713 7.96168 45.0721 7.96505 45.0738 7.96812C45.0754 7.9712 45.0778 7.97391 45.0808 7.97605C45.0979 7.97605 45.1235 7.97605 45.132 7.95065H45.1463Z" fill="black"/>
<path d="M35.9247 7.17273C36.0082 7.20962 36.0888 7.25589 36.1657 7.31097C36.2033 7.33984 36.2378 7.37469 36.2683 7.41466C36.2837 7.43491 36.2979 7.45666 36.3106 7.47971C36.3209 7.50671 36.3373 7.52933 36.3578 7.54477C36.364 7.54549 36.3702 7.54343 36.3753 7.53896C36.3803 7.53448 36.384 7.52789 36.3855 7.52037C36.3852 7.4893 36.3795 7.45867 36.3688 7.4306C36.3581 7.40252 36.3427 7.37767 36.3236 7.35773C36.2924 7.31522 36.2561 7.27889 36.2161 7.24998C36.1345 7.1934 36.0482 7.14774 35.9589 7.11377C35.9377 7.11377 35.8986 7.16053 35.9247 7.17273Z" fill="black"/>
<path d="M30.0509 6.9821C30.1212 7.07869 30.1966 7.16722 30.2685 7.2504L30.3706 7.38991L30.4209 7.46504C30.4376 7.49187 30.4527 7.52943 30.4761 7.54284C30.4995 7.55626 30.5196 7.50796 30.5146 7.48113C30.5063 7.445 30.4918 7.41338 30.4728 7.38991C30.4573 7.36198 30.4405 7.33597 30.4225 7.3121C30.3891 7.26381 30.3539 7.2182 30.3171 7.17259C30.2434 7.08137 30.1681 6.99551 30.0961 6.90429C30.076 6.87746 30.0308 6.9499 30.0509 6.97942V6.9821Z" fill="black"/>
<path d="M20.2315 7.54036C20.4103 7.47148 20.5919 7.40526 20.7818 7.34433L21.0569 7.25956C21.1508 7.23518 21.2428 7.20419 21.332 7.16684C21.3458 7.16684 21.3815 7.11121 21.3458 7.11386C21.2516 7.12194 21.159 7.14244 21.0707 7.17479L20.7763 7.27016C20.5919 7.33373 20.4076 7.39996 20.226 7.47148C20.1847 7.48738 20.1655 7.5642 20.226 7.54036H20.2315Z" fill="black"/>
<path d="M15.5377 7.53712C15.7533 7.43068 15.9689 7.31863 16.1901 7.22058C16.3021 7.17016 16.4169 7.12254 16.5317 7.08052C16.6465 7.0385 16.7613 7.01329 16.8677 6.96567C16.8845 6.96567 16.9265 6.89844 16.8845 6.89844C16.7716 6.90752 16.661 6.93496 16.5569 6.97967C16.4393 7.02169 16.3245 7.06931 16.2125 7.11974C15.9829 7.22338 15.7617 7.33823 15.5377 7.45309C15.4929 7.4755 15.4677 7.57354 15.5377 7.53712Z" fill="black"/>
<path d="M8.23327 7.16335C8.49707 7.14476 8.74315 7.31375 8.89833 7.45062C9.00322 7.53654 9.0961 7.63055 9.17543 7.73113C9.20775 7.77194 9.23663 7.81427 9.26189 7.85787C9.27556 7.8979 9.29724 7.93609 9.32618 7.97109C9.34613 7.98799 9.38604 7.95757 9.39047 7.94236C9.39167 7.86701 9.36224 7.79323 9.30623 7.73113C9.25082 7.652 9.18628 7.57679 9.11336 7.50639C8.97261 7.36047 8.78884 7.24181 8.57688 7.15997C8.47718 7.12281 8.36586 7.1076 8.25544 7.11604C8.23105 7.11604 8.19558 7.16673 8.23327 7.16335Z" fill="black"/>
<path d="M77.5087 7.11092C77.6519 7.07031 77.8005 7.03707 77.9531 7.01158L78.1695 6.97708C78.243 6.96869 78.3143 6.9543 78.3813 6.93431C78.3974 6.93431 78.4227 6.9012 78.3813 6.89844C78.345 6.89971 78.3093 6.90437 78.2754 6.91224L78.1603 6.93155C78.0866 6.94397 78.0152 6.95501 77.9439 6.96881C77.7917 6.99548 77.6438 7.03011 77.5018 7.07229C77.4857 7.07229 77.4627 7.09023 77.465 7.10264C77.4673 7.11506 77.4857 7.11644 77.5018 7.11092H77.5087Z" fill="black"/>
<defs>
<radialGradient id="paint0_radial_196_1966" cx="0" cy="0" r="1" gradientUnits="userSpaceOnUse" gradientTransform="translate(50 5.9282) rotate(90) scale(5.9282 50)">
<stop stop-color="white"/>
<stop offset="1" stop-color="#F0FAFC"/>
</radialGradient>
</defs>
</svg>
