<svg width="246" height="54" viewBox="0 0 246 54" fill="none" xmlns="http://www.w3.org/2000/svg">
<path d="M24.752 31.8984V33.1045C24.752 35.1579 24.4674 37.001 23.8984 38.6338C23.3418 40.2666 22.5439 41.6582 21.5049 42.8086C20.4782 43.959 19.2536 44.8434 17.8311 45.4619C16.4209 46.068 14.8561 46.3711 13.1367 46.3711C11.4173 46.3711 9.84635 46.068 8.42383 45.4619C7.0013 44.8434 5.76432 43.959 4.71289 42.8086C3.67383 41.6582 2.86979 40.2666 2.30078 38.6338C1.73177 37.001 1.44727 35.1579 1.44727 33.1045V31.8984C1.44727 29.8451 1.73177 28.002 2.30078 26.3691C2.86979 24.724 3.66764 23.3262 4.69434 22.1758C5.7334 21.0254 6.96419 20.1471 8.38672 19.541C9.80924 18.9225 11.3802 18.6133 13.0996 18.6133C14.819 18.6133 16.39 18.9225 17.8125 19.541C19.235 20.1471 20.4596 21.0254 21.4863 22.1758C22.5254 23.3262 23.3294 24.724 23.8984 26.3691C24.4674 28.002 24.752 29.8451 24.752 31.8984ZM18.6475 33.1045V31.8613C18.6475 30.4883 18.5238 29.276 18.2764 28.2246C18.029 27.1608 17.6702 26.2702 17.2002 25.5527C16.7301 24.8353 16.1488 24.2972 15.4561 23.9385C14.7633 23.5674 13.9779 23.3818 13.0996 23.3818C12.1842 23.3818 11.3864 23.5674 10.7061 23.9385C10.0257 24.2972 9.45052 24.8353 8.98047 25.5527C8.52279 26.2702 8.17025 27.1608 7.92285 28.2246C7.68783 29.276 7.57031 30.4883 7.57031 31.8613V33.1045C7.57031 34.4652 7.68783 35.6774 7.92285 36.7412C8.17025 37.7926 8.52897 38.6833 8.99902 39.4131C9.46908 40.1429 10.0443 40.6934 10.7246 41.0645C11.4173 41.4355 12.2214 41.6211 13.1367 41.6211C14.015 41.6211 14.7943 41.4355 15.4746 41.0645C16.1673 40.6934 16.7487 40.1429 17.2188 39.4131C17.6888 38.6833 18.0413 37.7926 18.2764 36.7412C18.5238 35.6774 18.6475 34.4652 18.6475 33.1045ZM43.251 18.9844H49.2998V36.7227C49.2998 38.8255 48.8545 40.5944 47.9639 42.0293C47.0856 43.4642 45.861 44.5465 44.29 45.2764C42.7191 46.0062 40.9007 46.3711 38.835 46.3711C36.7568 46.3711 34.9261 46.0062 33.3428 45.2764C31.7718 44.5465 30.5348 43.4642 29.6318 42.0293C28.7412 40.5944 28.2959 38.8255 28.2959 36.7227V18.9844H34.3633V36.7227C34.3633 37.8854 34.5365 38.8379 34.8828 39.5801C35.2415 40.3099 35.7549 40.848 36.4229 41.1943C37.0908 41.5283 37.8949 41.6953 38.835 41.6953C39.7751 41.6953 40.5729 41.5283 41.2285 41.1943C41.8965 40.848 42.3975 40.3099 42.7314 39.5801C43.0778 38.8379 43.251 37.8854 43.251 36.7227V18.9844ZM53.623 18.9844H63.9951C66.0609 18.9844 67.8483 19.2936 69.3574 19.9121C70.8789 20.5306 72.0479 21.446 72.8643 22.6582C73.6807 23.8704 74.0889 25.3672 74.0889 27.1484C74.0889 28.6328 73.8477 29.8945 73.3652 30.9336C72.8828 31.9727 72.2025 32.8324 71.3242 33.5127C70.4583 34.193 69.444 34.7435 68.2812 35.1641L66.3145 36.2402H57.4824L57.4453 31.5459H64.0137C64.9167 31.5459 65.665 31.3851 66.2588 31.0635C66.8525 30.7419 67.2979 30.2904 67.5947 29.709C67.904 29.1152 68.0586 28.4225 68.0586 27.6309C68.0586 26.8145 67.904 26.1094 67.5947 25.5156C67.2855 24.9219 66.8278 24.4704 66.2217 24.1611C65.6279 23.8395 64.8857 23.6787 63.9951 23.6787H59.6719V46H53.623V18.9844ZM68.5781 46L62.5107 33.9951L68.8936 33.9766L75.0537 45.7217V46H68.5781ZM101.661 38.875C101.661 38.4173 101.593 38.0091 101.457 37.6504C101.321 37.2793 101.074 36.9391 100.715 36.6299C100.356 36.3206 99.849 36.0114 99.1934 35.7021C98.5378 35.3805 97.6781 35.0527 96.6143 34.7188C95.402 34.3229 94.2454 33.8776 93.1445 33.3828C92.056 32.8757 91.085 32.2881 90.2314 31.6201C89.3779 30.9521 88.7038 30.1729 88.209 29.2822C87.7266 28.3916 87.4854 27.3525 87.4854 26.165C87.4854 25.0146 87.7389 23.9756 88.2461 23.0479C88.7533 22.1201 89.4645 21.3285 90.3799 20.6729C91.2952 20.0049 92.3714 19.4977 93.6084 19.1514C94.8454 18.7926 96.2061 18.6133 97.6904 18.6133C99.6696 18.6133 101.408 18.9658 102.904 19.6709C104.413 20.3636 105.589 21.3408 106.43 22.6025C107.271 23.8519 107.691 25.3053 107.691 26.9629H101.68C101.68 26.2331 101.525 25.5898 101.216 25.0332C100.919 24.4642 100.461 24.0189 99.8428 23.6973C99.2367 23.3757 98.4759 23.2148 97.5605 23.2148C96.6699 23.2148 95.9215 23.3509 95.3154 23.623C94.7217 23.8828 94.2702 24.2415 93.9609 24.6992C93.6641 25.1569 93.5156 25.6579 93.5156 26.2021C93.5156 26.6351 93.627 27.0309 93.8496 27.3896C94.0846 27.736 94.4186 28.0638 94.8516 28.373C95.2969 28.6699 95.8411 28.9544 96.4844 29.2266C97.1276 29.4987 97.8636 29.7585 98.6924 30.0059C100.14 30.4635 101.42 30.9707 102.533 31.5273C103.659 32.084 104.605 32.7148 105.372 33.4199C106.139 34.125 106.714 34.9229 107.098 35.8135C107.493 36.7041 107.691 37.7122 107.691 38.8379C107.691 40.0378 107.456 41.1016 106.986 42.0293C106.529 42.957 105.861 43.7487 104.982 44.4043C104.117 45.0475 103.077 45.5361 101.865 45.8701C100.653 46.2041 99.2985 46.3711 97.8018 46.3711C96.4411 46.3711 95.099 46.1979 93.7754 45.8516C92.4518 45.4928 91.252 44.9486 90.1758 44.2188C89.112 43.4889 88.2585 42.5612 87.6152 41.4355C86.9844 40.2975 86.6689 38.9492 86.6689 37.3906H92.7178C92.7178 38.207 92.8353 38.8997 93.0703 39.4688C93.3053 40.0254 93.6393 40.4769 94.0723 40.8232C94.5176 41.1696 95.0557 41.417 95.6865 41.5654C96.3174 41.7139 97.0225 41.7881 97.8018 41.7881C98.7048 41.7881 99.4346 41.6644 99.9912 41.417C100.56 41.1572 100.981 40.8047 101.253 40.3594C101.525 39.9141 101.661 39.4193 101.661 38.875ZM133.779 31.8984V33.1045C133.779 35.1579 133.495 37.001 132.926 38.6338C132.369 40.2666 131.571 41.6582 130.532 42.8086C129.506 43.959 128.281 44.8434 126.858 45.4619C125.448 46.068 123.883 46.3711 122.164 46.3711C120.445 46.3711 118.874 46.068 117.451 45.4619C116.029 44.8434 114.792 43.959 113.74 42.8086C112.701 41.6582 111.897 40.2666 111.328 38.6338C110.759 37.001 110.475 35.1579 110.475 33.1045V31.8984C110.475 29.8451 110.759 28.002 111.328 26.3691C111.897 24.724 112.695 23.3262 113.722 22.1758C114.761 21.0254 115.992 20.1471 117.414 19.541C118.837 18.9225 120.408 18.6133 122.127 18.6133C123.846 18.6133 125.417 18.9225 126.84 19.541C128.262 20.1471 129.487 21.0254 130.514 22.1758C131.553 23.3262 132.357 24.724 132.926 26.3691C133.495 28.002 133.779 29.8451 133.779 31.8984ZM127.675 33.1045V31.8613C127.675 30.4883 127.551 29.276 127.304 28.2246C127.056 27.1608 126.698 26.2702 126.228 25.5527C125.757 24.8353 125.176 24.2972 124.483 23.9385C123.791 23.5674 123.005 23.3818 122.127 23.3818C121.212 23.3818 120.414 23.5674 119.733 23.9385C119.053 24.2972 118.478 24.8353 118.008 25.5527C117.55 26.2702 117.198 27.1608 116.95 28.2246C116.715 29.276 116.598 30.4883 116.598 31.8613V33.1045C116.598 34.4652 116.715 35.6774 116.95 36.7412C117.198 37.7926 117.556 38.6833 118.026 39.4131C118.496 40.1429 119.072 40.6934 119.752 41.0645C120.445 41.4355 121.249 41.6211 122.164 41.6211C123.042 41.6211 123.822 41.4355 124.502 41.0645C125.195 40.6934 125.776 40.1429 126.246 39.4131C126.716 38.6833 127.069 37.7926 127.304 36.7412C127.551 35.6774 127.675 34.4652 127.675 33.1045ZM153.021 36.9453H159.032C158.933 38.8008 158.426 40.4398 157.511 41.8623C156.608 43.2725 155.352 44.3796 153.744 45.1836C152.136 45.9753 150.225 46.3711 148.011 46.3711C146.242 46.3711 144.659 46.068 143.261 45.4619C141.863 44.8558 140.675 43.9899 139.698 42.8643C138.733 41.7262 137.991 40.3594 137.472 38.7637C136.965 37.1556 136.711 35.3434 136.711 33.3271V31.6758C136.711 29.6595 136.977 27.8473 137.509 26.2393C138.041 24.6312 138.801 23.2581 139.791 22.1201C140.781 20.9821 141.968 20.11 143.354 19.5039C144.739 18.8978 146.285 18.5947 147.992 18.5947C150.293 18.5947 152.235 19.0091 153.818 19.8379C155.402 20.6667 156.626 21.8047 157.492 23.252C158.37 24.6992 158.896 26.3506 159.069 28.2061H153.039C152.99 27.1546 152.792 26.2702 152.445 25.5527C152.099 24.8229 151.567 24.2725 150.85 23.9014C150.132 23.5303 149.18 23.3447 147.992 23.3447C147.126 23.3447 146.366 23.5055 145.71 23.8271C145.067 24.1488 144.529 24.6497 144.096 25.3301C143.675 26.0104 143.36 26.8763 143.149 27.9277C142.939 28.9668 142.834 30.2038 142.834 31.6387V33.3271C142.834 34.7497 142.927 35.9805 143.112 37.0195C143.298 38.0586 143.595 38.9183 144.003 39.5986C144.424 40.279 144.962 40.7861 145.617 41.1201C146.273 41.4541 147.071 41.6211 148.011 41.6211C149.087 41.6211 149.984 41.4541 150.701 41.1201C151.419 40.7738 151.969 40.2542 152.353 39.5615C152.736 38.8688 152.959 37.9967 153.021 36.9453ZM168.829 18.9844V46H162.799V18.9844H168.829ZM185.269 24.124L178.292 46H171.835L181.836 18.9844H185.918L185.269 24.124ZM191.058 46L184.062 24.124L183.339 18.9844H187.477L197.515 46H191.058ZM190.761 35.9434V40.6191H176.678V35.9434H190.761ZM217.387 41.3242V46H203.749V41.3242H217.387ZM205.809 18.9844V46H199.76V18.9844H205.809ZM234.364 38.875C234.364 38.4173 234.296 38.0091 234.16 37.6504C234.024 37.2793 233.777 36.9391 233.418 36.6299C233.059 36.3206 232.552 36.0114 231.896 35.7021C231.241 35.3805 230.381 35.0527 229.317 34.7188C228.105 34.3229 226.949 33.8776 225.848 33.3828C224.759 32.8757 223.788 32.2881 222.935 31.6201C222.081 30.9521 221.407 30.1729 220.912 29.2822C220.43 28.3916 220.188 27.3525 220.188 26.165C220.188 25.0146 220.442 23.9756 220.949 23.0479C221.456 22.1201 222.168 21.3285 223.083 20.6729C223.998 20.0049 225.075 19.4977 226.312 19.1514C227.549 18.7926 228.909 18.6133 230.394 18.6133C232.373 18.6133 234.111 18.9658 235.607 19.6709C237.117 20.3636 238.292 21.3408 239.133 22.6025C239.974 23.8519 240.395 25.3053 240.395 26.9629H234.383C234.383 26.2331 234.228 25.5898 233.919 25.0332C233.622 24.4642 233.164 24.0189 232.546 23.6973C231.94 23.3757 231.179 23.2148 230.264 23.2148C229.373 23.2148 228.625 23.3509 228.019 23.623C227.425 23.8828 226.973 24.2415 226.664 24.6992C226.367 25.1569 226.219 25.6579 226.219 26.2021C226.219 26.6351 226.33 27.0309 226.553 27.3896C226.788 27.736 227.122 28.0638 227.555 28.373C228 28.6699 228.544 28.9544 229.188 29.2266C229.831 29.4987 230.567 29.7585 231.396 30.0059C232.843 30.4635 234.123 30.9707 235.236 31.5273C236.362 32.084 237.308 32.7148 238.075 33.4199C238.842 34.125 239.417 34.9229 239.801 35.8135C240.197 36.7041 240.395 37.7122 240.395 38.8379C240.395 40.0378 240.16 41.1016 239.689 42.0293C239.232 42.957 238.564 43.7487 237.686 44.4043C236.82 45.0475 235.781 45.5361 234.568 45.8701C233.356 46.2041 232.002 46.3711 230.505 46.3711C229.144 46.3711 227.802 46.1979 226.479 45.8516C225.155 45.4928 223.955 44.9486 222.879 44.2188C221.815 43.4889 220.962 42.5612 220.318 41.4355C219.688 40.2975 219.372 38.9492 219.372 37.3906H225.421C225.421 38.207 225.538 38.8997 225.773 39.4688C226.008 40.0254 226.342 40.4769 226.775 40.8232C227.221 41.1696 227.759 41.417 228.39 41.5654C229.021 41.7139 229.726 41.7881 230.505 41.7881C231.408 41.7881 232.138 41.6644 232.694 41.417C233.263 41.1572 233.684 40.8047 233.956 40.3594C234.228 39.9141 234.364 39.4193 234.364 38.875Z" fill="#4A1452"/>
<path d="M27.752 31.8984V33.1045C27.752 35.1579 27.4674 37.001 26.8984 38.6338C26.3418 40.2666 25.5439 41.6582 24.5049 42.8086C23.4782 43.959 22.2536 44.8434 20.8311 45.4619C19.4209 46.068 17.8561 46.3711 16.1367 46.3711C14.4173 46.3711 12.8464 46.068 11.4238 45.4619C10.0013 44.8434 8.76432 43.959 7.71289 42.8086C6.67383 41.6582 5.86979 40.2666 5.30078 38.6338C4.73177 37.001 4.44727 35.1579 4.44727 33.1045V31.8984C4.44727 29.8451 4.73177 28.002 5.30078 26.3691C5.86979 24.724 6.66764 23.3262 7.69434 22.1758C8.7334 21.0254 9.96419 20.1471 11.3867 19.541C12.8092 18.9225 14.3802 18.6133 16.0996 18.6133C17.819 18.6133 19.39 18.9225 20.8125 19.541C22.235 20.1471 23.4596 21.0254 24.4863 22.1758C25.5254 23.3262 26.3294 24.724 26.8984 26.3691C27.4674 28.002 27.752 29.8451 27.752 31.8984ZM21.6475 33.1045V31.8613C21.6475 30.4883 21.5238 29.276 21.2764 28.2246C21.029 27.1608 20.6702 26.2702 20.2002 25.5527C19.7301 24.8353 19.1488 24.2972 18.4561 23.9385C17.7633 23.5674 16.9779 23.3818 16.0996 23.3818C15.1842 23.3818 14.3864 23.5674 13.7061 23.9385C13.0257 24.2972 12.4505 24.8353 11.9805 25.5527C11.5228 26.2702 11.1702 27.1608 10.9229 28.2246C10.6878 29.276 10.5703 30.4883 10.5703 31.8613V33.1045C10.5703 34.4652 10.6878 35.6774 10.9229 36.7412C11.1702 37.7926 11.529 38.6833 11.999 39.4131C12.4691 40.1429 13.0443 40.6934 13.7246 41.0645C14.4173 41.4355 15.2214 41.6211 16.1367 41.6211C17.015 41.6211 17.7943 41.4355 18.4746 41.0645C19.1673 40.6934 19.7487 40.1429 20.2188 39.4131C20.6888 38.6833 21.0413 37.7926 21.2764 36.7412C21.5238 35.6774 21.6475 34.4652 21.6475 33.1045ZM46.251 18.9844H52.2998V36.7227C52.2998 38.8255 51.8545 40.5944 50.9639 42.0293C50.0856 43.4642 48.861 44.5465 47.29 45.2764C45.7191 46.0062 43.9007 46.3711 41.835 46.3711C39.7568 46.3711 37.9261 46.0062 36.3428 45.2764C34.7718 44.5465 33.5348 43.4642 32.6318 42.0293C31.7412 40.5944 31.2959 38.8255 31.2959 36.7227V18.9844H37.3633V36.7227C37.3633 37.8854 37.5365 38.8379 37.8828 39.5801C38.2415 40.3099 38.7549 40.848 39.4229 41.1943C40.0908 41.5283 40.8949 41.6953 41.835 41.6953C42.7751 41.6953 43.5729 41.5283 44.2285 41.1943C44.8965 40.848 45.3975 40.3099 45.7314 39.5801C46.0778 38.8379 46.251 37.8854 46.251 36.7227V18.9844ZM56.623 18.9844H66.9951C69.0609 18.9844 70.8483 19.2936 72.3574 19.9121C73.8789 20.5306 75.0479 21.446 75.8643 22.6582C76.6807 23.8704 77.0889 25.3672 77.0889 27.1484C77.0889 28.6328 76.8477 29.8945 76.3652 30.9336C75.8828 31.9727 75.2025 32.8324 74.3242 33.5127C73.4583 34.193 72.444 34.7435 71.2812 35.1641L69.3145 36.2402H60.4824L60.4453 31.5459H67.0137C67.9167 31.5459 68.665 31.3851 69.2588 31.0635C69.8525 30.7419 70.2979 30.2904 70.5947 29.709C70.904 29.1152 71.0586 28.4225 71.0586 27.6309C71.0586 26.8145 70.904 26.1094 70.5947 25.5156C70.2855 24.9219 69.8278 24.4704 69.2217 24.1611C68.6279 23.8395 67.8857 23.6787 66.9951 23.6787H62.6719V46H56.623V18.9844ZM71.5781 46L65.5107 33.9951L71.8936 33.9766L78.0537 45.7217V46H71.5781ZM104.661 38.875C104.661 38.4173 104.593 38.0091 104.457 37.6504C104.321 37.2793 104.074 36.9391 103.715 36.6299C103.356 36.3206 102.849 36.0114 102.193 35.7021C101.538 35.3805 100.678 35.0527 99.6143 34.7188C98.402 34.3229 97.2454 33.8776 96.1445 33.3828C95.056 32.8757 94.085 32.2881 93.2314 31.6201C92.3779 30.9521 91.7038 30.1729 91.209 29.2822C90.7266 28.3916 90.4854 27.3525 90.4854 26.165C90.4854 25.0146 90.7389 23.9756 91.2461 23.0479C91.7533 22.1201 92.4645 21.3285 93.3799 20.6729C94.2952 20.0049 95.3714 19.4977 96.6084 19.1514C97.8454 18.7926 99.2061 18.6133 100.69 18.6133C102.67 18.6133 104.408 18.9658 105.904 19.6709C107.413 20.3636 108.589 21.3408 109.43 22.6025C110.271 23.8519 110.691 25.3053 110.691 26.9629H104.68C104.68 26.2331 104.525 25.5898 104.216 25.0332C103.919 24.4642 103.461 24.0189 102.843 23.6973C102.237 23.3757 101.476 23.2148 100.561 23.2148C99.6699 23.2148 98.9215 23.3509 98.3154 23.623C97.7217 23.8828 97.2702 24.2415 96.9609 24.6992C96.6641 25.1569 96.5156 25.6579 96.5156 26.2021C96.5156 26.6351 96.627 27.0309 96.8496 27.3896C97.0846 27.736 97.4186 28.0638 97.8516 28.373C98.2969 28.6699 98.8411 28.9544 99.4844 29.2266C100.128 29.4987 100.864 29.7585 101.692 30.0059C103.14 30.4635 104.42 30.9707 105.533 31.5273C106.659 32.084 107.605 32.7148 108.372 33.4199C109.139 34.125 109.714 34.9229 110.098 35.8135C110.493 36.7041 110.691 37.7122 110.691 38.8379C110.691 40.0378 110.456 41.1016 109.986 42.0293C109.529 42.957 108.861 43.7487 107.982 44.4043C107.117 45.0475 106.077 45.5361 104.865 45.8701C103.653 46.2041 102.299 46.3711 100.802 46.3711C99.4411 46.3711 98.099 46.1979 96.7754 45.8516C95.4518 45.4928 94.252 44.9486 93.1758 44.2188C92.112 43.4889 91.2585 42.5612 90.6152 41.4355C89.9844 40.2975 89.6689 38.9492 89.6689 37.3906H95.7178C95.7178 38.207 95.8353 38.8997 96.0703 39.4688C96.3053 40.0254 96.6393 40.4769 97.0723 40.8232C97.5176 41.1696 98.0557 41.417 98.6865 41.5654C99.3174 41.7139 100.022 41.7881 100.802 41.7881C101.705 41.7881 102.435 41.6644 102.991 41.417C103.56 41.1572 103.981 40.8047 104.253 40.3594C104.525 39.9141 104.661 39.4193 104.661 38.875ZM136.779 31.8984V33.1045C136.779 35.1579 136.495 37.001 135.926 38.6338C135.369 40.2666 134.571 41.6582 133.532 42.8086C132.506 43.959 131.281 44.8434 129.858 45.4619C128.448 46.068 126.883 46.3711 125.164 46.3711C123.445 46.3711 121.874 46.068 120.451 45.4619C119.029 44.8434 117.792 43.959 116.74 42.8086C115.701 41.6582 114.897 40.2666 114.328 38.6338C113.759 37.001 113.475 35.1579 113.475 33.1045V31.8984C113.475 29.8451 113.759 28.002 114.328 26.3691C114.897 24.724 115.695 23.3262 116.722 22.1758C117.761 21.0254 118.992 20.1471 120.414 19.541C121.837 18.9225 123.408 18.6133 125.127 18.6133C126.846 18.6133 128.417 18.9225 129.84 19.541C131.262 20.1471 132.487 21.0254 133.514 22.1758C134.553 23.3262 135.357 24.724 135.926 26.3691C136.495 28.002 136.779 29.8451 136.779 31.8984ZM130.675 33.1045V31.8613C130.675 30.4883 130.551 29.276 130.304 28.2246C130.056 27.1608 129.698 26.2702 129.228 25.5527C128.757 24.8353 128.176 24.2972 127.483 23.9385C126.791 23.5674 126.005 23.3818 125.127 23.3818C124.212 23.3818 123.414 23.5674 122.733 23.9385C122.053 24.2972 121.478 24.8353 121.008 25.5527C120.55 26.2702 120.198 27.1608 119.95 28.2246C119.715 29.276 119.598 30.4883 119.598 31.8613V33.1045C119.598 34.4652 119.715 35.6774 119.95 36.7412C120.198 37.7926 120.556 38.6833 121.026 39.4131C121.496 40.1429 122.072 40.6934 122.752 41.0645C123.445 41.4355 124.249 41.6211 125.164 41.6211C126.042 41.6211 126.822 41.4355 127.502 41.0645C128.195 40.6934 128.776 40.1429 129.246 39.4131C129.716 38.6833 130.069 37.7926 130.304 36.7412C130.551 35.6774 130.675 34.4652 130.675 33.1045ZM156.021 36.9453H162.032C161.933 38.8008 161.426 40.4398 160.511 41.8623C159.608 43.2725 158.352 44.3796 156.744 45.1836C155.136 45.9753 153.225 46.3711 151.011 46.3711C149.242 46.3711 147.659 46.068 146.261 45.4619C144.863 44.8558 143.675 43.9899 142.698 42.8643C141.733 41.7262 140.991 40.3594 140.472 38.7637C139.965 37.1556 139.711 35.3434 139.711 33.3271V31.6758C139.711 29.6595 139.977 27.8473 140.509 26.2393C141.041 24.6312 141.801 23.2581 142.791 22.1201C143.781 20.9821 144.968 20.11 146.354 19.5039C147.739 18.8978 149.285 18.5947 150.992 18.5947C153.293 18.5947 155.235 19.0091 156.818 19.8379C158.402 20.6667 159.626 21.8047 160.492 23.252C161.37 24.6992 161.896 26.3506 162.069 28.2061H156.039C155.99 27.1546 155.792 26.2702 155.445 25.5527C155.099 24.8229 154.567 24.2725 153.85 23.9014C153.132 23.5303 152.18 23.3447 150.992 23.3447C150.126 23.3447 149.366 23.5055 148.71 23.8271C148.067 24.1488 147.529 24.6497 147.096 25.3301C146.675 26.0104 146.36 26.8763 146.149 27.9277C145.939 28.9668 145.834 30.2038 145.834 31.6387V33.3271C145.834 34.7497 145.927 35.9805 146.112 37.0195C146.298 38.0586 146.595 38.9183 147.003 39.5986C147.424 40.279 147.962 40.7861 148.617 41.1201C149.273 41.4541 150.071 41.6211 151.011 41.6211C152.087 41.6211 152.984 41.4541 153.701 41.1201C154.419 40.7738 154.969 40.2542 155.353 39.5615C155.736 38.8688 155.959 37.9967 156.021 36.9453ZM171.829 18.9844V46H165.799V18.9844H171.829ZM188.269 24.124L181.292 46H174.835L184.836 18.9844H188.918L188.269 24.124ZM194.058 46L187.062 24.124L186.339 18.9844H190.477L200.515 46H194.058ZM193.761 35.9434V40.6191H179.678V35.9434H193.761ZM220.387 41.3242V46H206.749V41.3242H220.387ZM208.809 18.9844V46H202.76V18.9844H208.809ZM237.364 38.875C237.364 38.4173 237.296 38.0091 237.16 37.6504C237.024 37.2793 236.777 36.9391 236.418 36.6299C236.059 36.3206 235.552 36.0114 234.896 35.7021C234.241 35.3805 233.381 35.0527 232.317 34.7188C231.105 34.3229 229.949 33.8776 228.848 33.3828C227.759 32.8757 226.788 32.2881 225.935 31.6201C225.081 30.9521 224.407 30.1729 223.912 29.2822C223.43 28.3916 223.188 27.3525 223.188 26.165C223.188 25.0146 223.442 23.9756 223.949 23.0479C224.456 22.1201 225.168 21.3285 226.083 20.6729C226.998 20.0049 228.075 19.4977 229.312 19.1514C230.549 18.7926 231.909 18.6133 233.394 18.6133C235.373 18.6133 237.111 18.9658 238.607 19.6709C240.117 20.3636 241.292 21.3408 242.133 22.6025C242.974 23.8519 243.395 25.3053 243.395 26.9629H237.383C237.383 26.2331 237.228 25.5898 236.919 25.0332C236.622 24.4642 236.164 24.0189 235.546 23.6973C234.94 23.3757 234.179 23.2148 233.264 23.2148C232.373 23.2148 231.625 23.3509 231.019 23.623C230.425 23.8828 229.973 24.2415 229.664 24.6992C229.367 25.1569 229.219 25.6579 229.219 26.2021C229.219 26.6351 229.33 27.0309 229.553 27.3896C229.788 27.736 230.122 28.0638 230.555 28.373C231 28.6699 231.544 28.9544 232.188 29.2266C232.831 29.4987 233.567 29.7585 234.396 30.0059C235.843 30.4635 237.123 30.9707 238.236 31.5273C239.362 32.084 240.308 32.7148 241.075 33.4199C241.842 34.125 242.417 34.9229 242.801 35.8135C243.197 36.7041 243.395 37.7122 243.395 38.8379C243.395 40.0378 243.16 41.1016 242.689 42.0293C242.232 42.957 241.564 43.7487 240.686 44.4043C239.82 45.0475 238.781 45.5361 237.568 45.8701C236.356 46.2041 235.002 46.3711 233.505 46.3711C232.144 46.3711 230.802 46.1979 229.479 45.8516C228.155 45.4928 226.955 44.9486 225.879 44.2188C224.815 43.4889 223.962 42.5612 223.318 41.4355C222.688 40.2975 222.372 38.9492 222.372 37.3906H228.421C228.421 38.207 228.538 38.8997 228.773 39.4688C229.008 40.0254 229.342 40.4769 229.775 40.8232C230.221 41.1696 230.759 41.417 231.39 41.5654C232.021 41.7139 232.726 41.7881 233.505 41.7881C234.408 41.7881 235.138 41.6644 235.694 41.417C236.263 41.1572 236.684 40.8047 236.956 40.3594C237.228 39.9141 237.364 39.4193 237.364 38.875Z" fill="#D232EA"/>
<path d="M5.77772 22.5506C5.95653 22.5304 6.12885 22.4793 6.28447 22.4003C6.44009 22.3213 6.57583 22.216 6.68365 22.0906C6.79147 21.9652 6.86917 21.8224 6.91214 21.6705C6.95511 21.5186 6.96248 21.3607 6.9338 21.2063C6.84057 20.5354 6.79334 19.8603 6.79237 19.1845C6.77783 18.8001 6.82544 18.4159 6.9338 18.0429C7.48884 18.0153 8.04525 18.0153 8.60028 18.0429C12.8003 18.0429 17.0311 18.1763 21.225 18.0163C21.3091 18.0032 21.3864 17.9678 21.4463 17.9149C22.7992 17.9629 22.7869 22.4119 22.8607 23.132C22.9302 24.1853 23.3582 25.197 24.0906 26.0393C25.1913 27.2929 26.704 26.9142 27.731 25.8313C29.6742 23.7775 28.6841 18.7951 32.9518 18.8965C34.4769 18.9391 35.9589 19.5152 37.4286 19.8193C38.1215 19.9995 38.8525 20.0418 39.5669 19.943C40.2813 19.8442 40.9608 19.6068 41.5548 19.2485C42.4649 18.7151 43.2828 18.123 44.4265 18.0909C44.8195 18.0882 45.2032 18.1943 45.5217 18.3939C45.8403 18.5935 46.0771 18.8761 46.1976 19.2005C46.8125 20.4434 47.0216 22.3105 48.7188 22.86C50.3115 23.3934 51.9103 21.489 52.7405 20.6195C53.5143 19.7721 54.4956 19.0846 55.6134 18.6067C56.7312 18.1288 57.9575 17.8725 59.2035 17.8562C59.2661 17.8509 59.3257 17.8306 59.3757 17.7976C59.8139 17.8645 60.2598 17.886 60.7039 17.8616C61.3988 17.8616 62.0999 17.8616 62.7947 17.8616L66.6565 17.8296L70.5122 17.7976C71.9081 17.7976 73.3348 17.8562 74.7245 17.7495H74.7922C75.5932 18.5096 76.5024 19.1782 77.4979 19.7393C78.7264 20.3273 80.1105 20.627 81.5134 20.6088C84.0839 20.6995 86.1009 19.5846 88.2778 18.5817C89.2063 19.958 90.0242 21.5157 92.158 21.3396C92.5616 21.2994 92.9502 21.183 93.2965 20.9987C93.6428 20.8144 93.9385 20.5666 94.1627 20.2727C94.3925 19.9855 94.598 19.6842 94.7776 19.3712C95.0309 19.0111 95.3189 18.6703 95.6386 18.3523C96.3916 18.4288 97.151 18.4466 97.9077 18.4057H100.632C102.465 18.4725 104.3 18.4457 106.129 18.3257C107.974 18.3257 109.063 19.3179 110.01 20.5875C110.551 21.3183 111.326 22.9346 112.537 22.9186C113.484 22.9186 114.105 21.8517 114.486 21.2543C115.101 20.2994 115.47 19.1205 116.331 18.3043C118.302 18.0955 120.292 18.0598 122.271 18.1976C124.462 18.2759 126.656 18.2581 128.845 18.1443C131.361 18.0012 133.884 17.9834 136.403 18.0909C138.69 18.219 140.916 18.3577 143.167 17.8989H143.229C144.408 18.3984 145.381 19.2013 146.014 20.1981C146.449 21.0574 146.788 21.9504 147.029 22.8653C147.239 23.654 147.789 24.343 148.566 24.791C148.957 24.9523 149.394 25.0114 149.823 24.9613C150.252 24.9111 150.655 24.7537 150.983 24.5083C151.742 23.8997 152.367 23.1767 152.828 22.3745C153.076 21.9915 153.373 21.6337 153.713 21.3076C154.377 20.7155 155.423 20.5821 156.321 20.5075C157.747 20.3901 158.879 20.2514 160.053 19.4992C161.228 18.7471 162.31 17.9789 163.897 17.8616C163.958 17.852 164.016 17.828 164.063 17.7922C166.898 17.9629 169.763 17.8936 172.604 17.8936H176.909C178.29 17.9782 179.678 17.9479 181.053 17.8029V17.8029C182.628 18.0643 184.085 18.7951 185.512 19.4032C186.84 19.974 188.248 20.7102 189.767 20.3101C191.286 19.91 192.405 18.5177 194.072 18.8644C194.687 18.9978 195.123 19.4619 195.664 19.734C195.932 19.8419 196.224 19.8977 196.519 19.8977C196.814 19.8977 197.106 19.8419 197.374 19.734C197.989 19.5419 198.425 19.0938 198.997 18.8591C199.319 18.7032 199.684 18.625 200.052 18.6325C200.421 18.64 200.781 18.733 201.094 18.9018C201.943 19.4779 202.164 20.5341 203.025 21.1423C203.425 21.4564 203.946 21.6303 204.486 21.6303C205.025 21.6303 205.546 21.4564 205.946 21.1423C206.838 20.4488 207.176 19.3072 207.748 18.4057C211.776 18.6137 215.834 18.5124 219.868 18.5124H226.467C228.416 18.5124 230.378 18.5497 232.327 18.4003C235.912 20.1234 235.365 24.7377 239.091 26.3114C239.837 26.6248 240.661 26.7737 241.489 26.7448C242.317 26.716 243.124 26.5103 243.839 26.146C244.964 25.5005 245.376 24.2949 245.487 23.196C245.763 20.4061 244.374 17.0134 242.338 14.8636C239.263 11.5989 233.649 10.532 229.068 10.0146C226.492 9.74269 223.894 9.65349 221.301 9.74785C218.036 9.83853 214.936 10.548 211.72 10.9481C208.111 11.4015 204.993 10.452 201.611 9.52913C198.339 8.63828 195.111 8.72363 191.772 9.0757C190.12 9.32038 188.448 9.45414 186.772 9.47579C185.103 9.40357 183.461 9.07861 181.92 8.51558C178.993 7.47536 176.552 5.66164 173.883 4.24801C168.49 1.34073 162.427 -0.323625 156.05 0.343183C149.673 1.00999 144.415 4.0293 139.145 6.99526C136.323 8.5956 133.088 10.1959 129.608 9.97189C126.582 9.75851 123.926 8.03015 121.312 6.8619C115.599 4.31203 109.315 5.71499 103.559 7.39535C100.755 8.22219 97.8216 8.95301 95.1097 9.97189C92.0965 11.0975 89.4277 12.8525 86.2177 13.5727C82.8847 14.3195 79.4165 12.9859 76.3787 11.9723C73.3471 11.0281 70.3708 10.2813 67.1977 10.3506C64.4182 10.42 61.7985 11.3589 59.2465 12.223C57.6039 12.8579 55.824 13.1816 54.0257 13.1726C52.4224 13.0402 50.8419 12.7484 49.3153 12.3031C42.3173 10.628 34.9381 11.5882 27.8417 11.6949C24.8717 11.794 21.8994 11.5591 18.9989 10.9961C16.9019 10.564 14.7989 10.0039 12.6158 10.0519C9.54114 10.1159 7.28432 11.8603 5.61784 13.9354C5.58675 13.957 5.56155 13.9844 5.54405 14.0154C4.95566 15.1436 4.58185 16.347 4.43716 17.5788C4.29572 18.6777 3.94521 19.814 4.06819 20.9182C4.12969 21.7291 4.74463 22.5826 5.77772 22.5506Z" fill="url(#paint0_radial_155_20)"/>
<path d="M5.58554 14.4139C5.04512 15.3359 4.68529 16.3186 4.5186 17.3276C4.45547 17.7151 4.41127 18.1026 4.36077 18.4951C4.31026 18.8877 4.19031 19.2651 4.12718 19.6576C3.98197 20.4779 3.93146 21.4945 4.7585 22.1285C4.90346 22.2514 5.08259 22.3454 5.28145 22.4029C5.48032 22.4605 5.69337 22.48 5.90344 22.46C6.11351 22.4399 6.31473 22.3808 6.49089 22.2874C6.66705 22.194 6.81322 22.0689 6.91765 21.9222C7.10394 21.5299 7.13695 21.1018 7.01235 20.6943C6.94181 20.109 6.91862 19.5207 6.9429 18.933C6.94174 18.6924 6.97563 18.4526 7.04391 18.2184C7.04391 18.163 7.04391 18.2184 7.04391 18.2184V18.163C7.07548 18.0925 7.04391 18.1932 7.04391 18.163C7.04391 18.1328 6.98709 18.2083 7.04391 18.163L6.98078 18.2033H6.93027H6.88608H7.26488C8.47071 18.2033 9.67024 18.2033 10.8761 18.2033H20.5354C20.9331 18.2033 21.3372 18.2033 21.7349 18.2033C21.8234 18.1961 21.9079 18.1705 21.98 18.129C22.052 18.0874 22.1091 18.0315 22.1453 17.9667C22.2084 17.8661 22.2021 17.7252 22.0253 17.7202C20.4596 17.6598 18.8687 17.7202 17.3093 17.69H7.88989C7.62778 17.6649 7.36284 17.6649 7.10073 17.69C6.93315 17.7385 6.78293 17.8189 6.66304 17.9241C6.54315 18.0293 6.45719 18.1562 6.41258 18.2938C6.23071 18.8227 6.17081 19.3734 6.23581 19.9193C6.23581 20.4226 6.29895 20.8906 6.36839 21.3737C6.40952 21.5263 6.40952 21.6841 6.36839 21.8367L6.33051 21.9071C6.33051 21.8769 6.33051 21.9071 6.33051 21.9071C6.32129 21.9196 6.30826 21.93 6.29263 21.9373C6.36839 21.8819 6.29263 21.9373 6.29263 21.9373C6.29263 21.9373 6.29263 21.9373 6.23581 21.9373C6.17899 21.9373 6.18531 21.9373 6.16637 21.9373H6.11586C6.0383 21.9451 5.95983 21.9451 5.88227 21.9373C4.91002 21.7662 4.67643 20.8251 4.68906 20.1558C4.71065 19.7296 4.77611 19.3054 4.88477 18.8877C4.9668 18.5231 5.0237 18.1551 5.05523 17.7856C5.12064 16.9249 5.30484 16.0727 5.60449 15.2442C5.71021 14.9624 5.83454 14.6852 5.97697 14.4139C6.01485 14.3384 6.01485 14.2478 5.88858 14.2377C5.76232 14.2277 5.63605 14.3333 5.58554 14.4139V14.4139Z" fill="black"/>
<path d="M21.737 18.1387C21.8135 18.1265 21.8923 18.1294 21.9672 18.1474C22.0422 18.1654 22.1112 18.1978 22.1689 18.2422C22.3272 18.3764 22.4478 18.5392 22.5218 18.7185C22.7625 19.2642 22.914 19.8356 22.9719 20.4164C23.0693 21.0946 23.1301 21.7779 23.1909 22.4871C23.2211 23.0334 23.2881 23.5779 23.3917 24.1177C23.6154 24.9228 24.0807 25.6648 24.7422 26.2712C25.0918 26.594 25.5722 26.7919 26.0865 26.8251C26.3933 26.814 26.694 26.7494 26.9703 26.6354C27.2465 26.5215 27.4923 26.3605 27.6925 26.1625C28.1198 25.8079 28.4681 25.3905 28.7206 24.9304C28.9381 24.4856 29.1071 24.0246 29.2255 23.5535C29.3533 23.0824 29.4567 22.601 29.5966 22.1299C29.7434 21.6627 29.9473 21.2099 30.2049 20.7788C30.4163 20.3957 30.7022 20.0456 31.0505 19.7435C31.313 19.5131 31.6332 19.3362 31.9873 19.2258C32.772 19.0445 33.5994 19.0445 34.3841 19.2258C35.3148 19.3966 36.2091 19.6606 37.1459 19.8677C38.12 20.1645 39.1675 20.2429 40.1875 20.0955C41.111 19.8012 41.9735 19.3836 42.7425 18.8583C43.1044 18.6165 43.528 18.4503 43.9791 18.373C44.4302 18.2956 44.8963 18.3094 45.34 18.4131C45.6512 18.5502 45.9221 18.7452 46.1328 18.9836C46.3434 19.2219 46.4883 19.4976 46.5567 19.7901C46.6783 20.111 46.7818 20.4371 46.9156 20.7529C47.0563 21.0863 47.2313 21.4086 47.4387 21.7158C47.9193 22.4612 48.6554 23.1652 49.7625 22.953C50.7359 22.7666 51.5267 22.0574 52.1654 21.4466C52.5122 21.1153 52.8285 20.7633 53.1813 20.4423C53.5311 20.1247 53.9072 19.8289 54.3067 19.5571C55.2027 18.9398 56.2474 18.498 57.3666 18.2629C57.9642 18.1415 58.5773 18.0841 59.1916 18.0921C59.2717 18.0858 59.3484 18.0614 59.4137 18.0213C59.4789 17.9813 59.5304 17.9271 59.5627 17.8643C59.6174 17.766 59.6113 17.6314 59.4592 17.6262C58.2618 17.6428 57.081 17.8671 55.989 18.2855C54.897 18.7038 53.9168 19.3074 53.1083 20.0592C52.3844 20.6856 51.7883 21.4207 50.9974 21.9901C50.3891 22.4353 49.574 22.7821 48.8379 22.3059C48.4117 21.9903 48.0677 21.6024 47.8281 21.167C47.6417 20.8629 47.4909 20.5438 47.3779 20.2145C47.2171 19.5826 46.9223 18.9809 46.508 18.439C46.2144 18.1788 45.8419 17.9927 45.4319 17.9014C45.0218 17.81 44.59 17.8169 44.1842 17.9213C43.2181 18.1959 42.3191 18.6188 41.5319 19.1689C41.1644 19.3997 40.7528 19.5748 40.3153 19.6865C39.8081 19.7796 39.2834 19.7796 38.7762 19.6865C37.8241 19.5258 36.8837 19.3184 35.9597 19.0653C35.1116 18.8275 34.2297 18.6882 33.3378 18.6512C32.447 18.6386 31.5815 18.9038 30.9045 19.3966C30.0889 20.0615 29.4967 20.8997 29.189 21.8245C28.8362 22.7459 28.7328 23.7191 28.3678 24.6354C28.2162 25.0512 27.9609 25.4344 27.6195 25.7587C27.2424 26.1004 26.853 26.442 26.2508 26.3695C25.7389 26.2681 25.2899 26.0079 24.9916 25.6396C24.5945 25.2095 24.2916 24.722 24.0973 24.2005C24.011 24.0062 23.9479 23.8051 23.9087 23.6C23.8601 23.3412 23.8297 23.0824 23.8053 22.8184C23.7384 22.1609 23.6837 21.4983 23.6046 20.8409C23.5407 20.1876 23.4125 19.5399 23.2213 18.9048C23.0936 18.5166 22.8928 17.9679 22.4001 17.8126C22.1983 17.7666 21.9841 17.7793 21.7918 17.8488C21.6579 17.8954 21.4937 18.1905 21.7492 18.1387H21.737Z" fill="black"/>
<path d="M74.9024 17.9216C75.2696 18.2088 75.618 18.5006 76.0162 18.7642C76.379 19.0117 76.7591 19.2443 77.1549 19.4609C77.9533 19.9056 78.8674 20.2169 79.8367 20.3742C80.4139 20.4558 80.9984 20.5046 81.5852 20.5201C82.1165 20.5421 82.6492 20.5311 83.1781 20.4872C84.0579 20.4066 84.9138 20.2157 85.7106 19.9223C86.756 19.5457 87.7515 19.0985 88.7782 18.6983C88.8575 18.6705 88.9261 18.6278 88.9773 18.5742C89.0285 18.5207 89.0606 18.458 89.0707 18.3923C89.0707 18.2652 88.8902 18.2605 88.7658 18.3029C87.1231 18.9055 85.5862 19.7716 83.7444 20.007C82.6907 20.1294 81.6184 20.1294 80.5648 20.007C79.6068 19.8902 78.6927 19.6206 77.8829 19.2162C77.4475 18.9955 77.0317 18.7533 76.6385 18.4912C76.1967 18.204 75.7487 17.9263 75.2944 17.6486C75.1327 17.5497 74.7904 17.8039 74.9335 17.9216H74.9024Z" fill="black"/>
<path d="M88.5181 18.0712C88.8912 18.6073 89.2287 19.1863 89.6195 19.7278C89.9466 20.2424 90.4496 20.6469 91.0526 20.8804C91.7926 21.1013 92.599 21.0493 93.297 20.7356C93.8602 20.4354 94.3133 19.9916 94.5998 19.4597C94.7656 19.1863 94.9195 18.9236 95.109 18.6448C95.2016 18.5149 95.3045 18.3913 95.417 18.2749C95.5767 18.1319 95.7214 17.9758 95.8492 17.8085C95.9085 17.7174 95.8492 17.5995 95.719 17.6316C95.3749 17.7724 95.0858 18.0042 94.8899 18.2964C94.7004 18.5306 94.5282 18.7759 94.3747 19.0308C94.2444 19.2506 94.1142 19.4865 93.972 19.6849C93.8484 19.8893 93.6837 20.0711 93.4865 20.221C93.2083 20.3819 92.896 20.4884 92.5696 20.5336C92.2433 20.5788 91.9101 20.5618 91.5915 20.4836C91.0013 20.3076 90.4955 19.9538 90.1584 19.4812C89.7778 18.899 89.3524 18.3419 88.8852 17.8139C88.7609 17.6906 88.4293 17.964 88.5181 18.098V18.0712Z" fill="black"/>
<path d="M95.3599 18.0303C95.6673 18.1047 95.9886 18.1276 96.3061 18.0976H104.593C104.996 18.0923 105.399 18.0664 105.798 18.02C105.937 18.02 106.226 17.7356 105.979 17.7098C105.655 17.6705 105.329 17.6463 105.003 17.6374H96.734C96.3408 17.6108 95.9452 17.6317 95.5588 17.6994C95.4563 17.7304 95.1731 17.9528 95.378 18.0252L95.3599 18.0303Z" fill="black"/>
<path d="M105.558 18.0658C106.235 18.0385 106.909 18.156 107.519 18.4076C108.059 18.6606 108.533 19.0058 108.91 19.4216C109.767 20.316 110.382 21.3641 111.212 22.2699C111.458 22.5914 111.83 22.8277 112.262 22.9364C112.46 22.9644 112.662 22.9544 112.854 22.907C113.046 22.8597 113.224 22.7763 113.373 22.6629C114.12 22.0534 114.698 21.3101 115.066 20.4868C115.34 20.0026 115.601 19.5184 115.895 19.0399C116.013 18.8436 116.145 18.6533 116.29 18.4703C116.357 18.3791 116.424 18.2994 116.497 18.2139L116.564 18.1456L116.691 18.0373C116.785 17.9576 116.919 17.781 116.798 17.6728C116.678 17.5645 116.457 17.6728 116.37 17.7639C115.706 18.4299 115.175 19.1843 114.798 19.9969C114.564 20.4128 114.336 20.8343 114.075 21.2388C113.97 21.4112 113.854 21.5786 113.727 21.7401L113.54 21.9793L113.446 22.0762C113.446 22.0762 113.373 22.1502 113.446 22.1104C113.52 22.0705 113.446 22.1104 113.406 22.1445L113.313 22.23C113.313 22.23 113.172 22.3325 113.266 22.2699L113.179 22.3268L113.119 22.361L113.025 22.4009C112.951 22.4009 113.079 22.4009 113.025 22.4009H112.971H112.918H112.784C112.724 22.4014 112.664 22.3897 112.61 22.3667C112.53 22.3425 112.454 22.31 112.383 22.2699C112.186 22.1555 112.012 22.0151 111.867 21.854C111.018 20.9711 110.416 19.94 109.579 19.0513C109.169 18.5817 108.644 18.193 108.04 17.912C107.324 17.6341 106.523 17.5563 105.752 17.6898C105.612 17.6898 105.371 18.0316 105.612 18.0259L105.558 18.0658Z" fill="black"/>
<path d="M116.424 18.1062C117.126 18.0511 117.836 18.0155 118.549 17.9995C119.367 17.9839 120.191 17.9995 121.027 17.9995C122.632 18.0281 124.236 18.0932 125.84 18.0698C129.737 18.0177 133.64 17.8591 137.536 18.0021C139.582 18.1052 141.654 18.0656 143.669 17.8851C143.759 17.8747 143.842 17.8546 143.908 17.8268C143.974 17.799 144.022 17.7644 144.047 17.7264C144.084 17.6588 143.985 17.612 143.818 17.6302C142.016 17.7928 140.166 17.8418 138.329 17.7758C136.347 17.7264 134.371 17.7056 132.388 17.729C130.406 17.7524 128.498 17.8018 126.553 17.8357C124.942 17.8643 123.338 17.8149 121.727 17.781C120.798 17.7628 119.869 17.7498 118.94 17.781C118.095 17.7805 117.257 17.8412 116.462 17.9605C116.325 17.9839 116.152 18.127 116.418 18.1088L116.424 18.1062Z" fill="black"/>
<path d="M143.565 18.0069C144.499 18.3749 145.317 18.9226 145.955 19.6061C146.477 20.2253 146.852 20.9236 147.062 21.6629C147.427 22.789 147.792 24.5014 149.385 24.8305C151.209 25.2058 152.243 23.6786 153.034 22.5782C153.247 22.2851 153.453 21.992 153.697 21.7195C153.894 21.4821 154.147 21.281 154.438 21.1281C155.436 20.6139 156.676 20.6448 157.807 20.5265C158.387 20.4782 158.951 20.3423 159.474 20.1254C159.932 19.8955 160.367 19.6341 160.775 19.3438C161.477 18.8114 162.307 18.4133 163.208 18.1766C163.497 18.1198 163.792 18.0836 164.089 18.0686C164.165 18.0604 164.237 18.0357 164.297 17.9969C164.358 17.9581 164.406 17.9066 164.436 17.8475C164.479 17.7703 164.485 17.6212 164.333 17.6264C163.274 17.6878 162.257 17.9977 161.395 18.5211C161.006 18.7473 160.641 19.0044 160.264 19.2461C159.852 19.5447 159.377 19.7765 158.866 19.93C157.765 20.2128 156.591 20.0997 155.484 20.3517C154.56 20.5526 153.751 21.0269 153.204 21.6886C152.717 22.2645 152.34 22.897 151.854 23.4678C151.697 23.7198 151.473 23.9376 151.2 24.1044C150.926 24.2712 150.611 24.3824 150.279 24.4294C148.515 24.4962 148.023 22.789 147.664 21.6578C147.466 20.9583 147.151 20.2864 146.728 19.6626C146.207 18.9486 145.473 18.3633 144.599 17.9657C144.356 17.8526 144.107 17.7549 143.857 17.6623C143.608 17.5698 143.359 17.9143 143.565 18.0017V18.0069Z" fill="black"/>
<path d="M181.544 17.9603C182.738 18.1864 183.886 18.5432 184.957 19.0206C186.07 19.4962 187.222 19.9119 188.405 20.2648C189.512 20.5553 190.589 20.1486 191.508 19.6839C192.426 19.2191 193.454 18.6526 194.549 18.9528C194.98 19.1094 195.378 19.3184 195.729 19.5725C195.945 19.6999 196.191 19.7909 196.452 19.84C196.714 19.8891 196.985 19.8953 197.25 19.8582C197.776 19.7487 198.264 19.5432 198.673 19.2578C199.109 19.0061 199.613 18.8402 200.145 18.7737C200.52 18.7106 200.912 18.7588 201.246 18.9092C201.537 19.0731 201.777 19.2886 201.945 19.5386C202.295 20.1474 202.812 20.6854 203.46 21.1121C203.888 21.3488 204.393 21.4832 204.914 21.4994C205.39 21.4828 205.841 21.3258 206.179 21.0589C206.915 20.5069 207.262 19.6839 207.706 18.9818C207.809 18.8124 207.913 18.6381 208.034 18.4977C208.095 18.4202 208.168 18.2895 208.034 18.2363C207.9 18.183 207.724 18.304 207.657 18.3815C207.104 19.0593 206.793 19.8339 206.234 20.5166C206.132 20.6464 206.007 20.7638 205.863 20.8652C205.808 20.9 205.751 20.9324 205.692 20.962C205.625 20.9929 205.554 21.0173 205.479 21.0346C205.017 21.0987 204.541 21.0264 204.141 20.8313C203.448 20.4684 202.901 19.954 202.566 19.3498C202.422 19.0735 202.187 18.8331 201.886 18.6535C201.586 18.4738 201.23 18.3615 200.857 18.3282C200.307 18.3214 199.763 18.4176 199.269 18.609C198.782 18.7882 198.405 19.0932 197.949 19.2917C197.731 19.3945 197.485 19.4539 197.232 19.4649C196.979 19.4758 196.726 19.438 196.495 19.3546C196.119 19.1611 195.761 18.9459 195.425 18.7107C194.909 18.4659 194.298 18.3815 193.71 18.4735C193.168 18.5609 192.651 18.7249 192.183 18.9576C191.313 19.3692 190.48 19.9259 189.415 19.9259C188.858 19.8925 188.316 19.769 187.822 19.5628C187.213 19.3643 186.666 19.1416 186.088 18.9237C184.945 18.4501 183.752 18.0565 182.524 17.7473C182.28 17.6926 182.032 17.6521 181.781 17.6262C181.611 17.6262 181.337 17.9264 181.538 17.9506L181.544 17.9603Z" fill="black"/>
<path d="M207.63 18.0314C208.344 18.0659 209.045 18.1054 209.759 18.1104H212.028H216.999C220.378 18.1104 223.757 18.1104 227.13 18.1104C228.832 18.1104 230.54 18.1104 232.236 18.0067C232.364 18.0067 232.62 17.7499 232.394 17.7301C230.937 17.6166 229.473 17.6264 228.009 17.6264H223.032C219.652 17.6264 216.271 17.6264 212.888 17.6264H210.29C209.454 17.6264 208.631 17.6659 207.795 17.7054C207.655 17.7054 207.411 17.9672 207.63 17.982V18.0314Z" fill="black"/>
<path d="M232.282 18.469C235.352 19.9418 235.316 23.373 237.551 25.4381C239.222 26.991 242.765 27.4659 244.46 25.6783C246.155 23.8906 245.473 21.1905 244.786 19.2748C243.889 16.7187 242.403 14.5576 239.787 13.0794C236.298 11.105 231.981 10.3473 227.891 9.98976C225.784 9.79234 223.665 9.71747 221.547 9.76564C219.068 9.86825 216.603 10.1503 214.177 10.6088C211.162 11.1157 208.343 11.3238 205.352 10.6088C202.939 10.0164 200.63 9.13596 198.118 8.90117C195.293 8.63436 192.456 9.04525 189.655 9.33874C187.047 9.68041 184.381 9.40767 181.935 8.54898C179.424 7.63114 177.256 6.18503 175.008 4.87765C172.895 3.61973 170.63 2.56751 168.253 1.73995C163.643 0.137196 158.585 -0.227137 153.735 0.694045C148.687 1.68125 144.443 4.00251 140.187 6.44116C137.823 7.8019 135.323 9.20533 132.535 9.79232C129.937 10.3259 127.493 9.69626 125.165 8.66104C123.022 7.70051 120.983 6.48385 118.643 5.9022C116.384 5.39253 114.028 5.29082 111.722 5.60338C106.594 6.20103 101.804 8.07405 96.9154 9.44013C91.8734 10.8489 87.7464 14.5896 82.0903 13.597C76.9808 12.6952 72.5345 10.1178 67.1485 10.3686C62.0513 10.6034 57.7155 13.8799 52.5261 12.9941C50.0696 12.5778 47.7727 11.8254 45.2855 11.5906C42.2007 11.3452 39.0996 11.2917 36.006 11.4305C30.7306 11.6066 25.2342 12.1883 20.0387 11.1797C16.796 10.5501 13.2402 9.34407 9.99763 10.6194C8.27312 11.3867 6.82112 12.5469 5.79699 13.9759C5.61275 14.2107 5.94438 14.2481 6.09177 14.072C7.47356 12.4124 9.22997 10.9183 11.6189 10.5714C13.3815 10.3206 15.1809 10.6568 16.8943 11.0143C18.6433 11.4337 20.4191 11.7633 22.2127 12.0015C24.7894 12.2069 27.3806 12.239 29.963 12.0976C35.7788 11.9215 41.9017 11.2705 47.6376 12.4284C49.7195 12.85 51.7523 13.5384 53.9018 13.6451C56.389 13.7678 58.5569 12.9033 60.823 12.1509C63.0378 11.3313 65.4114 10.884 67.8179 10.8329C70.5423 10.9317 73.2257 11.4446 75.7464 12.3484C77.9634 13.0688 80.1865 13.8852 82.5386 14.184C84.7247 14.4151 86.9407 14.0849 88.9133 13.2342C91.1794 12.343 93.2613 11.0997 95.5643 10.2993C97.8673 9.49882 100.281 8.87448 102.615 8.16477C107.319 6.73466 112.557 5.22984 117.581 6.21171C121.996 7.07618 125.448 10.4327 130.115 10.4807C134.783 10.5287 138.94 7.57778 142.601 5.49665C147.127 2.90324 152.193 0.918167 157.684 0.694045C162.781 0.485932 167.712 1.81465 172.109 3.99717C176.224 6.03561 179.804 9.06659 184.625 9.81366C187.223 10.2192 189.76 9.7603 192.345 9.5095C195.129 9.15336 197.966 9.28398 200.691 9.89371C202.945 10.4273 205.119 11.2705 207.446 11.5266C210.001 11.8041 212.538 11.3345 215.037 10.9023C219.455 10.1612 223.979 10.0315 228.444 10.518C232.607 10.9503 237.189 11.8361 240.511 14.2C242.722 15.7742 243.95 18.1488 244.595 20.5288C245.24 22.9088 245.326 26.3987 241.598 26.3987C237.582 26.3987 236.685 23.2556 235.199 20.7049C234.641 19.6385 233.725 18.7437 232.57 18.1382C232.411 18.0635 232.11 18.373 232.3 18.469H232.282Z" fill="black"/>
<path d="M5.78176 14.3018C5.71506 14.5496 5.73401 14.8079 5.83645 15.0473C5.9389 15.2868 6.12075 15.4978 6.36142 15.6566C6.94269 15.9671 7.61639 16.1404 8.30909 16.1575C10.0348 16.2212 11.7633 16.0993 13.4507 15.7949C14.0709 15.7043 14.6912 15.5946 15.3172 15.523C15.352 15.523 15.4157 15.4419 15.352 15.4372C14.8503 15.4453 14.351 15.4965 13.8622 15.5898C13.0623 15.7043 12.2624 15.814 11.4566 15.8951C10.5909 15.9961 9.71647 16.0376 8.84237 16.0192C8.12036 16.0313 7.40455 15.9073 6.7498 15.6566C6.4539 15.5229 6.21512 15.3175 6.06581 15.0683C5.91651 14.8192 5.86389 14.5382 5.91508 14.2636C5.91508 14.2016 5.79335 14.2636 5.78756 14.3018H5.78176Z" fill="black"/>
<path d="M21.6785 16.3434C22.4287 16.4175 23.1424 16.6806 23.7411 17.1039C24.263 17.5106 24.6495 18.045 24.856 18.6455C24.9721 18.9801 25.0524 19.3243 25.0957 19.6733C25.1348 19.9662 25.1292 20.2591 25.1403 20.5571C25.1304 21.1121 25.2443 21.6631 25.4748 22.1758C25.6325 22.4474 25.8788 22.6665 26.1789 22.802C26.479 22.9376 26.8177 22.9828 27.1472 22.9312C27.2253 22.9312 27.3535 22.7514 27.2364 22.7514C26.9326 22.7934 26.6221 22.7485 26.3469 22.6226C26.0717 22.4966 25.8451 22.2959 25.6978 22.0474C25.4482 21.5213 25.3264 20.9513 25.341 20.3773C25.3357 19.7469 25.2325 19.1205 25.0344 18.5171C24.8387 17.922 24.4683 17.3885 23.9641 16.9755C23.3231 16.511 22.5471 16.232 21.7342 16.1738C21.6617 16.1738 21.5558 16.3074 21.6562 16.3229L21.6785 16.3434Z" fill="black"/>
<path d="M36.3954 17.5552C37.0865 17.6417 37.7593 17.8047 38.4382 17.9371C39.0055 18.0721 39.5951 18.1288 40.184 18.1052C40.8095 18.0544 41.4119 17.8798 41.9418 17.5959C42.5525 17.2613 43.1906 16.9635 43.8513 16.7046C44.238 16.5558 44.6452 16.448 45.0636 16.3837C45.5093 16.3284 45.9634 16.3422 46.4032 16.4245C46.4759 16.4245 46.6214 16.3073 46.5244 16.2768C45.8367 16.1144 45.1046 16.1448 44.4392 16.3634C43.7483 16.5696 43.0858 16.8377 42.4631 17.163C41.8905 17.5024 41.2499 17.7525 40.5719 17.9015C39.95 17.9707 39.318 17.9378 38.711 17.8047C37.9715 17.6672 37.2319 17.5042 36.4803 17.4176C36.4015 17.4176 36.2924 17.5501 36.3954 17.5653V17.5552Z" fill="black"/>
<path d="M51.0916 17.9045C51.2432 17.9888 51.4316 18.0503 51.6386 18.0832C51.8457 18.116 52.0646 18.1192 52.2746 18.0923C52.6877 18.0068 53.0721 17.8841 53.412 17.7291C53.8707 17.5563 54.3808 17.4292 54.9192 17.3534C55.479 17.2831 56.0513 17.2473 56.6255 17.2469C56.7051 17.2469 56.8302 17.1467 56.7108 17.1467C55.6704 17.1151 54.6351 17.2464 53.7249 17.5256C53.3381 17.6508 52.9912 17.8168 52.5874 17.9264C52.3751 17.9873 52.1332 18.0099 51.8963 17.9908C51.6594 17.9717 51.4395 17.9119 51.2679 17.8199C51.1939 17.7886 51.0404 17.8731 51.1086 17.9045H51.0916Z" fill="black"/>
<path d="M72.6614 15.3507C73.4142 15.3145 74.1703 15.3391 74.9155 15.424C75.282 15.4789 75.6289 15.5875 75.9346 15.7431C76.2236 15.8999 76.4817 16.0842 76.7019 16.2908C77.13 16.7265 77.6428 17.1157 78.2246 17.4466C78.8137 17.7243 79.4776 17.9095 80.173 17.99C80.5695 18.0404 80.9699 18.0735 81.372 18.0892C81.8187 18.1172 82.2681 18.1172 82.7148 18.0892C82.7748 18.0892 82.9007 17.9814 82.7928 17.9728C82.416 17.949 82.0378 17.9404 81.6597 17.9469C81.2761 17.9469 80.8924 17.9081 80.5147 17.8693C79.7752 17.8002 79.0654 17.6162 78.4345 17.3302C77.8436 17.0051 77.3277 16.6151 76.9058 16.1744C76.4848 15.7624 75.8895 15.4598 75.2092 15.3118C74.3985 15.2069 73.5721 15.1793 72.7513 15.2299C72.6794 15.2299 72.5715 15.3463 72.6734 15.3507H72.6614Z" fill="black"/>
<path d="M91.374 17.6754C91.4757 17.7813 91.6139 17.874 91.7801 17.948C91.9463 18.0219 92.1369 18.0754 92.3403 18.1053C92.6713 18.127 93.0047 18.0789 93.2791 17.97C93.612 17.85 93.9302 17.717 94.2316 17.572C94.3973 17.5003 94.556 17.4326 94.7355 17.369C94.9149 17.3053 95.0806 17.2695 95.2532 17.2177C95.2532 17.2177 95.3705 17.1421 95.2532 17.1421C94.9187 17.1708 94.6077 17.2584 94.3627 17.3928C94.0452 17.5202 93.7553 17.6675 93.4378 17.7909C93.1679 17.9174 92.833 17.9887 92.4853 17.9939C92.2821 17.9717 92.0896 17.9247 91.9205 17.856C91.7515 17.7874 91.6098 17.6987 91.5051 17.5958C91.4568 17.556 91.2981 17.6436 91.3464 17.6874L91.374 17.6754Z" fill="black"/>
<path d="M108.353 16.2951C108.91 16.4447 109.426 16.6726 109.873 16.967C110.282 17.2445 110.646 17.5577 110.958 17.9001C111.271 18.2453 111.431 18.7025 111.915 18.9358C112.081 19.0287 112.282 19.0787 112.488 19.0787C112.695 19.0787 112.895 19.0287 113.062 18.9358C113.246 18.8244 113.409 18.6941 113.546 18.5486C113.719 18.3922 113.875 18.2252 114.012 18.0494C114.012 18.0074 113.981 17.998 113.945 18.0167C113.601 18.2033 113.423 18.5346 113.123 18.7538C113.038 18.8127 112.939 18.858 112.83 18.8869C112.722 18.9159 112.607 18.9279 112.493 18.9222C112.378 18.9165 112.266 18.8933 112.164 18.854C112.062 18.8146 111.971 18.7599 111.897 18.6932C111.589 18.3733 111.307 18.0399 111.05 17.6948C110.739 17.3876 110.39 17.1033 110.008 16.8457C109.564 16.5532 109.052 16.3255 108.5 16.1738C108.42 16.1738 108.285 16.2811 108.371 16.3091L108.353 16.2951Z" fill="black"/>
<path d="M140.1 15.9127C141.712 16.1639 143.362 15.8354 144.987 15.8258C145.389 15.8178 145.791 15.8388 146.188 15.8886C146.516 15.9194 146.836 15.9912 147.135 16.1011C147.438 16.2526 147.678 16.469 147.826 16.7241C148.243 17.3326 148.448 18.0184 148.797 18.6559C149.046 19.1003 149.457 19.6557 150.191 19.5494C150.414 19.5129 150.625 19.4441 150.814 19.3466C151.149 19.1683 151.498 19.007 151.86 18.8636C152.587 18.6378 153.37 18.542 154.151 18.5835C154.219 18.5835 154.313 18.4724 154.219 18.4724C153.545 18.443 152.87 18.5018 152.221 18.6463C151.941 18.7271 151.672 18.829 151.418 18.9506C151.138 19.0761 150.876 19.2403 150.584 19.3514C150.444 19.419 150.282 19.4549 150.117 19.4549C149.952 19.4549 149.79 19.419 149.65 19.3514C149.373 19.1718 149.159 18.9409 149.027 18.6801C148.666 18.0474 148.479 17.3664 148.1 16.7482C147.964 16.4835 147.751 16.247 147.477 16.0576C147.288 15.9578 147.077 15.8858 146.854 15.8451C146.507 15.7696 146.15 15.7227 145.79 15.705C143.922 15.6036 142.054 16.0383 140.218 15.8258C140.149 15.8258 140.031 15.9514 140.118 15.961L140.1 15.9127Z" fill="black"/>
<path d="M179.824 15.8804C180.764 15.8704 181.701 15.9628 182.612 16.1553C183.054 16.2564 183.486 16.3853 183.903 16.5411C184.33 16.7002 184.739 16.8883 185.166 17.0233C185.952 17.3538 186.806 17.5583 187.685 17.6261C188.406 17.5986 189.111 17.4336 189.742 17.1438C190.128 16.9943 190.502 16.8304 190.911 16.6954C191.331 16.5546 191.768 16.4511 192.214 16.3867C192.214 16.3867 192.267 16.3482 192.214 16.3482C191.477 16.3897 190.762 16.5694 190.122 16.8738C189.463 17.1851 188.736 17.3851 187.983 17.4621C187.105 17.4285 186.247 17.2359 185.47 16.8979C184.65 16.5524 183.805 16.2497 182.939 15.9913C181.947 15.7713 180.921 15.6706 179.894 15.6923C179.818 15.6923 179.701 15.837 179.812 15.837L179.824 15.8804Z" fill="black"/>
<path d="M199.079 16.7696C199.739 16.7143 200.414 16.7431 201.051 16.8537C201.708 17.0284 202.099 17.4038 202.78 17.5688C203.001 17.6233 203.247 17.6396 203.485 17.6153C203.723 17.591 203.942 17.5273 204.112 17.4329C204.154 17.4102 204.16 17.3617 204.077 17.3811C203.81 17.4837 203.483 17.5297 203.159 17.5105C202.875 17.4677 202.613 17.3915 202.389 17.2873C202.079 17.123 201.751 16.9695 201.406 16.8278C200.748 16.5949 199.902 16.6628 199.161 16.6822C199.084 16.6822 198.984 16.7728 199.079 16.7696V16.7696Z" fill="black"/>
<path d="M230.829 15.8333C232.094 15.7907 233.36 15.9094 234.583 16.1853C235.19 16.3671 235.742 16.6582 236.2 17.0383C236.697 17.4514 237.221 17.8405 237.771 18.2036C238.331 18.5556 238.861 18.94 239.358 19.3541C239.826 19.7917 240.266 20.2502 240.675 20.7277C241.38 21.5434 242.288 22.2203 243.337 22.7112C243.689 22.8961 244.104 22.9781 244.517 22.9443C244.972 22.855 244.995 22.4484 244.924 22.1409C244.924 22.0616 244.718 22.1756 244.735 22.25C244.753 22.3244 244.83 22.6319 244.688 22.7459C244.632 22.7778 244.568 22.7992 244.5 22.8086C244.433 22.818 244.364 22.8152 244.299 22.8005C243.927 22.7481 243.57 22.6371 243.248 22.4732C242.2 21.9247 241.298 21.2005 240.598 20.3458C240.207 19.8793 239.777 19.4369 239.311 19.0218C238.839 18.64 238.325 18.3028 237.812 17.9606C237.298 17.6185 236.82 17.2416 236.336 16.8548C235.915 16.512 235.418 16.2424 234.872 16.0614C233.627 15.6498 232.228 15.7192 230.918 15.6895C230.835 15.6895 230.717 15.8382 230.829 15.8382V15.8333Z" fill="black"/>
<path d="M113.059 18.0534C113.337 17.7082 113.668 17.3938 114.042 17.1178L114.598 16.7071C114.787 16.5736 114.962 16.4267 115.12 16.2678C115.182 16.1993 115.12 16.1423 115.024 16.1936C114.825 16.3191 114.646 16.4674 114.454 16.6101C114.261 16.7527 114.069 16.8953 113.884 17.0436C113.505 17.3351 113.174 17.667 112.901 18.0306C112.894 18.0354 112.888 18.0415 112.884 18.0484C112.88 18.0553 112.878 18.0628 112.878 18.0705C112.878 18.0782 112.88 18.0857 112.884 18.0926C112.888 18.0995 112.894 18.1056 112.901 18.1104C112.942 18.1104 113.004 18.1104 113.025 18.0534H113.059Z" fill="black"/>
<path d="M90.7919 16.3062C90.9936 16.3891 91.1883 16.493 91.3739 16.6167C91.4648 16.6816 91.548 16.7598 91.6216 16.8496C91.6589 16.8951 91.6931 16.9439 91.7238 16.9957C91.7487 17.0563 91.7883 17.1071 91.8379 17.1418C91.8528 17.1434 91.8677 17.1388 91.88 17.1288C91.8923 17.1187 91.901 17.1039 91.9047 17.087C91.904 17.0172 91.8902 16.9484 91.8644 16.8854C91.8386 16.8223 91.8014 16.7665 91.7553 16.7217C91.6798 16.6263 91.5923 16.5447 91.4958 16.4797C91.2985 16.3527 91.0903 16.2501 90.8745 16.1738C90.8234 16.1738 90.729 16.2788 90.7919 16.3062V16.3062Z" fill="black"/>
<path d="M76.6118 15.8773C76.7816 16.0943 76.9635 16.2931 77.1373 16.4799L77.3839 16.7933L77.5051 16.962C77.5456 17.0222 77.5819 17.1066 77.6385 17.1367C77.6951 17.1669 77.7436 17.0584 77.7315 16.9981C77.7115 16.917 77.6764 16.846 77.6304 16.7933C77.593 16.7305 77.5525 16.6721 77.5092 16.6185C77.4283 16.51 77.3435 16.4076 77.2545 16.3052C77.0767 16.1003 76.8948 15.9075 76.721 15.7026C76.6725 15.6423 76.5633 15.805 76.6118 15.8713V15.8773Z" fill="black"/>
<path d="M52.8983 17.1319C53.3301 16.9772 53.7686 16.8285 54.227 16.6916L54.8914 16.5013C55.1183 16.4465 55.3403 16.3769 55.5558 16.293C55.589 16.293 55.6754 16.1681 55.589 16.174C55.3616 16.1922 55.138 16.2382 54.9246 16.3109L54.2137 16.5251C53.7686 16.6678 53.3235 16.8166 52.885 16.9772C52.7853 17.0129 52.7388 17.1855 52.885 17.1319H52.8983Z" fill="black"/>
<path d="M41.5598 17.1239C42.0804 16.8848 42.601 16.6332 43.1352 16.413C43.4056 16.2997 43.6829 16.1928 43.9601 16.0984C44.2373 16.004 44.5145 15.9474 44.7714 15.8404C44.812 15.8404 44.9134 15.6895 44.812 15.6895C44.5394 15.7098 44.2722 15.7715 44.0209 15.8719C43.7369 15.9663 43.4597 16.0732 43.1893 16.1865C42.6348 16.4192 42.1007 16.6772 41.5598 16.9351C41.4516 16.9855 41.3907 17.2057 41.5598 17.1239V17.1239Z" fill="black"/>
<path d="M23.922 16.2852C24.5591 16.2434 25.1533 16.623 25.528 16.9304C25.7813 17.1233 26.0056 17.3345 26.1972 17.5604C26.2752 17.652 26.3449 17.7471 26.4059 17.845C26.4389 17.9349 26.4913 18.0207 26.5612 18.0993C26.6094 18.1372 26.7057 18.0689 26.7164 18.0348C26.7193 17.8655 26.6483 17.6998 26.513 17.5604C26.3792 17.3826 26.2234 17.2137 26.0473 17.0556C25.7074 16.7279 25.2636 16.4614 24.7518 16.2776C24.511 16.1941 24.2422 16.16 23.9756 16.1789C23.9167 16.1789 23.831 16.2928 23.922 16.2852V16.2852Z" fill="black"/>
<path d="M191.21 16.1667C191.556 16.0755 191.914 16.0008 192.283 15.9436L192.805 15.8661C192.983 15.8472 193.155 15.8149 193.317 15.77C193.356 15.77 193.417 15.6957 193.317 15.6895C193.229 15.6923 193.143 15.7028 193.061 15.7204L192.783 15.7638C192.605 15.7917 192.433 15.8165 192.261 15.8475C191.893 15.9074 191.536 15.9852 191.193 16.0799C191.154 16.0799 191.099 16.1202 191.104 16.1481C191.11 16.176 191.154 16.1791 191.193 16.1667H191.21Z" fill="black"/>
<defs>
<radialGradient id="paint0_radial_155_20" cx="0" cy="0" r="1" gradientUnits="userSpaceOnUse" gradientTransform="translate(124.782 13.5109) rotate(90) scale(13.3141 120.74)">
<stop stop-color="white"/>
<stop offset="1" stop-color="#F3FEFF"/>
</radialGradient>
</defs>
</svg>
