<svg width="166" height="79" viewBox="0 0 166 79" fill="none" xmlns="http://www.w3.org/2000/svg">
<path d="M2 28.2239L12.3926 25L16.7685 25.806L22.7852 27.8209L52.5 28.6269L80.5 32L99.5855 36L114.062 34.6716L132.728 30.2388L151.059 28.6269L158.5 30.2388L165 34.6716V79H2V28.2239Z" fill="#1D8CB3"/>
<path d="M119.048 33.5152C129.43 33.2234 139.068 28.7577 149.512 29.4931C150.848 29.6025 151.738 32.7489 150.138 32.8212C139.89 33.2724 129.778 35.4234 119.565 35.9467C118.542 35.9693 117.913 33.5409 119.048 33.5152Z" fill="#14627C"/>
<path d="M165.141 35.5845C163.047 33.6531 160.627 32.1076 157.993 31.0194C155.549 30.0527 152.971 29.464 150.349 29.2735C144.948 29.0159 139.539 29.586 134.31 30.9639C131.645 31.5659 128.987 32.2407 126.334 32.8761C123.43 33.5746 120.494 34.1615 117.549 34.6194C111.428 35.616 105.22 35.9756 99.0248 35.6923C92.9547 35.4543 86.9601 34.261 81.2617 32.1564C80.601 31.8485 79.897 31.6037 79.2249 31.2905C79.0541 31.2109 78.9673 30.7128 79.2118 30.8129C84.8938 33.1383 90.9117 34.5384 97.0367 34.96C103.311 35.4151 109.617 35.1828 115.842 34.2673C118.815 33.8368 121.842 33.2923 124.826 32.6309C127.508 32.0228 130.176 31.3252 132.869 30.6944C138.063 29.3037 143.419 28.6058 148.796 28.6191C154.156 28.7064 159.346 30.5126 163.601 33.7716C164.182 34.2222 164.735 34.7017 165.277 35.2041C165.414 35.2678 165.403 35.7066 165.214 35.5488L165.141 35.5845Z" fill="black"/>
<path d="M32.9123 42.4258C32.9284 42.2323 32.8411 42.0193 32.6607 41.8111C32.4802 41.603 32.2138 41.4083 31.8922 41.2493C29.0305 39.8843 25.9107 38.7802 22.7131 38.0007C19.8542 36.5102 16.7549 35.212 13.5232 34.1514C12.1092 33.5027 10.6051 32.9492 9.05892 32.5088C8.83781 32.4513 8.61448 32.4142 8.39884 32.3992C8.26691 32.2772 8.11938 32.1586 7.95798 32.0449C6.1828 30.4561 0.667616 31.3673 1.70297 32.9159C5.45495 38.8934 20.3202 45.5237 29.8881 45.0511C31.5988 44.9514 34.0124 43.4257 32.9123 42.4258Z" fill="#14627C"/>
<path d="M16.0861 32.9756C19.7908 34.8702 23.1478 37.5161 26.8727 39.3392C28.6779 40.2631 30.6014 40.8836 32.5973 41.1859C33.6322 41.3439 34.691 41.371 35.7577 41.2668C36.7529 41.1615 37.7353 40.9946 38.7418 40.7959C40.8157 40.3965 42.9009 39.9037 44.9775 39.6015C46.0158 39.4505 47.044 39.3352 48.08 39.2993C49.116 39.2634 50.1776 39.3505 51.2225 39.3364C55.6037 39.4983 59.9118 40.1581 64.0932 41.3074C68.7276 42.6355 73.4969 43.458 78.3499 43.766C78.5316 43.8172 78.9077 43.2862 78.5941 43.275C69.8873 42.9614 61.9093 39.2627 53.2289 38.8021C52.1623 38.7328 51.0894 38.739 50.0126 38.7055C49.0047 38.6595 47.9869 38.6948 46.9656 38.8111C44.9472 39.0138 42.9101 39.4429 40.8921 39.8581C38.8001 40.3946 36.6968 40.687 34.6114 40.731C32.5453 40.6527 30.5391 40.1972 28.6567 39.3792C24.3872 37.6148 20.6777 34.5606 16.527 32.4822C16.3314 32.427 15.8776 32.8589 16.156 32.9953L16.0861 32.9756Z" fill="black"/>
<path d="M56.9533 29.988C58.4476 29.7295 59.9398 29.6526 61.4081 29.7583C62.1438 29.8243 62.8677 29.9321 63.5799 30.0815C63.9153 30.1761 64.2646 30.2747 64.6 30.3693C64.9829 30.5044 65.3873 30.5664 65.8002 30.5535C65.884 30.5771 66.1883 30.354 66.0509 30.1994C65.7326 29.9925 65.3685 29.8898 64.9889 29.8998L63.8151 29.5686C63.1304 29.3755 62.3723 29.3354 61.6612 29.2892C60.1431 29.1979 58.6026 29.2869 57.0604 29.5549C56.8205 29.6031 56.5523 30.1258 56.9191 30.0555L56.9533 29.988Z" fill="black"/>
</svg>
