<svg width="470" height="69" viewBox="0 0 470 69" fill="none" xmlns="http://www.w3.org/2000/svg">
<path d="M413.662 34.109C419.532 31.6514 425.142 28.0857 431.012 25.5854C431.289 25.4944 431.579 25.5292 431.842 25.6849C432.591 24.8443 433.441 24.2041 434.352 23.7955C435.352 23.3267 437.712 26.4094 436.552 27.4749C431.982 31.7366 430.962 39.5357 424.992 41.0558C421.132 42.0502 415.272 42.5616 413.352 36.4246C413.132 35.7569 412.942 34.4216 413.662 34.109Z" fill="#29758C"/>
<path d="M373.602 64.453C373.614 64.2695 373.663 64.0948 373.743 63.949C373.823 63.8033 373.93 63.6924 374.052 63.6292C375.132 63.1122 376.274 62.9046 377.412 63.0183C378.503 62.3843 379.656 61.9914 380.832 61.8534C381.363 61.6218 381.916 61.5022 382.472 61.4983C382.551 61.5028 382.628 61.5268 382.702 61.5693C382.757 61.4907 382.817 61.4193 382.882 61.3561C383.622 60.3475 385.372 62.6347 384.882 63.7996C383.072 68.3597 377.502 70.6185 374.362 67.6778C373.802 67.138 373.142 65.0923 373.602 64.453Z" fill="#29758C"/>
<path d="M264.081 13.2404C269.851 10.8253 274.501 4.97245 280.341 3.01203C281.341 2.67108 283.251 4.94407 282.341 6.4215C282.921 10.8822 276.921 14.1779 274.831 15.4423C271.951 17.1896 266.351 20.5565 264.021 15.7691C263.731 15.1724 263.271 13.5813 264.081 13.2404Z" fill="#29758C"/>
<path d="M146.262 33.768C153.652 28.5118 159.102 19.3347 166.882 15.1014C167.882 14.5757 169.582 17.3743 168.452 18.2125C161.212 23.5681 154.642 30.6001 147.452 36.0126C146.722 36.524 145.452 34.3363 146.262 33.768Z" fill="#29758C"/>
<path d="M469.561 54.6793C465.385 48.9234 460.935 43.5835 456.241 38.6975C453.901 36.2825 451.481 33.9954 449.001 31.8787C447.741 30.799 446.471 29.7478 445.211 28.6823C443.981 27.6068 442.697 26.6573 441.371 25.8411C438.843 24.1816 436.003 23.7378 433.281 24.5769C431.882 25.1614 430.509 25.8683 429.171 26.6935C427.771 27.4322 426.371 28.1141 424.961 28.8528C419.341 31.5945 413.471 33.7823 407.501 33.8533C404.648 33.7259 401.804 33.3129 398.991 32.6174C396.066 32.1 393.161 31.3602 390.291 30.4013C389.591 30.1456 388.891 29.8756 388.211 29.5631C388.051 29.5631 387.881 28.9807 388.121 29.0801C390.96 30.2643 393.858 31.1335 396.791 31.6799C398.251 31.9924 399.721 32.2764 401.181 32.5748C402.641 32.8731 404.091 33.1715 405.561 33.2709C411.661 33.6403 417.711 31.5662 423.461 28.8812C426.311 27.5459 429.091 26.04 431.901 24.5058C434.443 23.2772 437.2 23.2772 439.741 24.5058C442.393 25.9308 444.928 27.7598 447.301 29.9609C449.841 32.0066 452.301 34.2227 454.711 36.6093C459.466 41.3468 463.971 46.5695 468.191 52.2359L469.771 54.381C469.981 54.6651 469.771 54.9635 469.561 54.6651V54.6793Z" fill="black"/>
<path d="M393.452 27.759C391.954 27.2929 390.425 27.0595 388.892 27.0629C388.152 27.0629 387.412 27.0629 386.672 27.0629C385.932 27.1628 385.187 27.1341 384.452 26.9776C384.382 26.9776 384.202 26.6935 384.332 26.6366C384.66 26.5314 384.996 26.4884 385.332 26.5088H386.472C387.252 26.5088 388.032 26.5088 388.812 26.5088C390.348 26.5357 391.878 26.8073 393.372 27.3186C393.502 27.3186 393.662 27.8158 393.442 27.7448L393.452 27.759Z" fill="black"/>
<path d="M382.942 61.1573C380.132 61.7823 377.412 63.0324 374.602 63.6007C373.232 63.9058 371.841 63.9631 370.462 63.7711C369.746 63.6725 369.039 63.4727 368.352 63.1745C367.712 62.8904 367.092 62.5637 366.462 62.2085C365.162 61.484 363.872 60.6884 362.552 60.0349C361.892 59.7082 361.232 59.4099 360.552 59.1684C359.872 58.9269 359.152 58.7706 358.462 58.5433C355.527 57.7529 352.548 57.344 349.562 57.3216C346.242 57.3368 342.926 56.9519 339.652 56.171C339.522 56.171 339.372 55.7021 339.582 55.7589C345.412 57.3358 351.392 56.2704 357.232 57.7336C357.952 57.9041 358.662 58.1313 359.382 58.3302C360.059 58.5057 360.727 58.7429 361.382 59.0405C362.682 59.6087 363.952 60.3474 365.212 61.072C366.498 61.9011 367.838 62.5529 369.212 63.0183C370.596 63.3895 372.011 63.4709 373.412 63.2597C376.572 62.8478 379.602 61.3704 382.742 60.7027C382.882 60.7027 383.102 61.1147 382.892 61.1573H382.942Z" fill="black"/>
<path d="M356.411 50.4743C355.469 49.9739 354.494 49.6075 353.501 49.3804C353.001 49.2762 352.501 49.2053 352.001 49.1674C351.761 49.1674 351.511 49.1674 351.271 49.1674C350.992 49.1873 350.713 49.149 350.441 49.0537C350.381 49.0537 350.221 48.8264 350.341 48.7411C350.591 48.655 350.852 48.655 351.101 48.7411H351.941C352.431 48.7411 352.941 48.869 353.421 48.9827C354.445 49.2307 355.449 49.616 356.421 50.1334C356.571 50.2186 356.651 50.659 356.421 50.5311L356.411 50.4743Z" fill="black"/>
<path d="M294.731 1.09439C291.922 0.835953 289.102 0.96922 286.311 1.4922C283.704 2.01071 281.146 2.93483 278.681 4.24807C276.039 5.71406 273.473 7.442 271.001 9.41907C268.567 11.3755 266.045 13.1029 263.451 14.5901C260.52 16.2286 257.401 17.0859 254.251 17.1188C254.091 17.1188 253.871 16.6357 254.081 16.6357C256.953 16.6004 259.8 15.8752 262.501 14.4906C265.089 13.1085 267.599 11.4511 270.011 9.53275C272.497 7.53417 275.065 5.75043 277.701 4.19128C280.129 2.82091 282.654 1.82555 285.231 1.22228C288.331 0.557425 291.474 0.381068 294.601 0.696578C294.721 0.696578 294.901 1.10859 294.731 1.09439Z" fill="black"/>
<path d="M276.522 10.3567C275.19 11.2175 273.813 11.9253 272.402 12.4734C271.722 12.7433 271.042 12.999 270.352 13.2405L269.262 13.6241C268.923 13.8051 268.563 13.8919 268.202 13.8798C268.122 13.8798 267.982 13.6525 268.062 13.5389C268.142 13.4252 268.762 13.1837 269.062 13.0842L270.162 12.7007C270.852 12.4734 271.542 12.2319 272.222 11.962C273.623 11.4343 274.994 10.7551 276.322 9.93047C276.452 9.84524 276.692 10.2573 276.532 10.3567H276.522Z" fill="black"/>
<path d="M180.202 13.8798C178.042 12.9011 175.777 12.473 173.512 12.6155C171.424 12.7922 169.367 13.4197 167.412 14.4764C163.429 16.7915 159.72 19.9583 156.412 23.8667C154.692 25.7561 153.002 27.7165 151.302 29.6343C149.442 31.7368 147.522 33.7398 145.552 35.615C141.472 39.5587 137.115 42.8912 132.552 45.5591C128.094 48.2135 123.369 49.8531 118.552 50.4176C117.972 50.4176 117.382 50.5029 116.792 50.5029C116.642 50.5029 116.412 50.034 116.622 50.0198C121.501 49.6894 126.312 48.2506 130.872 45.758C135.55 43.2282 140.02 39.9794 144.202 36.0696C146.202 34.2086 148.202 32.2055 150.132 30.103C151.862 28.1994 153.552 26.2106 155.282 24.2786C158.561 20.3735 162.189 17.1014 166.072 14.5474C169.967 12.0778 174.317 11.4504 178.482 12.7576C179.052 12.9422 179.612 13.1695 180.172 13.4252C180.292 13.4252 180.432 13.8798 180.242 13.8088L180.202 13.8798Z" fill="black"/>
<path d="M131.771 37.3481C127.955 39.3144 124.045 40.8951 120.071 42.0787C116.112 43.249 112.104 44.0509 108.071 44.4795C106.931 44.6073 105.781 44.6926 104.641 44.7636C103.495 44.856 102.347 44.856 101.201 44.7636C101.091 44.7636 100.891 44.3942 101.071 44.38C102.071 44.2522 103.071 44.2948 104.071 44.238C105.071 44.1812 106.071 44.1243 107.071 44.0391C109.071 43.8402 111.088 43.5561 113.121 43.1868C117.143 42.4319 121.125 41.2976 125.041 39.7915C127.241 38.9581 129.421 38.0111 131.581 36.9503C131.721 36.8793 131.951 37.3055 131.791 37.3765L131.771 37.3481Z" fill="black"/>
<path d="M36.6618 38.7544C32.7157 35.6405 28.4559 33.4077 24.0317 32.1344C19.5497 30.8117 14.9967 30.0323 10.4218 29.8047C9.14176 29.7195 7.87181 29.6768 6.59181 29.6342C5.31181 29.5916 4.01182 29.6342 2.73182 29.5206C2.62182 29.5206 2.41182 29.1512 2.60182 29.1227C3.72182 28.9949 4.86183 29.1227 5.99183 29.1227L9.44178 29.2506C11.7618 29.3785 14.0717 29.5916 16.3817 29.9467C20.9411 30.5539 25.4368 31.898 29.7817 33.9528C32.1706 35.1278 34.4773 36.6164 36.6718 38.3993C36.8018 38.4987 36.8718 38.9534 36.6718 38.7829L36.6618 38.7544Z" fill="black"/>
<path d="M7.50204 33.7681C6.35204 33.5977 5.21199 33.4272 4.07199 33.2993C3.50199 33.2283 2.93202 33.1857 2.35202 33.1431C1.79965 33.177 1.2463 33.1246 0.701991 32.9868C0.631991 32.9868 0.451996 32.7027 0.581996 32.6459C1.10772 32.5106 1.64624 32.5106 2.17196 32.6459C2.74196 32.6459 3.32193 32.7453 3.89193 32.8164C5.04193 32.9584 6.192 33.1431 7.332 33.3278C7.482 33.3278 7.70204 33.8392 7.50204 33.8108V33.7681Z" fill="black"/>
<path d="M99.5312 20.6703C97.5312 21.4232 95.5813 22.0909 93.5813 22.5739C92.5813 22.8296 91.5813 23.0711 90.5813 23.2984L89.0713 23.6109C88.5357 23.7755 87.9892 23.8565 87.4412 23.8524C87.3512 23.8524 87.1012 23.5398 87.2612 23.4404C87.7138 23.2535 88.1804 23.1439 88.6512 23.1137L90.1612 22.8012C91.2212 22.5739 92.2813 22.3324 93.3313 22.0625C95.3313 21.551 97.3313 20.9544 99.2513 20.2157C99.4013 20.2157 99.6413 20.6135 99.4813 20.6703H99.5312Z" fill="black"/>
<path d="M87.7817 26.3669C86.5482 26.8868 85.2876 27.2669 84.0117 27.5034C83.3717 27.6171 82.7418 27.7023 82.1018 27.7591C81.7918 27.7591 81.4718 27.7591 81.1018 27.7591C80.7703 27.83 80.4333 27.83 80.1018 27.7591C80.0218 27.7591 79.8018 27.4039 79.9618 27.3329C80.2419 27.2588 80.5274 27.235 80.8118 27.2619H81.8118C82.4218 27.2619 83.0417 27.1483 83.6617 27.0488C84.9606 26.8334 86.2449 26.4676 87.5018 25.9549C87.6518 25.8839 87.9118 26.3527 87.7318 26.4238L87.7817 26.3669Z" fill="black"/>
</svg>
