<svg width="141" height="63" viewBox="0 0 141 63" fill="none" xmlns="http://www.w3.org/2000/svg">
<path d="M0 23.5075L8.98993 21L12.7752 21.6269L17.9799 23.194L44 24.5L52.5 28.5224L70 27.2687L79 23.5075H87L93 28.5224H100.5L112.5 25L126.5 21.6269L141 23.5075V63H0V23.5075Z" fill="#1D8CB3"/>
<path d="M67.3334 26.9737C73.1181 26.745 78.4879 23.246 84.3073 23.8222C85.0514 23.9079 85.5477 26.3733 84.656 26.4298C78.9457 26.7834 73.3117 28.4688 67.6213 28.8788C67.0515 28.8965 66.701 26.9938 67.3334 26.9737Z" fill="#14627D"/>
<path d="M93.0158 28.5952C91.8486 27.0819 90.5002 25.8709 89.0329 25.0183C87.6708 24.2608 86.2346 23.7995 84.7738 23.6503C81.7643 23.4485 78.7505 23.8952 75.8371 24.9748C74.352 25.4465 72.8712 25.9752 71.3929 26.4731C69.7746 27.0204 68.139 27.4803 66.4982 27.839C63.0876 28.6199 59.6287 28.9016 56.1768 28.6797C52.7947 28.4932 49.4546 27.5582 46.2795 25.9091C45.9114 25.6679 45.5191 25.4761 45.1447 25.2307C45.0495 25.1683 45.0011 24.7781 45.1373 24.8565C48.3033 26.6785 51.6563 27.7756 55.0691 28.1059C58.5653 28.4624 62.0787 28.2804 65.5468 27.5632C67.2036 27.2258 68.89 26.7992 70.5528 26.2809C72.0471 25.8045 73.5338 25.2579 75.0341 24.7636C77.9284 23.6739 80.9124 23.1272 83.9085 23.1376C86.8948 23.206 89.7865 24.6212 92.1577 27.1747C92.4811 27.5278 92.7892 27.9035 93.0914 28.2971C93.1675 28.347 93.1617 28.6909 93.0559 28.5672L93.0158 28.5952Z" fill="black"/>
<path d="M19.34 33.9556C19.349 33.804 19.3003 33.6371 19.1998 33.474C19.0992 33.3109 18.9508 33.1583 18.7716 33.0337C17.1771 31.9642 15.4388 31.0991 13.6572 30.4883C12.0643 29.3205 10.3374 28.3033 8.53671 27.4723C7.74885 26.964 6.9108 26.5303 6.04932 26.1852C5.92612 26.1402 5.80168 26.1111 5.68154 26.0993C5.60803 26.0037 5.52582 25.9108 5.4359 25.8217C4.4468 24.5768 1.37384 25.2908 1.95072 26.5042C4.04125 31.1878 12.3239 36.3829 17.655 36.0126C18.6081 35.9345 19.9529 34.7391 19.34 33.9556Z" fill="#14627D"/>
<path d="M9.9647 26.5509C12.0289 28.0354 13.8994 30.1086 15.9748 31.5371C16.9806 32.261 18.0524 32.7472 19.1644 32.984C19.7411 33.1078 20.331 33.1291 20.9254 33.0474C21.4799 32.9649 22.0272 32.8342 22.588 32.6785C23.7436 32.3655 24.9054 31.9794 26.0625 31.7426C26.641 31.6243 27.2139 31.5339 27.7911 31.5058C28.3684 31.4777 28.9599 31.5459 29.5421 31.5349C31.9832 31.6618 34.3836 32.1787 36.7134 33.0793C39.2956 34.1199 41.9529 34.7643 44.657 35.0056C44.7582 35.0458 44.9678 34.6297 44.793 34.6209C39.9418 34.3752 35.4966 31.4771 30.66 31.1163C30.0657 31.062 29.4679 31.0668 28.8679 31.0405C28.3063 31.0045 27.7392 31.0322 27.1702 31.1233C26.0456 31.2821 24.9106 31.6184 23.7862 31.9437C22.6205 32.364 21.4486 32.5931 20.2867 32.6276C19.1354 32.5662 18.0177 32.2094 16.9688 31.5684C14.5899 30.186 12.5231 27.7928 10.2104 26.1644C10.1014 26.1211 9.84855 26.4595 10.0036 26.5664L9.9647 26.5509Z" fill="black"/>
<path d="M32.7352 24.2101C33.5677 24.0076 34.3992 23.9473 35.2173 24.0301C35.6272 24.0818 36.0306 24.1663 36.4274 24.2834C36.6142 24.3575 36.8089 24.4347 36.9957 24.5089C37.2091 24.6147 37.4344 24.6633 37.6645 24.6532C37.7112 24.6717 37.8807 24.4969 37.8042 24.3758C37.6268 24.2137 37.424 24.1332 37.2125 24.141L36.5584 23.8815C36.1769 23.7302 35.7545 23.6988 35.3583 23.6626C34.5125 23.591 33.6541 23.6607 32.7948 23.8708C32.6612 23.9085 32.5118 24.3181 32.7161 24.263L32.7352 24.2101Z" fill="black"/>
</svg>
